<?xml version="1.0" encoding="UTF-8" standalone="no"?>
<!-- Created with Inkscape (http://www.inkscape.org/) -->

<svg
   width="83.295189mm"
   height="111.38605mm"
   viewBox="0 0 83.295192 111.38605"
   version="1.1"
   id="svg5"
   inkscape:version="1.1 (1:1.1+202105261517+ce6663b3b7)"
   sodipodi:docname="data_davidson_2004.svg"
   xmlns:inkscape="http://www.inkscape.org/namespaces/inkscape"
   xmlns:sodipodi="http://sodipodi.sourceforge.net/DTD/sodipodi-0.dtd"
   xmlns="http://www.w3.org/2000/svg"
   xmlns:svg="http://www.w3.org/2000/svg">
  <sodipodi:namedview
     id="namedview7"
     pagecolor="#ffffff"
     bordercolor="#666666"
     borderopacity="1.0"
     inkscape:pageshadow="2"
     inkscape:pageopacity="0.0"
     inkscape:pagecheckerboard="0"
     inkscape:document-units="mm"
     showgrid="false"
     lock-margins="true"
     fit-margin-top="3"
     fit-margin-left="3"
     fit-margin-right="3"
     fit-margin-bottom="3"
     inkscape:zoom="1.526922"
     inkscape:cx="11.133509"
     inkscape:cy="190.25202"
     inkscape:window-width="1920"
     inkscape:window-height="1023"
     inkscape:window-x="0"
     inkscape:window-y="0"
     inkscape:window-maximized="1"
     inkscape:current-layer="layer1" />
  <defs
     id="defs2">
    <clipPath
       clipPathUnits="userSpaceOnUse"
       id="clipPath856">
      <path
         d="M 0,0 H 842 V 1191 H 0 Z"
         id="path854" />
    </clipPath>
  </defs>
  <g
     inkscape:label="Layer 1"
     inkscape:groupmode="layer"
     id="layer1"
     transform="translate(-124.07614,-41.17265)">
    <g
       id="g1251"
       transform="matrix(0.42637688,0,0,0.5896914,48.390783,42.66155)"
       style="stroke-linecap:butt;stroke-linejoin:round">
      <path
         style="fill:#999999;fill-opacity:0.341485;fill-rule:evenodd;stroke:#d3c55f;stroke-width:1.08595px;stroke-linecap:butt;stroke-linejoin:miter;stroke-opacity:1"
         d="m 185.65586,2.582811 4.35195,116.412319 4.35192,4.0912 5.00472,8.92613 5.00474,-7.06656 4.35193,-13.76116 4.13434,27.15047 5.00472,-16.7366 4.35193,34.96084 5.00474,-10.04192 4.13433,-36.82052 4.78713,14.50506 4.35193,24.54699 4.78712,-26.03465 4.56953,29.38196 5.00474,1.48772 4.56952,-17.85236 3.91675,15.24889 4.78712,-18.96816 9.35665,15.99278 5.8751,-0.7439 3.91675,-17.10844 4.13435,35.33277 9.79181,-50.2098 4.352,-0.37185 8.92144,31.61353 5.22234,-15.9927 4.13433,-28.26619 4.56954,33.84504 4.35193,-26.77855 4.56956,49.094 4.5695,-32.35739 4.56953,35.33283 4.78712,-62.111378 5.22233,47.606268 4.13433,-2.60346 1.52318,4.09118 3.04635,-2.97538 v 26.40658 l -9.79186,-9.66997 -4.13433,-17.10858 -4.35193,33.47321 -4.56952,-17.85234 -4.78712,9.2981 -4.56953,-25.29087 -4.56954,16.73664 -5.22234,-14.87704 -3.91671,10.78587 -4.35195,2.23153 -5.22232,-11.90164 -4.35193,2.60352 -8.2687,12.64542 -6.09272,16.36468 -4.13435,-22.31548 -3.91673,15.99278 -5.22231,-4.83504 -4.56953,5.95081 -5.00472,-18.96821 -4.56952,10.04202 -4.13435,-6.32274 -5.00474,8.55429 -4.35192,0.37186 -4.78713,-24.17509 -4.35193,25.66275 -5.00473,-9.66997 -4.35193,-26.40663 -4.35192,26.77855 -4.13435,14.87696 -5.43992,-22.31552 -4.56952,4.46311 -4.35194,-10.78578 -4.78712,15.99276 -4.78713,-7.81044 -4.35194,2.97545 -5.43991,-6.32275 -3.69916,-87.774143 z"
         id="path4151-7-3" />
      <path
         style="fill:#999999;fill-opacity:0.341485;fill-rule:evenodd;stroke:#5f6dd3;stroke-width:1.08595px;stroke-linecap:butt;stroke-linejoin:miter;stroke-opacity:1"
         d="m 185.08708,5.7816735 1.53864,23.1431465 8.61639,-8.678649 4.15432,63.906616 4.92365,-26.825001 4.3082,-0.26294 4.61592,9.99365 4.46206,50.494094 5.07751,-11.57157 4.61592,8.41572 4.30824,-22.354205 4.1543,9.204655 5.38527,1.31501 4.00047,44.18234 2.76955,-17.35738 2.00024,-19.19825 4.46206,17.09435 4.76978,-29.45494 4.30817,14.46449 4.76978,27.61396 5.84685,-15.51641 4.00049,-14.99045 3.69272,13.41252 5.23139,7.10076 4.76979,-4.73388 4.46206,10.78257 4.76978,-18.40929 4.15434,18.93533 5.07751,-17.35735 4.46205,32.87377 4.76981,-51.80907 4.00046,64.95857 5.23137,-48.3902 h 4.46207 l 4.15434,24.72106 5.23137,2.62994 4.15434,-0.78897 4.61588,-15.77941 4.76981,30.50682 5.23139,-10.25659 1.07707,4.73382 2.7695,-3.1559 -0.30765,19.72429 -4.00046,-7.88972 c 0,0 -4.92366,14.20149 -4.92366,12.36055 0,-1.84092 -4.46203,-24.72108 -4.46203,-24.72108 l -4.61593,22.88016 -4.76978,-2.10394 -9.07798,-24.72109 -4.30821,9.20464 -5.07751,26.03605 -4.61591,-34.18874 -4.46207,19.72427 -4.46206,-13.14949 -4.61592,8.67867 -4.46207,-9.46769 -4.76978,11.57165 -5.53913,-2.89293 -3.69273,-5.78581 -4.15432,7.36374 -4.92365,-21.82816 -4.46206,15.25343 -5.38524,6.31173 -8.77026,-22.88017 -4.61593,24.19517 -4.76977,-16.83142 -4.76978,21.30218 -8.61641,-47.60116 -4.46207,34.45168 -8.77025,-4.73383 -5.53914,1.57798 -4.1543,-52.598036 -5.693,3.681816 -4.15432,7.62672 -4.00048,3.9449 -4.92364,-36.555692 -5.07751,2.892916 -4.00047,-16.042414 z"
         id="path4266-5-6" />
    </g>
  </g>
</svg>
