<?xml version="1.0" encoding="UTF-8" standalone="no"?>
<!-- Created with Inkscape (http://www.inkscape.org/) -->

<svg
   width="59.662392mm"
   height="91.689217mm"
   viewBox="0 0 59.662391 91.689215"
   version="1.1"
   id="svg5"
   inkscape:version="1.1 (1:1.1+202105261517+ce6663b3b7)"
   sodipodi:docname="data_oh_2019_kim_2015.svg"
   xmlns:inkscape="http://www.inkscape.org/namespaces/inkscape"
   xmlns:sodipodi="http://sodipodi.sourceforge.net/DTD/sodipodi-0.dtd"
   xmlns="http://www.w3.org/2000/svg"
   xmlns:svg="http://www.w3.org/2000/svg">
  <sodipodi:namedview
     id="namedview7"
     pagecolor="#ffffff"
     bordercolor="#666666"
     borderopacity="1.0"
     inkscape:pageshadow="2"
     inkscape:pageopacity="0.0"
     inkscape:pagecheckerboard="0"
     inkscape:document-units="mm"
     showgrid="false"
     lock-margins="true"
     fit-margin-top="3.2"
     fit-margin-left="3.2"
     fit-margin-right="3.2"
     fit-margin-bottom="3.2"
     inkscape:zoom="1.526922"
     inkscape:cx="86.120968"
     inkscape:cy="176.82632"
     inkscape:window-width="1920"
     inkscape:window-height="1023"
     inkscape:window-x="0"
     inkscape:window-y="0"
     inkscape:window-maximized="1"
     inkscape:current-layer="layer1" />
  <defs
     id="defs2">
    <clipPath
       clipPathUnits="userSpaceOnUse"
       id="clipPath948">
      <path
         d="M 36,713.99 H 556.044 V 292.592 H 36"
         id="path946" />
    </clipPath>
  </defs>
  <g
     inkscape:label="Layer 1"
     inkscape:groupmode="layer"
     id="layer1"
     transform="translate(-113.62935,-134.81392)">
    <path
       style="fill:none;fill-rule:evenodd;stroke:#1f77b4;stroke-width:0.706766;stroke-linecap:butt;stroke-linejoin:miter;stroke-miterlimit:4;stroke-dasharray:none;stroke-opacity:1"
       d="m 117.48067,149.38061 0.48552,0.0684 0.46754,-0.20515 0.26973,0.3191 0.53946,-0.0912 0.17982,3.3734 0.25175,1.7323 0.26974,1.89182 0.62937,1.25363 0.10789,-8.27394 0.34166,-3.92045 0.64735,-3.37341 0.53947,-1.25363 v 14.17742 l 0.10789,0.68379 0.35964,1.59552 0.21578,0.7294 0.52148,0.79776 0.32368,0.20514 0.1079,-16.13763 0.17981,-1.04849 0.018,-0.43308 0.73726,-1.02569 0.5035,-0.18235 0.0359,0.86615 0.1079,7.95485 0.28771,0.15955 c 0,0 0.0359,-0.15955 0.0899,-0.0456 0.054,0.11397 0.17982,0.50146 0.17982,0.50146 l 0.32367,-0.41028 0.43158,0.27351 0.14385,-0.50145 0.14386,-7.68133 0.17982,-0.61543 0.46754,-0.63821 0.0899,-0.36468 0.34166,-0.0683 0.28771,0.0912 0.0899,0.77497 0.14386,15.9097 0.34166,1.32201 0.23376,0.82056 0.44956,0.38748 0.43157,0.31911 0.0899,-18.34858 0.036,-0.61541 0.50349,-0.7066 0.66534,-0.15954 0.25175,0.38748 0.21578,18.37136 0.44956,1.16247 0.61139,0.50145 0.41358,-0.15956 0.018,-10.07461 0.48552,-0.3419 1.15085,0.0228 0.7013,0.25074 0.62937,-0.0684 0.0899,-0.45587 0.0899,-7.79531 0.61138,-1.13966 0.88113,-0.77497 0.21578,18.64489 0.31469,0.76358 0.43157,0.47865 0.68332,0.13676 0.0719,-19.12924 0.25176,-0.63822 0.5035,-0.3191 0.43157,-0.11397 0.23376,0.41028 0.0719,0.22793 0.12587,19.16915 0.4136,0.6382 0.3956,0.25073 0.61139,0.20513 0.12587,-10.4393 0.62938,-0.3647 0.52147,-0.20513 0.44956,0.61541 0.036,9.73273 0.50349,0.54703 0.34167,0.0912 0.32367,-0.0683 0.17982,-0.15956 0.054,-0.25072 0.10789,-19.3059 0.46754,-0.6838 0.44954,-0.43308 0.5035,0.38749 0.23377,19.83015 0.37763,0.54703 0.46753,0.11397 0.34166,0.25072 0.25175,-0.56983 0.10339,-20.18913 0.84516,-0.72938 0.68332,0.36468 0.036,8.29676 0.14386,1.96023 0.84516,0.13675 0.55744,-0.29631 0.53946,0.38749 0.97104,-0.0912 0.1978,9.64154 0.61139,0.63821 0.59341,0.38749 0.28771,-0.3419 0.018,-19.87003 0.43157,-0.75217 0.3956,-0.22794 0.62938,-0.0228 0.1978,20.60511 0.35964,0.22793 0.57543,0.29632 0.48552,-0.18235 0.0719,-20.62791 0.44956,-0.50144 0.71928,0.0912 0.3057,0.63822 0.16184,9.89228 0.3956,-0.13676 0.37762,0.15956 0.23377,-0.25073 0.39561,0.20514 0.14385,-10.27977 0.5035,-0.29632 0.97103,0.3875 0.14079,20.05022 0.24794,0.32235 0.52769,0.36263 0.39417,-0.0645 0.29881,-0.19341 0.11688,-20.51152 0.59341,-0.41029 0.21578,0.27352 0.6114,-0.41028 0.14385,20.9926 0.43157,0.47866 0.41359,0.41028 0.5934,-0.15955 0.0539,-0.43308 0.10789,-10.50768 0.37764,-0.36469 0.3956,0.27352 0.77323,0.0683 0.25175,-0.0456 v 0"
       id="path1542" />
    <path
       style="fill:#1f77b4;fill-opacity:1;stroke:#1f77b4;stroke-width:0.314379;stroke-linecap:butt;stroke-linejoin:round;stroke-miterlimit:4;stroke-dasharray:none;stroke-opacity:1"
       d="m 118.2484,222.8874 c -0.0176,-0.14268 -0.0507,-0.49282 -0.0736,-0.77815 -0.0466,-0.58405 -0.28333,-2.05625 -0.37391,-2.32645 -0.0413,-0.12308 -0.10817,-0.13503 -0.21921,-0.0387 -0.12546,0.10876 -0.16856,0.0864 -0.20056,-0.1037 -0.0533,-0.31694 0.15861,-0.66973 0.36832,-0.61311 0.17062,0.0461 0.24966,0.31916 0.43078,1.48847 0.0599,0.38724 0.1297,0.70405 0.15495,0.70405 0.0609,0 0.1982,-1.0035 0.324,-2.36997 0.0713,-0.77361 0.13372,-1.12395 0.20614,-1.15574 0.0713,-0.0314 0.11671,0.10033 0.14472,0.41967 0.0249,0.2837 0.0894,0.49428 0.16527,0.5395 0.11854,0.0707 0.22484,0.52225 0.20745,0.88134 -0.005,0.092 0.0661,0.19981 0.15659,0.23929 0.13682,0.0598 0.18228,-0.0126 0.26849,-0.42691 0.18905,-0.90832 0.3943,-0.52782 0.39953,0.74062 0.004,0.845 0.1144,1.23515 0.18047,0.63487 0.0237,-0.2156 0.0255,-0.55216 0.004,-0.74795 -0.0617,-0.56018 0.0308,-1.73348 0.14457,-1.83298 0.0551,-0.0483 0.11176,-0.008 0.12582,0.0871 0.0516,0.35318 0.1222,0.15685 0.20347,-0.56622 0.0616,-0.54822 0.11409,-0.74109 0.2016,-0.74109 0.0877,0 0.12985,-0.15598 0.1629,-0.60211 0.0332,-0.44825 0.0845,-0.63668 0.20076,-0.73744 0.0927,-0.0804 0.15611,-0.25528 0.15611,-0.43023 0,-0.16229 0.0585,-0.3663 0.13002,-0.45353 0.0714,-0.0871 0.13001,-0.2676 0.13001,-0.4007 0,-0.74677 0.15166,-2.11907 0.2342,-2.11907 0.0499,0 0.0909,0.0683 0.0909,0.15196 0,0.0835 0.0731,0.21528 0.16252,0.29276 0.0894,0.0775 0.16253,0.20923 0.16253,0.29277 0,0.0835 0.0292,0.15196 0.065,0.15196 0.0358,0 0.065,-0.0961 0.065,-0.21357 0,-0.3119 0.12136,-0.43196 0.2296,-0.22714 0.11527,0.2181 0.13911,0.0998 0.20936,-1.03979 0.0355,-0.57644 0.0813,-0.82721 0.15693,-0.86043 0.10488,-0.0461 0.1757,0.29728 0.27779,1.34649 0.0473,0.48679 0.16644,0.39669 0.16644,-0.12604 0,-0.19898 0.0281,-0.36176 0.0625,-0.36176 0.0344,0 0.0943,-0.2835 0.13322,-0.62998 0.10836,-0.96514 0.11738,-1.00163 0.22437,-0.90801 0.0694,0.0607 0.10076,0.29716 0.10257,0.77565 0.002,0.68111 0.004,0.68417 0.0957,0.29771 0.072,-0.30221 0.13827,-0.38528 0.29313,-0.36753 0.11004,0.0126 0.2254,0.11635 0.25634,0.23054 0.0476,0.17576 0.0807,0.17122 0.21539,-0.0301 0.12052,-0.18007 0.16973,-0.42025 0.20291,-0.99058 0.0241,-0.41408 0.0605,-0.85212 0.081,-0.9734 0.0417,-0.24768 0.21823,-0.30361 0.21823,-0.0691 0,0.0833 0.0674,0.22139 0.14977,0.30698 0.2356,0.24473 0.29266,0.58847 0.37516,2.25996 0.0548,1.11117 0.10458,1.58721 0.17203,1.64622 0.15269,0.13364 0.19119,-0.006 0.2731,-0.98894 0.10823,-1.29916 0.13208,-1.44876 0.23087,-1.44876 0.0558,0 0.10354,0.27919 0.13307,0.77816 0.0598,1.01067 0.0658,1.02634 0.28699,0.73702 0.15363,-0.20103 0.20138,-0.40221 0.26185,-1.10287 0.0713,-0.82771 0.18926,-1.09856 0.30008,-0.68972 0.0743,0.27383 0.15428,-0.2049 0.19961,-1.19361 0.0374,-0.8151 0.0555,-0.90051 0.1916,-0.90051 0.12339,0 0.15734,0.0996 0.18951,0.55583 0.0215,0.3057 0.0543,0.72093 0.0729,0.92272 l 0.0337,0.36693 0.11678,-0.35298 c 0.19491,-0.58919 0.3083,-0.3161 0.36046,0.86818 0.0498,1.13047 0.12678,1.33433 0.21404,0.56668 0.038,-0.33466 0.0932,-0.48171 0.18063,-0.48171 0.0692,0 0.15665,-0.0892 0.19427,-0.19853 0.0376,-0.10918 0.12536,-0.17588 0.19502,-0.14828 0.10872,0.0433 0.12944,-0.0492 0.14645,-0.65375 0.0159,-0.56494 0.0431,-0.70405 0.13789,-0.70405 0.0926,0 0.12738,-0.15984 0.1612,-0.74111 0.0295,-0.50747 0.0731,-0.74111 0.13839,-0.74111 0.0523,0 0.0953,0.12941 0.0953,0.2877 0,0.15827 0.0316,0.33225 0.0702,0.38672 0.0386,0.0543 0.0543,0.24384 0.0348,0.42082 -0.0532,0.4837 0.025,0.97985 0.1546,0.97985 0.16121,0 0.24354,0.58165 0.32521,2.29744 0.0961,2.01932 0.19727,3.02438 0.32541,3.23342 0.0592,0.0967 0.15715,0.34956 0.21764,0.5621 0.0867,0.30449 0.14758,0.37055 0.28734,0.31142 0.0976,-0.0413 0.19636,-0.14146 0.21957,-0.22277 0.0232,-0.0812 0.0891,-0.10679 0.14627,-0.0567 0.076,0.0664 0.10406,0.28904 0.10406,0.82806 0,0.40535 0.0311,0.781 0.0693,0.83473 0.0411,0.0579 0.0609,-0.007 0.0487,-0.16122 -0.0306,-0.38546 0.14409,-0.45099 0.18774,-0.0704 0.0511,0.4461 0.14689,0.0891 0.14821,-0.55273 7.1e-4,-0.31633 0.0327,-0.48173 0.0934,-0.48173 0.0667,0 0.10355,0.27806 0.13266,1.0005 0.0873,2.16454 0.12499,2.32032 0.35088,1.44737 0.14594,-0.56392 0.29451,-0.57588 0.36034,-0.0291 0.0326,0.27078 0.0493,0.28716 0.10291,0.10075 0.0352,-0.12239 0.0679,-0.48912 0.0728,-0.8152 0.0144,-0.98777 0.0823,-1.4744 0.21355,-1.53204 0.15062,-0.0662 0.23225,0.20893 0.23472,0.79093 0.003,0.74152 0.0711,1.11166 0.20432,1.11166 0.0733,0 0.14994,0.15528 0.18732,0.37948 0.075,0.44953 0.19353,0.34788 0.19353,-0.16595 0,-0.5077 0.24229,-0.50059 0.29835,0.008 0.0577,0.52485 0.14352,0.45916 0.1935,-0.14828 0.0635,-0.77124 0.19914,-0.64515 0.25021,0.23251 0.0489,0.84039 0.15147,0.90823 0.26109,0.17262 0.0382,-0.25642 0.10115,-0.53806 0.13988,-0.62586 0.11814,-0.26789 0.28129,-0.002 0.32512,0.53143 0.0442,0.53711 0.22206,0.7093 0.22206,0.21498 0,-0.48246 0.14558,-1.05937 0.25537,-1.01196 0.0698,0.0301 0.10852,0.24369 0.12218,0.67278 0.0127,0.40194 0.0512,0.62865 0.10656,0.62865 0.065,0 0.0973,-0.4515 0.12967,-1.81569 0.0517,-2.18154 0.0852,-2.63094 0.19586,-2.63094 0.10866,0 0.16548,0.66809 0.16548,1.9454 0,0.58054 0.0279,1.01904 0.065,1.01904 0.0358,0 0.065,-0.12506 0.065,-0.27782 0,-0.15284 0.0464,-0.56965 0.10325,-0.92638 0.0568,-0.35671 0.15792,-1.24363 0.22474,-1.97091 0.13876,-1.51041 0.24886,-1.89178 0.4595,-1.59187 0.0744,0.10596 0.14327,0.1714 0.15302,0.14531 0.01,-0.0261 0.0437,-0.38001 0.0754,-0.78663 0.0401,-0.51415 0.0918,-0.7542 0.16948,-0.78836 0.0864,-0.0379 0.12172,0.0925 0.15547,0.57367 0.0301,0.42872 0.0812,0.6451 0.16401,0.69448 0.0661,0.0394 0.12032,0.13053 0.12032,0.20269 0,0.072 0.0276,0.13097 0.0613,0.13097 0.0337,0 0.10014,-0.31417 0.14771,-0.69815 0.0671,-0.54225 0.12245,-0.71737 0.24755,-0.78424 0.0997,-0.0533 0.20179,-0.28144 0.26791,-0.5988 0.14331,-0.68782 0.27776,-0.66373 0.30369,0.0544 l 0.0205,0.5671 0.16319,-0.40148 c 0.0898,-0.22081 0.1893,-0.5581 0.22122,-0.74954 0.0767,-0.45926 0.23119,-0.31706 0.28173,0.25916 0.0311,0.35549 0.0682,0.43608 0.18285,0.39814 0.11488,-0.0379 0.15756,-0.19649 0.21244,-0.78869 0.091,-0.98151 0.24087,-0.99898 0.31795,-0.0371 0.0585,0.73145 0.15977,0.9201 0.21854,0.40762 0.0187,-0.16299 0.0858,-0.29645 0.14905,-0.29645 0.0865,0 0.12592,-0.16509 0.1587,-0.66353 0.024,-0.36494 0.0712,-0.70247 0.10501,-0.75004 0.0769,-0.10834 0.19115,0.55456 0.19115,1.10864 0,0.38425 0.1633,0.88481 0.25377,0.77791 0.0213,-0.0252 0.0533,0.0954 0.0713,0.26813 0.0457,0.44191 0.1582,0.44191 0.18502,0 0.0235,-0.3868 0.12125,-0.74111 0.20454,-0.74111 0.0267,0 0.0855,0.30015 0.13051,0.66699 0.0585,0.47624 0.11557,0.66701 0.19964,0.66701 0.0648,0 0.13581,0.0667 0.15791,0.14826 0.0729,0.26894 0.15156,0.15476 0.19353,-0.28108 0.0508,-0.52722 0.24383,-0.94829 0.40295,-0.87906 0.0788,0.0343 0.13707,0.25011 0.17361,0.64294 0.13698,1.47262 0.11993,1.38827 0.17943,0.88775 0.0291,-0.24457 0.0708,-0.8282 0.0927,-1.29694 0.0325,-0.69479 0.0619,-0.85225 0.15904,-0.85225 0.0938,0 0.12878,-0.15827 0.16394,-0.74113 0.0332,-0.55005 0.0725,-0.74108 0.15236,-0.74097 0.0822,9e-5 0.11236,0.16561 0.1275,0.69982 0.0219,0.77604 0.0375,0.85634 0.13837,0.71424 0.0381,-0.0537 0.0694,-0.42726 0.0694,-0.83007 0,-0.615 0.0193,-0.73234 0.12084,-0.73234 0.10494,0 0.13075,0.19865 0.19617,1.51049 0.0429,0.86063 0.11459,1.6099 0.16657,1.74158 0.0606,0.15352 0.11224,0.89276 0.15381,2.2025 0.0344,1.08425 0.0747,1.99907 0.0896,2.03294 0.0148,0.0339 0.13429,0.0919 0.26544,0.12899 0.13114,0.0371 0.26866,0.11017 0.30561,0.16211 0.0413,0.0583 0.0671,-0.10482 0.0671,-0.42412 0,-0.58132 0.0704,-0.74756 0.25916,-0.611 0.0821,0.0593 0.15314,0.31532 0.19809,0.7136 0.1447,1.28144 0.21139,1.62324 0.33056,1.69433 0.0673,0.0401 0.1223,0.13179 0.1223,0.20383 0,0.072 0.0575,0.13097 0.12773,0.13097 0.0703,0 0.15924,0.13432 0.19775,0.2983 0.0556,0.2371 0.0954,0.26742 0.19347,0.14778 0.0985,-0.12014 0.14394,-0.0839 0.2248,0.17929 0.0557,0.1815 0.10136,0.42046 0.10136,0.5311 0,0.14512 0.0528,0.17472 0.18956,0.10623 0.14089,-0.0705 0.20546,-0.0303 0.2514,0.15685 0.0901,0.36697 0.18687,-0.75789 0.27438,-3.18806 0.0394,-1.09495 0.0865,-2.04541 0.10456,-2.11214 0.0181,-0.0667 0.0758,-0.12127 0.12818,-0.12127 0.0539,0 0.11225,-0.19325 0.13431,-0.44466 0.0259,-0.2957 0.0781,-0.44467 0.15557,-0.44467 0.0899,0 0.14347,0.23805 0.2338,1.03753 0.0645,0.57067 0.13725,1.03757 0.16173,1.03757 0.0245,0 0.0631,-0.35018 0.0859,-0.77817 0.0839,-1.57987 0.11301,-1.87646 0.20065,-2.04225 0.10454,-0.19782 0.22529,-0.0717 0.22529,0.23527 0,0.11747 0.0293,0.21361 0.065,0.21361 0.0358,0 0.0651,-0.14479 0.0651,-0.32184 0,-0.177 0.0512,-0.44963 0.11376,-0.60586 0.0626,-0.15615 0.14521,-0.56163 0.18363,-0.90099 0.0558,-0.4929 0.0969,-0.61045 0.20422,-0.5845 0.0884,0.0214 0.14643,-0.0728 0.16963,-0.27499 0.0764,-0.66632 0.20795,-0.15423 0.29386,1.14382 0.0481,0.72712 0.0995,1.35006 0.11402,1.38436 0.0146,0.0343 0.0923,-0.074 0.17254,-0.24085 0.24854,-0.51612 0.42305,-0.66604 0.56857,-0.48849 0.0714,0.0871 0.13002,0.22302 0.13002,0.30166 0,0.30534 0.19469,0.12337 0.23215,-0.2168 0.0437,-0.39778 0.16979,-0.56667 0.32282,-0.4328 0.1109,0.097 0.29013,0.80448 0.29013,1.14522 0,0.23333 0.16926,0.68494 0.25672,0.68494 0.0288,0 0.065,-0.59853 0.0803,-1.33003 0.0297,-1.41657 0.0618,-1.62887 0.20523,-1.35747 0.0637,0.12056 0.10458,0.74912 0.13863,2.13329 0.0663,2.69639 0.10833,3.28215 0.23952,3.33965 0.0748,0.0327 0.12117,-0.0913 0.15143,-0.40567 0.0743,-0.77095 0.20806,-0.52786 0.36255,0.65877 0.0878,0.67373 0.17943,1.11166 0.2328,1.11166 0.0484,0 0.0881,-0.0667 0.0881,-0.14829 0,-0.23376 0.19498,-0.1726 0.23651,0.074 0.0644,0.38286 0.14587,0.24482 0.21854,-0.37055 0.0813,-0.68787 0.22157,-0.77112 0.31237,-0.18528 l 0.0632,0.4076 0.10752,-0.56608 c 0.13829,-0.72807 0.25288,-0.63171 0.30881,0.25974 0.0586,0.93509 0.0946,1.12156 0.21576,1.12156 0.10442,0 0.12354,-0.0781 0.19083,-0.77814 0.0216,-0.22421 0.0832,-0.40763 0.13684,-0.40763 0.0537,0 0.13151,-0.16928 0.17287,-0.37631 0.14901,-0.74567 0.33408,-0.24402 0.40036,1.08515 0.0304,0.61028 0.0823,0.73817 0.13768,0.33987 0.0809,-0.58064 0.30752,-0.30901 0.39342,0.47139 0.0693,0.62985 0.13542,0.4876 0.22611,-0.48691 0.12171,-1.30768 0.26445,-1.35788 0.35103,-0.12338 0.0221,0.31484 0.066,0.57243 0.0975,0.57243 0.0697,0 0.1362,-0.36752 0.1362,-0.75321 0,-0.45741 0.18109,-0.32685 0.22236,0.16036 0.0207,0.24456 0.0549,0.64826 0.0761,0.89716 0.0545,0.64226 0.15812,0.47685 0.28034,-0.44773 0.11962,-0.90489 0.23613,-1.09436 0.3293,-0.5356 0.0389,0.23346 0.11395,0.38259 0.19248,0.38259 0.0956,0 0.13965,0.13334 0.17136,0.51876 0.0308,0.37543 0.0767,0.51881 0.16547,0.51881 0.0904,0 0.12304,0.10763 0.12377,0.40758 0.001,0.51458 0.12239,1.01063 0.13573,0.55583 0.005,-0.16298 0.004,-0.35571 -0.002,-0.42814 -0.006,-0.0725 0.0185,-0.96495 0.0542,-1.98335 0.053,-1.51369 0.0877,-1.90009 0.18993,-2.11719 0.0862,-0.18313 0.13923,-0.56825 0.1708,-1.24048 0.0372,-0.79239 0.0671,-0.97487 0.16025,-0.97487 0.085,0 0.13653,0.2098 0.20023,0.81519 0.0985,0.93554 0.22553,1.05861 0.28957,0.2804 0.0242,-0.29416 0.0981,-0.81108 0.16407,-1.1487 0.066,-0.33766 0.15305,-0.89736 0.19336,-1.24386 0.0539,-0.46291 0.10624,-0.62993 0.19748,-0.62993 0.10359,0 0.13153,-0.1481 0.16847,-0.89265 0.0399,-0.80457 0.11405,-1.182 0.19561,-0.99605 0.0163,0.0372 0.0479,0.5109 0.0702,1.05241 0.0258,0.63183 0.0691,0.98453 0.12048,0.98453 0.12203,0 0.20967,-0.31222 0.26001,-0.9264 0.0336,-0.40943 0.0779,-0.55583 0.16833,-0.55583 0.0881,0 0.12279,0.10623 0.12279,0.3752 0,0.22796 0.0446,0.40675 0.11376,0.45551 0.0625,0.0441 0.16455,0.14214 0.22664,0.21767 0.16796,0.20445 0.22582,0.16946 0.2635,-0.15896 0.0341,-0.29799 0.2412,-0.42522 0.2412,-0.14827 0,0.28347 0.20223,0.14582 0.36157,-0.24629 0.14706,-0.36178 0.17401,-0.37777 0.32531,-0.19315 0.15042,0.18354 0.58467,0.25759 0.64912,0.11059 0.0147,-0.0336 0.0493,-0.41806 0.0768,-0.85439 0.0645,-1.02059 0.18862,-1.1316 0.24844,-0.22205 0.0446,0.67856 0.17282,0.98816 0.29438,0.71101 0.0533,-0.12155 0.11143,-1.01322 0.1215,-1.86265 0.003,-0.25108 0.25481,-0.38922 0.27024,-0.14828 0.004,0.0611 0.0177,0.54471 0.0308,1.0746 0.0131,0.52991 0.0399,1.11624 0.0599,1.303 0.0424,0.39823 0.16231,0.29708 0.16231,-0.13687 0,-0.20276 0.0359,-0.28279 0.11199,-0.2494 0.0811,0.0356 0.13109,0.2943 0.1812,0.93726 0.0507,0.65146 0.0945,0.87495 0.16409,0.83884 0.18233,-0.0947 0.2603,-0.36802 0.39643,-1.38995 0.13749,-1.03216 0.27448,-1.37761 0.39296,-0.991 0.0488,0.15931 0.071,0.16422 0.0964,0.0215 0.0667,-0.37449 0.21406,-0.16911 0.28923,0.40276 0.0782,0.595 0.18797,0.67657 0.18797,0.13966 0,-0.34498 0.17334,-0.54002 0.27465,-0.309 0.0512,0.11663 0.047,0.22734 -0.0151,0.39799 -0.0473,0.13012 -0.10364,0.48301 -0.12513,0.78445 -0.0522,0.7333 -0.26783,0.77312 -0.35909,0.0663 -0.0675,-0.52263 -0.13007,-0.60859 -0.18884,-0.2594 -0.0486,0.28891 -0.23653,0.28891 -0.23653,0 0,-0.42259 -0.12021,-0.22032 -0.19818,0.3335 -0.0925,0.65661 -0.22418,1.02845 -0.46477,1.31212 -0.23582,0.27806 -0.24397,0.27224 -0.32056,-0.22877 -0.0479,-0.31357 -0.11543,-0.44877 -0.2404,-0.48173 -0.13244,-0.0348 -0.18854,-0.16034 -0.23595,-0.5275 -0.0718,-0.55605 -0.13501,-0.61398 -0.18588,-0.17034 -0.0224,0.1955 -0.0649,0.27031 -0.11402,0.20102 -0.0468,-0.066 -0.12531,0.0317 -0.19535,0.2435 -0.1048,0.31673 -0.12163,0.32676 -0.16056,0.0954 -0.0641,-0.38108 -0.15959,-0.31402 -0.15959,0.11228 0,0.27175 -0.0348,0.37056 -0.13003,0.37056 -0.0867,0 -0.13002,-0.0988 -0.13002,-0.29644 0,-0.21741 -0.0433,-0.29646 -0.16251,-0.29646 -0.0894,0 -0.16253,-0.0537 -0.16253,-0.11958 0,-0.0659 -0.0805,-0.18486 -0.17876,-0.26462 -0.14499,-0.11762 -0.21873,-0.0838 -0.39013,0.17978 -0.11625,0.17866 -0.26701,0.29166 -0.33503,0.2511 -0.0853,-0.0507 -0.13706,0.0224 -0.16682,0.23625 -0.0519,0.37318 -0.21744,0.40399 -0.32745,0.0609 -0.0733,-0.22843 -0.0862,-0.22228 -0.15573,0.074 -0.0863,0.36767 -0.26631,0.43582 -0.26631,0.10088 0,-0.30156 -0.0786,-0.27939 -0.24232,0.0683 -0.0992,0.21074 -0.14935,0.55713 -0.18235,1.25989 -0.0317,0.67643 -0.0728,0.96921 -0.13547,0.96921 -0.0591,0 -0.09,-0.17452 -0.09,-0.51004 0,-0.62681 -0.11085,-0.82744 -0.16837,-0.30476 -0.0536,0.48756 -0.1793,0.40036 -0.22179,-0.15389 l -0.0326,-0.42553 -0.11403,0.39682 c -0.0627,0.21824 -0.15733,0.77577 -0.21025,1.23896 -0.15677,1.37245 -0.38332,1.70144 -0.53609,0.77852 -0.0865,-0.52251 -0.21204,-0.44805 -0.21204,0.12563 0,0.21296 -0.0439,0.4978 -0.0976,0.63297 -0.0698,0.17588 -0.11945,0.91109 -0.17454,2.58528 -0.0539,1.63919 -0.10483,2.40302 -0.17003,2.55167 -0.1702,0.38806 -0.25143,0.16089 -0.36604,-1.02392 -0.0216,-0.22419 -0.0822,-0.40762 -0.13446,-0.40762 -0.0522,0 -0.11255,-0.15913 -0.13395,-0.35357 -0.0285,-0.25887 -0.0724,-0.33367 -0.16377,-0.27916 -0.087,0.0518 -0.12483,-0.002 -0.12483,-0.17754 0,-0.44696 -0.16183,-0.14634 -0.18288,0.33976 -0.0246,0.56904 -0.22706,0.88862 -0.37978,0.59965 -0.0547,-0.10328 -0.19852,-0.17263 -0.31981,-0.15407 -0.21062,0.0323 -0.22239,0.007 -0.2624,-0.56349 -0.0484,-0.69036 -0.13671,-0.77903 -0.18896,-0.18975 -0.0757,0.85366 -0.13512,1.14739 -0.24165,1.19416 -0.0761,0.0335 -0.1221,-0.0805 -0.14899,-0.36911 -0.10993,-1.17958 -0.11437,-1.19228 -0.16473,-0.47255 -0.0567,0.8113 -0.1809,1.39824 -0.25796,1.21973 -0.0302,-0.0698 -0.0878,-0.72737 -0.12803,-1.46107 -0.0972,-1.77083 -0.0912,-1.73869 -0.28774,-1.53444 -0.12582,0.13082 -0.17818,0.34581 -0.23432,0.96253 -0.0683,0.74988 -0.20829,1.06105 -0.27429,0.60958 -0.0148,-0.10159 -0.0829,-0.18492 -0.15122,-0.18527 -0.0935,-7.1e-4 -0.13863,-0.15598 -0.18247,-0.62823 -0.0523,-0.56377 -0.0739,-0.61861 -0.21258,-0.53926 -0.0849,0.0485 -0.19785,0.006 -0.25102,-0.0946 -0.0782,-0.1481 -0.0967,-0.14058 -0.0967,0.0394 0,0.33997 -0.1758,0.60677 -0.30797,0.46735 -0.063,-0.0665 -0.21667,-0.12394 -0.34144,-0.12774 -0.19739,-0.006 -0.23581,-0.0695 -0.29584,-0.48868 -0.0999,-0.69736 -0.2249,-0.9472 -0.2249,-0.44926 0,0.99962 -0.23474,1.19569 -0.30097,0.25139 -0.0249,-0.35455 -0.0859,-0.64191 -0.14702,-0.69324 -0.16462,-0.13799 -0.20002,-0.34926 -0.20109,-1.19972 -7.1e-4,-0.65691 -0.0184,-0.77874 -0.10211,-0.70558 -0.0712,0.0623 -0.12814,-0.0591 -0.19259,-0.41082 -0.0503,-0.27461 -0.13484,-0.5372 -0.18779,-0.58353 -0.0529,-0.0463 -0.1323,-0.37127 -0.17633,-0.72205 -0.13652,-1.08803 -0.27781,-1.31101 -0.35077,-0.55364 -0.0633,0.65757 -0.20722,0.70839 -0.43466,0.15352 -0.21083,-0.51435 -0.20998,-0.51471 -0.58182,0.25038 -0.24212,0.49815 -0.4077,0.38776 -0.4325,-0.28832 -0.0176,-0.47913 -0.0428,-0.54726 -0.22753,-0.61393 -0.32231,-0.1162 -0.41409,0.20818 -0.51226,1.81083 -0.0935,1.52681 -0.20955,1.88913 -0.27904,0.87139 -0.024,-0.35064 -0.0592,-0.76308 -0.0784,-0.9165 -0.0603,-0.48314 -0.14791,0.0471 -0.15616,0.94596 -0.01,1.04245 -0.073,1.55632 -0.19247,1.55632 -0.11873,0 -0.32186,-0.90614 -0.32201,-1.43641 -1.3e-4,-0.48171 -0.11436,-0.68886 -0.17348,-0.31459 -0.0233,0.14776 -0.0927,0.38037 -0.15395,0.51671 -0.0799,0.1775 -0.1246,0.61969 -0.15759,1.55634 -0.0253,0.71962 -0.0875,2.03783 -0.13812,2.9294 -0.0506,0.89154 -0.0921,1.64189 -0.0921,1.66748 0,0.0256 -0.0425,0.0465 -0.0946,0.0465 -0.0566,0 -0.11173,-0.20859 -0.1374,-0.52042 -0.0598,-0.72654 -0.14402,-0.77631 -0.19238,-0.11367 -0.0598,0.81982 -0.0818,0.93049 -0.18482,0.93049 -0.0654,0 -0.1066,-0.26406 -0.13843,-0.88933 -0.0313,-0.61493 -0.0734,-0.88932 -0.13641,-0.88932 -0.0501,0 -0.0911,0.10019 -0.0911,0.22233 0,0.1224 -0.0554,0.22234 -0.12299,0.22234 -0.12119,0 -0.24071,-0.57973 -0.20864,-1.01198 0.008,-0.10819 -0.0447,-0.23215 -0.11728,-0.27539 -0.0726,-0.0433 -0.14844,-0.19763 -0.16868,-0.34308 -0.0203,-0.14548 -0.0918,-0.29721 -0.15896,-0.33725 -0.11187,-0.0667 -0.1618,-0.33839 -0.37097,-2.01842 -0.0484,-0.38894 -0.099,-0.0389 -0.16195,1.12106 -0.0914,1.68266 -0.22967,1.89336 -0.30608,0.46615 -0.0361,-0.67547 -0.0635,-0.79475 -0.19201,-0.83628 -0.0825,-0.0266 -0.18696,0.0219 -0.23233,0.10764 -0.14897,0.2819 -0.2354,-0.14548 -0.23532,-1.16345 1.4e-4,-1.36123 -0.13222,-3.44607 -0.23628,-3.72267 -0.0479,-0.12759 -0.10502,-0.43402 -0.12666,-0.68083 -0.0325,-0.37034 -0.0654,-0.43745 -0.18819,-0.38394 -0.0819,0.0357 -0.16859,-0.008 -0.19276,-0.0974 -0.0806,-0.2973 -0.15141,-0.16753 -0.19452,0.3566 -0.0235,0.28592 -0.0818,0.51877 -0.12967,0.51877 -0.10548,0 -0.16508,0.45834 -0.16627,1.27878 -7e-4,0.34337 -0.041,0.68789 -0.0926,0.78522 -0.14256,0.26978 -0.28093,-0.31169 -0.37369,-1.57047 -0.0967,-1.31126 -0.20901,-1.40637 -0.32042,-0.27122 -0.09,0.91616 -0.24323,1.09179 -0.37545,0.43015 -0.053,-0.26546 -0.1097,-0.35647 -0.18235,-0.29289 -0.0591,0.0518 -0.1607,-0.0219 -0.23135,-0.1677 -0.1192,-0.24593 -0.12932,-0.24612 -0.18885,-0.003 -0.0774,0.31504 -0.30702,0.33684 -0.35799,0.034 -0.0206,-0.12238 -0.0928,-0.22234 -0.16047,-0.22234 -0.0785,0 -0.12307,-0.10411 -0.12307,-0.28766 0,-0.15826 -0.0292,-0.32894 -0.065,-0.37932 -0.0358,-0.0505 -0.065,-0.0209 -0.065,0.0653 0,0.0863 -0.0606,0.15704 -0.13467,0.15704 -0.074,0 -0.18217,0.10834 -0.24022,0.24069 -0.0975,0.22213 -0.11689,0.20833 -0.25229,-0.1788 -0.15463,-0.44218 -0.14275,-0.45729 -0.24998,0.31806 -0.0176,0.12745 -0.0595,0.19306 -0.0931,0.14582 -0.0773,-0.1089 -0.14439,0.13728 -0.19677,0.72119 -0.0728,0.81025 -0.22469,0.56033 -0.28517,-0.46878 -0.0861,-1.46454 -0.26155,-1.17027 -0.3315,0.55583 -0.0579,1.42693 -0.0968,1.77866 -0.19712,1.77866 -0.0825,0 -0.16287,-1.03081 -0.16397,-2.10342 -7e-4,-0.67536 -0.0454,-0.74029 -0.29309,-0.42516 -0.16967,0.21591 -0.21163,0.40667 -0.32272,1.46726 -0.0966,0.92185 -0.15203,1.20848 -0.22752,1.17573 -0.0549,-0.0237 -0.10919,-0.1926 -0.12061,-0.37506 -0.0129,-0.2063 -0.0805,-0.36594 -0.17878,-0.42217 -0.0977,-0.0558 -0.15801,-0.1975 -0.15801,-0.3708 0,-0.3572 -0.0334,-0.3525 -0.20031,0.0283 -0.12405,0.28283 -0.14475,0.289 -0.24889,0.074 -0.0625,-0.12886 -0.12987,-0.23439 -0.14974,-0.23439 -0.0199,0 -0.0571,0.38352 -0.0827,0.85227 -0.0255,0.46876 -0.12906,1.43395 -0.22999,2.14484 -0.10093,0.71091 -0.21701,1.81145 -0.25796,2.44565 -0.1103,1.70821 -0.12439,1.82007 -0.22938,1.82007 -0.0636,0 -0.0963,-0.15073 -0.0963,-0.44468 0,-0.24456 -0.0261,-0.44465 -0.058,-0.44465 -0.0759,0 -0.11863,0.42946 -0.17389,1.74485 -0.044,1.04933 -0.1115,1.38601 -0.22533,1.12513 -0.0307,-0.0704 -0.0628,-0.71523 -0.0714,-1.43313 -0.014,-1.1675 -0.0661,-1.61263 -0.16277,-1.39208 -0.018,0.041 -0.0529,0.3978 -0.0778,0.79302 -0.0623,0.99352 -0.21406,0.96871 -0.30211,-0.0494 -0.0365,-0.42236 -0.0884,-0.81701 -0.11517,-0.87698 -0.0268,-0.06 -0.0487,-0.29802 -0.0487,-0.52901 0,-0.23099 -0.0292,-0.41997 -0.065,-0.41997 -0.0358,0 -0.0651,0.22953 -0.0651,0.51005 0,0.28051 -0.0265,0.54737 -0.0589,0.59303 -0.0324,0.0456 -0.08,0.43313 -0.10559,0.86102 -0.0559,0.93141 -0.14659,1.52515 -0.21111,1.38185 -0.0258,-0.0572 -0.0772,-0.55016 -0.11423,-1.09517 -0.055,-0.81118 -0.0884,-0.98683 -0.18362,-0.96846 -0.0674,0.0126 -0.16894,-0.1742 -0.24127,-0.44467 -0.10692,-0.39985 -0.12495,-0.42157 -0.12516,-0.1509 -2e-4,0.31532 -0.15339,0.50782 -0.30903,0.38843 -0.0446,-0.0343 -0.0813,-0.15687 -0.0813,-0.27233 0,-0.1155 -0.0293,-0.20997 -0.0651,-0.20997 -0.0358,0 -0.065,0.0961 -0.065,0.21357 0,0.27322 -0.0923,0.40307 -0.21193,0.29833 -0.0682,-0.0597 -0.096,-0.3684 -0.10217,-1.13406 -0.005,-0.57868 -0.0237,-1.08672 -0.0422,-1.12902 -0.0768,-0.17507 -0.12693,0.18728 -0.15245,1.10142 -0.0319,1.14327 -0.14337,1.36519 -0.37596,0.74868 -0.16913,-0.44835 -0.22039,-0.48998 -0.22039,-0.17903 0,0.11901 -0.0792,0.38368 -0.17591,0.58823 -0.16354,0.34576 -0.18412,0.35497 -0.29255,0.13123 -0.10867,-0.22425 -0.11717,-0.21887 -0.12475,0.0788 -0.0136,0.53536 -0.0215,0.59453 -0.10482,0.78446 -0.0639,0.14583 -0.089,0.0868 -0.12169,-0.28663 -0.0473,-0.53888 -0.1554,-0.49366 -0.1554,0.0649 0,0.23328 -0.0306,0.35101 -0.0813,0.31268 -0.0958,-0.0725 -0.16721,-1.00882 -0.17394,-2.27918 -0.007,-1.32705 -0.0636,-1.83423 -0.20475,-1.83423 -0.0653,0 -0.14574,0.11031 -0.17885,0.24522 -0.0883,0.35974 -0.24661,0.14741 -0.29415,-0.39446 -0.0227,-0.25913 -0.12759,-0.6549 -0.23305,-0.8795 -0.10544,-0.22461 -0.21205,-0.60192 -0.23691,-0.83851 -0.0249,-0.2366 -0.0693,-0.50053 -0.0987,-0.5865 -0.0294,-0.086 -0.0736,-0.71963 -0.0981,-1.4081 -0.0448,-1.25958 -0.14255,-2.23431 -0.15148,-1.51117 -0.003,0.23155 -0.0438,0.33349 -0.13415,0.33349 -0.10481,0 -0.13,-0.0988 -0.13,-0.51001 0,-0.28052 -0.0292,-0.55126 -0.0651,-0.60165 -0.0358,-0.0505 -0.065,0.007 -0.065,0.12914 0,0.12154 -0.0659,0.24211 -0.14628,0.26814 -0.13136,0.0426 -0.14823,0.14164 -0.16562,0.97375 -0.0168,0.80494 -0.036,0.92635 -0.14626,0.92635 -0.0881,0 -0.12719,-0.1023 -0.1278,-0.3335 -0.001,-0.68472 -0.075,-1.00048 -0.23173,-1.00048 -0.15842,0 -0.21509,0.29236 -0.32322,1.66747 -0.0773,0.98266 -0.28927,0.63588 -0.28927,-0.47311 0,-0.8498 -0.0761,-1.93545 -0.13563,-1.93545 -0.0291,0 -0.0728,0.4002 -0.0971,0.88933 -0.0764,1.53848 -0.24556,1.00788 -0.32284,-1.01237 -0.048,-1.25583 -0.11391,-1.44165 -0.18873,-0.53238 -0.067,0.81357 -0.16992,1.22841 -0.31719,1.27772 -0.0875,0.0293 -0.15161,0.20472 -0.186,0.50905 -0.0318,0.28188 -0.10487,0.4956 -0.18578,0.54385 -0.0799,0.0476 -0.17508,0.32205 -0.23749,0.68435 -0.1335,0.77478 -0.26571,0.77974 -0.31956,0.0126 -0.0229,-0.3261 -0.0624,-0.59291 -0.088,-0.59291 -0.0255,0 -0.0824,0.36687 -0.12637,0.81524 -0.0631,0.64321 -0.10646,0.8152 -0.20537,0.8152 -0.0689,0 -0.12536,-0.0919 -0.12536,-0.20425 0,-0.11241 -0.0633,-0.30017 -0.14081,-0.41742 -0.12066,-0.18265 -0.15289,-0.45446 -0.2251,-1.89824 -0.0661,-1.32078 -0.11251,-1.7494 -0.21491,-1.9829 -0.0719,-0.16386 -0.14609,-0.26269 -0.16497,-0.21966 -0.0189,0.0429 -0.0688,0.47287 -0.1109,0.95519 -0.0421,0.48235 -0.12235,0.95458 -0.17825,1.04945 -0.0558,0.0949 -0.13255,0.46168 -0.17029,0.81519 -0.0982,0.91936 -0.24053,0.84403 -0.32596,-0.17244 -0.0453,-0.54032 -0.1002,-0.81518 -0.16252,-0.81518 -0.0717,0 -0.1118,0.38592 -0.16916,1.63041 -0.0413,0.89674 -0.078,1.68047 -0.0813,1.74159 -0.003,0.0611 -0.0457,0.11114 -0.0941,0.11114 -0.0649,0 -0.0996,-0.37651 -0.13199,-1.42951 -0.0242,-0.78627 -0.0605,-1.48984 -0.0804,-1.56352 -0.0836,-0.30846 -0.20599,0.24214 -0.24577,1.10573 -0.0839,1.82059 -0.11793,2.18376 -0.20492,2.18376 -0.0854,0 -0.0982,-0.13251 -0.21422,-2.22331 -0.0518,-0.93343 -0.0558,-0.94958 -0.12916,-0.5188 -0.12333,0.72456 -0.18031,0.8878 -0.31018,0.88859 -0.10131,7.1e-4 -0.13385,0.16595 -0.18364,0.93284 -0.0469,0.72299 -0.0834,0.92212 -0.16253,0.88762 -0.0685,-0.0299 -0.12331,-0.32117 -0.16702,-0.88865 -0.0816,-1.05996 -0.19456,-1.37034 -0.29012,-0.79732 -0.0371,0.2224 -0.0674,0.52506 -0.0674,0.6726 0,0.64584 -0.0857,1.1724 -0.202,1.24176 -0.0762,0.0454 -0.12342,0.2058 -0.12404,0.42073 -0.001,0.4173 -0.0598,0.63466 -0.2038,0.75547 -0.0631,0.0529 -0.12546,0.33535 -0.15133,0.68444 -0.0335,0.45264 -0.077,0.60536 -0.18198,0.64028 -0.10738,0.0357 -0.16387,0.2472 -0.25506,0.955 -0.0812,0.62981 -0.15507,0.93176 -0.24058,0.98273 -0.10438,0.0622 -0.1307,0.2726 -0.17054,1.36298 -0.0332,0.91099 -0.0747,1.31346 -0.14087,1.37141 -0.15653,0.13686 -0.23537,-0.19874 -0.2901,-1.23518 -0.0287,-0.54372 -0.0658,-1.01951 -0.0824,-1.05732 -0.0166,-0.0378 -0.12055,0.0219 -0.23104,0.13265 -0.13355,0.1339 -0.21789,0.35045 -0.25162,0.64589 -0.0279,0.24443 -0.0962,0.46439 -0.15164,0.48877 -0.0786,0.0344 -0.11078,-0.15442 -0.14539,-0.85207 -0.0429,-0.86455 -0.051,-0.89635 -0.23105,-0.89635 -0.16557,0 -0.19753,0.0791 -0.2839,0.70405 -0.0536,0.38724 -0.11539,0.97084 -0.13746,1.29695 -0.0796,1.17557 -0.11245,1.40809 -0.199,1.40809 -0.0483,0 -0.10238,-0.11676 -0.11999,-0.2594 z"
       id="path4045-2"
       inkscape:export-filename="/home/dario/Work/proj_glove/adaptation/article/figures/oh_2019_c.png"
       inkscape:export-xdpi="600"
       inkscape:export-ydpi="600" />
    <path
       style="fill:#1f77b4;fill-opacity:1;stroke:#1f77b4;stroke-width:0.25428;stroke-linecap:butt;stroke-linejoin:round;stroke-miterlimit:4;stroke-dasharray:none;stroke-opacity:1"
       d="m 118.0064,191.41503 c -0.0897,-1.34062 -0.1085,-1.4771 -0.20336,-1.4771 -0.052,0 -0.0945,-0.0466 -0.0945,-0.1037 0,-0.0571 -0.0295,-0.1037 -0.0657,-0.1037 -0.0362,0 -0.0657,0.0628 -0.0657,0.13942 0,0.0766 -0.0574,0.22145 -0.12758,0.32172 -0.0702,0.10028 -0.14685,0.32069 -0.17037,0.48983 -0.03,0.21567 -0.0719,0.28988 -0.1404,0.2484 -0.0537,-0.0326 -0.12685,-0.0591 -0.16259,-0.0591 -0.0358,0 -0.0185,-0.0733 0.0383,-0.16289 0.0568,-0.0896 0.10317,-0.26894 0.10317,-0.39856 0,-0.12962 0.0593,-0.32047 0.13186,-0.42409 0.0725,-0.10358 0.16585,-0.36743 0.20736,-0.58618 0.0718,-0.37873 0.19884,-0.51286 0.2827,-0.29863 0.0213,0.0545 0.0852,0.071 0.1418,0.0367 0.13236,-0.0802 0.21877,0.13887 0.22005,0.55771 0.001,0.4755 0.10667,0.51193 0.33992,0.11766 0.11221,-0.18962 0.22217,-0.3488 0.24439,-0.35373 0.0222,-0.005 0.0941,-0.046 0.15969,-0.0915 0.14783,-0.10235 0.19544,-0.0178 0.30763,0.54619 0.0488,0.24516 0.11066,0.46722 0.13756,0.49347 0.0551,0.0537 0.25616,-0.5331 0.25616,-0.74781 0,-0.0768 0.0527,-0.13957 0.11715,-0.13957 0.15198,0 0.34241,0.51333 0.34241,0.92299 0,0.17649 0.0296,0.32088 0.0657,0.32088 0.0362,0 0.0657,-0.13689 0.0657,-0.3042 0,-0.44122 0.11092,-0.84185 0.21551,-0.77849 0.0592,0.0359 0.10867,-0.0758 0.14982,-0.33885 0.0448,-0.28575 0.10019,-0.40115 0.20401,-0.4245 0.10823,-0.0244 0.15179,-0.1243 0.18071,-0.41463 0.0539,-0.54093 0.16767,-3.74486 0.16843,-4.74225 7.1e-4,-0.97336 0.10106,-1.32306 0.31925,-1.11289 0.12417,0.11961 0.13152,0.0867 0.17328,-0.77743 0.053,-1.09778 0.0686,-1.19146 0.25798,-1.55073 0.12246,-0.23237 0.15822,-0.46183 0.19522,-1.25241 0.0578,-1.23573 0.10162,-1.57167 0.205,-1.57167 0.11467,0 0.15616,0.21128 0.20525,1.04526 0.0473,0.80386 0.12107,0.92299 0.18742,0.30282 0.0505,-0.47201 0.12786,-0.59183 0.26554,-0.4114 0.0526,0.0689 0.0993,0.0962 0.10381,0.0607 0.005,-0.0355 0.0135,-0.0995 0.02,-0.14227 0.006,-0.0427 0.0349,-0.43925 0.063,-0.88109 0.0524,-0.82121 0.14872,-1.02195 0.29836,-0.62194 0.0618,0.16511 0.0716,0.16007 0.11011,-0.0561 0.0684,-0.38441 0.18803,-0.19987 0.20966,0.32331 0.011,0.26636 0.0489,0.48427 0.0842,0.48427 0.0787,0 0.10416,-0.12145 0.15759,-0.7515 0.044,-0.51871 0.21003,-0.69115 0.27688,-0.28754 0.0278,0.16829 0.057,0.18532 0.16337,0.0955 0.10224,-0.0864 0.14855,-0.0695 0.22044,0.0802 0.05,0.10431 0.092,0.27123 0.0931,0.37099 0.002,0.19594 0.13339,0.25858 0.13339,0.0637 0,-0.0648 0.0664,-0.22359 0.14772,-0.35303 0.0812,-0.12945 0.18581,-0.30971 0.23237,-0.4006 0.0465,-0.0908 0.15353,-0.16525 0.23771,-0.16525 0.13836,0 0.15735,-0.0597 0.19763,-0.62194 0.0357,-0.4981 0.0676,-0.62194 0.1602,-0.62194 0.12725,0 0.23543,0.53903 0.31202,1.55485 0.0492,0.65248 0.13202,0.96318 0.24139,0.90561 0.0417,-0.0219 0.0921,-0.14864 0.11194,-0.28155 0.0198,-0.13289 0.0946,-0.2927 0.16595,-0.35511 0.0714,-0.0624 0.1434,-0.12717 0.16003,-0.14392 0.0166,-0.0168 0.0791,-0.41323 0.13897,-0.88109 0.0807,-0.63118 0.13362,-0.84377 0.20523,-0.82405 0.097,0.0267 0.24927,-0.37246 0.24927,-0.65339 0,-0.0829 0.0444,-0.15061 0.0985,-0.15061 0.0953,0 0.11355,0.12145 0.13118,0.87429 0.009,0.39627 0.14853,0.46805 0.17594,0.0907 0.0167,-0.23043 0.0588,-0.29804 0.20168,-0.32399 0.15602,-0.0284 0.18055,0.004 0.18055,0.23687 0,0.14831 0.0483,0.38613 0.1074,0.52848 0.10077,0.24282 0.11482,0.24821 0.22735,0.0874 0.17409,-0.24876 0.30228,-0.1168 0.35377,0.3643 0.0458,0.42805 0.12553,0.60697 0.19331,0.4338 0.0205,-0.0526 0.0965,-0.0712 0.16867,-0.0414 0.10375,0.0429 0.13145,0.002 0.13223,-0.19112 10e-4,-0.3399 0.0975,-0.54653 0.21974,-0.47246 0.077,0.0466 0.11332,-0.0272 0.14524,-0.29586 0.0482,-0.40578 0.1877,-0.4745 0.25342,-0.12485 l 0.0438,0.23322 0.0602,-0.23322 c 0.0332,-0.12829 0.0852,-0.23323 0.11579,-0.23323 0.0882,0 0.26195,0.65304 0.3109,1.16836 0.0308,0.32431 0.0808,0.48628 0.16044,0.51914 0.12468,0.0515 0.14514,0.58064 0.23338,6.03492 0.0351,2.16426 0.13737,5.08972 0.20014,5.72009 0.0481,0.48291 0.21051,0.47321 0.57354,-0.0343 0.33305,-0.46552 0.50543,-0.49478 0.50543,-0.0858 0,0.35618 0.0671,0.56749 0.18033,0.56749 0.0554,0 0.13762,0.0798 0.18283,0.17748 0.0691,0.14944 0.0988,0.15581 0.18694,0.0403 0.14858,-0.19468 0.28372,-0.0768 0.33507,0.29238 0.0527,0.37879 0.13832,0.48351 0.26242,0.32089 0.066,-0.0865 0.12774,-0.0891 0.2226,-0.009 0.18987,0.16044 0.19317,0.15557 0.24172,-0.35561 0.0587,-0.61815 0.20217,-0.61217 0.30804,0.0129 0.0961,0.56734 0.21992,0.68062 0.37929,0.34702 0.11166,-0.23372 0.12213,-0.23621 0.28472,-0.0679 0.0929,0.0961 0.24444,0.17463 0.33689,0.17463 0.13423,0 0.17601,-0.0627 0.20747,-0.31097 0.0572,-0.45179 0.23947,-0.4026 0.38406,0.1037 0.12619,0.44182 0.209,0.51709 0.27413,0.24917 0.0286,-0.11791 0.0923,-0.14902 0.22133,-0.10823 0.1558,0.0492 0.18692,0.018 0.2226,-0.22325 0.11899,-0.80458 0.26055,-1.36884 0.34343,-1.36884 0.10168,0 0.12379,0.0786 0.18491,0.65745 0.0375,0.3551 0.0588,0.39167 0.19663,0.33706 0.0942,-0.0373 0.16751,-0.011 0.18766,0.0681 0.0182,0.0711 0.0359,-0.0806 0.0394,-0.33707 0.003,-0.25654 0.0224,-1.21277 0.042,-2.12496 0.0196,-0.91217 0.0602,-2.9879 0.0901,-4.61272 0.0302,-1.6446 0.0862,-3.09207 0.12613,-3.26518 0.0395,-0.17104 0.11501,-1.00423 0.16783,-1.85152 0.0528,-0.8473 0.11147,-1.56495 0.13036,-1.59477 0.0188,-0.0297 0.10136,-0.0596 0.18327,-0.0661 0.0934,-0.007 0.18123,-0.11827 0.23545,-0.29698 0.0476,-0.15677 0.13333,-0.28505 0.19057,-0.28505 0.0572,0 0.13999,-0.0775 0.18389,-0.17234 0.13792,-0.29782 0.30123,-0.0961 0.28454,0.35151 -0.008,0.21501 0.009,0.75513 0.0371,1.20026 0.0478,0.74842 0.0622,0.80692 0.19286,0.77743 0.11437,-0.0259 0.14971,-0.12659 0.18614,-0.53077 0.0611,-0.67808 0.21025,-1.0245 0.40738,-0.94639 0.14687,0.0581 0.15364,0.0309 0.21136,-0.85326 0.047,-0.71958 0.0827,-0.92024 0.16813,-0.94568 0.0928,-0.0277 0.11429,0.11471 0.14848,0.98402 0.0788,2.00079 0.13796,2.83673 0.20259,2.85926 0.0362,0.0126 0.0846,-0.22174 0.10767,-0.52068 0.0834,-1.07818 0.18443,-1.29053 0.42985,-0.90303 0.0557,0.088 0.1349,0.14249 0.17583,0.12096 0.0839,-0.0442 0.18647,-0.96829 0.13619,-1.22761 -0.0342,-0.176 0.1333,-0.34349 0.23964,-0.23972 0.0329,0.0321 0.0597,0.2383 0.0597,0.45832 0,0.95303 0.18402,0.97776 0.21038,0.0283 0.0173,-0.62036 0.0343,-0.69968 0.15071,-0.69968 0.10564,0 0.13575,0.0811 0.15401,0.41464 l 0.0227,0.41461 0.0757,-0.36279 c 0.0597,-0.28598 0.11053,-0.3628 0.23991,-0.3628 0.15259,0 0.16266,0.031 0.14328,0.44054 -0.0213,0.45091 0.0291,0.54002 0.17627,0.31097 0.0667,-0.10381 0.10174,-0.09 0.17658,0.0702 0.11246,0.24058 0.11777,0.23354 0.28309,-0.37542 0.10981,-0.40444 0.15369,-0.47299 0.27161,-0.4243 0.10981,0.0453 0.13211,0.11178 0.1017,0.3031 -0.0218,0.13755 -0.01,0.24504 0.0279,0.24504 0.0369,0 0.0669,-0.0883 0.0669,-0.19621 0,-0.1969 0.14989,-0.36185 0.22337,-0.24582 0.0215,0.0341 0.0393,0.21645 0.0393,0.40527 0,0.33241 0.005,0.33938 0.17132,0.22004 0.21637,-0.15566 0.32023,0.0339 0.3835,0.70006 0.0452,0.47607 0.13461,0.66101 0.23948,0.49543 0.0334,-0.0526 0.0741,-0.53214 0.0905,-1.0654 0.0163,-0.53324 0.0623,-1.02014 0.10213,-1.08199 0.10446,-0.16235 0.26754,0.22165 0.22031,0.51877 -0.0598,0.37631 0.0292,0.68389 0.17678,0.61 0.0704,-0.0354 0.126,-0.0145 0.126,0.0475 0,0.20078 0.1256,0.11521 0.21171,-0.14429 0.0554,-0.16701 0.11356,-0.22667 0.16857,-0.173 0.0645,0.0629 0.10537,1.35145 0.17641,5.56735 0.0509,3.01697 0.12887,5.96071 0.17339,6.54163 l 0.081,1.05622 0.18535,-0.0585 c 0.15499,-0.049 0.18536,-0.0239 0.18536,0.15327 0,0.39046 0.0745,0.53971 0.26962,0.53971 0.10447,0 0.18994,-0.0466 0.18994,-0.1037 0,-0.13943 0.21833,-0.1321 0.30857,0.01 0.0525,0.0829 0.10981,0.0546 0.21008,-0.1037 0.0758,-0.11973 0.18162,-0.21767 0.23509,-0.21767 0.0965,0 0.12124,0.10712 0.19741,0.85516 0.0465,0.45718 0.14459,0.50662 0.20557,0.1037 0.0237,-0.15678 0.0717,-0.34239 0.10661,-0.41245 0.10449,-0.20965 0.29237,0.0307 0.34048,0.43555 0.0239,0.20109 0.0684,0.36562 0.0991,0.36562 0.068,0 0.13537,-0.25963 0.13537,-0.52162 0,-0.10651 0.0408,-0.23099 0.0906,-0.27658 0.0928,-0.0848 0.11237,-0.80147 0.20631,-7.54618 0.0616,-4.4282 0.17027,-6.32306 0.36242,-6.32306 0.072,0 0.11036,0.22494 0.15508,0.91028 0.0377,0.57806 0.0857,0.89655 0.13131,0.87263 0.0396,-0.0207 0.11621,-0.42101 0.17038,-0.88954 0.0542,-0.46852 0.12064,-0.84955 0.14771,-0.84671 0.027,0.002 0.0787,0.005 0.1149,0.005 0.0362,0 0.0657,0.16051 0.0657,0.35669 0,0.44015 0.0909,0.54691 0.21924,0.25756 0.131,-0.29529 0.32264,-0.21576 0.39565,0.16419 0.11378,0.59219 0.13148,0.63011 0.15695,0.33613 0.017,-0.19582 0.0732,-0.30404 0.18011,-0.34641 0.11067,-0.0438 0.18033,-0.18546 0.24186,-0.49172 0.13423,-0.66817 0.28907,-0.62494 0.38092,0.10627 0.10413,0.82911 0.13217,0.96476 0.19932,0.96476 0.0321,0 0.077,-0.17491 0.0998,-0.3887 0.0773,-0.72339 0.096,-0.77388 0.26201,-0.70809 0.0847,0.0335 0.17225,0.0142 0.19465,-0.0431 0.0749,-0.19153 0.1535,-0.10688 0.19188,0.20693 0.0209,0.17104 0.0562,0.45875 0.0786,0.63934 0.0503,0.40775 0.12196,0.23363 0.18415,-0.44709 0.0326,-0.35612 0.0773,-0.4953 0.1723,-0.53449 0.0948,-0.039 0.12857,-0.14363 0.12932,-0.39956 3.5e-4,-0.19063 0.0292,-0.41656 0.0638,-0.50208 0.0895,-0.22148 0.29001,-0.005 0.29519,0.31973 0.0104,0.65067 0.12243,1.74335 0.17359,1.69342 0.0315,-0.0307 0.0573,-0.19079 0.0573,-0.35565 0,-0.16486 0.032,-0.53489 0.0709,-0.82228 0.0619,-0.45532 0.0861,-0.5098 0.18818,-0.4235 0.10392,0.0878 0.11838,0.27864 0.12753,1.68356 0.0178,2.73887 0.13351,9.52834 0.17754,10.42128 0.0417,0.84418 0.12317,1.10061 0.18952,0.59602 0.0187,-0.14252 0.0494,-0.37575 0.0681,-0.51828 0.0697,-0.53019 0.20788,-0.27472 0.31731,0.58683 0.0591,0.46528 0.12443,0.87274 0.14513,0.90544 0.0207,0.0327 0.091,-0.052 0.15609,-0.18837 0.20186,-0.42252 0.29272,-0.25913 0.50372,0.90596 0.0359,0.19784 0.29542,0.0502 0.44121,-0.25091 0.18311,-0.3782 0.33801,-0.31839 0.42992,0.16602 0.0934,0.49188 0.23083,0.53556 0.32618,0.10369 0.0378,-0.17103 0.11411,-0.31097 0.16967,-0.31097 0.0556,0 0.14409,-0.16278 0.19674,-0.36174 0.11906,-0.44989 0.26932,-0.39496 0.33061,0.12084 0.0239,0.20168 0.0712,0.48163 0.10508,0.6221 l 0.0615,0.25542 0.16743,-0.20794 0.16744,-0.20796 0.22676,0.21125 0.22676,0.21124 0.11866,-0.23134 0.11865,-0.23134 0.316,0.2207 c 0.38761,0.27071 0.36496,0.27257 0.36496,-0.0299 0,-0.61908 0.22174,-0.79461 0.33809,-0.26762 0.0761,0.34416 0.15224,0.39673 0.21297,0.14687 0.0556,-0.22892 0.19292,-0.12963 0.23754,0.17179 0.0283,0.19174 0.0872,0.25917 0.24799,0.28393 l 0.21079,0.0325 7.1e-4,-2.00196 c 3.5e-4,-1.10108 0.0303,-4.0015 0.0662,-6.44538 0.0534,-3.62781 0.084,-4.50515 0.16648,-4.77964 0.0556,-0.1849 0.11639,-0.70422 0.13513,-1.15403 0.0613,-1.47148 0.0978,-1.80258 0.19813,-1.80258 0.0516,0 0.10869,0.0608 0.12675,0.13506 0.0333,0.13694 0.076,1.15237 0.0879,2.08837 0.009,0.68947 0.11996,0.49663 0.17719,-0.30718 0.0505,-0.70973 0.12037,-0.89972 0.31534,-0.8576 0.11851,0.0256 0.14619,-0.046 0.19889,-0.51446 0.10477,-0.93134 0.374,-0.65263 0.46968,0.48622 0.0412,0.49041 0.15844,0.64384 0.15844,0.20735 0,-0.147 0.0455,-0.2012 0.16883,-0.2012 0.13487,0 0.16642,0.0469 0.15686,0.23322 -0.006,0.12829 -0.008,0.34984 -0.002,0.49238 0.009,0.24611 0.0145,0.2422 0.10258,-0.0777 0.10389,-0.37739 0.20572,-0.42422 0.33809,-0.15548 0.085,0.17241 0.0929,0.17213 0.16026,-0.006 0.0912,-0.24061 0.25724,-0.0529 0.25724,0.29081 0,0.30591 0.1297,0.46276 0.29544,0.35727 0.22501,-0.14319 0.29643,-0.10749 0.36648,0.18342 0.0873,0.3622 0.16582,0.18352 0.22669,-0.5154 0.0341,-0.39061 0.068,-0.49562 0.15205,-0.47035 0.0595,0.0179 0.11769,0.13702 0.12923,0.26472 0.0451,0.499 0.17269,0.21758 0.22325,-0.49236 0.0198,-0.27748 0.22949,-0.42178 0.27628,-0.19012 0.0152,0.0755 0.0466,0.35879 0.0694,0.62959 0.0571,0.67418 0.165,0.62124 0.165,-0.081 0,-0.59364 0.11758,-0.8373 0.28015,-0.58062 0.11719,0.18503 0.16574,0.14076 0.21224,-0.19355 0.0556,-0.3995 0.29544,-0.44653 0.29544,-0.0579 0,0.13917 0.0306,0.28304 0.0683,0.3197 0.0376,0.0366 0.0504,0.15626 0.0283,0.26577 -0.0275,0.13693 -0.003,0.21911 0.0795,0.2632 0.0657,0.0352 0.18573,0.18662 0.26681,0.33636 l 0.14738,0.27229 0.002,-0.51828 c 0.001,-0.28507 0.0417,-0.59992 0.0897,-0.69969 0.0937,-0.19485 0.30252,-0.24852 0.30252,-0.0777 0,0.0571 0.0295,0.1037 0.0656,0.1037 0.0362,0 0.0657,-0.14336 0.0657,-0.31857 0,-0.24479 0.0259,-0.31067 0.1123,-0.28443 0.11171,0.0339 0.18601,0.37979 0.24088,1.12128 0.0502,0.67899 0.12087,1.14023 0.17463,1.14023 0.0294,0 0.0726,-0.26822 0.096,-0.59604 0.0234,-0.32781 0.054,-0.65433 0.0683,-0.72559 0.0385,-0.19208 0.2246,-0.157 0.27489,0.0518 0.024,0.0998 0.11173,0.26642 0.19491,0.37033 0.0832,0.10394 0.1512,0.25551 0.1512,0.33689 0,0.19895 -0.0466,0.18677 -0.24943,-0.0653 l -0.17166,-0.21319 -0.0497,0.21222 c -0.0273,0.11668 -0.0691,0.44306 -0.0929,0.72519 -0.0694,0.82709 -0.37145,0.8107 -0.45365,-0.0246 -0.07,-0.71165 -0.10402,-0.84752 -0.17063,-0.68148 -0.0316,0.0788 -0.0584,0.2832 -0.0595,0.45423 -0.002,0.34574 -0.0992,0.65544 -0.17006,0.54348 -0.0252,-0.0398 -0.0602,-0.30769 -0.0778,-0.59519 -0.0175,-0.28751 -0.0567,-0.54699 -0.0871,-0.57663 -0.0732,-0.0715 -0.10873,0.23242 -0.15796,1.35393 -0.038,0.86478 -0.10444,1.21658 -0.20105,1.06404 -0.0217,-0.0343 -0.072,-0.55775 -0.11181,-1.16322 l -0.0722,-1.10085 -0.18093,0.0628 c -0.16595,0.0575 -0.18454,0.0322 -0.22485,-0.30698 -0.0436,-0.36671 -0.11539,-0.46548 -0.19343,-0.26607 -0.0223,0.0571 -0.0961,0.1037 -0.164,0.1037 -0.0978,0 -0.13177,0.10223 -0.16372,0.49238 -0.10178,1.24254 -0.10874,1.28202 -0.2203,1.24833 -0.0766,-0.0231 -0.12813,-0.2131 -0.17519,-0.64542 -0.0723,-0.66498 -0.16015,-0.81455 -0.26281,-0.44782 -0.0488,0.17412 -0.11125,0.22601 -0.24545,0.20379 -0.14055,-0.0232 -0.18005,0.014 -0.18005,0.1699 0,0.10982 -0.057,0.30988 -0.12665,0.44447 -0.10417,0.20128 -0.14203,0.2208 -0.21338,0.10994 -0.0477,-0.0741 -0.0904,-0.17906 -0.095,-0.23323 -0.005,-0.0541 -0.0119,-0.14511 -0.0164,-0.20213 -0.005,-0.0571 -0.0804,-0.10369 -0.16846,-0.10369 -0.0882,0 -0.17852,0.0466 -0.20083,0.10369 -0.0691,0.17654 -0.24033,0.11423 -0.27589,-0.10039 -0.0217,-0.13129 -0.0822,-0.196 -0.16967,-0.1814 -0.0963,0.0161 -0.14763,-0.0525 -0.17623,-0.2354 -0.0663,-0.42434 -0.13849,-0.0815 -0.20242,0.96151 -0.0321,0.52531 -0.0593,1.03673 -0.0603,1.1365 -7.1e-4,0.0998 -0.0423,0.18139 -0.0917,0.18139 -0.0997,0 -0.17045,-0.50979 -0.17273,-1.24388 -0.002,-0.63415 -0.0705,-1.24388 -0.13989,-1.24388 -0.0315,0 -0.0571,0.0948 -0.0571,0.21056 0,0.19725 -0.16379,0.39463 -0.23466,0.28276 -0.0176,-0.0278 -0.05,-0.29013 -0.0719,-0.58292 -0.0591,-0.78718 -0.21859,-0.6494 -0.21859,0.18877 0,1.13339 -0.22094,1.43266 -0.29671,0.40193 -0.0535,-0.72761 -0.12485,-0.64448 -0.19276,0.2245 -0.0605,0.77353 -0.22173,1.65851 -0.30225,1.65851 -0.0928,0 -0.11867,-0.16371 -0.14781,-0.93291 -0.014,-0.37058 -0.0512,-0.6971 -0.0825,-0.7256 -0.1164,-0.10578 -0.20928,0.81989 -0.22359,2.22862 -0.008,0.79816 -0.0235,1.66111 -0.0345,1.91766 -0.0108,0.25655 -0.0404,2.5655 -0.0655,5.131 -0.037,3.76651 -0.0639,4.70945 -0.13946,4.89779 -0.10343,0.25768 -0.28754,0.315 -0.28754,0.0895 0,-0.17886 -0.39504,-0.28692 -0.51085,-0.13973 -0.10563,0.13423 -0.27183,-0.18013 -0.27488,-0.51989 -7.1e-4,-0.12827 -0.0279,-0.23323 -0.0595,-0.23323 -0.0317,0 -0.0582,0.10492 -0.0591,0.23323 -7e-4,0.12828 -0.0362,0.37262 -0.0781,0.54299 l -0.0765,0.30976 -0.12552,-0.25793 c -0.069,-0.14187 -0.12617,-0.30901 -0.12697,-0.37144 -0.001,-0.14611 -0.21847,-0.45661 -0.31848,-0.45661 -0.0423,0 -0.0769,0.0844 -0.0769,0.1875 0,0.10308 -0.0393,0.27229 -0.0873,0.37592 -0.0723,0.15614 -0.11168,0.1678 -0.22979,0.0679 -0.0783,-0.0662 -0.14253,-0.17195 -0.14253,-0.23491 0,-0.11777 -0.19129,-0.38733 -0.27901,-0.3932 -0.027,-0.002 -0.0492,0.065 -0.0492,0.14855 0,0.18841 -0.24026,0.40217 -0.36623,0.32585 -0.0513,-0.0311 -0.0934,-0.16573 -0.0934,-0.29915 0,-0.13341 -0.0394,-0.32763 -0.0876,-0.43159 -0.0837,-0.18059 -0.0953,-0.18095 -0.2626,-0.007 -0.0963,0.0997 -0.17507,0.24001 -0.17507,0.31199 0,0.48883 -0.51022,0.37747 -0.61955,-0.13524 l -0.0708,-0.33236 -0.25976,0.4717 c -0.30768,0.55871 -0.51484,0.59668 -0.54738,0.10027 -0.0318,-0.48567 -0.14338,-1.0884 -0.20138,-1.0884 -0.0289,0 -0.0863,0.11656 -0.12737,0.25915 -0.12749,0.44177 -0.25919,0.31296 -0.39746,-0.38872 -0.13396,-0.67977 -0.14795,-0.66913 -0.27245,0.20731 -0.0425,0.29932 -0.11194,0.5442 -0.15427,0.5442 -0.21018,0 -0.3503,-2.77929 -0.40953,-8.12325 -0.024,-2.16206 -0.065,-3.65857 -0.0981,-3.57616 -0.0313,0.078 -0.0573,0.27338 -0.0578,0.43434 -7.1e-4,0.22224 -0.0286,0.2844 -0.11591,0.25836 -0.0952,-0.0284 -0.13059,-0.24324 -0.20639,-1.25147 -0.0503,-0.66946 -0.1168,-1.21719 -0.14771,-1.21719 -0.031,0 -0.0562,0.0944 -0.0562,0.20987 0,0.1285 -0.0636,0.24809 -0.16413,0.30841 -0.12859,0.0773 -0.16436,0.17202 -0.16514,0.43797 -0.002,0.76789 -0.31066,0.82651 -0.42563,0.0809 -0.0602,-0.3901 -0.0971,-0.46506 -0.22973,-0.46597 -0.11306,-7e-4 -0.16869,0.0699 -0.19548,0.24824 -0.0452,0.30109 -0.2073,0.48111 -0.35346,0.39256 -0.0588,-0.0356 -0.14288,-0.27633 -0.18667,-0.53477 -0.0438,-0.25846 -0.0956,-0.46844 -0.11521,-0.46664 -0.0197,0.001 -0.11733,0.11679 -0.21719,0.25554 -0.15519,0.21564 -0.1935,0.38432 -0.26385,1.16182 -0.0613,0.67789 -0.10878,0.9176 -0.18624,0.94116 -0.0841,0.0256 -0.11244,-0.113 -0.14838,-0.72456 -0.0966,-1.64231 -0.17496,-1.90622 -0.31709,-1.06713 -0.0564,0.33296 -0.11269,0.46646 -0.19671,0.46646 -0.0739,0 -0.11769,-0.0771 -0.11769,-0.20731 0,-0.11398 -0.0276,-0.20732 -0.0612,-0.20732 -0.0671,0 -0.10278,0.16183 -0.16579,0.75152 -0.0317,0.29619 -0.0725,0.38871 -0.1715,0.38871 -0.0921,0 -0.14154,-0.0913 -0.16964,-0.31314 -0.0424,-0.33419 -0.12168,-0.47525 -0.18145,-0.32255 -0.0202,0.0513 -0.0653,1.85959 -0.10064,4.0184 -0.0353,2.1588 -0.0834,5.1073 -0.10691,6.55222 l -0.0428,2.62712 -0.15325,-0.0463 c -0.11737,-0.0354 -0.15786,0.005 -0.17295,0.17161 -0.0136,0.15053 -0.0672,0.21786 -0.17352,0.21786 -0.11867,0 -0.17298,-0.088 -0.23765,-0.38496 -0.0461,-0.21171 -0.068,-0.40996 -0.0486,-0.44054 0.0193,-0.0306 0.005,-0.0556 -0.0321,-0.0556 -0.037,0 -0.0937,0.19762 -0.12594,0.43916 -0.0348,0.26072 -0.1,0.4517 -0.16022,0.47003 -0.13725,0.0417 -0.32497,-0.60171 -0.32497,-1.1139 0,-0.44816 -0.0872,-0.60407 -0.23181,-0.41458 -0.0548,0.0719 -0.16658,0.0957 -0.26519,0.0566 -0.13795,-0.0547 -0.17742,-0.0255 -0.20701,0.15322 -0.0272,0.16457 -0.0751,0.20911 -0.1882,0.17499 -0.0894,-0.0269 -0.16563,0.0122 -0.1857,0.0944 -0.0756,0.31097 -0.22089,0.13305 -0.26427,-0.32352 -0.0346,-0.36379 -0.0816,-0.49215 -0.2185,-0.59603 -0.14656,-0.11116 -0.19233,-0.25668 -0.28623,-0.9098 -0.14941,-1.0394 -0.1788,-1.77275 -0.22021,-5.49382 -0.0193,-1.73884 -0.053,-3.86403 -0.0746,-4.72264 l -0.0395,-1.56111 -0.18958,0.044 c -0.14074,0.0326 -0.18985,0.101 -0.1906,0.2654 -0.001,0.29807 -0.0989,0.5235 -0.18861,0.43594 -0.0402,-0.0392 -0.0729,-0.14778 -0.0729,-0.24132 0,-0.31024 -0.12112,0.013 -0.14304,0.38165 -0.026,0.43766 -0.1622,0.53174 -0.24885,0.1719 -0.0355,-0.14716 -0.10891,-0.26756 -0.16328,-0.26756 -0.0544,0 -0.11418,-0.11655 -0.13293,-0.25915 -0.0187,-0.14253 -0.0494,-0.37576 -0.0681,-0.51827 -0.0516,-0.39194 -0.14119,-0.31091 -0.18154,0.16404 -0.0448,0.52671 -0.0978,0.61659 -0.21468,0.36408 -0.096,-0.20718 -0.12766,-0.15359 -0.17315,0.29253 -0.0112,0.10933 -0.0532,0.21605 -0.0935,0.23723 -0.0465,0.0245 -0.0981,-0.2687 -0.14118,-0.80172 -0.0374,-0.46212 -0.085,-0.86701 -0.10566,-0.89977 -0.0207,-0.0327 -0.0902,0.0427 -0.15433,0.16785 -0.0641,0.12505 -0.17567,0.24102 -0.24784,0.25767 -0.14384,0.0332 -0.20904,0.34674 -0.22192,1.06713 -0.005,0.23893 -0.0314,0.45742 -0.0602,0.48553 -0.12759,0.1245 -0.19784,-0.15017 -0.24208,-0.94645 -0.0261,-0.47067 -0.0724,-0.88005 -0.10286,-0.90973 -0.0303,-0.0297 -0.0754,0.2271 -0.10009,0.57068 -0.0321,0.44727 -0.072,0.62469 -0.14091,0.62469 -0.0529,0 -0.1115,-0.0928 -0.13028,-0.20615 -0.0414,-0.25018 -0.15052,-0.17147 -0.15052,0.1086 0,0.33696 -0.18191,0.22444 -0.26282,-0.16257 -0.0786,-0.37602 -0.19674,-0.40095 -0.19674,-0.0415 0,0.30256 -0.18742,0.36923 -0.30335,0.10786 -0.17563,-0.39591 -0.35317,-0.22541 -0.35317,0.33919 0,0.40008 -0.20346,1.20203 -0.30496,1.20203 -0.13895,0 -0.28591,-0.63764 -0.28591,-1.24055 0,-0.54381 -0.10721,-0.72669 -0.14335,-0.24455 -0.0114,0.15238 -0.0552,0.2949 -0.0973,0.31667 -0.0812,0.042 -0.11647,-0.0973 -0.18336,-0.7233 -0.0832,-0.77815 -0.18029,-0.41752 -0.34203,1.26979 -0.0383,0.39932 -0.0842,0.57012 -0.15311,0.57012 -0.0542,0 -0.10813,-0.10749 -0.11993,-0.23881 -0.0124,-0.13833 -0.0884,-0.27901 -0.18054,-0.33433 -0.13849,-0.0831 -0.15911,-0.1613 -0.15911,-0.60339 0,-0.7232 -0.0678,-1.16396 -0.18986,-1.23483 -0.0581,-0.0337 -0.12314,-0.10236 -0.14461,-0.15259 -0.0214,-0.0502 -0.14202,0.005 -0.26785,0.12182 l -0.22878,0.21314 -0.0771,1.37612 c -0.0424,0.75689 -0.10479,1.5282 -0.13855,1.71405 -0.0338,0.18586 -0.0923,1.95727 -0.12997,3.93646 -0.0377,1.9792 -0.0837,4.32154 -0.10201,5.20523 -0.0183,0.88366 -0.0336,1.73512 -0.0338,1.89212 -3.5e-4,0.25822 -0.0207,0.28294 -0.21375,0.25914 -0.18341,-0.0226 -0.2164,0.01 -0.23533,0.23283 -0.0281,0.33006 -0.12087,0.48976 -0.2063,0.35488 -0.0592,-0.0934 -0.11921,-0.79819 -0.1318,-1.54693 -0.005,-0.2961 -0.01,-0.30134 -0.10162,-0.1097 -0.053,0.11068 -0.0973,0.34391 -0.0985,0.51829 -0.003,0.41994 -0.15136,0.72202 -0.32076,0.65208 -0.0725,-0.03 -0.16614,0.011 -0.208,0.0904 -0.12869,0.24483 -0.31247,0.16549 -0.42707,-0.18439 l -0.1078,-0.32918 -0.0877,0.32918 c -0.10096,0.37913 -0.19098,0.41682 -0.29096,0.12182 -0.0386,-0.11399 -0.12241,-0.20731 -0.18613,-0.20731 -0.0637,0 -0.15316,-0.0583 -0.19873,-0.12957 -0.0664,-0.10382 -0.0958,-0.0934 -0.1477,0.0518 -0.08,0.22394 -0.30972,0.23405 -0.50141,0.0221 -0.13686,-0.15137 -0.14605,-0.1449 -0.18421,0.12956 -0.068,0.4893 -0.0877,0.54802 -0.18307,0.54802 -0.0508,0 -0.10999,-0.12827 -0.13158,-0.28506 -0.0683,-0.49613 -0.12861,-0.57248 -0.33498,-0.42403 -0.15951,0.11471 -0.19296,0.10664 -0.27307,-0.0664 -0.0502,-0.10835 -0.0913,-0.30481 -0.0913,-0.43644 0,-0.24293 -0.0915,-0.32143 -0.16259,-0.13962 -0.0375,0.0957 -0.54096,0.068 -0.60516,-0.0334 -0.0171,-0.0271 -0.0474,-0.24072 -0.0673,-0.47486 -0.0199,-0.23415 -0.0664,-0.45529 -0.10351,-0.49143 -0.0371,-0.0361 -0.1653,0.10296 -0.28499,0.30924 -0.18402,0.31703 -0.25594,0.37163 -0.46543,0.35331 l -0.24777,-0.0217 -0.0397,-0.57012 c -0.0217,-0.31356 -0.0724,-1.01325 -0.11238,-1.55485 -0.04,-0.5416 -0.10561,-2.75727 -0.14582,-4.9237 -0.0575,-3.09984 -0.092,-3.95563 -0.16146,-4.01726 -0.0525,-0.0465 -0.10588,-0.36179 -0.13163,-0.77743 -0.0238,-0.38452 -0.0578,-0.78143 -0.0755,-0.88202 -0.0482,-0.27351 -0.15413,-0.1081 -0.15413,0.24085 0,0.3453 -0.14912,0.41683 -0.25735,0.12345 -0.0614,-0.1664 -0.067,-0.16691 -0.0689,-0.006 -0.003,0.23818 -0.11932,0.33488 -0.22959,0.1904 -0.0718,-0.0942 -0.095,-0.071 -0.11201,0.11251 -0.0309,0.33314 -0.17399,0.36098 -0.24924,0.0485 -0.0381,-0.15824 -0.11547,-0.26757 -0.18932,-0.26757 -0.15206,0 -0.26494,-0.20101 -0.33096,-0.5894 -0.0418,-0.24559 -0.0841,-0.29169 -0.26778,-0.29169 -0.18034,0 -0.23642,-0.058 -0.32336,-0.33452 -0.0578,-0.184 -0.12426,-0.33559 -0.14761,-0.33689 -0.0233,-0.001 -0.0799,0.39622 -0.1259,0.88335 -0.10679,1.13328 -0.23265,1.32658 -0.30549,0.46916 -0.0306,-0.35953 -0.0509,-0.40502 -0.13288,-0.29752 -0.078,0.1021 -0.11286,0.0923 -0.17904,-0.0506 -0.11857,-0.256 -0.13994,-0.22936 -0.23185,0.28897 -0.0608,0.3428 -0.1157,0.46645 -0.20713,0.46645 -0.0858,0 -0.13667,0.0967 -0.16381,0.31097 -0.0355,0.28033 -0.064,0.31097 -0.28991,0.31097 -0.13779,0 -0.26877,-0.0465 -0.29105,-0.10345 -0.0222,-0.0569 -0.0579,-0.43159 -0.0792,-0.8326 -0.0527,-0.99346 -0.14466,-1.05456 -0.23088,-0.15349 -0.0238,0.24902 -0.248,0.35066 -0.248,0.11251 0,-0.23751 -0.0547,-0.20344 -0.27875,0.1738 -0.16764,0.28217 -0.21111,0.46735 -0.26775,1.14023 -0.055,0.65285 -0.089,0.80334 -0.18169,0.80334 -0.0941,0 -0.12217,-0.13632 -0.16032,-0.77892 -0.0254,-0.42841 -0.0722,-0.80433 -0.10408,-0.83538 -0.0318,-0.0311 -0.0578,-0.01 -0.0578,0.0465 0,0.0567 -0.0303,0.22883 -0.0673,0.38259 -0.0633,0.26259 -0.0745,0.26922 -0.18666,0.10909 -0.11276,-0.16111 -0.12505,-0.14757 -0.22283,0.24547 -0.10671,0.42888 -0.22113,0.53264 -0.28727,0.26049 -0.0596,-0.24521 -0.15505,-0.1814 -0.15505,0.1037 0,0.16124 -0.0372,0.25915 -0.0985,0.25915 -0.0541,0 -0.0985,-0.07 -0.0985,-0.15549 0,-0.2459 -0.1199,-0.18078 -0.14315,0.0777 -0.0147,0.16406 -0.0722,0.24261 -0.19399,0.26488 -0.1701,0.0311 -0.17374,0.0485 -0.21714,1.03657 -0.0585,1.3334 -0.10008,1.67867 -0.20157,1.67867 -0.0836,0 -0.0977,-0.13192 -0.20252,-1.89173 -0.0229,-0.38483 -0.0643,-0.69968 -0.0919,-0.69968 -0.0276,0 -0.0632,0.28615 -0.0793,0.63587 -0.0185,0.40365 -0.0654,0.67809 -0.12846,0.75151 -0.20287,0.23613 -0.24487,0.59147 -0.32063,2.71287 -0.0427,1.19404 -0.1012,2.21123 -0.13011,2.26043 -0.10866,0.18498 -0.19549,-0.068 -0.20182,-0.58793 -0.004,-0.29594 -0.0281,-0.6547 -0.0545,-0.79722 l -0.048,-0.25915 -0.0401,0.31098 c -0.022,0.17103 -0.0596,1.1643 -0.0835,2.20727 -0.0239,1.04297 -0.0777,2.27907 -0.11971,2.74689 -0.0672,0.74882 -0.0934,0.85447 -0.21874,0.88283 -0.0966,0.0219 -0.15602,0.13018 -0.18479,0.33689 -0.0279,0.20051 -0.0831,0.30466 -0.16144,0.30466 -0.12536,0 -0.19876,0.19456 -0.19876,0.52676 0,0.12541 -0.0455,0.19883 -0.12327,0.19883 -0.15682,0 -0.24363,-0.17158 -0.30094,-0.59483 -0.0633,-0.46736 -0.15134,-0.51108 -0.21861,-0.1086 -0.052,0.31146 -0.0761,0.33764 -0.2815,0.30622 -0.28719,-0.044 -0.31566,-0.0929 -0.37546,-0.64595 -0.0562,-0.52007 -0.23428,-0.68339 -0.31008,-0.28441 -0.0249,0.13153 -0.10065,0.3091 -0.16815,0.39461 -0.0851,0.10774 -0.14582,0.40217 -0.19794,0.95882 -0.093,0.99249 -0.22759,1.08987 -0.28666,0.20732 z"
       id="path3405-9"
       inkscape:export-filename="/home/dario/Work/proj_glove/adaptation/article/figures/oh_2019_a.png"
       inkscape:export-xdpi="600"
       inkscape:export-ydpi="600" />
  </g>
</svg>
