<?xml version="1.0" encoding="UTF-8" standalone="no"?>
<!-- Created with Inkscape (http://www.inkscape.org/) -->

<svg
   width="86.750832mm"
   height="84.064583mm"
   viewBox="0 0 86.750832 84.064583"
   version="1.1"
   id="svg9315"
   inkscape:version="1.1 (1:1.1+202105261517+ce6663b3b7)"
   sodipodi:docname="data_vaswani_2013.svg"
   xmlns:inkscape="http://www.inkscape.org/namespaces/inkscape"
   xmlns:sodipodi="http://sodipodi.sourceforge.net/DTD/sodipodi-0.dtd"
   xmlns="http://www.w3.org/2000/svg"
   xmlns:svg="http://www.w3.org/2000/svg">
  <sodipodi:namedview
     id="namedview9317"
     pagecolor="#ffffff"
     bordercolor="#666666"
     borderopacity="1.0"
     inkscape:pageshadow="2"
     inkscape:pageopacity="0.0"
     inkscape:pagecheckerboard="0"
     inkscape:document-units="mm"
     showgrid="false"
     inkscape:snap-global="false"
     lock-margins="true"
     fit-margin-top="3.1"
     fit-margin-left="3.1"
     fit-margin-right="3.1"
     fit-margin-bottom="3.1"
     inkscape:zoom="0.763461"
     inkscape:cx="330.73071"
     inkscape:cy="85.138599"
     inkscape:window-width="1920"
     inkscape:window-height="1023"
     inkscape:window-x="0"
     inkscape:window-y="0"
     inkscape:window-maximized="1"
     inkscape:current-layer="layer1" />
  <defs
     id="defs9312">
    <clipPath
       clipPathUnits="userSpaceOnUse"
       id="clipPath9562">
      <path
         d="m -312.741,-325.584 h 603 v 801 h -603 z"
         id="path9560" />
    </clipPath>
  </defs>
  <g
     inkscape:label="Layer 1"
     inkscape:groupmode="layer"
     id="layer1"
     transform="translate(64.688719,-102.13574)">
    <g
       id="g26770">
      <path
         style="fill:#ff0000;fill-opacity:0.502183;fill-rule:evenodd;stroke:#ff0000;stroke-width:0.339919px;stroke-linecap:butt;stroke-linejoin:miter;stroke-opacity:1"
         d="m -61.417268,110.96253 4.251861,2.8673 1.587359,-1.32875 c 0,0 10.431223,8.74179 10.487914,8.32218 0.05668,-0.41959 1.870826,-6.15422 1.870826,-6.15422 l 2.381046,-1.32875 0.623594,-3.4967 0.907066,7.48297 0.850368,-0.76929 0.6803,4.19606 1.077147,-0.90915 0.736991,7.5529 1.757433,1.74836 2.097578,9.02153 1.587366,7.5529 1.077143,-1.95816 0.623595,4.89541 1.133838,1.81829 0.736988,-2.79737 0.510219,4.96533 1.360601,0.2098 0.396847,3.00717 0.793679,-3.14705 0.907066,2.09803 1.020441,1.1889 0.453524,2.37776 0.963754,-1.6085 0.793679,-2.44769 0.850385,1.60849 1.700742,1.88822 0.623598,3.70652 0.907073,-0.6294 0.850374,4.12611 0.907059,-2.51763 0.6803,-0.62941 0.963754,-8.81172 0.85037,1.46862 0.736992,5.38494 0.7369915,1.25881 0.7936829,4.19606 0.8503708,-3.63658 0.7369775,3.00718 1.814135,-7.20323 0.6236017,3.42677 0.9637607,-2.72743 0.8503708,-1.11894 0.736981,2.79736 c 0,0 1.3606109,3.21697 1.5306851,2.58757 0.17006002,-0.62941 1.02044141,-3.56666 1.02044141,-3.56666 l 0.68029666,1.3987 0.73698093,2.72744 1.8141386,-2.37777 0.7369774,-2.37777 0.8503708,4.19606 0.7370022,-3.63657 1.8708158,0.13983 0.6236088,4.68561 0.9070622,-0.76928 0.7369915,-2.79737 0.7369877,3.35685 0.907066,-3.91632 0.79368,2.30782 0.736991,1.04902 0.79368,-4.75553 0.907062,2.93724 0.793679,-2.79737 1.190519,1.53855 0.510226,2.93724 0.680286,-4.61566 0.850375,1.8183 -0.05668,12.58817 -0.736988,-1.11894 -0.793694,2.72742 -0.85037,-0.69933 -0.793673,0.20979 -0.963753,0.76928 -0.680301,-2.51763 -0.793679,2.72743 -0.850385,0.13983 -0.850367,-2.23788 -0.793673,1.25882 -0.8503704,-0.90915 -1.4172883,1.95816 -1.0771469,-1.04901 -1.6440397,1.81829 -0.4535381,1.60848 -1.0771329,-1.95816 -1.6440678,0.34968 -0.9070517,2.4477 -0.56691383,-3.28693 -2.49443867,1.25884 -0.7936724,-1.04902 -0.9070728,2.09803 c 0,0 -0.6802966,-1.3987 -0.8503708,-0.97909 -0.1700601,0.41961 -1.0204309,1.18889 -1.0204309,1.18889 l -0.6802966,0.2098 -0.8503849,-0.55947 -0.6803002,2.79736 -1.5873518,0.48955 -0.9637603,-2.02809 -0.850375,-0.2098 -0.736991,-1.1889 -0.793669,-0.48953 -0.793683,1.74836 -0.623609,2.37776 -0.793679,2.09803 -0.963754,-3.14705 -0.963764,-0.0699 -0.793669,-2.16796 -0.850371,-0.13983 -1.473993,-1.32877 -0.793669,0.48955 -1.020456,-0.83921 -0.850371,-3.14704 h -0.680289 l -0.6803,-2.51763 -1.020445,0.76926 -0.680297,-3.77644 -1.077147,0.97908 -0.566921,-6.7137 -0.793665,2.72744 -1.020456,-3.00717 -0.793683,-6.64376 -0.680286,2.4477 -0.907062,-7.7627 -0.680311,-1.04901 -0.736981,-4.96534 -1.020452,-1.39868 -0.566907,-4.266 -0.907065,-1.81829 -0.907063,-0.83921 -0.85037,-5.73461 -0.850385,-5.45488 -0.736988,-1.74835 -1.077133,-1.3987 -0.05668,-1.88821 -0.510226,-2.16796 -0.793683,5.59474 -2.607807,-0.76929 -1.47398,3.98626 -12.528814,-6.9235 -3.79833,5.28005 z"
         id="path10077-3" />
      <path
         style="fill:#000080;fill-opacity:0.502183;fill-rule:evenodd;stroke:#000080;stroke-width:0.339919px;stroke-linecap:butt;stroke-linejoin:miter;stroke-opacity:1"
         d="m -56.614103,111.50225 4.088871,-5.3407 3.52765,9.89019 8.017387,-10.3847 c 0,0 0.801737,6.52752 0.881909,5.83521 0.08016,-0.69231 0.962081,-2.96706 0.962081,-2.96706 l 0.400876,1.08792 2.004346,7.71436 0.80174,-4.45059 0.721564,9.69241 0.561213,-4.15389 1.122444,3.06596 1.683646,-2.17585 0.721572,-0.49451 0.801733,6.03303 0.881916,-4.4506 0.801734,7.61546 0.641385,-9.59349 1.042261,-4.1539 0.721571,2.86817 0.962089,-6.03303 0.561213,9.98911 1.042261,-1.97804 0.801743,0.98902 0.721558,3.46157 0.481044,4.54949 1.282774,-0.59341 0.400872,-2.47255 c 0,0 1.122444,4.7473 1.122444,4.15389 0,-0.59341 0.641389,-6.72535 0.641389,-6.72535 l 0.721557,6.13194 1.844005,1.48352 1.763818,5.73632 0.561213,-0.0989 0.962089,-0.79121 0.561227,8.40667 0.962078,-2.27475 c 0,0 0.80174,5.73633 0.80174,5.14292 0,-0.59343 0.8819163,-5.83523 0.8819163,-5.83523 l 1.7638218,3.46157 0.8819127,-5.93412 1.122433,8.70338 0.2405274,2.17585 0.7215575,-6.62645 1.523305,3.65938 1.92417346,4.74729 c 0,0 0.64139937,0.49452 0.72157165,-0.0989 0.0801617,-0.59342 1.04224664,-2.27474 1.04224664,-2.27474 l 0.64139935,0.69231 0.6413888,4.54949 0.8819162,-2.07694 1.2026018,-0.0989 0.2405309,0.89011 1.362957,0.59341 0.4008719,-2.37365 0.8819021,-4.64839 1.0422608,1.08791 0.8819162,4.055 c 0,0 0.1603304,-0.49452 0.4810336,0 0.3207103,0.4945 1.2026119,2.27473 1.2026119,2.27473 l 0.561213,0.0989 0.881917,1.68134 0.801733,-3.75828 0.801744,-0.89011 0.962085,1.68132 0.881916,-1.87914 0.721561,-3.46157 0.881916,5.04401 0.641389,-0.69231 0.881906,2.86815 -0.08017,10.58252 -0.962085,-2.17584 H 17.06566 l -0.962074,-2.17585 -0.561217,1.68134 0.481048,0.98902 -0.881916,0.49451 -0.400876,1.78024 -1.202598,-2.17585 -0.641403,0.19781 -0.721561,2.47255 -1.12244,-3.36267 -2.0043353,1.38463 -1.2026158,-5.93413 -0.6413783,-0.3956 -1.2026123,5.1429 -2.5655622,-0.49451 -0.8819162,3.65938 -2.00434928,-4.8462 -0.56121298,0.69231 -1.04226074,-2.17584 -0.7215717,-3.46157 -1.683646,0.0989 -1.5233015,2.86815 -1.6034772,-7.61545 -0.962085,4.8462 -0.6413888,-0.1978 -0.7215716,-2.47257 -0.9620744,3.65939 -1.0422717,-4.5495 -0.721561,-0.69231 -0.962088,-4.54949 -0.801744,0.98901 -0.400858,1.48354 -0.881913,-3.06596 -0.962088,0.98901 -0.561217,-1.38463 -1.36296,-4.25278 -0.481041,-4.05499 -1.763822,5.2418 -0.641399,-3.46156 -0.641385,2.96706 -1.202606,-6.23082 -0.561213,6.32972 -1.202619,-3.85717 -0.400868,1.48353 -0.962075,-4.4506 -0.801744,-1.58243 -0.641392,2.37364 -1.042257,-4.15387 -0.561231,3.36266 -0.80173,-1.38462 -0.641385,-0.19781 -0.08016,1.58243 -0.962088,-6.13193 -0.962089,0.98903 -0.721557,2.76926 -1.603474,-5.14291 -1.844005,-2.96707 -1.202601,-0.0989 -0.400872,-1.48352 -0.801744,0.69233 -1.603474,-5.34072 -0.641389,2.67035 -3.928519,0.29671 -0.881916,0.69232 -1.042261,-0.49452 -2.004346,0.79121 -4.249208,-0.79121 -3.768181,-4.64839 z"
         id="path10228-5" />
      <path
         style="fill:#008000;fill-opacity:0.50917;fill-rule:evenodd;stroke:#008000;stroke-width:0.339919px;stroke-linecap:butt;stroke-linejoin:miter;stroke-opacity:1"
         d="m -56.4426,122.90381 5.612458,-13.42738 10.771381,10.14048 1.47398,5.03525 0.850371,-1.11894 2.154279,2.37777 0.453528,1.81828 h 0.566914 l 1.020445,3.21698 0.566921,-5.45488 1.417284,4.96534 1.927511,-2.44769 0.963754,5.5248 0.793679,0.13984 c 0,0 0.226762,3.14705 0.453535,2.72744 0.226765,-0.41961 1.247207,-5.1052 1.247207,-5.1052 l 0.6803,4.68559 1.64405,-0.69933 0.850374,-1.74836 0.736992,6.43395 0.850371,-3.35685 0.963753,4.54573 0.850371,2.02809 1.360601,-0.69935 0.963753,-1.32874 0.907062,1.32874 0.566918,-0.41959 0.850374,4.68559 0.510226,1.95816 0.510216,0.27975 0.79369,-2.30785 0.736981,0.62942 0.736991,-1.18888 0.850367,3.42678 1.5873664,-3.07712 1.757433,6.36402 0.6803002,-2.65749 1.2472175,1.18888 0.7936795,-0.0699 0.7936794,-0.76928 0.3401483,5.38495 1.020445,-8.7418 0.7936794,5.80454 0.85037085,1.74837 0.68031076,-0.69934 1.02043086,-2.79738 0.62361233,-1.74836 0.736988,2.72745 0.9637536,-1.46864 0.8503708,3.8464 0.6236124,-0.4196 1.1905262,1.46861 0.680286,-3.42677 0.8503744,1.46861 0.736988,2.4477 0.7369916,-2.6575 0.9637536,3.63658 0.6236049,-4.54572 0.907066,3.21697 0.963764,-2.58756 2.381042,1.11894 0.680286,1.88823 1.020445,-1.81829 0.737006,-0.0699 0.793665,3.00717 0.850374,-0.48954 0.113355,10.63001 -0.96375,-1.18888 -0.850374,-3.00718 -0.907059,2.51764 c 0,0 -0.566907,3.98626 -0.623602,3.14705 -0.05667,-0.83922 -0.963753,-4.12613 -0.963753,-4.12613 l -1.757444,5.38494 -2.210961,-5.03527 c 0,0 -0.7936791,5.45487 -0.8503669,4.75554 -0.056681,-0.69935 -0.9070763,-4.19606 -0.9070763,-4.19606 l -1.0204415,0.55947 -1.530671,-0.97909 -0.6236123,3.28691 -1.1338207,-0.76926 -0.6236123,1.81828 -0.6236088,-3.42678 -1.1338242,1.6085 -0.3968362,-4.33594 -1.1905262,2.58758 -1.07713637,1.04901 -0.22676202,3.14704 -1.81413501,-8.32218 c 0,0 -0.6803002,8.32218 -0.7936829,7.76271 -0.1133546,-0.55947 -1.0771329,-7.27316 -1.0771329,-7.27316 l -0.6803002,0.97907 -0.9070622,-3.35685 -0.9637535,-1.11894 -0.6236088,0.62941 -0.6803002,-3.84639 -0.6802967,2.51764 -0.8503743,-1.18889 -0.8503705,1.74836 -0.793683,-1.25882 -0.850371,-4.19605 -0.79368,2.4477 -0.850374,-0.48954 -0.907059,1.04901 -0.736991,-4.61566 -0.850374,1.81829 -1.077133,1.25881 -0.736988,-1.25881 -0.510219,-1.18888 -0.907073,0.0699 -0.907059,-2.79737 -1.587366,0.13984 -0.736988,-3.21698 -0.680289,2.93724 -1.133835,-1.32874 -1.47398,-4.40586 -0.793686,2.37776 -0.736988,-4.33592 h -0.850371 l -0.907066,-2.37778 -0.736988,5.87449 -0.736977,-0.83922 -0.737002,-2.86729 -0.907063,-2.16798 -1.020441,2.16798 -0.793687,-4.75554 -0.566913,-1.60848 -0.963754,-0.76928 -0.907066,0.97908 -0.793679,0.34967 -1.700745,-6.36403 -0.963754,-5.94441 h -0.850371 l -8.333644,-1.95816 -1.247218,0.55948 -5.952599,6.50388 z"
         id="path11267-6" />
    </g>
  </g>
</svg>
