<?xml version="1.0" encoding="UTF-8" standalone="no"?>
<!-- Created with Inkscape (http://www.inkscape.org/) -->

<svg
   width="109.83102mm"
   height="90.010162mm"
   viewBox="0 0 109.83102 90.010163"
   version="1.1"
   id="svg5"
   inkscape:version="1.1 (1:1.1+202105261517+ce6663b3b7)"
   sodipodi:docname="data_davidson_2004.svg"
   xmlns:inkscape="http://www.inkscape.org/namespaces/inkscape"
   xmlns:sodipodi="http://sodipodi.sourceforge.net/DTD/sodipodi-0.dtd"
   xmlns="http://www.w3.org/2000/svg"
   xmlns:svg="http://www.w3.org/2000/svg">
  <sodipodi:namedview
     id="namedview7"
     pagecolor="#ffffff"
     bordercolor="#666666"
     borderopacity="1.0"
     inkscape:pageshadow="2"
     inkscape:pageopacity="0.0"
     inkscape:pagecheckerboard="0"
     inkscape:document-units="mm"
     showgrid="false"
     lock-margins="true"
     fit-margin-top="4.3"
     fit-margin-left="4.3"
     fit-margin-right="4.3"
     fit-margin-bottom="4.3"
     inkscape:zoom="0.3817305"
     inkscape:cx="-391.63756"
     inkscape:cy="-466.29756"
     inkscape:window-width="1920"
     inkscape:window-height="1023"
     inkscape:window-x="0"
     inkscape:window-y="0"
     inkscape:window-maximized="1"
     inkscape:current-layer="layer1" />
  <defs
     id="defs2">
    <clipPath
       clipPathUnits="userSpaceOnUse"
       id="clipPath856">
      <path
         d="M 0,0 H 842 V 1191 H 0 Z"
         id="path854" />
    </clipPath>
  </defs>
  <g
     inkscape:label="Layer 1"
     inkscape:groupmode="layer"
     id="layer1"
     transform="translate(-95.663836,-173.49958)">
    <path
       style="fill:#999999;fill-opacity:0.341485;fill-rule:evenodd;stroke:#d3c55f;stroke-width:0.5481px;stroke-linecap:butt;stroke-linejoin:miter;stroke-opacity:1"
       d="m 100.55565,177.81212 2.4316,53.07524 2.43159,1.86528 2.79633,4.06964 2.79634,-3.22182 2.43159,-6.27405 2.31002,12.37857 2.79633,-7.63063 2.43159,15.93951 2.79634,-4.57836 2.31001,-16.78738 2.67476,6.61321 2.43159,11.19158 2.67475,-11.86984 2.55317,13.39596 2.79634,0.67829 2.55317,-8.13933 2.18844,6.95234 2.67475,-8.64805 5.22792,7.2915 3.28265,-0.33916 2.18844,-7.80016 2.31002,16.10908 5.47106,-22.89188 2.43163,-0.16954 4.98476,14.41339 2.91792,-7.29147 2.31001,-12.88725 2.55318,15.43079 2.43159,-12.209 2.55319,22.38316 2.55316,-14.75253 2.55317,16.10911 2.67475,-28.31811 2.91792,21.70487 2.31001,-1.18698 0.85106,1.86527 1.70211,-1.35655 v 12.03941 l -5.47109,-4.40878 -2.31001,-7.80022 -2.43159,15.26126 -2.55317,-8.13932 -2.67475,4.23923 -2.55317,-11.53073 -2.55318,7.63065 -2.91792,-6.78281 -2.18842,4.91754 -2.4316,1.01741 -2.91792,-5.42625 -2.43159,1.18701 -4.62004,5.76536 -3.40424,7.46106 -2.31002,-10.17418 -2.18843,7.2915 -2.91791,-2.20441 -2.55317,2.71312 -2.79633,-8.64807 -2.55317,4.5784 -2.31002,-2.88269 -2.79634,3.90011 -2.43159,0.16954 -2.67475,-11.02202 -2.43159,11.70028 -2.79634,-4.40878 -2.43159,-12.03943 -2.43159,12.209 -2.31002,6.78277 -3.03949,-10.17419 -2.55317,2.03484 -2.4316,-4.9175 -2.67475,7.29149 -2.67475,-3.56097 -2.4316,1.35658 -3.03949,-2.8827 -2.06686,-40.01839 z"
       id="path4151-7" />
    <path
       style="fill:#999999;fill-opacity:0.341485;fill-rule:evenodd;stroke:#5f6dd3;stroke-width:0.5481px;stroke-linecap:butt;stroke-linejoin:miter;stroke-opacity:1"
       d="m 100.23785,179.27056 0.8597,10.55153 4.81431,-3.95681 2.32118,29.1366 2.75103,-12.23018 2.40716,-0.11988 2.57909,4.55635 2.49313,23.0215 2.837,-5.27576 2.57909,3.83693 2.40718,-10.19183 2.32117,4.19663 3.00896,0.59954 2.23522,20.14382 1.54745,-7.91366 1.11761,-8.75295 2.49313,7.79373 2.66506,-13.42923 2.40714,6.59472 2.66506,12.58988 3.26686,-7.07431 2.23523,-6.83452 2.06327,6.1151 2.92298,3.23741 2.66506,-2.15829 2.49313,4.91604 2.66506,-8.39325 2.32119,8.63308 2.837,-7.91364 2.49312,14.98796 2.66508,-23.62103 2.23521,29.61621 2.92297,-22.06228 h 2.49313 l 2.32119,11.27094 2.92297,1.19905 2.32119,-0.35971 2.57907,-7.19422 2.66508,13.90881 2.92298,-4.67623 0.6018,2.15826 1.54743,-1.43885 -0.1719,8.99279 -2.23521,-3.59712 c 0,0 -2.75104,6.47481 -2.75104,5.63548 0,-0.83932 -2.49311,-11.27095 -2.49311,-11.27095 l -2.5791,10.43163 -2.66506,-0.95924 -5.07222,-11.27095 -2.40716,4.19662 -2.837,11.87048 -2.57909,-15.58749 -2.49313,8.99278 -2.49313,-5.99518 -2.57909,3.95682 -2.49313,-4.31655 -2.66506,5.2758 -3.09493,-1.31896 -2.06327,-2.63789 -2.32118,3.35731 -2.75103,-9.952 -2.49313,6.95442 -3.00894,2.87767 -4.90028,-10.43163 -2.5791,11.03117 -2.66506,-7.67386 -2.66506,9.71219 -4.81432,-21.70254 -2.49313,15.70737 -4.90028,-2.15827 -3.09493,0.71944 -2.32117,-23.98074 -3.1809,1.67863 -2.32118,3.47721 -2.23522,1.79858 -2.75103,-16.66664 -2.837,1.31895 -2.23522,-7.31413 z"
       id="path4266-5" />
  </g>
</svg>
