<?xml version="1.0" encoding="UTF-8" standalone="no"?>
<!-- Created with Inkscape (http://www.inkscape.org/) -->

<svg
   width="61.829491mm"
   height="131.23944mm"
   viewBox="0 0 61.82949 131.23945"
   version="1.1"
   id="svg5"
   inkscape:version="1.1 (1:1.1+202105261517+ce6663b3b7)"
   sodipodi:docname="data_oh_2019_kim_2015.svg"
   xmlns:inkscape="http://www.inkscape.org/namespaces/inkscape"
   xmlns:sodipodi="http://sodipodi.sourceforge.net/DTD/sodipodi-0.dtd"
   xmlns="http://www.w3.org/2000/svg"
   xmlns:svg="http://www.w3.org/2000/svg">
  <sodipodi:namedview
     id="namedview7"
     pagecolor="#ffffff"
     bordercolor="#666666"
     borderopacity="1.0"
     inkscape:pageshadow="2"
     inkscape:pageopacity="0.0"
     inkscape:pagecheckerboard="0"
     inkscape:document-units="mm"
     showgrid="false"
     lock-margins="true"
     fit-margin-top="3.2"
     fit-margin-left="3.2"
     fit-margin-right="3.2"
     fit-margin-bottom="3.2"
     inkscape:zoom="0.763461"
     inkscape:cx="136.22176"
     inkscape:cy="322.87176"
     inkscape:window-width="1920"
     inkscape:window-height="1023"
     inkscape:window-x="0"
     inkscape:window-y="0"
     inkscape:window-maximized="1"
     inkscape:current-layer="layer1" />
  <defs
     id="defs2">
    <clipPath
       clipPathUnits="userSpaceOnUse"
       id="clipPath948">
      <path
         d="M 36,713.99 H 556.044 V 292.592 H 36"
         id="path946" />
    </clipPath>
  </defs>
  <g
     inkscape:label="Layer 1"
     inkscape:groupmode="layer"
     id="layer1"
     transform="translate(-28.25927,-192.84141)">
    <g
       id="g1017"
       style="stroke-linecap:butt;stroke-linejoin:round"
       transform="matrix(0.35277777,0,0,0.35277777,-57.180943,184.50696)">
      <path
         style="fill:none;fill-rule:evenodd;stroke:#1f77b4;stroke-width:2.30378;stroke-linecap:butt;stroke-linejoin:miter;stroke-miterlimit:4;stroke-dasharray:none;stroke-opacity:1"
         d="m 251.48721,73.245641 1.44745,0.243617 1.39386,-0.731168 0.80408,1.137279 1.60824,-0.325059 0.53613,12.022883 0.75051,6.173959 0.80418,6.742523 1.87629,4.467975 0.32149,-29.488569 1.01855,-13.972604 1.92991,-12.022924 1.60826,-4.467963 v 50.528716 l 0.32149,2.437053 1.07218,5.686491 0.64329,2.59962 1.55464,2.84324 0.96496,0.73113 0.32148,-57.515014 0.53607,-3.736865 0.0537,-1.543499 2.19788,-3.655601 1.50108,-0.649869 0.10714,3.086958 0.3215,28.35132 0.85774,0.568641 c 0,0 0.10717,-0.568641 0.26791,-0.162531 0.16116,0.406219 0.5361,1.787222 0.5361,1.787222 l 0.96492,-1.462234 1.28665,0.974786 0.42887,-1.787185 0.42886,-27.37646 0.53609,-2.193439 1.39384,-2.274593 0.26793,-1.299706 1.01859,-0.24326 0.85771,0.325058 0.26792,2.762044 0.42889,56.702639 1.01858,4.711708 0.69689,2.92449 1.34022,1.38098 1.28661,1.1373 0.26793,-65.394885 0.10715,-2.193332 1.50102,-2.518355 1.98349,-0.568604 0.75056,1.381004 0.64331,65.476092 1.34023,4.14309 1.82267,1.78718 1.233,-0.56868 0.0535,-35.906262 1.44742,-1.218513 3.43096,0.0811 2.09074,0.893629 1.87629,-0.243619 0.26791,-1.62476 0.26789,-27.782714 1.82266,-4.061784 2.62689,-2.762006 0.64327,66.450919 0.93815,2.72144 1.28662,1.70595 2.03711,0.48739 0.21433,-68.177169 0.75055,-2.274631 1.50101,-1.13728 1.28662,-0.40622 0.69694,1.462271 0.2143,0.812328 0.3751,68.319421 1.23301,2.27459 1.17936,0.89358 1.82273,0.73112 0.37508,-37.20599 1.87633,-1.29981 1.5546,-0.731063 1.34027,2.193329 0.10717,34.687744 1.50101,1.94963 1.01862,0.32503 0.96491,-0.24325 0.53611,-0.56868 0.16115,-0.89358 0.32149,-68.80681 1.39388,-2.437092 1.34014,-1.543498 1.50105,1.381004 0.69698,70.675236 1.12573,1.94968 1.39384,0.40617 1.01857,0.89359 0.7505,-2.03092 0.30822,-71.954641 2.51958,-2.59955 2.03716,1.29974 0.10716,29.569898 0.42891,6.986318 2.51959,0.487379 1.66185,-1.056053 1.60826,1.381003 2.89491,-0.325058 0.58965,34.362694 1.82271,2.27466 1.7691,1.38101 0.85771,-1.21856 0.0537,-70.817361 1.28661,-2.680777 1.17937,-0.812365 1.87629,-0.08109 0.58973,73.437253 1.07213,0.81236 1.71551,1.05606 1.44742,-0.6499 0.21434,-73.518493 1.34022,-1.787149 2.14433,0.325058 0.91136,2.274633 0.48251,35.256409 1.17934,-0.487411 1.12579,0.568639 0.69694,-0.893592 1.17938,0.731134 0.42885,-36.637413 1.50105,-1.056085 2.89487,1.381039 0.41972,71.459631 0.73917,1.14885 1.57315,1.29241 1.17512,-0.22975 0.8908,-0.68931 0.34848,-73.10371 1.76911,-1.462269 0.64332,0.974822 1.82268,-1.462234 0.42887,74.818261 1.2866,1.70598 1.233,1.46221 1.76904,-0.56861 0.16074,-1.54352 0.32153,-37.449724 1.1258,-1.299773 1.17936,0.974858 2.30516,0.24326 0.75054,-0.16253 v 0"
         id="path1542-3-3" />
      <path
         style="fill:#1f77b4;fill-opacity:1;stroke:#1f77b4;stroke-width:1.06405;stroke-linecap:butt;stroke-linejoin:round;stroke-miterlimit:4;stroke-dasharray:none;stroke-opacity:1"
         d="m 254.4135,385.04846 c -0.0525,-0.54693 -0.15161,-1.88913 -0.2198,-2.9829 -0.13923,-2.23887 -0.84672,-7.88228 -1.11737,-8.91805 -0.12352,-0.47179 -0.32328,-0.51761 -0.65514,-0.14845 -0.37501,0.41689 -0.50371,0.33129 -0.59933,-0.39753 -0.15922,-1.21493 0.47396,-2.56728 1.10069,-2.35025 0.50986,0.17679 0.74606,1.22345 1.28731,5.70582 0.17889,1.48439 0.38745,2.69882 0.46309,2.69882 0.18208,0 0.59231,-3.84673 0.96824,-9.08485 0.21298,-2.96548 0.39948,-4.30844 0.61604,-4.43032 0.21297,-0.12047 0.34893,0.38458 0.43249,1.60872 0.0746,1.08752 0.2671,1.89475 0.49387,2.06807 0.35416,0.27086 0.6719,2.00196 0.61997,3.37846 -0.016,0.35283 0.19772,0.76597 0.46792,0.91729 0.40892,0.2293 0.54476,-0.0483 0.80237,-1.63647 0.56496,-3.4819 1.17833,-2.02331 1.19398,2.83904 0.0127,3.23914 0.34172,4.73472 0.5393,2.43364 0.071,-0.82644 0.0763,-2.11661 0.0127,-2.86712 -0.18449,-2.14736 0.0923,-6.64502 0.43209,-7.02641 0.16444,-0.18511 0.33409,-0.0303 0.3758,0.33394 0.15443,1.35387 0.36539,0.60128 0.60805,-2.17049 0.18409,-2.1015 0.34092,-2.84082 0.60246,-2.84082 0.2623,0 0.38824,-0.59792 0.48684,-2.30811 0.099,-1.71829 0.25267,-2.44058 0.59997,-2.82684 0.27715,-0.30827 0.4665,-0.97856 0.4665,-1.64921 0,-0.62211 0.17487,-1.40415 0.38865,-1.73855 0.21337,-0.33395 0.38864,-1.02578 0.38864,-1.53599 0,-2.86258 0.45323,-8.1231 0.69984,-8.1231 0.14922,0 0.27155,0.26178 0.27155,0.58254 0,0.31998 0.21858,0.82523 0.48562,1.12222 0.26712,0.29694 0.48575,0.80205 0.48575,1.12231 0,0.31996 0.0875,0.58247 0.19413,0.58247 0.10711,0 0.19411,-0.36832 0.19411,-0.81866 0,-1.19562 0.36258,-1.65584 0.68614,-0.87069 0.34452,0.83606 0.41572,0.38255 0.62564,-3.98587 0.10626,-2.20966 0.24306,-3.17097 0.46899,-3.2983 0.31324,-0.17679 0.52506,1.13956 0.83015,5.16155 0.14121,1.86599 0.49739,1.52061 0.49739,-0.48316 0,-0.76275 0.0838,-1.38678 0.18689,-1.38678 0.10273,0 0.28198,-1.08671 0.39788,-2.4149 0.32367,-3.69971 0.35094,-3.83956 0.67057,-3.48068 0.20736,0.2327 0.3012,1.13911 0.30643,2.97331 0.004,2.61092 0.0113,2.62266 0.28597,1.14123 0.21537,-1.1585 0.41322,-1.47691 0.87599,-1.40888 0.3289,0.0483 0.67362,0.446 0.76607,0.88374 0.14238,0.67374 0.24105,0.65634 0.6437,-0.11555 0.36018,-0.69024 0.5072,-1.61093 0.60636,-3.79721 0.0722,-1.58731 0.18088,-3.26645 0.24184,-3.73137 0.12479,-0.94943 0.65217,-1.16381 0.65217,-0.26481 0,0.31922 0.20134,0.84866 0.44759,1.17679 0.70403,0.93808 0.87457,2.25578 1.1211,8.66315 0.16365,4.25949 0.31245,6.08427 0.51412,6.31048 0.45627,0.51233 0.57135,-0.0226 0.81611,-3.7909 0.32329,-4.9801 0.39467,-5.55359 0.68995,-5.55359 0.16685,0 0.30963,1.07024 0.39788,2.98293 0.17848,3.87425 0.19652,3.93431 0.85763,2.82526 0.45907,-0.77064 0.60178,-1.54184 0.78246,-4.22766 0.21298,-3.17289 0.56561,-4.21114 0.89678,-2.64395 0.2222,1.04971 0.46105,-0.78544 0.59652,-4.57548 0.11192,-3.12453 0.16566,-3.45197 0.57259,-3.45197 0.36859,0 0.47019,0.38185 0.56633,2.13071 0.0642,1.17182 0.16243,2.76357 0.21778,3.53707 l 0.10074,1.40658 0.34896,-1.35312 c 0.58247,-2.25854 0.92136,-1.21172 1.07721,3.32804 0.1488,4.33347 0.37903,5.11492 0.63964,2.17225 0.11348,-1.28284 0.27836,-1.84651 0.53979,-1.84651 0.20696,0 0.46813,-0.34188 0.58057,-0.76105 0.11234,-0.41852 0.3746,-0.67424 0.58281,-0.56838 0.32486,0.16583 0.38663,-0.18851 0.43764,-2.50605 0.0473,-2.16561 0.12877,-2.69886 0.41209,-2.69886 0.27674,0 0.38061,-0.61274 0.48169,-2.8409 0.0883,-1.9453 0.21859,-2.84095 0.4136,-2.84095 0.15641,0 0.28477,0.49608 0.28477,1.10284 0,0.60674 0.0947,1.27364 0.20976,1.48243 0.11546,0.20815 0.16244,0.93475 0.10385,1.61313 -0.15883,1.85418 0.0746,3.75612 0.46205,3.75612 0.48174,0 0.7278,2.22964 0.97186,8.80682 0.28717,7.74072 0.58951,11.59343 0.97241,12.39475 0.17689,0.37059 0.46968,1.34001 0.65043,2.15473 0.25911,1.16718 0.44104,1.42039 0.85869,1.19374 0.29158,-0.15829 0.58681,-0.54224 0.65616,-0.8539 0.0693,-0.31128 0.26632,-0.40938 0.4371,-0.21722 0.22702,0.25462 0.31084,1.10799 0.31084,3.17421 0,1.55386 0.0931,2.99385 0.20695,3.19978 0.12267,0.22212 0.1821,-0.0265 0.1456,-0.61798 -0.0914,-1.47764 0.43065,-1.72881 0.56103,-0.26973 0.15281,1.71006 0.43898,0.34149 0.44292,-2.11878 0.001,-1.21258 0.0979,-1.84663 0.27914,-1.84663 0.19934,0 0.30965,1.06588 0.39668,3.83523 0.2607,8.29737 0.37339,8.89454 1.04855,5.54825 0.43614,-2.16171 0.88012,-2.20757 1.07685,-0.1114 0.0975,1.03798 0.14721,1.10077 0.30764,0.38622 0.10555,-0.46919 0.20293,-1.87497 0.21738,-3.12494 0.0429,-3.78644 0.24586,-5.65189 0.63816,-5.8728 0.45014,-0.25386 0.69408,0.80091 0.70149,3.03186 0.008,2.84252 0.21258,4.26137 0.61053,4.26137 0.21899,0 0.4481,0.59525 0.55983,1.4547 0.22421,1.72317 0.57837,1.33351 0.57837,-0.63615 0,-1.94622 0.72403,-1.91898 0.89155,0.0303 0.17248,2.0119 0.42892,1.76009 0.57828,-0.56842 0.18971,-2.95642 0.59508,-2.47304 0.74773,0.89131 0.146,3.22149 0.45267,3.48151 0.78022,0.66169 0.11433,-0.98296 0.30243,-2.06256 0.41806,-2.39916 0.35295,-1.02687 0.84058,-0.008 0.97157,2.03717 0.13201,2.05894 0.6636,2.71897 0.6636,0.8241 0,-1.84942 0.43505,-4.06094 0.76312,-3.87918 0.20858,0.11554 0.3245,0.93414 0.36501,2.57899 0.0361,1.54076 0.1532,2.4098 0.31845,2.4098 0.19411,0 0.29078,-1.73072 0.38744,-6.96009 0.15442,-8.36257 0.25468,-10.08525 0.58534,-10.08525 0.32488,0 0.4945,2.56099 0.4945,7.45734 0,2.22536 0.0835,3.90631 0.19411,3.90631 0.10712,0 0.19413,-0.47943 0.19413,-1.06499 0,-0.58588 0.13838,-2.18364 0.30842,-3.55111 0.16967,-1.3674 0.47192,-4.76723 0.67163,-7.55514 0.41467,-5.78991 0.74371,-7.25178 1.37313,-6.10217 0.2222,0.40617 0.42815,0.65705 0.45731,0.55704 0.028,-0.10004 0.13075,-1.45672 0.22541,-3.01542 0.11985,-1.97091 0.27435,-2.89107 0.50649,-3.02201 0.2583,-0.14543 0.36377,0.35474 0.46457,2.19906 0.0898,1.64337 0.24266,2.47287 0.49012,2.66213 0.19774,0.15112 0.35977,0.5004 0.35977,0.77699 0,0.27615 0.0826,0.50204 0.1833,0.50204 0.1006,0 0.2992,-1.2043 0.44142,-2.67623 0.20054,-2.07861 0.36579,-2.74989 0.73975,-3.00624 0.29802,-0.20438 0.60308,-1.07886 0.80064,-2.29537 0.42829,-2.63665 0.83009,-2.54428 0.90758,0.20852 l 0.0614,2.17389 0.4877,-1.53902 c 0.26833,-0.84646 0.56569,-2.13939 0.66112,-2.87324 0.22942,-1.76049 0.69085,-1.21542 0.8419,0.99344 0.0931,1.36272 0.20375,1.67165 0.54644,1.52621 0.34332,-0.14543 0.47087,-0.75322 0.63486,-3.02329 0.27194,-3.76246 0.71982,-3.82943 0.95016,-0.1424 0.17487,2.80392 0.47746,3.52706 0.65309,1.56254 0.0557,-0.62479 0.25628,-1.1364 0.44543,-1.1364 0.2583,0 0.37621,-0.63283 0.47425,-2.54348 0.0717,-1.39894 0.21258,-2.69282 0.31364,-2.87516 0.22983,-0.41528 0.57122,2.12579 0.57122,4.24976 0,1.47294 0.48804,3.3918 0.7584,2.982 0.0638,-0.0968 0.15923,0.36568 0.21297,1.02782 0.13682,1.69397 0.47281,1.69397 0.55294,0 0.0702,-1.48272 0.36218,-2.84094 0.61125,-2.84094 0.0798,0 0.25548,1.1506 0.38986,2.55683 0.17487,1.82555 0.34532,2.55686 0.5966,2.55686 0.19372,0 0.40586,0.25574 0.4719,0.5683 0.21779,1.03097 0.45291,0.59326 0.57837,-1.07745 0.15161,-2.021 0.72864,-3.63512 1.20417,-3.36974 0.23544,0.1314 0.40963,0.95878 0.5188,2.4646 0.40938,5.64506 0.35855,5.32173 0.53624,3.40307 0.087,-0.93755 0.21177,-3.17478 0.27715,-4.97161 0.0971,-2.66336 0.1849,-3.26695 0.47524,-3.26695 0.28035,0 0.38504,-0.60672 0.48992,-2.84096 0.099,-2.10858 0.21658,-2.84083 0.45534,-2.84042 0.24547,3.4e-4 0.33572,0.63484 0.38103,2.68265 0.0654,2.97478 0.11193,3.28263 0.41347,2.73793 0.11391,-0.20589 0.20737,-1.63784 0.20737,-3.18195 0,-2.35747 0.0577,-2.80728 0.36096,-2.80728 0.31366,0 0.39067,0.76146 0.58624,5.79019 0.12833,3.29908 0.34251,6.17127 0.49781,6.67604 0.18089,0.58848 0.33531,3.42224 0.45964,8.44288 0.10273,4.15631 0.22301,7.6631 0.26793,7.79294 0.0442,0.12994 0.40128,0.35208 0.7932,0.49445 0.39187,0.14205 0.80286,0.42231 0.91328,0.62142 0.12352,0.22364 0.20055,-0.40179 0.20055,-1.62577 0,-2.2284 0.21015,-2.86565 0.77444,-2.34218 0.24546,0.22741 0.45763,1.20873 0.59194,2.73546 0.43245,4.91219 0.63176,6.22239 0.98788,6.49491 0.20093,0.15375 0.36537,0.50518 0.36537,0.78137 0,0.27614 0.17166,0.50204 0.38184,0.50204 0.21017,0 0.47584,0.51489 0.59095,1.1435 0.16604,0.90887 0.28517,1.0251 0.57816,0.56645 0.29439,-0.46053 0.43017,-0.32146 0.67181,0.68731 0.16645,0.69573 0.30282,1.61173 0.30282,2.03588 0,0.55626 0.15762,0.66975 0.56649,0.40719 0.42102,-0.2701 0.61401,-0.11593 0.75126,0.60125 0.26913,1.40673 0.55847,-2.90519 0.81998,-12.22087 0.11786,-4.19729 0.25829,-7.84071 0.31244,-8.09646 0.0542,-0.25576 0.2266,-0.46491 0.38303,-0.46491 0.16123,0 0.33529,-0.7408 0.40132,-1.70456 0.0774,-1.13347 0.23344,-1.70451 0.46492,-1.70451 0.26873,0 0.42877,0.91249 0.6987,3.97718 0.19291,2.18757 0.41019,3.97733 0.48329,3.97733 0.073,0 0.18851,-1.34235 0.2567,-2.98298 0.25067,-6.05616 0.33771,-7.19305 0.59962,-7.8286 0.31244,-0.75832 0.67325,-0.27501 0.67325,0.90184 0,0.45029 0.0874,0.81884 0.19412,0.81884 0.10712,0 0.19453,-0.55501 0.19453,-1.2337 0,-0.67851 0.1532,-1.72359 0.34012,-2.32246 0.18689,-0.59858 0.43393,-2.15292 0.54875,-3.45379 0.16687,-1.88942 0.28959,-2.34006 0.61028,-2.24059 0.26433,0.082 0.43763,-0.27917 0.50694,-1.05412 0.22821,-2.55421 0.62147,-0.59121 0.87821,4.38464 0.14358,2.7873 0.2972,5.17522 0.34051,5.30672 0.0437,0.13141 0.27594,-0.2837 0.51563,-0.92326 0.74272,-1.97847 1.26421,-2.55315 1.69909,-1.87253 0.21339,0.33394 0.38866,0.85488 0.38866,1.15633 0,1.17047 0.58184,0.47297 0.69376,-0.83104 0.13073,-1.52485 0.5074,-2.17226 0.96472,-1.65906 0.33129,0.37172 0.86701,3.08384 0.86701,4.38999 0,0.89444 0.50584,2.62561 0.76723,2.62561 0.0859,0 0.19412,-2.29438 0.23984,-5.09846 0.0886,-5.43017 0.18451,-6.24398 0.61329,-5.20362 0.19051,0.46215 0.31246,2.87162 0.41428,8.17761 0.19814,10.33613 0.32367,12.58152 0.71578,12.80195 0.22339,0.1254 0.36218,-0.34982 0.45253,-1.55506 0.2222,-2.9553 0.6218,-2.02346 1.08347,2.52527 0.26232,2.58262 0.53623,4.26133 0.69569,4.26133 0.14479,0 0.26351,-0.25574 0.26351,-0.56841 0,-0.89606 0.58265,-0.66166 0.70679,0.2837 0.19251,1.46757 0.43589,0.93843 0.65308,-1.42048 0.24306,-2.63684 0.66215,-2.95596 0.93347,-0.71024 l 0.18891,1.56248 0.32127,-2.17 c 0.41327,-2.79091 0.75572,-2.42153 0.92285,0.99568 0.17528,3.58449 0.28275,4.29929 0.64481,4.29929 0.31204,0 0.3694,-0.29956 0.57026,-2.98285 0.0645,-0.85949 0.24868,-1.56258 0.40895,-1.56258 0.16042,0 0.39305,-0.64889 0.51662,-1.4425 0.44528,-2.85843 0.99834,-0.93542 1.19643,4.15972 0.0907,2.33941 0.24587,2.82963 0.41143,1.30282 0.24186,-2.22578 0.91899,-1.18452 1.17573,1.80701 0.20697,2.41439 0.40466,1.86914 0.67566,-1.86647 0.36379,-5.01278 0.79029,-5.2052 1.04904,-0.47295 0.0662,1.20687 0.19733,2.19428 0.29157,2.19428 0.20816,0 0.40702,-1.40883 0.40702,-2.88729 0,-1.7534 0.54118,-1.25294 0.66451,0.61469 0.0617,0.93751 0.16406,2.48502 0.22741,3.43914 0.16284,2.46195 0.47256,1.82792 0.83776,-1.71635 0.35735,-3.46869 0.70569,-4.19498 0.98408,-2.0531 0.1163,0.89492 0.34053,1.46659 0.57524,1.46659 0.28557,0 0.41731,0.51111 0.5121,1.98859 0.0918,1.43913 0.22901,1.98878 0.49448,1.98878 0.26993,0 0.3678,0.41256 0.36979,1.56235 0.003,1.97258 0.36579,3.8741 0.40562,2.13072 0.016,-0.62479 0.0127,-1.36359 -0.004,-1.6412 -0.016,-0.27804 0.0553,-3.699 0.16203,-7.60285 0.15844,-5.80246 0.26191,-7.28364 0.56757,-8.11586 0.25749,-0.702 0.41612,-2.1783 0.51046,-4.75517 0.11106,-3.03747 0.20055,-3.73701 0.47889,-3.73701 0.25388,0 0.40802,0.80422 0.59837,3.12491 0.29439,3.58623 0.67397,4.05797 0.86536,1.07485 0.0722,-1.12763 0.29321,-3.10912 0.4903,-4.40333 0.19734,-1.29437 0.45735,-3.4399 0.57784,-4.76816 0.16123,-1.77446 0.31765,-2.41469 0.59015,-2.41469 0.30962,0 0.39305,-0.56771 0.50347,-3.42183 0.11913,-3.08419 0.34092,-4.53098 0.58453,-3.81818 0.0485,0.1428 0.14319,1.95848 0.20977,4.03422 0.077,2.42204 0.20656,3.77403 0.36018,3.77403 0.36457,0 0.62656,-1.19685 0.77701,-3.55119 0.10031,-1.56949 0.23263,-2.13066 0.50303,-2.13066 0.26312,0 0.36699,0.40719 0.36699,1.43822 0,0.87387 0.13315,1.55922 0.34013,1.74614 0.18691,0.16886 0.49176,0.54486 0.6773,0.8344 0.50191,0.78372 0.67482,0.64961 0.78744,-0.60933 0.10187,-1.14233 0.72079,-1.63002 0.72079,-0.56838 0,1.0866 0.60438,0.55898 1.08054,-0.94411 0.43947,-1.38681 0.52001,-1.44813 0.97214,-0.74039 0.44954,0.70356 1.74724,0.98741 1.93984,0.4239 0.0442,-0.12887 0.14719,-1.60255 0.22942,-3.27515 0.19251,-3.91222 0.56363,-4.33779 0.74244,-0.85117 0.13314,2.60114 0.51643,3.78792 0.87972,2.72554 0.15924,-0.46595 0.33291,-3.88402 0.36299,-7.14018 0.008,-0.96246 0.76148,-1.49202 0.80757,-0.56842 0.0127,0.23422 0.0529,2.08809 0.0918,4.11933 0.0401,2.03132 0.11914,4.27891 0.17888,4.99485 0.12677,1.52654 0.48506,1.13876 0.48506,-0.52467 0,-0.77726 0.1071,-1.08403 0.3345,-0.95607 0.24227,0.13638 0.39186,1.12812 0.5415,3.59286 0.15162,2.49724 0.28237,3.35394 0.49037,3.21553 0.54487,-0.36303 0.77789,-1.41077 1.18472,-5.32815 0.41085,-3.95662 0.82024,-5.28085 1.17432,-3.79883 0.146,0.61069 0.21217,0.62951 0.28797,0.0824 0.19935,-1.43558 0.63972,-0.64828 0.86437,1.54389 0.23384,2.28082 0.56171,2.5935 0.56171,0.53537 0,-1.32245 0.518,-2.07008 0.82078,-1.18453 0.15322,0.4471 0.14036,0.87147 -0.045,1.52564 -0.14157,0.49881 -0.30962,1.85154 -0.37381,3.00708 -0.15601,2.81095 -0.80044,2.96361 -1.07312,0.25424 -0.20175,-2.0034 -0.38865,-2.33292 -0.56437,-0.99434 -0.14518,1.10744 -0.70682,1.10744 -0.70682,0 0,-1.61994 -0.35937,-0.84458 -0.59223,1.27838 -0.27636,2.517 -0.66998,3.94239 -1.38891,5.02979 -0.70477,1.06594 -0.72913,1.04357 -0.95798,-0.87695 -0.14319,-1.202 -0.34493,-1.7203 -0.71845,-1.84662 -0.39587,-0.13335 -0.56341,-0.61466 -0.70507,-2.02206 -0.21458,-2.13154 -0.40348,-2.35359 -0.55549,-0.65301 -0.0669,0.74941 -0.19412,1.03621 -0.34093,0.7706 -0.13951,-0.2531 -0.37462,0.12167 -0.58377,0.93343 -0.31325,1.21413 -0.36338,1.25259 -0.47985,0.36567 -0.19173,-1.46082 -0.4769,-1.2037 -0.4769,0.43043 0,1.04168 -0.10427,1.42046 -0.38865,1.42046 -0.25908,0 -0.38863,-0.37874 -0.38863,-1.13635 0,-0.83343 -0.12961,-1.13642 -0.48568,-1.13642 -0.26711,0 -0.48571,-0.20589 -0.48571,-0.45839 0,-0.25273 -0.24064,-0.70865 -0.5342,-1.01441 -0.43328,-0.45085 -0.65363,-0.3211 -1.16586,0.6892 -0.34734,0.68485 -0.79795,1.11803 -1.00122,0.96253 -0.25508,-0.19416 -0.40958,0.0857 -0.4985,0.90562 -0.15522,1.43053 -0.64984,1.54866 -0.97859,0.23346 -0.21899,-0.87566 -0.25751,-0.85209 -0.46535,0.28371 -0.25789,1.40939 -0.79587,1.67062 -0.79587,0.38667 0,-1.15596 -0.23502,-1.07096 -0.72414,0.2618 -0.29639,0.80784 -0.44632,2.13565 -0.54496,4.82956 -0.0947,2.59301 -0.21737,3.71532 -0.40485,3.71532 -0.17647,0 -0.26911,-0.66903 -0.26911,-1.95516 0,-2.40277 -0.3313,-3.17183 -0.50317,-1.16825 -0.16003,1.869 -0.5358,1.53473 -0.66273,-0.58991 l -0.0975,-1.63119 -0.34092,1.52115 c -0.18731,0.83655 -0.47015,2.97375 -0.6283,4.74932 -0.46849,5.26106 -1.14553,6.52219 -1.60207,2.98432 -0.2583,-2.00295 -0.63364,-1.71752 -0.63364,0.48161 0,0.8163 -0.13116,1.9082 -0.29157,2.42634 -0.20857,0.67424 -0.35697,3.49254 -0.52162,9.91023 -0.16083,6.28354 -0.31325,9.21159 -0.50808,9.78138 -0.50865,1.48756 -0.7514,0.61674 -1.09388,-3.92501 -0.0645,-0.85938 -0.24586,-1.56256 -0.40184,-1.56256 -0.15602,0 -0.33651,-0.60997 -0.40028,-1.35533 -0.085,-0.99232 -0.21617,-1.27907 -0.48939,-1.07013 -0.2599,0.1987 -0.373,-0.008 -0.373,-0.68054 0,-1.71334 -0.4836,-0.56099 -0.54652,1.30242 -0.0734,2.18132 -0.67856,3.40637 -1.13494,2.29865 -0.16364,-0.39594 -0.59323,-0.66176 -0.95574,-0.59063 -0.62937,0.12394 -0.66459,0.0264 -0.78411,-2.16003 -0.1448,-2.64639 -0.40859,-2.98629 -0.56472,-0.72738 -0.22621,3.27238 -0.40377,4.39831 -0.72216,4.5776 -0.2274,0.12846 -0.36498,-0.30864 -0.44523,-1.41491 -0.32849,-4.52169 -0.34172,-4.57039 -0.4923,-1.81142 -0.16925,3.10999 -0.54061,5.3599 -0.77087,4.67563 -0.0903,-0.26747 -0.2623,-2.78829 -0.38262,-5.60078 -0.2904,-6.78817 -0.27275,-6.66497 -0.85989,-5.88198 -0.37582,0.50145 -0.53252,1.32557 -0.70024,3.68965 -0.20415,2.87453 -0.62249,4.06737 -0.81974,2.33675 -0.0442,-0.38943 -0.24787,-0.70887 -0.45189,-0.71019 -0.27956,-0.003 -0.41428,-0.59793 -0.54527,-2.40826 -0.15643,-2.1611 -0.221,-2.3713 -0.63531,-2.06717 -0.25349,0.18587 -0.59128,0.0226 -0.75015,-0.36264 -0.23383,-0.56771 -0.28878,-0.53889 -0.28878,0.1511 0,1.30318 -0.52537,2.32589 -0.92032,1.79148 -0.1881,-0.25499 -0.6475,-0.47513 -1.02039,-0.48966 -0.58987,-0.0226 -0.70466,-0.26633 -0.88406,-1.8733 -0.2984,-2.67317 -0.67213,-3.63088 -0.67213,-1.72212 0,3.83181 -0.70149,4.58345 -0.89943,0.96364 -0.0746,-1.35912 -0.25669,-2.46065 -0.43934,-2.65741 -0.49198,-0.52899 -0.59774,-1.33884 -0.60093,-4.59891 -10e-4,-2.51815 -0.0549,-2.98517 -0.30524,-2.70472 -0.21257,0.23874 -0.38303,-0.22666 -0.57555,-1.57483 -0.1504,-1.05268 -0.40292,-2.05927 -0.56116,-2.23686 -0.15801,-0.17754 -0.39545,-1.42318 -0.52697,-2.76783 -0.40798,-4.17079 -0.8302,-5.02552 -1.04823,-2.12231 -0.1893,2.5207 -0.61927,2.71551 -1.29894,0.58852 -0.63006,-1.97168 -0.62752,-1.97308 -1.73872,0.95977 -0.72355,1.9096 -1.21841,1.48644 -1.29249,-1.10522 -0.0525,-1.83666 -0.12792,-2.09783 -0.67995,-2.3534 -0.9632,-0.44546 -1.2375,0.79803 -1.53089,6.9415 -0.27956,5.85278 -0.6262,7.24167 -0.83384,3.3403 -0.0717,-1.34409 -0.17688,-2.92509 -0.23424,-3.5132 -0.18008,-1.85203 -0.44203,0.18057 -0.46666,3.62616 -0.028,3.99606 -0.21819,5.96592 -0.57519,5.96592 -0.35496,0 -0.96184,-3.47359 -0.96227,-5.50625 -4.1e-4,-1.84656 -0.34172,-2.64066 -0.51844,-1.20595 -0.0693,0.56642 -0.27714,1.4581 -0.46008,1.98069 -0.23864,0.68044 -0.37221,2.3755 -0.47096,5.966 -0.0754,2.75852 -0.26149,7.81168 -0.41275,11.22935 -0.1512,3.41756 -0.27514,6.29391 -0.27514,6.39197 0,0.0982 -0.12721,0.1783 -0.28276,0.1783 -0.16926,0 -0.33409,-0.79957 -0.41059,-1.99493 -0.17889,-2.78507 -0.4304,-2.97588 -0.57491,-0.43572 -0.17887,3.14263 -0.24465,3.56686 -0.55229,3.56686 -0.19533,0 -0.31845,-1.01227 -0.41371,-3.4091 -0.0935,-2.35725 -0.21939,-3.40907 -0.40766,-3.40907 -0.14961,0 -0.27233,0.38408 -0.27233,0.85227 0,0.4692 -0.16565,0.85233 -0.36739,0.85233 -0.36218,0 -0.71937,-2.22232 -0.62353,-3.87927 0.024,-0.41475 -0.13357,-0.8899 -0.35053,-1.05566 -0.217,-0.16584 -0.44361,-0.75757 -0.50408,-1.31515 -0.0606,-0.55766 -0.27435,-1.1393 -0.47501,-1.29278 -0.3345,-0.25575 -0.48353,-1.29713 -1.10866,-7.73727 -0.1444,-1.49091 -0.296,-0.14921 -0.48395,4.29737 -0.27314,6.45021 -0.68637,7.25788 -0.9147,1.78695 -0.10783,-2.58932 -0.18972,-3.04656 -0.57378,-3.20576 -0.24668,-0.10194 -0.55872,0.0838 -0.69433,0.41264 -0.4452,1.08063 -0.70345,-0.55766 -0.70321,-4.45989 4.4e-4,-5.21806 -0.39507,-13.20989 -0.7061,-14.27024 -0.14319,-0.48905 -0.31366,-1.6637 -0.37862,-2.60982 -0.0971,-1.41963 -0.19534,-1.67686 -0.56239,-1.47173 -0.24468,0.13676 -0.50381,-0.0303 -0.57604,-0.37323 -0.24065,-1.13968 -0.45246,-0.6422 -0.58129,1.36695 -0.0702,1.09603 -0.24466,1.98862 -0.38745,1.98862 -0.31525,0 -0.49333,1.75693 -0.4969,4.90198 -0.001,1.31625 -0.12267,2.63691 -0.27674,3.00999 -0.42604,1.03417 -0.83955,-1.19478 -1.11673,-6.02013 -0.28879,-5.02646 -0.62461,-5.39107 -0.95754,-1.03964 -0.26913,3.51192 -0.72688,4.18516 -1.12203,1.64886 -0.15844,-1.01758 -0.32769,-1.36644 -0.5449,-1.12271 -0.17649,0.19871 -0.48026,-0.0842 -0.6914,-0.64286 -0.35615,-0.9427 -0.38664,-0.94346 -0.56435,-0.012 -0.23143,1.20763 -0.91751,1.29119 -1.06984,0.13033 -0.0614,-0.46915 -0.27716,-0.85233 -0.47954,-0.85233 -0.23463,0 -0.36779,-0.39906 -0.36779,-1.10268 0,-0.60668 -0.0874,-1.26095 -0.19413,-1.45406 -0.10711,-0.19341 -0.19413,-0.0801 -0.19413,0.25046 0,0.33093 -0.18128,0.602 -0.40243,0.602 -0.22099,0 -0.54439,0.41529 -0.71786,0.92262 -0.29159,0.85149 -0.34935,0.79864 -0.75399,-0.68538 -0.46208,-1.69503 -0.42656,-1.75294 -0.74702,1.21923 -0.0525,0.48858 -0.17767,0.74006 -0.27834,0.55894 -0.23103,-0.41742 -0.43153,0.52627 -0.58803,2.76457 -0.21739,3.10593 -0.67149,2.14793 -0.85222,-1.79696 -0.25749,-5.61407 -0.78163,-4.48607 -0.99063,2.13068 -0.17287,5.46987 -0.28918,6.81818 -0.58911,6.81818 -0.24667,0 -0.48671,-3.95144 -0.48999,-8.06311 -10e-4,-2.5889 -0.13555,-2.83777 -0.87588,-1.62975 -0.50706,0.82764 -0.63243,1.55887 -0.96444,5.62445 -0.2888,3.53377 -0.45431,4.63253 -0.67992,4.50696 -0.16405,-0.0906 -0.32608,-0.7383 -0.36058,-1.43773 -0.0401,-0.79082 -0.24065,-1.40275 -0.53428,-1.6183 -0.29198,-0.21383 -0.47218,-0.75709 -0.47218,-1.42139 0,-1.36928 -0.0999,-1.35126 -0.59859,0.10848 -0.37059,1.08414 -0.4326,1.1078 -0.74379,0.2837 -0.18692,-0.49396 -0.38825,-0.89847 -0.44753,-0.89847 -0.0594,0 -0.17046,1.47015 -0.24707,3.26701 -0.0763,1.79688 -0.38585,5.49683 -0.68729,8.22191 -0.3016,2.72511 -0.64855,6.94383 -0.77093,9.37497 -0.32967,6.54809 -0.3718,6.97688 -0.68544,6.97688 -0.19011,0 -0.28798,-0.57777 -0.28798,-1.70457 0,-0.93751 -0.0778,-1.70448 -0.17326,-1.70448 -0.22701,0 -0.35455,1.64622 -0.51969,6.68855 -0.13158,4.02244 -0.33329,5.31302 -0.67338,4.31301 -0.0918,-0.26973 -0.1877,-2.7417 -0.21337,-5.49367 -0.0417,-4.47543 -0.19773,-6.18175 -0.48642,-5.33632 -0.0538,0.15717 -0.15803,1.52494 -0.23263,3.03991 -0.1861,3.80852 -0.63968,3.71339 -0.90279,-0.18925 -0.10909,-1.61906 -0.26433,-3.13186 -0.34414,-3.36176 -0.0802,-0.23005 -0.14558,-1.14237 -0.14558,-2.02784 0,-0.88548 -0.0874,-1.60988 -0.19412,-1.60988 -0.10712,0 -0.19453,0.87984 -0.19453,1.95519 0,1.07527 -0.079,2.09822 -0.17607,2.27328 -0.0967,0.1749 -0.23906,1.6603 -0.31566,3.30056 -0.16725,3.5704 -0.4381,5.84639 -0.6309,5.29705 -0.077,-0.2191 -0.23062,-2.1089 -0.34133,-4.19813 -0.16444,-3.1095 -0.2643,-3.78282 -0.54875,-3.71242 -0.20134,0.0484 -0.50484,-0.66772 -0.72099,-1.70457 -0.31965,-1.53274 -0.37341,-1.61601 -0.3742,-0.57844 -6.1e-4,1.20873 -0.4584,1.94662 -0.92354,1.48899 -0.13314,-0.13153 -0.24305,-0.60131 -0.24305,-1.04394 0,-0.44274 -0.0874,-0.8049 -0.19453,-0.8049 -0.1071,0 -0.19411,0.36832 -0.19411,0.81868 0,1.0474 -0.27595,1.54513 -0.6333,1.14361 -0.20375,-0.22892 -0.28678,-1.41219 -0.30524,-4.3472 -0.016,-2.21826 -0.071,-4.16576 -0.12592,-4.32794 -0.22942,-0.67109 -0.37943,0.71795 -0.4556,4.22212 -0.0955,4.38253 -0.42842,5.23322 -1.12355,2.86996 -0.50539,-1.71867 -0.65855,-1.87828 -0.65855,-0.68628 0,0.45618 -0.23665,1.47075 -0.52571,2.25488 -0.48871,1.32542 -0.55025,1.3607 -0.87424,0.50302 -0.32488,-0.85963 -0.35014,-0.83898 -0.373,0.30221 -0.0409,2.05217 -0.0642,2.27902 -0.31325,3.00706 -0.19091,0.55904 -0.26591,0.3328 -0.36378,-1.09874 -0.14121,-2.06569 -0.46441,-1.89233 -0.46441,0.24895 0,0.89424 -0.0914,1.34552 -0.24306,1.19861 -0.28637,-0.27804 -0.4997,-3.86714 -0.51979,-8.73686 -0.0201,-5.08702 -0.19013,-7.03122 -0.6119,-7.03122 -0.19532,0 -0.43553,0.42287 -0.53448,0.94003 -0.2639,1.379 -0.73695,0.56507 -0.87904,-1.51211 -0.0678,-0.99333 -0.38144,-2.51045 -0.69645,-3.3714 -0.31524,-0.861 -0.6337,-2.30734 -0.70799,-3.21429 -0.0746,-0.90698 -0.20696,-1.9187 -0.29479,-2.24827 -0.0879,-0.32978 -0.2198,-2.75854 -0.29319,-5.39768 -0.13357,-4.82835 -0.42604,-8.56483 -0.4527,-5.7928 -0.008,0.8876 -0.13075,1.27837 -0.40108,1.27837 -0.31325,0 -0.38824,-0.37872 -0.38824,-1.95501 0,-1.07535 -0.0874,-2.11317 -0.19452,-2.30633 -0.10712,-0.19378 -0.19413,0.0264 -0.19413,0.49502 0,0.4659 -0.19693,0.92809 -0.43715,1.02786 -0.39265,0.1632 -0.443,0.54297 -0.49492,3.73274 -0.0501,3.08557 -0.10754,3.55098 -0.43714,3.55098 -0.26313,0 -0.38024,-0.39215 -0.38184,-1.27839 -0.003,-2.62475 -0.22421,-3.83519 -0.6925,-3.83519 -0.47344,0 -0.64282,1.12073 -0.96593,6.39194 -0.23101,3.76687 -0.86449,2.43755 -0.86449,-1.81353 0,-3.25758 -0.2274,-7.41927 -0.40529,-7.41927 -0.087,0 -0.21739,1.53414 -0.29039,3.4091 -0.22821,5.89751 -0.7338,3.86355 -0.96475,-3.88073 -0.14359,-4.81402 -0.34051,-5.52629 -0.56405,-2.0408 -0.20014,3.11868 -0.50773,4.7089 -0.94787,4.89793 -0.26151,0.11222 -0.45305,0.78477 -0.55582,1.95135 -0.0951,1.08052 -0.31324,1.89982 -0.55522,2.08477 -0.23864,0.18246 -0.52321,1.2345 -0.70971,2.62331 -0.39907,2.97002 -0.79402,2.98902 -0.95498,0.0483 -0.0686,-1.25006 -0.1865,-2.27277 -0.26311,-2.27277 -0.0763,0 -0.24627,1.40629 -0.37781,3.12505 -0.18851,2.46562 -0.31806,3.12494 -0.61374,3.12494 -0.20576,0 -0.37461,-0.35245 -0.37461,-0.78296 0,-0.43091 -0.18931,-1.15067 -0.42081,-1.60014 -0.36057,-0.70014 -0.45687,-1.7421 -0.67266,-7.27657 -0.19772,-5.06294 -0.3361,-6.70599 -0.64225,-7.60107 -0.21496,-0.62815 -0.43657,-1.00702 -0.493,-0.84204 -0.0566,0.16433 -0.20576,1.81267 -0.33129,3.66156 -0.12593,1.84901 -0.36579,3.65922 -0.53268,4.02285 -0.16684,0.36379 -0.39627,1.7698 -0.50889,3.12491 -0.2936,3.5242 -0.71883,3.23544 -0.97411,-0.66103 -0.13555,-2.0712 -0.29961,-3.12484 -0.48567,-3.12484 -0.21418,0 -0.3341,1.47935 -0.50552,6.2499 -0.12353,3.43752 -0.23303,6.4418 -0.24306,6.67609 -0.008,0.23422 -0.1364,0.426 -0.28116,0.426 -0.19412,0 -0.2976,-1.44328 -0.39425,-5.47974 -0.0722,-3.01407 -0.18091,-5.71104 -0.24026,-5.99349 -0.24988,-1.18244 -0.61558,0.9282 -0.73446,4.2386 -0.25067,6.97893 -0.35254,8.37111 -0.61236,8.37111 -0.2551,0 -0.29361,-0.508 -0.64022,-8.52272 -0.15482,-3.5781 -0.16685,-3.64003 -0.38584,-1.9887 -0.3686,2.77748 -0.53885,3.40321 -0.92697,3.40627 -0.30282,0.003 -0.39989,0.63612 -0.54876,3.57588 -0.14036,2.77143 -0.24948,3.53478 -0.48574,3.40253 -0.20456,-0.11448 -0.3686,-1.23118 -0.49908,-3.4065 -0.24386,-4.06315 -0.58141,-5.25296 -0.86702,-3.05638 -0.11108,0.85254 -0.20133,2.0127 -0.20133,2.57828 0,2.47573 -0.2563,4.49418 -0.60368,4.76007 -0.22781,0.17414 -0.36859,0.78891 -0.3706,1.61277 -0.003,1.59966 -0.17887,2.43289 -0.60904,2.89599 -0.18851,0.20286 -0.37501,1.28549 -0.45222,2.62368 -0.10032,1.73513 -0.23021,2.32054 -0.54381,2.45442 -0.32088,0.13675 -0.48974,0.94758 -0.76226,3.6608 -0.24266,2.41429 -0.46341,3.57177 -0.71895,3.76714 -0.31204,0.23837 -0.39065,1.04498 -0.50965,5.22475 -0.0991,3.49212 -0.22341,5.03492 -0.42097,5.25705 -0.46779,0.52464 -0.70337,-0.76184 -0.86694,-4.73487 -0.0859,-2.08421 -0.19653,-3.90808 -0.24627,-4.05304 -0.0494,-0.14506 -0.36017,0.0838 -0.69041,0.50852 -0.39908,0.5133 -0.65116,1.34337 -0.75194,2.4759 -0.0835,0.93698 -0.28759,1.78014 -0.4532,1.87361 -0.23503,0.13179 -0.33089,-0.59197 -0.43445,-3.26623 -0.12833,-3.31413 -0.15241,-3.43604 -0.6905,-3.43604 -0.49476,0 -0.59027,0.30335 -0.84839,2.69886 -0.16005,1.48444 -0.34494,3.72154 -0.4108,4.97166 -0.23784,4.50631 -0.33611,5.39764 -0.59468,5.39764 -0.14439,0 -0.30604,-0.44758 -0.35857,-0.99434 z"
         id="path4045-2-6-6"
         inkscape:export-filename="/home/dario/Work/proj_glove/adaptation/article/figures/oh_2019_c.png"
         inkscape:export-xdpi="600"
         inkscape:export-ydpi="600" />
      <path
         style="fill:#1f77b4;fill-opacity:1;stroke:#1f77b4;stroke-width:0.831158;stroke-linecap:butt;stroke-linejoin:round;stroke-miterlimit:4;stroke-dasharray:none;stroke-opacity:1"
         d="m 255.10739,243.74174 c -0.26507,-4.84585 -0.32065,-5.33915 -0.60111,-5.33915 -0.15353,0 -0.27948,-0.16847 -0.27948,-0.37483 0,-0.20636 -0.0872,-0.37486 -0.19429,-0.37486 -0.1072,0 -0.19432,0.22697 -0.19432,0.50397 0,0.27698 -0.16952,0.80044 -0.37701,1.16291 -0.2075,0.36245 -0.43403,1.15915 -0.50356,1.77051 -0.0887,0.77956 -0.2127,1.04781 -0.415,0.89788 -0.15874,-0.11788 -0.37503,-0.21363 -0.48059,-0.21363 -0.10592,0 -0.0547,-0.26487 0.11312,-0.5888 0.16794,-0.32387 0.30507,-0.97211 0.30507,-1.44066 0,-0.46852 0.17511,-1.15835 0.3898,-1.53291 0.21429,-0.3744 0.49022,-1.32811 0.61292,-2.1188 0.2123,-1.36895 0.58772,-1.8538 0.83561,-1.07943 0.0628,0.19697 0.25186,0.25666 0.41916,0.13272 0.39101,-0.29 0.6466,0.50194 0.65039,2.01592 0.003,1.71875 0.31545,1.85038 1.00477,0.42526 0.33184,-0.68538 0.65669,-1.26078 0.72238,-1.27857 0.0656,-0.018 0.27826,-0.16636 0.47202,-0.33076 0.43695,-0.36995 0.57768,-0.0645 0.90928,1.97427 0.14433,0.88615 0.32704,1.6888 0.4066,1.78369 0.16273,0.19425 0.75717,-1.92694 0.75717,-2.70302 0,-0.27757 0.15593,-0.50448 0.34624,-0.50448 0.44922,0 1.01211,1.85547 1.01211,3.33622 0,0.63795 0.0876,1.15985 0.19431,1.15985 0.10719,0 0.19431,-0.49478 0.19431,-1.09957 0,-1.5948 0.32785,-3.04293 0.63701,-2.81394 0.17512,0.1297 0.32105,-0.27393 0.44283,-1.22477 0.13231,-1.03288 0.29625,-1.44999 0.603,-1.53443 0.31984,-0.0882 0.44866,-0.44927 0.53414,-1.49872 0.15952,-1.95523 0.4956,-13.53621 0.49789,-17.14135 0.003,-3.51832 0.29864,-4.78235 0.94363,-4.02268 0.36703,0.43239 0.38861,0.31343 0.51218,-2.81005 0.15674,-3.96804 0.20271,-4.3067 0.76257,-5.6053 0.36182,-0.83993 0.46766,-1.66933 0.57699,-4.52698 0.17074,-4.46665 0.30026,-5.68099 0.60596,-5.68099 0.33905,0 0.46159,0.76374 0.60669,3.77826 0.1399,2.9056 0.35781,3.33621 0.554,1.09455 0.14913,-1.70611 0.37782,-2.13923 0.78493,-1.48705 0.15551,0.24908 0.29345,0.34772 0.30663,0.21939 0.0159,-0.12818 0.0399,-0.35963 0.0592,-0.51424 0.0159,-0.15424 0.10311,-1.58768 0.18631,-3.18478 0.15473,-2.96836 0.43964,-3.69397 0.88194,-2.24805 0.18272,0.59677 0.21151,0.57856 0.32545,-0.20273 0.20231,-1.38948 0.55577,-0.7225 0.61974,1.16863 0.032,0.96278 0.14433,1.75046 0.24869,1.75046 0.23268,0 0.30785,-0.439 0.46581,-2.71639 0.12991,-1.87494 0.62084,-2.49824 0.81841,-1.03934 0.082,0.60831 0.16831,0.66985 0.48289,0.34519 0.30225,-0.31231 0.43911,-0.25122 0.65161,0.28999 0.14795,0.37706 0.27187,0.98039 0.27507,1.341 0.008,0.70827 0.39422,0.93466 0.39422,0.23031 0,-0.23425 0.19631,-0.80819 0.43662,-1.27606 0.2399,-0.46792 0.54922,-1.11948 0.68689,-1.44801 0.13752,-0.32821 0.45377,-0.59732 0.70263,-0.59732 0.40892,0 0.46509,-0.21575 0.58415,-2.24805 0.1055,-1.80046 0.1999,-2.24806 0.47354,-2.24806 0.37621,0 0.69586,1.94835 0.92228,5.62016 0.14553,2.35842 0.39021,3.48152 0.71346,3.27339 0.12313,-0.0791 0.27226,-0.53724 0.33103,-1.01767 0.0584,-0.48034 0.27946,-1.05799 0.49053,-1.28359 0.2111,-0.22546 0.42387,-0.45964 0.47303,-0.52022 0.0492,-0.0606 0.23388,-1.49365 0.41075,-3.18477 0.23868,-2.28149 0.39501,-3.04991 0.60668,-2.97863 0.28666,0.0963 0.73677,-1.3463 0.73677,-2.36175 0,-0.2997 0.13117,-0.5444 0.29105,-0.5444 0.28186,0 0.33545,0.439 0.38782,3.16024 0.0279,1.43236 0.43903,1.69178 0.52003,0.32785 0.0492,-0.83291 0.17394,-1.0773 0.59616,-1.17113 0.46115,-0.10239 0.53363,0.0151 0.53363,0.85618 0,0.53609 0.14273,1.39571 0.31745,1.91027 0.29785,0.8777 0.33944,0.89719 0.67201,0.31592 0.51458,-0.89919 0.89348,-0.42219 1.04566,1.31677 0.13511,1.54724 0.37102,2.19399 0.5714,1.56803 0.0608,-0.19 0.28507,-0.25727 0.49856,-0.14969 0.30666,0.15514 0.38862,0.007 0.39102,-0.69085 0.003,-1.22857 0.28825,-1.97545 0.64953,-1.70775 0.22749,0.16847 0.33505,-0.0981 0.42928,-1.0694 0.14233,-1.46676 0.55485,-1.71514 0.74908,-0.45128 l 0.12948,0.84298 0.17791,-0.84298 c 0.098,-0.4637 0.25188,-0.84304 0.34225,-0.84304 0.26067,0 0.77422,2.36051 0.91891,4.22317 0.0911,1.17224 0.23869,1.75769 0.47426,1.87651 0.36862,0.18606 0.429,2.09878 0.68984,21.81381 0.10351,7.82295 0.40603,18.39735 0.59159,20.67588 0.14232,1.74555 0.62222,1.71046 1.69528,-0.12394 0.98444,-1.68265 1.49396,-1.78844 1.49396,-0.31011 0,1.28745 0.1983,2.05127 0.53302,2.05127 0.16393,0 0.40677,0.28849 0.54038,0.64147 0.20431,0.54019 0.29186,0.56321 0.55259,0.14577 0.43919,-0.70366 0.83865,-0.27759 0.9904,1.05687 0.15594,1.36915 0.40889,1.74769 0.77569,1.15987 0.1951,-0.31269 0.3774,-0.32209 0.65795,-0.0324 0.56126,0.57991 0.57101,0.56232 0.7145,-1.28541 0.17353,-2.23437 0.59757,-2.21273 0.91053,0.0466 0.28387,2.05069 0.65002,2.46017 1.12111,1.25434 0.32984,-0.84483 0.36102,-0.85379 0.84159,-0.24547 0.27467,0.34741 0.7225,0.63128 0.99581,0.63128 0.39662,0 0.52022,-0.22667 0.61323,-1.12406 0.16912,-1.63305 0.70783,-1.45524 1.13518,0.37481 0.37303,1.59703 0.61779,1.86909 0.81031,0.90067 0.0848,-0.42617 0.27266,-0.53863 0.65423,-0.39121 0.4605,0.17787 0.5525,0.0649 0.65798,-0.80697 0.35183,-2.90822 0.7701,-4.94781 1.01506,-4.94781 0.30066,0 0.36583,0.28425 0.54659,2.37643 0.11072,1.28358 0.17392,1.41572 0.5812,1.21835 0.27827,-0.13485 0.49513,-0.0399 0.5547,0.24607 0.0536,0.25697 0.10593,-0.29122 0.11637,-1.21835 0.008,-0.92731 0.0664,-4.38369 0.12396,-7.68091 0.058,-3.29714 0.17793,-10.80006 0.26629,-16.67315 0.0892,-5.94459 0.25469,-11.17661 0.37302,-11.80234 0.11678,-0.61824 0.33984,-3.62991 0.49608,-6.69249 0.15593,-3.06267 0.32945,-5.65668 0.38542,-5.76447 0.0556,-0.10729 0.29945,-0.21546 0.5417,-0.23878 0.27586,-0.0243 0.5357,-0.4275 0.69596,-1.07346 0.14076,-0.56667 0.39419,-1.03037 0.56328,-1.03037 0.16912,0 0.41381,-0.27999 0.54354,-0.62294 0.40769,-1.0765 0.89041,-0.34736 0.84107,1.27058 -0.024,0.77719 0.0281,2.72948 0.10959,4.33848 0.14116,2.70523 0.18393,2.91668 0.57007,2.81006 0.33823,-0.0937 0.44254,-0.45753 0.55017,-1.9185 0.18072,-2.45098 0.62151,-3.70317 1.20419,-3.42081 0.43412,0.21001 0.45414,0.11179 0.62474,-3.08418 0.13879,-2.60104 0.24429,-3.32633 0.49696,-3.41828 0.27427,-0.1 0.33784,0.41461 0.43887,3.55685 0.2331,7.23205 0.40776,10.25363 0.59883,10.33508 0.1072,0.0457 0.2499,-0.80151 0.31827,-1.88205 0.24669,-3.8972 0.54513,-4.66475 1.27054,-3.26409 0.16472,0.3181 0.39861,0.51503 0.51972,0.43721 0.24787,-0.15969 0.55122,-3.50002 0.40257,-4.43734 -0.10113,-0.63615 0.3942,-1.24156 0.70834,-0.86648 0.0972,0.11605 0.17631,0.86138 0.17631,1.65665 0,3.44483 0.54394,3.53421 0.62182,0.10208 0.0512,-2.24234 0.10156,-2.52907 0.44548,-2.52907 0.31224,0 0.40128,0.29304 0.45522,1.49877 l 0.0671,1.49862 0.22388,-1.31131 c 0.17633,-1.03371 0.32665,-1.31137 0.70915,-1.31137 0.45103,0 0.48082,0.11212 0.42352,1.59239 -0.0628,1.62985 0.0863,1.95193 0.52105,1.124 0.19709,-0.37522 0.30063,-0.3253 0.5219,0.25362 0.33225,0.86962 0.34823,0.84417 0.83679,-1.35698 0.32466,-1.46188 0.45428,-1.70967 0.80282,-1.53367 0.32465,0.16363 0.39062,0.40404 0.30067,1.09557 -0.0643,0.49719 -0.0281,0.88574 0.0824,0.88574 0.10916,0 0.19792,-0.31917 0.19792,-0.70922 0,-0.71173 0.44301,-1.30797 0.66023,-0.88855 0.0636,0.12333 0.11594,0.78237 0.11594,1.46489 0,1.20154 0.0159,1.22672 0.50636,0.79535 0.63958,-0.56263 0.94654,0.12244 1.13358,2.53045 0.13358,1.72081 0.39782,2.38927 0.70783,1.79078 0.0987,-0.19 0.21908,-1.92348 0.26747,-3.85101 0.0484,-1.92745 0.18431,-3.6874 0.30187,-3.91097 0.30863,-0.58682 0.79081,0.80119 0.65123,1.87515 -0.1767,1.36024 0.0863,2.47199 0.52252,2.20491 0.2079,-0.12789 0.37222,-0.0524 0.37222,0.17181 0,0.72573 0.37143,0.41643 0.62579,-0.52155 0.16393,-0.60369 0.33584,-0.81932 0.49828,-0.62535 0.19071,0.22726 0.31145,4.88498 0.52142,20.1238 0.15035,10.90511 0.38104,21.5456 0.51253,23.64541 l 0.23948,3.81781 0.54785,-0.21153 c 0.45816,-0.17726 0.54792,-0.0864 0.54792,0.55401 0,1.41137 0.22027,1.95085 0.79692,1.95085 0.30868,0 0.56145,-0.1685 0.56145,-0.37486 0,-0.50401 0.64534,-0.47748 0.9121,0.036 0.15512,0.2997 0.32465,0.19727 0.62099,-0.37481 0.2239,-0.4328 0.53683,-0.7868 0.69487,-0.7868 0.28506,0 0.35823,0.38715 0.58352,3.09106 0.13752,1.65251 0.42735,1.83124 0.6076,0.37483 0.07,-0.5667 0.21188,-1.23758 0.31505,-1.49085 0.30904,-0.75779 0.86419,0.11088 1.00639,1.57435 0.0708,0.72684 0.20231,1.32158 0.29306,1.32158 0.20111,0 0.40013,-0.93848 0.40013,-1.88545 0,-0.385 0.1203,-0.83498 0.26789,-0.99977 0.27425,-0.30648 0.33222,-2.89698 0.60981,-27.27644 0.18191,-16.00619 0.50329,-22.85535 1.07126,-22.85535 0.21268,0 0.32624,0.81305 0.45837,3.2903 0.11115,2.08943 0.25349,3.24065 0.38822,3.1542 0.11679,-0.0748 0.34344,-1.52179 0.5036,-3.21535 0.16033,-1.69352 0.35664,-3.07076 0.43659,-3.06052 0.08,0.006 0.2327,0.018 0.33944,0.018 0.10719,0 0.19432,0.58019 0.19432,1.28927 0,1.59097 0.26864,1.97688 0.648,0.93101 0.38741,-1.06738 0.95366,-0.77987 1.1695,0.59345 0.33622,2.14054 0.38861,2.2776 0.46388,1.21499 0.0504,-0.70781 0.21631,-1.09899 0.53238,-1.25214 0.32706,-0.15849 0.53305,-0.67034 0.71491,-1.77736 0.39661,-2.41518 0.85448,-2.2589 1.12594,0.38411 0.30786,2.9969 0.39061,3.48721 0.58917,3.48721 0.0948,0 0.22748,-0.63222 0.29506,-1.40499 0.22829,-2.61476 0.28386,-2.79727 0.77447,-2.55945 0.25027,0.12121 0.50911,0.0512 0.57536,-0.15577 0.2215,-0.6923 0.45367,-0.38633 0.56714,0.74798 0.0615,0.61823 0.16632,1.6582 0.23229,2.31095 0.14873,1.47389 0.36061,0.84448 0.54433,-1.61606 0.0963,-1.28722 0.22831,-1.79031 0.50928,-1.93196 0.28027,-0.1409 0.37983,-0.51917 0.38223,-1.44426 9.9e-4,-0.68903 0.0863,-1.50569 0.1887,-1.81481 0.26466,-0.80055 0.8572,-0.0181 0.87251,1.15572 0.032,2.35192 0.36181,6.3015 0.51311,6.12103 0.0931,-0.11089 0.16951,-0.68966 0.16951,-1.28555 0,-0.59591 0.0948,-1.93343 0.20951,-2.97222 0.18312,-1.6458 0.25468,-1.84271 0.55621,-1.53077 0.30706,0.31735 0.34985,1.00718 0.37702,6.08542 0.0528,9.89989 0.39462,34.44116 0.52475,37.66879 0.12314,3.05139 0.36424,3.97829 0.56017,2.15438 0.0552,-0.51514 0.14594,-1.3582 0.20152,-1.87338 0.20589,-1.91642 0.61445,-0.99301 0.93791,2.12114 0.17471,1.68182 0.36782,3.15464 0.42899,3.27281 0.0612,0.11819 0.26908,-0.18787 0.46138,-0.68088 0.59669,-1.52723 0.86524,-0.93662 1.4889,3.27469 0.10591,0.71513 0.87322,0.18152 1.30418,-0.90694 0.54121,-1.36705 0.99909,-1.15084 1.27075,0.6001 0.27627,1.77793 0.68227,1.93587 0.96413,0.37481 0.11157,-0.61821 0.33745,-1.12405 0.50153,-1.12405 0.16433,0 0.42588,-0.58836 0.58153,-1.30755 0.35182,-1.62615 0.79606,-1.42763 0.97721,0.43681 0.0708,0.72898 0.21031,1.74089 0.31066,2.24864 l 0.18189,0.92324 0.49492,-0.7516 0.49491,-0.7517 0.67024,0.76358 0.67028,0.76357 0.35063,-0.83624 0.35063,-0.83622 0.93404,0.79776 c 1.14574,0.9785 1.07881,0.98525 1.07881,-0.10819 0,-2.23771 0.65541,-2.87219 0.99931,-0.96732 0.22511,1.244 0.45,1.434 0.62947,0.53088 0.16434,-0.82744 0.5703,-0.46857 0.70214,0.62096 0.0837,0.69305 0.25789,0.9368 0.73305,1.02627 l 0.62308,0.11757 0.003,-7.23627 c 0.001,-3.97996 0.0896,-14.46386 0.19591,-23.29754 0.15793,-13.11309 0.24828,-16.28432 0.49205,-17.27649 0.16431,-0.66833 0.34423,-2.54548 0.39941,-4.17137 0.18111,-5.31879 0.28905,-6.51562 0.58564,-6.51562 0.15272,0 0.32104,0.2197 0.37462,0.48819 0.0983,0.495 0.22469,4.16539 0.25987,7.54865 0.0279,2.49214 0.35464,1.79511 0.52374,-1.11035 0.14915,-2.56541 0.35586,-3.25213 0.9321,-3.09989 0.35023,0.0927 0.43211,-0.16636 0.58787,-1.85953 0.30985,-3.36646 1.10547,-2.35903 1.38829,1.75748 0.12201,1.77263 0.46836,2.32724 0.46836,0.74948 0,-0.53137 0.13425,-0.72728 0.49903,-0.72728 0.39861,0 0.49188,0.16939 0.46362,0.843 -0.0159,0.46373 -0.024,1.26455 -0.008,1.77979 0.0279,0.88958 0.0427,0.87546 0.30306,-0.28092 0.30706,-1.36412 0.60807,-1.53334 0.99936,-0.56199 0.25109,0.62321 0.27469,0.62221 0.47369,-0.0212 0.26949,-0.86969 0.76037,-0.19122 0.76037,1.05114 0,1.10575 0.38341,1.67273 0.87327,1.29143 0.66507,-0.51759 0.87618,-0.38853 1.08324,0.66297 0.25787,1.30922 0.49012,0.6634 0.67009,-1.86295 0.1007,-1.41191 0.2011,-1.79147 0.44942,-1.70015 0.17591,0.0646 0.34783,0.49528 0.38182,0.95685 0.13314,1.8037 0.51044,0.78649 0.65989,-1.77966 0.0588,-1.003 0.67835,-1.52457 0.81664,-0.68723 0.0447,0.27302 0.13752,1.29689 0.20511,2.27574 0.16872,2.43688 0.48773,2.24551 0.48773,-0.29273 0,-2.14578 0.34743,-3.0265 0.82805,-2.09871 0.34662,0.66881 0.48993,0.50882 0.62733,-0.69961 0.16432,-1.44403 0.8733,-1.61403 0.8733,-0.20938 0,0.50302 0.0904,1.02308 0.2019,1.15556 0.11114,0.13242 0.14914,0.56485 0.0836,0.96067 -0.0815,0.49494 -0.008,0.79196 0.23509,0.95136 0.1943,0.12727 0.54892,0.67458 0.78862,1.21577 l 0.43563,0.98425 0.008,-1.8734 c 0.003,-1.03038 0.12313,-2.16847 0.26508,-2.52907 0.27707,-0.7043 0.89418,-0.89833 0.89418,-0.28091 0,0.20637 0.0872,0.37481 0.19389,0.37481 0.10721,0 0.19432,-0.51818 0.19432,-1.15151 0,-0.88478 0.0767,-1.12294 0.33184,-1.02809 0.33024,0.12243 0.54987,1.37279 0.71201,4.05297 0.14833,2.45429 0.35745,4.1215 0.51626,4.1215 0.0867,0 0.21468,-0.96953 0.28386,-2.15446 0.0691,-1.18489 0.15951,-2.36514 0.2019,-2.6227 0.11396,-0.69431 0.66384,-0.56753 0.81252,0.18727 0.0708,0.36072 0.33026,0.96299 0.57609,1.3386 0.24589,0.37567 0.44695,0.92354 0.44695,1.21773 0,0.71911 -0.13752,0.67507 -0.73726,-0.23607 l -0.50743,-0.77061 -0.14672,0.76708 c -0.0808,0.42178 -0.2043,1.60148 -0.27467,2.62129 -0.20511,2.98959 -1.09795,2.93034 -1.34092,-0.0888 -0.20671,-2.57235 -0.30747,-3.06347 -0.50436,-2.46329 -0.0935,0.28484 -0.17272,1.02365 -0.17592,1.64183 -0.008,1.24973 -0.29308,2.36915 -0.50264,1.96449 -0.0743,-0.14394 -0.17792,-1.11218 -0.22989,-2.15139 -0.0516,-1.03925 -0.16752,-1.97714 -0.25748,-2.08426 -0.2163,-0.25849 -0.32145,0.84007 -0.46689,4.89391 -0.11241,3.12584 -0.30866,4.39745 -0.59428,3.84609 -0.0643,-0.12395 -0.21271,-2.01606 -0.33065,-4.20461 l -0.21349,-3.97913 -0.53483,0.22697 c -0.49052,0.20787 -0.54546,0.11636 -0.66464,-1.10962 -0.12877,-1.32553 -0.34106,-1.68252 -0.57173,-0.96174 -0.066,0.20636 -0.28387,0.37485 -0.48473,0.37485 -0.28906,0 -0.38942,0.36951 -0.48398,1.77975 -0.30066,4.49129 -0.32144,4.63398 -0.65112,4.51224 -0.22629,-0.0834 -0.37861,-0.77028 -0.51784,-2.33297 -0.2139,-2.40363 -0.47337,-2.94426 -0.77687,-1.61869 -0.14433,0.62939 -0.32863,0.81697 -0.72549,0.73666 -0.41544,-0.0839 -0.53219,0.0505 -0.53219,0.61409 0,0.39697 -0.16832,1.12009 -0.37422,1.6066 -0.30785,0.72755 -0.41984,0.79808 -0.63074,0.39741 -0.14113,-0.26789 -0.26708,-0.64725 -0.28067,-0.84307 -0.0159,-0.19545 -0.036,-0.52453 -0.0484,-0.73064 -0.0159,-0.20636 -0.23749,-0.37478 -0.49791,-0.37478 -0.26068,0 -0.52771,0.16848 -0.59365,0.37478 -0.2043,0.63816 -0.71038,0.41291 -0.8155,-0.36283 -0.0643,-0.47457 -0.24308,-0.70846 -0.5015,-0.65571 -0.28466,0.0581 -0.43636,-0.18969 -0.52092,-0.85087 -0.19591,-1.53382 -0.40932,-0.29455 -0.59828,3.47547 -0.0952,1.89878 -0.17511,3.74738 -0.17831,4.10798 -0.003,0.36075 -0.1251,0.65567 -0.27107,0.65567 -0.29465,0 -0.50379,-1.84269 -0.51056,-4.49611 -0.008,-2.2922 -0.2083,-4.49614 -0.41345,-4.49614 -0.0931,0 -0.16871,0.34264 -0.16871,0.76109 0,0.71301 -0.48414,1.42643 -0.69364,1.02205 -0.0519,-0.10062 -0.14792,-1.04871 -0.21268,-2.10701 -0.17473,-2.84537 -0.64615,-2.34734 -0.64615,0.68231 0,4.09676 -0.65303,5.17852 -0.87701,1.45284 -0.15793,-2.63002 -0.36905,-2.32955 -0.56977,0.81148 -0.17872,2.79599 -0.65542,5.99486 -0.89342,5.99486 -0.27426,0 -0.35063,-0.59176 -0.43689,-3.37211 -0.0412,-1.33953 -0.15151,-2.51972 -0.24386,-2.62275 -0.34424,-0.38238 -0.61863,2.96359 -0.66092,8.05555 -0.024,2.88505 -0.0695,6.00424 -0.10198,6.93159 -0.032,0.92736 -0.11946,9.27326 -0.1935,18.54655 -0.10959,13.61445 -0.18871,17.0228 -0.41221,17.70358 -0.30586,0.9314 -0.84992,1.13861 -0.84992,0.3235 0,-0.64651 -1.16767,-1.03709 -1.50999,-0.50507 -0.31227,0.48521 -0.80347,-0.6511 -0.8125,-1.87921 -0.003,-0.46363 -0.0824,-0.84303 -0.17593,-0.84303 -0.0939,0 -0.1719,0.37925 -0.17471,0.84303 -0.003,0.46369 -0.10719,1.34688 -0.23068,1.96273 l -0.22629,1.11962 -0.37103,-0.93229 c -0.20389,-0.51281 -0.37304,-1.11693 -0.37543,-1.3426 -0.003,-0.52815 -0.64577,-1.65049 -0.94135,-1.65049 -0.1251,0 -0.22748,0.30507 -0.22748,0.67777 0,0.37257 -0.11637,0.9842 -0.25788,1.35877 -0.2135,0.5644 -0.33024,0.60656 -0.67924,0.24545 -0.23149,-0.23939 -0.42128,-0.62152 -0.42128,-0.84911 0,-0.4257 -0.56545,-1.40001 -0.82472,-1.42126 -0.08,-0.007 -0.14553,0.23484 -0.14553,0.53694 0,0.68102 -0.71019,1.4537 -1.0825,1.17781 -0.15151,-0.11246 -0.27626,-0.59903 -0.27626,-1.0813 0,-0.48221 -0.11635,-1.18425 -0.25907,-1.56003 -0.24748,-0.65275 -0.28188,-0.65406 -0.7762,-0.0243 -0.28465,0.36039 -0.51751,0.86754 -0.51751,1.1277 0,1.76695 -1.50808,1.36444 -1.83124,-0.48883 l -0.20911,-1.20133 -0.76778,1.705 c -0.90946,2.01951 -1.52181,2.15679 -1.61796,0.36242 -0.094,-1.75551 -0.42385,-3.93412 -0.5953,-3.93412 -0.0856,0 -0.25507,0.42131 -0.3766,0.93673 -0.37702,1.59681 -0.76613,1.13122 -1.17484,-1.40509 -0.39581,-2.45707 -0.43731,-2.41861 -0.80532,0.74936 -0.12552,1.0819 -0.33102,1.96707 -0.45601,1.96707 -0.62126,0 -1.03542,-10.04604 -1.21046,-29.36234 -0.0712,-7.81499 -0.19231,-13.22427 -0.28985,-12.9264 -0.0928,0.28182 -0.16953,0.98815 -0.17072,1.56997 -0.003,0.80329 -0.0848,1.02799 -0.34264,0.93383 -0.28147,-0.10228 -0.38583,-0.87919 -0.61007,-4.52355 -0.14874,-2.41981 -0.34504,-4.39966 -0.43659,-4.39966 -0.0916,0 -0.16633,0.34124 -0.16633,0.75861 0,0.46445 -0.1879,0.89676 -0.48512,1.11479 -0.38023,0.27938 -0.48581,0.62178 -0.48813,1.58307 -0.008,2.77561 -0.91826,2.98751 -1.25809,0.29244 -0.1779,-1.41009 -0.28707,-1.68103 -0.67903,-1.68431 -0.33424,-0.002 -0.49864,0.25272 -0.57781,0.89727 -0.13357,1.08834 -0.61275,1.73907 -1.04478,1.41898 -0.17392,-0.12879 -0.42231,-0.99882 -0.55179,-1.93297 -0.12947,-0.93424 -0.28266,-1.69326 -0.34063,-1.68675 -0.058,0.003 -0.34663,0.42217 -0.64193,0.92366 -0.45875,0.77949 -0.57197,1.38919 -0.77993,4.19953 -0.18111,2.45034 -0.32142,3.31678 -0.55047,3.40193 -0.24868,0.0926 -0.33225,-0.40844 -0.4386,-2.61902 -0.28545,-5.93629 -0.51715,-6.8902 -0.93724,-3.85723 -0.16671,1.20352 -0.33303,1.68608 -0.58148,1.68608 -0.21829,0 -0.34783,-0.27878 -0.34783,-0.74934 0,-0.41201 -0.0815,-0.74937 -0.18072,-0.74937 -0.1983,0 -0.30385,0.58493 -0.49005,2.71643 -0.0939,1.07062 -0.2143,1.40504 -0.50692,1.40504 -0.27227,0 -0.41834,-0.33002 -0.50144,-1.13189 -0.12553,-1.20795 -0.35983,-1.71785 -0.53633,-1.1659 -0.06,0.18546 -0.19311,6.72171 -0.29746,14.52493 -0.10438,7.80319 -0.2467,18.46089 -0.31586,23.6837 l -0.12638,9.49599 -0.45298,-0.16726 c -0.34704,-0.12787 -0.46663,0.018 -0.51121,0.6203 -0.0403,0.54412 -0.1987,0.78749 -0.51289,0.78749 -0.35065,0 -0.51129,-0.3181 -0.70244,-1.39149 -0.13638,-0.76524 -0.20111,-1.48185 -0.14353,-1.59239 0.0571,-0.11066 0.0159,-0.2009 -0.0952,-0.2009 -0.10917,0 -0.27707,0.7143 -0.37223,1.58735 -0.10282,0.94241 -0.29546,1.63273 -0.47358,1.69899 -0.40567,0.15061 -0.96057,-2.17496 -0.96057,-4.02632 0,-1.61992 -0.25788,-2.18346 -0.68519,-1.49853 -0.16194,0.26 -0.49238,0.34591 -0.78388,0.20453 -0.40772,-0.19786 -0.5244,-0.0921 -0.61187,0.55383 -0.0804,0.59484 -0.22189,0.75584 -0.5563,0.63251 -0.26427,-0.0971 -0.48956,0.0443 -0.54889,0.3412 -0.2235,1.12407 -0.6529,0.48094 -0.7811,-1.16938 -0.1024,-1.31497 -0.24108,-1.77893 -0.64591,-2.15442 -0.4332,-0.40178 -0.56844,-0.92778 -0.84602,-3.28855 -0.44164,-3.75702 -0.52851,-6.40781 -0.6509,-19.85799 -0.0571,-6.28522 -0.15673,-13.96697 -0.22029,-17.0705 l -0.11679,-5.64278 -0.56032,0.15909 c -0.41601,0.11788 -0.56119,0.36509 -0.56343,0.95934 -0.003,1.07739 -0.29225,1.89224 -0.5575,1.57574 -0.11875,-0.14181 -0.21549,-0.53416 -0.21549,-0.8723 0,-1.12134 -0.35823,0.0469 -0.42285,1.37952 -0.0772,1.58198 -0.47939,1.92203 -0.73555,0.62136 -0.10523,-0.53194 -0.32185,-0.9671 -0.48262,-0.9671 -0.16073,0 -0.33744,-0.42129 -0.39301,-0.93674 -0.0552,-0.51517 -0.14595,-1.35823 -0.20112,-1.87336 -0.15272,-1.41669 -0.41732,-1.12379 -0.53661,0.59293 -0.13231,1.90385 -0.28906,2.22876 -0.63454,1.31604 -0.28386,-0.74887 -0.37742,-0.55518 -0.51184,1.05737 -0.032,0.39516 -0.15711,0.78096 -0.27626,0.85749 -0.13752,0.0885 -0.28987,-0.97124 -0.41729,-2.89789 -0.11072,-1.67039 -0.25108,-3.1339 -0.31224,-3.25234 -0.0612,-0.11816 -0.26668,0.15425 -0.45619,0.60675 -0.18952,0.45199 -0.51928,0.87117 -0.73258,0.93135 -0.42514,0.12 -0.61785,1.25336 -0.65595,3.85726 -0.0159,0.86364 -0.0928,1.65338 -0.17793,1.755 -0.37702,0.45002 -0.58474,-0.54282 -0.71553,-3.42105 -0.0772,-1.70127 -0.2139,-3.18102 -0.30425,-3.2883 -0.0896,-0.10729 -0.22271,0.82089 -0.29587,2.06279 -0.0948,1.61669 -0.21271,2.25799 -0.41648,2.25799 -0.15632,0 -0.32946,-0.33542 -0.38502,-0.74515 -0.12229,-0.90426 -0.44491,-0.61979 -0.44491,0.39255 0,1.21796 -0.5377,0.81126 -0.77687,-0.58765 -0.23228,-1.35914 -0.58154,-1.44926 -0.58154,-0.14998 0,1.09361 -0.55395,1.33461 -0.89663,0.38986 -0.51911,-1.43105 -1.04391,-0.81478 -1.04391,1.22602 0,1.44616 -0.60138,4.34488 -0.90142,4.34488 -0.41071,0 -0.84509,-2.30482 -0.84509,-4.48407 0,-1.96567 -0.31706,-2.62673 -0.42373,-0.88398 -0.032,0.55079 -0.16312,1.06598 -0.28747,1.14463 -0.23988,0.15183 -0.34422,-0.35168 -0.54198,-2.61444 -0.24589,-2.81268 -0.53291,-1.50915 -1.011,4.58978 -0.11312,1.4434 -0.24909,2.06079 -0.45255,2.06079 -0.16031,0 -0.31943,-0.38852 -0.35463,-0.86322 -0.036,-0.5 -0.26107,-1.00852 -0.53363,-1.20846 -0.40936,-0.3003 -0.47029,-0.58304 -0.47029,-2.18102 0,-2.61407 -0.20029,-4.20725 -0.56122,-4.46341 -0.1719,-0.12182 -0.36381,-0.36999 -0.42743,-0.55157 -0.0632,-0.18152 -0.4198,0.018 -0.7917,0.44032 l -0.67628,0.77043 -0.22788,4.97414 c -0.12512,2.73584 -0.30986,5.52384 -0.40952,6.1956 -0.10001,0.6718 -0.27269,7.07475 -0.38423,14.22877 -0.11115,7.15401 -0.24749,15.62065 -0.30147,18.81483 -0.054,3.19408 -0.0992,6.27179 -0.1,6.83925 -10e-4,0.9334 -0.0612,1.02275 -0.63187,0.9367 -0.5421,-0.0815 -0.63962,0.036 -0.69554,0.84159 -0.0832,1.19306 -0.35744,1.7703 -0.60979,1.28276 -0.17513,-0.3376 -0.35222,-2.88515 -0.38982,-5.59157 -0.0159,-1.07024 -0.0279,-1.0892 -0.30026,-0.39651 -0.15672,0.40006 -0.28745,1.24312 -0.29106,1.87341 -0.008,1.51795 -0.44738,2.60982 -0.9481,2.35705 -0.21431,-0.10819 -0.4911,0.04 -0.6148,0.32676 -0.38022,0.88496 -0.92364,0.59817 -1.2624,-0.66654 l -0.31865,-1.18983 -0.25906,1.18983 c -0.29867,1.37044 -0.56454,1.50667 -0.86004,0.44038 -0.11396,-0.41204 -0.36183,-0.74936 -0.55018,-0.74936 -0.18831,0 -0.4527,-0.21061 -0.58744,-0.46834 -0.1963,-0.37528 -0.28307,-0.33762 -0.43656,0.18727 -0.23627,0.80945 -0.91547,0.84601 -1.48209,0.0798 -0.40456,-0.54712 -0.43172,-0.52373 -0.54449,0.46833 -0.2011,1.76864 -0.2591,1.98088 -0.54111,1.98088 -0.15032,0 -0.32505,-0.46367 -0.38902,-1.0304 -0.2019,-1.79328 -0.38022,-2.06929 -0.99016,-1.53268 -0.4715,0.41462 -0.57033,0.38544 -0.80714,-0.24001 -0.14832,-0.39166 -0.26988,-1.10178 -0.26988,-1.57755 0,-0.87812 -0.27027,-1.16186 -0.48056,-0.50468 -0.11072,0.34591 -1.599,0.24576 -1.78875,-0.12092 -0.0504,-0.0979 -0.13992,-0.8701 -0.19911,-1.71642 -0.0588,-0.84634 -0.19631,-1.64569 -0.30584,-1.77632 -0.10989,-0.13061 -0.48867,0.37214 -0.84241,1.11779 -0.54393,1.14594 -0.75653,1.3433 -1.37575,1.27704 l -0.73236,-0.0784 -0.11721,-2.06077 c -0.0643,-1.13337 -0.21391,-3.66248 -0.33224,-5.62014 -0.11834,-1.95768 -0.31225,-9.96647 -0.43104,-17.79724 -0.16991,-11.20472 -0.27186,-14.29803 -0.47725,-14.52083 -0.15512,-0.16818 -0.31305,-1.30772 -0.38901,-2.81008 -0.0704,-1.38991 -0.17073,-2.82458 -0.22309,-3.18814 -0.14235,-0.98866 -0.45564,-0.39076 -0.45564,0.87055 0,1.24814 -0.44073,1.50668 -0.76063,0.44622 -0.18151,-0.60147 -0.19792,-0.60328 -0.20389,-0.0212 -0.008,0.86093 -0.35264,1.21049 -0.6786,0.68825 -0.21231,-0.34052 -0.28066,-0.25668 -0.33105,0.40667 -0.0915,1.20417 -0.51427,1.30481 -0.7367,0.17544 -0.11268,-0.57197 -0.34143,-0.96714 -0.5596,-0.96714 -0.44948,0 -0.78316,-0.72657 -0.97831,-2.13042 -0.12355,-0.88773 -0.24866,-1.0544 -0.79149,-1.0544 -0.53307,0 -0.69883,-0.20969 -0.95578,-1.20916 -0.17072,-0.66504 -0.36743,-1.21298 -0.43633,-1.2177 -0.0688,-0.003 -0.23629,1.43221 -0.37221,3.19295 -0.31545,4.09636 -0.68768,4.79508 -0.90298,1.69584 -0.0904,-1.29956 -0.15032,-1.464 -0.39261,-1.07542 -0.2307,0.36907 -0.33345,0.33364 -0.52919,-0.18302 -0.35062,-0.92533 -0.41369,-0.82902 -0.68535,1.04453 -0.17992,1.23906 -0.34183,1.68603 -0.61223,1.68603 -0.25348,0 -0.40396,0.34953 -0.48415,1.124 -0.10522,1.01331 -0.18913,1.12405 -0.85696,1.12405 -0.4073,0 -0.79444,-0.16817 -0.86032,-0.37392 -0.0656,-0.20577 -0.17111,-1.56003 -0.2339,-3.00954 -0.15592,-3.59093 -0.42754,-3.81181 -0.68242,-0.5548 -0.0704,0.90013 -0.73306,1.26752 -0.73306,0.40666 0,-0.85846 -0.16152,-0.73533 -0.82392,0.62825 -0.49554,1.01994 -0.62398,1.6893 -0.79144,4.12147 -0.16271,2.35982 -0.26306,2.90376 -0.53706,2.90376 -0.27827,0 -0.36101,-0.49274 -0.47386,-2.81549 -0.0752,-1.54851 -0.21349,-2.90731 -0.30785,-3.01956 -0.0939,-0.11245 -0.17072,-0.036 -0.17072,0.16819 0,0.20483 -0.0896,0.82712 -0.19909,1.38291 -0.18712,0.94915 -0.2203,0.9731 -0.55174,0.39429 -0.33344,-0.58233 -0.36942,-0.53339 -0.65865,0.8873 -0.31545,1.5502 -0.65361,1.92527 -0.84911,0.94158 -0.17632,-0.88637 -0.45831,-0.6557 -0.45831,0.3748 0,0.58282 -0.10987,0.93673 -0.29106,0.93673 -0.15993,0 -0.29104,-0.25302 -0.29104,-0.56202 0,-0.88885 -0.35466,-0.65348 -0.42313,0.28091 -0.0436,0.593 -0.2135,0.87695 -0.57347,0.95744 -0.50275,0.11246 -0.51351,0.17542 -0.6418,3.74678 -0.17311,4.81972 -0.29587,6.06772 -0.5958,6.06772 -0.24708,0 -0.28866,-0.47683 -0.59858,-6.83787 -0.068,-1.39099 -0.19031,-2.52905 -0.27149,-2.52905 -0.0815,0 -0.1867,1.03434 -0.23428,2.29842 -0.0543,1.45906 -0.1931,2.45103 -0.37983,2.71642 -0.59963,0.85352 -0.72376,2.13794 -0.94769,9.80597 -0.12596,4.31594 -0.29907,7.9927 -0.38464,8.17052 -0.32104,0.66868 -0.57784,-0.24575 -0.59654,-2.12511 -0.0127,-1.0697 -0.0832,-2.36649 -0.16112,-2.88163 l -0.14194,-0.93672 -0.11834,1.12405 c -0.0652,0.61823 -0.1763,4.20851 -0.24669,7.97842 -0.0708,3.7699 -0.22948,8.23794 -0.35383,9.92893 -0.19869,2.70669 -0.27627,3.08856 -0.64658,3.19107 -0.28545,0.0792 -0.46114,0.47056 -0.54622,1.21774 -0.0824,0.72479 -0.24546,1.10122 -0.47716,1.10122 -0.37063,0 -0.58747,0.70324 -0.58747,1.904 0,0.45333 -0.13428,0.7187 -0.36425,0.7187 -0.46352,0 -0.72014,-0.62018 -0.88952,-2.15007 -0.18712,-1.6893 -0.44732,-1.84737 -0.64618,-0.39254 -0.15353,1.1258 -0.2251,1.22044 -0.83204,1.10685 -0.84893,-0.15908 -0.93306,-0.33578 -1.10983,-2.33484 -0.16593,-1.87988 -0.69247,-2.47017 -0.91653,-1.02803 -0.0736,0.47543 -0.29746,1.11727 -0.497,1.42637 -0.25148,0.38943 -0.43105,1.45366 -0.58509,3.46575 -0.27507,3.58748 -0.67276,3.93944 -0.84731,0.74938 z"
         id="path3405-9-7-7"
         inkscape:export-filename="/home/dario/Work/proj_glove/adaptation/article/figures/oh_2019_a.png"
         inkscape:export-xdpi="600"
         inkscape:export-ydpi="600" />
    </g>
  </g>
</svg>
