<?xml version="1.0" encoding="UTF-8" standalone="no"?>
<!-- Created with Inkscape (http://www.inkscape.org/) -->

<svg
   width="45.490597mm"
   height="120.40382mm"
   viewBox="0 0 45.490596 120.40382"
   version="1.1"
   id="svg5"
   inkscape:version="1.1 (1:1.1+202105261517+ce6663b3b7)"
   sodipodi:docname="data_oh_2019_kim_2015.svg"
   xmlns:inkscape="http://www.inkscape.org/namespaces/inkscape"
   xmlns:sodipodi="http://sodipodi.sourceforge.net/DTD/sodipodi-0.dtd"
   xmlns="http://www.w3.org/2000/svg"
   xmlns:svg="http://www.w3.org/2000/svg">
  <sodipodi:namedview
     id="namedview7"
     pagecolor="#ffffff"
     bordercolor="#666666"
     borderopacity="1.0"
     inkscape:pageshadow="2"
     inkscape:pageopacity="0.0"
     inkscape:pagecheckerboard="0"
     inkscape:document-units="mm"
     showgrid="false"
     lock-margins="true"
     fit-margin-top="3.2"
     fit-margin-left="3.2"
     fit-margin-right="3.2"
     fit-margin-bottom="3.2"
     inkscape:zoom="0.763461"
     inkscape:cx="-294.71054"
     inkscape:cy="279.64755"
     inkscape:window-width="1920"
     inkscape:window-height="1023"
     inkscape:window-x="0"
     inkscape:window-y="0"
     inkscape:window-maximized="1"
     inkscape:current-layer="layer1" />
  <defs
     id="defs2">
    <clipPath
       clipPathUnits="userSpaceOnUse"
       id="clipPath948">
      <path
         d="M 36,713.99 H 556.044 V 292.592 H 36"
         id="path946" />
    </clipPath>
  </defs>
  <g
     inkscape:label="Layer 1"
     inkscape:groupmode="layer"
     id="layer1"
     transform="translate(-182.20202,-127.11574)">
    <g
       id="g948">
      <path
         style="fill:none;fill-rule:evenodd;stroke:#1f77b4;stroke-width:0.608626;stroke-linecap:butt;stroke-linejoin:miter;stroke-miterlimit:4;stroke-dasharray:none;stroke-opacity:1"
         d="m 185.49741,141.73006 0.35928,0.0685 0.34598,-0.20559 0.19959,0.31978 0.3992,-0.0914 0.13307,3.38059 0.18629,1.73599 0.19961,1.89586 0.46573,1.2563 0.0798,-8.29158 0.25282,-3.92881 0.47904,-3.3806 0.3992,-1.2563 v 14.20764 l 0.0798,0.68525 0.26613,1.59892 0.15968,0.73096 0.38589,0.79946 0.23952,0.20558 0.0798,-16.17204 0.13306,-1.05073 0.0133,-0.434 0.54556,-1.02788 0.37259,-0.18273 0.0266,0.86799 0.0798,7.97181 0.21291,0.15989 c 0,0 0.0266,-0.15989 0.0665,-0.0457 0.04,0.11422 0.13307,0.50253 0.13307,0.50253 l 0.23951,-0.41115 0.31937,0.27409 0.10645,-0.50252 0.10645,-7.6977 0.13307,-0.61675 0.34598,-0.63957 0.0665,-0.36545 0.25283,-0.0684 0.2129,0.0914 0.0665,0.77663 0.10646,15.94362 0.25283,1.32483 0.17298,0.82231 0.33267,0.3883 0.31936,0.31979 0.0665,-18.3877 0.0266,-0.61672 0.37258,-0.70811 0.49234,-0.15988 0.1863,0.38831 0.15968,18.41053 0.33267,1.16495 0.45242,0.50252 0.30605,-0.1599 0.0133,-10.0961 0.35928,-0.34262 0.85162,0.0228 0.51896,0.25127 0.46573,-0.0685 0.0665,-0.45685 0.0665,-7.81193 0.45241,-1.14209 0.65204,-0.77662 0.15967,18.68464 0.23287,0.76521 0.31936,0.47967 0.50565,0.13705 0.0532,-19.17002 0.1863,-0.63958 0.37258,-0.31978 0.31936,-0.11422 0.17299,0.41116 0.0532,0.22841 0.0931,19.21002 0.30606,0.63957 0.29274,0.25126 0.45243,0.20557 0.0931,-10.46156 0.46574,-0.36548 0.38588,-0.20556 0.33268,0.61672 0.0266,9.75348 0.37258,0.54819 0.25284,0.0914 0.23951,-0.0684 0.13307,-0.1599 0.04,-0.25126 0.0798,-19.34706 0.34598,-0.68526 0.33265,-0.434 0.37259,0.38831 0.173,19.87243 0.27943,0.5482 0.34597,0.11421 0.25283,0.25126 0.18629,-0.57105 0.0765,-20.23217 0.62541,-0.73094 0.50566,0.36546 0.0266,8.31445 0.10646,1.96441 0.62541,0.13704 0.4125,-0.29694 0.3992,0.38831 0.71857,-0.0914 0.14636,9.66209 0.45243,0.63958 0.43912,0.38831 0.2129,-0.34263 0.0133,-19.91239 0.31936,-0.75378 0.29274,-0.22842 0.46573,-0.0228 0.14638,20.64904 0.26612,0.22842 0.42582,0.29695 0.35928,-0.18274 0.0532,-20.67189 0.33267,-0.50251 0.53226,0.0914 0.22622,0.63958 0.11976,9.91338 0.29274,-0.13705 0.27944,0.15989 0.17299,-0.25126 0.29274,0.20558 0.10645,-10.30169 0.37259,-0.29695 0.71856,0.38832 0.10418,20.09298 0.18348,0.32303 0.39048,0.3634 0.29168,-0.0646 0.22112,-0.19382 0.0865,-20.55526 0.43912,-0.41116 0.15968,0.2741 0.45243,-0.41115 0.10645,21.03736 0.31936,0.47968 0.30605,0.41115 0.43911,-0.15989 0.0399,-0.434 0.0798,-10.53009 0.27945,-0.36547 0.29274,0.27411 0.57218,0.0684 0.1863,-0.0457 v 0"
         id="path1542-3" />
      <path
         style="fill:#1f77b4;fill-opacity:1;stroke:#1f77b4;stroke-width:0.27336;stroke-linecap:butt;stroke-linejoin:round;stroke-miterlimit:4;stroke-dasharray:none;stroke-opacity:1"
         d="m 186.33801,243.92037 c -0.0131,-0.14478 -0.0378,-0.50008 -0.0548,-0.78962 -0.0347,-0.59266 -0.21111,-2.08656 -0.27859,-2.36074 -0.0308,-0.12489 -0.0806,-0.13702 -0.16334,-0.0393 -0.0935,0.11036 -0.12559,0.0877 -0.14943,-0.10523 -0.0397,-0.32161 0.11817,-0.6796 0.27443,-0.62215 0.12712,0.0468 0.18601,0.32387 0.32096,1.51042 0.0446,0.39294 0.0966,0.71442 0.11546,0.71442 0.0454,0 0.14768,-1.01829 0.24141,-2.4049 0.0531,-0.78501 0.0996,-1.14051 0.15359,-1.17277 0.0531,-0.0319 0.087,0.1018 0.10783,0.42585 0.0186,0.28788 0.0666,0.50157 0.12314,0.54745 0.0883,0.0717 0.16752,0.52995 0.15457,0.89433 -0.004,0.0934 0.0493,0.20276 0.11667,0.24282 0.10195,0.0607 0.13582,-0.0128 0.20005,-0.4332 0.14086,-0.92171 0.29379,-0.5356 0.29769,0.75154 0.003,0.85745 0.0852,1.25335 0.13446,0.64422 0.0177,-0.21877 0.019,-0.5603 0.003,-0.75897 -0.046,-0.56844 0.023,-1.75904 0.10773,-1.86 0.041,-0.049 0.0833,-0.008 0.0937,0.0884 0.0385,0.35839 0.0911,0.15917 0.1516,-0.57456 0.0459,-0.5563 0.085,-0.75201 0.15021,-0.75201 0.0654,0 0.0968,-0.15828 0.12138,-0.61099 0.0247,-0.45486 0.063,-0.64606 0.14959,-0.74831 0.0691,-0.0816 0.11631,-0.25904 0.11631,-0.43657 0,-0.16468 0.0436,-0.3717 0.0969,-0.46022 0.0532,-0.0884 0.0969,-0.27154 0.0969,-0.4066 0,-0.75777 0.113,-2.15031 0.17449,-2.15031 0.0372,0 0.0677,0.0693 0.0677,0.15421 0,0.0847 0.0545,0.21845 0.12108,0.29707 0.0666,0.0786 0.12111,0.21231 0.12111,0.29709 0,0.0847 0.0218,0.15419 0.0484,0.15419 0.0267,0 0.0484,-0.0975 0.0484,-0.21671 0,-0.3165 0.0904,-0.43833 0.17107,-0.23049 0.0859,0.22132 0.10365,0.10127 0.15599,-1.05512 0.0265,-0.58493 0.0606,-0.8394 0.11693,-0.87311 0.0781,-0.0468 0.13091,0.30166 0.20698,1.36634 0.0352,0.49396 0.12401,0.40253 0.12401,-0.1279 0,-0.20191 0.0209,-0.3671 0.0466,-0.3671 0.0256,0 0.0703,-0.28767 0.0992,-0.63926 0.0807,-0.97937 0.0875,-1.01639 0.16719,-0.92139 0.0517,0.0616 0.0751,0.30154 0.0764,0.78708 0.001,0.69115 0.003,0.69426 0.0713,0.3021 0.0537,-0.30667 0.10303,-0.39096 0.21841,-0.37295 0.082,0.0128 0.16795,0.11806 0.191,0.23394 0.0355,0.17835 0.0601,0.17374 0.16049,-0.0306 0.0898,-0.18272 0.12646,-0.42644 0.15118,-1.00518 0.018,-0.42019 0.0451,-0.86468 0.0603,-0.98775 0.0311,-0.25133 0.1626,-0.30808 0.1626,-0.0701 0,0.0845 0.0502,0.22465 0.1116,0.31151 0.17553,0.24833 0.21805,0.59714 0.27952,2.29327 0.0408,1.12755 0.0779,1.6106 0.12818,1.67048 0.11376,0.13562 0.14245,-0.006 0.20348,-1.00351 0.0806,-1.31831 0.0984,-1.47012 0.17202,-1.47012 0.0416,0 0.0772,0.28331 0.0992,0.78963 0.0445,1.02557 0.049,1.04147 0.21383,0.74789 0.11446,-0.204 0.15004,-0.40815 0.19509,-1.11913 0.0531,-0.83991 0.14102,-1.11475 0.22359,-0.69989 0.0554,0.27787 0.11495,-0.20792 0.14873,-1.2112 0.0279,-0.82711 0.0413,-0.91379 0.14276,-0.91379 0.0919,0 0.11723,0.10108 0.1412,0.56403 0.016,0.3102 0.0405,0.73156 0.0543,0.93632 l 0.0251,0.37234 0.087,-0.35819 c 0.14523,-0.59787 0.22972,-0.32076 0.26858,0.88098 0.0371,1.14714 0.0945,1.354 0.15948,0.57503 0.0283,-0.33959 0.0694,-0.4888 0.13458,-0.4888 0.0516,0 0.11672,-0.0905 0.14475,-0.20146 0.028,-0.11079 0.0934,-0.17848 0.14531,-0.15046 0.081,0.0439 0.0964,-0.0499 0.10912,-0.66339 0.0118,-0.57327 0.0321,-0.71443 0.10274,-0.71443 0.069,0 0.0949,-0.1622 0.1201,-0.75203 0.022,-0.51495 0.0545,-0.75204 0.10312,-0.75204 0.039,0 0.071,0.13132 0.071,0.29194 0,0.16061 0.0236,0.33715 0.0523,0.39242 0.0288,0.0551 0.0405,0.24744 0.0259,0.42702 -0.0396,0.49083 0.0186,0.9943 0.1152,0.9943 0.12011,0 0.18146,0.59022 0.24231,2.3313 0.0716,2.04909 0.14698,3.06896 0.24245,3.28108 0.0441,0.0981 0.1171,0.35472 0.16217,0.57039 0.0646,0.30897 0.10996,0.376 0.21409,0.316 0.0727,-0.0419 0.14631,-0.14354 0.1636,-0.22604 0.0173,-0.0824 0.0664,-0.10837 0.10898,-0.0575 0.0566,0.0674 0.0775,0.2933 0.0775,0.84026 0,0.41133 0.0232,0.79252 0.0516,0.84703 0.0306,0.0588 0.0454,-0.007 0.0363,-0.16359 -0.0228,-0.39115 0.10737,-0.45764 0.13988,-0.0714 0.0381,0.45268 0.10945,0.0904 0.11043,-0.56087 3.6e-4,-0.32099 0.0244,-0.48883 0.0696,-0.48883 0.0497,0 0.0772,0.28215 0.0989,1.01524 0.065,2.19644 0.0931,2.35452 0.26143,1.46871 0.10874,-0.57224 0.21944,-0.58438 0.26849,-0.0295 0.0243,0.27477 0.0367,0.29139 0.0767,0.10224 0.0263,-0.1242 0.0506,-0.49633 0.0542,-0.82722 0.0107,-1.00233 0.0613,-1.49614 0.15911,-1.55462 0.11223,-0.0672 0.17305,0.21201 0.1749,0.80258 0.002,0.75246 0.053,1.12805 0.15222,1.12805 0.0546,0 0.11172,0.15757 0.13958,0.38508 0.0559,0.45615 0.1442,0.353 0.1442,-0.1684 0,-0.51519 0.18052,-0.50798 0.22229,0.008 0.043,0.53258 0.10694,0.46592 0.14418,-0.15047 0.0473,-0.78261 0.14837,-0.65465 0.18643,0.23594 0.0364,0.85278 0.11286,0.92161 0.19453,0.17516 0.0285,-0.2602 0.0754,-0.54599 0.10423,-0.63509 0.088,-0.27183 0.20958,-0.002 0.24224,0.53927 0.0329,0.54503 0.16545,0.71975 0.16545,0.21815 0,-0.48957 0.10847,-1.07499 0.19027,-1.02688 0.052,0.0306 0.0809,0.24728 0.091,0.6827 0.009,0.40786 0.0382,0.63791 0.0794,0.63791 0.0484,0 0.0725,-0.45815 0.0966,-1.84244 0.0385,-2.2137 0.0635,-2.66972 0.14594,-2.66972 0.081,0 0.12329,0.67793 0.12329,1.97407 0,0.58909 0.0208,1.03406 0.0484,1.03406 0.0267,0 0.0484,-0.12691 0.0484,-0.28192 0,-0.15509 0.0345,-0.57804 0.0769,-0.94003 0.0423,-0.36197 0.11766,-1.26196 0.16745,-1.99996 0.10339,-1.53268 0.18543,-1.91966 0.34236,-1.61534 0.0554,0.10752 0.10675,0.17393 0.11402,0.14746 0.007,-0.0265 0.0326,-0.38562 0.0562,-0.79823 0.0299,-0.52173 0.0684,-0.76531 0.12628,-0.79997 0.0644,-0.0385 0.0907,0.0939 0.11583,0.58212 0.0224,0.43503 0.0605,0.65461 0.1222,0.70471 0.0493,0.04 0.0897,0.13246 0.0897,0.20568 0,0.0731 0.0206,0.1329 0.0457,0.1329 0.0251,0 0.0746,-0.3188 0.11006,-0.70844 0.05,-0.55024 0.0912,-0.72794 0.18444,-0.7958 0.0743,-0.0541 0.15036,-0.28559 0.19962,-0.60762 0.10678,-0.69796 0.20696,-0.67351 0.22628,0.0552 l 0.0153,0.57546 0.1216,-0.4074 c 0.0669,-0.22407 0.14104,-0.56633 0.16483,-0.76059 0.0572,-0.46603 0.17225,-0.32174 0.20991,0.26298 0.0232,0.36073 0.0508,0.44251 0.13624,0.40401 0.0856,-0.0385 0.1174,-0.19939 0.15829,-0.80031 0.0678,-0.99598 0.17947,-1.01371 0.2369,-0.0377 0.0436,0.74224 0.11904,0.93367 0.16283,0.41363 0.0139,-0.16539 0.0639,-0.30082 0.11106,-0.30082 0.0644,0 0.0938,-0.16752 0.11824,-0.6733 0.0179,-0.37032 0.053,-0.71283 0.0782,-0.7611 0.0573,-0.10993 0.14242,0.56273 0.14242,1.12498 0,0.38991 0.12168,0.89786 0.18909,0.78938 0.0159,-0.0256 0.0397,0.0968 0.0531,0.27208 0.0341,0.44842 0.11788,0.44842 0.13786,0 0.0175,-0.3925 0.0903,-0.75204 0.1524,-0.75204 0.0199,0 0.0637,0.30458 0.0972,0.67683 0.0436,0.48325 0.0861,0.67684 0.14875,0.67684 0.0483,0 0.10119,0.0677 0.11766,0.15044 0.0543,0.27291 0.11292,0.15704 0.1442,-0.28522 0.0378,-0.53499 0.18167,-0.96227 0.30023,-0.89202 0.0587,0.0348 0.10213,0.2538 0.12935,0.65242 0.10207,1.49433 0.0894,1.40874 0.1337,0.90084 0.0217,-0.24818 0.0528,-0.84041 0.0691,-1.31606 0.0242,-0.70503 0.0461,-0.86481 0.11849,-0.86481 0.0699,0 0.096,-0.16061 0.12215,-0.75205 0.0247,-0.55817 0.054,-0.75201 0.11353,-0.7519 0.0612,9e-5 0.0837,0.16805 0.095,0.71014 0.0163,0.78747 0.0279,0.86896 0.10309,0.72477 0.0284,-0.0545 0.0517,-0.43356 0.0517,-0.84231 0,-0.62406 0.0144,-0.74313 0.09,-0.74313 0.0782,0 0.0974,0.20157 0.14616,1.53275 0.032,0.87332 0.0854,1.63363 0.12412,1.76725 0.0451,0.15578 0.0836,0.90592 0.1146,2.23496 0.0256,1.10024 0.0556,2.02854 0.0668,2.06291 0.011,0.0344 0.10005,0.0932 0.19777,0.13089 0.0977,0.0376 0.20017,0.11179 0.2277,0.1645 0.0308,0.0592 0.05,-0.10636 0.05,-0.43037 0,-0.58989 0.0524,-0.75858 0.19309,-0.62001 0.0612,0.0602 0.1141,0.31997 0.14759,0.72412 0.10782,1.30033 0.15751,1.64716 0.2463,1.7193 0.0501,0.0407 0.0911,0.13373 0.0911,0.20684 0,0.0731 0.0428,0.1329 0.0952,0.1329 0.0524,0 0.11864,0.1363 0.14734,0.3027 0.0414,0.24059 0.0711,0.27136 0.14415,0.14995 0.0734,-0.12191 0.10725,-0.0851 0.1675,0.18194 0.0415,0.18417 0.0755,0.42665 0.0755,0.53893 0,0.14725 0.0393,0.17729 0.14124,0.10779 0.10497,-0.0715 0.15309,-0.0307 0.18731,0.15916 0.0671,0.37238 0.13924,-0.76905 0.20444,-3.23505 0.0294,-1.11109 0.0644,-2.07556 0.0779,-2.14326 0.0135,-0.0677 0.0565,-0.12307 0.0955,-0.12307 0.0402,0 0.0836,-0.1961 0.10006,-0.45122 0.0193,-0.30005 0.0582,-0.45121 0.11592,-0.45121 0.067,0 0.1069,0.24155 0.1742,1.05282 0.0481,0.57908 0.10227,1.05286 0.1205,1.05286 0.0182,0 0.047,-0.35534 0.064,-0.78964 0.0625,-1.60316 0.0842,-1.90411 0.1495,-2.07235 0.0779,-0.20074 0.16786,-0.0728 0.16786,0.23873 0,0.1192 0.0218,0.21676 0.0484,0.21676 0.0267,0 0.0485,-0.14692 0.0485,-0.32658 0,-0.17961 0.0382,-0.45626 0.0848,-0.61479 0.0466,-0.15845 0.10819,-0.56991 0.13682,-0.91427 0.0416,-0.50016 0.0722,-0.61945 0.15216,-0.59312 0.0659,0.0217 0.10911,-0.0739 0.12639,-0.27904 0.0569,-0.67614 0.15495,-0.1565 0.21896,1.16068 0.0358,0.73784 0.0741,1.36996 0.0849,1.40477 0.0109,0.0348 0.0688,-0.0751 0.12856,-0.2444 0.18518,-0.52373 0.3152,-0.67586 0.42363,-0.49569 0.0532,0.0884 0.0969,0.2263 0.0969,0.3061 0,0.30984 0.14507,0.1252 0.17297,-0.21999 0.0326,-0.40365 0.12651,-0.57503 0.24053,-0.43918 0.0826,0.0984 0.21617,0.81634 0.21617,1.1621 0,0.23677 0.12612,0.69504 0.19129,0.69504 0.0214,0 0.0484,-0.60736 0.0598,-1.34964 0.0221,-1.43745 0.046,-1.65288 0.15291,-1.37748 0.0475,0.12234 0.0779,0.76016 0.10329,2.16474 0.0494,2.73613 0.0807,3.33052 0.17846,3.38887 0.0557,0.0332 0.0903,-0.0926 0.11283,-0.41165 0.0554,-0.78231 0.15503,-0.53564 0.27014,0.66848 0.0654,0.68366 0.13369,1.12804 0.17345,1.12804 0.0361,0 0.0657,-0.0677 0.0657,-0.15047 0,-0.2372 0.14527,-0.17515 0.17622,0.0751 0.048,0.38849 0.10868,0.24842 0.16283,-0.37602 0.0606,-0.69801 0.16509,-0.78249 0.23274,-0.18801 l 0.0471,0.41361 0.0801,-0.57443 c 0.10304,-0.7388 0.18842,-0.64102 0.23009,0.26357 0.0437,0.94887 0.0705,1.13809 0.16077,1.13809 0.0778,0 0.0921,-0.0793 0.14218,-0.78961 0.0161,-0.22752 0.062,-0.41364 0.10196,-0.41364 0.04,0 0.098,-0.17177 0.12881,-0.38185 0.11102,-0.75667 0.24891,-0.24762 0.2983,1.10114 0.0226,0.61928 0.0613,0.74905 0.10258,0.34488 0.0603,-0.5892 0.22913,-0.31356 0.29314,0.47834 0.0516,0.63913 0.10089,0.49479 0.16846,-0.49408 0.0907,-1.32696 0.19704,-1.3779 0.26155,-0.1252 0.0165,0.31948 0.0492,0.58086 0.0727,0.58086 0.0519,0 0.10148,-0.37294 0.10148,-0.76431 0,-0.46415 0.13493,-0.33167 0.16568,0.16272 0.0154,0.24817 0.0409,0.65782 0.0567,0.91039 0.0406,0.65172 0.11782,0.48388 0.20887,-0.45434 0.0891,-0.91822 0.17595,-1.11048 0.24536,-0.54349 0.029,0.2369 0.0849,0.38823 0.14342,0.38823 0.0712,0 0.10405,0.1353 0.12768,0.52641 0.0229,0.38096 0.0571,0.52646 0.12329,0.52646 0.0673,0 0.0917,0.10921 0.0922,0.41358 7e-4,0.52217 0.0912,1.02553 0.10113,0.56403 0.004,-0.16539 0.003,-0.36096 -0.001,-0.43445 -0.004,-0.0736 0.0138,-0.97918 0.0404,-2.01259 0.0395,-1.536 0.0653,-1.92809 0.14151,-2.14839 0.0642,-0.18583 0.10375,-0.57663 0.12727,-1.25877 0.0277,-0.80406 0.05,-0.98924 0.1194,-0.98924 0.0633,0 0.10173,0.21289 0.14919,0.82721 0.0734,0.94933 0.16804,1.07421 0.21576,0.28453 0.018,-0.2985 0.0731,-0.82303 0.12224,-1.16563 0.0492,-0.34264 0.11403,-0.91059 0.14407,-1.2622 0.0402,-0.46973 0.0792,-0.63921 0.14714,-0.63921 0.0772,0 0.098,-0.15028 0.12553,-0.90581 0.0297,-0.81643 0.085,-1.19942 0.14574,-1.01073 0.0121,0.0378 0.0357,0.51844 0.0523,1.06792 0.0192,0.64115 0.0515,0.99904 0.0898,0.99904 0.0909,0 0.15622,-0.31682 0.19373,-0.94005 0.025,-0.41547 0.058,-0.56402 0.12542,-0.56402 0.0656,0 0.0915,0.10779 0.0915,0.38072 0,0.23133 0.0332,0.41275 0.0848,0.46223 0.0466,0.0447 0.12261,0.14423 0.16887,0.22088 0.12514,0.20746 0.16825,0.17196 0.19633,-0.1613 0.0254,-0.30239 0.17971,-0.43149 0.17971,-0.15046 0,0.28764 0.15069,0.14797 0.26941,-0.24992 0.10957,-0.36711 0.12965,-0.38334 0.24238,-0.19599 0.11208,0.18624 0.43563,0.26138 0.48365,0.11221 0.011,-0.0341 0.0367,-0.42422 0.0572,-0.86698 0.048,-1.03563 0.14053,-1.14828 0.18511,-0.22532 0.0332,0.68856 0.12876,1.00272 0.21934,0.72149 0.0397,-0.12334 0.083,-1.02816 0.0905,-1.89011 0.002,-0.25478 0.18986,-0.39496 0.20135,-0.15047 0.003,0.062 0.0132,0.55275 0.0229,1.09045 0.01,0.53772 0.0297,1.13269 0.0446,1.32221 0.0316,0.4041 0.12094,0.30145 0.12094,-0.13889 0,-0.20575 0.0267,-0.28696 0.0834,-0.25308 0.0604,0.0361 0.0977,0.29863 0.13501,0.95108 0.0378,0.66106 0.0704,0.88784 0.12226,0.8512 0.13585,-0.0961 0.19395,-0.37345 0.29538,-1.41044 0.10244,-1.04738 0.20451,-1.39792 0.29279,-1.00561 0.0364,0.16166 0.0529,0.16664 0.0718,0.0218 0.0497,-0.38002 0.1595,-0.17161 0.21551,0.40869 0.0583,0.60377 0.14005,0.68654 0.14005,0.14172 0,-0.35007 0.12915,-0.54798 0.20464,-0.31356 0.0382,0.11835 0.035,0.23069 -0.0112,0.40386 -0.0353,0.13204 -0.0772,0.49013 -0.0932,0.79602 -0.0389,0.7441 -0.19957,0.78451 -0.26756,0.0673 -0.0503,-0.53033 -0.0969,-0.61756 -0.14071,-0.26322 -0.0362,0.29316 -0.17623,0.29316 -0.17623,0 0,-0.42882 -0.0896,-0.22357 -0.14766,0.33841 -0.0689,0.66629 -0.16704,1.04361 -0.34629,1.33146 -0.17572,0.28217 -0.18179,0.27625 -0.23885,-0.23214 -0.0357,-0.31819 -0.086,-0.45539 -0.17913,-0.48883 -0.0987,-0.0353 -0.14047,-0.16271 -0.17579,-0.53527 -0.0535,-0.56425 -0.1006,-0.62303 -0.1385,-0.17286 -0.0167,0.19838 -0.0484,0.2743 -0.085,0.20399 -0.0348,-0.067 -0.0934,0.0322 -0.14555,0.24709 -0.0781,0.3214 -0.0906,0.33158 -0.11964,0.0968 -0.0478,-0.3867 -0.1189,-0.31864 -0.1189,0.11394 0,0.27575 -0.026,0.37602 -0.0969,0.37602 -0.0646,0 -0.0969,-0.10026 -0.0969,-0.30081 0,-0.22062 -0.0323,-0.30083 -0.12109,-0.30083 -0.0666,0 -0.1211,-0.0545 -0.1211,-0.12134 0,-0.0669 -0.06,-0.18759 -0.13319,-0.26853 -0.10803,-0.11935 -0.16297,-0.085 -0.29068,0.18244 -0.0866,0.18129 -0.19895,0.29596 -0.24963,0.2548 -0.0636,-0.0514 -0.10212,0.0227 -0.12429,0.23973 -0.0387,0.37868 -0.16202,0.40995 -0.24399,0.0618 -0.0546,-0.2318 -0.0642,-0.22556 -0.11602,0.0751 -0.0643,0.37309 -0.19843,0.44224 -0.19843,0.10236 0,-0.306 -0.0586,-0.2835 -0.18055,0.0693 -0.0739,0.21385 -0.11128,0.56534 -0.13587,1.27846 -0.0236,0.68641 -0.0542,0.9835 -0.10094,0.9835 -0.044,0 -0.0671,-0.1771 -0.0671,-0.51756 0,-0.63605 -0.0826,-0.83963 -0.12545,-0.30925 -0.0399,0.49475 -0.13359,0.40626 -0.16524,-0.15616 l -0.0243,-0.4318 -0.085,0.40267 c -0.0467,0.22145 -0.11722,0.7872 -0.15665,1.25722 -0.11681,1.39268 -0.28561,1.72652 -0.39944,0.78999 -0.0644,-0.53021 -0.15798,-0.45465 -0.15798,0.12749 0,0.21609 -0.0327,0.50513 -0.0727,0.64229 -0.052,0.17848 -0.089,0.92453 -0.13005,2.62339 -0.0401,1.66335 -0.0781,2.43845 -0.12668,2.58928 -0.12682,0.39378 -0.18734,0.16326 -0.27273,-1.03901 -0.0161,-0.22749 -0.0613,-0.41363 -0.10019,-0.41363 -0.0389,0 -0.0839,-0.16147 -0.0998,-0.35878 -0.0212,-0.26268 -0.0539,-0.33859 -0.12202,-0.28328 -0.0648,0.0526 -0.093,-0.002 -0.093,-0.18015 0,-0.45355 -0.12057,-0.1485 -0.13626,0.34477 -0.0183,0.57743 -0.16918,0.90172 -0.28297,0.60849 -0.0408,-0.10481 -0.14791,-0.17518 -0.23829,-0.15635 -0.15692,0.0328 -0.1657,0.007 -0.1955,-0.57179 -0.0361,-0.70054 -0.10187,-0.79052 -0.1408,-0.19255 -0.0564,0.86625 -0.10067,1.1643 -0.18005,1.21176 -0.0567,0.034 -0.091,-0.0817 -0.11101,-0.37455 -0.0819,-1.19696 -0.0852,-1.20985 -0.12274,-0.47951 -0.0422,0.82326 -0.13479,1.41885 -0.1922,1.23771 -0.0225,-0.0708 -0.0654,-0.7381 -0.0954,-1.48261 -0.0724,-1.79693 -0.068,-1.76432 -0.21439,-1.55705 -0.0937,0.13274 -0.13277,0.3509 -0.17459,0.97671 -0.0509,0.76093 -0.1552,1.07669 -0.20438,0.61857 -0.011,-0.10309 -0.0618,-0.18765 -0.11267,-0.188 -0.0697,-7.1e-4 -0.10329,-0.15828 -0.13595,-0.6375 -0.039,-0.57208 -0.0551,-0.62772 -0.1584,-0.54721 -0.0632,0.0492 -0.14742,0.006 -0.18703,-0.096 -0.0583,-0.15028 -0.072,-0.14265 -0.072,0.04 0,0.34497 -0.13099,0.6157 -0.22946,0.47423 -0.0469,-0.0675 -0.16144,-0.12577 -0.25441,-0.12962 -0.14707,-0.006 -0.17569,-0.0705 -0.22042,-0.49589 -0.0744,-0.70763 -0.16758,-0.96115 -0.16758,-0.45587 0,1.01434 -0.1749,1.21331 -0.22425,0.25509 -0.0186,-0.35978 -0.064,-0.65137 -0.10954,-0.70346 -0.12266,-0.14003 -0.14903,-0.35441 -0.14983,-1.2174 -3.5e-4,-0.66659 -0.0137,-0.79022 -0.0761,-0.71598 -0.053,0.0632 -0.0955,-0.06 -0.1435,-0.41688 -0.0375,-0.27866 -0.10046,-0.54512 -0.13991,-0.59213 -0.0394,-0.047 -0.0986,-0.37674 -0.13139,-0.73269 -0.10172,-1.10407 -0.20699,-1.33033 -0.26135,-0.56181 -0.0472,0.66727 -0.1544,0.71884 -0.32386,0.15579 -0.15709,-0.52193 -0.15646,-0.5223 -0.43351,0.25407 -0.1804,0.5055 -0.30378,0.39348 -0.32225,-0.29257 -0.0131,-0.48619 -0.0319,-0.55533 -0.16953,-0.62298 -0.24015,-0.11792 -0.30854,0.21125 -0.38169,1.83752 -0.0697,1.54932 -0.15613,1.91698 -0.2079,0.88423 -0.0179,-0.3558 -0.0441,-0.77432 -0.0584,-0.93 -0.0449,-0.49026 -0.11021,0.0478 -0.11635,0.9599 -0.007,1.05782 -0.0544,1.57927 -0.14341,1.57927 -0.0885,0 -0.23981,-0.91951 -0.23992,-1.45759 -1e-4,-0.48881 -0.0852,-0.69902 -0.12926,-0.31923 -0.0173,0.14994 -0.0691,0.38598 -0.11471,0.52432 -0.0595,0.18012 -0.0928,0.62883 -0.11742,1.57929 -0.0188,0.73022 -0.0652,2.06787 -0.10291,2.97258 -0.0377,0.90468 -0.0686,1.66609 -0.0686,1.69205 0,0.026 -0.0317,0.0472 -0.0705,0.0472 -0.0422,0 -0.0833,-0.21166 -0.10237,-0.52809 -0.0446,-0.73725 -0.10731,-0.78776 -0.14334,-0.11534 -0.0446,0.8319 -0.061,0.9442 -0.1377,0.9442 -0.0487,0 -0.0794,-0.26796 -0.10315,-0.90244 -0.0233,-0.624 -0.0547,-0.90243 -0.10164,-0.90243 -0.0373,0 -0.0679,0.10167 -0.0679,0.22561 0,0.1242 -0.0413,0.22562 -0.0916,0.22562 -0.0903,0 -0.17936,-0.58828 -0.15546,-1.0269 0.006,-0.10979 -0.0333,-0.23557 -0.0874,-0.27945 -0.0541,-0.0439 -0.1106,-0.20054 -0.12568,-0.34814 -0.0151,-0.14762 -0.0684,-0.30159 -0.11843,-0.34222 -0.0834,-0.0677 -0.12056,-0.34337 -0.27642,-2.04817 -0.036,-0.39467 -0.0738,-0.0395 -0.12066,1.13758 -0.0681,1.70747 -0.17113,1.92127 -0.22806,0.47303 -0.0269,-0.68543 -0.0473,-0.80647 -0.14306,-0.84861 -0.0615,-0.027 -0.1393,0.0222 -0.17311,0.10923 -0.111,0.28606 -0.17539,-0.14762 -0.17533,-1.1806 1.1e-4,-1.3813 -0.0985,-3.49686 -0.17605,-3.77755 -0.0357,-0.12946 -0.0782,-0.44041 -0.0944,-0.69086 -0.0242,-0.3758 -0.0487,-0.44389 -0.14022,-0.38959 -0.061,0.0362 -0.12561,-0.008 -0.14362,-0.0988 -0.06,-0.30169 -0.11281,-0.17 -0.14493,0.36185 -0.0175,0.29014 -0.061,0.52642 -0.0966,0.52642 -0.0786,0 -0.123,0.46509 -0.12389,1.29763 -3.5e-4,0.34843 -0.0306,0.69803 -0.069,0.79679 -0.10622,0.27376 -0.20932,-0.31628 -0.27843,-1.59362 -0.072,-1.33058 -0.15573,-1.4271 -0.23874,-0.27521 -0.0671,0.92966 -0.18123,1.10788 -0.27975,0.43648 -0.0395,-0.26937 -0.0817,-0.36172 -0.13586,-0.2972 -0.044,0.0526 -0.11974,-0.0223 -0.17238,-0.17017 -0.0888,-0.24955 -0.0964,-0.24975 -0.14071,-0.003 -0.0577,0.31968 -0.22876,0.3418 -0.26674,0.0345 -0.0153,-0.12419 -0.0691,-0.22562 -0.11956,-0.22562 -0.0585,0 -0.0917,-0.10564 -0.0917,-0.2919 0,-0.1606 -0.0218,-0.33379 -0.0484,-0.38491 -0.0267,-0.0512 -0.0484,-0.0212 -0.0484,0.0663 0,0.0876 -0.0452,0.15936 -0.10034,0.15936 -0.0551,0 -0.13573,0.10993 -0.17898,0.24423 -0.0727,0.2254 -0.0871,0.21141 -0.18799,-0.18143 -0.11521,-0.4487 -0.10635,-0.46403 -0.18625,0.32275 -0.0131,0.12933 -0.0443,0.1959 -0.0694,0.14796 -0.0576,-0.1105 -0.10759,0.13931 -0.14661,0.73182 -0.0542,0.82219 -0.16742,0.56859 -0.21248,-0.47568 -0.0642,-1.48613 -0.19488,-1.18753 -0.24699,0.56402 -0.0431,1.44796 -0.0721,1.80488 -0.14688,1.80488 -0.0615,0 -0.12135,-1.04601 -0.12217,-2.13443 -3.5e-4,-0.68532 -0.0338,-0.7512 -0.21838,-0.43142 -0.12642,0.21909 -0.15768,0.41266 -0.24046,1.48888 -0.072,0.93544 -0.11327,1.2263 -0.16952,1.19306 -0.0409,-0.024 -0.0813,-0.19544 -0.0899,-0.38059 -0.01,-0.20934 -0.06,-0.37133 -0.13321,-0.42839 -0.0728,-0.0566 -0.11773,-0.20041 -0.11773,-0.37626 0,-0.36247 -0.0249,-0.3577 -0.14924,0.0287 -0.0924,0.28699 -0.10786,0.29325 -0.18545,0.0751 -0.0466,-0.13076 -0.0968,-0.23784 -0.11158,-0.23784 -0.0148,0 -0.0425,0.38917 -0.0616,0.86483 -0.019,0.47566 -0.0962,1.45509 -0.17136,2.17646 -0.0752,0.72138 -0.1617,1.83814 -0.19221,2.4817 -0.0822,1.73338 -0.0927,1.84689 -0.1709,1.84689 -0.0474,0 -0.0718,-0.15295 -0.0718,-0.45123 0,-0.24817 -0.0194,-0.4512 -0.0432,-0.4512 -0.0566,0 -0.0884,0.43578 -0.12957,1.77056 -0.0328,1.0648 -0.0831,1.40644 -0.16789,1.14172 -0.0229,-0.0714 -0.0468,-0.72577 -0.0532,-1.45426 -0.0104,-1.18471 -0.0493,-1.6364 -0.12128,-1.4126 -0.0134,0.0416 -0.0394,0.40367 -0.058,0.80471 -0.0464,1.00817 -0.15949,0.98299 -0.22509,-0.0501 -0.0272,-0.42859 -0.0659,-0.82905 -0.0858,-0.88991 -0.02,-0.0609 -0.0363,-0.3024 -0.0363,-0.5368 0,-0.2344 -0.0218,-0.42616 -0.0484,-0.42616 -0.0267,0 -0.0485,0.23291 -0.0485,0.51757 0,0.28464 -0.0197,0.55543 -0.0439,0.60177 -0.0241,0.0463 -0.0596,0.43951 -0.0787,0.87371 -0.0417,0.94514 -0.10923,1.54763 -0.1573,1.40221 -0.0192,-0.058 -0.0575,-0.55826 -0.0851,-1.11131 -0.041,-0.82313 -0.0659,-1.00137 -0.13682,-0.98273 -0.0502,0.0128 -0.12587,-0.17676 -0.17976,-0.45123 -0.0797,-0.40574 -0.0931,-0.42778 -0.0933,-0.15312 -1.5e-4,0.31997 -0.11429,0.5153 -0.23026,0.39416 -0.0332,-0.0348 -0.0606,-0.15918 -0.0606,-0.27635 0,-0.1172 -0.0218,-0.21307 -0.0485,-0.21307 -0.0267,0 -0.0484,0.0975 -0.0484,0.21672 0,0.27726 -0.0688,0.40902 -0.1579,0.30273 -0.0508,-0.0606 -0.0715,-0.37383 -0.0761,-1.15077 -0.004,-0.58721 -0.0177,-1.10274 -0.0314,-1.14567 -0.0572,-0.17765 -0.0946,0.19005 -0.11359,1.11766 -0.0238,1.16012 -0.10682,1.38531 -0.28013,0.75972 -0.12601,-0.45496 -0.1642,-0.49721 -0.1642,-0.18167 0,0.12076 -0.059,0.38933 -0.13107,0.5969 -0.12185,0.35086 -0.13719,0.3602 -0.21797,0.13316 -0.081,-0.22756 -0.0873,-0.22209 -0.093,0.08 -0.0102,0.54324 -0.016,0.60329 -0.0781,0.79601 -0.0476,0.14799 -0.0663,0.0881 -0.0907,-0.29085 -0.0352,-0.54682 -0.11579,-0.50093 -0.11579,0.0659 0,0.23672 -0.0228,0.35618 -0.0606,0.31729 -0.0714,-0.0736 -0.12459,-1.02369 -0.1296,-2.31278 -0.005,-1.34661 -0.0474,-1.86127 -0.15256,-1.86127 -0.0487,0 -0.10859,0.11194 -0.13326,0.24884 -0.0658,0.36504 -0.18374,0.14958 -0.21917,-0.40028 -0.0169,-0.26295 -0.0951,-0.66455 -0.17364,-0.89246 -0.0786,-0.22792 -0.158,-0.61079 -0.17652,-0.85087 -0.0186,-0.24009 -0.0516,-0.50791 -0.0735,-0.59515 -0.0219,-0.0873 -0.0548,-0.73023 -0.0731,-1.42885 -0.0333,-1.27814 -0.10622,-2.26724 -0.11287,-1.53344 -0.002,0.23496 -0.0326,0.3384 -0.1,0.3384 -0.0781,0 -0.0968,-0.10025 -0.0968,-0.51752 0,-0.28466 -0.0218,-0.55939 -0.0485,-0.61052 -0.0267,-0.0513 -0.0484,0.007 -0.0484,0.13104 0,0.12333 -0.0491,0.24568 -0.10899,0.27209 -0.0979,0.0432 -0.11045,0.14373 -0.1234,0.98811 -0.0125,0.8168 -0.0268,0.94 -0.10899,0.94 -0.0656,0 -0.0948,-0.10381 -0.0952,-0.33841 -7.1e-4,-0.69481 -0.0559,-1.01523 -0.17266,-1.01523 -0.11804,0 -0.16027,0.29667 -0.24083,1.69204 -0.0576,0.99715 -0.21554,0.64526 -0.21554,-0.48007 0,-0.86233 -0.0567,-1.96399 -0.10105,-1.96399 -0.0217,0 -0.0542,0.40611 -0.0724,0.90244 -0.0569,1.56116 -0.18296,1.02274 -0.24054,-1.02729 -0.0358,-1.27434 -0.0849,-1.46289 -0.14063,-0.54023 -0.0499,0.82556 -0.12659,1.24652 -0.23633,1.29656 -0.0652,0.0297 -0.11296,0.20774 -0.13858,0.51655 -0.0237,0.28603 -0.0781,0.50291 -0.13843,0.55187 -0.0595,0.0483 -0.13045,0.32679 -0.17695,0.69443 -0.0995,0.78621 -0.19797,0.79124 -0.2381,0.0128 -0.0171,-0.33091 -0.0465,-0.60164 -0.0656,-0.60164 -0.019,0 -0.0614,0.37227 -0.0942,0.82725 -0.047,0.65269 -0.0793,0.82722 -0.15302,0.82722 -0.0513,0 -0.0934,-0.0933 -0.0934,-0.20726 0,-0.11407 -0.0472,-0.3046 -0.10492,-0.42358 -0.0899,-0.18534 -0.11391,-0.46116 -0.16771,-1.92622 -0.0493,-1.34024 -0.0838,-1.77518 -0.16013,-2.01212 -0.0536,-0.16628 -0.10885,-0.26657 -0.12292,-0.2229 -0.0141,0.0435 -0.0513,0.47984 -0.0826,0.96927 -0.0314,0.48946 -0.0912,0.96865 -0.13281,1.06491 -0.0416,0.0963 -0.0988,0.46849 -0.12688,0.82721 -0.0732,0.93291 -0.17922,0.85647 -0.24287,-0.17498 -0.0338,-0.54828 -0.0747,-0.8272 -0.12109,-0.8272 -0.0534,0 -0.0833,0.39161 -0.12604,1.65445 -0.0308,0.90996 -0.0581,1.70524 -0.0606,1.76726 -0.002,0.062 -0.034,0.11277 -0.0701,0.11277 -0.0484,0 -0.0742,-0.38206 -0.0983,-1.45057 -0.018,-0.79787 -0.0451,-1.5118 -0.0599,-1.58657 -0.0623,-0.31301 -0.15348,0.24571 -0.18312,1.12202 -0.0625,1.84743 -0.0879,2.21596 -0.15268,2.21596 -0.0636,0 -0.0732,-0.13447 -0.15962,-2.25609 -0.0386,-0.94718 -0.0416,-0.96357 -0.0962,-0.52644 -0.0919,0.73524 -0.13435,0.90088 -0.23112,0.90169 -0.0755,7e-4 -0.0997,0.16839 -0.13682,0.94659 -0.035,0.73364 -0.0622,0.93571 -0.12111,0.9007 -0.051,-0.0303 -0.0919,-0.32591 -0.12443,-0.90175 -0.0608,-1.07558 -0.14496,-1.39054 -0.21617,-0.80907 -0.0277,0.22568 -0.0502,0.53279 -0.0502,0.68251 0,0.65536 -0.0639,1.18968 -0.15051,1.26006 -0.0568,0.0461 -0.0919,0.20884 -0.0924,0.42693 -7e-4,0.42345 -0.0446,0.64402 -0.15185,0.76661 -0.047,0.0537 -0.0935,0.34029 -0.11275,0.69453 -0.025,0.45931 -0.0574,0.61428 -0.13559,0.64972 -0.08,0.0362 -0.1221,0.25084 -0.19005,0.96907 -0.0605,0.6391 -0.11554,0.9455 -0.17925,0.99722 -0.0778,0.0631 -0.0974,0.27662 -0.12707,1.38307 -0.0247,0.92442 -0.0557,1.33282 -0.10496,1.39162 -0.11663,0.13888 -0.17537,-0.20167 -0.21615,-1.25339 -0.0214,-0.55172 -0.049,-1.03453 -0.0614,-1.0729 -0.0123,-0.0384 -0.0898,0.0222 -0.17214,0.13461 -0.0995,0.13588 -0.16235,0.35561 -0.18748,0.65541 -0.0208,0.24803 -0.0717,0.47123 -0.11299,0.49597 -0.0586,0.0349 -0.0825,-0.1567 -0.10832,-0.86462 -0.032,-0.8773 -0.038,-0.90957 -0.17216,-0.90957 -0.12336,0 -0.14717,0.0803 -0.21153,0.71443 -0.0399,0.39295 -0.086,0.98515 -0.10242,1.31607 -0.0593,1.19289 -0.0838,1.42884 -0.14827,1.42884 -0.036,0 -0.0763,-0.11848 -0.0894,-0.26322 z"
         id="path4045-2-6"
         inkscape:export-filename="/home/dario/Work/proj_glove/adaptation/article/figures/oh_2019_c.png"
         inkscape:export-xdpi="600"
         inkscape:export-ydpi="600" />
      <path
         style="fill:#1f77b4;fill-opacity:1;stroke:#1f77b4;stroke-width:0.238789;stroke-linecap:butt;stroke-linejoin:round;stroke-miterlimit:4;stroke-dasharray:none;stroke-opacity:1"
         d="m 186.29741,198.90797 c -0.0663,-1.59913 -0.0802,-1.76192 -0.15035,-1.76192 -0.0384,0 -0.0699,-0.0556 -0.0699,-0.1237 0,-0.0681 -0.0218,-0.1237 -0.0486,-0.1237 -0.0268,0 -0.0486,0.0749 -0.0486,0.16631 0,0.0914 -0.0424,0.26415 -0.0943,0.38376 -0.0519,0.11961 -0.10856,0.38252 -0.12595,0.58427 -0.0222,0.25726 -0.0532,0.34578 -0.1038,0.2963 -0.0397,-0.0389 -0.0938,-0.0705 -0.1202,-0.0705 -0.0265,0 -0.0137,-0.0874 0.0283,-0.1943 0.042,-0.10688 0.0763,-0.3208 0.0763,-0.47542 0,-0.15461 0.0438,-0.38226 0.0975,-0.50586 0.0536,-0.12355 0.12261,-0.43828 0.1533,-0.69921 0.0531,-0.45175 0.147,-0.61175 0.209,-0.35621 0.0157,0.065 0.063,0.0847 0.10484,0.0438 0.0978,-0.0957 0.16173,0.16564 0.16268,0.66525 7.1e-4,0.56719 0.0789,0.61063 0.25131,0.14034 0.083,-0.22618 0.16425,-0.41606 0.18068,-0.42193 0.0164,-0.006 0.0696,-0.0549 0.11806,-0.10915 0.10929,-0.12209 0.14449,-0.0213 0.22743,0.65151 0.0361,0.29243 0.0818,0.55731 0.1017,0.58862 0.0407,0.0641 0.18938,-0.63589 0.18938,-0.892 0,-0.0916 0.039,-0.16648 0.0866,-0.16648 0.11236,0 0.25315,0.61231 0.25315,1.10096 0,0.21052 0.0219,0.38275 0.0486,0.38275 0.0268,0 0.0486,-0.16328 0.0486,-0.36286 0,-0.52629 0.082,-1.00417 0.15933,-0.9286 0.0438,0.0428 0.0803,-0.0904 0.11076,-0.40418 0.0331,-0.34085 0.0741,-0.4785 0.15082,-0.50636 0.08,-0.0291 0.11222,-0.14826 0.1336,-0.49458 0.0399,-0.64523 0.12396,-4.46696 0.12453,-5.65666 7e-4,-1.16105 0.0747,-1.57818 0.23602,-1.32749 0.0918,0.14269 0.0972,0.10343 0.12811,-0.92732 0.0392,-1.30946 0.0507,-1.42121 0.19073,-1.84975 0.0905,-0.27718 0.11697,-0.55088 0.14432,-1.49391 0.0427,-1.474 0.0751,-1.87473 0.15156,-1.87473 0.0848,0 0.11545,0.25203 0.15174,1.24682 0.035,0.95886 0.0895,1.10096 0.13857,0.36121 0.0373,-0.56302 0.0945,-0.70595 0.19632,-0.49073 0.0389,0.0822 0.0734,0.11475 0.0767,0.0724 0.004,-0.0423 0.01,-0.11868 0.0148,-0.1697 0.004,-0.0509 0.0258,-0.52394 0.0466,-1.05098 0.0387,-0.97956 0.10996,-1.21901 0.22059,-0.74186 0.0457,0.19694 0.0529,0.19093 0.0814,-0.0669 0.0506,-0.45853 0.13901,-0.23842 0.15501,0.38565 0.008,0.31772 0.0361,0.57765 0.0622,0.57765 0.0582,0 0.077,-0.14487 0.11651,-0.89641 0.0325,-0.61873 0.15528,-0.82442 0.2047,-0.34298 0.0205,0.20074 0.0421,0.22105 0.12078,0.11391 0.0756,-0.10306 0.10983,-0.0829 0.16298,0.0957 0.037,0.12443 0.068,0.32353 0.0688,0.44253 0.002,0.23373 0.0986,0.30844 0.0986,0.076 0,-0.0773 0.0491,-0.2667 0.10921,-0.4211 0.06,-0.15441 0.13737,-0.36943 0.1718,-0.47784 0.0344,-0.10831 0.1135,-0.19712 0.17574,-0.19712 0.10228,0 0.11633,-0.0712 0.14611,-0.74186 0.0264,-0.59415 0.05,-0.74186 0.11844,-0.74186 0.0941,0 0.17405,0.64296 0.23068,1.85466 0.0364,0.77828 0.0976,1.1489 0.17845,1.08022 0.0308,-0.0261 0.0681,-0.17729 0.0828,-0.33583 0.0146,-0.15852 0.0699,-0.34914 0.12269,-0.42359 0.0528,-0.0744 0.10602,-0.15168 0.11831,-0.17167 0.0123,-0.02 0.0585,-0.49291 0.10274,-1.05098 0.0597,-0.75289 0.0988,-1.00647 0.15174,-0.98295 0.0717,0.0318 0.18428,-0.44428 0.18428,-0.77938 0,-0.0989 0.0328,-0.17965 0.0728,-0.17965 0.0705,0 0.0839,0.14487 0.097,1.04288 0.007,0.47268 0.10981,0.55829 0.13007,0.10819 0.0123,-0.27486 0.0435,-0.35551 0.14911,-0.38647 0.11534,-0.0338 0.13347,0.005 0.13347,0.28254 0,0.17691 0.0357,0.46059 0.0794,0.63039 0.0745,0.28964 0.0849,0.29607 0.16808,0.10425 0.12871,-0.29673 0.22348,-0.13932 0.26154,0.43454 0.0338,0.51059 0.0928,0.72402 0.14292,0.51745 0.0152,-0.0627 0.0713,-0.0849 0.1247,-0.0494 0.0767,0.0512 0.0972,0.002 0.0978,-0.22798 7.1e-4,-0.40543 0.0721,-0.6519 0.16246,-0.56356 0.0569,0.0556 0.0838,-0.0324 0.10737,-0.3529 0.0356,-0.48403 0.13878,-0.566 0.18736,-0.14892 l 0.0324,0.27818 0.0445,-0.27818 c 0.0245,-0.15303 0.063,-0.27821 0.0856,-0.27821 0.0652,0 0.19365,0.77897 0.22984,1.39365 0.0228,0.38684 0.0597,0.58004 0.11862,0.61925 0.0922,0.0614 0.1073,0.6926 0.17254,7.19858 0.0259,2.58158 0.10156,6.07114 0.14797,6.82306 0.0356,0.57603 0.15563,0.56445 0.42402,-0.0409 0.24623,-0.55528 0.37367,-0.59019 0.37367,-0.10234 0,0.42486 0.0496,0.67692 0.13332,0.67692 0.041,0 0.10174,0.0952 0.13516,0.21169 0.0511,0.17826 0.073,0.18586 0.13821,0.0481 0.10985,-0.23221 0.20976,-0.0916 0.24772,0.34877 0.039,0.45182 0.10227,0.57674 0.19401,0.38276 0.0488,-0.10319 0.0944,-0.10629 0.16457,-0.0107 0.14038,0.19137 0.14282,0.18557 0.17871,-0.42419 0.0434,-0.73734 0.14946,-0.7302 0.22774,0.0154 0.071,0.67673 0.16258,0.81186 0.28041,0.41393 0.0825,-0.27879 0.0903,-0.28175 0.2105,-0.081 0.0687,0.11464 0.18071,0.20832 0.24907,0.20832 0.0992,0 0.13012,-0.0748 0.15338,-0.37094 0.0423,-0.53891 0.17704,-0.48023 0.28393,0.12369 0.0933,0.52702 0.15452,0.6168 0.20267,0.29722 0.0212,-0.14064 0.0682,-0.17775 0.16364,-0.1291 0.11518,0.0587 0.13819,0.0214 0.16457,-0.2663 0.088,-0.95972 0.19262,-1.63278 0.25389,-1.63278 0.0752,0 0.0915,0.0938 0.13671,0.78422 0.0277,0.42358 0.0435,0.46719 0.14537,0.40206 0.0696,-0.0445 0.12384,-0.0132 0.13874,0.0812 0.0134,0.0848 0.0265,-0.0961 0.0291,-0.40206 0.002,-0.30601 0.0166,-1.44662 0.031,-2.5347 0.0145,-1.08806 0.0445,-3.56403 0.0666,-5.50216 0.0223,-1.96172 0.0637,-3.68829 0.0933,-3.89478 0.0292,-0.20402 0.085,-1.19787 0.12408,-2.20853 0.039,-1.01068 0.0824,-1.86671 0.0964,-1.90228 0.0139,-0.0354 0.0749,-0.0711 0.13549,-0.0788 0.069,-0.008 0.13399,-0.14107 0.17407,-0.35424 0.0352,-0.187 0.0986,-0.34002 0.14089,-0.34002 0.0423,0 0.1035,-0.0924 0.13595,-0.20557 0.10197,-0.35525 0.22271,-0.11463 0.21037,0.41929 -0.006,0.25647 0.007,0.90073 0.0274,1.4317 0.0353,0.89273 0.046,0.96251 0.14258,0.92733 0.0846,-0.0309 0.11069,-0.15099 0.13761,-0.63311 0.0452,-0.80883 0.15545,-1.22205 0.30119,-1.12887 0.10858,0.0693 0.11359,0.0369 0.15626,-1.01779 0.0347,-0.85834 0.0611,-1.09769 0.1243,-1.12803 0.0686,-0.033 0.0845,0.13682 0.10977,1.17376 0.0583,2.38659 0.10199,3.38371 0.14978,3.41059 0.0268,0.0151 0.0625,-0.2645 0.0796,-0.62108 0.0617,-1.28608 0.13635,-1.53937 0.31779,-1.07715 0.0412,0.10497 0.0997,0.16996 0.12999,0.14428 0.062,-0.0527 0.13787,-1.15501 0.10069,-1.46433 -0.0253,-0.20993 0.0986,-0.40971 0.17717,-0.28594 0.0243,0.0383 0.0441,0.28426 0.0441,0.5467 0,1.1368 0.13605,1.16629 0.15553,0.0337 0.0128,-0.73997 0.0254,-0.83459 0.11142,-0.83459 0.0781,0 0.10037,0.0967 0.11386,0.49459 l 0.0168,0.49455 0.056,-0.43274 c 0.0441,-0.34112 0.0817,-0.43275 0.17737,-0.43275 0.11281,0 0.12026,0.037 0.10593,0.52549 -0.0157,0.53785 0.0216,0.64414 0.13032,0.37092 0.0493,-0.12382 0.0752,-0.10735 0.13054,0.0837 0.0831,0.28697 0.0871,0.27857 0.2093,-0.44781 0.0812,-0.48242 0.11362,-0.56419 0.2008,-0.50611 0.0812,0.054 0.0977,0.13333 0.0752,0.36154 -0.0161,0.16407 -0.007,0.29229 0.0206,0.29229 0.0273,0 0.0495,-0.10532 0.0495,-0.23404 0,-0.23487 0.11081,-0.43163 0.16514,-0.29322 0.0159,0.0407 0.029,0.25818 0.029,0.48341 0,0.39651 0.004,0.40482 0.12665,0.26247 0.15997,-0.18567 0.23675,0.0404 0.28353,0.83505 0.0334,0.56787 0.0995,0.78846 0.17704,0.59096 0.0247,-0.0627 0.0548,-0.63475 0.0669,-1.27084 0.0121,-0.63606 0.0461,-1.21684 0.0755,-1.29062 0.0772,-0.19365 0.1978,0.26439 0.16289,0.6188 -0.0442,0.44888 0.0216,0.81576 0.13069,0.72762 0.052,-0.0422 0.0931,-0.0173 0.0931,0.0567 0,0.23949 0.0929,0.13742 0.15652,-0.17211 0.041,-0.19922 0.084,-0.27038 0.12463,-0.20637 0.0477,0.075 0.0779,1.61205 0.13042,6.64087 0.0376,3.5987 0.0953,7.11007 0.12819,7.80301 l 0.0599,1.25988 0.13703,-0.0698 c 0.11459,-0.0585 0.13704,-0.0285 0.13704,0.18282 0,0.46575 0.0551,0.64378 0.19933,0.64378 0.0772,0 0.14043,-0.0556 0.14043,-0.1237 0,-0.16632 0.16141,-0.15757 0.22813,0.0119 0.0388,0.0989 0.0812,0.0651 0.15532,-0.12369 0.056,-0.14282 0.13427,-0.25964 0.1738,-0.25964 0.0713,0 0.0896,0.12776 0.14595,1.02005 0.0344,0.54533 0.10689,0.60431 0.15197,0.12369 0.0175,-0.18701 0.053,-0.4084 0.0788,-0.49198 0.0773,-0.25007 0.21615,0.0366 0.25172,0.51954 0.0177,0.23986 0.0506,0.43612 0.0733,0.43612 0.0503,0 0.10008,-0.3097 0.10008,-0.6222 0,-0.12705 0.0301,-0.27554 0.067,-0.32992 0.0686,-0.10114 0.0831,-0.95601 0.15253,-9.00125 0.0455,-5.28206 0.12588,-7.54229 0.26794,-7.54229 0.0532,0 0.0816,0.26831 0.11465,1.0858 0.0278,0.68952 0.0634,1.06942 0.0971,1.04089 0.0292,-0.0247 0.0859,-0.50219 0.12596,-1.06107 0.0401,-0.55886 0.0892,-1.01335 0.1092,-1.00997 0.02,0.002 0.0582,0.006 0.0849,0.006 0.0268,0 0.0486,0.19146 0.0486,0.42546 0,0.52502 0.0672,0.65237 0.16208,0.30723 0.0969,-0.35223 0.23853,-0.25736 0.29251,0.19584 0.0841,0.70638 0.0972,0.75161 0.11603,0.40095 0.0126,-0.23358 0.0541,-0.36267 0.13316,-0.41321 0.0818,-0.0523 0.13332,-0.22121 0.17881,-0.58653 0.0992,-0.79701 0.21372,-0.74544 0.28162,0.12676 0.077,0.98898 0.0977,1.15078 0.14736,1.15078 0.0237,0 0.0569,-0.20863 0.0738,-0.46365 0.0571,-0.86287 0.071,-0.9231 0.19371,-0.84462 0.0626,0.04 0.12734,0.0169 0.14391,-0.0514 0.0554,-0.22846 0.11347,-0.12749 0.14185,0.24683 0.0154,0.20402 0.0416,0.54721 0.0581,0.76262 0.0372,0.48638 0.0902,0.27868 0.13615,-0.5333 0.0241,-0.42479 0.0571,-0.59081 0.12738,-0.63755 0.0701,-0.0465 0.095,-0.17133 0.0956,-0.47661 2.5e-4,-0.22738 0.0216,-0.49688 0.0472,-0.59889 0.0662,-0.26418 0.2144,-0.006 0.21823,0.38139 0.008,0.77613 0.0905,2.0795 0.12834,2.01994 0.0233,-0.0366 0.0424,-0.22758 0.0424,-0.42423 0,-0.19665 0.0237,-0.63803 0.0524,-0.98083 0.0458,-0.54312 0.0637,-0.6081 0.13912,-0.50516 0.0768,0.10473 0.0875,0.33237 0.0943,2.00819 0.0132,3.26698 0.0987,11.36562 0.13125,12.43074 0.0308,1.00696 0.0911,1.31284 0.14011,0.71095 0.0138,-0.17 0.0365,-0.44821 0.0504,-0.61822 0.0515,-0.63242 0.15369,-0.32769 0.23459,0.69998 0.0437,0.555 0.092,1.04103 0.1073,1.08003 0.0153,0.039 0.0673,-0.062 0.1154,-0.22469 0.14924,-0.50399 0.21641,-0.30909 0.3724,1.08065 0.0265,0.23599 0.21841,0.0599 0.3262,-0.29929 0.13537,-0.45113 0.24989,-0.37978 0.31784,0.19803 0.0691,0.58672 0.17065,0.63884 0.24115,0.12369 0.0279,-0.20401 0.0844,-0.37094 0.12544,-0.37094 0.0411,0 0.10652,-0.19416 0.14545,-0.43149 0.088,-0.53663 0.19911,-0.47112 0.24442,0.14415 0.0177,0.24056 0.0526,0.57449 0.0777,0.74205 l 0.0455,0.30467 0.12378,-0.24803 0.12379,-0.24806 0.16764,0.25198 0.16765,0.25198 0.0877,-0.27596 0.0877,-0.27595 0.23362,0.26326 c 0.28657,0.32291 0.26983,0.32513 0.26983,-0.0357 0,-0.73845 0.16393,-0.94783 0.24995,-0.31922 0.0563,0.41052 0.11255,0.47322 0.15744,0.17519 0.0411,-0.27306 0.14264,-0.15463 0.17562,0.20492 0.0209,0.2287 0.0645,0.30914 0.18335,0.33867 l 0.15584,0.0388 7e-4,-2.38798 c 2.6e-4,-1.31339 0.0224,-4.77309 0.049,-7.68821 0.0395,-4.32733 0.0621,-5.37384 0.12307,-5.70126 0.0411,-0.22055 0.0861,-0.84001 0.0999,-1.37655 0.0453,-1.75521 0.0723,-2.15016 0.14648,-2.15016 0.0382,0 0.0803,0.0725 0.0937,0.1611 0.0246,0.16335 0.0562,1.37458 0.065,2.49106 0.007,0.82241 0.0887,0.59239 0.131,-0.36641 0.0373,-0.84659 0.089,-1.07321 0.23313,-1.02297 0.0876,0.0306 0.10808,-0.0549 0.14704,-0.61365 0.0775,-1.11093 0.2765,-0.77848 0.34724,0.57997 0.0305,0.58497 0.11714,0.76799 0.11714,0.24733 0,-0.17535 0.0336,-0.24 0.12482,-0.24 0.0997,0 0.12303,0.0559 0.11596,0.27819 -0.004,0.15303 -0.006,0.4173 -0.002,0.58733 0.007,0.29356 0.0107,0.2889 0.0758,-0.0927 0.0768,-0.45016 0.15209,-0.50601 0.24996,-0.18546 0.0628,0.20566 0.0687,0.20533 0.11848,-0.007 0.0674,-0.287 0.19018,-0.0631 0.19018,0.34688 0,0.3649 0.0959,0.552 0.21842,0.42617 0.16635,-0.1708 0.21915,-0.12821 0.27094,0.21878 0.0645,0.43205 0.12259,0.21892 0.1676,-0.61477 0.0252,-0.46593 0.0503,-0.59119 0.11241,-0.56105 0.044,0.0213 0.087,0.16344 0.0955,0.31576 0.0333,0.59522 0.12767,0.25954 0.16505,-0.58729 0.0147,-0.33099 0.16967,-0.50311 0.20426,-0.22679 0.0112,0.0901 0.0344,0.42798 0.0513,0.751 0.0422,0.80417 0.12199,0.74102 0.12199,-0.0966 0,-0.70811 0.0869,-0.99875 0.20711,-0.69258 0.0867,0.22071 0.12254,0.16791 0.15691,-0.23087 0.0411,-0.47653 0.21843,-0.53263 0.21843,-0.0691 0,0.166 0.0226,0.33762 0.0505,0.38134 0.0278,0.0437 0.0373,0.1864 0.0209,0.31702 -0.0204,0.16333 -0.002,0.26135 0.0588,0.31395 0.0486,0.042 0.1373,0.22261 0.19725,0.40121 l 0.10896,0.3248 0.002,-0.61822 c 7.1e-4,-0.34003 0.0308,-0.7156 0.0663,-0.8346 0.0693,-0.23242 0.22365,-0.29645 0.22365,-0.0927 0,0.0681 0.0218,0.12369 0.0485,0.12369 0.0268,0 0.0486,-0.171 0.0486,-0.38 0,-0.29198 0.0192,-0.37057 0.083,-0.33927 0.0826,0.0404 0.13753,0.45302 0.17809,1.33748 0.0371,0.80992 0.0894,1.3601 0.12912,1.3601 0.0217,0 0.0537,-0.31994 0.071,-0.71097 0.0173,-0.39102 0.0399,-0.7805 0.0505,-0.8655 0.0285,-0.22912 0.16604,-0.18728 0.20323,0.0618 0.0177,0.11904 0.0826,0.31779 0.14409,0.44174 0.0615,0.12397 0.11179,0.30477 0.11179,0.40185 0,0.23731 -0.0344,0.22278 -0.1844,-0.0779 l -0.12692,-0.2543 -0.0367,0.25314 c -0.0202,0.13918 -0.0511,0.52849 -0.0687,0.86502 -0.0513,0.98657 -0.27462,0.96702 -0.33539,-0.0293 -0.0517,-0.84888 -0.0769,-1.01095 -0.12615,-0.81289 -0.0234,0.094 -0.0432,0.33781 -0.044,0.54181 -0.002,0.41241 -0.0733,0.78182 -0.12572,0.64828 -0.0186,-0.0475 -0.0445,-0.36702 -0.0575,-0.70996 -0.0129,-0.34295 -0.0419,-0.65246 -0.0644,-0.68781 -0.0541,-0.0853 -0.0804,0.27723 -0.11678,1.615 -0.0281,1.03153 -0.0772,1.45116 -0.14864,1.26921 -0.0161,-0.0409 -0.0532,-0.6653 -0.0827,-1.38752 l -0.0534,-1.31312 -0.13377,0.0749 c -0.12269,0.0686 -0.13643,0.0384 -0.16624,-0.36618 -0.0322,-0.43742 -0.0853,-0.55523 -0.143,-0.31737 -0.0165,0.0681 -0.071,0.1237 -0.12124,0.1237 -0.0723,0 -0.0974,0.12194 -0.12105,0.58732 -0.0752,1.48213 -0.0804,1.52922 -0.16286,1.48904 -0.0566,-0.0275 -0.0947,-0.25419 -0.12952,-0.76988 -0.0535,-0.7932 -0.1184,-0.97161 -0.19431,-0.53417 -0.0361,0.2077 -0.0822,0.2696 -0.18146,0.2431 -0.10391,-0.0277 -0.13311,0.0167 -0.13311,0.20265 0,0.131 -0.0421,0.36963 -0.0936,0.53018 -0.077,0.24009 -0.10501,0.26337 -0.15776,0.13114 -0.0353,-0.0884 -0.0668,-0.21359 -0.0702,-0.27821 -0.004,-0.0645 -0.009,-0.17309 -0.0121,-0.24111 -0.004,-0.0681 -0.0594,-0.12368 -0.12454,-0.12368 -0.0652,0 -0.13199,0.0556 -0.14848,0.12368 -0.0511,0.21059 -0.17768,0.13626 -0.20397,-0.11974 -0.0161,-0.1566 -0.0608,-0.23379 -0.12544,-0.21638 -0.0712,0.0192 -0.10914,-0.0626 -0.13029,-0.28079 -0.049,-0.50616 -0.10238,-0.0972 -0.14964,1.14691 -0.0238,0.6266 -0.0438,1.23664 -0.0446,1.35564 -7.1e-4,0.11905 -0.0313,0.21637 -0.0678,0.21637 -0.0737,0 -0.12601,-0.60809 -0.1277,-1.48372 -0.002,-0.75643 -0.0521,-1.48373 -0.10341,-1.48373 -0.0233,0 -0.0422,0.11307 -0.0422,0.25116 0,0.23529 -0.12109,0.47072 -0.17349,0.33728 -0.013,-0.0332 -0.037,-0.34608 -0.0532,-0.69532 -0.0437,-0.93897 -0.16161,-0.77462 -0.16161,0.22517 0,1.35193 -0.16334,1.70891 -0.21936,0.47943 -0.0395,-0.86791 -0.0923,-0.76875 -0.14251,0.26779 -0.0447,0.92268 -0.16393,1.97831 -0.22346,1.97831 -0.0686,0 -0.0877,-0.19528 -0.10927,-1.1128 -0.0103,-0.44204 -0.0379,-0.83151 -0.061,-0.86551 -0.0861,-0.12618 -0.15473,0.97799 -0.16531,2.65834 -0.006,0.95207 -0.0174,1.98141 -0.0255,2.28743 -0.008,0.30603 -0.0299,3.06019 -0.0484,6.12038 -0.0274,4.49278 -0.0472,5.61754 -0.1031,5.8422 -0.0765,0.30736 -0.21258,0.37574 -0.21258,0.10675 0,-0.21335 -0.29206,-0.34224 -0.37768,-0.16667 -0.0781,0.16012 -0.20096,-0.21487 -0.20322,-0.62014 -7.1e-4,-0.153 -0.0206,-0.2782 -0.044,-0.2782 -0.0235,0 -0.043,0.12515 -0.0437,0.2782 -7.1e-4,0.15302 -0.0268,0.44447 -0.0577,0.6477 l -0.0566,0.36948 -0.0928,-0.30766 c -0.051,-0.16923 -0.0933,-0.36859 -0.0939,-0.44306 -7.1e-4,-0.17429 -0.16152,-0.54466 -0.23545,-0.54466 -0.0313,0 -0.0569,0.10067 -0.0569,0.22366 0,0.12295 -0.0291,0.32479 -0.0645,0.4484 -0.0534,0.18625 -0.0826,0.20016 -0.16989,0.081 -0.0579,-0.079 -0.10537,-0.20511 -0.10537,-0.28021 0,-0.14048 -0.14143,-0.46201 -0.20628,-0.46902 -0.02,-0.002 -0.0364,0.0775 -0.0364,0.17719 0,0.22474 -0.17763,0.47972 -0.27075,0.38868 -0.0379,-0.0371 -0.0691,-0.19768 -0.0691,-0.35683 0,-0.15913 -0.0291,-0.3908 -0.0648,-0.51481 -0.0619,-0.21541 -0.0705,-0.21584 -0.19414,-0.008 -0.0712,0.11893 -0.12944,0.28629 -0.12944,0.37215 0,0.58309 -0.3772,0.45026 -0.45803,-0.16132 l -0.0523,-0.39644 -0.19204,0.56265 c -0.22747,0.66644 -0.38063,0.71174 -0.40468,0.1196 -0.0235,-0.57932 -0.10601,-1.29826 -0.14889,-1.29826 -0.0214,0 -0.0638,0.13903 -0.0942,0.30912 -0.0943,0.52695 -0.19162,0.3733 -0.29385,-0.46368 -0.099,-0.81084 -0.10938,-0.79815 -0.20142,0.24729 -0.0314,0.35703 -0.0828,0.64913 -0.11406,0.64913 -0.15539,0 -0.25898,-3.3152 -0.30276,-9.6896 -0.0178,-2.57895 -0.0481,-4.36402 -0.0725,-4.26572 -0.0232,0.093 -0.0424,0.32609 -0.0427,0.51809 -7e-4,0.26509 -0.0212,0.33924 -0.0857,0.30817 -0.0704,-0.0338 -0.0965,-0.29014 -0.15259,-1.49278 -0.0372,-0.79854 -0.0863,-1.45189 -0.1092,-1.45189 -0.0229,0 -0.0416,0.11261 -0.0416,0.25034 0,0.15327 -0.047,0.29593 -0.12134,0.36788 -0.0951,0.0922 -0.12151,0.20519 -0.12209,0.52242 -0.002,0.91595 -0.22967,0.98588 -0.31467,0.0965 -0.0445,-0.46533 -0.0718,-0.55474 -0.16984,-0.55582 -0.0836,-7.1e-4 -0.12472,0.0834 -0.14452,0.2961 -0.0334,0.35915 -0.15326,0.57389 -0.26132,0.46826 -0.0435,-0.0425 -0.10563,-0.32961 -0.13801,-0.63788 -0.0324,-0.3083 -0.0707,-0.55878 -0.0852,-0.55663 -0.0145,0.001 -0.0867,0.13932 -0.16056,0.30481 -0.11474,0.25723 -0.14306,0.45843 -0.19507,1.38585 -0.0453,0.80861 -0.0804,1.09454 -0.13769,1.12264 -0.0622,0.0306 -0.0831,-0.13479 -0.1097,-0.86428 -0.0714,-1.95898 -0.12935,-2.27377 -0.23442,-1.27289 -0.0417,0.39716 -0.0833,0.55641 -0.14544,0.55641 -0.0546,0 -0.087,-0.092 -0.087,-0.24729 0,-0.13596 -0.0204,-0.24729 -0.0452,-0.24729 -0.0496,0 -0.076,0.19303 -0.12257,0.89643 -0.0235,0.3533 -0.0536,0.46366 -0.12679,0.46366 -0.0681,0 -0.10464,-0.10891 -0.12542,-0.37352 -0.0314,-0.39863 -0.09,-0.56689 -0.13415,-0.38475 -0.015,0.0612 -0.0483,2.21817 -0.0744,4.79324 -0.0261,2.57506 -0.0617,6.09211 -0.079,7.81564 l -0.0316,3.13369 -0.1133,-0.0552 c -0.0868,-0.0422 -0.11671,0.006 -0.12786,0.2047 -0.0101,0.17956 -0.0497,0.25987 -0.12829,0.25987 -0.0877,0 -0.12788,-0.10497 -0.17569,-0.45919 -0.0341,-0.25253 -0.0503,-0.48901 -0.0359,-0.52549 0.0143,-0.0365 0.004,-0.0663 -0.0238,-0.0663 -0.0273,0 -0.0693,0.23572 -0.0931,0.52383 -0.0257,0.311 -0.0739,0.5388 -0.11845,0.56067 -0.10147,0.0497 -0.24026,-0.71774 -0.24026,-1.32869 0,-0.53458 -0.0645,-0.72055 -0.17138,-0.49452 -0.0405,0.0858 -0.12315,0.11415 -0.19606,0.0675 -0.10198,-0.0653 -0.13116,-0.0304 -0.15304,0.18276 -0.0201,0.1963 -0.0555,0.24943 -0.13914,0.20873 -0.0661,-0.032 -0.12245,0.0146 -0.13729,0.1126 -0.0559,0.37094 -0.1633,0.15871 -0.19537,-0.3859 -0.0256,-0.43394 -0.0603,-0.58705 -0.16155,-0.71096 -0.10835,-0.13259 -0.14218,-0.30617 -0.21161,-1.08523 -0.11046,-1.23981 -0.13219,-2.11458 -0.1628,-6.55315 -0.0143,-2.07413 -0.0392,-4.60911 -0.0551,-5.63328 l -0.0292,-1.86212 -0.14015,0.0525 c -0.10405,0.0389 -0.14036,0.12048 -0.14092,0.31658 -7e-4,0.35554 -0.0731,0.62444 -0.13944,0.52 -0.0297,-0.0468 -0.0539,-0.17628 -0.0539,-0.28786 0,-0.37005 -0.0896,0.0155 -0.10576,0.45524 -0.0193,0.52205 -0.11991,0.63427 -0.18398,0.20505 -0.0263,-0.17554 -0.0805,-0.31915 -0.12071,-0.31915 -0.0402,0 -0.0844,-0.13902 -0.0983,-0.30912 -0.0138,-0.17001 -0.0365,-0.44822 -0.0503,-0.61821 -0.0382,-0.46751 -0.10438,-0.37085 -0.13422,0.19567 -0.0331,0.62827 -0.0723,0.73549 -0.15871,0.43429 -0.071,-0.24713 -0.0944,-0.18321 -0.12802,0.34893 -0.008,0.13041 -0.0393,0.25772 -0.0691,0.28298 -0.0344,0.0292 -0.0725,-0.32051 -0.10437,-0.95631 -0.0277,-0.55123 -0.0628,-1.03419 -0.0781,-1.07327 -0.0153,-0.039 -0.0667,0.0509 -0.1141,0.20022 -0.0474,0.14916 -0.12988,0.28749 -0.18323,0.30735 -0.10634,0.0396 -0.15454,0.41361 -0.16407,1.2729 -0.004,0.285 -0.0232,0.54562 -0.0445,0.57915 -0.0943,0.14851 -0.14626,-0.17913 -0.17897,-1.12895 -0.0193,-0.56142 -0.0535,-1.04974 -0.0761,-1.08514 -0.0224,-0.0354 -0.0557,0.27089 -0.074,0.68072 -0.0237,0.53351 -0.0532,0.74514 -0.10417,0.74514 -0.0391,0 -0.0824,-0.11069 -0.0963,-0.2459 -0.0306,-0.29841 -0.11128,-0.20453 -0.11128,0.12954 0,0.40193 -0.13449,0.26772 -0.19431,-0.19392 -0.0581,-0.44852 -0.14545,-0.47826 -0.14545,-0.0495 0,0.3609 -0.13856,0.44043 -0.22427,0.12866 -0.12984,-0.47225 -0.2611,-0.26888 -0.2611,0.40459 0,0.47723 -0.15042,1.43381 -0.22546,1.43381 -0.10273,0 -0.21138,-0.76059 -0.21138,-1.47975 0,-0.64867 -0.0793,-0.86682 -0.10598,-0.29171 -0.008,0.18176 -0.0408,0.35177 -0.0719,0.37773 -0.06,0.0501 -0.0861,-0.11606 -0.13556,-0.86277 -0.0615,-0.92819 -0.13329,-0.49802 -0.25287,1.51463 -0.0283,0.47632 -0.0623,0.68006 -0.11319,0.68006 -0.0401,0 -0.0799,-0.12821 -0.0887,-0.28486 -0.009,-0.165 -0.0653,-0.33281 -0.13347,-0.39879 -0.10239,-0.0991 -0.11763,-0.19241 -0.11763,-0.71974 0,-0.86265 -0.0501,-1.3884 -0.14037,-1.47293 -0.043,-0.0402 -0.091,-0.1221 -0.10691,-0.18202 -0.0158,-0.0599 -0.105,0.006 -0.19802,0.14531 l -0.16915,0.25424 -0.057,1.64147 c -0.0313,0.90283 -0.0775,1.82287 -0.10243,2.04455 -0.025,0.2217 -0.0682,2.33468 -0.0961,4.69551 -0.0278,2.36083 -0.0619,5.15483 -0.0754,6.20891 -0.0135,1.05405 -0.0248,2.0697 -0.025,2.25696 -2.6e-4,0.30802 -0.0153,0.33751 -0.15804,0.30911 -0.13559,-0.0269 -0.15998,0.0119 -0.17397,0.27773 -0.0208,0.39371 -0.0894,0.5842 -0.15252,0.42331 -0.0438,-0.11141 -0.0881,-0.9521 -0.0975,-1.84522 -0.004,-0.35318 -0.007,-0.35944 -0.0751,-0.13085 -0.0392,0.13202 -0.0719,0.41023 -0.0728,0.61823 -0.002,0.50092 -0.1119,0.86124 -0.23714,0.77782 -0.0536,-0.0357 -0.12283,0.0132 -0.15377,0.10783 -0.0951,0.29204 -0.23102,0.1974 -0.31575,-0.21995 l -0.0797,-0.39265 -0.0648,0.39265 c -0.0747,0.45224 -0.1412,0.4972 -0.21511,0.14532 -0.0285,-0.13597 -0.0905,-0.24729 -0.13761,-0.24729 -0.0471,0 -0.11323,-0.0695 -0.14693,-0.15455 -0.0491,-0.12384 -0.0708,-0.11142 -0.10919,0.0618 -0.0591,0.26712 -0.22898,0.27918 -0.3707,0.0263 -0.10119,-0.18055 -0.10798,-0.17283 -0.13619,0.15455 -0.0503,0.58365 -0.0648,0.65369 -0.13534,0.65369 -0.0376,0 -0.0813,-0.15301 -0.0973,-0.34003 -0.0505,-0.59179 -0.0951,-0.68287 -0.24766,-0.50579 -0.11793,0.13683 -0.14265,0.1272 -0.20188,-0.0792 -0.0371,-0.12925 -0.0675,-0.36359 -0.0675,-0.5206 0,-0.28977 -0.0676,-0.38341 -0.1202,-0.16654 -0.0277,0.11415 -0.39994,0.0811 -0.4474,-0.0399 -0.0126,-0.0323 -0.035,-0.28714 -0.0498,-0.56642 -0.0147,-0.2793 -0.0491,-0.54308 -0.0765,-0.58619 -0.0275,-0.0431 -0.12222,0.12281 -0.2107,0.36887 -0.13605,0.37816 -0.18922,0.44329 -0.3441,0.42143 l -0.18318,-0.0259 -0.0293,-0.68006 c -0.0161,-0.37401 -0.0535,-1.20862 -0.0831,-1.85465 -0.0296,-0.64603 -0.0781,-3.28894 -0.10781,-5.8731 -0.0425,-3.69757 -0.068,-4.71837 -0.11937,-4.79189 -0.0388,-0.0555 -0.0783,-0.43155 -0.0973,-0.92733 -0.0176,-0.45867 -0.0427,-0.93211 -0.0558,-1.05209 -0.0356,-0.32626 -0.11396,-0.12895 -0.11396,0.28728 0,0.41189 -0.11024,0.49721 -0.19025,0.14726 -0.0454,-0.19849 -0.0495,-0.19909 -0.051,-0.007 -0.002,0.28411 -0.0882,0.39946 -0.16973,0.22712 -0.0531,-0.11237 -0.0702,-0.0847 -0.0828,0.1342 -0.0229,0.39738 -0.12863,0.43059 -0.18426,0.0579 -0.0282,-0.18875 -0.0854,-0.31916 -0.13997,-0.31916 -0.11242,0 -0.19588,-0.23977 -0.24469,-0.70304 -0.0309,-0.29295 -0.0622,-0.34795 -0.19797,-0.34795 -0.13333,0 -0.17479,-0.0692 -0.23906,-0.39902 -0.0427,-0.21947 -0.0919,-0.40029 -0.10913,-0.40185 -0.0172,-0.001 -0.0591,0.47263 -0.0931,1.05368 -0.0789,1.3518 -0.172,1.58238 -0.22585,0.55963 -0.0226,-0.42886 -0.0376,-0.48312 -0.0982,-0.35489 -0.0577,0.12179 -0.0834,0.1101 -0.13236,-0.0604 -0.0877,-0.30536 -0.10347,-0.27358 -0.17142,0.3447 -0.045,0.40889 -0.0855,0.55639 -0.15313,0.55639 -0.0634,0 -0.10104,0.11534 -0.1211,0.37092 -0.0263,0.33439 -0.0473,0.37094 -0.21434,0.37094 -0.10187,0 -0.1987,-0.0555 -0.21518,-0.1234 -0.0164,-0.0679 -0.0428,-0.51481 -0.0585,-0.99315 -0.039,-1.18501 -0.10694,-1.2579 -0.17069,-0.18308 -0.0176,0.29704 -0.18335,0.41828 -0.18335,0.1342 0,-0.2833 -0.0404,-0.24266 -0.20608,0.20732 -0.12394,0.33658 -0.15607,0.55747 -0.19795,1.36009 -0.0407,0.77874 -0.0658,0.95824 -0.13433,0.95824 -0.0696,0 -0.0903,-0.1626 -0.11852,-0.92911 -0.0188,-0.51101 -0.0534,-0.95942 -0.077,-0.99646 -0.0235,-0.0371 -0.0427,-0.0119 -0.0427,0.0555 0,0.0676 -0.0224,0.27295 -0.0498,0.45636 -0.0468,0.31322 -0.0551,0.32113 -0.138,0.13012 -0.0834,-0.19217 -0.0924,-0.17602 -0.16474,0.29281 -0.0789,0.51157 -0.16348,0.63534 -0.21238,0.31072 -0.0441,-0.2925 -0.11463,-0.21638 -0.11463,0.12369 0,0.19233 -0.0275,0.30912 -0.0728,0.30912 -0.04,0 -0.0728,-0.0835 -0.0728,-0.18547 0,-0.29332 -0.0887,-0.21565 -0.10583,0.0927 -0.0109,0.19569 -0.0534,0.28939 -0.14343,0.31595 -0.12575,0.0371 -0.12844,0.0579 -0.16053,1.23645 -0.0433,1.59051 -0.074,2.00235 -0.14902,2.00235 -0.0618,0 -0.0722,-0.15735 -0.14972,-2.2565 -0.017,-0.45903 -0.0476,-0.83459 -0.0679,-0.83459 -0.0204,0 -0.0467,0.34133 -0.0586,0.75848 -0.0136,0.48149 -0.0483,0.80884 -0.095,0.89642 -0.14998,0.28166 -0.18103,0.70552 -0.23704,3.23598 -0.0315,1.42427 -0.0748,2.6376 -0.0962,2.69628 -0.0803,0.22066 -0.14453,-0.0811 -0.14921,-0.70129 -0.003,-0.353 -0.0208,-0.78094 -0.0403,-0.95094 l -0.0355,-0.30912 -0.0296,0.37094 c -0.0163,0.20401 -0.0441,1.38881 -0.0617,2.63289 -0.0177,1.24407 -0.0574,2.71852 -0.0885,3.27655 -0.0497,0.89321 -0.0691,1.01923 -0.16172,1.05306 -0.0714,0.0261 -0.11534,0.15528 -0.13662,0.40185 -0.0206,0.23918 -0.0614,0.36341 -0.11935,0.36341 -0.0927,0 -0.14694,0.23207 -0.14694,0.62832 0,0.1496 -0.0336,0.23717 -0.0911,0.23717 -0.11594,0 -0.18012,-0.20466 -0.22249,-0.70952 -0.0468,-0.55748 -0.11188,-0.60964 -0.16162,-0.12954 -0.0384,0.37151 -0.0563,0.40274 -0.20811,0.36526 -0.21233,-0.0525 -0.23338,-0.11081 -0.27759,-0.7705 -0.0415,-0.62036 -0.1732,-0.81516 -0.22924,-0.33925 -0.0184,0.15689 -0.0744,0.3687 -0.12431,0.4707 -0.0629,0.12851 -0.10781,0.47971 -0.14634,1.1437 -0.0688,1.18387 -0.16827,1.30002 -0.21193,0.2473 z"
         id="path3405-9-7"
         inkscape:export-filename="/home/dario/Work/proj_glove/adaptation/article/figures/oh_2019_a.png"
         inkscape:export-xdpi="600"
         inkscape:export-ydpi="600" />
    </g>
  </g>
</svg>
