<?xml version="1.0" encoding="UTF-8" standalone="no"?>
<!-- Created with matplotlib (https://matplotlib.org/) -->

<svg
   height="216pt"
   version="1.1"
   viewBox="0 0 288 216"
   width="288pt"
   id="svg419"
   sodipodi:docname="figure_3.svg"
   inkscape:version="1.1 (1:1.1+202105261517+ce6663b3b7)"
   inkscape:export-filename="/home/dario/Work/proj_glove/adaptation/article/figures/figure_3.png"
   inkscape:export-xdpi="600"
   inkscape:export-ydpi="600"
   xmlns:inkscape="http://www.inkscape.org/namespaces/inkscape"
   xmlns:sodipodi="http://sodipodi.sourceforge.net/DTD/sodipodi-0.dtd"
   xmlns:xlink="http://www.w3.org/1999/xlink"
   xmlns="http://www.w3.org/2000/svg"
   xmlns:svg="http://www.w3.org/2000/svg"
   xmlns:rdf="http://www.w3.org/1999/02/22-rdf-syntax-ns#"
   xmlns:cc="http://creativecommons.org/ns#"
   xmlns:dc="http://purl.org/dc/elements/1.1/">
  <sodipodi:namedview
     id="namedview421"
     pagecolor="#ffffff"
     bordercolor="#666666"
     borderopacity="1.0"
     inkscape:pageshadow="2"
     inkscape:pageopacity="0.0"
     inkscape:pagecheckerboard="0"
     inkscape:document-units="pt"
     showgrid="false"
     inkscape:zoom="1.4878472"
     inkscape:cx="264.14002"
     inkscape:cy="60.490082"
     inkscape:window-width="1920"
     inkscape:window-height="1023"
     inkscape:window-x="0"
     inkscape:window-y="0"
     inkscape:window-maximized="1"
     inkscape:current-layer="svg419" />
  <metadata
     id="metadata2">
    <rdf:RDF>
      <cc:Work>
        <dc:type
           rdf:resource="http://purl.org/dc/dcmitype/StillImage" />
        <dc:date>2021-08-20T15:28:21.445299</dc:date>
        <dc:format>image/svg+xml</dc:format>
        <dc:creator>
          <cc:Agent>
            <dc:title>Matplotlib v3.3.4, https://matplotlib.org/</dc:title>
          </cc:Agent>
        </dc:creator>
      </cc:Work>
    </rdf:RDF>
  </metadata>
  <defs
     id="defs6">
    <style
       type="text/css"
       id="style4">*{stroke-linecap:butt;stroke-linejoin:round;}</style>
  </defs>
  <g
     id="figure_1">
    <g
       id="patch_1">
      <path
         d="M 0 216  L 288 216  L 288 0  L 0 0  z "
         style="fill:#ffffff;"
         id="path8" />
    </g>
    <g
       id="axes_1">
      <g
         id="patch_2">
        <path
           d="M 38.27 174.04  L 143.027017 174.04  L 143.027017 28.8409  L 38.27 28.8409  z "
           style="fill:#ffffff;"
           id="path11" />
      </g>
      <g
         id="matplotlib.axis_1">
        <g
           id="xtick_1">
          <g
             id="line2d_1">
            <defs
               id="defs15">
              <path
                 d="M 0 0  L 0 3.5  "
                 id="m326e7ccd16"
                 style="stroke:#000000;stroke-width:0.8;" />
            </defs>
            <g
               id="g19">
              <use
                 style="stroke:#000000;stroke-width:0.8;"
                 x="43.031683"
                 xlink:href="#m326e7ccd16"
                 y="174.04"
                 id="use17" />
            </g>
          </g>
          <g
             id="text_1">
            <!-- 0 -->
            <g
               transform="translate(39.850433 188.638438)scale(0.1 -0.1)"
               id="g27">
              <defs
                 id="defs23">
                <path
                   d="M 31.78125 66.40625  Q 24.171875 66.40625 20.328125 58.90625  Q 16.5 51.421875 16.5 36.375  Q 16.5 21.390625 20.328125 13.890625  Q 24.171875 6.390625 31.78125 6.390625  Q 39.453125 6.390625 43.28125 13.890625  Q 47.125 21.390625 47.125 36.375  Q 47.125 51.421875 43.28125 58.90625  Q 39.453125 66.40625 31.78125 66.40625  z M 31.78125 74.21875  Q 44.046875 74.21875 50.515625 64.515625  Q 56.984375 54.828125 56.984375 36.375  Q 56.984375 17.96875 50.515625 8.265625  Q 44.046875 -1.421875 31.78125 -1.421875  Q 19.53125 -1.421875 13.0625 8.265625  Q 6.59375 17.96875 6.59375 36.375  Q 6.59375 54.828125 13.0625 64.515625  Q 19.53125 74.21875 31.78125 74.21875  z "
                   id="DejaVuSans-48" />
              </defs>
              <use
                 xlink:href="#DejaVuSans-48"
                 id="use25" />
            </g>
          </g>
        </g>
        <g
           id="xtick_2">
          <g
             id="line2d_2">
            <g
               id="g33">
              <use
                 style="stroke:#000000;stroke-width:0.8;"
                 x="91.869453"
                 xlink:href="#m326e7ccd16"
                 y="174.04"
                 id="use31" />
            </g>
          </g>
          <g
             id="text_2">
            <!-- 20 -->
            <g
               transform="translate(85.506953 188.638438)scale(0.1 -0.1)"
               id="g43">
              <defs
                 id="defs37">
                <path
                   d="M 19.1875 8.296875  L 53.609375 8.296875  L 53.609375 0  L 7.328125 0  L 7.328125 8.296875  Q 12.9375 14.109375 22.625 23.890625  Q 32.328125 33.6875 34.8125 36.53125  Q 39.546875 41.84375 41.421875 45.53125  Q 43.3125 49.21875 43.3125 52.78125  Q 43.3125 58.59375 39.234375 62.25  Q 35.15625 65.921875 28.609375 65.921875  Q 23.96875 65.921875 18.8125 64.3125  Q 13.671875 62.703125 7.8125 59.421875  L 7.8125 69.390625  Q 13.765625 71.78125 18.9375 73  Q 24.125 74.21875 28.421875 74.21875  Q 39.75 74.21875 46.484375 68.546875  Q 53.21875 62.890625 53.21875 53.421875  Q 53.21875 48.921875 51.53125 44.890625  Q 49.859375 40.875 45.40625 35.40625  Q 44.1875 33.984375 37.640625 27.21875  Q 31.109375 20.453125 19.1875 8.296875  z "
                   id="DejaVuSans-50" />
              </defs>
              <use
                 xlink:href="#DejaVuSans-50"
                 id="use39" />
              <use
                 x="63.623047"
                 xlink:href="#DejaVuSans-48"
                 id="use41" />
            </g>
          </g>
        </g>
        <g
           id="xtick_3">
          <g
             id="line2d_3">
            <g
               id="g49">
              <use
                 style="stroke:#000000;stroke-width:0.8;"
                 x="140.707223"
                 xlink:href="#m326e7ccd16"
                 y="174.04"
                 id="use47" />
            </g>
          </g>
          <g
             id="text_3">
            <!-- 40 -->
            <g
               transform="translate(134.344723 188.638438)scale(0.1 -0.1)"
               id="g59">
              <defs
                 id="defs53">
                <path
                   d="M 37.796875 64.3125  L 12.890625 25.390625  L 37.796875 25.390625  z M 35.203125 72.90625  L 47.609375 72.90625  L 47.609375 25.390625  L 58.015625 25.390625  L 58.015625 17.1875  L 47.609375 17.1875  L 47.609375 0  L 37.796875 0  L 37.796875 17.1875  L 4.890625 17.1875  L 4.890625 26.703125  z "
                   id="DejaVuSans-52" />
              </defs>
              <use
                 xlink:href="#DejaVuSans-52"
                 id="use55" />
              <use
                 x="63.623047"
                 xlink:href="#DejaVuSans-48"
                 id="use57" />
            </g>
          </g>
        </g>
        <g
           id="text_4">
          <!-- Trials after switch -->
          <g
             transform="translate(46.86179 202.316563)scale(0.1 -0.1)"
             id="g116">
            <defs
               id="defs76">
              <path
                 d="M -0.296875 72.90625  L 61.375 72.90625  L 61.375 64.59375  L 35.5 64.59375  L 35.5 0  L 25.59375 0  L 25.59375 64.59375  L -0.296875 64.59375  z "
                 id="DejaVuSans-84" />
              <path
                 d="M 41.109375 46.296875  Q 39.59375 47.171875 37.8125 47.578125  Q 36.03125 48 33.890625 48  Q 26.265625 48 22.1875 43.046875  Q 18.109375 38.09375 18.109375 28.8125  L 18.109375 0  L 9.078125 0  L 9.078125 54.6875  L 18.109375 54.6875  L 18.109375 46.1875  Q 20.953125 51.171875 25.484375 53.578125  Q 30.03125 56 36.53125 56  Q 37.453125 56 38.578125 55.875  Q 39.703125 55.765625 41.0625 55.515625  z "
                 id="DejaVuSans-114" />
              <path
                 d="M 9.421875 54.6875  L 18.40625 54.6875  L 18.40625 0  L 9.421875 0  z M 9.421875 75.984375  L 18.40625 75.984375  L 18.40625 64.59375  L 9.421875 64.59375  z "
                 id="DejaVuSans-105" />
              <path
                 d="M 34.28125 27.484375  Q 23.390625 27.484375 19.1875 25  Q 14.984375 22.515625 14.984375 16.5  Q 14.984375 11.71875 18.140625 8.90625  Q 21.296875 6.109375 26.703125 6.109375  Q 34.1875 6.109375 38.703125 11.40625  Q 43.21875 16.703125 43.21875 25.484375  L 43.21875 27.484375  z M 52.203125 31.203125  L 52.203125 0  L 43.21875 0  L 43.21875 8.296875  Q 40.140625 3.328125 35.546875 0.953125  Q 30.953125 -1.421875 24.3125 -1.421875  Q 15.921875 -1.421875 10.953125 3.296875  Q 6 8.015625 6 15.921875  Q 6 25.140625 12.171875 29.828125  Q 18.359375 34.515625 30.609375 34.515625  L 43.21875 34.515625  L 43.21875 35.40625  Q 43.21875 41.609375 39.140625 45  Q 35.0625 48.390625 27.6875 48.390625  Q 23 48.390625 18.546875 47.265625  Q 14.109375 46.140625 10.015625 43.890625  L 10.015625 52.203125  Q 14.9375 54.109375 19.578125 55.046875  Q 24.21875 56 28.609375 56  Q 40.484375 56 46.34375 49.84375  Q 52.203125 43.703125 52.203125 31.203125  z "
                 id="DejaVuSans-97" />
              <path
                 d="M 9.421875 75.984375  L 18.40625 75.984375  L 18.40625 0  L 9.421875 0  z "
                 id="DejaVuSans-108" />
              <path
                 d="M 44.28125 53.078125  L 44.28125 44.578125  Q 40.484375 46.53125 36.375 47.5  Q 32.28125 48.484375 27.875 48.484375  Q 21.1875 48.484375 17.84375 46.4375  Q 14.5 44.390625 14.5 40.28125  Q 14.5 37.15625 16.890625 35.375  Q 19.28125 33.59375 26.515625 31.984375  L 29.59375 31.296875  Q 39.15625 29.25 43.1875 25.515625  Q 47.21875 21.78125 47.21875 15.09375  Q 47.21875 7.46875 41.1875 3.015625  Q 35.15625 -1.421875 24.609375 -1.421875  Q 20.21875 -1.421875 15.453125 -0.5625  Q 10.6875 0.296875 5.421875 2  L 5.421875 11.28125  Q 10.40625 8.6875 15.234375 7.390625  Q 20.0625 6.109375 24.8125 6.109375  Q 31.15625 6.109375 34.5625 8.28125  Q 37.984375 10.453125 37.984375 14.40625  Q 37.984375 18.0625 35.515625 20.015625  Q 33.0625 21.96875 24.703125 23.78125  L 21.578125 24.515625  Q 13.234375 26.265625 9.515625 29.90625  Q 5.8125 33.546875 5.8125 39.890625  Q 5.8125 47.609375 11.28125 51.796875  Q 16.75 56 26.8125 56  Q 31.78125 56 36.171875 55.265625  Q 40.578125 54.546875 44.28125 53.078125  z "
                 id="DejaVuSans-115" />
              <path
                 id="DejaVuSans-32" />
              <path
                 d="M 37.109375 75.984375  L 37.109375 68.5  L 28.515625 68.5  Q 23.6875 68.5 21.796875 66.546875  Q 19.921875 64.59375 19.921875 59.515625  L 19.921875 54.6875  L 34.71875 54.6875  L 34.71875 47.703125  L 19.921875 47.703125  L 19.921875 0  L 10.890625 0  L 10.890625 47.703125  L 2.296875 47.703125  L 2.296875 54.6875  L 10.890625 54.6875  L 10.890625 58.5  Q 10.890625 67.625 15.140625 71.796875  Q 19.390625 75.984375 28.609375 75.984375  z "
                 id="DejaVuSans-102" />
              <path
                 d="M 18.3125 70.21875  L 18.3125 54.6875  L 36.8125 54.6875  L 36.8125 47.703125  L 18.3125 47.703125  L 18.3125 18.015625  Q 18.3125 11.328125 20.140625 9.421875  Q 21.96875 7.515625 27.59375 7.515625  L 36.8125 7.515625  L 36.8125 0  L 27.59375 0  Q 17.1875 0 13.234375 3.875  Q 9.28125 7.765625 9.28125 18.015625  L 9.28125 47.703125  L 2.6875 47.703125  L 2.6875 54.6875  L 9.28125 54.6875  L 9.28125 70.21875  z "
                 id="DejaVuSans-116" />
              <path
                 d="M 56.203125 29.59375  L 56.203125 25.203125  L 14.890625 25.203125  Q 15.484375 15.921875 20.484375 11.0625  Q 25.484375 6.203125 34.421875 6.203125  Q 39.59375 6.203125 44.453125 7.46875  Q 49.3125 8.734375 54.109375 11.28125  L 54.109375 2.78125  Q 49.265625 0.734375 44.1875 -0.34375  Q 39.109375 -1.421875 33.890625 -1.421875  Q 20.796875 -1.421875 13.15625 6.1875  Q 5.515625 13.8125 5.515625 26.8125  Q 5.515625 40.234375 12.765625 48.109375  Q 20.015625 56 32.328125 56  Q 43.359375 56 49.78125 48.890625  Q 56.203125 41.796875 56.203125 29.59375  z M 47.21875 32.234375  Q 47.125 39.59375 43.09375 43.984375  Q 39.0625 48.390625 32.421875 48.390625  Q 24.90625 48.390625 20.390625 44.140625  Q 15.875 39.890625 15.1875 32.171875  z "
                 id="DejaVuSans-101" />
              <path
                 d="M 4.203125 54.6875  L 13.1875 54.6875  L 24.421875 12.015625  L 35.59375 54.6875  L 46.1875 54.6875  L 57.421875 12.015625  L 68.609375 54.6875  L 77.59375 54.6875  L 63.28125 0  L 52.6875 0  L 40.921875 44.828125  L 29.109375 0  L 18.5 0  z "
                 id="DejaVuSans-119" />
              <path
                 d="M 48.78125 52.59375  L 48.78125 44.1875  Q 44.96875 46.296875 41.140625 47.34375  Q 37.3125 48.390625 33.40625 48.390625  Q 24.65625 48.390625 19.8125 42.84375  Q 14.984375 37.3125 14.984375 27.296875  Q 14.984375 17.28125 19.8125 11.734375  Q 24.65625 6.203125 33.40625 6.203125  Q 37.3125 6.203125 41.140625 7.25  Q 44.96875 8.296875 48.78125 10.40625  L 48.78125 2.09375  Q 45.015625 0.34375 40.984375 -0.53125  Q 36.96875 -1.421875 32.421875 -1.421875  Q 20.0625 -1.421875 12.78125 6.34375  Q 5.515625 14.109375 5.515625 27.296875  Q 5.515625 40.671875 12.859375 48.328125  Q 20.21875 56 33.015625 56  Q 37.15625 56 41.109375 55.140625  Q 45.0625 54.296875 48.78125 52.59375  z "
                 id="DejaVuSans-99" />
              <path
                 d="M 54.890625 33.015625  L 54.890625 0  L 45.90625 0  L 45.90625 32.71875  Q 45.90625 40.484375 42.875 44.328125  Q 39.84375 48.1875 33.796875 48.1875  Q 26.515625 48.1875 22.3125 43.546875  Q 18.109375 38.921875 18.109375 30.90625  L 18.109375 0  L 9.078125 0  L 9.078125 75.984375  L 18.109375 75.984375  L 18.109375 46.1875  Q 21.34375 51.125 25.703125 53.5625  Q 30.078125 56 35.796875 56  Q 45.21875 56 50.046875 50.171875  Q 54.890625 44.34375 54.890625 33.015625  z "
                 id="DejaVuSans-104" />
            </defs>
            <use
               xlink:href="#DejaVuSans-84"
               id="use78" />
            <use
               x="46.333984"
               xlink:href="#DejaVuSans-114"
               id="use80" />
            <use
               x="87.447266"
               xlink:href="#DejaVuSans-105"
               id="use82" />
            <use
               x="115.230469"
               xlink:href="#DejaVuSans-97"
               id="use84" />
            <use
               x="176.509766"
               xlink:href="#DejaVuSans-108"
               id="use86" />
            <use
               x="204.292969"
               xlink:href="#DejaVuSans-115"
               id="use88" />
            <use
               x="256.392578"
               xlink:href="#DejaVuSans-32"
               id="use90" />
            <use
               x="288.179688"
               xlink:href="#DejaVuSans-97"
               id="use92" />
            <use
               x="349.458984"
               xlink:href="#DejaVuSans-102"
               id="use94" />
            <use
               x="382.914062"
               xlink:href="#DejaVuSans-116"
               id="use96" />
            <use
               x="422.123047"
               xlink:href="#DejaVuSans-101"
               id="use98" />
            <use
               x="483.646484"
               xlink:href="#DejaVuSans-114"
               id="use100" />
            <use
               x="524.759766"
               xlink:href="#DejaVuSans-32"
               id="use102" />
            <use
               x="556.546875"
               xlink:href="#DejaVuSans-115"
               id="use104" />
            <use
               x="608.646484"
               xlink:href="#DejaVuSans-119"
               id="use106" />
            <use
               x="690.433594"
               xlink:href="#DejaVuSans-105"
               id="use108" />
            <use
               x="718.216797"
               xlink:href="#DejaVuSans-116"
               id="use110" />
            <use
               x="757.425781"
               xlink:href="#DejaVuSans-99"
               id="use112" />
            <use
               x="812.40625"
               xlink:href="#DejaVuSans-104"
               id="use114" />
          </g>
        </g>
      </g>
      <g
         id="matplotlib.axis_2">
        <g
           id="ytick_1">
          <g
             id="line2d_4">
            <defs
               id="defs121">
              <path
                 d="M 0 0  L -3.5 0  "
                 id="m0842faa31a"
                 style="stroke:#000000;stroke-width:0.8;" />
            </defs>
            <g
               id="g125">
              <use
                 style="stroke:#000000;stroke-width:0.8;"
                 x="38.27"
                 xlink:href="#m0842faa31a"
                 y="168.130383"
                 id="use123" />
            </g>
          </g>
          <g
             id="text_5">
            <!-- 0 -->
            <g
               transform="translate(24.9075 171.929602)scale(0.1 -0.1)"
               id="g130">
              <use
                 xlink:href="#DejaVuSans-48"
                 id="use128" />
            </g>
          </g>
        </g>
        <g
           id="ytick_2">
          <g
             id="line2d_5">
            <g
               id="g136">
              <use
                 style="stroke:#000000;stroke-width:0.8;"
                 x="38.27"
                 xlink:href="#m0842faa31a"
                 y="134.777911"
                 id="use134" />
            </g>
          </g>
          <g
             id="text_6">
            <!-- 2 -->
            <g
               transform="translate(24.9075 138.57713)scale(0.1 -0.1)"
               id="g141">
              <use
                 xlink:href="#DejaVuSans-50"
                 id="use139" />
            </g>
          </g>
        </g>
        <g
           id="ytick_3">
          <g
             id="line2d_6">
            <g
               id="g147">
              <use
                 style="stroke:#000000;stroke-width:0.8;"
                 x="38.27"
                 xlink:href="#m0842faa31a"
                 y="101.425439"
                 id="use145" />
            </g>
          </g>
          <g
             id="text_7">
            <!-- 4 -->
            <g
               transform="translate(24.9075 105.224658)scale(0.1 -0.1)"
               id="g152">
              <use
                 xlink:href="#DejaVuSans-52"
                 id="use150" />
            </g>
          </g>
        </g>
        <g
           id="ytick_4">
          <g
             id="line2d_7">
            <g
               id="g158">
              <use
                 style="stroke:#000000;stroke-width:0.8;"
                 x="38.27"
                 xlink:href="#m0842faa31a"
                 y="68.072967"
                 id="use156" />
            </g>
          </g>
          <g
             id="text_8">
            <!-- 6 -->
            <g
               transform="translate(24.9075 71.872186)scale(0.1 -0.1)"
               id="g166">
              <defs
                 id="defs162">
                <path
                   d="M 33.015625 40.375  Q 26.375 40.375 22.484375 35.828125  Q 18.609375 31.296875 18.609375 23.390625  Q 18.609375 15.53125 22.484375 10.953125  Q 26.375 6.390625 33.015625 6.390625  Q 39.65625 6.390625 43.53125 10.953125  Q 47.40625 15.53125 47.40625 23.390625  Q 47.40625 31.296875 43.53125 35.828125  Q 39.65625 40.375 33.015625 40.375  z M 52.59375 71.296875  L 52.59375 62.3125  Q 48.875 64.0625 45.09375 64.984375  Q 41.3125 65.921875 37.59375 65.921875  Q 27.828125 65.921875 22.671875 59.328125  Q 17.53125 52.734375 16.796875 39.40625  Q 19.671875 43.65625 24.015625 45.921875  Q 28.375 48.1875 33.59375 48.1875  Q 44.578125 48.1875 50.953125 41.515625  Q 57.328125 34.859375 57.328125 23.390625  Q 57.328125 12.15625 50.6875 5.359375  Q 44.046875 -1.421875 33.015625 -1.421875  Q 20.359375 -1.421875 13.671875 8.265625  Q 6.984375 17.96875 6.984375 36.375  Q 6.984375 53.65625 15.1875 63.9375  Q 23.390625 74.21875 37.203125 74.21875  Q 40.921875 74.21875 44.703125 73.484375  Q 48.484375 72.75 52.59375 71.296875  z "
                   id="DejaVuSans-54" />
              </defs>
              <use
                 xlink:href="#DejaVuSans-54"
                 id="use164" />
            </g>
          </g>
        </g>
        <g
           id="ytick_5">
          <g
             id="line2d_8">
            <g
               id="g172">
              <use
                 style="stroke:#000000;stroke-width:0.8;"
                 x="38.27"
                 xlink:href="#m0842faa31a"
                 y="34.720495"
                 id="use170" />
            </g>
          </g>
          <g
             id="text_9">
            <!-- 8 -->
            <g
               transform="translate(24.9075 38.519714)scale(0.1 -0.1)"
               id="g180">
              <defs
                 id="defs176">
                <path
                   d="M 31.78125 34.625  Q 24.75 34.625 20.71875 30.859375  Q 16.703125 27.09375 16.703125 20.515625  Q 16.703125 13.921875 20.71875 10.15625  Q 24.75 6.390625 31.78125 6.390625  Q 38.8125 6.390625 42.859375 10.171875  Q 46.921875 13.96875 46.921875 20.515625  Q 46.921875 27.09375 42.890625 30.859375  Q 38.875 34.625 31.78125 34.625  z M 21.921875 38.8125  Q 15.578125 40.375 12.03125 44.71875  Q 8.5 49.078125 8.5 55.328125  Q 8.5 64.0625 14.71875 69.140625  Q 20.953125 74.21875 31.78125 74.21875  Q 42.671875 74.21875 48.875 69.140625  Q 55.078125 64.0625 55.078125 55.328125  Q 55.078125 49.078125 51.53125 44.71875  Q 48 40.375 41.703125 38.8125  Q 48.828125 37.15625 52.796875 32.3125  Q 56.78125 27.484375 56.78125 20.515625  Q 56.78125 9.90625 50.3125 4.234375  Q 43.84375 -1.421875 31.78125 -1.421875  Q 19.734375 -1.421875 13.25 4.234375  Q 6.78125 9.90625 6.78125 20.515625  Q 6.78125 27.484375 10.78125 32.3125  Q 14.796875 37.15625 21.921875 38.8125  z M 18.3125 54.390625  Q 18.3125 48.734375 21.84375 45.5625  Q 25.390625 42.390625 31.78125 42.390625  Q 38.140625 42.390625 41.71875 45.5625  Q 45.3125 48.734375 45.3125 54.390625  Q 45.3125 60.0625 41.71875 63.234375  Q 38.140625 66.40625 31.78125 66.40625  Q 25.390625 66.40625 21.84375 63.234375  Q 18.3125 60.0625 18.3125 54.390625  z "
                   id="DejaVuSans-56" />
              </defs>
              <use
                 xlink:href="#DejaVuSans-56"
                 id="use178" />
            </g>
          </g>
        </g>
        <g
           id="text_10">
          <!-- Error (a.u.) -->
          <g
             transform="translate(18.827813 128.527169)rotate(-90)scale(0.1 -0.1)"
             id="g216">
            <defs
               id="defs190">
              <path
                 d="M 9.8125 72.90625  L 55.90625 72.90625  L 55.90625 64.59375  L 19.671875 64.59375  L 19.671875 43.015625  L 54.390625 43.015625  L 54.390625 34.71875  L 19.671875 34.71875  L 19.671875 8.296875  L 56.78125 8.296875  L 56.78125 0  L 9.8125 0  z "
                 id="DejaVuSans-69" />
              <path
                 d="M 30.609375 48.390625  Q 23.390625 48.390625 19.1875 42.75  Q 14.984375 37.109375 14.984375 27.296875  Q 14.984375 17.484375 19.15625 11.84375  Q 23.34375 6.203125 30.609375 6.203125  Q 37.796875 6.203125 41.984375 11.859375  Q 46.1875 17.53125 46.1875 27.296875  Q 46.1875 37.015625 41.984375 42.703125  Q 37.796875 48.390625 30.609375 48.390625  z M 30.609375 56  Q 42.328125 56 49.015625 48.375  Q 55.71875 40.765625 55.71875 27.296875  Q 55.71875 13.875 49.015625 6.21875  Q 42.328125 -1.421875 30.609375 -1.421875  Q 18.84375 -1.421875 12.171875 6.21875  Q 5.515625 13.875 5.515625 27.296875  Q 5.515625 40.765625 12.171875 48.375  Q 18.84375 56 30.609375 56  z "
                 id="DejaVuSans-111" />
              <path
                 d="M 31 75.875  Q 24.46875 64.65625 21.28125 53.65625  Q 18.109375 42.671875 18.109375 31.390625  Q 18.109375 20.125 21.3125 9.0625  Q 24.515625 -2 31 -13.1875  L 23.1875 -13.1875  Q 15.875 -1.703125 12.234375 9.375  Q 8.59375 20.453125 8.59375 31.390625  Q 8.59375 42.28125 12.203125 53.3125  Q 15.828125 64.359375 23.1875 75.875  z "
                 id="DejaVuSans-40" />
              <path
                 d="M 10.6875 12.40625  L 21 12.40625  L 21 0  L 10.6875 0  z "
                 id="DejaVuSans-46" />
              <path
                 d="M 8.5 21.578125  L 8.5 54.6875  L 17.484375 54.6875  L 17.484375 21.921875  Q 17.484375 14.15625 20.5 10.265625  Q 23.53125 6.390625 29.59375 6.390625  Q 36.859375 6.390625 41.078125 11.03125  Q 45.3125 15.671875 45.3125 23.6875  L 45.3125 54.6875  L 54.296875 54.6875  L 54.296875 0  L 45.3125 0  L 45.3125 8.40625  Q 42.046875 3.421875 37.71875 1  Q 33.40625 -1.421875 27.6875 -1.421875  Q 18.265625 -1.421875 13.375 4.4375  Q 8.5 10.296875 8.5 21.578125  z M 31.109375 56  z "
                 id="DejaVuSans-117" />
              <path
                 d="M 8.015625 75.875  L 15.828125 75.875  Q 23.140625 64.359375 26.78125 53.3125  Q 30.421875 42.28125 30.421875 31.390625  Q 30.421875 20.453125 26.78125 9.375  Q 23.140625 -1.703125 15.828125 -13.1875  L 8.015625 -13.1875  Q 14.5 -2 17.703125 9.0625  Q 20.90625 20.125 20.90625 31.390625  Q 20.90625 42.671875 17.703125 53.65625  Q 14.5 64.65625 8.015625 75.875  z "
                 id="DejaVuSans-41" />
            </defs>
            <use
               xlink:href="#DejaVuSans-69"
               id="use192" />
            <use
               x="63.183594"
               xlink:href="#DejaVuSans-114"
               id="use194" />
            <use
               x="102.546875"
               xlink:href="#DejaVuSans-114"
               id="use196" />
            <use
               x="141.410156"
               xlink:href="#DejaVuSans-111"
               id="use198" />
            <use
               x="202.591797"
               xlink:href="#DejaVuSans-114"
               id="use200" />
            <use
               x="243.705078"
               xlink:href="#DejaVuSans-32"
               id="use202" />
            <use
               x="275.492188"
               xlink:href="#DejaVuSans-40"
               id="use204" />
            <use
               x="314.505859"
               xlink:href="#DejaVuSans-97"
               id="use206" />
            <use
               x="375.785156"
               xlink:href="#DejaVuSans-46"
               id="use208" />
            <use
               x="407.572266"
               xlink:href="#DejaVuSans-117"
               id="use210" />
            <use
               x="470.951172"
               xlink:href="#DejaVuSans-46"
               id="use212" />
            <use
               x="502.738281"
               xlink:href="#DejaVuSans-41"
               id="use214" />
          </g>
        </g>
      </g>
      <g
         id="line2d_9">
        <path
           clip-path="url(#p99dbc3ce72)"
           d="M 43.031683 38.274311  L 45.473571 35.440859  L 47.91546 58.498371  L 50.357348 56.663148  L 52.799237 67.357426  L 55.241125 104.101193  L 57.683014 104.064253  L 60.124902 116.785  L 62.566791 121.661618  L 65.008679 116.625539  L 67.450568 143.018622  L 69.892456 150.527152  L 72.334345 154.435456  L 74.776233 150.918415  L 77.218122 157.698115  L 79.66001 152.690902  L 82.101899 145.946814  L 84.543787 147.68034  L 86.985676 157.681615  L 89.427564 157.357476  L 91.869453 146.370935  L 94.311341 141.078809  L 96.75323 157.826364  L 99.195118 161.975235  L 101.637007 167.440041  L 104.078895 155.847999  L 106.520784 147.789347  L 108.962672 156.719297  L 111.404561 149.611034  L 113.846449 152.047564  L 116.288338 162.450877  L 118.730226 163.656497  L 121.172115 159.865516  L 123.614003 162.600262  L 126.055892 160.316304  L 128.49778 164.934287  L 130.939669 152.343808  L 133.381557 164.129149  L 135.823446 158.943909  L 138.265334 160.476986  "
           style="fill:none;stroke:#5f6dd3;stroke-linecap:square;stroke-width:1.5;"
           id="path220" />
      </g>
      <g
         id="line2d_10">
        <path
           clip-path="url(#p99dbc3ce72)"
           d="M 43.031683 44.04292  L 45.473571 58.222233  L 47.91546 53.865093  L 50.357348 73.237161  L 52.799237 77.505437  L 55.241125 117.719882  L 57.683014 142.036792  L 60.124902 143.999688  L 62.566791 155.528343  L 65.008679 166.918913  L 67.450568 161.083771  L 69.892456 145.09375  L 72.334345 145.566204  L 74.776233 152.376812  L 77.218122 152.838686  L 79.66001 146.832916  L 82.101899 159.813734  L 84.543787 161.233346  L 86.985676 132.831952  L 89.427564 161.950624  L 91.869453 157.018081  L 94.311341 159.42853  L 96.75323 166.496664  L 99.195118 164.408064  L 101.637007 164.361963  L 104.078895 162.346653  L 106.520784 148.189575  L 108.962672 166.891648  L 111.404561 156.852318  L 113.846449 163.776847  L 116.288338 163.261411  L 118.730226 166.303682  L 121.172115 159.800778  L 123.614003 158.282532  L 126.055892 164.823222  L 128.49778 163.930547  L 130.939669 156.168619  L 133.381557 164.228523  L 135.823446 162.562238  L 138.265334 163.170378  "
           style="fill:none;stroke:#d3c55f;stroke-linecap:square;stroke-width:1.5;"
           id="path223" />
      </g>
      <g
         id="patch_3">
        <path
           d="M 38.27 174.04  L 38.27 28.8409  "
           style="fill:none;stroke:#000000;stroke-linecap:square;stroke-linejoin:miter;stroke-width:0.8;"
           id="path226" />
      </g>
      <g
         id="patch_4">
        <path
           d="M 143.027017 174.04  L 143.027017 28.8409  "
           style="fill:none;stroke:#000000;stroke-linecap:square;stroke-linejoin:miter;stroke-width:0.8;"
           id="path229" />
      </g>
      <g
         id="patch_5">
        <path
           d="M 38.27 174.04  L 143.027017 174.04  "
           style="fill:none;stroke:#000000;stroke-linecap:square;stroke-linejoin:miter;stroke-width:0.8;"
           id="path232" />
      </g>
      <g
         id="patch_6">
        <path
           d="M 38.27 28.8409  L 143.027017 28.8409  "
           style="fill:none;stroke:#000000;stroke-linecap:square;stroke-linejoin:miter;stroke-width:0.8;"
           id="path235" />
      </g>
      <g
         id="text_11">
        <!-- A -->
        <g
           transform="translate(27.794298 21.580945)scale(0.14 -0.14)"
           id="g243">
          <defs
             id="defs239">
            <path
               d="M 34.1875 63.1875  L 20.796875 26.90625  L 47.609375 26.90625  z M 28.609375 72.90625  L 39.796875 72.90625  L 67.578125 0  L 57.328125 0  L 50.6875 18.703125  L 17.828125 18.703125  L 11.1875 0  L 0.78125 0  z "
               id="DejaVuSans-65" />
          </defs>
          <use
             xlink:href="#DejaVuSans-65"
             id="use241" />
        </g>
      </g>
      <g
         id="legend_1">
        <g
           id="patch_7">
          <path
             d="M 89.284829 66.19715  L 136.027017 66.19715  Q 138.027017 66.19715 138.027017 64.19715  L 138.027017 35.8409  Q 138.027017 33.8409 136.027017 33.8409  L 89.284829 33.8409  Q 87.284829 33.8409 87.284829 35.8409  L 87.284829 64.19715  Q 87.284829 66.19715 89.284829 66.19715  z "
             style="fill:#ffffff;opacity:0.8;stroke:#cccccc;stroke-linejoin:miter;"
             id="path246" />
        </g>
        <g
           id="line2d_11">
          <path
             d="M 91.284829 41.939338  L 111.284829 41.939338  "
             style="fill:none;stroke:#5f6dd3;stroke-linecap:square;stroke-width:1.5;"
             id="path249" />
        </g>
        <g
           id="line2d_12" />
        <g
           id="text_12">
          <!-- -8 -->
          <g
             transform="translate(119.284829 45.439338)scale(0.1 -0.1)"
             id="g260">
            <defs
               id="defs254">
              <path
                 d="M 4.890625 31.390625  L 31.203125 31.390625  L 31.203125 23.390625  L 4.890625 23.390625  z "
                 id="DejaVuSans-45" />
            </defs>
            <use
               xlink:href="#DejaVuSans-45"
               id="use256" />
            <use
               x="36.083984"
               xlink:href="#DejaVuSans-56"
               id="use258" />
          </g>
        </g>
        <g
           id="line2d_13">
          <path
             d="M 91.284829 56.617463  L 111.284829 56.617463  "
             style="fill:none;stroke:#d3c55f;stroke-linecap:square;stroke-width:1.5;"
             id="path263" />
        </g>
        <g
           id="line2d_14" />
        <g
           id="text_13">
          <!-- +8 -->
          <g
             transform="translate(119.284829 60.117463)scale(0.1 -0.1)"
             id="g274">
            <defs
               id="defs268">
              <path
                 d="M 46 62.703125  L 46 35.5  L 73.1875 35.5  L 73.1875 27.203125  L 46 27.203125  L 46 0  L 37.796875 0  L 37.796875 27.203125  L 10.59375 27.203125  L 10.59375 35.5  L 37.796875 35.5  L 37.796875 62.703125  z "
                 id="DejaVuSans-43" />
            </defs>
            <use
               xlink:href="#DejaVuSans-43"
               id="use270" />
            <use
               x="83.789062"
               xlink:href="#DejaVuSans-56"
               id="use272" />
          </g>
        </g>
      </g>
    </g>
    <g
       id="axes_2">
      <g
         id="patch_8">
        <path
           d="M 168.372719 174.04  L 273.129736 174.04  L 273.129736 28.8409  L 168.372719 28.8409  z "
           style="fill:#ffffff;"
           id="path279" />
      </g>
      <g
         id="matplotlib.axis_3">
        <g
           id="xtick_4">
          <g
             id="line2d_15">
            <g
               id="g284">
              <use
                 style="stroke:#000000;stroke-width:0.8;"
                 x="173.134402"
                 xlink:href="#m326e7ccd16"
                 y="174.04"
                 id="use282" />
            </g>
          </g>
          <g
             id="text_14">
            <!-- 0 -->
            <g
               transform="translate(169.953152 188.638438)scale(0.1 -0.1)"
               id="g289">
              <use
                 xlink:href="#DejaVuSans-48"
                 id="use287" />
            </g>
          </g>
        </g>
        <g
           id="xtick_5">
          <g
             id="line2d_16">
            <g
               id="g295">
              <use
                 style="stroke:#000000;stroke-width:0.8;"
                 x="221.972172"
                 xlink:href="#m326e7ccd16"
                 y="174.04"
                 id="use293" />
            </g>
          </g>
          <g
             id="text_15">
            <!-- 20 -->
            <g
               transform="translate(215.609672 188.638438)scale(0.1 -0.1)"
               id="g302">
              <use
                 xlink:href="#DejaVuSans-50"
                 id="use298" />
              <use
                 x="63.623047"
                 xlink:href="#DejaVuSans-48"
                 id="use300" />
            </g>
          </g>
        </g>
        <g
           id="xtick_6">
          <g
             id="line2d_17">
            <g
               id="g308">
              <use
                 style="stroke:#000000;stroke-width:0.8;"
                 x="270.809942"
                 xlink:href="#m326e7ccd16"
                 y="174.04"
                 id="use306" />
            </g>
          </g>
          <g
             id="text_16">
            <!-- 40 -->
            <g
               transform="translate(264.447442 188.638438)scale(0.1 -0.1)"
               id="g315">
              <use
                 xlink:href="#DejaVuSans-52"
                 id="use311" />
              <use
                 x="63.623047"
                 xlink:href="#DejaVuSans-48"
                 id="use313" />
            </g>
          </g>
        </g>
        <g
           id="text_17">
          <!-- Trials after switch -->
          <g
             transform="translate(176.964509 202.316563)scale(0.1 -0.1)"
             id="g357">
            <use
               xlink:href="#DejaVuSans-84"
               id="use319" />
            <use
               x="46.333984"
               xlink:href="#DejaVuSans-114"
               id="use321" />
            <use
               x="87.447266"
               xlink:href="#DejaVuSans-105"
               id="use323" />
            <use
               x="115.230469"
               xlink:href="#DejaVuSans-97"
               id="use325" />
            <use
               x="176.509766"
               xlink:href="#DejaVuSans-108"
               id="use327" />
            <use
               x="204.292969"
               xlink:href="#DejaVuSans-115"
               id="use329" />
            <use
               x="256.392578"
               xlink:href="#DejaVuSans-32"
               id="use331" />
            <use
               x="288.179688"
               xlink:href="#DejaVuSans-97"
               id="use333" />
            <use
               x="349.458984"
               xlink:href="#DejaVuSans-102"
               id="use335" />
            <use
               x="382.914062"
               xlink:href="#DejaVuSans-116"
               id="use337" />
            <use
               x="422.123047"
               xlink:href="#DejaVuSans-101"
               id="use339" />
            <use
               x="483.646484"
               xlink:href="#DejaVuSans-114"
               id="use341" />
            <use
               x="524.759766"
               xlink:href="#DejaVuSans-32"
               id="use343" />
            <use
               x="556.546875"
               xlink:href="#DejaVuSans-115"
               id="use345" />
            <use
               x="608.646484"
               xlink:href="#DejaVuSans-119"
               id="use347" />
            <use
               x="690.433594"
               xlink:href="#DejaVuSans-105"
               id="use349" />
            <use
               x="718.216797"
               xlink:href="#DejaVuSans-116"
               id="use351" />
            <use
               x="757.425781"
               xlink:href="#DejaVuSans-99"
               id="use353" />
            <use
               x="812.40625"
               xlink:href="#DejaVuSans-104"
               id="use355" />
          </g>
        </g>
      </g>
      <g
         id="matplotlib.axis_4">
        <g
           id="ytick_6">
          <g
             id="line2d_18">
            <g
               id="g363">
              <use
                 style="stroke:#000000;stroke-width:0.8;"
                 x="168.372719"
                 xlink:href="#m0842faa31a"
                 y="168.130383"
                 id="use361" />
            </g>
          </g>
        </g>
        <g
           id="ytick_7">
          <g
             id="line2d_19">
            <g
               id="g369">
              <use
                 style="stroke:#000000;stroke-width:0.8;"
                 x="168.372719"
                 xlink:href="#m0842faa31a"
                 y="134.777911"
                 id="use367" />
            </g>
          </g>
        </g>
        <g
           id="ytick_8">
          <g
             id="line2d_20">
            <g
               id="g375">
              <use
                 style="stroke:#000000;stroke-width:0.8;"
                 x="168.372719"
                 xlink:href="#m0842faa31a"
                 y="101.425439"
                 id="use373" />
            </g>
          </g>
        </g>
        <g
           id="ytick_9">
          <g
             id="line2d_21">
            <g
               id="g381">
              <use
                 style="stroke:#000000;stroke-width:0.8;"
                 x="168.372719"
                 xlink:href="#m0842faa31a"
                 y="68.072967"
                 id="use379" />
            </g>
          </g>
        </g>
        <g
           id="ytick_10">
          <g
             id="line2d_22">
            <g
               id="g387">
              <use
                 style="stroke:#000000;stroke-width:0.8;"
                 x="168.372719"
                 xlink:href="#m0842faa31a"
                 y="34.720495"
                 id="use385" />
            </g>
          </g>
        </g>
      </g>
      <g
         id="patch_9">
        <path
           d="M 168.372719 174.04  L 168.372719 28.8409  "
           style="fill:none;stroke:#000000;stroke-linecap:square;stroke-linejoin:miter;stroke-width:0.8;"
           id="path392" />
      </g>
      <g
         id="patch_10">
        <path
           d="M 273.129736 174.04  L 273.129736 28.8409  "
           style="fill:none;stroke:#000000;stroke-linecap:square;stroke-linejoin:miter;stroke-width:0.8;"
           id="path395" />
      </g>
      <g
         id="patch_11">
        <path
           d="M 168.372719 174.04  L 273.129736 174.04  "
           style="fill:none;stroke:#000000;stroke-linecap:square;stroke-linejoin:miter;stroke-width:0.8;"
           id="path398" />
      </g>
      <g
         id="patch_12">
        <path
           d="M 168.372719 28.8409  L 273.129736 28.8409  "
           style="fill:none;stroke:#000000;stroke-linecap:square;stroke-linejoin:miter;stroke-width:0.8;"
           id="path401" />
      </g>
      <g
         id="text_18">
        <!-- B -->
        <g
           transform="translate(157.897017 21.580945)scale(0.14 -0.14)"
           id="g409">
          <defs
             id="defs405">
            <path
               d="M 19.671875 34.8125  L 19.671875 8.109375  L 35.5 8.109375  Q 43.453125 8.109375 47.28125 11.40625  Q 51.125 14.703125 51.125 21.484375  Q 51.125 28.328125 47.28125 31.5625  Q 43.453125 34.8125 35.5 34.8125  z M 19.671875 64.796875  L 19.671875 42.828125  L 34.28125 42.828125  Q 41.5 42.828125 45.03125 45.53125  Q 48.578125 48.25 48.578125 53.8125  Q 48.578125 59.328125 45.03125 62.0625  Q 41.5 64.796875 34.28125 64.796875  z M 9.8125 72.90625  L 35.015625 72.90625  Q 46.296875 72.90625 52.390625 68.21875  Q 58.5 63.53125 58.5 54.890625  Q 58.5 48.1875 55.375 44.234375  Q 52.25 40.28125 46.1875 39.3125  Q 53.46875 37.75 57.5 32.78125  Q 61.53125 27.828125 61.53125 20.40625  Q 61.53125 10.640625 54.890625 5.3125  Q 48.25 0 35.984375 0  L 9.8125 0  z "
               id="DejaVuSans-66" />
          </defs>
          <use
             xlink:href="#DejaVuSans-66"
             id="use407" />
        </g>
      </g>
    </g>
  </g>
  <defs
     id="defs417">
    <clipPath
       id="p99dbc3ce72">
      <rect
         height="145.1991"
         width="104.757017"
         x="38.27"
         y="28.8409"
         id="rect414" />
    </clipPath>
  </defs>
  <g
     id="g1251"
     transform="matrix(0.57043057,0,0,0.77199393,64.8346,33.757853)">
    <path
       style="fill:#999999;fill-opacity:0.341485;fill-rule:evenodd;stroke:#d3c55f;stroke-width:1.08595px;stroke-linecap:butt;stroke-linejoin:miter;stroke-opacity:1"
       d="m 185.65586,2.582811 4.35195,116.412319 4.35192,4.0912 5.00472,8.92613 5.00474,-7.06656 4.35193,-13.76116 4.13434,27.15047 5.00472,-16.7366 4.35193,34.96084 5.00474,-10.04192 4.13433,-36.82052 4.78713,14.50506 4.35193,24.54699 4.78712,-26.03465 4.56953,29.38196 5.00474,1.48772 4.56952,-17.85236 3.91675,15.24889 4.78712,-18.96816 9.35665,15.99278 5.8751,-0.7439 3.91675,-17.10844 4.13435,35.33277 9.79181,-50.2098 4.352,-0.37185 8.92144,31.61353 5.22234,-15.9927 4.13433,-28.26619 4.56954,33.84504 4.35193,-26.77855 4.56956,49.094 4.5695,-32.35739 4.56953,35.33283 4.78712,-62.111378 5.22233,47.606268 4.13433,-2.60346 1.52318,4.09118 3.04635,-2.97538 v 26.40658 l -9.79186,-9.66997 -4.13433,-17.10858 -4.35193,33.47321 -4.56952,-17.85234 -4.78712,9.2981 -4.56953,-25.29087 -4.56954,16.73664 -5.22234,-14.87704 -3.91671,10.78587 -4.35195,2.23153 -5.22232,-11.90164 -4.35193,2.60352 -8.2687,12.64542 -6.09272,16.36468 -4.13435,-22.31548 -3.91673,15.99278 -5.22231,-4.83504 -4.56953,5.95081 -5.00472,-18.96821 -4.56952,10.04202 -4.13435,-6.32274 -5.00474,8.55429 -4.35192,0.37186 -4.78713,-24.17509 -4.35193,25.66275 -5.00473,-9.66997 -4.35193,-26.40663 -4.35192,26.77855 -4.13435,14.87696 -5.43992,-22.31552 -4.56952,4.46311 -4.35194,-10.78578 -4.78712,15.99276 -4.78713,-7.81044 -4.35194,2.97545 -5.43991,-6.32275 -3.69916,-87.774143 z"
       id="path4151-7" />
    <path
       style="fill:#999999;fill-opacity:0.341485;fill-rule:evenodd;stroke:#5f6dd3;stroke-width:1.08595px;stroke-linecap:butt;stroke-linejoin:miter;stroke-opacity:1"
       d="m 185.08708,5.7816735 1.53864,23.1431465 8.61639,-8.678649 4.15432,63.906616 4.92365,-26.825001 4.3082,-0.26294 4.61592,9.99365 4.46206,50.494094 5.07751,-11.57157 4.61592,8.41572 4.30824,-22.354205 4.1543,9.204655 5.38527,1.31501 4.00047,44.18234 2.76955,-17.35738 2.00024,-19.19825 4.46206,17.09435 4.76978,-29.45494 4.30817,14.46449 4.76978,27.61396 5.84685,-15.51641 4.00049,-14.99045 3.69272,13.41252 5.23139,7.10076 4.76979,-4.73388 4.46206,10.78257 4.76978,-18.40929 4.15434,18.93533 5.07751,-17.35735 4.46205,32.87377 4.76981,-51.80907 4.00046,64.95857 5.23137,-48.3902 h 4.46207 l 4.15434,24.72106 5.23137,2.62994 4.15434,-0.78897 4.61588,-15.77941 4.76981,30.50682 5.23139,-10.25659 1.07707,4.73382 2.7695,-3.1559 -0.30765,19.72429 -4.00046,-7.88972 c 0,0 -4.92366,14.20149 -4.92366,12.36055 0,-1.84092 -4.46203,-24.72108 -4.46203,-24.72108 l -4.61593,22.88016 -4.76978,-2.10394 -9.07798,-24.72109 -4.30821,9.20464 -5.07751,26.03605 -4.61591,-34.18874 -4.46207,19.72427 -4.46206,-13.14949 -4.61592,8.67867 -4.46207,-9.46769 -4.76978,11.57165 -5.53913,-2.89293 -3.69273,-5.78581 -4.15432,7.36374 -4.92365,-21.82816 -4.46206,15.25343 -5.38524,6.31173 -8.77026,-22.88017 -4.61593,24.19517 -4.76977,-16.83142 -4.76978,21.30218 -8.61641,-47.60116 -4.46207,34.45168 -8.77025,-4.73383 -5.53914,1.57798 -4.1543,-52.598036 -5.693,3.681816 -4.15432,7.62672 -4.00048,3.9449 -4.92364,-36.555692 -5.07751,2.892916 -4.00047,-16.042414 z"
       id="path4266-5" />
  </g>
</svg>
