<?xml version="1.0" encoding="UTF-8" standalone="no"?>
<!-- Created with matplotlib (https://matplotlib.org/) -->

<svg
   height="345.6pt"
   version="1.1"
   viewBox="0 0 863.28 345.6"
   width="863.28pt"
   id="svg5940"
   sodipodi:docname="Figure_3.svg"
   inkscape:version="1.1 (1:1.1+202105261517+ce6663b3b7)"
   xmlns:inkscape="http://www.inkscape.org/namespaces/inkscape"
   xmlns:sodipodi="http://sodipodi.sourceforge.net/DTD/sodipodi-0.dtd"
   xmlns:xlink="http://www.w3.org/1999/xlink"
   xmlns="http://www.w3.org/2000/svg"
   xmlns:svg="http://www.w3.org/2000/svg"
   xmlns:rdf="http://www.w3.org/1999/02/22-rdf-syntax-ns#"
   xmlns:cc="http://creativecommons.org/ns#"
   xmlns:dc="http://purl.org/dc/elements/1.1/">
  <sodipodi:namedview
     id="namedview5942"
     pagecolor="#ffffff"
     bordercolor="#666666"
     borderopacity="1.0"
     inkscape:pageshadow="2"
     inkscape:pageopacity="0.0"
     inkscape:pagecheckerboard="0"
     inkscape:document-units="pt"
     showgrid="false"
     inkscape:zoom="0.52430843"
     inkscape:cx="291.81297"
     inkscape:cy="135.41648"
     inkscape:window-width="1920"
     inkscape:window-height="1023"
     inkscape:window-x="0"
     inkscape:window-y="0"
     inkscape:window-maximized="1"
     inkscape:current-layer="svg5940" />
  <metadata
     id="metadata5162">
    <rdf:RDF>
      <cc:Work>
        <dc:type
           rdf:resource="http://purl.org/dc/dcmitype/StillImage" />
        <dc:date>2021-08-13T13:14:07.248964</dc:date>
        <dc:format>image/svg+xml</dc:format>
        <dc:creator>
          <cc:Agent>
            <dc:title>Matplotlib v3.3.4, https://matplotlib.org/</dc:title>
          </cc:Agent>
        </dc:creator>
      </cc:Work>
    </rdf:RDF>
  </metadata>
  <defs
     id="defs5166">
    <style
       type="text/css"
       id="style5164">*{stroke-linecap:butt;stroke-linejoin:round;}</style>
    <defs
       id="defs5841">
      <path
         d="m 18.109375,8.203125 v -29 H 9.078125 V 54.6875 h 9.03125 v -8.296875 q 2.84375,4.875 7.15625,7.234375 Q 29.59375,56 35.59375,56 q 9.96875,0 16.1875,-7.90625 6.234375,-7.90625 6.234375,-20.796875 0,-12.890625 -6.234375,-20.8125 -6.21875,-7.90625 -16.1875,-7.90625 -6,0 -10.328125,2.375 -4.3125,2.375 -7.15625,7.25 z M 48.6875,27.296875 q 0,9.90625 -4.078125,15.546875 -4.078125,5.640625 -11.203125,5.640625 -7.140625,0 -11.21875,-5.640625 -4.078125,-5.640625 -4.078125,-15.546875 0,-9.90625 4.078125,-15.546875 4.078125,-5.640625 11.21875,-5.640625 7.125,0 11.203125,5.640625 4.078125,5.640625 4.078125,15.546875 z"
         id="DejaVuSans-112" />
    </defs>
    <defs
       id="defs5888">
      <path
         d="M 19.671875,64.796875 V 8.109375 H 31.59375 q 15.09375,0 22.09375,6.828125 7,6.84375 7,21.59375 0,14.640625 -7,21.453125 -7,6.8125 -22.09375,6.8125 z M 9.8125,72.90625 h 20.265625 q 21.1875,0 31.09375,-8.8125 9.921875,-8.8125 9.921875,-27.5625 0,-18.859375 -9.96875,-27.703125 Q 51.171875,0 30.078125,0 H 9.8125 Z"
         id="DejaVuSans-68" />
      <path
         d="M 2.984375,54.6875 H 12.5 L 29.59375,8.796875 46.6875,54.6875 h 9.515625 L 35.6875,0 H 23.484375 Z"
         id="DejaVuSans-118" />
      <path
         d="M 54.890625,33.015625 V 0 H 45.90625 v 32.71875 q 0,7.765625 -3.03125,11.609375 -3.03125,3.859375 -9.078125,3.859375 -7.28125,0 -11.484375,-4.640625 -4.203125,-4.625 -4.203125,-12.640625 V 0 h -9.03125 v 54.6875 h 9.03125 v -8.5 q 3.234375,4.9375 7.59375,7.375 4.375,2.4375 10.09375,2.4375 9.421875,0 14.25,-5.828125 4.84375,-5.828125 4.84375,-17.15625 z"
         id="DejaVuSans-110" />
    </defs>
    <defs
       id="defs5533">
      <path
         d="m 44.390625,34.1875 q 3.171875,-1.078125 6.171875,-4.59375 3,-3.515625 6.03125,-9.671875 L 66.609375,0 H 56 l -9.3125,18.703125 q -3.625,7.328125 -7.015625,9.71875 -3.390625,2.390625 -9.25,2.390625 h -10.75 V 0 H 9.8125 v 72.90625 h 22.265625 q 12.5,0 18.65625,-5.234375 6.15625,-5.21875 6.15625,-15.765625 0,-6.890625 -3.203125,-11.4375 -3.203125,-4.53125 -9.296875,-6.28125 z m -24.71875,30.609375 v -25.875 h 12.40625 q 7.125,0 10.765625,3.296875 3.640625,3.296875 3.640625,9.6875 0,6.390625 -3.640625,9.640625 -3.640625,3.25 -10.765625,3.25 z"
         id="DejaVuSans-82" />
      <path
         d="M 52,44.1875 Q 55.375,50.25 60.0625,53.125 64.75,56 71.09375,56 q 8.546875,0 13.1875,-5.984375 4.640625,-5.96875 4.640625,-17 V 0 h -9.03125 v 32.71875 q 0,7.859375 -2.796875,11.65625 -2.78125,3.8125 -8.484375,3.8125 -6.984375,0 -11.046875,-4.640625 -4.046875,-4.625 -4.046875,-12.640625 V 0 h -9.03125 v 32.71875 q 0,7.90625 -2.78125,11.6875 -2.78125,3.78125 -8.59375,3.78125 -6.890625,0 -10.953125,-4.65625 -4.046875,-4.65625 -4.046875,-12.625 V 0 h -9.03125 v 54.6875 h 9.03125 v -8.5 q 3.078125,5.03125 7.375,7.421875 Q 29.78125,56 35.6875,56 41.65625,56 45.828125,52.96875 50,49.953125 52,44.1875 Z"
         id="DejaVuSans-109" />
      <path
         d="m 45.40625,46.390625 v 29.59375 h 8.984375 V 0 H 45.40625 v 8.203125 q -2.828125,-4.875 -7.15625,-7.25 -4.3125,-2.375 -10.375,-2.375 -9.90625,0 -16.140625,7.90625 -6.21875,7.921875 -6.21875,20.8125 0,12.890625 6.21875,20.796875 Q 17.96875,56 27.875,56 q 6.0625,0 10.375,-2.375 4.328125,-2.359375 7.15625,-7.234375 z M 14.796875,27.296875 q 0,-9.90625 4.078125,-15.546875 4.078125,-5.640625 11.203125,-5.640625 7.125,0 11.21875,5.640625 4.109375,5.640625 4.109375,15.546875 0,9.90625 -4.109375,15.546875 -4.09375,5.640625 -11.21875,5.640625 -7.125,0 -11.203125,-5.640625 -4.078125,-5.640625 -4.078125,-15.546875 z"
         id="DejaVuSans-100" />
    </defs>
    <defs
       id="defs5482">
      <path
         d="m 9.8125,72.90625 h 46.09375 v -8.3125 H 19.671875 V 43.015625 h 34.71875 V 34.71875 H 19.671875 V 8.296875 H 56.78125 V 0 H 9.8125 Z"
         id="DejaVuSans-69" />
      <path
         d="m 30.609375,48.390625 q -7.21875,0 -11.421875,-5.640625 -4.203125,-5.640625 -4.203125,-15.453125 0,-9.8125 4.171875,-15.453125 4.1875,-5.640625 11.453125,-5.640625 7.1875,0 11.375,5.65625 4.203125,5.671875 4.203125,15.4375 0,9.71875 -4.203125,15.40625 -4.1875,5.6875 -11.375,5.6875 z m 0,7.609375 q 11.71875,0 18.40625,-7.625 6.703125,-7.609375 6.703125,-21.078125 0,-13.421875 -6.703125,-21.078125 -6.6875,-7.640625 -18.40625,-7.640625 -11.765625,0 -18.4375,7.640625 -6.65625,7.65625 -6.65625,21.078125 0,13.46875 6.65625,21.078125 Q 18.84375,56 30.609375,56 Z"
         id="DejaVuSans-111" />
      <path
         d="M 31,75.875 Q 24.46875,64.65625 21.28125,53.65625 18.109375,42.671875 18.109375,31.390625 18.109375,20.125 21.3125,9.0625 24.515625,-2 31,-13.1875 H 23.1875 Q 15.875,-1.703125 12.234375,9.375 8.59375,20.453125 8.59375,31.390625 q 0,10.890625 3.609375,21.921875 3.625,11.046875 10.984375,22.5625 z"
         id="DejaVuSans-40" />
      <path
         d="M 10.6875,12.40625 H 21 V 0 H 10.6875 Z"
         id="DejaVuSans-46" />
      <path
         d="M 8.5,21.578125 V 54.6875 h 8.984375 V 21.921875 q 0,-7.765625 3.015625,-11.65625 3.03125,-3.875 9.09375,-3.875 7.265625,0 11.484375,4.640625 4.234375,4.640625 4.234375,12.65625 v 31 h 8.984375 V 0 H 45.3125 V 8.40625 Q 42.046875,3.421875 37.71875,1 33.40625,-1.421875 27.6875,-1.421875 18.265625,-1.421875 13.375,4.4375 8.5,10.296875 8.5,21.578125 Z M 31.109375,56 Z"
         id="DejaVuSans-117" />
      <path
         d="m 8.015625,75.875 h 7.8125 q 7.3125,-11.515625 10.953125,-22.5625 3.640625,-11.03125 3.640625,-21.921875 0,-10.9375 -3.640625,-22.015625 -3.640625,-11.078125 -10.953125,-22.5625 h -7.8125 Q 14.5,-2 17.703125,9.0625 20.90625,20.125 20.90625,31.390625 q 0,11.28125 -3.203125,22.265625 -3.203125,11 -9.6875,22.21875 z"
         id="DejaVuSans-41" />
    </defs>
    <defs
       id="defs5604">
      <path
         d="M 46,62.703125 V 35.5 H 73.1875 V 27.203125 H 46 V 0 H 37.796875 V 27.203125 H 10.59375 V 35.5 h 27.203125 v 27.203125 z"
         id="DejaVuSans-43" />
    </defs>
    <defs
       id="defs5366">
      <path
         d="M 0,0 H -3.5"
         id="m61844c2ac8"
         style="stroke:#000000;stroke-width:0.8" />
    </defs>
    <defs
       id="defs5321">
      <path
         d="M -0.296875,72.90625 H 61.375 v -8.3125 H 35.5 V 0 H 25.59375 V 64.59375 H -0.296875 Z"
         id="DejaVuSans-84" />
      <path
         d="m 41.109375,46.296875 q -1.515625,0.875 -3.296875,1.28125 Q 36.03125,48 33.890625,48 26.265625,48 22.1875,43.046875 18.109375,38.09375 18.109375,28.8125 V 0 h -9.03125 v 54.6875 h 9.03125 v -8.5 q 2.84375,4.984375 7.375,7.390625 Q 30.03125,56 36.53125,56 q 0.921875,0 2.046875,-0.125 1.125,-0.109375 2.484375,-0.359375 z"
         id="DejaVuSans-114" />
      <path
         d="M 9.421875,54.6875 H 18.40625 V 0 H 9.421875 Z m 0,21.296875 H 18.40625 V 64.59375 H 9.421875 Z"
         id="DejaVuSans-105" />
      <path
         d="m 34.28125,27.484375 q -10.890625,0 -15.09375,-2.484375 -4.203125,-2.484375 -4.203125,-8.5 0,-4.78125 3.15625,-7.59375 3.15625,-2.796875 8.5625,-2.796875 7.484375,0 12,5.296875 4.515625,5.296875 4.515625,14.078125 v 2 z m 17.921875,3.71875 V 0 H 43.21875 v 8.296875 q -3.078125,-4.96875 -7.671875,-7.34375 -4.59375,-2.375 -11.234375,-2.375 -8.390625,0 -13.359375,4.71875 Q 6,8.015625 6,15.921875 q 0,9.21875 6.171875,13.90625 6.1875,4.6875 18.4375,4.6875 H 43.21875 v 0.890625 q 0,6.203125 -4.078125,9.59375 -4.078125,3.390625 -11.453125,3.390625 -4.6875,0 -9.140625,-1.125 -4.4375,-1.125 -8.53125,-3.375 v 8.3125 q 4.921875,1.90625 9.5625,2.84375 Q 24.21875,56 28.609375,56 q 11.875,0 17.734375,-6.15625 5.859375,-6.140625 5.859375,-18.640625 z"
         id="DejaVuSans-97" />
      <path
         d="M 9.421875,75.984375 H 18.40625 V 0 H 9.421875 Z"
         id="DejaVuSans-108" />
      <path
         d="m 44.28125,53.078125 v -8.5 Q 40.484375,46.53125 36.375,47.5 q -4.09375,0.984375 -8.5,0.984375 -6.6875,0 -10.03125,-2.046875 Q 14.5,44.390625 14.5,40.28125 q 0,-3.125 2.390625,-4.90625 2.390625,-1.78125 9.625,-3.390625 l 3.078125,-0.6875 Q 39.15625,29.25 43.1875,25.515625 47.21875,21.78125 47.21875,15.09375 q 0,-7.625 -6.03125,-12.078125 -6.03125,-4.4375 -16.578125,-4.4375 -4.390625,0 -9.15625,0.859375 Q 10.6875,0.296875 5.421875,2 v 9.28125 q 4.984375,-2.59375 9.8125,-3.890625 4.828125,-1.28125 9.578125,-1.28125 6.34375,0 9.75,2.171875 3.421875,2.171875 3.421875,6.125 0,3.65625 -2.46875,5.609375 -2.453125,1.953125 -10.8125,3.765625 l -3.125,0.734375 q -8.34375,1.75 -12.0625,5.390625 -3.703125,3.640625 -3.703125,9.984375 0,7.71875 5.46875,11.90625 Q 16.75,56 26.8125,56 q 4.96875,0 9.359375,-0.734375 4.40625,-0.71875 8.109375,-2.1875 z"
         id="DejaVuSans-115" />
      <path
         id="DejaVuSans-32"
         d="" />
      <path
         d="M 37.109375,75.984375 V 68.5 h -8.59375 q -4.828125,0 -6.71875,-1.953125 -1.875,-1.953125 -1.875,-7.03125 V 54.6875 H 34.71875 V 47.703125 H 19.921875 V 0 h -9.03125 V 47.703125 H 2.296875 V 54.6875 h 8.59375 V 58.5 q 0,9.125 4.25,13.296875 4.25,4.1875 13.46875,4.1875 z"
         id="DejaVuSans-102" />
      <path
         d="M 18.3125,70.21875 V 54.6875 h 18.5 v -6.984375 h -18.5 v -29.6875 q 0,-6.6875 1.828125,-8.59375 1.828125,-1.90625 7.453125,-1.90625 H 36.8125 V 0 H 27.59375 Q 17.1875,0 13.234375,3.875 9.28125,7.765625 9.28125,18.015625 v 29.6875 H 2.6875 V 54.6875 h 6.59375 v 15.53125 z"
         id="DejaVuSans-116" />
      <path
         d="m 56.203125,29.59375 v -4.390625 h -41.3125 q 0.59375,-9.28125 5.59375,-14.140625 5,-4.859375 13.9375,-4.859375 5.171875,0 10.03125,1.265625 4.859375,1.265625 9.65625,3.8125 v -8.5 q -4.84375,-2.046875 -9.921875,-3.125 -5.078125,-1.078125 -10.296875,-1.078125 -13.09375,0 -20.734375,7.609375 -7.640625,7.625 -7.640625,20.625 0,13.421875 7.25,21.296875 Q 20.015625,56 32.328125,56 q 11.03125,0 17.453125,-7.109375 6.421875,-7.09375 6.421875,-19.296875 z m -8.984375,2.640625 q -0.09375,7.359375 -4.125,11.75 -4.03125,4.40625 -10.671875,4.40625 -7.515625,0 -12.03125,-4.25 -4.515625,-4.25 -5.203125,-11.96875 z"
         id="DejaVuSans-101" />
      <path
         d="M 4.203125,54.6875 H 13.1875 L 24.421875,12.015625 35.59375,54.6875 H 46.1875 L 57.421875,12.015625 68.609375,54.6875 H 77.59375 L 63.28125,0 H 52.6875 L 40.921875,44.828125 29.109375,0 H 18.5 Z"
         id="DejaVuSans-119" />
      <path
         d="M 48.78125,52.59375 V 44.1875 q -3.8125,2.109375 -7.640625,3.15625 -3.828125,1.046875 -7.734375,1.046875 -8.75,0 -13.59375,-5.546875 -4.828125,-5.53125 -4.828125,-15.546875 0,-10.015625 4.828125,-15.5625 4.84375,-5.53125 13.59375,-5.53125 3.90625,0 7.734375,1.046875 3.828125,1.046875 7.640625,3.15625 v -8.3125 q -3.765625,-1.75 -7.796875,-2.625 -4.015625,-0.890625 -8.5625,-0.890625 -12.359375,0 -19.640625,7.765625 -7.265625,7.765625 -7.265625,20.953125 0,13.375 7.34375,21.03125 Q 20.21875,56 33.015625,56 q 4.140625,0 8.09375,-0.859375 3.953125,-0.84375 7.671875,-2.546875 z"
         id="DejaVuSans-99" />
      <path
         d="M 54.890625,33.015625 V 0 H 45.90625 v 32.71875 q 0,7.765625 -3.03125,11.609375 -3.03125,3.859375 -9.078125,3.859375 -7.28125,0 -11.484375,-4.640625 -4.203125,-4.625 -4.203125,-12.640625 V 0 h -9.03125 v 75.984375 h 9.03125 V 46.1875 q 3.234375,4.9375 7.59375,7.375 4.375,2.4375 10.09375,2.4375 9.421875,0 14.25,-5.828125 4.84375,-5.828125 4.84375,-17.15625 z"
         id="DejaVuSans-104" />
    </defs>
    <defs
       id="defs5590">
      <path
         d="m 4.890625,31.390625 h 26.3125 v -8 h -26.3125 z"
         id="DejaVuSans-45" />
    </defs>
    <defs
       id="defs5175">
      <path
         d="M 0,0 V 3.5"
         id="m58a2c024a8"
         style="stroke:#000000;stroke-width:0.8" />
    </defs>
  </defs>
  <path
     d="M 0,345.6 H 863.28 V 0 H 0 Z"
     style="fill:#ffffff"
     id="path5168" />
  <path
     d="M 107.91,307.584 H 412.02 V 41.472 H 107.91 Z"
     style="fill:#ffffff"
     id="path5171" />
  <g
     id="g5179">
    <use
       style="stroke:#000000;stroke-width:0.8"
       x="121.73318"
       xlink:href="#m58a2c024a8"
       y="307.58401"
       id="use5177"
       width="100%"
       height="100%" />
  </g>
  <g
     transform="matrix(0.1,0,0,-0.1,118.55193,322.18244)"
     id="g5187">
    <defs
       id="defs5183">
      <path
         d="m 31.78125,66.40625 q -7.609375,0 -11.453125,-7.5 Q 16.5,51.421875 16.5,36.375 q 0,-14.984375 3.828125,-22.484375 3.84375,-7.5 11.453125,-7.5 7.671875,0 11.5,7.5 3.84375,7.5 3.84375,22.484375 0,15.046875 -3.84375,22.53125 -3.828125,7.5 -11.5,7.5 z m 0,7.8125 q 12.265625,0 18.734375,-9.703125 6.46875,-9.6875 6.46875,-28.140625 0,-18.40625 -6.46875,-28.109375 -6.46875,-9.6875 -18.734375,-9.6875 -12.25,0 -18.71875,9.6875 Q 6.59375,17.96875 6.59375,36.375 q 0,18.453125 6.46875,28.140625 6.46875,9.703125 18.71875,9.703125 z"
         id="DejaVuSans-48" />
    </defs>
    <use
       xlink:href="#DejaVuSans-48"
       id="use5185"
       x="0"
       y="0"
       width="100%"
       height="100%" />
  </g>
  <g
     id="g5193">
    <use
       style="stroke:#000000;stroke-width:0.8"
       x="157.17723"
       xlink:href="#m58a2c024a8"
       y="307.58401"
       id="use5191"
       width="100%"
       height="100%" />
  </g>
  <g
     transform="matrix(0.1,0,0,-0.1,153.99599,322.18244)"
     id="g5201">
    <defs
       id="defs5197">
      <path
         d="m 10.796875,72.90625 h 38.71875 v -8.3125 h -29.6875 V 46.734375 q 2.140625,0.734375 4.28125,1.09375 2.15625,0.359375 4.3125,0.359375 Q 40.625,48.1875 47.75,41.5 54.890625,34.8125 54.890625,23.390625 54.890625,11.625 47.5625,5.09375 40.234375,-1.421875 26.90625,-1.421875 q -4.59375,0 -9.359375,0.78125 -4.75,0.78125 -9.828125,2.34375 V 11.625 q 4.390625,-2.390625 9.078125,-3.5625 4.6875,-1.171875 9.90625,-1.171875 8.453125,0 13.375,4.4375 4.9375,4.4375 4.9375,12.0625 0,7.609375 -4.9375,12.046875 -4.921875,4.453125 -13.375,4.453125 -3.953125,0 -7.890625,-0.875 -3.921875,-0.875 -8.015625,-2.734375 z"
         id="DejaVuSans-53" />
    </defs>
    <use
       xlink:href="#DejaVuSans-53"
       id="use5199"
       x="0"
       y="0"
       width="100%"
       height="100%" />
  </g>
  <g
     id="g5207">
    <use
       style="stroke:#000000;stroke-width:0.8"
       x="192.62129"
       xlink:href="#m58a2c024a8"
       y="307.58401"
       id="use5205"
       width="100%"
       height="100%" />
  </g>
  <g
     transform="matrix(0.1,0,0,-0.1,186.25879,322.18244)"
     id="g5217">
    <defs
       id="defs5211">
      <path
         d="m 12.40625,8.296875 h 16.109375 v 55.625 L 10.984375,60.40625 v 8.984375 l 17.4375,3.515625 H 38.28125 V 8.296875 H 54.390625 V 0 H 12.40625 Z"
         id="DejaVuSans-49" />
    </defs>
    <use
       xlink:href="#DejaVuSans-49"
       id="use5213"
       x="0"
       y="0"
       width="100%"
       height="100%" />
    <use
       x="63.623047"
       xlink:href="#DejaVuSans-48"
       id="use5215"
       y="0"
       width="100%"
       height="100%" />
  </g>
  <g
     id="g5223">
    <use
       style="stroke:#000000;stroke-width:0.8"
       x="228.06535"
       xlink:href="#m58a2c024a8"
       y="307.58401"
       id="use5221"
       width="100%"
       height="100%" />
  </g>
  <g
     transform="matrix(0.1,0,0,-0.1,221.70285,322.18244)"
     id="g5230">
    <use
       xlink:href="#DejaVuSans-49"
       id="use5226"
       x="0"
       y="0"
       width="100%"
       height="100%" />
    <use
       x="63.623047"
       xlink:href="#DejaVuSans-53"
       id="use5228"
       y="0"
       width="100%"
       height="100%" />
  </g>
  <g
     id="g5236">
    <use
       style="stroke:#000000;stroke-width:0.8"
       x="263.5094"
       xlink:href="#m58a2c024a8"
       y="307.58401"
       id="use5234"
       width="100%"
       height="100%" />
  </g>
  <g
     transform="matrix(0.1,0,0,-0.1,257.14691,322.18244)"
     id="g5246">
    <defs
       id="defs5240">
      <path
         d="M 19.1875,8.296875 H 53.609375 V 0 H 7.328125 v 8.296875 q 5.609375,5.8125 15.296875,15.59375 9.703125,9.796875 12.1875,12.640625 4.734375,5.3125 6.609375,9 1.890625,3.6875 1.890625,7.25 0,5.8125 -4.078125,9.46875 -4.078125,3.671875 -10.625,3.671875 -4.640625,0 -9.796875,-1.609375 -5.140625,-1.609375 -11,-4.890625 v 9.96875 Q 13.765625,71.78125 18.9375,73 q 5.1875,1.21875 9.484375,1.21875 11.328125,0 18.0625,-5.671875 6.734375,-5.65625 6.734375,-15.125 0,-4.5 -1.6875,-8.53125 Q 49.859375,40.875 45.40625,35.40625 44.1875,33.984375 37.640625,27.21875 31.109375,20.453125 19.1875,8.296875 Z"
         id="DejaVuSans-50" />
    </defs>
    <use
       xlink:href="#DejaVuSans-50"
       id="use5242"
       x="0"
       y="0"
       width="100%"
       height="100%" />
    <use
       x="63.623047"
       xlink:href="#DejaVuSans-48"
       id="use5244"
       y="0"
       width="100%"
       height="100%" />
  </g>
  <g
     id="g5252">
    <use
       style="stroke:#000000;stroke-width:0.8"
       x="298.95346"
       xlink:href="#m58a2c024a8"
       y="307.58401"
       id="use5250"
       width="100%"
       height="100%" />
  </g>
  <g
     transform="matrix(0.1,0,0,-0.1,292.59096,322.18244)"
     id="g5259">
    <use
       xlink:href="#DejaVuSans-50"
       id="use5255"
       x="0"
       y="0"
       width="100%"
       height="100%" />
    <use
       x="63.623047"
       xlink:href="#DejaVuSans-53"
       id="use5257"
       y="0"
       width="100%"
       height="100%" />
  </g>
  <g
     id="g5265">
    <use
       style="stroke:#000000;stroke-width:0.8"
       x="334.39752"
       xlink:href="#m58a2c024a8"
       y="307.58401"
       id="use5263"
       width="100%"
       height="100%" />
  </g>
  <g
     transform="matrix(0.1,0,0,-0.1,328.03502,322.18244)"
     id="g5275">
    <defs
       id="defs5269">
      <path
         d="M 40.578125,39.3125 Q 47.65625,37.796875 51.625,33 q 3.984375,-4.78125 3.984375,-11.8125 0,-10.78125 -7.421875,-16.703125 -7.421875,-5.90625 -21.09375,-5.90625 -4.578125,0 -9.4375,0.90625 -4.859375,0.90625 -10.03125,2.71875 v 9.515625 q 4.09375,-2.390625 8.96875,-3.609375 4.890625,-1.21875 10.21875,-1.21875 9.265625,0 14.125,3.65625 4.859375,3.65625 4.859375,10.640625 0,6.453125 -4.515625,10.078125 -4.515625,3.640625 -12.5625,3.640625 h -8.5 v 8.109375 h 8.890625 q 7.265625,0 11.125,2.90625 3.859375,2.90625 3.859375,8.375 0,5.609375 -3.984375,8.609375 -3.96875,3.015625 -11.390625,3.015625 -4.0625,0 -8.703125,-0.890625 Q 15.375,64.15625 9.8125,62.3125 v 8.78125 q 5.625,1.5625 10.53125,2.34375 4.90625,0.78125 9.25,0.78125 11.234375,0 17.765625,-5.109375 6.546875,-5.09375 6.546875,-13.78125 0,-6.0625 -3.46875,-10.234375 -3.46875,-4.171875 -9.859375,-5.78125 z"
         id="DejaVuSans-51" />
    </defs>
    <use
       xlink:href="#DejaVuSans-51"
       id="use5271"
       x="0"
       y="0"
       width="100%"
       height="100%" />
    <use
       x="63.623047"
       xlink:href="#DejaVuSans-48"
       id="use5273"
       y="0"
       width="100%"
       height="100%" />
  </g>
  <g
     id="g5281">
    <use
       style="stroke:#000000;stroke-width:0.8"
       x="369.84158"
       xlink:href="#m58a2c024a8"
       y="307.58401"
       id="use5279"
       width="100%"
       height="100%" />
  </g>
  <g
     transform="matrix(0.1,0,0,-0.1,363.47907,322.18244)"
     id="g5288">
    <use
       xlink:href="#DejaVuSans-51"
       id="use5284"
       x="0"
       y="0"
       width="100%"
       height="100%" />
    <use
       x="63.623047"
       xlink:href="#DejaVuSans-53"
       id="use5286"
       y="0"
       width="100%"
       height="100%" />
  </g>
  <g
     id="g5294">
    <use
       style="stroke:#000000;stroke-width:0.8"
       x="405.28561"
       xlink:href="#m58a2c024a8"
       y="307.58401"
       id="use5292"
       width="100%"
       height="100%" />
  </g>
  <g
     transform="matrix(0.1,0,0,-0.1,398.92313,322.18244)"
     id="g5304">
    <defs
       id="defs5298">
      <path
         d="M 37.796875,64.3125 12.890625,25.390625 h 24.90625 z m -2.59375,8.59375 h 12.40625 V 25.390625 h 10.40625 V 17.1875 H 47.609375 V 0 h -9.8125 V 17.1875 H 4.890625 v 9.515625 z"
         id="DejaVuSans-52" />
    </defs>
    <use
       xlink:href="#DejaVuSans-52"
       id="use5300"
       x="0"
       y="0"
       width="100%"
       height="100%" />
    <use
       x="63.623047"
       xlink:href="#DejaVuSans-48"
       id="use5302"
       y="0"
       width="100%"
       height="100%" />
  </g>
  <use
     xlink:href="#DejaVuSans-84"
     id="use5323"
     x="0"
     y="0"
     width="100%"
     height="100%"
     transform="matrix(0.1,0,0,-0.1,216.17828,335.86056)" />
  <use
     x="46.333984"
     xlink:href="#DejaVuSans-114"
     id="use5325"
     y="0"
     width="100%"
     height="100%"
     transform="matrix(0.1,0,0,-0.1,216.17828,335.86056)" />
  <use
     x="87.447266"
     xlink:href="#DejaVuSans-105"
     id="use5327"
     y="0"
     width="100%"
     height="100%"
     transform="matrix(0.1,0,0,-0.1,216.17828,335.86056)" />
  <use
     x="115.23047"
     xlink:href="#DejaVuSans-97"
     id="use5329"
     y="0"
     width="100%"
     height="100%"
     transform="matrix(0.1,0,0,-0.1,216.17828,335.86056)" />
  <use
     x="176.50977"
     xlink:href="#DejaVuSans-108"
     id="use5331"
     y="0"
     width="100%"
     height="100%"
     transform="matrix(0.1,0,0,-0.1,216.17828,335.86056)" />
  <use
     x="204.29297"
     xlink:href="#DejaVuSans-115"
     id="use5333"
     y="0"
     width="100%"
     height="100%"
     transform="matrix(0.1,0,0,-0.1,216.17828,335.86056)" />
  <use
     x="256.39258"
     xlink:href="#DejaVuSans-32"
     id="use5335"
     y="0"
     width="100%"
     height="100%"
     transform="matrix(0.1,0,0,-0.1,216.17828,335.86056)" />
  <use
     x="288.17969"
     xlink:href="#DejaVuSans-97"
     id="use5337"
     y="0"
     width="100%"
     height="100%"
     transform="matrix(0.1,0,0,-0.1,216.17828,335.86056)" />
  <use
     x="349.45898"
     xlink:href="#DejaVuSans-102"
     id="use5339"
     y="0"
     width="100%"
     height="100%"
     transform="matrix(0.1,0,0,-0.1,216.17828,335.86056)" />
  <use
     x="382.91406"
     xlink:href="#DejaVuSans-116"
     id="use5341"
     y="0"
     width="100%"
     height="100%"
     transform="matrix(0.1,0,0,-0.1,216.17828,335.86056)" />
  <use
     x="422.12305"
     xlink:href="#DejaVuSans-101"
     id="use5343"
     y="0"
     width="100%"
     height="100%"
     transform="matrix(0.1,0,0,-0.1,216.17828,335.86056)" />
  <use
     x="483.64648"
     xlink:href="#DejaVuSans-114"
     id="use5345"
     y="0"
     width="100%"
     height="100%"
     transform="matrix(0.1,0,0,-0.1,216.17828,335.86056)" />
  <use
     x="524.75977"
     xlink:href="#DejaVuSans-32"
     id="use5347"
     y="0"
     width="100%"
     height="100%"
     transform="matrix(0.1,0,0,-0.1,216.17828,335.86056)" />
  <use
     x="556.54688"
     xlink:href="#DejaVuSans-115"
     id="use5349"
     y="0"
     width="100%"
     height="100%"
     transform="matrix(0.1,0,0,-0.1,216.17828,335.86056)" />
  <use
     x="608.64648"
     xlink:href="#DejaVuSans-119"
     id="use5351"
     y="0"
     width="100%"
     height="100%"
     transform="matrix(0.1,0,0,-0.1,216.17828,335.86056)" />
  <use
     x="690.43359"
     xlink:href="#DejaVuSans-105"
     id="use5353"
     y="0"
     width="100%"
     height="100%"
     transform="matrix(0.1,0,0,-0.1,216.17828,335.86056)" />
  <use
     x="718.2168"
     xlink:href="#DejaVuSans-116"
     id="use5355"
     y="0"
     width="100%"
     height="100%"
     transform="matrix(0.1,0,0,-0.1,216.17828,335.86056)" />
  <use
     x="757.42578"
     xlink:href="#DejaVuSans-99"
     id="use5357"
     y="0"
     width="100%"
     height="100%"
     transform="matrix(0.1,0,0,-0.1,216.17828,335.86056)" />
  <use
     x="812.40625"
     xlink:href="#DejaVuSans-104"
     id="use5359"
     y="0"
     width="100%"
     height="100%"
     transform="matrix(0.1,0,0,-0.1,216.17828,335.86056)" />
  <g
     id="g5370">
    <use
       style="stroke:#000000;stroke-width:0.8"
       x="107.91"
       xlink:href="#m61844c2ac8"
       y="295.86102"
       id="use5368"
       width="100%"
       height="100%" />
  </g>
  <g
     transform="matrix(0.1,0,0,-0.1,94.5475,299.66023)"
     id="g5375">
    <use
       xlink:href="#DejaVuSans-48"
       id="use5373"
       x="0"
       y="0"
       width="100%"
       height="100%" />
  </g>
  <g
     id="g5381">
    <use
       style="stroke:#000000;stroke-width:0.8"
       x="107.91"
       xlink:href="#m61844c2ac8"
       y="265.85788"
       id="use5379"
       width="100%"
       height="100%" />
  </g>
  <g
     transform="matrix(0.1,0,0,-0.1,94.5475,269.65709)"
     id="g5386">
    <use
       xlink:href="#DejaVuSans-49"
       id="use5384"
       x="0"
       y="0"
       width="100%"
       height="100%" />
  </g>
  <g
     id="g5392">
    <use
       style="stroke:#000000;stroke-width:0.8"
       x="107.91"
       xlink:href="#m61844c2ac8"
       y="235.85472"
       id="use5390"
       width="100%"
       height="100%" />
  </g>
  <g
     transform="matrix(0.1,0,0,-0.1,94.5475,239.65395)"
     id="g5397">
    <use
       xlink:href="#DejaVuSans-50"
       id="use5395"
       x="0"
       y="0"
       width="100%"
       height="100%" />
  </g>
  <g
     id="g5403">
    <use
       style="stroke:#000000;stroke-width:0.8"
       x="107.91"
       xlink:href="#m61844c2ac8"
       y="205.85158"
       id="use5401"
       width="100%"
       height="100%" />
  </g>
  <g
     transform="matrix(0.1,0,0,-0.1,94.5475,209.6508)"
     id="g5408">
    <use
       xlink:href="#DejaVuSans-51"
       id="use5406"
       x="0"
       y="0"
       width="100%"
       height="100%" />
  </g>
  <g
     id="g5414">
    <use
       style="stroke:#000000;stroke-width:0.8"
       x="107.91"
       xlink:href="#m61844c2ac8"
       y="175.84843"
       id="use5412"
       width="100%"
       height="100%" />
  </g>
  <g
     transform="matrix(0.1,0,0,-0.1,94.5475,179.64766)"
     id="g5419">
    <use
       xlink:href="#DejaVuSans-52"
       id="use5417"
       x="0"
       y="0"
       width="100%"
       height="100%" />
  </g>
  <g
     id="g5425">
    <use
       style="stroke:#000000;stroke-width:0.8"
       x="107.91"
       xlink:href="#m61844c2ac8"
       y="145.84529"
       id="use5423"
       width="100%"
       height="100%" />
  </g>
  <g
     transform="matrix(0.1,0,0,-0.1,94.5475,149.64451)"
     id="g5430">
    <use
       xlink:href="#DejaVuSans-53"
       id="use5428"
       x="0"
       y="0"
       width="100%"
       height="100%" />
  </g>
  <g
     id="g5436">
    <use
       style="stroke:#000000;stroke-width:0.8"
       x="107.91"
       xlink:href="#m61844c2ac8"
       y="115.84216"
       id="use5434"
       width="100%"
       height="100%" />
  </g>
  <g
     transform="matrix(0.1,0,0,-0.1,94.5475,119.64137)"
     id="g5444">
    <defs
       id="defs5440">
      <path
         d="m 33.015625,40.375 q -6.640625,0 -10.53125,-4.546875 -3.875,-4.53125 -3.875,-12.4375 0,-7.859375 3.875,-12.4375 3.890625,-4.5625 10.53125,-4.5625 6.640625,0 10.515625,4.5625 3.875,4.578125 3.875,12.4375 0,7.90625 -3.875,12.4375 Q 39.65625,40.375 33.015625,40.375 Z M 52.59375,71.296875 V 62.3125 q -3.71875,1.75 -7.5,2.671875 -3.78125,0.9375 -7.5,0.9375 -9.765625,0 -14.921875,-6.59375 -5.140625,-6.59375 -5.875,-19.921875 2.875,4.25 7.21875,6.515625 4.359375,2.265625 9.578125,2.265625 10.984375,0 17.359375,-6.671875 6.375,-6.65625 6.375,-18.125 0,-11.234375 -6.640625,-18.03125 -6.640625,-6.78125 -17.671875,-6.78125 -12.65625,0 -19.34375,9.6875 -6.6875,9.703125 -6.6875,28.109375 0,17.28125 8.203125,27.5625 8.203125,10.28125 22.015625,10.28125 3.71875,0 7.5,-0.734375 3.78125,-0.734375 7.890625,-2.1875 z"
         id="DejaVuSans-54" />
    </defs>
    <use
       xlink:href="#DejaVuSans-54"
       id="use5442"
       x="0"
       y="0"
       width="100%"
       height="100%" />
  </g>
  <g
     id="g5450">
    <use
       style="stroke:#000000;stroke-width:0.8"
       x="107.91"
       xlink:href="#m61844c2ac8"
       y="85.839012"
       id="use5448"
       width="100%"
       height="100%" />
  </g>
  <g
     transform="matrix(0.1,0,0,-0.1,94.5475,89.638227)"
     id="g5458">
    <defs
       id="defs5454">
      <path
         d="m 8.203125,72.90625 h 46.875 V 68.703125 L 28.609375,0 H 18.3125 L 43.21875,64.59375 H 8.203125 Z"
         id="DejaVuSans-55" />
    </defs>
    <use
       xlink:href="#DejaVuSans-55"
       id="use5456"
       x="0"
       y="0"
       width="100%"
       height="100%" />
  </g>
  <g
     id="g5464">
    <use
       style="stroke:#000000;stroke-width:0.8"
       x="107.91"
       xlink:href="#m61844c2ac8"
       y="55.835865"
       id="use5462"
       width="100%"
       height="100%" />
  </g>
  <g
     transform="matrix(0.1,0,0,-0.1,94.5475,59.635084)"
     id="g5472">
    <defs
       id="defs5468">
      <path
         d="m 31.78125,34.625 q -7.03125,0 -11.0625,-3.765625 -4.015625,-3.765625 -4.015625,-10.34375 0,-6.59375 4.015625,-10.359375 4.03125,-3.765625 11.0625,-3.765625 7.03125,0 11.078125,3.78125 4.0625,3.796875 4.0625,10.34375 0,6.578125 -4.03125,10.34375 Q 38.875,34.625 31.78125,34.625 Z m -9.859375,4.1875 Q 15.578125,40.375 12.03125,44.71875 8.5,49.078125 8.5,55.328125 q 0,8.734375 6.21875,13.8125 6.234375,5.078125 17.0625,5.078125 10.890625,0 17.09375,-5.078125 6.203125,-5.078125 6.203125,-13.8125 0,-6.25 -3.546875,-10.609375 Q 48,40.375 41.703125,38.8125 q 7.125,-1.65625 11.09375,-6.5 3.984375,-4.828125 3.984375,-11.796875 0,-10.609375 -6.46875,-16.28125 -6.46875,-5.65625 -18.53125,-5.65625 -12.046875,0 -18.53125,5.65625 -6.46875,5.671875 -6.46875,16.28125 0,6.96875 4,11.796875 4.015625,4.84375 11.140625,6.5 z M 18.3125,54.390625 q 0,-5.65625 3.53125,-8.828125 3.546875,-3.171875 9.9375,-3.171875 6.359375,0 9.9375,3.171875 3.59375,3.171875 3.59375,8.828125 0,5.671875 -3.59375,8.84375 -3.578125,3.171875 -9.9375,3.171875 -6.390625,0 -9.9375,-3.171875 Q 18.3125,60.0625 18.3125,54.390625 Z"
         id="DejaVuSans-56" />
    </defs>
    <use
       xlink:href="#DejaVuSans-56"
       id="use5470"
       x="0"
       y="0"
       width="100%"
       height="100%" />
  </g>
  <use
     xlink:href="#DejaVuSans-69"
     id="use5484"
     x="0"
     y="0"
     width="100%"
     height="100%"
     transform="matrix(0,-0.1,-0.1,0,88.467812,201.61472)" />
  <use
     x="63.183594"
     xlink:href="#DejaVuSans-114"
     id="use5486"
     y="0"
     width="100%"
     height="100%"
     transform="matrix(0,-0.1,-0.1,0,88.467812,201.61472)" />
  <use
     x="102.54688"
     xlink:href="#DejaVuSans-114"
     id="use5488"
     y="0"
     width="100%"
     height="100%"
     transform="matrix(0,-0.1,-0.1,0,88.467812,201.61472)" />
  <use
     x="141.41016"
     xlink:href="#DejaVuSans-111"
     id="use5490"
     y="0"
     width="100%"
     height="100%"
     transform="matrix(0,-0.1,-0.1,0,88.467812,201.61472)" />
  <use
     x="202.5918"
     xlink:href="#DejaVuSans-114"
     id="use5492"
     y="0"
     width="100%"
     height="100%"
     transform="matrix(0,-0.1,-0.1,0,88.467812,201.61472)" />
  <use
     x="243.70508"
     xlink:href="#DejaVuSans-32"
     id="use5494"
     y="0"
     width="100%"
     height="100%"
     transform="matrix(0,-0.1,-0.1,0,88.467812,201.61472)" />
  <use
     x="275.49219"
     xlink:href="#DejaVuSans-40"
     id="use5496"
     y="0"
     width="100%"
     height="100%"
     transform="matrix(0,-0.1,-0.1,0,88.467812,201.61472)" />
  <use
     x="314.50586"
     xlink:href="#DejaVuSans-97"
     id="use5498"
     y="0"
     width="100%"
     height="100%"
     transform="matrix(0,-0.1,-0.1,0,88.467812,201.61472)" />
  <use
     x="375.78516"
     xlink:href="#DejaVuSans-46"
     id="use5500"
     y="0"
     width="100%"
     height="100%"
     transform="matrix(0,-0.1,-0.1,0,88.467812,201.61472)" />
  <use
     x="407.57227"
     xlink:href="#DejaVuSans-117"
     id="use5502"
     y="0"
     width="100%"
     height="100%"
     transform="matrix(0,-0.1,-0.1,0,88.467812,201.61472)" />
  <use
     x="470.95117"
     xlink:href="#DejaVuSans-46"
     id="use5504"
     y="0"
     width="100%"
     height="100%"
     transform="matrix(0,-0.1,-0.1,0,88.467812,201.61472)" />
  <use
     x="502.73828"
     xlink:href="#DejaVuSans-41"
     id="use5506"
     y="0"
     width="100%"
     height="100%"
     transform="matrix(0,-0.1,-0.1,0,88.467812,201.61472)" />
  <path
     clip-path="url(#p4884a79e3d)"
     d="m 121.73318,53.568 7.08881,36.053698 7.08881,32.109142 7.08881,-33.772427 7.08882,48.198477 7.08881,12.23373 7.08881,31.95049 7.08881,4.56517 7.08881,31.58813 7.08881,23.82796 7.08881,-39.39104 7.08881,66.04041 7.08882,-18.42849 7.08881,-28.57854 7.08881,37.20363 7.08881,-1.55596 7.08881,13.80608 7.08881,-37.2813 7.08881,10.29638 7.08881,-6.5877 7.08882,38.48101 7.08881,-23.58848 7.08881,13.40255 7.08881,-21.59138 7.08881,8.9748 7.08881,3.43079 7.08881,11.73125 7.08881,7.4727 7.08881,9.28354 7.08882,-1.98978 7.08881,-14.80253 7.08881,24.1873 7.08881,-23.51485 7.08881,-11.25513 7.08881,37.67246 7.08881,-1.17211 7.08881,-2.99801 7.08882,-0.1304 7.08881,-10.1488 7.08881,8.61222"
     style="fill:none;stroke:#5f6dd3;stroke-width:1.5;stroke-linecap:square"
     id="path5512" />
  <path
     clip-path="url(#p4884a79e3d)"
     d="m 121.73318,82.454691 7.08881,-18.548852 7.08881,13.321491 7.08881,54.11833 7.08882,29.39022 7.08881,25.62309 7.08881,64.4004 7.08881,3.24673 7.08881,28.99814 7.08881,-21.2651 7.08881,8.0601 7.08881,17.3128 7.08882,-18.3678 7.08881,18.50266 7.08881,-41.71949 7.08881,7.04901 7.08881,26.72201 7.08881,5.02441 7.08881,2.36462 7.08881,-20.33493 7.08882,22.43951 7.08881,-11.53783 7.08881,5.50244 7.08881,2.98652 7.08881,4.12303 7.08881,-18.75378 7.08881,7.48251 7.08881,16.89307 7.08881,-15.51424 7.08882,6.30789 7.08881,9.16978 7.08881,-2.82322 7.08881,-33.47057 7.08881,23.17197 7.08881,-2.33225 7.08881,-11.03521 7.08881,25.50617 7.08882,-31.40595 7.08881,29.22861 7.08881,-31.58923"
     style="fill:none;stroke:#d3c55f;stroke-width:1.5;stroke-linecap:square"
     id="path5515" />
  <path
     d="M 107.91,307.584 V 41.472"
     style="fill:none;stroke:#000000;stroke-width:0.8;stroke-linecap:square;stroke-linejoin:miter"
     id="path5518" />
  <path
     d="M 412.02,307.584 V 41.472"
     style="fill:none;stroke:#000000;stroke-width:0.8;stroke-linecap:square;stroke-linejoin:miter"
     id="path5521" />
  <path
     d="M 107.91,307.584 H 412.02"
     style="fill:none;stroke:#000000;stroke-width:0.8;stroke-linecap:square;stroke-linejoin:miter"
     id="path5524" />
  <path
     d="M 107.91,41.472 H 412.02"
     style="fill:none;stroke:#000000;stroke-width:0.8;stroke-linecap:square;stroke-linejoin:miter"
     id="path5527" />
  <use
     xlink:href="#DejaVuSans-82"
     id="use5535"
     x="0"
     y="0"
     width="100%"
     height="100%"
     transform="matrix(0.12,0,0,-0.12,189.9975,35.472)" />
  <use
     x="64.982422"
     xlink:href="#DejaVuSans-101"
     id="use5537"
     y="0"
     width="100%"
     height="100%"
     transform="matrix(0.12,0,0,-0.12,189.9975,35.472)" />
  <use
     x="126.50586"
     xlink:href="#DejaVuSans-115"
     id="use5539"
     y="0"
     width="100%"
     height="100%"
     transform="matrix(0.12,0,0,-0.12,189.9975,35.472)" />
  <use
     x="178.60547"
     xlink:href="#DejaVuSans-117"
     id="use5541"
     y="0"
     width="100%"
     height="100%"
     transform="matrix(0.12,0,0,-0.12,189.9975,35.472)" />
  <use
     x="241.98438"
     xlink:href="#DejaVuSans-108"
     id="use5543"
     y="0"
     width="100%"
     height="100%"
     transform="matrix(0.12,0,0,-0.12,189.9975,35.472)" />
  <use
     x="269.76758"
     xlink:href="#DejaVuSans-116"
     id="use5545"
     y="0"
     width="100%"
     height="100%"
     transform="matrix(0.12,0,0,-0.12,189.9975,35.472)" />
  <use
     x="308.97656"
     xlink:href="#DejaVuSans-115"
     id="use5547"
     y="0"
     width="100%"
     height="100%"
     transform="matrix(0.12,0,0,-0.12,189.9975,35.472)" />
  <use
     x="361.07617"
     xlink:href="#DejaVuSans-32"
     id="use5549"
     y="0"
     width="100%"
     height="100%"
     transform="matrix(0.12,0,0,-0.12,189.9975,35.472)" />
  <use
     x="392.86328"
     xlink:href="#DejaVuSans-102"
     id="use5551"
     y="0"
     width="100%"
     height="100%"
     transform="matrix(0.12,0,0,-0.12,189.9975,35.472)" />
  <use
     x="428.06836"
     xlink:href="#DejaVuSans-114"
     id="use5553"
     y="0"
     width="100%"
     height="100%"
     transform="matrix(0.12,0,0,-0.12,189.9975,35.472)" />
  <use
     x="466.93164"
     xlink:href="#DejaVuSans-111"
     id="use5555"
     y="0"
     width="100%"
     height="100%"
     transform="matrix(0.12,0,0,-0.12,189.9975,35.472)" />
  <use
     x="528.11328"
     xlink:href="#DejaVuSans-109"
     id="use5557"
     y="0"
     width="100%"
     height="100%"
     transform="matrix(0.12,0,0,-0.12,189.9975,35.472)" />
  <use
     x="625.52539"
     xlink:href="#DejaVuSans-32"
     id="use5559"
     y="0"
     width="100%"
     height="100%"
     transform="matrix(0.12,0,0,-0.12,189.9975,35.472)" />
  <use
     x="657.3125"
     xlink:href="#DejaVuSans-111"
     id="use5561"
     y="0"
     width="100%"
     height="100%"
     transform="matrix(0.12,0,0,-0.12,189.9975,35.472)" />
  <use
     x="718.49414"
     xlink:href="#DejaVuSans-117"
     id="use5563"
     y="0"
     width="100%"
     height="100%"
     transform="matrix(0.12,0,0,-0.12,189.9975,35.472)" />
  <use
     x="781.87305"
     xlink:href="#DejaVuSans-114"
     id="use5565"
     y="0"
     width="100%"
     height="100%"
     transform="matrix(0.12,0,0,-0.12,189.9975,35.472)" />
  <use
     x="822.98633"
     xlink:href="#DejaVuSans-32"
     id="use5567"
     y="0"
     width="100%"
     height="100%"
     transform="matrix(0.12,0,0,-0.12,189.9975,35.472)" />
  <use
     x="854.77344"
     xlink:href="#DejaVuSans-109"
     id="use5569"
     y="0"
     width="100%"
     height="100%"
     transform="matrix(0.12,0,0,-0.12,189.9975,35.472)" />
  <use
     x="952.18555"
     xlink:href="#DejaVuSans-111"
     id="use5571"
     y="0"
     width="100%"
     height="100%"
     transform="matrix(0.12,0,0,-0.12,189.9975,35.472)" />
  <use
     x="1013.3672"
     xlink:href="#DejaVuSans-100"
     id="use5573"
     y="0"
     width="100%"
     height="100%"
     transform="matrix(0.12,0,0,-0.12,189.9975,35.472)" />
  <use
     x="1076.8438"
     xlink:href="#DejaVuSans-101"
     id="use5575"
     y="0"
     width="100%"
     height="100%"
     transform="matrix(0.12,0,0,-0.12,189.9975,35.472)" />
  <use
     x="1138.3672"
     xlink:href="#DejaVuSans-108"
     id="use5577"
     y="0"
     width="100%"
     height="100%"
     transform="matrix(0.12,0,0,-0.12,189.9975,35.472)" />
  <path
     d="M 358.27781,78.82825 H 405.02 q 2,0 2,-2 V 48.472 q 0,-2 -2,-2 h -46.74219 q -2,0 -2,2 v 28.35625 q 0,2 2,2 z"
     style="opacity:0.8;fill:#ffffff;stroke:#cccccc;stroke-linejoin:miter"
     id="path5582" />
  <path
     d="m 360.27781,54.570437 h 20"
     style="fill:none;stroke:#5f6dd3;stroke-width:1.5;stroke-linecap:square"
     id="path5585" />
  <use
     xlink:href="#DejaVuSans-45"
     id="use5592"
     x="0"
     y="0"
     width="100%"
     height="100%"
     transform="matrix(0.1,0,0,-0.1,388.27781,58.070437)" />
  <use
     x="36.083984"
     xlink:href="#DejaVuSans-56"
     id="use5594"
     y="0"
     width="100%"
     height="100%"
     transform="matrix(0.1,0,0,-0.1,388.27781,58.070437)" />
  <path
     d="m 360.27781,69.248562 h 20"
     style="fill:none;stroke:#d3c55f;stroke-width:1.5;stroke-linecap:square"
     id="path5599" />
  <use
     xlink:href="#DejaVuSans-43"
     id="use5606"
     x="0"
     y="0"
     width="100%"
     height="100%"
     transform="matrix(0.1,0,0,-0.1,388.27781,72.748562)" />
  <use
     x="83.789062"
     xlink:href="#DejaVuSans-56"
     id="use5608"
     y="0"
     width="100%"
     height="100%"
     transform="matrix(0.1,0,0,-0.1,388.27781,72.748562)" />
  <path
     d="m 472.842,307.584 h 304.11 V 41.472 h -304.11 z"
     style="fill:#ffffff"
     id="path5615" />
  <g
     id="g5620">
    <use
       style="stroke:#000000;stroke-width:0.8"
       x="486.66519"
       xlink:href="#m58a2c024a8"
       y="307.58401"
       id="use5618"
       width="100%"
       height="100%" />
  </g>
  <g
     transform="matrix(0.1,0,0,-0.1,483.48393,322.18244)"
     id="g5625">
    <use
       xlink:href="#DejaVuSans-48"
       id="use5623"
       x="0"
       y="0"
       width="100%"
       height="100%" />
  </g>
  <g
     id="g5631">
    <use
       style="stroke:#000000;stroke-width:0.8"
       x="522.10925"
       xlink:href="#m58a2c024a8"
       y="307.58401"
       id="use5629"
       width="100%"
       height="100%" />
  </g>
  <g
     transform="matrix(0.1,0,0,-0.1,518.92799,322.18244)"
     id="g5636">
    <use
       xlink:href="#DejaVuSans-53"
       id="use5634"
       x="0"
       y="0"
       width="100%"
       height="100%" />
  </g>
  <g
     id="g5642">
    <use
       style="stroke:#000000;stroke-width:0.8"
       x="557.55328"
       xlink:href="#m58a2c024a8"
       y="307.58401"
       id="use5640"
       width="100%"
       height="100%" />
  </g>
  <g
     transform="matrix(0.1,0,0,-0.1,551.19079,322.18244)"
     id="g5649">
    <use
       xlink:href="#DejaVuSans-49"
       id="use5645"
       x="0"
       y="0"
       width="100%"
       height="100%" />
    <use
       x="63.623047"
       xlink:href="#DejaVuSans-48"
       id="use5647"
       y="0"
       width="100%"
       height="100%" />
  </g>
  <g
     id="g5655">
    <use
       style="stroke:#000000;stroke-width:0.8"
       x="592.99738"
       xlink:href="#m58a2c024a8"
       y="307.58401"
       id="use5653"
       width="100%"
       height="100%" />
  </g>
  <g
     transform="matrix(0.1,0,0,-0.1,586.63485,322.18244)"
     id="g5662">
    <use
       xlink:href="#DejaVuSans-49"
       id="use5658"
       x="0"
       y="0"
       width="100%"
       height="100%" />
    <use
       x="63.623047"
       xlink:href="#DejaVuSans-53"
       id="use5660"
       y="0"
       width="100%"
       height="100%" />
  </g>
  <g
     id="g5668">
    <use
       style="stroke:#000000;stroke-width:0.8"
       x="628.44141"
       xlink:href="#m58a2c024a8"
       y="307.58401"
       id="use5666"
       width="100%"
       height="100%" />
  </g>
  <g
     transform="matrix(0.1,0,0,-0.1,622.07891,322.18244)"
     id="g5675">
    <use
       xlink:href="#DejaVuSans-50"
       id="use5671"
       x="0"
       y="0"
       width="100%"
       height="100%" />
    <use
       x="63.623047"
       xlink:href="#DejaVuSans-48"
       id="use5673"
       y="0"
       width="100%"
       height="100%" />
  </g>
  <g
     id="g5681">
    <use
       style="stroke:#000000;stroke-width:0.8"
       x="663.88544"
       xlink:href="#m58a2c024a8"
       y="307.58401"
       id="use5679"
       width="100%"
       height="100%" />
  </g>
  <g
     transform="matrix(0.1,0,0,-0.1,657.52296,322.18244)"
     id="g5688">
    <use
       xlink:href="#DejaVuSans-50"
       id="use5684"
       x="0"
       y="0"
       width="100%"
       height="100%" />
    <use
       x="63.623047"
       xlink:href="#DejaVuSans-53"
       id="use5686"
       y="0"
       width="100%"
       height="100%" />
  </g>
  <g
     id="g5694">
    <use
       style="stroke:#000000;stroke-width:0.8"
       x="699.32953"
       xlink:href="#m58a2c024a8"
       y="307.58401"
       id="use5692"
       width="100%"
       height="100%" />
  </g>
  <g
     transform="matrix(0.1,0,0,-0.1,692.96702,322.18244)"
     id="g5701">
    <use
       xlink:href="#DejaVuSans-51"
       id="use5697"
       x="0"
       y="0"
       width="100%"
       height="100%" />
    <use
       x="63.623047"
       xlink:href="#DejaVuSans-48"
       id="use5699"
       y="0"
       width="100%"
       height="100%" />
  </g>
  <g
     id="g5707">
    <use
       style="stroke:#000000;stroke-width:0.8"
       x="734.77356"
       xlink:href="#m58a2c024a8"
       y="307.58401"
       id="use5705"
       width="100%"
       height="100%" />
  </g>
  <g
     transform="matrix(0.1,0,0,-0.1,728.41107,322.18244)"
     id="g5714">
    <use
       xlink:href="#DejaVuSans-51"
       id="use5710"
       x="0"
       y="0"
       width="100%"
       height="100%" />
    <use
       x="63.623047"
       xlink:href="#DejaVuSans-53"
       id="use5712"
       y="0"
       width="100%"
       height="100%" />
  </g>
  <g
     id="g5720">
    <use
       style="stroke:#000000;stroke-width:0.8"
       x="770.21765"
       xlink:href="#m58a2c024a8"
       y="307.58401"
       id="use5718"
       width="100%"
       height="100%" />
  </g>
  <g
     transform="matrix(0.1,0,0,-0.1,763.85513,322.18244)"
     id="g5727">
    <use
       xlink:href="#DejaVuSans-52"
       id="use5723"
       x="0"
       y="0"
       width="100%"
       height="100%" />
    <use
       x="63.623047"
       xlink:href="#DejaVuSans-48"
       id="use5725"
       y="0"
       width="100%"
       height="100%" />
  </g>
  <use
     xlink:href="#DejaVuSans-84"
     id="use5731"
     x="0"
     y="0"
     width="100%"
     height="100%"
     transform="matrix(0.1,0,0,-0.1,581.11028,335.86056)" />
  <use
     x="46.333984"
     xlink:href="#DejaVuSans-114"
     id="use5733"
     y="0"
     width="100%"
     height="100%"
     transform="matrix(0.1,0,0,-0.1,581.11028,335.86056)" />
  <use
     x="87.447266"
     xlink:href="#DejaVuSans-105"
     id="use5735"
     y="0"
     width="100%"
     height="100%"
     transform="matrix(0.1,0,0,-0.1,581.11028,335.86056)" />
  <use
     x="115.23047"
     xlink:href="#DejaVuSans-97"
     id="use5737"
     y="0"
     width="100%"
     height="100%"
     transform="matrix(0.1,0,0,-0.1,581.11028,335.86056)" />
  <use
     x="176.50977"
     xlink:href="#DejaVuSans-108"
     id="use5739"
     y="0"
     width="100%"
     height="100%"
     transform="matrix(0.1,0,0,-0.1,581.11028,335.86056)" />
  <use
     x="204.29297"
     xlink:href="#DejaVuSans-115"
     id="use5741"
     y="0"
     width="100%"
     height="100%"
     transform="matrix(0.1,0,0,-0.1,581.11028,335.86056)" />
  <use
     x="256.39258"
     xlink:href="#DejaVuSans-32"
     id="use5743"
     y="0"
     width="100%"
     height="100%"
     transform="matrix(0.1,0,0,-0.1,581.11028,335.86056)" />
  <use
     x="288.17969"
     xlink:href="#DejaVuSans-97"
     id="use5745"
     y="0"
     width="100%"
     height="100%"
     transform="matrix(0.1,0,0,-0.1,581.11028,335.86056)" />
  <use
     x="349.45898"
     xlink:href="#DejaVuSans-102"
     id="use5747"
     y="0"
     width="100%"
     height="100%"
     transform="matrix(0.1,0,0,-0.1,581.11028,335.86056)" />
  <use
     x="382.91406"
     xlink:href="#DejaVuSans-116"
     id="use5749"
     y="0"
     width="100%"
     height="100%"
     transform="matrix(0.1,0,0,-0.1,581.11028,335.86056)" />
  <use
     x="422.12305"
     xlink:href="#DejaVuSans-101"
     id="use5751"
     y="0"
     width="100%"
     height="100%"
     transform="matrix(0.1,0,0,-0.1,581.11028,335.86056)" />
  <use
     x="483.64648"
     xlink:href="#DejaVuSans-114"
     id="use5753"
     y="0"
     width="100%"
     height="100%"
     transform="matrix(0.1,0,0,-0.1,581.11028,335.86056)" />
  <use
     x="524.75977"
     xlink:href="#DejaVuSans-32"
     id="use5755"
     y="0"
     width="100%"
     height="100%"
     transform="matrix(0.1,0,0,-0.1,581.11028,335.86056)" />
  <use
     x="556.54688"
     xlink:href="#DejaVuSans-115"
     id="use5757"
     y="0"
     width="100%"
     height="100%"
     transform="matrix(0.1,0,0,-0.1,581.11028,335.86056)" />
  <use
     x="608.64648"
     xlink:href="#DejaVuSans-119"
     id="use5759"
     y="0"
     width="100%"
     height="100%"
     transform="matrix(0.1,0,0,-0.1,581.11028,335.86056)" />
  <use
     x="690.43359"
     xlink:href="#DejaVuSans-105"
     id="use5761"
     y="0"
     width="100%"
     height="100%"
     transform="matrix(0.1,0,0,-0.1,581.11028,335.86056)" />
  <use
     x="718.2168"
     xlink:href="#DejaVuSans-116"
     id="use5763"
     y="0"
     width="100%"
     height="100%"
     transform="matrix(0.1,0,0,-0.1,581.11028,335.86056)" />
  <use
     x="757.42578"
     xlink:href="#DejaVuSans-99"
     id="use5765"
     y="0"
     width="100%"
     height="100%"
     transform="matrix(0.1,0,0,-0.1,581.11028,335.86056)" />
  <use
     x="812.40625"
     xlink:href="#DejaVuSans-104"
     id="use5767"
     y="0"
     width="100%"
     height="100%"
     transform="matrix(0.1,0,0,-0.1,581.11028,335.86056)" />
  <g
     id="g5775">
    <use
       style="stroke:#000000;stroke-width:0.8"
       x="472.84201"
       xlink:href="#m61844c2ac8"
       y="295.86102"
       id="use5773"
       width="100%"
       height="100%" />
  </g>
  <g
     id="g5781">
    <use
       style="stroke:#000000;stroke-width:0.8"
       x="472.84201"
       xlink:href="#m61844c2ac8"
       y="265.85788"
       id="use5779"
       width="100%"
       height="100%" />
  </g>
  <g
     id="g5787">
    <use
       style="stroke:#000000;stroke-width:0.8"
       x="472.84201"
       xlink:href="#m61844c2ac8"
       y="235.85472"
       id="use5785"
       width="100%"
       height="100%" />
  </g>
  <g
     id="g5793">
    <use
       style="stroke:#000000;stroke-width:0.8"
       x="472.84201"
       xlink:href="#m61844c2ac8"
       y="205.85158"
       id="use5791"
       width="100%"
       height="100%" />
  </g>
  <g
     id="g5799">
    <use
       style="stroke:#000000;stroke-width:0.8"
       x="472.84201"
       xlink:href="#m61844c2ac8"
       y="175.84843"
       id="use5797"
       width="100%"
       height="100%" />
  </g>
  <g
     id="g5805">
    <use
       style="stroke:#000000;stroke-width:0.8"
       x="472.84201"
       xlink:href="#m61844c2ac8"
       y="145.84529"
       id="use5803"
       width="100%"
       height="100%" />
  </g>
  <g
     id="g5811">
    <use
       style="stroke:#000000;stroke-width:0.8"
       x="472.84201"
       xlink:href="#m61844c2ac8"
       y="115.84216"
       id="use5809"
       width="100%"
       height="100%" />
  </g>
  <g
     id="g5817">
    <use
       style="stroke:#000000;stroke-width:0.8"
       x="472.84201"
       xlink:href="#m61844c2ac8"
       y="85.839012"
       id="use5815"
       width="100%"
       height="100%" />
  </g>
  <g
     id="g5823">
    <use
       style="stroke:#000000;stroke-width:0.8"
       x="472.84201"
       xlink:href="#m61844c2ac8"
       y="55.835865"
       id="use5821"
       width="100%"
       height="100%" />
  </g>
  <path
     d="M 472.842,307.584 V 41.472"
     style="fill:none;stroke:#000000;stroke-width:0.8;stroke-linecap:square;stroke-linejoin:miter"
     id="path5828" />
  <path
     d="M 776.952,307.584 V 41.472"
     style="fill:none;stroke:#000000;stroke-width:0.8;stroke-linecap:square;stroke-linejoin:miter"
     id="path5831" />
  <path
     d="m 472.842,307.584 h 304.11"
     style="fill:none;stroke:#000000;stroke-width:0.8;stroke-linecap:square;stroke-linejoin:miter"
     id="path5834" />
  <path
     d="m 472.842,41.472 h 304.11"
     style="fill:none;stroke:#000000;stroke-width:0.8;stroke-linecap:square;stroke-linejoin:miter"
     id="path5837" />
  <use
     xlink:href="#DejaVuSans-82"
     id="use5843"
     x="0"
     y="0"
     width="100%"
     height="100%"
     transform="matrix(0.12,0,0,-0.12,560.63513,22.034625)" />
  <use
     x="64.982422"
     xlink:href="#DejaVuSans-101"
     id="use5845"
     y="0"
     width="100%"
     height="100%"
     transform="matrix(0.12,0,0,-0.12,560.63513,22.034625)" />
  <use
     x="126.50586"
     xlink:href="#DejaVuSans-115"
     id="use5847"
     y="0"
     width="100%"
     height="100%"
     transform="matrix(0.12,0,0,-0.12,560.63513,22.034625)" />
  <use
     x="178.60547"
     xlink:href="#DejaVuSans-117"
     id="use5849"
     y="0"
     width="100%"
     height="100%"
     transform="matrix(0.12,0,0,-0.12,560.63513,22.034625)" />
  <use
     x="241.98438"
     xlink:href="#DejaVuSans-108"
     id="use5851"
     y="0"
     width="100%"
     height="100%"
     transform="matrix(0.12,0,0,-0.12,560.63513,22.034625)" />
  <use
     x="269.76758"
     xlink:href="#DejaVuSans-116"
     id="use5853"
     y="0"
     width="100%"
     height="100%"
     transform="matrix(0.12,0,0,-0.12,560.63513,22.034625)" />
  <use
     x="308.97656"
     xlink:href="#DejaVuSans-115"
     id="use5855"
     y="0"
     width="100%"
     height="100%"
     transform="matrix(0.12,0,0,-0.12,560.63513,22.034625)" />
  <use
     x="361.07617"
     xlink:href="#DejaVuSans-32"
     id="use5857"
     y="0"
     width="100%"
     height="100%"
     transform="matrix(0.12,0,0,-0.12,560.63513,22.034625)" />
  <use
     x="392.86328"
     xlink:href="#DejaVuSans-97"
     id="use5859"
     y="0"
     width="100%"
     height="100%"
     transform="matrix(0.12,0,0,-0.12,560.63513,22.034625)" />
  <use
     x="454.14258"
     xlink:href="#DejaVuSans-100"
     id="use5861"
     y="0"
     width="100%"
     height="100%"
     transform="matrix(0.12,0,0,-0.12,560.63513,22.034625)" />
  <use
     x="517.61914"
     xlink:href="#DejaVuSans-97"
     id="use5863"
     y="0"
     width="100%"
     height="100%"
     transform="matrix(0.12,0,0,-0.12,560.63513,22.034625)" />
  <use
     x="578.89844"
     xlink:href="#DejaVuSans-112"
     id="use5865"
     y="0"
     width="100%"
     height="100%"
     transform="matrix(0.12,0,0,-0.12,560.63513,22.034625)" />
  <use
     x="642.375"
     xlink:href="#DejaVuSans-116"
     id="use5867"
     y="0"
     width="100%"
     height="100%"
     transform="matrix(0.12,0,0,-0.12,560.63513,22.034625)" />
  <use
     x="681.58398"
     xlink:href="#DejaVuSans-101"
     id="use5869"
     y="0"
     width="100%"
     height="100%"
     transform="matrix(0.12,0,0,-0.12,560.63513,22.034625)" />
  <use
     x="743.10742"
     xlink:href="#DejaVuSans-100"
     id="use5871"
     y="0"
     width="100%"
     height="100%"
     transform="matrix(0.12,0,0,-0.12,560.63513,22.034625)" />
  <use
     x="806.58398"
     xlink:href="#DejaVuSans-32"
     id="use5873"
     y="0"
     width="100%"
     height="100%"
     transform="matrix(0.12,0,0,-0.12,560.63513,22.034625)" />
  <use
     x="838.37109"
     xlink:href="#DejaVuSans-102"
     id="use5875"
     y="0"
     width="100%"
     height="100%"
     transform="matrix(0.12,0,0,-0.12,560.63513,22.034625)" />
  <use
     x="873.57617"
     xlink:href="#DejaVuSans-114"
     id="use5877"
     y="0"
     width="100%"
     height="100%"
     transform="matrix(0.12,0,0,-0.12,560.63513,22.034625)" />
  <use
     x="912.43945"
     xlink:href="#DejaVuSans-111"
     id="use5879"
     y="0"
     width="100%"
     height="100%"
     transform="matrix(0.12,0,0,-0.12,560.63513,22.034625)" />
  <use
     x="973.62109"
     xlink:href="#DejaVuSans-109"
     id="use5881"
     y="0"
     width="100%"
     height="100%"
     transform="matrix(0.12,0,0,-0.12,560.63513,22.034625)" />
  <use
     xlink:href="#DejaVuSans-68"
     id="use5890"
     x="0"
     y="0"
     width="100%"
     height="100%"
     transform="matrix(0.12,0,0,-0.12,562.68825,35.472)" />
  <use
     x="77.001953"
     xlink:href="#DejaVuSans-97"
     id="use5892"
     y="0"
     width="100%"
     height="100%"
     transform="matrix(0.12,0,0,-0.12,562.68825,35.472)" />
  <use
     x="138.28125"
     xlink:href="#DejaVuSans-118"
     id="use5894"
     y="0"
     width="100%"
     height="100%"
     transform="matrix(0.12,0,0,-0.12,562.68825,35.472)" />
  <use
     x="197.46094"
     xlink:href="#DejaVuSans-105"
     id="use5896"
     y="0"
     width="100%"
     height="100%"
     transform="matrix(0.12,0,0,-0.12,562.68825,35.472)" />
  <use
     x="225.24414"
     xlink:href="#DejaVuSans-100"
     id="use5898"
     y="0"
     width="100%"
     height="100%"
     transform="matrix(0.12,0,0,-0.12,562.68825,35.472)" />
  <use
     x="288.7207"
     xlink:href="#DejaVuSans-115"
     id="use5900"
     y="0"
     width="100%"
     height="100%"
     transform="matrix(0.12,0,0,-0.12,562.68825,35.472)" />
  <use
     x="340.82031"
     xlink:href="#DejaVuSans-111"
     id="use5902"
     y="0"
     width="100%"
     height="100%"
     transform="matrix(0.12,0,0,-0.12,562.68825,35.472)" />
  <use
     x="402.00195"
     xlink:href="#DejaVuSans-110"
     id="use5904"
     y="0"
     width="100%"
     height="100%"
     transform="matrix(0.12,0,0,-0.12,562.68825,35.472)" />
  <use
     x="465.38086"
     xlink:href="#DejaVuSans-32"
     id="use5906"
     y="0"
     width="100%"
     height="100%"
     transform="matrix(0.12,0,0,-0.12,562.68825,35.472)" />
  <use
     x="497.16797"
     xlink:href="#DejaVuSans-101"
     id="use5908"
     y="0"
     width="100%"
     height="100%"
     transform="matrix(0.12,0,0,-0.12,562.68825,35.472)" />
  <use
     x="558.69141"
     xlink:href="#DejaVuSans-116"
     id="use5910"
     y="0"
     width="100%"
     height="100%"
     transform="matrix(0.12,0,0,-0.12,562.68825,35.472)" />
  <use
     x="597.90039"
     xlink:href="#DejaVuSans-32"
     id="use5912"
     y="0"
     width="100%"
     height="100%"
     transform="matrix(0.12,0,0,-0.12,562.68825,35.472)" />
  <use
     x="629.6875"
     xlink:href="#DejaVuSans-97"
     id="use5914"
     y="0"
     width="100%"
     height="100%"
     transform="matrix(0.12,0,0,-0.12,562.68825,35.472)" />
  <use
     x="690.9668"
     xlink:href="#DejaVuSans-108"
     id="use5916"
     y="0"
     width="100%"
     height="100%"
     transform="matrix(0.12,0,0,-0.12,562.68825,35.472)" />
  <use
     x="718.75"
     xlink:href="#DejaVuSans-46"
     id="use5918"
     y="0"
     width="100%"
     height="100%"
     transform="matrix(0.12,0,0,-0.12,562.68825,35.472)" />
  <use
     x="750.53711"
     xlink:href="#DejaVuSans-32"
     id="use5920"
     y="0"
     width="100%"
     height="100%"
     transform="matrix(0.12,0,0,-0.12,562.68825,35.472)" />
  <use
     x="782.32422"
     xlink:href="#DejaVuSans-50"
     id="use5922"
     y="0"
     width="100%"
     height="100%"
     transform="matrix(0.12,0,0,-0.12,562.68825,35.472)" />
  <use
     x="845.94727"
     xlink:href="#DejaVuSans-48"
     id="use5924"
     y="0"
     width="100%"
     height="100%"
     transform="matrix(0.12,0,0,-0.12,562.68825,35.472)" />
  <use
     x="909.57031"
     xlink:href="#DejaVuSans-48"
     id="use5926"
     y="0"
     width="100%"
     height="100%"
     transform="matrix(0.12,0,0,-0.12,562.68825,35.472)" />
  <use
     x="973.19336"
     xlink:href="#DejaVuSans-52"
     id="use5928"
     y="0"
     width="100%"
     height="100%"
     transform="matrix(0.12,0,0,-0.12,562.68825,35.472)" />
  <defs
     id="defs5938">
    <clipPath
       id="p4884a79e3d">
      <rect
         height="266.112"
         width="304.11"
         x="107.91"
         y="41.472"
         id="rect5935" />
    </clipPath>
  </defs>
  <path
     style="fill:#999999;fill-rule:evenodd;stroke:#d3c55f;stroke-width:1.55367px;stroke-linecap:butt;stroke-linejoin:miter;stroke-opacity:1;fill-opacity:0.34148452"
     d="m 485.02686,68.466479 6.89272,150.449511 6.8927,5.28739 7.9266,11.536 7.92663,-9.13272 6.8927,-17.78471 6.54809,35.08885 7.9266,-21.63014 6.89271,45.18289 7.92662,-12.97805 6.54807,-47.58626 7.582,18.7461 6.89268,31.72417 7.58198,-33.64679 7.23733,37.97279 7.92662,1.92271 7.23735,-23.07212 6.20344,19.70743 7.58196,-24.51415 14.81932,20.66881 9.30514,-0.96139 6.20345,-22.1107 6.54809,45.66355 15.50853,-64.89038 6.8928,-0.48059 14.13003,40.85687 8.27127,-20.66874 6.54807,-36.53081 7.23734,43.74084 6.8927,-34.60819 7.23738,63.44833 7.23733,-41.81819 7.23733,45.6636 7.58196,-80.27179 8.27127,61.52561 6.54807,-3.36467 2.41244,5.28739 4.82489,-3.84534 v 34.12746 l -15.5086,-12.49734 -6.54807,-22.11085 -6.8927,43.26025 -7.23733,-23.07209 -7.58196,12.01673 -7.23733,-32.68555 -7.23738,21.63019 -8.27126,-19.22684 -6.20341,13.93947 -6.8927,2.88401 -8.27127,-15.3815 -6.8927,3.36475 -13.09619,16.34275 -9.64982,21.14947 -6.54808,-28.84021 -6.20341,20.66881 -8.27125,-6.2487 -7.23733,7.69073 -7.92662,-24.51422 -7.23733,12.97815 -6.54807,-8.17142 -7.92663,11.05544 -6.89272,0.48058 -7.58195,-31.24351 -6.89271,33.16615 -7.92664,-12.49734 -6.89268,-34.12753 -6.8927,34.60819 -6.54809,19.22676 -8.61588,-28.84021 -7.23733,5.76805 -6.89272,-13.93938 -7.58198,20.66879 -7.58197,-10.09409 -6.89272,3.84541 -8.61588,-8.17142 -5.8588,-113.43795 z"
     id="path4151" />
  <path
     style="fill:#999999;fill-rule:evenodd;stroke:#5f6dd3;stroke-width:1.55367px;stroke-linecap:butt;stroke-linejoin:miter;stroke-opacity:1;fill-opacity:0.34148452"
     d="m 484.12599,72.600643 2.43696,29.909837 13.64686,-11.216164 6.57972,82.591964 7.7982,-34.66825 6.82343,-0.33982 7.31083,12.91564 7.06713,65.2578 8.04188,-14.95491 7.31083,10.87635 6.82349,-28.89022 6.57969,11.89595 8.52934,1.69948 6.33605,57.10058 4.38647,-22.43241 3.16804,-24.81152 7.06713,22.09248 7.55451,-38.06713 6.82339,18.6937 7.55451,35.68787 9.26039,-20.05318 6.33607,-19.37345 5.84863,17.33416 8.28563,9.1769 7.55451,-6.11799 7.06713,13.93524 7.55451,-23.7919 6.57975,24.47173 8.04188,-22.43237 7.0671,42.48555 7.55456,-66.95725 6.33605,83.95147 8.28558,-62.53875 h 7.06713 l 6.57975,31.94913 8.28559,3.39887 6.57975,-1.01964 7.31076,-20.39307 7.55456,39.42656 8.2856,-13.25546 1.70588,6.11789 4.38642,-4.07863 -0.48727,25.49138 -6.33602,-10.19655 c 0,0 -7.79824,18.3538 -7.79824,15.97458 0,-2.37918 -7.06708,-31.94916 -7.06708,-31.94916 l -7.31083,29.56998 -7.5545,-2.7191 -14.37796,-31.94915 -6.82343,11.89594 -8.0419,33.64861 -7.31081,-44.18502 -7.06713,25.49135 -7.06715,-16.99423 -7.31081,11.2162 -7.06713,-12.23589 -7.55451,14.95501 -8.77301,-3.73877 -5.84864,-7.4775 -6.57973,9.51679 -7.79821,-28.21039 -7.06713,19.71332 -8.52928,8.15718 -13.89056,-29.56997 -7.31083,31.26945 -7.55451,-21.75268 -7.5545,27.53063 -13.64688,-61.51903 -7.06713,44.52483 -13.89058,-6.11792 -8.77302,2.03934 -6.57969,-67.97689 -9.01672,4.75831 -6.57973,9.85666 -6.33607,5.09835 -7.79819,-47.24403 -8.04188,3.73876 -6.33606,-20.73296 z"
     id="path4266" />
</svg>
