<?xml version="1.0" encoding="utf-8" standalone="no"?>
<!DOCTYPE svg PUBLIC "-//W3C//DTD SVG 1.1//EN"
  "http://www.w3.org/Graphics/SVG/1.1/DTD/svg11.dtd">
<svg xmlns:xlink="http://www.w3.org/1999/xlink" width="432pt" height="288pt" viewBox="0 0 432 288" xmlns="http://www.w3.org/2000/svg" version="1.1">
 <metadata>
  <rdf:RDF xmlns:dc="http://purl.org/dc/elements/1.1/" xmlns:cc="http://creativecommons.org/ns#" xmlns:rdf="http://www.w3.org/1999/02/22-rdf-syntax-ns#">
   <cc:Work>
    <dc:type rdf:resource="http://purl.org/dc/dcmitype/StillImage"/>
    <dc:date>2022-04-20T14:10:22.066428</dc:date>
    <dc:format>image/svg+xml</dc:format>
    <dc:creator>
     <cc:Agent>
      <dc:title>Matplotlib v3.5.0, https://matplotlib.org/</dc:title>
     </cc:Agent>
    </dc:creator>
   </cc:Work>
  </rdf:RDF>
 </metadata>
 <defs>
  <style type="text/css">*{stroke-linejoin: round; stroke-linecap: butt}</style>
 </defs>
 <g id="figure_1">
  <g id="patch_1">
   <path d="M 0 288 
L 432 288 
L 432 0 
L 0 0 
z
" style="fill: #ffffff"/>
  </g>
  <g id="axes_1">
   <g id="patch_2">
    <path d="M 54 97.92 
L 156.444062 97.92 
L 156.444062 34.56 
L 54 34.56 
z
" style="fill: #ffffff"/>
   </g>
   <g id="matplotlib.axis_1">
    <g id="xtick_1">
     <g id="line2d_1">
      <defs>
       <path id="m4d3ca39f72" d="M 0 0 
L 0 3.5 
" style="stroke: #000000; stroke-width: 0.8"/>
      </defs>
      <g>
       <use xlink:href="#m4d3ca39f72" x="58.656548" y="97.92" style="stroke: #000000; stroke-width: 0.8"/>
      </g>
     </g>
    </g>
    <g id="xtick_2">
     <g id="line2d_2">
      <g>
       <use xlink:href="#m4d3ca39f72" x="89.804028" y="97.92" style="stroke: #000000; stroke-width: 0.8"/>
      </g>
     </g>
    </g>
    <g id="xtick_3">
     <g id="line2d_3">
      <g>
       <use xlink:href="#m4d3ca39f72" x="120.951508" y="97.92" style="stroke: #000000; stroke-width: 0.8"/>
      </g>
     </g>
    </g>
    <g id="xtick_4">
     <g id="line2d_4">
      <g>
       <use xlink:href="#m4d3ca39f72" x="152.098988" y="97.92" style="stroke: #000000; stroke-width: 0.8"/>
      </g>
     </g>
    </g>
   </g>
   <g id="matplotlib.axis_2">
    <g id="ytick_1">
     <g id="line2d_5">
      <defs>
       <path id="m9c785dc7f1" d="M 0 0 
L -3.5 0 
" style="stroke: #000000; stroke-width: 0.8"/>
      </defs>
      <g>
       <use xlink:href="#m9c785dc7f1" x="54" y="95.04" style="stroke: #000000; stroke-width: 0.8"/>
      </g>
     </g>
     <g id="text_1">
      <!-- 0 -->
      <g transform="translate(41.91 98.079375)scale(0.08 -0.08)">
       <defs>
        <path id="DejaVuSans-30" d="M 2034 4250 
Q 1547 4250 1301 3770 
Q 1056 3291 1056 2328 
Q 1056 1369 1301 889 
Q 1547 409 2034 409 
Q 2525 409 2770 889 
Q 3016 1369 3016 2328 
Q 3016 3291 2770 3770 
Q 2525 4250 2034 4250 
z
M 2034 4750 
Q 2819 4750 3233 4129 
Q 3647 3509 3647 2328 
Q 3647 1150 3233 529 
Q 2819 -91 2034 -91 
Q 1250 -91 836 529 
Q 422 1150 422 2328 
Q 422 3509 836 4129 
Q 1250 4750 2034 4750 
z
" transform="scale(0.015625)"/>
       </defs>
       <use xlink:href="#DejaVuSans-30"/>
      </g>
     </g>
    </g>
    <g id="ytick_2">
     <g id="line2d_6">
      <g>
       <use xlink:href="#m9c785dc7f1" x="54" y="37.44" style="stroke: #000000; stroke-width: 0.8"/>
      </g>
     </g>
     <g id="text_2">
      <!-- 1 -->
      <g transform="translate(41.91 40.479375)scale(0.08 -0.08)">
       <defs>
        <path id="DejaVuSans-31" d="M 794 531 
L 1825 531 
L 1825 4091 
L 703 3866 
L 703 4441 
L 1819 4666 
L 2450 4666 
L 2450 531 
L 3481 531 
L 3481 0 
L 794 0 
L 794 531 
z
" transform="scale(0.015625)"/>
       </defs>
       <use xlink:href="#DejaVuSans-31"/>
      </g>
     </g>
    </g>
   </g>
   <g id="line2d_7">
    <path d="M 58.656548 37.44192 
L 67.689317 37.440675 
L 68.000792 94.979463 
L 68.623742 95.04 
L 105.377768 95.04 
L 105.689243 37.441366 
L 114.410538 37.44002 
L 114.722012 90.860016 
L 115.033487 95.04 
L 151.787514 95.04 
L 151.787514 95.04 
" clip-path="url(#p98982dc46d)" style="fill: none; stroke: #000000; stroke-linecap: square"/>
   </g>
   <g id="line2d_8">
    <path d="M 58.656548 95.03904 
L 67.689317 95.039649 
L 68.000792 37.507551 
L 68.623742 37.44 
L 77.033562 37.44 
L 77.656511 95.031477 
L 82.640108 95.039148 
L 86.377806 95.039413 
L 86.68928 37.497961 
L 87.31223 37.440603 
L 95.72205 37.440385 
L 96.033524 94.952554 
L 96.656474 95.039124 
L 105.066294 95.039454 
L 105.377768 90.11972 
L 105.689243 95.039789 
L 123.754782 95.039591 
L 124.066256 37.52184 
L 124.689206 37.44077 
L 133.099026 37.440575 
L 133.4105 94.981193 
L 134.03345 95.039443 
L 142.44327 95.039549 
L 142.754744 37.513837 
L 143.377694 37.440656 
L 151.787514 37.440529 
L 151.787514 37.440529 
" clip-path="url(#p98982dc46d)" style="fill: none; stroke: #2ca02c; stroke-linecap: square"/>
   </g>
   <g id="line2d_9">
    <path d="M 58.656548 95.03904 
L 77.033562 95.04 
L 77.656511 37.448523 
L 82.640108 37.440852 
L 86.377806 37.440587 
L 86.68928 94.982039 
L 87.31223 95.039397 
L 95.72205 95.039615 
L 96.033524 37.527446 
L 96.656474 37.440876 
L 105.066294 37.440546 
L 105.377768 42.36028 
L 105.689243 95.038846 
L 114.410538 95.03999 
L 114.722012 41.625543 
L 115.033487 37.44055 
L 123.754782 37.440409 
L 124.066256 94.95816 
L 124.689206 95.03923 
L 133.099026 95.039425 
L 133.4105 37.498807 
L 134.03345 37.440557 
L 142.44327 37.440451 
L 142.754744 94.966163 
L 143.377694 95.039344 
L 151.787514 95.039471 
L 151.787514 95.039471 
" clip-path="url(#p98982dc46d)" style="fill: none; stroke: #1f77b4; stroke-linecap: square"/>
   </g>
   <g id="patch_3">
    <path d="M 54 97.92 
L 54 34.56 
" style="fill: none; stroke: #000000; stroke-width: 0.8; stroke-linejoin: miter; stroke-linecap: square"/>
   </g>
   <g id="patch_4">
    <path d="M 54 97.92 
L 156.444062 97.92 
" style="fill: none; stroke: #000000; stroke-width: 0.8; stroke-linejoin: miter; stroke-linecap: square"/>
   </g>
   <g id="text_3">
    <!-- A -->
    <g transform="translate(43.755594 31.392)scale(0.12 -0.12)">
     <defs>
      <path id="DejaVuSans-41" d="M 2188 4044 
L 1331 1722 
L 3047 1722 
L 2188 4044 
z
M 1831 4666 
L 2547 4666 
L 4325 0 
L 3669 0 
L 3244 1197 
L 1141 1197 
L 716 0 
L 50 0 
L 1831 4666 
z
" transform="scale(0.015625)"/>
     </defs>
     <use xlink:href="#DejaVuSans-41"/>
    </g>
   </g>
   <g id="text_4">
    <!-- p(context) -->
    <g transform="translate(80.337031 28.56)scale(0.096 -0.096)">
     <defs>
      <path id="DejaVuSans-70" d="M 1159 525 
L 1159 -1331 
L 581 -1331 
L 581 3500 
L 1159 3500 
L 1159 2969 
Q 1341 3281 1617 3432 
Q 1894 3584 2278 3584 
Q 2916 3584 3314 3078 
Q 3713 2572 3713 1747 
Q 3713 922 3314 415 
Q 2916 -91 2278 -91 
Q 1894 -91 1617 61 
Q 1341 213 1159 525 
z
M 3116 1747 
Q 3116 2381 2855 2742 
Q 2594 3103 2138 3103 
Q 1681 3103 1420 2742 
Q 1159 2381 1159 1747 
Q 1159 1113 1420 752 
Q 1681 391 2138 391 
Q 2594 391 2855 752 
Q 3116 1113 3116 1747 
z
" transform="scale(0.015625)"/>
      <path id="DejaVuSans-28" d="M 1984 4856 
Q 1566 4138 1362 3434 
Q 1159 2731 1159 2009 
Q 1159 1288 1364 580 
Q 1569 -128 1984 -844 
L 1484 -844 
Q 1016 -109 783 600 
Q 550 1309 550 2009 
Q 550 2706 781 3412 
Q 1013 4119 1484 4856 
L 1984 4856 
z
" transform="scale(0.015625)"/>
      <path id="DejaVuSans-63" d="M 3122 3366 
L 3122 2828 
Q 2878 2963 2633 3030 
Q 2388 3097 2138 3097 
Q 1578 3097 1268 2742 
Q 959 2388 959 1747 
Q 959 1106 1268 751 
Q 1578 397 2138 397 
Q 2388 397 2633 464 
Q 2878 531 3122 666 
L 3122 134 
Q 2881 22 2623 -34 
Q 2366 -91 2075 -91 
Q 1284 -91 818 406 
Q 353 903 353 1747 
Q 353 2603 823 3093 
Q 1294 3584 2113 3584 
Q 2378 3584 2631 3529 
Q 2884 3475 3122 3366 
z
" transform="scale(0.015625)"/>
      <path id="DejaVuSans-6f" d="M 1959 3097 
Q 1497 3097 1228 2736 
Q 959 2375 959 1747 
Q 959 1119 1226 758 
Q 1494 397 1959 397 
Q 2419 397 2687 759 
Q 2956 1122 2956 1747 
Q 2956 2369 2687 2733 
Q 2419 3097 1959 3097 
z
M 1959 3584 
Q 2709 3584 3137 3096 
Q 3566 2609 3566 1747 
Q 3566 888 3137 398 
Q 2709 -91 1959 -91 
Q 1206 -91 779 398 
Q 353 888 353 1747 
Q 353 2609 779 3096 
Q 1206 3584 1959 3584 
z
" transform="scale(0.015625)"/>
      <path id="DejaVuSans-6e" d="M 3513 2113 
L 3513 0 
L 2938 0 
L 2938 2094 
Q 2938 2591 2744 2837 
Q 2550 3084 2163 3084 
Q 1697 3084 1428 2787 
Q 1159 2491 1159 1978 
L 1159 0 
L 581 0 
L 581 3500 
L 1159 3500 
L 1159 2956 
Q 1366 3272 1645 3428 
Q 1925 3584 2291 3584 
Q 2894 3584 3203 3211 
Q 3513 2838 3513 2113 
z
" transform="scale(0.015625)"/>
      <path id="DejaVuSans-74" d="M 1172 4494 
L 1172 3500 
L 2356 3500 
L 2356 3053 
L 1172 3053 
L 1172 1153 
Q 1172 725 1289 603 
Q 1406 481 1766 481 
L 2356 481 
L 2356 0 
L 1766 0 
Q 1100 0 847 248 
Q 594 497 594 1153 
L 594 3053 
L 172 3053 
L 172 3500 
L 594 3500 
L 594 4494 
L 1172 4494 
z
" transform="scale(0.015625)"/>
      <path id="DejaVuSans-65" d="M 3597 1894 
L 3597 1613 
L 953 1613 
Q 991 1019 1311 708 
Q 1631 397 2203 397 
Q 2534 397 2845 478 
Q 3156 559 3463 722 
L 3463 178 
Q 3153 47 2828 -22 
Q 2503 -91 2169 -91 
Q 1331 -91 842 396 
Q 353 884 353 1716 
Q 353 2575 817 3079 
Q 1281 3584 2069 3584 
Q 2775 3584 3186 3129 
Q 3597 2675 3597 1894 
z
M 3022 2063 
Q 3016 2534 2758 2815 
Q 2500 3097 2075 3097 
Q 1594 3097 1305 2825 
Q 1016 2553 972 2059 
L 3022 2063 
z
" transform="scale(0.015625)"/>
      <path id="DejaVuSans-78" d="M 3513 3500 
L 2247 1797 
L 3578 0 
L 2900 0 
L 1881 1375 
L 863 0 
L 184 0 
L 1544 1831 
L 300 3500 
L 978 3500 
L 1906 2253 
L 2834 3500 
L 3513 3500 
z
" transform="scale(0.015625)"/>
      <path id="DejaVuSans-29" d="M 513 4856 
L 1013 4856 
Q 1481 4119 1714 3412 
Q 1947 2706 1947 2009 
Q 1947 1309 1714 600 
Q 1481 -109 1013 -844 
L 513 -844 
Q 928 -128 1133 580 
Q 1338 1288 1338 2009 
Q 1338 2731 1133 3434 
Q 928 4138 513 4856 
z
" transform="scale(0.015625)"/>
     </defs>
     <use xlink:href="#DejaVuSans-70"/>
     <use xlink:href="#DejaVuSans-28" x="63.476562"/>
     <use xlink:href="#DejaVuSans-63" x="102.490234"/>
     <use xlink:href="#DejaVuSans-6f" x="157.470703"/>
     <use xlink:href="#DejaVuSans-6e" x="218.652344"/>
     <use xlink:href="#DejaVuSans-74" x="282.03125"/>
     <use xlink:href="#DejaVuSans-65" x="321.240234"/>
     <use xlink:href="#DejaVuSans-78" x="381.013672"/>
     <use xlink:href="#DejaVuSans-74" x="440.193359"/>
     <use xlink:href="#DejaVuSans-29" x="479.402344"/>
    </g>
   </g>
  </g>
  <g id="axes_2">
   <g id="patch_5">
    <path d="M 54 177.12 
L 156.444062 177.12 
L 156.444062 113.76 
L 54 113.76 
z
" style="fill: #ffffff"/>
   </g>
   <g id="matplotlib.axis_3">
    <g id="xtick_5">
     <g id="line2d_10">
      <g>
       <use xlink:href="#m4d3ca39f72" x="58.656548" y="177.12" style="stroke: #000000; stroke-width: 0.8"/>
      </g>
     </g>
    </g>
    <g id="xtick_6">
     <g id="line2d_11">
      <g>
       <use xlink:href="#m4d3ca39f72" x="88.698795" y="177.12" style="stroke: #000000; stroke-width: 0.8"/>
      </g>
     </g>
    </g>
    <g id="xtick_7">
     <g id="line2d_12">
      <g>
       <use xlink:href="#m4d3ca39f72" x="118.741042" y="177.12" style="stroke: #000000; stroke-width: 0.8"/>
      </g>
     </g>
    </g>
    <g id="xtick_8">
     <g id="line2d_13">
      <g>
       <use xlink:href="#m4d3ca39f72" x="148.783289" y="177.12" style="stroke: #000000; stroke-width: 0.8"/>
      </g>
     </g>
    </g>
   </g>
   <g id="matplotlib.axis_4">
    <g id="ytick_3">
     <g id="line2d_14">
      <g>
       <use xlink:href="#m9c785dc7f1" x="54" y="177.12" style="stroke: #000000; stroke-width: 0.8"/>
      </g>
     </g>
     <g id="text_5">
      <!-- 0 -->
      <g transform="translate(41.91 180.159375)scale(0.08 -0.08)">
       <use xlink:href="#DejaVuSans-30"/>
      </g>
     </g>
    </g>
    <g id="ytick_4">
     <g id="line2d_15">
      <g>
       <use xlink:href="#m9c785dc7f1" x="54" y="124.32" style="stroke: #000000; stroke-width: 0.8"/>
      </g>
     </g>
     <g id="text_6">
      <!-- 1 -->
      <g transform="translate(41.91 127.359375)scale(0.08 -0.08)">
       <use xlink:href="#DejaVuSans-31"/>
      </g>
     </g>
    </g>
   </g>
   <g id="line2d_16">
    <path d="M 58.656548 130.545328 
L 59.257393 127.840916 
L 59.858238 126.533916 
L 60.459083 125.904319 
L 60.759506 125.758248 
L 61.961195 125.688882 
L 62.862463 125.456442 
L 63.463308 125.625604 
L 64.664998 125.407747 
L 64.96542 136.71244 
L 65.566265 173.183077 
L 65.866688 175.911471 
L 66.16711 176.919002 
L 66.467532 177.04263 
L 82.690346 177.038023 
L 82.990768 174.432101 
L 83.291191 167.866931 
L 84.192458 128.426524 
L 84.492881 125.572177 
L 84.793303 124.826445 
L 85.093726 124.587281 
L 86.295415 124.504517 
L 94.707245 124.502011 
L 95.007667 129.261692 
L 95.30809 143.094457 
L 95.608512 169.387049 
L 95.908934 175.787051 
L 96.209357 176.926548 
L 96.810202 177.01702 
L 97.711469 177.064379 
L 98.612737 177.064676 
L 98.913159 176.785564 
L 99.213582 177.040833 
L 102.818651 177.03997 
L 104.921609 177.065511 
L 105.222031 176.976233 
L 105.822876 177.062401 
L 109.728368 177.06204 
L 110.02879 176.103887 
L 110.329213 171.925709 
L 110.629635 161.151229 
L 111.23048 131.490258 
L 111.530903 126.524603 
L 111.831325 125.069573 
L 112.131748 124.649694 
L 112.732593 124.540653 
L 113.934283 124.50842 
L 114.234705 124.586451 
L 115.135972 124.50359 
L 115.736817 124.509635 
L 116.03724 129.649797 
L 116.638085 171.302983 
L 116.938507 176.258649 
L 117.23893 176.963662 
L 117.539352 177.056905 
L 118.44062 177.056664 
L 124.749491 177.050448 
L 125.049914 175.01809 
L 125.350336 168.913781 
L 126.251604 130.436132 
L 126.552026 126.136604 
L 126.852449 124.972909 
L 127.152871 124.652324 
L 127.753716 124.508332 
L 131.358786 124.496095 
L 133.461743 124.500419 
L 136.76639 124.49929 
L 137.066813 130.860294 
L 137.367235 147.973397 
L 137.667658 171.478965 
L 137.96808 176.087417 
L 138.268503 176.965244 
L 139.16977 177.04056 
L 140.671882 177.063292 
L 143.075262 177.02998 
L 143.976529 177.059249 
L 144.577374 177.054086 
L 148.182444 177.057927 
L 148.482867 176.953274 
L 149.083711 177.065526 
L 149.684556 177.028471 
L 150.285401 177.056832 
L 150.886246 177.043763 
L 151.487091 177.065009 
L 151.487091 177.065009 
" clip-path="url(#p1e7a7e21db)" style="fill: none; stroke: #000000; stroke-linecap: square"/>
   </g>
   <g id="line2d_17">
    <path d="M 58.656548 170.894672 
L 59.257393 173.599084 
L 59.858238 174.906084 
L 60.459083 175.535681 
L 60.759506 175.681752 
L 61.961195 175.751118 
L 62.862463 175.983558 
L 63.463308 175.814396 
L 64.664998 176.032253 
L 64.96542 164.72756 
L 65.566265 128.256923 
L 65.866688 125.528529 
L 66.16711 124.520998 
L 66.467532 124.39737 
L 82.690346 124.401977 
L 82.990768 127.007899 
L 83.291191 133.573069 
L 84.192458 173.013476 
L 84.492881 175.867823 
L 84.793303 176.613555 
L 85.093726 176.852719 
L 86.295415 176.935483 
L 94.707245 176.937989 
L 95.007667 172.178308 
L 95.30809 158.345543 
L 95.608512 132.052951 
L 95.908934 125.652949 
L 96.209357 124.513452 
L 96.810202 124.42298 
L 97.711469 124.375621 
L 98.612737 124.375324 
L 98.913159 124.654436 
L 99.213582 124.399167 
L 102.818651 124.40003 
L 104.921609 124.374489 
L 105.222031 124.463767 
L 105.822876 124.377599 
L 109.728368 124.37796 
L 110.02879 125.336113 
L 110.329213 129.514291 
L 110.629635 140.288771 
L 111.23048 169.949742 
L 111.530903 174.915397 
L 111.831325 176.370427 
L 112.131748 176.790306 
L 112.732593 176.899347 
L 113.934283 176.93158 
L 114.234705 176.853549 
L 115.135972 176.93641 
L 115.736817 176.930365 
L 116.03724 171.790203 
L 116.638085 130.137017 
L 116.938507 125.181351 
L 117.23893 124.476338 
L 117.539352 124.383095 
L 118.44062 124.383336 
L 124.749491 124.389552 
L 125.049914 126.42191 
L 125.350336 132.526219 
L 126.251604 171.003868 
L 126.552026 175.303396 
L 126.852449 176.467091 
L 127.152871 176.787676 
L 127.753716 176.931668 
L 131.358786 176.943905 
L 133.461743 176.939581 
L 136.76639 176.94071 
L 137.066813 170.579706 
L 137.367235 153.466603 
L 137.667658 129.961035 
L 137.96808 125.352583 
L 138.268503 124.474756 
L 139.16977 124.39944 
L 140.671882 124.376708 
L 143.075262 124.41002 
L 143.976529 124.380751 
L 144.577374 124.385914 
L 148.182444 124.382073 
L 148.482867 124.486726 
L 149.083711 124.374474 
L 149.684556 124.411529 
L 150.285401 124.383168 
L 150.886246 124.396237 
L 151.487091 124.374991 
L 151.487091 124.374991 
" clip-path="url(#p1e7a7e21db)" style="fill: none; stroke: #2ca02c; stroke-linecap: square"/>
   </g>
   <g id="LineCollection_1">
    <path d="M 58.656548 177.12 
L 58.656548 113.76 
" clip-path="url(#p1e7a7e21db)" style="fill: none; stroke-dasharray: 1.85,0.8; stroke-dashoffset: 0; stroke: #000000; stroke-width: 0.5"/>
    <path d="M 64.364575 177.12 
L 64.364575 113.76 
" clip-path="url(#p1e7a7e21db)" style="fill: none; stroke-dasharray: 1.85,0.8; stroke-dashoffset: 0; stroke: #000000; stroke-width: 0.5"/>
    <path d="M 82.389923 177.12 
L 82.389923 113.76 
" clip-path="url(#p1e7a7e21db)" style="fill: none; stroke-dasharray: 1.85,0.8; stroke-dashoffset: 0; stroke: #000000; stroke-width: 0.5"/>
    <path d="M 94.406822 177.12 
L 94.406822 113.76 
" clip-path="url(#p1e7a7e21db)" style="fill: none; stroke-dasharray: 1.85,0.8; stroke-dashoffset: 0; stroke: #000000; stroke-width: 0.5"/>
    <path d="M 109.427946 177.12 
L 109.427946 113.76 
" clip-path="url(#p1e7a7e21db)" style="fill: none; stroke-dasharray: 1.85,0.8; stroke-dashoffset: 0; stroke: #000000; stroke-width: 0.5"/>
    <path d="M 115.436395 177.12 
L 115.436395 113.76 
" clip-path="url(#p1e7a7e21db)" style="fill: none; stroke-dasharray: 1.85,0.8; stroke-dashoffset: 0; stroke: #000000; stroke-width: 0.5"/>
    <path d="M 124.449069 177.12 
L 124.449069 113.76 
" clip-path="url(#p1e7a7e21db)" style="fill: none; stroke-dasharray: 1.85,0.8; stroke-dashoffset: 0; stroke: #000000; stroke-width: 0.5"/>
    <path d="M 136.465968 177.12 
L 136.465968 113.76 
" clip-path="url(#p1e7a7e21db)" style="fill: none; stroke-dasharray: 1.85,0.8; stroke-dashoffset: 0; stroke: #000000; stroke-width: 0.5"/>
    <path d="M 151.787514 177.12 
L 151.787514 113.76 
" clip-path="url(#p1e7a7e21db)" style="fill: none; stroke-dasharray: 1.85,0.8; stroke-dashoffset: 0; stroke: #000000; stroke-width: 0.5"/>
   </g>
   <g id="patch_6">
    <path d="M 54 177.12 
L 54 113.76 
" style="fill: none; stroke: #000000; stroke-width: 0.8; stroke-linejoin: miter; stroke-linecap: square"/>
   </g>
   <g id="patch_7">
    <path d="M 54 177.12 
L 156.444062 177.12 
" style="fill: none; stroke: #000000; stroke-width: 0.8; stroke-linejoin: miter; stroke-linecap: square"/>
   </g>
   <g id="text_7">
    <!-- B -->
    <g transform="translate(43.755594 110.592)scale(0.12 -0.12)">
     <defs>
      <path id="DejaVuSans-42" d="M 1259 2228 
L 1259 519 
L 2272 519 
Q 2781 519 3026 730 
Q 3272 941 3272 1375 
Q 3272 1813 3026 2020 
Q 2781 2228 2272 2228 
L 1259 2228 
z
M 1259 4147 
L 1259 2741 
L 2194 2741 
Q 2656 2741 2882 2914 
Q 3109 3088 3109 3444 
Q 3109 3797 2882 3972 
Q 2656 4147 2194 4147 
L 1259 4147 
z
M 628 4666 
L 2241 4666 
Q 2963 4666 3353 4366 
Q 3744 4066 3744 3513 
Q 3744 3084 3544 2831 
Q 3344 2578 2956 2516 
Q 3422 2416 3680 2098 
Q 3938 1781 3938 1306 
Q 3938 681 3513 340 
Q 3088 0 2303 0 
L 628 0 
L 628 4666 
z
" transform="scale(0.015625)"/>
     </defs>
     <use xlink:href="#DejaVuSans-42"/>
    </g>
   </g>
  </g>
  <g id="axes_3">
   <g id="patch_8">
    <path d="M 54 256.32 
L 156.444062 256.32 
L 156.444062 192.96 
L 54 192.96 
z
" style="fill: #ffffff"/>
   </g>
   <g id="matplotlib.axis_5">
    <g id="xtick_9">
     <g id="line2d_18">
      <g>
       <use xlink:href="#m4d3ca39f72" x="58.656548" y="256.32" style="stroke: #000000; stroke-width: 0.8"/>
      </g>
     </g>
     <g id="text_8">
      <!-- 0 -->
      <g transform="translate(56.111548 269.39875)scale(0.08 -0.08)">
       <use xlink:href="#DejaVuSans-30"/>
      </g>
     </g>
    </g>
    <g id="xtick_10">
     <g id="line2d_19">
      <g>
       <use xlink:href="#m4d3ca39f72" x="88.698795" y="256.32" style="stroke: #000000; stroke-width: 0.8"/>
      </g>
     </g>
     <g id="text_9">
      <!-- 100 -->
      <g transform="translate(81.063795 269.39875)scale(0.08 -0.08)">
       <use xlink:href="#DejaVuSans-31"/>
       <use xlink:href="#DejaVuSans-30" x="63.623047"/>
       <use xlink:href="#DejaVuSans-30" x="127.246094"/>
      </g>
     </g>
    </g>
    <g id="xtick_11">
     <g id="line2d_20">
      <g>
       <use xlink:href="#m4d3ca39f72" x="118.741042" y="256.32" style="stroke: #000000; stroke-width: 0.8"/>
      </g>
     </g>
     <g id="text_10">
      <!-- 200 -->
      <g transform="translate(111.106042 269.39875)scale(0.08 -0.08)">
       <defs>
        <path id="DejaVuSans-32" d="M 1228 531 
L 3431 531 
L 3431 0 
L 469 0 
L 469 531 
Q 828 903 1448 1529 
Q 2069 2156 2228 2338 
Q 2531 2678 2651 2914 
Q 2772 3150 2772 3378 
Q 2772 3750 2511 3984 
Q 2250 4219 1831 4219 
Q 1534 4219 1204 4116 
Q 875 4013 500 3803 
L 500 4441 
Q 881 4594 1212 4672 
Q 1544 4750 1819 4750 
Q 2544 4750 2975 4387 
Q 3406 4025 3406 3419 
Q 3406 3131 3298 2873 
Q 3191 2616 2906 2266 
Q 2828 2175 2409 1742 
Q 1991 1309 1228 531 
z
" transform="scale(0.015625)"/>
       </defs>
       <use xlink:href="#DejaVuSans-32"/>
       <use xlink:href="#DejaVuSans-30" x="63.623047"/>
       <use xlink:href="#DejaVuSans-30" x="127.246094"/>
      </g>
     </g>
    </g>
    <g id="xtick_12">
     <g id="line2d_21">
      <g>
       <use xlink:href="#m4d3ca39f72" x="148.783289" y="256.32" style="stroke: #000000; stroke-width: 0.8"/>
      </g>
     </g>
     <g id="text_11">
      <!-- 300 -->
      <g transform="translate(141.148289 269.39875)scale(0.08 -0.08)">
       <defs>
        <path id="DejaVuSans-33" d="M 2597 2516 
Q 3050 2419 3304 2112 
Q 3559 1806 3559 1356 
Q 3559 666 3084 287 
Q 2609 -91 1734 -91 
Q 1441 -91 1130 -33 
Q 819 25 488 141 
L 488 750 
Q 750 597 1062 519 
Q 1375 441 1716 441 
Q 2309 441 2620 675 
Q 2931 909 2931 1356 
Q 2931 1769 2642 2001 
Q 2353 2234 1838 2234 
L 1294 2234 
L 1294 2753 
L 1863 2753 
Q 2328 2753 2575 2939 
Q 2822 3125 2822 3475 
Q 2822 3834 2567 4026 
Q 2313 4219 1838 4219 
Q 1578 4219 1281 4162 
Q 984 4106 628 3988 
L 628 4550 
Q 988 4650 1302 4700 
Q 1616 4750 1894 4750 
Q 2613 4750 3031 4423 
Q 3450 4097 3450 3541 
Q 3450 3153 3228 2886 
Q 3006 2619 2597 2516 
z
" transform="scale(0.015625)"/>
       </defs>
       <use xlink:href="#DejaVuSans-33"/>
       <use xlink:href="#DejaVuSans-30" x="63.623047"/>
       <use xlink:href="#DejaVuSans-30" x="127.246094"/>
      </g>
     </g>
    </g>
    <g id="text_12">
     <!-- Trial -->
     <g transform="translate(97.050781 281.14125)scale(0.08 -0.08)">
      <defs>
       <path id="DejaVuSans-54" d="M -19 4666 
L 3928 4666 
L 3928 4134 
L 2272 4134 
L 2272 0 
L 1638 0 
L 1638 4134 
L -19 4134 
L -19 4666 
z
" transform="scale(0.015625)"/>
       <path id="DejaVuSans-72" d="M 2631 2963 
Q 2534 3019 2420 3045 
Q 2306 3072 2169 3072 
Q 1681 3072 1420 2755 
Q 1159 2438 1159 1844 
L 1159 0 
L 581 0 
L 581 3500 
L 1159 3500 
L 1159 2956 
Q 1341 3275 1631 3429 
Q 1922 3584 2338 3584 
Q 2397 3584 2469 3576 
Q 2541 3569 2628 3553 
L 2631 2963 
z
" transform="scale(0.015625)"/>
       <path id="DejaVuSans-69" d="M 603 3500 
L 1178 3500 
L 1178 0 
L 603 0 
L 603 3500 
z
M 603 4863 
L 1178 4863 
L 1178 4134 
L 603 4134 
L 603 4863 
z
" transform="scale(0.015625)"/>
       <path id="DejaVuSans-61" d="M 2194 1759 
Q 1497 1759 1228 1600 
Q 959 1441 959 1056 
Q 959 750 1161 570 
Q 1363 391 1709 391 
Q 2188 391 2477 730 
Q 2766 1069 2766 1631 
L 2766 1759 
L 2194 1759 
z
M 3341 1997 
L 3341 0 
L 2766 0 
L 2766 531 
Q 2569 213 2275 61 
Q 1981 -91 1556 -91 
Q 1019 -91 701 211 
Q 384 513 384 1019 
Q 384 1609 779 1909 
Q 1175 2209 1959 2209 
L 2766 2209 
L 2766 2266 
Q 2766 2663 2505 2880 
Q 2244 3097 1772 3097 
Q 1472 3097 1187 3025 
Q 903 2953 641 2809 
L 641 3341 
Q 956 3463 1253 3523 
Q 1550 3584 1831 3584 
Q 2591 3584 2966 3190 
Q 3341 2797 3341 1997 
z
" transform="scale(0.015625)"/>
       <path id="DejaVuSans-6c" d="M 603 4863 
L 1178 4863 
L 1178 0 
L 603 0 
L 603 4863 
z
" transform="scale(0.015625)"/>
      </defs>
      <use xlink:href="#DejaVuSans-54"/>
      <use xlink:href="#DejaVuSans-72" x="46.333984"/>
      <use xlink:href="#DejaVuSans-69" x="87.447266"/>
      <use xlink:href="#DejaVuSans-61" x="115.230469"/>
      <use xlink:href="#DejaVuSans-6c" x="176.509766"/>
     </g>
    </g>
   </g>
   <g id="matplotlib.axis_6">
    <g id="ytick_5">
     <g id="line2d_22">
      <g>
       <use xlink:href="#m9c785dc7f1" x="54" y="256.32" style="stroke: #000000; stroke-width: 0.8"/>
      </g>
     </g>
     <g id="text_13">
      <!-- 0 -->
      <g transform="translate(41.91 259.359375)scale(0.08 -0.08)">
       <use xlink:href="#DejaVuSans-30"/>
      </g>
     </g>
    </g>
    <g id="ytick_6">
     <g id="line2d_23">
      <g>
       <use xlink:href="#m9c785dc7f1" x="54" y="203.52" style="stroke: #000000; stroke-width: 0.8"/>
      </g>
     </g>
     <g id="text_14">
      <!-- 1 -->
      <g transform="translate(41.91 206.559375)scale(0.08 -0.08)">
       <use xlink:href="#DejaVuSans-31"/>
      </g>
     </g>
    </g>
   </g>
   <g id="line2d_24">
    <path d="M 58.656548 209.745328 
L 58.956971 208.127893 
L 59.557816 206.323592 
L 60.158661 205.332237 
L 60.759506 204.8864 
L 61.660773 204.756466 
L 62.261618 204.628612 
L 63.162885 204.799152 
L 64.064153 204.636957 
L 64.664998 204.588574 
L 64.96542 204.978466 
L 65.566265 207.663987 
L 65.866688 208.763938 
L 66.16711 212.156972 
L 66.467532 211.852578 
L 66.767955 222.059794 
L 67.068377 226.777121 
L 67.3688 227.062025 
L 67.669222 229.028106 
L 67.969645 227.04251 
L 68.270067 228.641453 
L 68.57049 229.449103 
L 68.870912 243.266303 
L 69.171335 241.247741 
L 69.471757 242.737383 
L 69.77218 242.709289 
L 70.373025 253.999283 
L 70.673447 250.679635 
L 70.97387 252.112964 
L 71.274292 254.461214 
L 71.875137 250.829374 
L 72.175559 251.499177 
L 72.475982 252.505044 
L 72.776404 254.276237 
L 73.076827 254.647674 
L 73.377249 254.783748 
L 73.677672 254.479289 
L 74.278517 255.845846 
L 74.578939 255.453317 
L 74.879362 254.587626 
L 75.179784 255.745672 
L 75.480207 255.905953 
L 75.780629 255.073158 
L 76.081051 255.641462 
L 76.381474 255.941082 
L 76.681896 255.790409 
L 77.282741 255.905734 
L 77.583164 255.320787 
L 77.883586 255.470581 
L 78.184009 255.881 
L 78.484431 255.480829 
L 78.784854 255.735506 
L 79.085276 255.654021 
L 79.385699 255.960654 
L 79.986544 255.99521 
L 80.887811 255.922484 
L 81.188233 256.123109 
L 81.789078 256.005904 
L 82.089501 255.764267 
L 82.389923 255.81989 
L 82.690346 255.693999 
L 82.990768 253.678187 
L 83.591613 243.444188 
L 84.492881 215.493373 
L 84.793303 209.257721 
L 85.093726 206.203286 
L 85.394148 204.910184 
L 85.69457 204.300533 
L 86.295415 204.021899 
L 87.196683 203.889952 
L 87.797528 203.918271 
L 88.09795 204.055552 
L 88.398373 203.955114 
L 88.999218 203.957159 
L 89.900485 203.878907 
L 90.200908 204.047604 
L 90.801752 203.913757 
L 94.707245 203.881884 
L 95.007667 204.851837 
L 95.608512 208.422392 
L 96.509779 224.30435 
L 96.810202 226.106724 
L 97.110624 232.551301 
L 97.411047 248.078397 
L 97.711469 246.670979 
L 98.011892 248.048512 
L 98.312314 251.983738 
L 98.612737 252.032736 
L 98.913159 252.22006 
L 99.213582 254.374431 
L 99.514004 253.09956 
L 99.814427 254.480549 
L 100.114849 253.062918 
L 100.415271 255.22189 
L 100.715694 254.919387 
L 101.016116 255.526274 
L 101.316539 255.550368 
L 101.616961 254.721463 
L 101.917384 255.488205 
L 102.217806 255.220467 
L 102.518229 254.526313 
L 102.818651 255.338464 
L 103.119074 254.73196 
L 103.419496 255.684652 
L 103.719919 255.635542 
L 104.020341 255.702352 
L 104.320764 255.886581 
L 104.621186 255.707641 
L 104.921609 255.198318 
L 105.522453 255.866271 
L 105.822876 254.995571 
L 106.123298 255.735479 
L 106.423721 255.68563 
L 106.724143 255.8442 
L 107.024566 255.7414 
L 107.324988 255.410207 
L 107.625411 255.371614 
L 107.925833 255.490929 
L 108.226256 255.858278 
L 108.526678 254.930826 
L 108.827101 255.690589 
L 109.127523 255.558837 
L 109.427946 255.785469 
L 109.728368 255.734763 
L 110.02879 253.989994 
L 110.329213 250.629298 
L 110.629635 243.977287 
L 111.530903 214.309645 
L 111.831325 208.71013 
L 112.131748 206.173378 
L 112.43217 204.938871 
L 112.732593 204.31356 
L 113.333438 203.974599 
L 113.63386 204.131341 
L 114.234705 203.924751 
L 115.436395 203.898954 
L 115.736817 203.942946 
L 116.03724 204.203622 
L 116.337662 207.163315 
L 116.638085 206.34406 
L 116.938507 205.931322 
L 117.23893 212.945211 
L 117.539352 224.270824 
L 117.839775 225.279371 
L 118.140197 235.797056 
L 118.44062 236.828724 
L 118.741042 232.429014 
L 119.041465 244.59196 
L 119.341887 242.382852 
L 119.942732 248.902401 
L 120.243154 248.931195 
L 120.543577 252.949303 
L 120.843999 253.396647 
L 121.144422 255.199491 
L 121.444844 255.54777 
L 122.045689 255.216437 
L 122.346112 254.943398 
L 122.646534 255.666857 
L 122.946957 255.163122 
L 123.247379 255.668997 
L 123.547802 255.351805 
L 123.848224 255.298221 
L 124.148647 255.410674 
L 124.449069 254.681105 
L 124.749491 255.677368 
L 125.049914 253.702801 
L 125.650759 244.976802 
L 126.852449 208.674289 
L 127.152871 206.046169 
L 127.453294 204.768233 
L 127.753716 204.283752 
L 128.654984 203.927461 
L 128.955406 204.03378 
L 129.556251 203.8986 
L 129.856673 203.883021 
L 130.457518 204.064589 
L 131.058363 203.926608 
L 134.663433 203.940505 
L 135.865123 203.883523 
L 136.465968 203.906055 
L 136.76639 203.933159 
L 137.066813 204.867505 
L 137.367235 207.207698 
L 137.667658 207.589585 
L 137.96808 211.536055 
L 138.268503 213.476321 
L 138.568925 211.861322 
L 138.869348 215.899876 
L 139.16977 231.971187 
L 139.470192 234.269418 
L 139.770615 232.36548 
L 140.671882 247.106721 
L 141.272727 249.888003 
L 141.57315 250.63164 
L 141.873572 252.603565 
L 142.173995 252.314432 
L 142.77484 255.038966 
L 143.075262 254.261792 
L 143.375685 253.954287 
L 143.676107 254.389677 
L 143.976529 253.072978 
L 144.276952 255.875908 
L 144.577374 255.131363 
L 144.877797 254.88327 
L 145.178219 255.041929 
L 145.779064 255.702421 
L 146.079487 255.686094 
L 146.379909 255.141496 
L 146.680332 256.048355 
L 146.980754 254.951768 
L 147.281177 255.90214 
L 147.581599 255.791957 
L 148.482867 254.072977 
L 148.783289 254.171715 
L 149.083711 254.784517 
L 149.384134 255.003006 
L 149.684556 256.044211 
L 149.984979 255.113622 
L 150.285401 255.734117 
L 150.886246 254.379698 
L 151.186669 255.60555 
L 151.487091 255.306445 
L 151.487091 255.306445 
" clip-path="url(#p57883cbfd1)" style="fill: none; stroke: #000000; stroke-linecap: square"/>
   </g>
   <g id="line2d_25">
    <path d="M 58.656548 250.094672 
L 58.956971 251.712107 
L 59.557816 253.516408 
L 60.158661 254.507763 
L 60.759506 254.9536 
L 61.660773 255.083534 
L 62.261618 255.211388 
L 63.162885 255.040848 
L 64.064153 255.203043 
L 64.664998 255.251426 
L 64.96542 254.861534 
L 65.566265 252.176013 
L 65.866688 251.076062 
L 66.16711 247.683028 
L 66.467532 247.987422 
L 66.767955 237.780206 
L 67.068377 233.062879 
L 67.3688 232.777975 
L 67.669222 230.811894 
L 67.969645 232.79749 
L 68.270067 231.198547 
L 68.57049 230.390897 
L 68.870912 216.573697 
L 69.171335 218.592259 
L 69.471757 217.102617 
L 69.77218 217.130711 
L 70.373025 205.840717 
L 70.673447 209.160365 
L 70.97387 207.727036 
L 71.274292 205.378786 
L 71.875137 209.010626 
L 72.175559 208.340823 
L 72.475982 207.334956 
L 72.776404 205.563763 
L 73.076827 205.192326 
L 73.377249 205.056252 
L 73.677672 205.360711 
L 74.278517 203.994154 
L 74.578939 204.386683 
L 74.879362 205.252374 
L 75.179784 204.094328 
L 75.480207 203.934047 
L 75.780629 204.766842 
L 76.081051 204.198538 
L 76.381474 203.898918 
L 76.681896 204.049591 
L 77.282741 203.934266 
L 77.583164 204.519213 
L 77.883586 204.369419 
L 78.184009 203.959 
L 78.484431 204.359171 
L 78.784854 204.104494 
L 79.085276 204.185979 
L 79.385699 203.879346 
L 79.986544 203.84479 
L 80.887811 203.917516 
L 81.188233 203.716891 
L 81.789078 203.834096 
L 82.089501 204.075733 
L 82.389923 204.02011 
L 82.690346 204.146001 
L 82.990768 206.161813 
L 83.591613 216.395812 
L 84.492881 244.346627 
L 84.793303 250.582279 
L 85.093726 253.636714 
L 85.394148 254.929816 
L 85.69457 255.539467 
L 86.295415 255.818101 
L 87.196683 255.950048 
L 87.797528 255.921729 
L 88.09795 255.784448 
L 88.398373 255.884886 
L 88.999218 255.882841 
L 89.900485 255.961093 
L 90.200908 255.792396 
L 90.801752 255.926243 
L 94.707245 255.958116 
L 95.007667 254.988163 
L 95.608512 251.417608 
L 96.509779 235.53565 
L 96.810202 233.733276 
L 97.110624 227.288699 
L 97.411047 211.761603 
L 97.711469 213.169021 
L 98.011892 211.791488 
L 98.312314 207.856262 
L 98.612737 207.807264 
L 98.913159 207.61994 
L 99.213582 205.465569 
L 99.514004 206.74044 
L 99.814427 205.359451 
L 100.114849 206.777082 
L 100.415271 204.61811 
L 100.715694 204.920613 
L 101.016116 204.313726 
L 101.316539 204.289632 
L 101.616961 205.118537 
L 101.917384 204.351795 
L 102.217806 204.619533 
L 102.518229 205.313687 
L 102.818651 204.501536 
L 103.119074 205.10804 
L 103.419496 204.155348 
L 103.719919 204.204458 
L 104.020341 204.137648 
L 104.320764 203.953419 
L 104.621186 204.132359 
L 104.921609 204.641682 
L 105.522453 203.973729 
L 105.822876 204.844429 
L 106.123298 204.104521 
L 106.423721 204.15437 
L 106.724143 203.9958 
L 107.024566 204.0986 
L 107.324988 204.429793 
L 107.625411 204.468386 
L 107.925833 204.349071 
L 108.226256 203.981722 
L 108.526678 204.909174 
L 108.827101 204.149411 
L 109.127523 204.281163 
L 109.427946 204.054531 
L 109.728368 204.105237 
L 110.02879 205.850006 
L 110.329213 209.210702 
L 110.629635 215.862713 
L 111.530903 245.530355 
L 111.831325 251.12987 
L 112.131748 253.666622 
L 112.43217 254.901129 
L 112.732593 255.52644 
L 113.333438 255.865401 
L 113.63386 255.708659 
L 114.234705 255.915249 
L 115.436395 255.941046 
L 115.736817 255.897054 
L 116.03724 255.636378 
L 116.337662 252.676685 
L 116.638085 253.49594 
L 116.938507 253.908678 
L 117.23893 246.894789 
L 117.539352 235.569176 
L 117.839775 234.560629 
L 118.140197 224.042944 
L 118.44062 223.011276 
L 118.741042 227.410986 
L 119.041465 215.24804 
L 119.341887 217.457148 
L 119.942732 210.937599 
L 120.243154 210.908805 
L 120.543577 206.890697 
L 120.843999 206.443353 
L 121.144422 204.640509 
L 121.444844 204.29223 
L 122.045689 204.623563 
L 122.346112 204.896602 
L 122.646534 204.173143 
L 122.946957 204.676878 
L 123.247379 204.171003 
L 123.547802 204.488195 
L 123.848224 204.541779 
L 124.148647 204.429326 
L 124.449069 205.158895 
L 124.749491 204.162632 
L 125.049914 206.137199 
L 125.650759 214.863198 
L 126.852449 251.165711 
L 127.152871 253.793831 
L 127.453294 255.071767 
L 127.753716 255.556248 
L 128.654984 255.912539 
L 128.955406 255.80622 
L 129.556251 255.9414 
L 129.856673 255.956979 
L 130.457518 255.775411 
L 131.058363 255.913392 
L 134.663433 255.899495 
L 135.865123 255.956477 
L 136.465968 255.933945 
L 136.76639 255.906841 
L 137.066813 254.972495 
L 137.367235 252.632302 
L 137.667658 252.250415 
L 137.96808 248.303945 
L 138.268503 246.363679 
L 138.568925 247.978678 
L 138.869348 243.940124 
L 139.16977 227.868813 
L 139.470192 225.570582 
L 139.770615 227.47452 
L 140.671882 212.733279 
L 141.272727 209.951997 
L 141.57315 209.20836 
L 141.873572 207.236435 
L 142.173995 207.525568 
L 142.77484 204.801034 
L 143.075262 205.578208 
L 143.375685 205.885713 
L 143.676107 205.450323 
L 143.976529 206.767022 
L 144.276952 203.964092 
L 144.577374 204.708637 
L 144.877797 204.95673 
L 145.178219 204.798071 
L 145.779064 204.137579 
L 146.079487 204.153906 
L 146.379909 204.698504 
L 146.680332 203.791645 
L 146.980754 204.888232 
L 147.281177 203.93786 
L 147.581599 204.048043 
L 148.482867 205.767023 
L 148.783289 205.668285 
L 149.083711 205.055483 
L 149.384134 204.836994 
L 149.684556 203.795789 
L 149.984979 204.726378 
L 150.285401 204.105883 
L 150.886246 205.460302 
L 151.186669 204.23445 
L 151.487091 204.533555 
L 151.487091 204.533555 
" clip-path="url(#p57883cbfd1)" style="fill: none; stroke: #2ca02c; stroke-linecap: square"/>
   </g>
   <g id="LineCollection_2">
    <path d="M 58.656548 289 
L 58.656548 -1 
" clip-path="url(#p57883cbfd1)" style="fill: none; stroke-dasharray: 1.85,0.8; stroke-dashoffset: 0; stroke: #000000; stroke-width: 0.5"/>
    <path d="M 64.364575 289 
L 64.364575 -1 
" clip-path="url(#p57883cbfd1)" style="fill: none; stroke-dasharray: 1.85,0.8; stroke-dashoffset: 0; stroke: #000000; stroke-width: 0.5"/>
    <path d="M 82.389923 289 
L 82.389923 -1 
" clip-path="url(#p57883cbfd1)" style="fill: none; stroke-dasharray: 1.85,0.8; stroke-dashoffset: 0; stroke: #000000; stroke-width: 0.5"/>
    <path d="M 94.406822 289 
L 94.406822 -1 
" clip-path="url(#p57883cbfd1)" style="fill: none; stroke-dasharray: 1.85,0.8; stroke-dashoffset: 0; stroke: #000000; stroke-width: 0.5"/>
    <path d="M 109.427946 289 
L 109.427946 -1 
" clip-path="url(#p57883cbfd1)" style="fill: none; stroke-dasharray: 1.85,0.8; stroke-dashoffset: 0; stroke: #000000; stroke-width: 0.5"/>
    <path d="M 115.436395 289 
L 115.436395 -1 
" clip-path="url(#p57883cbfd1)" style="fill: none; stroke-dasharray: 1.85,0.8; stroke-dashoffset: 0; stroke: #000000; stroke-width: 0.5"/>
    <path d="M 124.449069 289 
L 124.449069 -1 
" clip-path="url(#p57883cbfd1)" style="fill: none; stroke-dasharray: 1.85,0.8; stroke-dashoffset: 0; stroke: #000000; stroke-width: 0.5"/>
    <path d="M 136.465968 289 
L 136.465968 -1 
" clip-path="url(#p57883cbfd1)" style="fill: none; stroke-dasharray: 1.85,0.8; stroke-dashoffset: 0; stroke: #000000; stroke-width: 0.5"/>
    <path d="M 151.787514 289 
L 151.787514 -1 
" clip-path="url(#p57883cbfd1)" style="fill: none; stroke-dasharray: 1.85,0.8; stroke-dashoffset: 0; stroke: #000000; stroke-width: 0.5"/>
   </g>
   <g id="patch_9">
    <path d="M 54 256.32 
L 54 192.96 
" style="fill: none; stroke: #000000; stroke-width: 0.8; stroke-linejoin: miter; stroke-linecap: square"/>
   </g>
   <g id="patch_10">
    <path d="M 54 256.32 
L 156.444062 256.32 
" style="fill: none; stroke: #000000; stroke-width: 0.8; stroke-linejoin: miter; stroke-linecap: square"/>
   </g>
   <g id="text_15">
    <!-- C -->
    <g transform="translate(43.755594 189.792)scale(0.12 -0.12)">
     <defs>
      <path id="DejaVuSans-43" d="M 4122 4306 
L 4122 3641 
Q 3803 3938 3442 4084 
Q 3081 4231 2675 4231 
Q 1875 4231 1450 3742 
Q 1025 3253 1025 2328 
Q 1025 1406 1450 917 
Q 1875 428 2675 428 
Q 3081 428 3442 575 
Q 3803 722 4122 1019 
L 4122 359 
Q 3791 134 3420 21 
Q 3050 -91 2638 -91 
Q 1578 -91 968 557 
Q 359 1206 359 2328 
Q 359 3453 968 4101 
Q 1578 4750 2638 4750 
Q 3056 4750 3426 4639 
Q 3797 4528 4122 4306 
z
" transform="scale(0.015625)"/>
     </defs>
     <use xlink:href="#DejaVuSans-43"/>
    </g>
   </g>
  </g>
  <g id="axes_4">
   <g id="patch_11">
    <path d="M 179.878141 97.92 
L 282.322203 97.92 
L 282.322203 34.56 
L 179.878141 34.56 
z
" style="fill: #ffffff"/>
   </g>
   <g id="matplotlib.axis_7">
    <g id="xtick_13">
     <g id="line2d_26">
      <g>
       <use xlink:href="#m4d3ca39f72" x="184.534689" y="97.92" style="stroke: #000000; stroke-width: 0.8"/>
      </g>
     </g>
    </g>
    <g id="xtick_14">
     <g id="line2d_27">
      <g>
       <use xlink:href="#m4d3ca39f72" x="215.682169" y="97.92" style="stroke: #000000; stroke-width: 0.8"/>
      </g>
     </g>
    </g>
    <g id="xtick_15">
     <g id="line2d_28">
      <g>
       <use xlink:href="#m4d3ca39f72" x="246.82965" y="97.92" style="stroke: #000000; stroke-width: 0.8"/>
      </g>
     </g>
    </g>
    <g id="xtick_16">
     <g id="line2d_29">
      <g>
       <use xlink:href="#m4d3ca39f72" x="277.97713" y="97.92" style="stroke: #000000; stroke-width: 0.8"/>
      </g>
     </g>
    </g>
   </g>
   <g id="matplotlib.axis_8">
    <g id="ytick_7">
     <g id="line2d_30">
      <g>
       <use xlink:href="#m9c785dc7f1" x="179.878141" y="95.04" style="stroke: #000000; stroke-width: 0.8"/>
      </g>
     </g>
     <g id="text_16">
      <!-- -40 -->
      <g transform="translate(159.811891 98.079375)scale(0.08 -0.08)">
       <defs>
        <path id="DejaVuSans-2d" d="M 313 2009 
L 1997 2009 
L 1997 1497 
L 313 1497 
L 313 2009 
z
" transform="scale(0.015625)"/>
        <path id="DejaVuSans-34" d="M 2419 4116 
L 825 1625 
L 2419 1625 
L 2419 4116 
z
M 2253 4666 
L 3047 4666 
L 3047 1625 
L 3713 1625 
L 3713 1100 
L 3047 1100 
L 3047 0 
L 2419 0 
L 2419 1100 
L 313 1100 
L 313 1709 
L 2253 4666 
z
" transform="scale(0.015625)"/>
       </defs>
       <use xlink:href="#DejaVuSans-2d"/>
       <use xlink:href="#DejaVuSans-34" x="36.083984"/>
       <use xlink:href="#DejaVuSans-30" x="99.707031"/>
      </g>
     </g>
    </g>
    <g id="ytick_8">
     <g id="line2d_31">
      <g>
       <use xlink:href="#m9c785dc7f1" x="179.878141" y="66.370796" style="stroke: #000000; stroke-width: 0.8"/>
      </g>
     </g>
     <g id="text_17">
      <!-- 0 -->
      <g transform="translate(167.788141 69.410171)scale(0.08 -0.08)">
       <use xlink:href="#DejaVuSans-30"/>
      </g>
     </g>
    </g>
    <g id="ytick_9">
     <g id="line2d_32">
      <g>
       <use xlink:href="#m9c785dc7f1" x="179.878141" y="37.701592" style="stroke: #000000; stroke-width: 0.8"/>
      </g>
     </g>
     <g id="text_18">
      <!-- 40 -->
      <g transform="translate(162.698141 40.740967)scale(0.08 -0.08)">
       <use xlink:href="#DejaVuSans-34"/>
       <use xlink:href="#DejaVuSans-30" x="63.623047"/>
      </g>
     </g>
    </g>
   </g>
   <g id="line2d_33">
    <path d="M 184.534689 66.370796 
L 193.567459 66.370796 
L 193.878933 95.04 
L 202.911703 95.04 
L 203.223177 37.701592 
L 212.255947 37.701592 
L 212.567421 95.04 
L 221.600191 95.04 
L 221.911665 37.701592 
L 230.944435 37.701592 
L 231.25591 66.370796 
L 240.288679 66.370796 
L 240.600154 37.701592 
L 249.632923 37.701592 
L 249.944398 95.04 
L 258.977167 95.04 
L 259.288642 37.701592 
L 268.321411 37.701592 
L 268.632886 95.04 
L 277.665655 95.04 
L 277.665655 95.04 
" clip-path="url(#p24584258f6)" style="fill: none; stroke: #808080; stroke-linecap: square"/>
   </g>
   <g id="line2d_34">
    <path d="M 184.534689 64.549549 
L 184.846164 66.207623 
L 185.157639 65.314475 
L 185.469114 68.566092 
L 185.780589 65.624389 
L 186.092063 64.971198 
L 186.403538 65.365717 
L 186.715013 67.673806 
L 187.026488 62.709882 
L 187.649437 65.701371 
L 187.960912 64.340344 
L 188.895337 68.762495 
L 189.206811 68.45897 
L 189.518286 64.717827 
L 189.829761 66.39527 
L 190.141236 65.71649 
L 190.452711 69.853254 
L 190.764185 65.094541 
L 191.07566 68.057581 
L 191.387135 69.331012 
L 191.69861 67.176355 
L 192.010085 67.513662 
L 192.321559 69.336995 
L 192.633034 68.564474 
L 192.944509 65.66185 
L 193.255984 66.362033 
L 193.567459 68.356456 
L 193.878933 63.362071 
L 194.501883 71.863776 
L 195.124833 72.764363 
L 195.436307 77.64069 
L 195.747782 71.442543 
L 196.059257 74.812153 
L 196.370732 80.528639 
L 196.682207 80.036841 
L 196.993681 80.836805 
L 197.305156 84.343442 
L 197.616631 81.602333 
L 197.928106 80.9337 
L 198.239581 84.270781 
L 198.551055 81.465706 
L 198.86253 85.818258 
L 199.174005 82.683801 
L 199.48548 85.645618 
L 200.108429 81.800878 
L 200.419904 83.69717 
L 200.731379 83.482523 
L 201.042854 86.155628 
L 201.354329 85.066574 
L 201.665803 85.795094 
L 201.977278 85.33123 
L 202.288753 82.956132 
L 202.911703 90.027856 
L 203.534652 63.508902 
L 203.846127 65.091953 
L 204.157602 56.935035 
L 204.469077 59.086163 
L 204.780551 57.412249 
L 205.092026 54.285278 
L 205.403501 56.141023 
L 205.714976 50.383412 
L 206.026451 53.157601 
L 206.337925 54.649752 
L 206.6494 53.186145 
L 207.27235 49.632171 
L 207.583825 54.122069 
L 208.206774 45.864366 
L 208.518249 48.47379 
L 208.829724 45.392533 
L 209.452673 50.426392 
L 209.764148 50.37603 
L 210.387098 45.349569 
L 210.698573 46.33029 
L 211.010047 44.280811 
L 211.321522 44.754199 
L 211.632997 45.470254 
L 211.944472 45.855184 
L 212.255947 45.84503 
L 212.567421 86.061897 
L 212.878896 85.414944 
L 213.190371 82.579521 
L 213.501846 85.962356 
L 213.813321 85.442004 
L 214.124795 90.66474 
L 214.43627 87.327621 
L 214.747745 86.326969 
L 215.05922 92.865608 
L 215.370695 86.252077 
L 215.682169 85.772798 
L 215.993644 86.285072 
L 216.305119 87.35213 
L 216.616594 86.796164 
L 216.928069 87.660327 
L 217.239543 87.554087 
L 217.551018 85.757505 
L 217.862493 92.16655 
L 218.173968 93.011559 
L 218.485443 86.941722 
L 219.108392 90.138988 
L 219.419867 87.972944 
L 219.731342 91.069927 
L 220.042817 89.378308 
L 220.665766 94.847028 
L 220.977241 90.125481 
L 221.288716 88.663461 
L 221.600191 88.322046 
L 221.911665 45.323927 
L 222.22314 46.606232 
L 222.84609 43.171273 
L 223.157565 45.32586 
L 223.469039 49.521173 
L 223.780514 45.560841 
L 224.091989 48.483465 
L 224.403464 48.876079 
L 224.714939 47.739207 
L 225.026414 45.094206 
L 225.337888 43.6757 
L 225.649363 42.796606 
L 225.960838 42.659775 
L 226.272313 48.680556 
L 226.583788 46.133681 
L 226.895262 44.653458 
L 227.206737 45.856904 
L 227.518212 45.901374 
L 227.829687 47.248132 
L 228.452636 41.540737 
L 228.764111 43.325478 
L 229.075586 46.045954 
L 229.698536 39.694249 
L 230.01001 42.611681 
L 230.321485 41.373188 
L 230.63296 43.417996 
L 230.944435 42.347223 
L 231.25591 44.097982 
L 231.567384 66.25904 
L 231.878859 69.318079 
L 232.190334 65.406624 
L 232.501809 66.73652 
L 232.813284 65.60613 
L 233.124758 65.538483 
L 233.436233 68.796349 
L 233.747708 67.046967 
L 234.059183 64.567447 
L 234.370658 68.295377 
L 234.682132 65.978955 
L 234.993607 62.008495 
L 235.305082 68.300704 
L 235.616557 67.727184 
L 235.928032 65.994939 
L 236.239506 69.13836 
L 236.550981 67.865855 
L 236.862456 63.210971 
L 237.173931 65.463717 
L 237.485406 65.510114 
L 238.108355 62.663174 
L 238.41983 65.315559 
L 238.731305 66.147669 
L 239.04278 64.717444 
L 239.354254 70.222345 
L 239.665729 65.539638 
L 239.977204 64.947571 
L 240.288679 67.861986 
L 240.600154 47.076181 
L 240.911628 43.68264 
L 241.223103 43.718661 
L 241.534578 41.145252 
L 241.846053 40.966178 
L 242.157528 43.154275 
L 242.469002 37.44 
L 242.780477 41.372222 
L 243.091952 41.296261 
L 243.403427 40.296467 
L 243.714902 48.027894 
L 244.026376 46.547706 
L 244.337851 43.943568 
L 244.649326 38.941275 
L 244.960801 44.860899 
L 245.272276 40.363891 
L 245.895225 38.527583 
L 246.2067 41.662197 
L 246.518175 42.351106 
L 246.82965 41.07642 
L 247.141124 44.448369 
L 247.452599 46.014971 
L 247.764074 40.388652 
L 248.075549 42.077257 
L 248.387024 40.137983 
L 248.698498 44.985522 
L 249.009973 42.889861 
L 249.321448 40.014704 
L 249.632923 40.605126 
L 249.944398 88.746346 
L 250.567347 86.436903 
L 250.878822 87.283974 
L 251.190297 88.776184 
L 251.501772 87.097479 
L 251.813246 90.625671 
L 252.124721 90.452369 
L 252.436196 91.469122 
L 252.747671 88.439966 
L 253.059146 91.194232 
L 253.37062 92.677816 
L 253.682095 92.923476 
L 253.99357 92.818549 
L 254.61652 89.659168 
L 254.927994 89.430779 
L 255.239469 93.813469 
L 255.550944 92.675156 
L 255.862419 92.702521 
L 256.173894 86.616002 
L 256.485368 92.324801 
L 256.796843 91.699651 
L 257.108318 88.241303 
L 257.419793 91.346813 
L 257.731268 91.6041 
L 258.042742 90.479067 
L 258.665692 92.834352 
L 258.977167 89.121299 
L 259.288642 43.430589 
L 259.600116 42.209885 
L 259.911591 46.346893 
L 260.223066 43.976719 
L 260.534541 42.776662 
L 260.846016 47.241421 
L 261.15749 41.455386 
L 261.468965 43.014075 
L 261.78044 46.679756 
L 262.091915 42.036796 
L 262.40339 40.390453 
L 263.026339 43.447786 
L 263.337814 38.946739 
L 263.649289 48.528029 
L 264.272238 38.757175 
L 264.583713 44.399044 
L 264.895188 43.624499 
L 265.206663 41.912446 
L 265.518138 42.847059 
L 265.829612 41.090485 
L 266.141087 40.739263 
L 266.452562 45.64384 
L 266.764037 40.970551 
L 267.075512 39.347418 
L 267.386986 41.218636 
L 267.698461 41.101589 
L 268.009936 39.377383 
L 268.321411 39.363619 
L 268.632886 91.924949 
L 268.94436 89.970331 
L 269.255835 90.208849 
L 269.56731 87.611387 
L 269.878785 91.563967 
L 270.19026 90.895318 
L 270.501734 93.503464 
L 270.813209 91.635239 
L 271.124684 93.589281 
L 271.436159 90.630444 
L 271.747634 89.67165 
L 272.059108 94.243786 
L 272.682058 87.324392 
L 273.305008 92.430226 
L 273.616482 92.829978 
L 273.927957 93.706399 
L 274.239432 90.5421 
L 274.550907 90.938902 
L 274.862382 87.552998 
L 275.173856 91.391029 
L 275.485331 92.904033 
L 275.796806 92.146047 
L 276.108281 92.657823 
L 276.419756 88.47767 
L 276.73123 89.1756 
L 277.042705 92.10002 
L 277.35418 91.868661 
L 277.665655 90.65917 
L 277.665655 90.65917 
" clip-path="url(#p24584258f6)" style="fill: none; stroke: #4c4c4c; stroke-linecap: square"/>
   </g>
   <g id="patch_12">
    <path d="M 179.878141 97.92 
L 179.878141 34.56 
" style="fill: none; stroke: #000000; stroke-width: 0.8; stroke-linejoin: miter; stroke-linecap: square"/>
   </g>
   <g id="patch_13">
    <path d="M 179.878141 97.92 
L 282.322203 97.92 
" style="fill: none; stroke: #000000; stroke-width: 0.8; stroke-linejoin: miter; stroke-linecap: square"/>
   </g>
   <g id="text_19">
    <!-- Angle -->
    <g transform="translate(161.596829 77.623125)rotate(-90)scale(0.08 -0.08)">
     <defs>
      <path id="DejaVuSans-67" d="M 2906 1791 
Q 2906 2416 2648 2759 
Q 2391 3103 1925 3103 
Q 1463 3103 1205 2759 
Q 947 2416 947 1791 
Q 947 1169 1205 825 
Q 1463 481 1925 481 
Q 2391 481 2648 825 
Q 2906 1169 2906 1791 
z
M 3481 434 
Q 3481 -459 3084 -895 
Q 2688 -1331 1869 -1331 
Q 1566 -1331 1297 -1286 
Q 1028 -1241 775 -1147 
L 775 -588 
Q 1028 -725 1275 -790 
Q 1522 -856 1778 -856 
Q 2344 -856 2625 -561 
Q 2906 -266 2906 331 
L 2906 616 
Q 2728 306 2450 153 
Q 2172 0 1784 0 
Q 1141 0 747 490 
Q 353 981 353 1791 
Q 353 2603 747 3093 
Q 1141 3584 1784 3584 
Q 2172 3584 2450 3431 
Q 2728 3278 2906 2969 
L 2906 3500 
L 3481 3500 
L 3481 434 
z
" transform="scale(0.015625)"/>
     </defs>
     <use xlink:href="#DejaVuSans-41"/>
     <use xlink:href="#DejaVuSans-6e" x="68.408203"/>
     <use xlink:href="#DejaVuSans-67" x="131.787109"/>
     <use xlink:href="#DejaVuSans-6c" x="195.263672"/>
     <use xlink:href="#DejaVuSans-65" x="223.046875"/>
    </g>
   </g>
   <g id="text_20">
    <!-- Adaptation -->
    <g transform="translate(204.847172 28.56)scale(0.096 -0.096)">
     <defs>
      <path id="DejaVuSans-64" d="M 2906 2969 
L 2906 4863 
L 3481 4863 
L 3481 0 
L 2906 0 
L 2906 525 
Q 2725 213 2448 61 
Q 2172 -91 1784 -91 
Q 1150 -91 751 415 
Q 353 922 353 1747 
Q 353 2572 751 3078 
Q 1150 3584 1784 3584 
Q 2172 3584 2448 3432 
Q 2725 3281 2906 2969 
z
M 947 1747 
Q 947 1113 1208 752 
Q 1469 391 1925 391 
Q 2381 391 2643 752 
Q 2906 1113 2906 1747 
Q 2906 2381 2643 2742 
Q 2381 3103 1925 3103 
Q 1469 3103 1208 2742 
Q 947 2381 947 1747 
z
" transform="scale(0.015625)"/>
     </defs>
     <use xlink:href="#DejaVuSans-41"/>
     <use xlink:href="#DejaVuSans-64" x="66.658203"/>
     <use xlink:href="#DejaVuSans-61" x="130.134766"/>
     <use xlink:href="#DejaVuSans-70" x="191.414062"/>
     <use xlink:href="#DejaVuSans-74" x="254.890625"/>
     <use xlink:href="#DejaVuSans-61" x="294.099609"/>
     <use xlink:href="#DejaVuSans-74" x="355.378906"/>
     <use xlink:href="#DejaVuSans-69" x="394.587891"/>
     <use xlink:href="#DejaVuSans-6f" x="422.371094"/>
     <use xlink:href="#DejaVuSans-6e" x="483.552734"/>
    </g>
   </g>
  </g>
  <g id="axes_5">
   <g id="patch_14">
    <path d="M 179.878141 177.12 
L 282.322203 177.12 
L 282.322203 113.76 
L 179.878141 113.76 
z
" style="fill: #ffffff"/>
   </g>
   <g id="matplotlib.axis_9">
    <g id="xtick_17">
     <g id="line2d_35">
      <g>
       <use xlink:href="#m4d3ca39f72" x="184.534689" y="177.12" style="stroke: #000000; stroke-width: 0.8"/>
      </g>
     </g>
    </g>
    <g id="xtick_18">
     <g id="line2d_36">
      <g>
       <use xlink:href="#m4d3ca39f72" x="214.67416" y="177.12" style="stroke: #000000; stroke-width: 0.8"/>
      </g>
     </g>
    </g>
    <g id="xtick_19">
     <g id="line2d_37">
      <g>
       <use xlink:href="#m4d3ca39f72" x="244.813631" y="177.12" style="stroke: #000000; stroke-width: 0.8"/>
      </g>
     </g>
    </g>
    <g id="xtick_20">
     <g id="line2d_38">
      <g>
       <use xlink:href="#m4d3ca39f72" x="274.953102" y="177.12" style="stroke: #000000; stroke-width: 0.8"/>
      </g>
     </g>
    </g>
   </g>
   <g id="matplotlib.axis_10">
    <g id="ytick_10">
     <g id="line2d_39">
      <g>
       <use xlink:href="#m9c785dc7f1" x="179.878141" y="164.151488" style="stroke: #000000; stroke-width: 0.8"/>
      </g>
     </g>
     <g id="text_21">
      <!-- 0 -->
      <g transform="translate(167.788141 167.190863)scale(0.08 -0.08)">
       <use xlink:href="#DejaVuSans-30"/>
      </g>
     </g>
    </g>
    <g id="ytick_11">
     <g id="line2d_40">
      <g>
       <use xlink:href="#m9c785dc7f1" x="179.878141" y="129.431831" style="stroke: #000000; stroke-width: 0.8"/>
      </g>
     </g>
     <g id="text_22">
      <!-- 20 -->
      <g transform="translate(162.698141 132.471206)scale(0.08 -0.08)">
       <use xlink:href="#DejaVuSans-32"/>
       <use xlink:href="#DejaVuSans-30" x="63.623047"/>
      </g>
     </g>
    </g>
   </g>
   <g id="line2d_41">
    <path d="M 184.534689 164.151488 
L 190.261189 164.151488 
L 190.562584 129.431831 
L 208.344872 129.431831 
L 208.646266 164.151488 
L 220.40066 164.151488 
L 220.702055 129.431831 
L 235.470395 129.431831 
L 235.77179 164.151488 
L 241.49829 164.151488 
L 241.799684 129.431831 
L 250.540131 129.431831 
L 250.841526 164.151488 
L 262.595919 164.151488 
L 262.897314 129.431831 
L 277.665655 129.431831 
L 277.665655 129.431831 
" clip-path="url(#p35181f6628)" style="fill: none; stroke: #808080; stroke-linecap: square"/>
   </g>
   <g id="line2d_42">
    <path d="M 184.534689 159.906047 
L 184.836084 161.88301 
L 185.137479 160.041113 
L 185.438874 167.908075 
L 185.740268 169.748316 
L 186.041663 165.773636 
L 186.343058 167.4182 
L 186.644452 173.579215 
L 186.945847 157.016867 
L 187.247242 161.897197 
L 187.548637 171.255957 
L 187.850031 163.049783 
L 188.151426 171.986913 
L 188.452821 168.258087 
L 188.754215 167.217377 
L 189.05561 155.146195 
L 189.357005 166.894087 
L 189.658399 160.630899 
L 189.959794 161.024506 
L 190.261189 167.315081 
L 190.562584 166.616683 
L 190.863978 156.527835 
L 191.165373 162.523764 
L 191.466768 139.801815 
L 191.768162 146.657463 
L 192.069557 147.123598 
L 192.370952 141.550269 
L 192.672347 139.381716 
L 192.973741 129.128699 
L 193.275136 132.206063 
L 193.576531 127.430959 
L 193.877925 127.446726 
L 194.17932 131.550775 
L 194.480715 129.23648 
L 195.083504 134.956072 
L 195.384899 124.880274 
L 195.686294 142.467084 
L 195.987688 125.498979 
L 196.289083 124.554936 
L 196.891873 133.253507 
L 197.193267 136.316209 
L 197.494662 127.807256 
L 197.796057 138.735891 
L 198.097451 128.50966 
L 198.398846 124.749481 
L 198.700241 130.76641 
L 199.30303 128.478526 
L 199.604425 134.177197 
L 199.90582 125.222901 
L 200.207214 130.855107 
L 200.810004 134.18153 
L 201.111398 133.509858 
L 201.412793 122.613017 
L 201.714188 120.6979 
L 202.015583 130.477391 
L 202.618372 124.482622 
L 202.919767 128.640035 
L 203.221161 126.214141 
L 203.522556 132.857743 
L 203.823951 130.461641 
L 204.125346 127.161498 
L 204.42674 127.000109 
L 204.728135 134.902304 
L 205.02953 129.882653 
L 205.330924 122.835579 
L 205.632319 137.306179 
L 205.933714 126.079291 
L 206.235109 133.33267 
L 206.536503 133.085539 
L 206.837898 116.64 
L 207.139293 134.775601 
L 207.440687 133.529015 
L 207.742082 137.142288 
L 208.043477 118.125592 
L 208.344872 120.884269 
L 208.646266 128.461616 
L 208.947661 133.073569 
L 209.249056 131.752592 
L 209.851845 155.978362 
L 210.15324 161.375694 
L 210.454634 163.568552 
L 210.756029 162.720129 
L 211.057424 164.854401 
L 211.358819 155.71419 
L 211.660213 164.824374 
L 211.961608 160.554254 
L 212.263003 163.673389 
L 212.564397 164.447357 
L 212.865792 163.825348 
L 213.167187 167.154385 
L 213.468582 162.607285 
L 213.769976 168.056678 
L 214.071371 163.465415 
L 214.372766 166.350567 
L 214.67416 166.177118 
L 214.975555 169.032537 
L 215.27695 166.187432 
L 215.578345 170.670818 
L 216.181134 157.628484 
L 216.482529 159.277556 
L 217.085318 165.383752 
L 217.386713 164.505449 
L 217.688108 160.778917 
L 217.989502 161.634094 
L 218.290897 164.159198 
L 218.592292 159.720024 
L 218.893686 163.281787 
L 219.195081 161.209577 
L 219.496476 170.809804 
L 219.79787 166.849468 
L 220.099265 164.655547 
L 220.40066 154.441016 
L 220.702055 160.483335 
L 221.003449 159.944161 
L 221.606239 135.735561 
L 221.907633 141.792568 
L 222.209028 125.180663 
L 222.510423 127.638958 
L 222.811818 133.791694 
L 223.113212 127.895936 
L 223.414607 129.045736 
L 223.716002 129.582097 
L 224.017396 130.700377 
L 224.318791 136.19105 
L 224.620186 120.196782 
L 224.921581 139.460407 
L 225.222975 126.158097 
L 225.52437 129.445332 
L 225.825765 134.10558 
L 226.127159 128.839114 
L 226.428554 129.3631 
L 226.729949 131.166543 
L 227.031344 129.484373 
L 227.332738 134.822932 
L 227.634133 129.464568 
L 228.236922 132.832948 
L 228.538317 127.988116 
L 228.839712 131.100906 
L 229.141107 136.600841 
L 229.442501 129.462517 
L 229.743896 133.715837 
L 230.045291 129.903201 
L 230.346685 134.274629 
L 230.64808 132.481168 
L 230.949475 125.190595 
L 231.250869 133.691877 
L 231.853659 132.266785 
L 232.155054 125.923414 
L 232.456448 133.600087 
L 232.757843 131.050027 
L 233.059238 126.744737 
L 233.662027 135.169776 
L 233.963422 134.313935 
L 234.264817 131.917699 
L 234.566211 134.829209 
L 234.867606 129.747077 
L 235.169001 132.846595 
L 235.470395 142.113031 
L 235.77179 145.775204 
L 236.073185 123.871378 
L 236.675974 138.129236 
L 236.977369 157.905843 
L 237.580158 162.284946 
L 237.881553 164.190937 
L 238.182948 159.084101 
L 238.484343 169.051192 
L 238.785737 170.853975 
L 239.087132 167.558706 
L 239.388527 159.891979 
L 239.689921 165.411674 
L 239.991316 173.317692 
L 240.292711 162.857311 
L 240.594105 158.2985 
L 240.8955 168.188153 
L 241.196895 162.825367 
L 241.49829 161.844181 
L 241.799684 164.69981 
L 242.101079 157.436087 
L 242.703868 135.859855 
L 243.005263 132.137694 
L 243.306658 134.835539 
L 243.608053 126.45641 
L 243.909447 142.039027 
L 244.210842 128.838956 
L 244.512237 131.48546 
L 245.115026 127.116066 
L 245.416421 128.853368 
L 245.717816 129.24893 
L 246.01921 138.444413 
L 246.320605 134.418966 
L 246.622 126.738528 
L 246.923394 124.224058 
L 247.224789 127.293622 
L 247.827579 129.406773 
L 248.128973 142.982297 
L 248.430368 133.53999 
L 248.731763 130.579589 
L 249.033157 129.556493 
L 249.334552 129.698717 
L 249.635947 130.216291 
L 249.937341 129.031455 
L 250.238736 139.198045 
L 250.540131 138.997864 
L 250.841526 133.923831 
L 251.14292 131.448006 
L 251.444315 135.031449 
L 251.74571 153.343087 
L 252.047104 149.037466 
L 252.348499 156.187383 
L 252.649894 167.070837 
L 252.951289 163.27077 
L 253.252683 166.930384 
L 253.554078 166.721124 
L 253.855473 159.478786 
L 254.156867 167.879956 
L 254.458262 167.210756 
L 254.759657 174.24 
L 255.061052 164.055516 
L 255.362446 163.380297 
L 255.965236 166.976491 
L 256.26663 162.314152 
L 256.568025 165.61879 
L 256.86942 159.176756 
L 257.170815 166.933227 
L 257.472209 166.643526 
L 257.773604 161.604968 
L 258.074999 160.825653 
L 258.376393 168.009969 
L 258.677788 161.309335 
L 258.979183 164.306691 
L 259.280578 163.109443 
L 259.581972 167.52968 
L 259.883367 166.470173 
L 260.184762 172.231333 
L 260.486156 165.618624 
L 260.787551 165.298987 
L 261.088946 171.946673 
L 261.39034 161.70412 
L 261.691735 157.583587 
L 261.99313 170.447995 
L 262.294525 166.883063 
L 262.595919 168.695848 
L 262.897314 167.01834 
L 263.801498 136.969018 
L 264.102893 130.563735 
L 264.404288 133.790598 
L 264.705682 138.283368 
L 265.007077 138.379613 
L 265.308472 136.969103 
L 265.609866 128.47766 
L 265.911261 134.593227 
L 266.212656 128.346421 
L 266.514051 135.712051 
L 266.815445 127.829731 
L 267.11684 130.218375 
L 267.418235 123.49876 
L 267.719629 132.604191 
L 268.021024 130.436688 
L 268.322419 131.852922 
L 268.925208 124.818043 
L 269.226603 126.173935 
L 269.527998 122.203592 
L 269.829392 131.745938 
L 270.130787 121.950038 
L 270.432182 132.999933 
L 270.733576 132.043536 
L 271.034971 134.894295 
L 271.637761 121.131454 
L 271.939155 123.641512 
L 272.24055 133.272656 
L 272.541945 135.139811 
L 272.843339 130.668488 
L 273.144734 136.122255 
L 273.446129 128.410493 
L 273.747524 133.36504 
L 274.048918 132.941939 
L 274.350313 131.729379 
L 274.651708 133.829625 
L 274.953102 130.602541 
L 275.254497 126.09234 
L 275.555892 130.420416 
L 275.857287 139.58718 
L 276.158681 131.870484 
L 276.460076 132.676025 
L 276.761471 130.586505 
L 277.062865 133.028273 
L 277.36426 131.854868 
L 277.665655 125.124361 
L 277.665655 125.124361 
" clip-path="url(#p35181f6628)" style="fill: none; stroke: #4c4c4c; stroke-linecap: square"/>
   </g>
   <g id="patch_15">
    <path d="M 179.878141 177.12 
L 179.878141 113.76 
" style="fill: none; stroke: #000000; stroke-width: 0.8; stroke-linejoin: miter; stroke-linecap: square"/>
   </g>
   <g id="patch_16">
    <path d="M 179.878141 177.12 
L 282.322203 177.12 
" style="fill: none; stroke: #000000; stroke-width: 0.8; stroke-linejoin: miter; stroke-linecap: square"/>
   </g>
   <g id="text_23">
    <!-- Angle -->
    <g transform="translate(161.596829 156.823125)rotate(-90)scale(0.08 -0.08)">
     <use xlink:href="#DejaVuSans-41"/>
     <use xlink:href="#DejaVuSans-6e" x="68.408203"/>
     <use xlink:href="#DejaVuSans-67" x="131.787109"/>
     <use xlink:href="#DejaVuSans-6c" x="195.263672"/>
     <use xlink:href="#DejaVuSans-65" x="223.046875"/>
    </g>
   </g>
  </g>
  <g id="axes_6">
   <g id="patch_17">
    <path d="M 179.878141 256.32 
L 282.322203 256.32 
L 282.322203 192.96 
L 179.878141 192.96 
z
" style="fill: #ffffff"/>
   </g>
   <g id="matplotlib.axis_11">
    <g id="xtick_21">
     <g id="line2d_43">
      <g>
       <use xlink:href="#m4d3ca39f72" x="184.534689" y="256.32" style="stroke: #000000; stroke-width: 0.8"/>
      </g>
     </g>
     <g id="text_24">
      <!-- 0 -->
      <g transform="translate(181.989689 269.39875)scale(0.08 -0.08)">
       <use xlink:href="#DejaVuSans-30"/>
      </g>
     </g>
    </g>
    <g id="xtick_22">
     <g id="line2d_44">
      <g>
       <use xlink:href="#m4d3ca39f72" x="214.67416" y="256.32" style="stroke: #000000; stroke-width: 0.8"/>
      </g>
     </g>
     <g id="text_25">
      <!-- 100 -->
      <g transform="translate(207.03916 269.39875)scale(0.08 -0.08)">
       <use xlink:href="#DejaVuSans-31"/>
       <use xlink:href="#DejaVuSans-30" x="63.623047"/>
       <use xlink:href="#DejaVuSans-30" x="127.246094"/>
      </g>
     </g>
    </g>
    <g id="xtick_23">
     <g id="line2d_45">
      <g>
       <use xlink:href="#m4d3ca39f72" x="244.813631" y="256.32" style="stroke: #000000; stroke-width: 0.8"/>
      </g>
     </g>
     <g id="text_26">
      <!-- 200 -->
      <g transform="translate(237.178631 269.39875)scale(0.08 -0.08)">
       <use xlink:href="#DejaVuSans-32"/>
       <use xlink:href="#DejaVuSans-30" x="63.623047"/>
       <use xlink:href="#DejaVuSans-30" x="127.246094"/>
      </g>
     </g>
    </g>
    <g id="xtick_24">
     <g id="line2d_46">
      <g>
       <use xlink:href="#m4d3ca39f72" x="274.953102" y="256.32" style="stroke: #000000; stroke-width: 0.8"/>
      </g>
     </g>
     <g id="text_27">
      <!-- 300 -->
      <g transform="translate(267.318102 269.39875)scale(0.08 -0.08)">
       <use xlink:href="#DejaVuSans-33"/>
       <use xlink:href="#DejaVuSans-30" x="63.623047"/>
       <use xlink:href="#DejaVuSans-30" x="127.246094"/>
      </g>
     </g>
    </g>
    <g id="text_28">
     <!-- Trials -->
     <g transform="translate(220.845172 281.14125)scale(0.08 -0.08)">
      <defs>
       <path id="DejaVuSans-73" d="M 2834 3397 
L 2834 2853 
Q 2591 2978 2328 3040 
Q 2066 3103 1784 3103 
Q 1356 3103 1142 2972 
Q 928 2841 928 2578 
Q 928 2378 1081 2264 
Q 1234 2150 1697 2047 
L 1894 2003 
Q 2506 1872 2764 1633 
Q 3022 1394 3022 966 
Q 3022 478 2636 193 
Q 2250 -91 1575 -91 
Q 1294 -91 989 -36 
Q 684 19 347 128 
L 347 722 
Q 666 556 975 473 
Q 1284 391 1588 391 
Q 1994 391 2212 530 
Q 2431 669 2431 922 
Q 2431 1156 2273 1281 
Q 2116 1406 1581 1522 
L 1381 1569 
Q 847 1681 609 1914 
Q 372 2147 372 2553 
Q 372 3047 722 3315 
Q 1072 3584 1716 3584 
Q 2034 3584 2315 3537 
Q 2597 3491 2834 3397 
z
" transform="scale(0.015625)"/>
      </defs>
      <use xlink:href="#DejaVuSans-54"/>
      <use xlink:href="#DejaVuSans-72" x="46.333984"/>
      <use xlink:href="#DejaVuSans-69" x="87.447266"/>
      <use xlink:href="#DejaVuSans-61" x="115.230469"/>
      <use xlink:href="#DejaVuSans-6c" x="176.509766"/>
      <use xlink:href="#DejaVuSans-73" x="204.292969"/>
     </g>
    </g>
   </g>
   <g id="matplotlib.axis_12">
    <g id="ytick_12">
     <g id="line2d_47">
      <g>
       <use xlink:href="#m9c785dc7f1" x="179.878141" y="239.179085" style="stroke: #000000; stroke-width: 0.8"/>
      </g>
     </g>
     <g id="text_29">
      <!-- 0 -->
      <g transform="translate(167.788141 242.21846)scale(0.08 -0.08)">
       <use xlink:href="#DejaVuSans-30"/>
      </g>
     </g>
    </g>
    <g id="ytick_13">
     <g id="line2d_48">
      <g>
       <use xlink:href="#m9c785dc7f1" x="179.878141" y="212.746473" style="stroke: #000000; stroke-width: 0.8"/>
      </g>
     </g>
     <g id="text_30">
      <!-- 10 -->
      <g transform="translate(162.698141 215.785848)scale(0.08 -0.08)">
       <use xlink:href="#DejaVuSans-31"/>
       <use xlink:href="#DejaVuSans-30" x="63.623047"/>
      </g>
     </g>
    </g>
   </g>
   <g id="line2d_49">
    <path d="M 184.534689 239.179085 
L 190.261189 239.179085 
L 190.562584 212.746473 
L 208.344872 212.746473 
L 208.646266 239.179085 
L 220.40066 239.179085 
L 220.702055 212.746473 
L 235.470395 212.746473 
L 235.77179 239.179085 
L 241.49829 239.179085 
L 241.799684 212.746473 
L 250.540131 212.746473 
L 250.841526 239.179085 
L 262.595919 239.179085 
L 262.897314 212.746473 
L 277.665655 212.746473 
L 277.665655 212.746473 
" clip-path="url(#p8558172cdc)" style="fill: none; stroke: #808080; stroke-linecap: square"/>
   </g>
   <g id="line2d_50">
    <path d="M 184.534689 235.4909 
L 184.836084 249.253672 
L 185.137479 243.963694 
L 185.438874 242.312658 
L 185.740268 227.477919 
L 186.041663 243.190542 
L 186.343058 244.313478 
L 186.644452 237.584265 
L 186.945847 245.139748 
L 187.548637 234.139356 
L 187.850031 237.655825 
L 188.151426 248.167698 
L 188.452821 243.020456 
L 188.754215 242.386073 
L 189.05561 229.296783 
L 189.357005 237.519638 
L 189.658399 238.622752 
L 189.959794 240.609449 
L 190.261189 227.100952 
L 190.562584 230.395286 
L 190.863978 235.826949 
L 191.165373 236.441806 
L 191.466768 239.250214 
L 191.768162 247.829755 
L 192.069557 234.007835 
L 192.370952 243.371618 
L 192.672347 224.03423 
L 192.973741 225.30932 
L 193.275136 222.886331 
L 193.576531 235.508642 
L 193.877925 234.268644 
L 194.17932 230.284994 
L 194.480715 239.453828 
L 194.78211 209.72402 
L 195.686294 227.421525 
L 195.987688 222.140476 
L 196.289083 197.816296 
L 196.590478 222.335084 
L 197.193267 216.862034 
L 197.494662 217.366268 
L 197.796057 221.756529 
L 198.097451 216.714526 
L 198.398846 219.313865 
L 198.700241 211.845544 
L 199.001635 211.578431 
L 199.30303 219.096716 
L 199.604425 210.351412 
L 199.90582 212.329692 
L 200.207214 195.84 
L 200.508609 202.734824 
L 200.810004 220.722432 
L 201.111398 225.588077 
L 201.412793 215.240321 
L 201.714188 220.521649 
L 202.015583 218.298741 
L 202.316977 211.101804 
L 202.618372 218.048288 
L 202.919767 215.499529 
L 203.221161 203.727532 
L 203.522556 221.613201 
L 203.823951 211.890098 
L 204.125346 216.389798 
L 204.42674 217.110221 
L 205.02953 224.132047 
L 205.632319 207.462258 
L 205.933714 222.116948 
L 206.235109 215.966565 
L 206.536503 216.937699 
L 206.837898 220.566242 
L 207.139293 199.971551 
L 207.440687 210.708565 
L 207.742082 210.923415 
L 208.043477 212.769264 
L 208.344872 221.695443 
L 208.646266 210.515704 
L 208.947661 213.568626 
L 209.249056 219.564573 
L 209.55045 219.812213 
L 209.851845 239.022981 
L 210.15324 244.136044 
L 210.454634 233.851936 
L 210.756029 243.502458 
L 211.057424 238.237079 
L 211.358819 237.677952 
L 211.660213 238.091299 
L 211.961608 236.6309 
L 212.263003 238.791912 
L 212.564397 229.308109 
L 212.865792 234.507179 
L 213.167187 246.331546 
L 213.468582 233.971518 
L 213.769976 240.495813 
L 214.071371 234.443602 
L 214.372766 241.497694 
L 214.67416 241.030201 
L 214.975555 236.617432 
L 215.27695 240.405898 
L 215.578345 237.603919 
L 215.879739 241.635543 
L 216.181134 225.21889 
L 216.482529 247.725411 
L 216.783923 237.709406 
L 217.085318 237.598913 
L 217.386713 225.883095 
L 217.688108 228.109281 
L 218.592292 244.524979 
L 218.893686 243.728417 
L 219.195081 231.655246 
L 219.496476 231.075245 
L 219.79787 234.63131 
L 220.099265 229.811349 
L 220.702055 243.257578 
L 221.003449 227.534176 
L 221.304844 231.562868 
L 221.606239 232.682194 
L 221.907633 227.659748 
L 222.209028 235.613394 
L 222.510423 239.204552 
L 223.113212 228.829015 
L 223.414607 211.790819 
L 223.716002 215.454485 
L 224.017396 222.842173 
L 224.318791 214.28038 
L 224.620186 216.843941 
L 224.921581 220.689846 
L 225.222975 221.814325 
L 225.52437 209.77818 
L 225.825765 217.001361 
L 226.127159 221.321045 
L 226.428554 199.858612 
L 226.729949 203.589024 
L 227.031344 196.681899 
L 227.332738 207.047607 
L 227.634133 211.561181 
L 227.935528 211.162408 
L 228.236922 203.951285 
L 228.538317 227.146986 
L 228.839712 210.829255 
L 229.141107 220.759324 
L 229.442501 208.79563 
L 229.743896 216.634702 
L 230.045291 218.768338 
L 230.346685 210.718128 
L 230.64808 211.259081 
L 230.949475 220.155484 
L 231.250869 206.869793 
L 231.552264 205.614007 
L 231.853659 220.151713 
L 232.155054 221.807298 
L 232.757843 212.310189 
L 233.059238 211.863361 
L 233.360632 210.364182 
L 233.662027 215.518254 
L 233.963422 218.501715 
L 234.264817 206.931829 
L 234.867606 213.886454 
L 235.169001 215.721031 
L 235.470395 215.805363 
L 235.77179 215.355191 
L 236.073185 220.844787 
L 236.675974 219.742543 
L 236.977369 234.784184 
L 237.278764 232.943574 
L 237.580158 238.296679 
L 237.881553 239.950863 
L 238.182948 247.08382 
L 238.484343 230.676018 
L 238.785737 236.399924 
L 239.087132 234.630189 
L 239.388527 236.073522 
L 239.689921 230.796048 
L 239.991316 231.913467 
L 240.292711 244.432958 
L 240.594105 242.681387 
L 240.8955 242.577329 
L 241.196895 246.398526 
L 241.49829 242.509804 
L 241.799684 235.012649 
L 242.101079 249.33668 
L 242.402474 239.443 
L 242.703868 245.226676 
L 243.005263 253.44 
L 243.306658 229.299469 
L 243.608053 237.755308 
L 243.909447 234.613696 
L 244.210842 220.738646 
L 244.512237 219.736517 
L 244.813631 225.06144 
L 245.115026 215.68568 
L 245.416421 227.792593 
L 245.717816 218.03395 
L 246.01921 216.61142 
L 246.320605 220.382242 
L 246.622 214.329335 
L 246.923394 221.497446 
L 247.526184 205.810824 
L 247.827579 213.082029 
L 248.430368 215.995543 
L 248.731763 214.831195 
L 249.033157 211.493465 
L 249.334552 203.082683 
L 249.635947 211.175906 
L 249.937341 204.593177 
L 250.238736 208.323767 
L 250.540131 217.127718 
L 250.841526 212.62023 
L 251.444315 220.649438 
L 251.74571 209.777615 
L 252.047104 240.853209 
L 252.348499 242.445515 
L 252.649894 227.713706 
L 252.951289 240.696146 
L 253.252683 226.204176 
L 253.554078 235.386403 
L 253.855473 233.294711 
L 254.759657 243.670628 
L 255.061052 234.936073 
L 255.362446 234.748304 
L 255.965236 251.686156 
L 256.26663 242.878212 
L 256.568025 241.401623 
L 256.86942 230.749427 
L 257.170815 249.094071 
L 257.472209 234.005984 
L 257.773604 229.632742 
L 258.074999 231.8507 
L 258.376393 245.841052 
L 258.677788 225.380596 
L 258.979183 242.818053 
L 259.280578 236.924026 
L 259.581972 234.392 
L 259.883367 245.434293 
L 260.184762 246.708653 
L 260.486156 242.762094 
L 260.787551 240.765201 
L 261.088946 233.186586 
L 261.39034 232.235563 
L 261.691735 232.528887 
L 261.99313 239.622552 
L 262.294525 229.721317 
L 262.595919 235.926241 
L 262.897314 239.389826 
L 263.198709 235.056308 
L 263.500103 241.87754 
L 263.801498 235.634732 
L 264.102893 235.305653 
L 264.404288 235.336384 
L 264.705682 251.24879 
L 265.308472 220.399698 
L 265.609866 225.323139 
L 265.911261 233.265021 
L 266.212656 220.694347 
L 266.815445 215.83597 
L 267.11684 213.891856 
L 267.418235 219.787363 
L 267.719629 218.238176 
L 268.021024 227.435444 
L 268.322419 211.584272 
L 268.623814 220.5504 
L 268.925208 206.175172 
L 269.226603 217.272399 
L 269.527998 208.996191 
L 269.829392 207.933722 
L 270.130787 213.679489 
L 270.432182 213.253336 
L 270.733576 222.124491 
L 271.034971 216.648662 
L 271.336366 225.717026 
L 271.637761 227.869085 
L 271.939155 210.724311 
L 272.24055 215.818292 
L 272.541945 225.700956 
L 272.843339 203.513102 
L 273.144734 220.900572 
L 273.446129 207.097377 
L 273.747524 204.768437 
L 274.048918 211.871664 
L 274.350313 215.877792 
L 274.651708 216.143576 
L 274.953102 213.309995 
L 275.254497 214.577902 
L 275.555892 217.453274 
L 275.857287 208.646105 
L 276.158681 219.898298 
L 276.460076 210.771343 
L 276.761471 217.537251 
L 277.062865 216.805604 
L 277.36426 202.575058 
L 277.665655 207.519101 
L 277.665655 207.519101 
" clip-path="url(#p8558172cdc)" style="fill: none; stroke: #4c4c4c; stroke-linecap: square"/>
   </g>
   <g id="patch_18">
    <path d="M 179.878141 256.32 
L 179.878141 192.96 
" style="fill: none; stroke: #000000; stroke-width: 0.8; stroke-linejoin: miter; stroke-linecap: square"/>
   </g>
   <g id="patch_19">
    <path d="M 179.878141 256.32 
L 282.322203 256.32 
" style="fill: none; stroke: #000000; stroke-width: 0.8; stroke-linejoin: miter; stroke-linecap: square"/>
   </g>
   <g id="text_31">
    <!-- Angle -->
    <g transform="translate(161.596829 236.023125)rotate(-90)scale(0.08 -0.08)">
     <use xlink:href="#DejaVuSans-41"/>
     <use xlink:href="#DejaVuSans-6e" x="68.408203"/>
     <use xlink:href="#DejaVuSans-67" x="131.787109"/>
     <use xlink:href="#DejaVuSans-6c" x="195.263672"/>
     <use xlink:href="#DejaVuSans-65" x="223.046875"/>
    </g>
   </g>
  </g>
  <g id="axes_7">
   <g id="patch_20">
    <path d="M 286.355938 97.92 
L 388.8 97.92 
L 388.8 34.56 
L 286.355938 34.56 
z
" style="fill: #ffffff"/>
   </g>
   <g id="matplotlib.axis_13">
    <g id="xtick_25">
     <g id="line2d_51">
      <g>
       <use xlink:href="#m4d3ca39f72" x="291.012486" y="97.92" style="stroke: #000000; stroke-width: 0.8"/>
      </g>
     </g>
    </g>
    <g id="xtick_26">
     <g id="line2d_52">
      <g>
       <use xlink:href="#m4d3ca39f72" x="322.159966" y="97.92" style="stroke: #000000; stroke-width: 0.8"/>
      </g>
     </g>
    </g>
    <g id="xtick_27">
     <g id="line2d_53">
      <g>
       <use xlink:href="#m4d3ca39f72" x="353.307446" y="97.92" style="stroke: #000000; stroke-width: 0.8"/>
      </g>
     </g>
    </g>
    <g id="xtick_28">
     <g id="line2d_54">
      <g>
       <use xlink:href="#m4d3ca39f72" x="384.454927" y="97.92" style="stroke: #000000; stroke-width: 0.8"/>
      </g>
     </g>
    </g>
   </g>
   <g id="matplotlib.axis_14">
    <g id="ytick_14">
     <g id="line2d_55">
      <g>
       <use xlink:href="#m9c785dc7f1" x="286.355938" y="95.04" style="stroke: #000000; stroke-width: 0.8"/>
      </g>
     </g>
    </g>
    <g id="ytick_15">
     <g id="line2d_56">
      <g>
       <use xlink:href="#m9c785dc7f1" x="286.355938" y="66.370796" style="stroke: #000000; stroke-width: 0.8"/>
      </g>
     </g>
    </g>
    <g id="ytick_16">
     <g id="line2d_57">
      <g>
       <use xlink:href="#m9c785dc7f1" x="286.355938" y="37.701592" style="stroke: #000000; stroke-width: 0.8"/>
      </g>
     </g>
    </g>
   </g>
   <g id="line2d_58">
    <path d="M 291.012486 66.370796 
L 300.045256 66.370796 
L 300.35673 95.04 
L 309.3895 95.04 
L 309.700974 37.701592 
L 318.733744 37.701592 
L 319.045218 95.04 
L 328.077988 95.04 
L 328.389462 37.701592 
L 337.422232 37.701592 
L 337.733706 66.370796 
L 346.766476 66.370796 
L 347.07795 37.701592 
L 356.11072 37.701592 
L 356.422194 95.04 
L 365.454964 95.04 
L 365.766438 37.701592 
L 374.799208 37.701592 
L 375.110683 95.04 
L 384.143452 95.04 
L 384.143452 95.04 
" clip-path="url(#p76533f863c)" style="fill: none; stroke: #808080; stroke-linecap: square"/>
   </g>
   <g id="patch_21">
    <path d="M 286.355938 97.92 
L 286.355938 34.56 
" style="fill: none; stroke: #000000; stroke-width: 0.8; stroke-linejoin: miter; stroke-linecap: square"/>
   </g>
   <g id="patch_22">
    <path d="M 286.355938 97.92 
L 388.8 97.92 
" style="fill: none; stroke: #000000; stroke-width: 0.8; stroke-linejoin: miter; stroke-linecap: square"/>
   </g>
   <g id="text_32">
    <!-- Exp. data -->
    <g transform="translate(314.793719 28.56)scale(0.096 -0.096)">
     <defs>
      <path id="DejaVuSans-45" d="M 628 4666 
L 3578 4666 
L 3578 4134 
L 1259 4134 
L 1259 2753 
L 3481 2753 
L 3481 2222 
L 1259 2222 
L 1259 531 
L 3634 531 
L 3634 0 
L 628 0 
L 628 4666 
z
" transform="scale(0.015625)"/>
      <path id="DejaVuSans-2e" d="M 684 794 
L 1344 794 
L 1344 0 
L 684 0 
L 684 794 
z
" transform="scale(0.015625)"/>
      <path id="DejaVuSans-20" transform="scale(0.015625)"/>
     </defs>
     <use xlink:href="#DejaVuSans-45"/>
     <use xlink:href="#DejaVuSans-78" x="63.183594"/>
     <use xlink:href="#DejaVuSans-70" x="122.363281"/>
     <use xlink:href="#DejaVuSans-2e" x="185.839844"/>
     <use xlink:href="#DejaVuSans-20" x="217.626953"/>
     <use xlink:href="#DejaVuSans-64" x="249.414062"/>
     <use xlink:href="#DejaVuSans-61" x="312.890625"/>
     <use xlink:href="#DejaVuSans-74" x="374.169922"/>
     <use xlink:href="#DejaVuSans-61" x="413.378906"/>
    </g>
   </g>
  </g>
  <g id="axes_8">
   <g id="patch_23">
    <path d="M 286.355938 177.12 
L 388.8 177.12 
L 388.8 113.76 
L 286.355938 113.76 
z
" style="fill: #ffffff"/>
   </g>
   <g id="matplotlib.axis_15">
    <g id="xtick_29">
     <g id="line2d_59">
      <g>
       <use xlink:href="#m4d3ca39f72" x="291.012486" y="177.12" style="stroke: #000000; stroke-width: 0.8"/>
      </g>
     </g>
    </g>
    <g id="xtick_30">
     <g id="line2d_60">
      <g>
       <use xlink:href="#m4d3ca39f72" x="321.151957" y="177.12" style="stroke: #000000; stroke-width: 0.8"/>
      </g>
     </g>
    </g>
    <g id="xtick_31">
     <g id="line2d_61">
      <g>
       <use xlink:href="#m4d3ca39f72" x="351.291428" y="177.12" style="stroke: #000000; stroke-width: 0.8"/>
      </g>
     </g>
    </g>
    <g id="xtick_32">
     <g id="line2d_62">
      <g>
       <use xlink:href="#m4d3ca39f72" x="381.430899" y="177.12" style="stroke: #000000; stroke-width: 0.8"/>
      </g>
     </g>
    </g>
   </g>
   <g id="matplotlib.axis_16">
    <g id="ytick_17">
     <g id="line2d_63">
      <g>
       <use xlink:href="#m9c785dc7f1" x="286.355938" y="164.151488" style="stroke: #000000; stroke-width: 0.8"/>
      </g>
     </g>
    </g>
    <g id="ytick_18">
     <g id="line2d_64">
      <g>
       <use xlink:href="#m9c785dc7f1" x="286.355938" y="129.431831" style="stroke: #000000; stroke-width: 0.8"/>
      </g>
     </g>
    </g>
   </g>
   <g id="line2d_65">
    <path d="M 291.012486 164.151488 
L 296.738986 164.151488 
L 297.040381 129.431831 
L 314.822668 129.431831 
L 315.124063 164.151488 
L 326.878457 164.151488 
L 327.179852 129.431831 
L 341.948192 129.431831 
L 342.249587 164.151488 
L 347.976087 164.151488 
L 348.277481 129.431831 
L 357.017928 129.431831 
L 357.319323 164.151488 
L 369.073716 164.151488 
L 369.375111 129.431831 
L 384.143452 129.431831 
L 384.143452 129.431831 
" clip-path="url(#p64353ab700)" style="fill: none; stroke: #808080; stroke-linecap: square"/>
   </g>
   <g id="patch_24">
    <path d="M 286.355938 177.12 
L 286.355938 113.76 
" style="fill: none; stroke: #000000; stroke-width: 0.8; stroke-linejoin: miter; stroke-linecap: square"/>
   </g>
   <g id="patch_25">
    <path d="M 286.355938 177.12 
L 388.8 177.12 
" style="fill: none; stroke: #000000; stroke-width: 0.8; stroke-linejoin: miter; stroke-linecap: square"/>
   </g>
  </g>
  <g id="axes_9">
   <g id="patch_26">
    <path d="M 286.355938 256.32 
L 388.8 256.32 
L 388.8 192.96 
L 286.355938 192.96 
z
" style="fill: #ffffff"/>
   </g>
   <g id="matplotlib.axis_17">
    <g id="xtick_33">
     <g id="line2d_66">
      <g>
       <use xlink:href="#m4d3ca39f72" x="291.012486" y="256.32" style="stroke: #000000; stroke-width: 0.8"/>
      </g>
     </g>
     <g id="text_33">
      <!-- 0 -->
      <g transform="translate(288.467486 269.39875)scale(0.08 -0.08)">
       <use xlink:href="#DejaVuSans-30"/>
      </g>
     </g>
    </g>
    <g id="xtick_34">
     <g id="line2d_67">
      <g>
       <use xlink:href="#m4d3ca39f72" x="321.151957" y="256.32" style="stroke: #000000; stroke-width: 0.8"/>
      </g>
     </g>
     <g id="text_34">
      <!-- 100 -->
      <g transform="translate(313.516957 269.39875)scale(0.08 -0.08)">
       <use xlink:href="#DejaVuSans-31"/>
       <use xlink:href="#DejaVuSans-30" x="63.623047"/>
       <use xlink:href="#DejaVuSans-30" x="127.246094"/>
      </g>
     </g>
    </g>
    <g id="xtick_35">
     <g id="line2d_68">
      <g>
       <use xlink:href="#m4d3ca39f72" x="351.291428" y="256.32" style="stroke: #000000; stroke-width: 0.8"/>
      </g>
     </g>
     <g id="text_35">
      <!-- 200 -->
      <g transform="translate(343.656428 269.39875)scale(0.08 -0.08)">
       <use xlink:href="#DejaVuSans-32"/>
       <use xlink:href="#DejaVuSans-30" x="63.623047"/>
       <use xlink:href="#DejaVuSans-30" x="127.246094"/>
      </g>
     </g>
    </g>
    <g id="xtick_36">
     <g id="line2d_69">
      <g>
       <use xlink:href="#m4d3ca39f72" x="381.430899" y="256.32" style="stroke: #000000; stroke-width: 0.8"/>
      </g>
     </g>
     <g id="text_36">
      <!-- 300 -->
      <g transform="translate(373.795899 269.39875)scale(0.08 -0.08)">
       <use xlink:href="#DejaVuSans-33"/>
       <use xlink:href="#DejaVuSans-30" x="63.623047"/>
       <use xlink:href="#DejaVuSans-30" x="127.246094"/>
      </g>
     </g>
    </g>
    <g id="text_37">
     <!-- Trial -->
     <g transform="translate(329.406719 281.14125)scale(0.08 -0.08)">
      <use xlink:href="#DejaVuSans-54"/>
      <use xlink:href="#DejaVuSans-72" x="46.333984"/>
      <use xlink:href="#DejaVuSans-69" x="87.447266"/>
      <use xlink:href="#DejaVuSans-61" x="115.230469"/>
      <use xlink:href="#DejaVuSans-6c" x="176.509766"/>
     </g>
    </g>
   </g>
   <g id="matplotlib.axis_18">
    <g id="ytick_19">
     <g id="line2d_70">
      <g>
       <use xlink:href="#m9c785dc7f1" x="286.355938" y="239.179085" style="stroke: #000000; stroke-width: 0.8"/>
      </g>
     </g>
    </g>
    <g id="ytick_20">
     <g id="line2d_71">
      <g>
       <use xlink:href="#m9c785dc7f1" x="286.355938" y="212.746473" style="stroke: #000000; stroke-width: 0.8"/>
      </g>
     </g>
    </g>
   </g>
   <g id="line2d_72">
    <path d="M 291.012486 239.179085 
L 296.738986 239.179085 
L 297.040381 212.746473 
L 314.822668 212.746473 
L 315.124063 239.179085 
L 326.878457 239.179085 
L 327.179852 212.746473 
L 341.948192 212.746473 
L 342.249587 239.179085 
L 347.976087 239.179085 
L 348.277481 212.746473 
L 357.017928 212.746473 
L 357.319323 239.179085 
L 369.073716 239.179085 
L 369.375111 212.746473 
L 384.143452 212.746473 
L 384.143452 212.746473 
" clip-path="url(#p5248e946a2)" style="fill: none; stroke: #808080; stroke-linecap: square"/>
   </g>
   <g id="patch_27">
    <path d="M 286.355938 256.32 
L 286.355938 192.96 
" style="fill: none; stroke: #000000; stroke-width: 0.8; stroke-linejoin: miter; stroke-linecap: square"/>
   </g>
   <g id="patch_28">
    <path d="M 286.355938 256.32 
L 388.8 256.32 
" style="fill: none; stroke: #000000; stroke-width: 0.8; stroke-linejoin: miter; stroke-linecap: square"/>
   </g>
  </g>
 </g>
 <defs>
  <clipPath id="p98982dc46d">
   <rect x="54" y="34.56" width="102.444062" height="63.36"/>
  </clipPath>
  <clipPath id="p1e7a7e21db">
   <rect x="54" y="113.76" width="102.444062" height="63.36"/>
  </clipPath>
  <clipPath id="p57883cbfd1">
   <rect x="54" y="192.96" width="102.444062" height="63.36"/>
  </clipPath>
  <clipPath id="p24584258f6">
   <rect x="179.878141" y="34.56" width="102.444062" height="63.36"/>
  </clipPath>
  <clipPath id="p35181f6628">
   <rect x="179.878141" y="113.76" width="102.444062" height="63.36"/>
  </clipPath>
  <clipPath id="p8558172cdc">
   <rect x="179.878141" y="192.96" width="102.444062" height="63.36"/>
  </clipPath>
  <clipPath id="p76533f863c">
   <rect x="286.355938" y="34.56" width="102.444062" height="63.36"/>
  </clipPath>
  <clipPath id="p64353ab700">
   <rect x="286.355938" y="113.76" width="102.444062" height="63.36"/>
  </clipPath>
  <clipPath id="p5248e946a2">
   <rect x="286.355938" y="192.96" width="102.444062" height="63.36"/>
  </clipPath>
 </defs>
</svg>
