<?xml version="1.0" encoding="UTF-8" standalone="no"?>
<!-- Created with matplotlib (https://matplotlib.org/) -->

<svg
   height="216pt"
   version="1.1"
   viewBox="0 0 288 216"
   width="288pt"
   id="svg1164"
   sodipodi:docname="figure_4.svg"
   inkscape:version="1.1 (1:1.1+202105261517+ce6663b3b7)"
   inkscape:export-filename="/home/dario/Work/proj_glove/adaptation/article/figures/figure_4.png"
   inkscape:export-xdpi="600"
   inkscape:export-ydpi="600"
   xmlns:inkscape="http://www.inkscape.org/namespaces/inkscape"
   xmlns:sodipodi="http://sodipodi.sourceforge.net/DTD/sodipodi-0.dtd"
   xmlns:xlink="http://www.w3.org/1999/xlink"
   xmlns="http://www.w3.org/2000/svg"
   xmlns:svg="http://www.w3.org/2000/svg"
   xmlns:rdf="http://www.w3.org/1999/02/22-rdf-syntax-ns#"
   xmlns:cc="http://creativecommons.org/ns#"
   xmlns:dc="http://purl.org/dc/elements/1.1/">
  <sodipodi:namedview
     id="namedview1166"
     pagecolor="#ffffff"
     bordercolor="#666666"
     borderopacity="1.0"
     inkscape:pageshadow="2"
     inkscape:pageopacity="0.0"
     inkscape:pagecheckerboard="0"
     inkscape:document-units="pt"
     showgrid="false"
     inkscape:zoom="1.620453"
     inkscape:cx="86.704148"
     inkscape:cy="66.956584"
     inkscape:window-width="1920"
     inkscape:window-height="1023"
     inkscape:window-x="0"
     inkscape:window-y="0"
     inkscape:window-maximized="1"
     inkscape:current-layer="svg1164" />
  <metadata
     id="metadata724">
    <rdf:RDF>
      <cc:Work>
        <dc:type
           rdf:resource="http://purl.org/dc/dcmitype/StillImage" />
        <dc:date>2021-09-09T15:32:50.914656</dc:date>
        <dc:format>image/svg+xml</dc:format>
        <dc:creator>
          <cc:Agent>
            <dc:title>Matplotlib v3.3.4, https://matplotlib.org/</dc:title>
          </cc:Agent>
        </dc:creator>
      </cc:Work>
    </rdf:RDF>
  </metadata>
  <defs
     id="defs728">
    <style
       type="text/css"
       id="style726">*{stroke-linecap:butt;stroke-linejoin:round;}</style>
  </defs>
  <g
     id="figure_1">
    <g
       id="patch_1">
      <path
         d="M 0 216  L 288 216  L 288 0  L 0 0  z "
         style="fill:#ffffff;"
         id="path730" />
    </g>
    <g
       id="axes_1">
      <g
         id="patch_2">
        <path
           d="M 44.66 174.04  L 146.603636 174.04  L 146.603636 29.916  L 44.66 29.916  z "
           style="fill:#ffffff;"
           id="path733" />
      </g>
      <g
         id="PolyCollection_1">
        <path
           clip-path="url(#p0d52d133bf)"
           d="M -365.663136 164.284844  L -365.663136 164.284844  L -363.114545 89.037589  L -360.565955 86.777031  L -358.017364 92.739466  L -355.468773 100.951092  L -352.920182 109.47477  L -350.371591 124.440021  L -347.823 138.525957  L -345.274409 142.833863  L -342.725818 154.461359  L -340.177227 156.530633  L -337.628636 167.488909  L -335.080045 165.359542  L -332.531455 165.239753  L -329.982864 166.08746  L -327.434273 163.640882  L -324.885682 162.185281  L -322.337091 166.302609  L -319.7885 165.263133  L -317.239909 164.734298  L -314.691318 164.412837  L -312.142727 164.530992  L -309.594136 163.325741  L -307.045545 165.582706  L -304.496955 164.658295  L -301.948364 161.217238  L -299.399773 163.405429  L -296.851182 165.448272  L -294.302591 165.451277  L -291.754 163.127859  L -289.205409 162.394247  L -286.656818 163.418977  L -284.108227 163.863012  L -281.559636 161.112534  L -279.011045 160.928285  L -276.462455 161.268251  L -273.913864 161.448836  L -271.365273 162.891951  L -268.816682 161.057166  L -266.268091 161.253771  L -263.7195 159.039715  L -261.170909 161.623458  L -258.622318 163.037165  L -256.073727 161.494298  L -253.525136 163.877236  L -250.976545 161.45694  L -248.427955 161.998638  L -245.879364 164.183797  L -243.330773 159.698096  L -240.782182 162.449634  L -238.233591 161.268162  L -235.685 161.155948  L -233.136409 163.545101  L -230.587818 161.666663  L -228.039227 163.511471  L -225.490636 161.408237  L -222.942045 163.001366  L -220.393455 161.471475  L -217.844864 162.629315  L -215.296273 160.249454  L -212.747682 163.975512  L -210.199091 161.667871  L -207.6505 163.008753  L -205.101909 160.421791  L -202.553318 163.837389  L -200.004727 162.245442  L -197.456136 163.895989  L -194.907545 162.551539  L -192.358955 162.405915  L -189.810364 162.535416  L -187.261773 160.828747  L -184.713182 159.896077  L -182.164591 162.403922  L -179.616 165.321176  L -177.067409 162.47135  L -174.518818 163.101042  L -171.970227 159.956081  L -169.421636 162.09901  L -166.873045 162.140784  L -164.324455 162.629744  L -161.775864 162.500897  L -159.227273 163.955674  L -156.678682 162.125469  L -154.130091 162.905616  L -151.5815 162.896546  L -149.032909 164.567973  L -146.484318 163.36165  L -143.935727 163.041263  L -141.387136 163.320549  L -138.838545 165.123986  L -136.289955 163.00309  L -133.741364 161.278928  L -131.192773 162.572495  L -128.644182 162.993966  L -126.095591 160.457572  L -123.547 163.352373  L -120.998409 164.598208  L -118.449818 162.311537  L -115.901227 162.818512  L -113.352636 161.483047  L -110.804045 161.214714  L -108.255455 163.207778  L -105.706864 161.425515  L -103.158273 163.467122  L -100.609682 163.115224  L -98.061091 163.682292  L -95.5125 163.057321  L -92.963909 164.530377  L -90.415318 162.519936  L -87.866727 159.824872  L -85.318136 164.047595  L -82.769545 163.827753  L -80.220955 163.757011  L -77.672364 160.885591  L -75.123773 161.890069  L -72.575182 162.710525  L -70.026591 163.906053  L -67.478 162.15394  L -64.929409 162.054987  L -62.380818 162.873802  L -59.832227 161.907746  L -57.283636 158.512956  L -54.735045 162.860386  L -52.186455 164.119114  L -49.637864 163.011307  L -47.089273 160.059218  L -44.540682 162.687068  L -41.992091 163.439442  L -39.4435 162.570736  L -36.894909 163.52555  L -34.346318 160.787283  L -31.797727 163.619591  L -29.249136 163.661026  L -26.700545 161.642543  L -24.151955 161.578034  L -21.603364 165.341065  L -19.054773 162.891018  L -16.506182 162.48764  L -13.957591 163.35207  L -11.409 162.823498  L -8.860409 164.154911  L -6.311818 160.798453  L -3.763227 161.1736  L -1.214636 163.452976  L 1.333955 163.435281  L 3.882545 161.640745  L 6.431136 162.869784  L 8.979727 164.65338  L 11.528318 162.26312  L 14.076909 162.645053  L 16.6255 163.416675  L 19.174091 158.831289  L 21.722682 162.016612  L 24.271273 162.740918  L 26.819864 161.517584  L 29.368455 163.9686  L 31.917045 163.960255  L 34.465636 162.852132  L 37.014227 164.340248  L 39.562818 160.332848  L 42.111409 163.130322  L 44.66 72.254606  L 47.208591 80.538688  L 49.757182 74.214077  L 52.305773 88.350507  L 54.854364 101.101  L 57.402955 127.956764  L 59.951545 131.651551  L 62.500136 151.755203  L 65.048727 155.566685  L 67.597318 160.684813  L 70.145909 155.402832  L 72.6945 163.095279  L 75.243091 159.468908  L 77.791682 165.859838  L 80.340273 161.805432  L 82.888864 164.471486  L 85.437455 162.817525  L 87.986045 164.932989  L 90.534636 164.437277  L 93.083227 163.575365  L 95.631818 163.657393  L 98.180409 161.113979  L 100.729 162.53336  L 103.277591 160.855495  L 105.826182 163.136696  L 108.374773 161.810317  L 110.923364 164.211949  L 113.471955 162.937546  L 116.020545 162.391921  L 118.569136 162.179326  L 121.117727 163.327367  L 123.666318 162.943232  L 126.214909 163.309153  L 128.7635 160.045445  L 131.312091 163.071035  L 133.860682 163.957287  L 136.409273 160.771294  L 138.957864 164.035464  L 141.506455 162.79388  L 144.055045 162.131095  L 146.603636 162.550414  L 149.152227 164.570405  L 151.700818 162.356767  L 154.249409 161.034638  L 156.798 163.135505  L 159.346591 163.851439  L 161.895182 160.750035  L 164.443773 162.407334  L 166.992364 161.543532  L 169.540955 162.930723  L 172.089545 162.762932  L 174.638136 161.566859  L 177.186727 162.418719  L 179.735318 161.392873  L 182.283909 164.680521  L 184.8325 162.981459  L 187.381091 163.093094  L 189.929682 164.605121  L 192.478273 162.172498  L 195.026864 162.899936  L 197.575455 161.996272  L 200.124045 161.121658  L 202.672636 161.795927  L 205.221227 161.690213  L 207.769818 164.113366  L 210.318409 163.399243  L 212.867 159.59918  L 215.415591 162.84745  L 217.964182 162.550195  L 220.512773 163.182395  L 223.061364 162.675121  L 225.609955 165.262173  L 228.158545 161.290353  L 230.707136 162.492799  L 233.255727 164.484167  L 235.804318 164.293477  L 238.352909 162.923146  L 240.9015 163.189517  L 243.450091 163.77783  L 245.998682 163.79626  L 248.547273 161.285069  L 251.095864 160.531849  L 253.644455 161.181044  L 256.193045 162.233748  L 258.741636 163.657719  L 261.290227 163.069772  L 263.838818 161.686966  L 266.387409 164.820456  L 268.936 162.96432  L 271.484591 163.568679  L 274.033182 160.652395  L 276.581773 162.845181  L 279.130364 164.444747  L 281.678955 163.465961  L 284.227545 163.874817  L 286.776136 162.646185  L 289.324727 162.182492  L 291.873318 164.282388  L 294.421909 163.683005  L 296.9705 163.578517  L 299.519091 163.297536  L 302.067682 165.315448  L 304.616273 164.4367  L 307.164864 163.000537  L 309.713455 160.017376  L 312.262045 164.473589  L 314.810636 161.605476  L 317.359227 163.246421  L 319.907818 161.861024  L 322.456409 162.449661  L 325.005 163.815855  L 327.553591 164.750246  L 330.102182 162.829993  L 332.650773 158.245699  L 335.199364 162.038463  L 337.747955 161.757629  L 340.296545 161.937873  L 342.845136 164.25892  L 345.393727 163.839916  L 347.942318 160.496332  L 350.490909 162.945604  L 353.0395 162.772111  L 355.588091 160.13282  L 358.136682 161.288142  L 360.685273 164.197131  L 363.233864 161.203461  L 365.782455 162.798998  L 368.331045 160.678739  L 370.879636 163.270838  L 373.428227 162.260124  L 375.976818 164.711691  L 378.525409 164.428887  L 381.074 161.268962  L 383.622591 161.397034  L 386.171182 163.473699  L 388.719773 160.072812  L 391.268364 162.911576  L 393.816955 160.530202  L 396.365545 163.177086  L 398.914136 163.28488  L 401.462727 163.118075  L 404.011318 164.483062  L 406.559909 163.676332  L 409.1085 162.502453  L 411.657091 162.51511  L 414.205682 162.57884  L 416.754273 162.693475  L 419.302864 164.936958  L 421.851455 161.928556  L 424.400045 161.594752  L 426.948636 162.42454  L 429.497227 161.013112  L 432.045818 159.117769  L 434.594409 161.440867  L 437.143 161.351017  L 439.691591 165.453102  L 442.240182 161.603533  L 444.788773 163.222332  L 447.337364 163.368001  L 447.337364 153.758495  L 447.337364 153.758495  L 444.788773 151.910688  L 442.240182 156.365346  L 439.691591 150.582629  L 437.143 149.221144  L 434.594409 153.690518  L 432.045818 148.021248  L 429.497227 150.743034  L 426.948636 154.4129  L 424.400045 154.155562  L 421.851455 154.036959  L 419.302864 152.703382  L 416.754273 157.821399  L 414.205682 149.217908  L 411.657091 154.700333  L 409.1085 155.011926  L 406.559909 154.232336  L 404.011318 149.091954  L 401.462727 150.769868  L 398.914136 154.778396  L 396.365545 157.013935  L 393.816955 151.741188  L 391.268364 150.770515  L 388.719773 153.998555  L 386.171182 157.310941  L 383.622591 151.530439  L 381.074 152.583642  L 378.525409 155.069215  L 375.976818 151.147576  L 373.428227 153.981325  L 370.879636 155.847552  L 368.331045 153.499432  L 365.782455 148.031944  L 363.233864 154.97449  L 360.685273 156.768224  L 358.136682 153.006008  L 355.588091 152.783666  L 353.0395 154.605275  L 350.490909 157.863127  L 347.942318 151.894552  L 345.393727 153.105265  L 342.845136 149.930382  L 340.296545 152.436637  L 337.747955 156.005235  L 335.199364 150.997269  L 332.650773 152.385965  L 330.102182 157.712976  L 327.553591 151.886193  L 325.005 151.51093  L 322.456409 153.260175  L 319.907818 153.02647  L 317.359227 154.630854  L 314.810636 150.63263  L 312.262045 152.322218  L 309.713455 149.231286  L 307.164864 156.223982  L 304.616273 154.881095  L 302.067682 155.889546  L 299.519091 156.576256  L 296.9705 153.095508  L 294.421909 158.425318  L 291.873318 155.345486  L 289.324727 151.443129  L 286.776136 154.202203  L 284.227545 154.093172  L 281.678955 156.673533  L 279.130364 150.37199  L 276.581773 154.420544  L 274.033182 153.041148  L 271.484591 155.191267  L 268.936 147.831323  L 266.387409 153.53966  L 263.838818 153.397495  L 261.290227 148.994746  L 258.741636 156.757662  L 256.193045 151.491098  L 253.644455 152.65416  L 251.095864 150.524537  L 248.547273 152.34033  L 245.998682 153.157546  L 243.450091 157.236871  L 240.9015 153.804188  L 238.352909 154.300189  L 235.804318 153.382057  L 233.255727 153.161246  L 230.707136 154.896506  L 228.158545 155.955504  L 225.609955 152.27924  L 223.061364 150.500996  L 220.512773 153.46805  L 217.964182 155.019385  L 215.415591 150.501239  L 212.867 149.682522  L 210.318409 154.041309  L 207.769818 153.628699  L 205.221227 153.646262  L 202.672636 153.641879  L 200.124045 149.935243  L 197.575455 153.266013  L 195.026864 154.865192  L 192.478273 156.209562  L 189.929682 152.312375  L 187.381091 153.854457  L 184.8325 147.353082  L 182.283909 154.957219  L 179.735318 153.118307  L 177.186727 153.556437  L 174.638136 155.699637  L 172.089545 150.254243  L 169.540955 151.916183  L 166.992364 154.021293  L 164.443773 154.750549  L 161.895182 151.939161  L 159.346591 157.241844  L 156.798 149.128911  L 154.249409 156.708038  L 151.700818 153.777411  L 149.152227 150.154581  L 146.603636 154.364608  L 144.055045 148.611648  L 141.506455 152.612111  L 138.957864 156.54673  L 136.409273 152.431446  L 133.860682 155.834285  L 131.312091 155.927172  L 128.7635 154.536692  L 126.214909 156.914016  L 123.666318 154.40392  L 121.117727 152.261992  L 118.569136 153.498864  L 116.020545 156.097646  L 113.471955 155.959406  L 110.923364 156.044718  L 108.374773 150.884669  L 105.826182 154.784018  L 103.277591 152.841764  L 100.729 155.663023  L 98.180409 155.537879  L 95.631818 150.761978  L 93.083227 151.25769  L 90.534636 150.337856  L 87.986045 141.828175  L 85.437455 152.192775  L 82.888864 150.653418  L 80.340273 150.443493  L 77.791682 147.507996  L 75.243091 141.834839  L 72.6945 138.498842  L 70.145909 149.648274  L 67.597318 143.579801  L 65.048727 138.813421  L 62.500136 132.210091  L 59.951545 117.250542  L 57.402955 115.992639  L 54.854364 85.660978  L 52.305773 71.571492  L 49.757182 57.502226  L 47.208591 60.070773  L 44.66 49.858184  L 42.111409 153.637771  L 39.562818 154.447704  L 37.014227 155.410352  L 34.465636 153.176288  L 31.917045 154.941695  L 29.368455 156.71855  L 26.819864 155.004809  L 24.271273 154.333702  L 21.722682 153.363772  L 19.174091 149.795026  L 16.6255 153.065374  L 14.076909 152.251311  L 11.528318 153.631625  L 8.979727 158.426589  L 6.431136 155.636659  L 3.882545 154.315571  L 1.333955 157.130457  L -1.214636 159.423315  L -3.763227 152.655118  L -6.311818 149.637105  L -8.860409 154.153526  L -11.409 151.246251  L -13.957591 154.713423  L -16.506182 155.296994  L -19.054773 154.789866  L -21.603364 149.776503  L -24.151955 152.397398  L -26.700545 155.239176  L -29.249136 155.275623  L -31.797727 154.076933  L -34.346318 150.818258  L -36.894909 152.527445  L -39.4435 156.707207  L -41.992091 150.093421  L -44.540682 151.43674  L -47.089273 151.638204  L -49.637864 157.157885  L -52.186455 156.261744  L -54.735045 157.77422  L -57.283636 151.902318  L -59.832227 153.856729  L -62.380818 155.844414  L -64.929409 155.854778  L -67.478 156.490227  L -70.026591 156.060444  L -72.575182 153.142689  L -75.123773 152.039414  L -77.672364 151.06851  L -80.220955 152.409523  L -82.769545 143.58572  L -85.318136 154.353338  L -87.866727 152.73199  L -90.415318 153.663102  L -92.963909 157.199707  L -95.5125 153.168704  L -98.061091 152.137867  L -100.609682 151.407543  L -103.158273 153.548339  L -105.706864 153.861357  L -108.255455 148.947445  L -110.804045 151.165872  L -113.352636 152.146992  L -115.901227 158.026804  L -118.449818 153.690041  L -120.998409 150.983111  L -123.547 153.641548  L -126.095591 150.47308  L -128.644182 150.928719  L -131.192773 154.589406  L -133.741364 149.52782  L -136.289955 151.036501  L -138.838545 155.98228  L -141.387136 151.283158  L -143.935727 153.352247  L -146.484318 156.609057  L -149.032909 148.781238  L -151.5815 155.419969  L -154.130091 158.168164  L -156.678682 150.001255  L -159.227273 154.074431  L -161.775864 151.017702  L -164.324455 155.556745  L -166.873045 154.273019  L -169.421636 148.764249  L -171.970227 150.106276  L -174.518818 156.777086  L -177.067409 154.536601  L -179.616 154.027369  L -182.164591 152.243143  L -184.713182 151.416806  L -187.261773 148.514165  L -189.810364 156.052648  L -192.358955 152.792467  L -194.907545 148.816531  L -197.456136 154.434257  L -200.004727 156.491179  L -202.553318 153.06365  L -205.101909 153.82447  L -207.6505 153.122145  L -210.199091 150.89453  L -212.747682 150.176367  L -215.296273 151.288321  L -217.844864 155.023021  L -220.393455 152.604182  L -222.942045 152.9469  L -225.490636 149.490268  L -228.039227 157.661267  L -230.587818 155.550352  L -233.136409 153.156494  L -235.685 155.277276  L -238.233591 151.928388  L -240.782182 152.90812  L -243.330773 145.457681  L -245.879364 151.109956  L -248.427955 150.810546  L -250.976545 152.431846  L -253.525136 152.693633  L -256.073727 154.034372  L -258.622318 149.371007  L -261.170909 153.868006  L -263.7195 150.721945  L -266.268091 148.089232  L -268.816682 154.710711  L -271.365273 154.581814  L -273.913864 150.419197  L -276.462455 151.408353  L -279.011045 147.37283  L -281.559636 149.268391  L -284.108227 152.553972  L -286.656818 148.708116  L -289.205409 144.863149  L -291.754 152.412449  L -294.302591 148.028355  L -296.851182 142.778865  L -299.399773 149.109695  L -301.948364 146.65737  L -304.496955 146.143533  L -307.045545 137.440871  L -309.594136 140.457417  L -312.142727 141.586698  L -314.691318 142.074912  L -317.239909 142.792306  L -319.7885 140.311762  L -322.337091 146.14664  L -324.885682 139.635807  L -327.434273 133.665037  L -329.982864 146.215961  L -332.531455 137.565639  L -335.080045 142.320089  L -337.628636 137.116554  L -340.177227 137.999394  L -342.725818 129.440993  L -345.274409 125.585722  L -347.823 121.709287  L -350.371591 108.322769  L -352.920182 89.555099  L -355.468773 81.356444  L -358.017364 60.882593  L -360.565955 57.481446  L -363.114545 43.456931  L -365.663136 164.284844  z "
           style="fill:#5f6dd3;fill-opacity:0.2;stroke:#5f6dd3;stroke-opacity:0.2;"
           id="path736" />
      </g>
      <g
         id="PolyCollection_2">
        <path
           clip-path="url(#p0d52d133bf)"
           d="M -365.663136 164.284844  L -365.663136 164.284844  L -363.114545 70.346097  L -360.565955 68.624618  L -358.017364 73.359288  L -355.468773 93.817666  L -352.920182 120.463405  L -350.371591 146.739818  L -347.823 156.848812  L -345.274409 159.026086  L -342.725818 162.662282  L -340.177227 163.708378  L -337.628636 163.036023  L -335.080045 162.568219  L -332.531455 162.639332  L -329.982864 161.418232  L -327.434273 162.973519  L -324.885682 164.341944  L -322.337091 165.402738  L -319.7885 158.990311  L -317.239909 163.383617  L -314.691318 162.345427  L -312.142727 164.646606  L -309.594136 161.435307  L -307.045545 162.161909  L -304.496955 160.513471  L -301.948364 162.95293  L -299.399773 161.716354  L -296.851182 165.168398  L -294.302591 159.467808  L -291.754 162.860557  L -289.205409 162.819616  L -286.656818 161.547707  L -284.108227 162.37838  L -281.559636 159.225025  L -279.011045 163.099433  L -276.462455 164.12534  L -273.913864 161.752483  L -271.365273 161.308408  L -268.816682 160.896318  L -266.268091 162.19305  L -263.7195 161.938668  L -261.170909 162.336659  L -258.622318 161.177638  L -256.073727 162.467697  L -253.525136 161.603796  L -250.976545 161.650992  L -248.427955 162.393265  L -245.879364 161.630092  L -243.330773 164.106941  L -240.782182 160.940324  L -238.233591 163.240032  L -235.685 164.014997  L -233.136409 162.728321  L -230.587818 161.156199  L -228.039227 164.600478  L -225.490636 163.723078  L -222.942045 163.448015  L -220.393455 162.883963  L -217.844864 163.022486  L -215.296273 164.424149  L -212.747682 164.947885  L -210.199091 163.020732  L -207.6505 161.264158  L -205.101909 161.290916  L -202.553318 161.779148  L -200.004727 162.893185  L -197.456136 162.339574  L -194.907545 161.100741  L -192.358955 161.135363  L -189.810364 163.012238  L -187.261773 161.965924  L -184.713182 161.247027  L -182.164591 162.776406  L -179.616 162.670053  L -177.067409 163.703301  L -174.518818 163.641047  L -171.970227 161.46505  L -169.421636 162.530455  L -166.873045 163.129668  L -164.324455 163.90851  L -161.775864 165.108527  L -159.227273 161.364637  L -156.678682 161.066665  L -154.130091 164.4401  L -151.5815 162.558462  L -149.032909 161.645774  L -146.484318 162.184195  L -143.935727 163.316835  L -141.387136 160.712339  L -138.838545 160.9319  L -136.289955 162.034168  L -133.741364 162.191819  L -131.192773 163.570038  L -128.644182 161.582636  L -126.095591 162.717331  L -123.547 159.282404  L -120.998409 159.988158  L -118.449818 162.732993  L -115.901227 162.923817  L -113.352636 160.814065  L -110.804045 163.177841  L -108.255455 163.181381  L -105.706864 164.5803  L -103.158273 162.542825  L -100.609682 162.863142  L -98.061091 163.625592  L -95.5125 161.898533  L -92.963909 160.752929  L -90.415318 160.235107  L -87.866727 163.495084  L -85.318136 162.948458  L -82.769545 161.562647  L -80.220955 161.410163  L -77.672364 165.876282  L -75.123773 162.38296  L -72.575182 163.143119  L -70.026591 161.940315  L -67.478 158.471786  L -64.929409 164.119459  L -62.380818 165.073466  L -59.832227 163.209964  L -57.283636 162.74235  L -54.735045 162.120549  L -52.186455 160.89493  L -49.637864 159.144448  L -47.089273 162.767323  L -44.540682 164.033333  L -41.992091 163.087165  L -39.4435 164.112897  L -36.894909 162.870539  L -34.346318 163.827198  L -31.797727 162.621195  L -29.249136 162.864679  L -26.700545 162.497996  L -24.151955 163.526504  L -21.603364 162.102668  L -19.054773 161.958993  L -16.506182 161.591823  L -13.957591 165.043101  L -11.409 162.221914  L -8.860409 161.907176  L -6.311818 158.174178  L -3.763227 162.237916  L -1.214636 163.209348  L 1.333955 165.35094  L 3.882545 162.562328  L 6.431136 163.487378  L 8.979727 159.209415  L 11.528318 164.552895  L 14.076909 161.232843  L 16.6255 161.59445  L 19.174091 163.21263  L 21.722682 163.343707  L 24.271273 161.124812  L 26.819864 164.822808  L 29.368455 164.854406  L 31.917045 162.596245  L 34.465636 161.720136  L 37.014227 162.093985  L 39.562818 163.907127  L 42.111409 163.774541  L 44.66 69.221176  L 47.208591 68.700289  L 49.757182 77.5576  L 52.305773 94.772721  L 54.854364 112.127722  L 57.402955 132.663202  L 59.951545 146.841904  L 62.500136 160.215229  L 65.048727 165.351664  L 67.597318 160.606846  L 70.145909 163.067926  L 72.6945 162.130807  L 75.243091 164.673001  L 77.791682 159.547992  L 80.340273 163.009214  L 82.888864 162.605091  L 85.437455 164.060733  L 87.986045 165.651655  L 90.534636 165.052957  L 93.083227 159.311613  L 95.631818 162.673864  L 98.180409 163.37054  L 100.729 162.53498  L 103.277591 160.857921  L 105.826182 162.699103  L 108.374773 164.219828  L 110.923364 162.597132  L 113.471955 159.55554  L 116.020545 162.614004  L 118.569136 163.85571  L 121.117727 163.70077  L 123.666318 161.783875  L 126.214909 164.328565  L 128.7635 161.780943  L 131.312091 163.054724  L 133.860682 164.319311  L 136.409273 163.851668  L 138.957864 162.283173  L 141.506455 163.414114  L 144.055045 163.456926  L 146.603636 163.979662  L 149.152227 164.388536  L 151.700818 161.750228  L 154.249409 162.29808  L 156.798 161.817677  L 159.346591 160.651331  L 161.895182 162.615056  L 164.443773 162.136824  L 166.992364 163.005904  L 169.540955 163.633939  L 172.089545 163.613333  L 174.638136 162.159542  L 177.186727 162.354199  L 179.735318 164.698323  L 182.283909 163.861729  L 184.8325 162.704215  L 187.381091 161.373161  L 189.929682 163.252933  L 192.478273 164.438616  L 195.026864 161.252986  L 197.575455 163.092466  L 200.124045 161.70704  L 202.672636 163.257798  L 205.221227 162.993641  L 207.769818 163.183669  L 210.318409 162.63153  L 212.867 163.944248  L 215.415591 164.562851  L 217.964182 162.964128  L 220.512773 162.802057  L 223.061364 162.735693  L 225.609955 162.515472  L 228.158545 164.254072  L 230.707136 161.789308  L 233.255727 163.345655  L 235.804318 161.020757  L 238.352909 161.705664  L 240.9015 162.7932  L 243.450091 163.027066  L 245.998682 163.865293  L 248.547273 162.762575  L 251.095864 163.359762  L 253.644455 161.587788  L 256.193045 162.773225  L 258.741636 163.903791  L 261.290227 162.675746  L 263.838818 163.236342  L 266.387409 162.979057  L 268.936 164.80859  L 271.484591 163.073977  L 274.033182 164.863543  L 276.581773 162.794905  L 279.130364 162.871519  L 281.678955 161.851242  L 284.227545 161.148378  L 286.776136 162.980108  L 289.324727 163.041235  L 291.873318 163.374555  L 294.421909 162.391863  L 296.9705 162.342628  L 299.519091 159.789204  L 302.067682 162.522323  L 304.616273 161.684373  L 307.164864 163.834314  L 309.713455 164.0728  L 312.262045 161.494704  L 314.810636 163.670125  L 317.359227 163.178545  L 319.907818 163.853155  L 322.456409 164.28143  L 325.005 162.897488  L 327.553591 162.079379  L 330.102182 163.49491  L 332.650773 164.355381  L 335.199364 161.532102  L 337.747955 161.445131  L 340.296545 162.776572  L 342.845136 165.709457  L 345.393727 161.096319  L 347.942318 164.468237  L 350.490909 164.163172  L 353.0395 163.48583  L 355.588091 162.498958  L 358.136682 161.660566  L 360.685273 164.539766  L 363.233864 163.295733  L 365.782455 161.589044  L 368.331045 164.177759  L 370.879636 162.414924  L 373.428227 161.621408  L 375.976818 163.524019  L 378.525409 165.031412  L 381.074 161.770959  L 383.622591 162.434298  L 386.171182 160.513922  L 388.719773 163.729727  L 391.268364 161.153868  L 393.816955 163.40592  L 396.365545 163.800791  L 398.914136 163.075087  L 401.462727 163.190225  L 404.011318 162.750559  L 406.559909 161.991197  L 409.1085 161.546482  L 411.657091 163.292098  L 414.205682 161.716788  L 416.754273 163.370079  L 419.302864 161.130789  L 421.851455 162.11585  L 424.400045 163.49236  L 426.948636 162.577589  L 429.497227 163.808826  L 432.045818 161.73166  L 434.594409 161.314294  L 437.143 162.443637  L 439.691591 164.459083  L 442.240182 163.082319  L 444.788773 163.834697  L 447.337364 162.313582  L 447.337364 153.787184  L 447.337364 153.787184  L 444.788773 157.943457  L 442.240182 152.498697  L 439.691591 155.633883  L 437.143 157.049994  L 434.594409 155.46894  L 432.045818 150.454721  L 429.497227 156.127684  L 426.948636 156.868939  L 424.400045 159.179924  L 421.851455 157.187172  L 419.302864 153.466389  L 416.754273 156.365921  L 414.205682 154.515696  L 411.657091 152.616876  L 409.1085 156.465308  L 406.559909 155.612121  L 404.011318 154.843484  L 401.462727 151.843151  L 398.914136 155.914286  L 396.365545 149.476761  L 393.816955 156.676358  L 391.268364 155.997392  L 388.719773 154.517501  L 386.171182 154.083374  L 383.622591 156.662876  L 381.074 151.962813  L 378.525409 153.834504  L 375.976818 156.214098  L 373.428227 157.692575  L 370.879636 155.97839  L 368.331045 154.258938  L 365.782455 155.015664  L 363.233864 159.013244  L 360.685273 157.511468  L 358.136682 153.808575  L 355.588091 156.740614  L 353.0395 159.226744  L 350.490909 155.719828  L 347.942318 153.878691  L 345.393727 152.769067  L 342.845136 150.335058  L 340.296545 156.054204  L 337.747955 152.389821  L 335.199364 152.235511  L 332.650773 156.803374  L 330.102182 150.15141  L 327.553591 153.611837  L 325.005 156.934213  L 322.456409 154.439566  L 319.907818 154.442135  L 317.359227 153.130451  L 314.810636 151.984848  L 312.262045 151.098571  L 309.713455 150.639145  L 307.164864 158.679363  L 304.616273 150.832595  L 302.067682 152.097004  L 299.519091 151.011703  L 296.9705 152.259484  L 294.421909 155.422203  L 291.873318 153.283524  L 289.324727 155.368897  L 286.776136 155.633619  L 284.227545 155.358663  L 281.678955 151.580886  L 279.130364 155.108255  L 276.581773 153.246091  L 274.033182 157.587465  L 271.484591 150.863996  L 268.936 155.395645  L 266.387409 155.799134  L 263.838818 156.946748  L 261.290227 157.987141  L 258.741636 155.307046  L 256.193045 155.212763  L 253.644455 152.706958  L 251.095864 152.924813  L 248.547273 157.172316  L 245.998682 153.105206  L 243.450091 156.956655  L 240.9015 157.596897  L 238.352909 154.50795  L 235.804318 155.351429  L 233.255727 158.039358  L 230.707136 156.795632  L 228.158545 156.640808  L 225.609955 158.056378  L 223.061364 154.775069  L 220.512773 155.29766  L 217.964182 155.629602  L 215.415591 151.85246  L 212.867 154.225935  L 210.318409 154.59302  L 207.769818 157.690454  L 205.221227 149.372673  L 202.672636 156.666179  L 200.124045 151.080798  L 197.575455 157.567393  L 195.026864 151.921092  L 192.478273 157.365284  L 189.929682 153.541908  L 187.381091 157.809708  L 184.8325 154.149655  L 182.283909 154.59094  L 179.735318 156.113787  L 177.186727 154.565224  L 174.638136 155.438468  L 172.089545 149.695014  L 169.540955 155.457774  L 166.992364 156.39031  L 164.443773 155.568046  L 161.895182 154.04958  L 159.346591 152.76648  L 156.798 155.648233  L 154.249409 155.961022  L 151.700818 154.567904  L 149.152227 152.492364  L 146.603636 156.076771  L 144.055045 155.881358  L 141.506455 155.398262  L 138.957864 157.264616  L 136.409273 152.446953  L 133.860682 153.273015  L 131.312091 158.518449  L 128.7635 153.461787  L 126.214909 155.280742  L 123.666318 156.013896  L 121.117727 158.085418  L 118.569136 151.398616  L 116.020545 156.178417  L 113.471955 153.687524  L 110.923364 153.525927  L 108.374773 156.590001  L 105.826182 158.2731  L 103.277591 149.77523  L 100.729 151.718856  L 98.180409 150.481546  L 95.631818 156.082099  L 93.083227 153.345007  L 90.534636 150.862226  L 87.986045 153.679532  L 85.437455 151.066126  L 82.888864 154.391107  L 80.340273 154.349449  L 77.791682 152.441198  L 75.243091 150.391147  L 72.6945 149.949618  L 70.145909 156.355558  L 67.597318 150.594565  L 65.048727 154.518014  L 62.500136 150.233106  L 59.951545 136.257859  L 57.402955 116.061361  L 54.854364 99.258239  L 52.305773 82.236728  L 49.757182 72.818263  L 47.208591 52.071087  L 44.66 55.169555  L 42.111409 158.836842  L 39.562818 153.305695  L 37.014227 154.502574  L 34.465636 150.874699  L 31.917045 154.717877  L 29.368455 151.857103  L 26.819864 154.788621  L 24.271273 156.062563  L 21.722682 157.727138  L 19.174091 155.001104  L 16.6255 153.907607  L 14.076909 151.901526  L 11.528318 151.450355  L 8.979727 144.828463  L 6.431136 151.523599  L 3.882545 155.246331  L 1.333955 155.583679  L -1.214636 155.96829  L -3.763227 152.510157  L -6.311818 153.472018  L -8.860409 153.359032  L -11.409 154.487547  L -13.957591 153.138361  L -16.506182 156.086196  L -19.054773 150.164865  L -21.603364 156.486007  L -24.151955 157.067814  L -26.700545 155.264292  L -29.249136 152.609807  L -31.797727 154.031389  L -34.346318 156.801489  L -36.894909 156.533211  L -39.4435 157.495145  L -41.992091 157.564339  L -44.540682 147.973843  L -47.089273 159.137419  L -49.637864 153.818457  L -52.186455 152.047185  L -54.735045 151.220417  L -57.283636 154.352278  L -59.832227 158.222323  L -62.380818 152.619392  L -64.929409 157.827903  L -67.478 155.102074  L -70.026591 149.492079  L -72.575182 154.712464  L -75.123773 154.164384  L -77.672364 156.478887  L -80.220955 153.157568  L -82.769545 150.967893  L -85.318136 155.693588  L -87.866727 150.741037  L -90.415318 147.740215  L -92.963909 150.924044  L -95.5125 155.326874  L -98.061091 157.467873  L -100.609682 151.70375  L -103.158273 158.54814  L -105.706864 156.536984  L -108.255455 152.417081  L -110.804045 155.712617  L -113.352636 150.784753  L -115.901227 150.8906  L -118.449818 149.867624  L -120.998409 150.331011  L -123.547 152.533737  L -126.095591 156.035256  L -128.644182 152.473253  L -131.192773 150.640641  L -133.741364 154.370198  L -136.289955 152.57556  L -138.838545 150.964707  L -141.387136 154.993553  L -143.935727 156.407744  L -146.484318 154.660864  L -149.032909 151.764513  L -151.5815 154.453311  L -154.130091 152.991141  L -156.678682 152.653343  L -159.227273 153.783942  L -161.775864 153.777842  L -164.324455 152.217361  L -166.873045 155.133593  L -169.421636 154.883698  L -171.970227 153.835643  L -174.518818 155.853061  L -177.067409 156.235493  L -179.616 155.487514  L -182.164591 157.067991  L -184.713182 152.345006  L -187.261773 155.458298  L -189.810364 149.821003  L -192.358955 154.202356  L -194.907545 151.013878  L -197.456136 157.84629  L -200.004727 153.765221  L -202.553318 154.852229  L -205.101909 148.409388  L -207.6505 154.429384  L -210.199091 154.251715  L -212.747682 152.815579  L -215.296273 157.599616  L -217.844864 148.578068  L -220.393455 151.797833  L -222.942045 157.079997  L -225.490636 155.642781  L -228.039227 149.963906  L -230.587818 153.821397  L -233.136409 151.526906  L -235.685 154.170886  L -238.233591 156.532576  L -240.782182 148.066516  L -243.330773 155.997506  L -245.879364 150.284774  L -248.427955 153.979375  L -250.976545 151.988731  L -253.525136 154.559595  L -256.073727 153.880836  L -258.622318 154.678631  L -261.170909 155.975874  L -263.7195 156.531612  L -266.268091 155.859317  L -268.816682 153.407991  L -271.365273 156.000577  L -273.913864 150.324971  L -276.462455 155.405312  L -279.011045 154.994981  L -281.559636 153.300761  L -284.108227 154.937093  L -286.656818 149.642364  L -289.205409 155.096887  L -291.754 153.92288  L -294.302591 150.09474  L -296.851182 152.926385  L -299.399773 152.126797  L -301.948364 156.951491  L -304.496955 155.839288  L -307.045545 153.617433  L -309.594136 153.962048  L -312.142727 153.159793  L -314.691318 145.247229  L -317.239909 153.819375  L -319.7885 151.105898  L -322.337091 152.222632  L -324.885682 156.404391  L -327.434273 149.240642  L -329.982864 152.874285  L -332.531455 154.317254  L -335.080045 151.556792  L -337.628636 151.341858  L -340.177227 153.77142  L -342.725818 152.065225  L -345.274409 145.818657  L -347.823 146.616804  L -350.371591 131.140485  L -352.920182 110.32633  L -355.468773 82.476852  L -358.017364 62.815463  L -360.565955 49.304876  L -363.114545 36.467091  L -365.663136 164.284844  z "
           style="fill:#d3c55f;fill-opacity:0.2;stroke:#d3c55f;stroke-opacity:0.2;"
           id="path739" />
      </g>
      <g
         id="matplotlib.axis_1">
        <g
           id="xtick_1">
          <g
             id="line2d_1">
            <defs
               id="defs743">
              <path
                 d="M 0 0  L 0 3.5  "
                 id="m3037b6ffc7"
                 style="stroke:#000000;stroke-width:0.8;" />
            </defs>
            <g
               id="g747">
              <use
                 style="stroke:#000000;stroke-width:0.8;"
                 x="93.083227"
                 xlink:href="#m3037b6ffc7"
                 y="174.04"
                 id="use745" />
            </g>
          </g>
          <g
             id="text_1">
            <!-- 20 -->
            <g
               transform="translate(86.720727 188.638438)scale(0.1 -0.1)"
               id="g758">
              <defs
                 id="defs752">
                <path
                   d="M 19.1875 8.296875  L 53.609375 8.296875  L 53.609375 0  L 7.328125 0  L 7.328125 8.296875  Q 12.9375 14.109375 22.625 23.890625  Q 32.328125 33.6875 34.8125 36.53125  Q 39.546875 41.84375 41.421875 45.53125  Q 43.3125 49.21875 43.3125 52.78125  Q 43.3125 58.59375 39.234375 62.25  Q 35.15625 65.921875 28.609375 65.921875  Q 23.96875 65.921875 18.8125 64.3125  Q 13.671875 62.703125 7.8125 59.421875  L 7.8125 69.390625  Q 13.765625 71.78125 18.9375 73  Q 24.125 74.21875 28.421875 74.21875  Q 39.75 74.21875 46.484375 68.546875  Q 53.21875 62.890625 53.21875 53.421875  Q 53.21875 48.921875 51.53125 44.890625  Q 49.859375 40.875 45.40625 35.40625  Q 44.1875 33.984375 37.640625 27.21875  Q 31.109375 20.453125 19.1875 8.296875  z "
                   id="DejaVuSans-50" />
                <path
                   d="M 31.78125 66.40625  Q 24.171875 66.40625 20.328125 58.90625  Q 16.5 51.421875 16.5 36.375  Q 16.5 21.390625 20.328125 13.890625  Q 24.171875 6.390625 31.78125 6.390625  Q 39.453125 6.390625 43.28125 13.890625  Q 47.125 21.390625 47.125 36.375  Q 47.125 51.421875 43.28125 58.90625  Q 39.453125 66.40625 31.78125 66.40625  z M 31.78125 74.21875  Q 44.046875 74.21875 50.515625 64.515625  Q 56.984375 54.828125 56.984375 36.375  Q 56.984375 17.96875 50.515625 8.265625  Q 44.046875 -1.421875 31.78125 -1.421875  Q 19.53125 -1.421875 13.0625 8.265625  Q 6.59375 17.96875 6.59375 36.375  Q 6.59375 54.828125 13.0625 64.515625  Q 19.53125 74.21875 31.78125 74.21875  z "
                   id="DejaVuSans-48" />
              </defs>
              <use
                 xlink:href="#DejaVuSans-50"
                 id="use754" />
              <use
                 x="63.623047"
                 xlink:href="#DejaVuSans-48"
                 id="use756" />
            </g>
          </g>
        </g>
        <g
           id="xtick_2">
          <g
             id="line2d_2">
            <g
               id="g764">
              <use
                 style="stroke:#000000;stroke-width:0.8;"
                 x="144.055045"
                 xlink:href="#m3037b6ffc7"
                 y="174.04"
                 id="use762" />
            </g>
          </g>
          <g
             id="text_2">
            <!-- 40 -->
            <g
               transform="translate(137.692545 188.638438)scale(0.1 -0.1)"
               id="g774">
              <defs
                 id="defs768">
                <path
                   d="M 37.796875 64.3125  L 12.890625 25.390625  L 37.796875 25.390625  z M 35.203125 72.90625  L 47.609375 72.90625  L 47.609375 25.390625  L 58.015625 25.390625  L 58.015625 17.1875  L 47.609375 17.1875  L 47.609375 0  L 37.796875 0  L 37.796875 17.1875  L 4.890625 17.1875  L 4.890625 26.703125  z "
                   id="DejaVuSans-52" />
              </defs>
              <use
                 xlink:href="#DejaVuSans-52"
                 id="use770" />
              <use
                 x="63.623047"
                 xlink:href="#DejaVuSans-48"
                 id="use772" />
            </g>
          </g>
        </g>
        <g
           id="text_3">
          <!-- Trials after switch -->
          <g
             transform="translate(51.845099 202.316563)scale(0.1 -0.1)"
             id="g831">
            <defs
               id="defs791">
              <path
                 d="M -0.296875 72.90625  L 61.375 72.90625  L 61.375 64.59375  L 35.5 64.59375  L 35.5 0  L 25.59375 0  L 25.59375 64.59375  L -0.296875 64.59375  z "
                 id="DejaVuSans-84" />
              <path
                 d="M 41.109375 46.296875  Q 39.59375 47.171875 37.8125 47.578125  Q 36.03125 48 33.890625 48  Q 26.265625 48 22.1875 43.046875  Q 18.109375 38.09375 18.109375 28.8125  L 18.109375 0  L 9.078125 0  L 9.078125 54.6875  L 18.109375 54.6875  L 18.109375 46.1875  Q 20.953125 51.171875 25.484375 53.578125  Q 30.03125 56 36.53125 56  Q 37.453125 56 38.578125 55.875  Q 39.703125 55.765625 41.0625 55.515625  z "
                 id="DejaVuSans-114" />
              <path
                 d="M 9.421875 54.6875  L 18.40625 54.6875  L 18.40625 0  L 9.421875 0  z M 9.421875 75.984375  L 18.40625 75.984375  L 18.40625 64.59375  L 9.421875 64.59375  z "
                 id="DejaVuSans-105" />
              <path
                 d="M 34.28125 27.484375  Q 23.390625 27.484375 19.1875 25  Q 14.984375 22.515625 14.984375 16.5  Q 14.984375 11.71875 18.140625 8.90625  Q 21.296875 6.109375 26.703125 6.109375  Q 34.1875 6.109375 38.703125 11.40625  Q 43.21875 16.703125 43.21875 25.484375  L 43.21875 27.484375  z M 52.203125 31.203125  L 52.203125 0  L 43.21875 0  L 43.21875 8.296875  Q 40.140625 3.328125 35.546875 0.953125  Q 30.953125 -1.421875 24.3125 -1.421875  Q 15.921875 -1.421875 10.953125 3.296875  Q 6 8.015625 6 15.921875  Q 6 25.140625 12.171875 29.828125  Q 18.359375 34.515625 30.609375 34.515625  L 43.21875 34.515625  L 43.21875 35.40625  Q 43.21875 41.609375 39.140625 45  Q 35.0625 48.390625 27.6875 48.390625  Q 23 48.390625 18.546875 47.265625  Q 14.109375 46.140625 10.015625 43.890625  L 10.015625 52.203125  Q 14.9375 54.109375 19.578125 55.046875  Q 24.21875 56 28.609375 56  Q 40.484375 56 46.34375 49.84375  Q 52.203125 43.703125 52.203125 31.203125  z "
                 id="DejaVuSans-97" />
              <path
                 d="M 9.421875 75.984375  L 18.40625 75.984375  L 18.40625 0  L 9.421875 0  z "
                 id="DejaVuSans-108" />
              <path
                 d="M 44.28125 53.078125  L 44.28125 44.578125  Q 40.484375 46.53125 36.375 47.5  Q 32.28125 48.484375 27.875 48.484375  Q 21.1875 48.484375 17.84375 46.4375  Q 14.5 44.390625 14.5 40.28125  Q 14.5 37.15625 16.890625 35.375  Q 19.28125 33.59375 26.515625 31.984375  L 29.59375 31.296875  Q 39.15625 29.25 43.1875 25.515625  Q 47.21875 21.78125 47.21875 15.09375  Q 47.21875 7.46875 41.1875 3.015625  Q 35.15625 -1.421875 24.609375 -1.421875  Q 20.21875 -1.421875 15.453125 -0.5625  Q 10.6875 0.296875 5.421875 2  L 5.421875 11.28125  Q 10.40625 8.6875 15.234375 7.390625  Q 20.0625 6.109375 24.8125 6.109375  Q 31.15625 6.109375 34.5625 8.28125  Q 37.984375 10.453125 37.984375 14.40625  Q 37.984375 18.0625 35.515625 20.015625  Q 33.0625 21.96875 24.703125 23.78125  L 21.578125 24.515625  Q 13.234375 26.265625 9.515625 29.90625  Q 5.8125 33.546875 5.8125 39.890625  Q 5.8125 47.609375 11.28125 51.796875  Q 16.75 56 26.8125 56  Q 31.78125 56 36.171875 55.265625  Q 40.578125 54.546875 44.28125 53.078125  z "
                 id="DejaVuSans-115" />
              <path
                 id="DejaVuSans-32" />
              <path
                 d="M 37.109375 75.984375  L 37.109375 68.5  L 28.515625 68.5  Q 23.6875 68.5 21.796875 66.546875  Q 19.921875 64.59375 19.921875 59.515625  L 19.921875 54.6875  L 34.71875 54.6875  L 34.71875 47.703125  L 19.921875 47.703125  L 19.921875 0  L 10.890625 0  L 10.890625 47.703125  L 2.296875 47.703125  L 2.296875 54.6875  L 10.890625 54.6875  L 10.890625 58.5  Q 10.890625 67.625 15.140625 71.796875  Q 19.390625 75.984375 28.609375 75.984375  z "
                 id="DejaVuSans-102" />
              <path
                 d="M 18.3125 70.21875  L 18.3125 54.6875  L 36.8125 54.6875  L 36.8125 47.703125  L 18.3125 47.703125  L 18.3125 18.015625  Q 18.3125 11.328125 20.140625 9.421875  Q 21.96875 7.515625 27.59375 7.515625  L 36.8125 7.515625  L 36.8125 0  L 27.59375 0  Q 17.1875 0 13.234375 3.875  Q 9.28125 7.765625 9.28125 18.015625  L 9.28125 47.703125  L 2.6875 47.703125  L 2.6875 54.6875  L 9.28125 54.6875  L 9.28125 70.21875  z "
                 id="DejaVuSans-116" />
              <path
                 d="M 56.203125 29.59375  L 56.203125 25.203125  L 14.890625 25.203125  Q 15.484375 15.921875 20.484375 11.0625  Q 25.484375 6.203125 34.421875 6.203125  Q 39.59375 6.203125 44.453125 7.46875  Q 49.3125 8.734375 54.109375 11.28125  L 54.109375 2.78125  Q 49.265625 0.734375 44.1875 -0.34375  Q 39.109375 -1.421875 33.890625 -1.421875  Q 20.796875 -1.421875 13.15625 6.1875  Q 5.515625 13.8125 5.515625 26.8125  Q 5.515625 40.234375 12.765625 48.109375  Q 20.015625 56 32.328125 56  Q 43.359375 56 49.78125 48.890625  Q 56.203125 41.796875 56.203125 29.59375  z M 47.21875 32.234375  Q 47.125 39.59375 43.09375 43.984375  Q 39.0625 48.390625 32.421875 48.390625  Q 24.90625 48.390625 20.390625 44.140625  Q 15.875 39.890625 15.1875 32.171875  z "
                 id="DejaVuSans-101" />
              <path
                 d="M 4.203125 54.6875  L 13.1875 54.6875  L 24.421875 12.015625  L 35.59375 54.6875  L 46.1875 54.6875  L 57.421875 12.015625  L 68.609375 54.6875  L 77.59375 54.6875  L 63.28125 0  L 52.6875 0  L 40.921875 44.828125  L 29.109375 0  L 18.5 0  z "
                 id="DejaVuSans-119" />
              <path
                 d="M 48.78125 52.59375  L 48.78125 44.1875  Q 44.96875 46.296875 41.140625 47.34375  Q 37.3125 48.390625 33.40625 48.390625  Q 24.65625 48.390625 19.8125 42.84375  Q 14.984375 37.3125 14.984375 27.296875  Q 14.984375 17.28125 19.8125 11.734375  Q 24.65625 6.203125 33.40625 6.203125  Q 37.3125 6.203125 41.140625 7.25  Q 44.96875 8.296875 48.78125 10.40625  L 48.78125 2.09375  Q 45.015625 0.34375 40.984375 -0.53125  Q 36.96875 -1.421875 32.421875 -1.421875  Q 20.0625 -1.421875 12.78125 6.34375  Q 5.515625 14.109375 5.515625 27.296875  Q 5.515625 40.671875 12.859375 48.328125  Q 20.21875 56 33.015625 56  Q 37.15625 56 41.109375 55.140625  Q 45.0625 54.296875 48.78125 52.59375  z "
                 id="DejaVuSans-99" />
              <path
                 d="M 54.890625 33.015625  L 54.890625 0  L 45.90625 0  L 45.90625 32.71875  Q 45.90625 40.484375 42.875 44.328125  Q 39.84375 48.1875 33.796875 48.1875  Q 26.515625 48.1875 22.3125 43.546875  Q 18.109375 38.921875 18.109375 30.90625  L 18.109375 0  L 9.078125 0  L 9.078125 75.984375  L 18.109375 75.984375  L 18.109375 46.1875  Q 21.34375 51.125 25.703125 53.5625  Q 30.078125 56 35.796875 56  Q 45.21875 56 50.046875 50.171875  Q 54.890625 44.34375 54.890625 33.015625  z "
                 id="DejaVuSans-104" />
            </defs>
            <use
               xlink:href="#DejaVuSans-84"
               id="use793" />
            <use
               x="46.333984"
               xlink:href="#DejaVuSans-114"
               id="use795" />
            <use
               x="87.447266"
               xlink:href="#DejaVuSans-105"
               id="use797" />
            <use
               x="115.230469"
               xlink:href="#DejaVuSans-97"
               id="use799" />
            <use
               x="176.509766"
               xlink:href="#DejaVuSans-108"
               id="use801" />
            <use
               x="204.292969"
               xlink:href="#DejaVuSans-115"
               id="use803" />
            <use
               x="256.392578"
               xlink:href="#DejaVuSans-32"
               id="use805" />
            <use
               x="288.179688"
               xlink:href="#DejaVuSans-97"
               id="use807" />
            <use
               x="349.458984"
               xlink:href="#DejaVuSans-102"
               id="use809" />
            <use
               x="382.914062"
               xlink:href="#DejaVuSans-116"
               id="use811" />
            <use
               x="422.123047"
               xlink:href="#DejaVuSans-101"
               id="use813" />
            <use
               x="483.646484"
               xlink:href="#DejaVuSans-114"
               id="use815" />
            <use
               x="524.759766"
               xlink:href="#DejaVuSans-32"
               id="use817" />
            <use
               x="556.546875"
               xlink:href="#DejaVuSans-115"
               id="use819" />
            <use
               x="608.646484"
               xlink:href="#DejaVuSans-119"
               id="use821" />
            <use
               x="690.433594"
               xlink:href="#DejaVuSans-105"
               id="use823" />
            <use
               x="718.216797"
               xlink:href="#DejaVuSans-116"
               id="use825" />
            <use
               x="757.425781"
               xlink:href="#DejaVuSans-99"
               id="use827" />
            <use
               x="812.40625"
               xlink:href="#DejaVuSans-104"
               id="use829" />
          </g>
        </g>
      </g>
      <g
         id="matplotlib.axis_2">
        <g
           id="ytick_1">
          <g
             id="line2d_3">
            <defs
               id="defs836">
              <path
                 d="M 0 0  L -3.5 0  "
                 id="m1d9cb4037a"
                 style="stroke:#000000;stroke-width:0.8;" />
            </defs>
            <g
               id="g840">
              <use
                 style="stroke:#000000;stroke-width:0.8;"
                 x="44.66"
                 xlink:href="#m1d9cb4037a"
                 y="164.284844"
                 id="use838" />
            </g>
          </g>
          <g
             id="text_4">
            <!-- 0 -->
            <g
               transform="translate(31.2975 168.084063)scale(0.1 -0.1)"
               id="g845">
              <use
                 xlink:href="#DejaVuSans-48"
                 id="use843" />
            </g>
          </g>
        </g>
        <g
           id="ytick_2">
          <g
             id="line2d_4">
            <g
               id="g851">
              <use
                 style="stroke:#000000;stroke-width:0.8;"
                 x="44.66"
                 xlink:href="#m1d9cb4037a"
                 y="137.529246"
                 id="use849" />
            </g>
          </g>
          <g
             id="text_5">
            <!-- 2 -->
            <g
               transform="translate(31.2975 141.328465)scale(0.1 -0.1)"
               id="g856">
              <use
                 xlink:href="#DejaVuSans-50"
                 id="use854" />
            </g>
          </g>
        </g>
        <g
           id="ytick_3">
          <g
             id="line2d_5">
            <g
               id="g862">
              <use
                 style="stroke:#000000;stroke-width:0.8;"
                 x="44.66"
                 xlink:href="#m1d9cb4037a"
                 y="110.773648"
                 id="use860" />
            </g>
          </g>
          <g
             id="text_6">
            <!-- 4 -->
            <g
               transform="translate(31.2975 114.572866)scale(0.1 -0.1)"
               id="g867">
              <use
                 xlink:href="#DejaVuSans-52"
                 id="use865" />
            </g>
          </g>
        </g>
        <g
           id="ytick_4">
          <g
             id="line2d_6">
            <g
               id="g873">
              <use
                 style="stroke:#000000;stroke-width:0.8;"
                 x="44.66"
                 xlink:href="#m1d9cb4037a"
                 y="84.01805"
                 id="use871" />
            </g>
          </g>
          <g
             id="text_7">
            <!-- 6 -->
            <g
               transform="translate(31.2975 87.817268)scale(0.1 -0.1)"
               id="g881">
              <defs
                 id="defs877">
                <path
                   d="M 33.015625 40.375  Q 26.375 40.375 22.484375 35.828125  Q 18.609375 31.296875 18.609375 23.390625  Q 18.609375 15.53125 22.484375 10.953125  Q 26.375 6.390625 33.015625 6.390625  Q 39.65625 6.390625 43.53125 10.953125  Q 47.40625 15.53125 47.40625 23.390625  Q 47.40625 31.296875 43.53125 35.828125  Q 39.65625 40.375 33.015625 40.375  z M 52.59375 71.296875  L 52.59375 62.3125  Q 48.875 64.0625 45.09375 64.984375  Q 41.3125 65.921875 37.59375 65.921875  Q 27.828125 65.921875 22.671875 59.328125  Q 17.53125 52.734375 16.796875 39.40625  Q 19.671875 43.65625 24.015625 45.921875  Q 28.375 48.1875 33.59375 48.1875  Q 44.578125 48.1875 50.953125 41.515625  Q 57.328125 34.859375 57.328125 23.390625  Q 57.328125 12.15625 50.6875 5.359375  Q 44.046875 -1.421875 33.015625 -1.421875  Q 20.359375 -1.421875 13.671875 8.265625  Q 6.984375 17.96875 6.984375 36.375  Q 6.984375 53.65625 15.1875 63.9375  Q 23.390625 74.21875 37.203125 74.21875  Q 40.921875 74.21875 44.703125 73.484375  Q 48.484375 72.75 52.59375 71.296875  z "
                   id="DejaVuSans-54" />
              </defs>
              <use
                 xlink:href="#DejaVuSans-54"
                 id="use879" />
            </g>
          </g>
        </g>
        <g
           id="ytick_5">
          <g
             id="line2d_7">
            <g
               id="g887">
              <use
                 style="stroke:#000000;stroke-width:0.8;"
                 x="44.66"
                 xlink:href="#m1d9cb4037a"
                 y="57.262452"
                 id="use885" />
            </g>
          </g>
          <g
             id="text_8">
            <!-- 8 -->
            <g
               transform="translate(31.2975 61.06167)scale(0.1 -0.1)"
               id="g895">
              <defs
                 id="defs891">
                <path
                   d="M 31.78125 34.625  Q 24.75 34.625 20.71875 30.859375  Q 16.703125 27.09375 16.703125 20.515625  Q 16.703125 13.921875 20.71875 10.15625  Q 24.75 6.390625 31.78125 6.390625  Q 38.8125 6.390625 42.859375 10.171875  Q 46.921875 13.96875 46.921875 20.515625  Q 46.921875 27.09375 42.890625 30.859375  Q 38.875 34.625 31.78125 34.625  z M 21.921875 38.8125  Q 15.578125 40.375 12.03125 44.71875  Q 8.5 49.078125 8.5 55.328125  Q 8.5 64.0625 14.71875 69.140625  Q 20.953125 74.21875 31.78125 74.21875  Q 42.671875 74.21875 48.875 69.140625  Q 55.078125 64.0625 55.078125 55.328125  Q 55.078125 49.078125 51.53125 44.71875  Q 48 40.375 41.703125 38.8125  Q 48.828125 37.15625 52.796875 32.3125  Q 56.78125 27.484375 56.78125 20.515625  Q 56.78125 9.90625 50.3125 4.234375  Q 43.84375 -1.421875 31.78125 -1.421875  Q 19.734375 -1.421875 13.25 4.234375  Q 6.78125 9.90625 6.78125 20.515625  Q 6.78125 27.484375 10.78125 32.3125  Q 14.796875 37.15625 21.921875 38.8125  z M 18.3125 54.390625  Q 18.3125 48.734375 21.84375 45.5625  Q 25.390625 42.390625 31.78125 42.390625  Q 38.140625 42.390625 41.71875 45.5625  Q 45.3125 48.734375 45.3125 54.390625  Q 45.3125 60.0625 41.71875 63.234375  Q 38.140625 66.40625 31.78125 66.40625  Q 25.390625 66.40625 21.84375 63.234375  Q 18.3125 60.0625 18.3125 54.390625  z "
                   id="DejaVuSans-56" />
              </defs>
              <use
                 xlink:href="#DejaVuSans-56"
                 id="use893" />
            </g>
          </g>
        </g>
        <g
           id="ytick_6">
          <g
             id="line2d_8">
            <g
               id="g901">
              <use
                 style="stroke:#000000;stroke-width:0.8;"
                 x="44.66"
                 xlink:href="#m1d9cb4037a"
                 y="30.506853"
                 id="use899" />
            </g>
          </g>
          <g
             id="text_9">
            <!-- 10 -->
            <g
               transform="translate(24.935 34.306072)scale(0.1 -0.1)"
               id="g911">
              <defs
                 id="defs905">
                <path
                   d="M 12.40625 8.296875  L 28.515625 8.296875  L 28.515625 63.921875  L 10.984375 60.40625  L 10.984375 69.390625  L 28.421875 72.90625  L 38.28125 72.90625  L 38.28125 8.296875  L 54.390625 8.296875  L 54.390625 0  L 12.40625 0  z "
                   id="DejaVuSans-49" />
              </defs>
              <use
                 xlink:href="#DejaVuSans-49"
                 id="use907" />
              <use
                 x="63.623047"
                 xlink:href="#DejaVuSans-48"
                 id="use909" />
            </g>
          </g>
        </g>
        <g
           id="text_10">
          <!-- Error (a.u.) -->
          <g
             transform="translate(18.855313 129.064719)rotate(-90)scale(0.1 -0.1)"
             id="g947">
            <defs
               id="defs921">
              <path
                 d="M 9.8125 72.90625  L 55.90625 72.90625  L 55.90625 64.59375  L 19.671875 64.59375  L 19.671875 43.015625  L 54.390625 43.015625  L 54.390625 34.71875  L 19.671875 34.71875  L 19.671875 8.296875  L 56.78125 8.296875  L 56.78125 0  L 9.8125 0  z "
                 id="DejaVuSans-69" />
              <path
                 d="M 30.609375 48.390625  Q 23.390625 48.390625 19.1875 42.75  Q 14.984375 37.109375 14.984375 27.296875  Q 14.984375 17.484375 19.15625 11.84375  Q 23.34375 6.203125 30.609375 6.203125  Q 37.796875 6.203125 41.984375 11.859375  Q 46.1875 17.53125 46.1875 27.296875  Q 46.1875 37.015625 41.984375 42.703125  Q 37.796875 48.390625 30.609375 48.390625  z M 30.609375 56  Q 42.328125 56 49.015625 48.375  Q 55.71875 40.765625 55.71875 27.296875  Q 55.71875 13.875 49.015625 6.21875  Q 42.328125 -1.421875 30.609375 -1.421875  Q 18.84375 -1.421875 12.171875 6.21875  Q 5.515625 13.875 5.515625 27.296875  Q 5.515625 40.765625 12.171875 48.375  Q 18.84375 56 30.609375 56  z "
                 id="DejaVuSans-111" />
              <path
                 d="M 31 75.875  Q 24.46875 64.65625 21.28125 53.65625  Q 18.109375 42.671875 18.109375 31.390625  Q 18.109375 20.125 21.3125 9.0625  Q 24.515625 -2 31 -13.1875  L 23.1875 -13.1875  Q 15.875 -1.703125 12.234375 9.375  Q 8.59375 20.453125 8.59375 31.390625  Q 8.59375 42.28125 12.203125 53.3125  Q 15.828125 64.359375 23.1875 75.875  z "
                 id="DejaVuSans-40" />
              <path
                 d="M 10.6875 12.40625  L 21 12.40625  L 21 0  L 10.6875 0  z "
                 id="DejaVuSans-46" />
              <path
                 d="M 8.5 21.578125  L 8.5 54.6875  L 17.484375 54.6875  L 17.484375 21.921875  Q 17.484375 14.15625 20.5 10.265625  Q 23.53125 6.390625 29.59375 6.390625  Q 36.859375 6.390625 41.078125 11.03125  Q 45.3125 15.671875 45.3125 23.6875  L 45.3125 54.6875  L 54.296875 54.6875  L 54.296875 0  L 45.3125 0  L 45.3125 8.40625  Q 42.046875 3.421875 37.71875 1  Q 33.40625 -1.421875 27.6875 -1.421875  Q 18.265625 -1.421875 13.375 4.4375  Q 8.5 10.296875 8.5 21.578125  z M 31.109375 56  z "
                 id="DejaVuSans-117" />
              <path
                 d="M 8.015625 75.875  L 15.828125 75.875  Q 23.140625 64.359375 26.78125 53.3125  Q 30.421875 42.28125 30.421875 31.390625  Q 30.421875 20.453125 26.78125 9.375  Q 23.140625 -1.703125 15.828125 -13.1875  L 8.015625 -13.1875  Q 14.5 -2 17.703125 9.0625  Q 20.90625 20.125 20.90625 31.390625  Q 20.90625 42.671875 17.703125 53.65625  Q 14.5 64.65625 8.015625 75.875  z "
                 id="DejaVuSans-41" />
            </defs>
            <use
               xlink:href="#DejaVuSans-69"
               id="use923" />
            <use
               x="63.183594"
               xlink:href="#DejaVuSans-114"
               id="use925" />
            <use
               x="102.546875"
               xlink:href="#DejaVuSans-114"
               id="use927" />
            <use
               x="141.410156"
               xlink:href="#DejaVuSans-111"
               id="use929" />
            <use
               x="202.591797"
               xlink:href="#DejaVuSans-114"
               id="use931" />
            <use
               x="243.705078"
               xlink:href="#DejaVuSans-32"
               id="use933" />
            <use
               x="275.492188"
               xlink:href="#DejaVuSans-40"
               id="use935" />
            <use
               x="314.505859"
               xlink:href="#DejaVuSans-97"
               id="use937" />
            <use
               x="375.785156"
               xlink:href="#DejaVuSans-46"
               id="use939" />
            <use
               x="407.572266"
               xlink:href="#DejaVuSans-117"
               id="use941" />
            <use
               x="470.951172"
               xlink:href="#DejaVuSans-46"
               id="use943" />
            <use
               x="502.738281"
               xlink:href="#DejaVuSans-41"
               id="use945" />
          </g>
        </g>
      </g>
      <g
         id="line2d_9">
        <path
           clip-path="url(#p0d52d133bf)"
           d="M -1 161.340851  L 1.333955 160.282869  L 3.882545 157.978158  L 6.431136 159.253222  L 8.979727 161.539985  L 11.528318 157.947372  L 14.076909 157.448182  L 16.6255 158.241024  L 19.174091 154.313158  L 21.722682 157.690192  L 24.271273 158.53731  L 26.819864 158.261196  L 29.368455 160.343575  L 31.917045 159.450975  L 34.465636 158.01421  L 37.014227 159.8753  L 39.562818 157.390276  L 42.111409 158.384047  L 44.66 61.056395  L 47.208591 70.304731  L 49.757182 65.858151  L 52.305773 79.961  L 54.854364 93.380989  L 57.402955 121.974702  L 59.951545 124.451046  L 62.500136 141.982647  L 65.048727 147.190053  L 67.597318 152.132307  L 70.145909 152.525553  L 72.6945 150.797061  L 75.243091 150.651874  L 77.791682 156.683917  L 80.340273 156.124462  L 82.888864 157.562452  L 85.437455 157.50515  L 87.986045 153.380582  L 90.534636 157.387566  L 93.083227 157.416527  L 95.631818 157.209686  L 98.180409 158.325929  L 100.729 159.098192  L 103.277591 156.84863  L 105.826182 158.960357  L 108.374773 156.347493  L 110.923364 160.128333  L 113.471955 159.448476  L 116.020545 159.244784  L 118.569136 157.839095  L 121.117727 157.794679  L 123.666318 158.673576  L 126.214909 160.111584  L 128.7635 157.291068  L 131.312091 159.499104  L 133.860682 159.895786  L 136.409273 156.60137  L 138.957864 160.291097  L 141.506455 157.702996  L 144.055045 155.371371  L 146.603636 158.457511  L 149.152227 157.362493  L 154.249409 158.871338  L 156.798 156.132208  L 159.346591 160.546642  L 161.895182 156.344598  L 164.443773 158.578941  L 166.992364 157.782412  L 169.540955 157.423453  L 172.089545 156.508587  L 174.638136 158.633248  L 179.735318 157.25559  L 182.283909 159.81887  L 184.8325 155.16727  L 187.381091 158.473776  L 189.929682 158.458748  L 192.478273 159.19103  L 195.026864 158.882564  L 197.575455 157.631142  L 200.124045 155.528451  L 202.672636 157.718903  L 205.221227 157.668238  L 207.769818 158.871033  L 210.318409 158.720276  L 212.867 154.640851  L 217.964182 158.78479  L 220.512773 158.325222  L 223.061364 156.588059  L 225.609955 158.770706  L 228.158545 158.622929  L 235.804318 158.837767  L 240.9015 158.496853  L 243.450091 160.50735  L 245.998682 158.476903  L 248.547273 156.812699  L 251.095864 155.528193  L 253.644455 156.917602  L 256.193045 156.862423  L 258.741636 160.20769  L 261.290227 156.032259  L 266.387409 159.180058  L 268.936 155.397822  L 271.484591 159.379973  L 274.033182 156.846771  L 276.581773 158.632862  L 279.130364 157.408369  L 281.678955 160.069747  L 284.227545 158.983995  L 286.776136 158.424194  L 289 157.018124  L 289 157.018124  "
           style="fill:none;stroke:#5f6dd3;stroke-linecap:square;stroke-width:1.5;"
           id="path951" />
      </g>
      <g
         id="line2d_10">
        <path
           clip-path="url(#p0d52d133bf)"
           d="M -1 159.662803  L 1.333955 160.46731  L 3.882545 158.904329  L 6.431136 157.505488  L 8.979727 152.018939  L 11.528318 158.001625  L 14.076909 156.567184  L 16.6255 157.751029  L 21.722682 160.535423  L 24.271273 158.593687  L 26.819864 159.805715  L 29.368455 158.355755  L 31.917045 158.657061  L 34.465636 156.297417  L 37.014227 158.29828  L 39.562818 158.606411  L 42.111409 161.305692  L 44.66 62.195365  L 47.208591 60.385688  L 49.757182 75.187932  L 52.305773 88.504725  L 54.854364 105.692981  L 57.402955 124.362282  L 59.951545 141.549882  L 62.500136 155.224168  L 65.048727 159.934839  L 67.597318 155.600705  L 70.145909 159.711742  L 72.6945 156.040213  L 75.243091 157.532074  L 77.791682 155.994595  L 80.340273 158.679332  L 82.888864 158.498099  L 85.437455 157.563429  L 87.986045 159.665594  L 93.083227 156.32831  L 95.631818 159.377981  L 98.180409 156.926043  L 100.729 157.126918  L 103.277591 155.316575  L 105.826182 160.486101  L 108.374773 160.404915  L 110.923364 158.06153  L 113.471955 156.621532  L 116.020545 159.396211  L 118.569136 157.627163  L 121.117727 160.893094  L 123.666318 158.898885  L 126.214909 159.804653  L 128.7635 157.621365  L 131.312091 160.786587  L 133.860682 158.796163  L 136.409273 158.149311  L 138.957864 159.773894  L 141.506455 159.406188  L 146.603636 160.028217  L 149.152227 158.44045  L 151.700818 158.159066  L 154.249409 159.129551  L 156.798 158.732955  L 159.346591 156.708905  L 161.895182 158.332318  L 164.443773 158.852435  L 166.992364 159.698107  L 169.540955 159.545856  L 172.089545 156.654173  L 174.638136 158.799005  L 177.186727 158.459711  L 179.735318 160.406055  L 182.283909 159.226335  L 184.8325 158.426935  L 187.381091 159.591434  L 189.929682 158.39742  L 192.478273 160.90195  L 195.026864 156.587039  L 197.575455 160.329929  L 200.124045 156.393919  L 202.672636 159.961989  L 205.221227 156.183157  L 207.769818 160.437062  L 210.318409 158.612275  L 212.867 159.085092  L 215.415591 158.207655  L 217.964182 159.296865  L 223.061364 158.755381  L 225.609955 160.285925  L 228.158545 160.44744  L 230.707136 159.29247  L 233.255727 160.692507  L 235.804318 158.186093  L 238.352909 158.106807  L 240.9015 160.195048  L 243.450091 159.99186  L 245.998682 158.485249  L 248.547273 159.967445  L 251.095864 158.142287  L 253.644455 157.147373  L 256.193045 158.992994  L 261.290227 160.331443  L 263.838818 160.091545  L 266.387409 159.389095  L 268.936 160.102118  L 271.484591 156.968987  L 274.033182 161.225504  L 276.581773 158.020498  L 279.130364 158.989887  L 281.678955 156.716064  L 284.227545 158.253521  L 286.776136 159.306864  L 289 159.218036  L 289 159.218036  "
           style="fill:none;stroke:#d3c55f;stroke-linecap:square;stroke-width:1.5;"
           id="path954" />
      </g>
      <g
         id="line2d_11" />
      <g
         id="line2d_12" />
      <g
         id="patch_3">
        <path
           d="M 44.66 174.04  L 44.66 29.916  "
           style="fill:none;stroke:#000000;stroke-linecap:square;stroke-linejoin:miter;stroke-width:0.8;"
           id="path959" />
      </g>
      <g
         id="patch_4">
        <path
           d="M 146.603636 174.04  L 146.603636 29.916  "
           style="fill:none;stroke:#000000;stroke-linecap:square;stroke-linejoin:miter;stroke-width:0.8;"
           id="path962" />
      </g>
      <g
         id="patch_5">
        <path
           d="M 44.66 174.04  L 146.603636 174.04  "
           style="fill:none;stroke:#000000;stroke-linecap:square;stroke-linejoin:miter;stroke-width:0.8;"
           id="path965" />
      </g>
      <g
         id="patch_6">
        <path
           d="M 44.66 29.916  L 146.603636 29.916  "
           style="fill:none;stroke:#000000;stroke-linecap:square;stroke-linejoin:miter;stroke-width:0.8;"
           id="path968" />
      </g>
      <g
         id="text_11">
        <!-- A -->
        <g
           transform="translate(34.465636 22.7098)scale(0.14 -0.14)"
           id="g976">
          <defs
             id="defs972">
            <path
               d="M 34.1875 63.1875  L 20.796875 26.90625  L 47.609375 26.90625  z M 28.609375 72.90625  L 39.796875 72.90625  L 67.578125 0  L 57.328125 0  L 50.6875 18.703125  L 17.828125 18.703125  L 11.1875 0  L 0.78125 0  z "
               id="DejaVuSans-65" />
          </defs>
          <use
             xlink:href="#DejaVuSans-65"
             id="use974" />
        </g>
      </g>
      <g
         id="legend_1">
        <g
           id="patch_7">
          <path
             d="M 92.861449 81.950375  L 139.603636 81.950375  Q 141.603636 81.950375 141.603636 79.950375  L 141.603636 36.916  Q 141.603636 34.916 139.603636 34.916  L 92.861449 34.916  Q 90.861449 34.916 90.861449 36.916  L 90.861449 79.950375  Q 90.861449 81.950375 92.861449 81.950375  z "
             style="fill:#ffffff;opacity:0.8;stroke:#cccccc;stroke-linejoin:miter;"
             id="path979" />
        </g>
        <g
           id="text_12">
          <!-- Group -->
          <g
             transform="translate(101.013011 46.514438)scale(0.1 -0.1)"
             id="g996">
            <defs
               id="defs984">
              <path
                 d="M 59.515625 10.40625  L 59.515625 29.984375  L 43.40625 29.984375  L 43.40625 38.09375  L 69.28125 38.09375  L 69.28125 6.78125  Q 63.578125 2.734375 56.6875 0.65625  Q 49.8125 -1.421875 42 -1.421875  Q 24.90625 -1.421875 15.25 8.5625  Q 5.609375 18.5625 5.609375 36.375  Q 5.609375 54.25 15.25 64.234375  Q 24.90625 74.21875 42 74.21875  Q 49.125 74.21875 55.546875 72.453125  Q 61.96875 70.703125 67.390625 67.28125  L 67.390625 56.78125  Q 61.921875 61.421875 55.765625 63.765625  Q 49.609375 66.109375 42.828125 66.109375  Q 29.4375 66.109375 22.71875 58.640625  Q 16.015625 51.171875 16.015625 36.375  Q 16.015625 21.625 22.71875 14.15625  Q 29.4375 6.6875 42.828125 6.6875  Q 48.046875 6.6875 52.140625 7.59375  Q 56.25 8.5 59.515625 10.40625  z "
                 id="DejaVuSans-71" />
              <path
                 d="M 18.109375 8.203125  L 18.109375 -20.796875  L 9.078125 -20.796875  L 9.078125 54.6875  L 18.109375 54.6875  L 18.109375 46.390625  Q 20.953125 51.265625 25.265625 53.625  Q 29.59375 56 35.59375 56  Q 45.5625 56 51.78125 48.09375  Q 58.015625 40.1875 58.015625 27.296875  Q 58.015625 14.40625 51.78125 6.484375  Q 45.5625 -1.421875 35.59375 -1.421875  Q 29.59375 -1.421875 25.265625 0.953125  Q 20.953125 3.328125 18.109375 8.203125  z M 48.6875 27.296875  Q 48.6875 37.203125 44.609375 42.84375  Q 40.53125 48.484375 33.40625 48.484375  Q 26.265625 48.484375 22.1875 42.84375  Q 18.109375 37.203125 18.109375 27.296875  Q 18.109375 17.390625 22.1875 11.75  Q 26.265625 6.109375 33.40625 6.109375  Q 40.53125 6.109375 44.609375 11.75  Q 48.6875 17.390625 48.6875 27.296875  z "
                 id="DejaVuSans-112" />
            </defs>
            <use
               xlink:href="#DejaVuSans-71"
               id="use986" />
            <use
               x="77.490234"
               xlink:href="#DejaVuSans-114"
               id="use988" />
            <use
               x="116.353516"
               xlink:href="#DejaVuSans-111"
               id="use990" />
            <use
               x="177.535156"
               xlink:href="#DejaVuSans-117"
               id="use992" />
            <use
               x="240.914062"
               xlink:href="#DejaVuSans-112"
               id="use994" />
          </g>
        </g>
        <g
           id="line2d_13">
          <path
             d="M 94.861449 57.692563  L 114.861449 57.692563  "
             style="fill:none;stroke:#5f6dd3;stroke-linecap:square;stroke-width:1.5;"
             id="path999" />
        </g>
        <g
           id="line2d_14" />
        <g
           id="text_13">
          <!-- -8 -->
          <g
             transform="translate(122.861449 61.192563)scale(0.1 -0.1)"
             id="g1010">
            <defs
               id="defs1004">
              <path
                 d="M 4.890625 31.390625  L 31.203125 31.390625  L 31.203125 23.390625  L 4.890625 23.390625  z "
                 id="DejaVuSans-45" />
            </defs>
            <use
               xlink:href="#DejaVuSans-45"
               id="use1006" />
            <use
               x="36.083984"
               xlink:href="#DejaVuSans-56"
               id="use1008" />
          </g>
        </g>
        <g
           id="line2d_15">
          <path
             d="M 94.861449 72.370688  L 114.861449 72.370688  "
             style="fill:none;stroke:#d3c55f;stroke-linecap:square;stroke-width:1.5;"
             id="path1013" />
        </g>
        <g
           id="line2d_16" />
        <g
           id="text_14">
          <!-- +8 -->
          <g
             transform="translate(122.861449 75.870688)scale(0.1 -0.1)"
             id="g1024">
            <defs
               id="defs1018">
              <path
                 d="M 46 62.703125  L 46 35.5  L 73.1875 35.5  L 73.1875 27.203125  L 46 27.203125  L 46 0  L 37.796875 0  L 37.796875 27.203125  L 10.59375 27.203125  L 10.59375 35.5  L 37.796875 35.5  L 37.796875 62.703125  z "
                 id="DejaVuSans-43" />
            </defs>
            <use
               xlink:href="#DejaVuSans-43"
               id="use1020" />
            <use
               x="83.789062"
               xlink:href="#DejaVuSans-56"
               id="use1022" />
          </g>
        </g>
      </g>
    </g>
    <g
       id="axes_2">
      <g
         id="patch_8">
        <path
           d="M 171.402727 174.04  L 273.346364 174.04  L 273.346364 29.916  L 171.402727 29.916  z "
           style="fill:#ffffff;"
           id="path1029" />
      </g>
      <g
         id="matplotlib.axis_3">
        <g
           id="xtick_3">
          <g
             id="line2d_17">
            <g
               id="g1034">
              <use
                 style="stroke:#000000;stroke-width:0.8;"
                 x="219.825955"
                 xlink:href="#m3037b6ffc7"
                 y="174.04"
                 id="use1032" />
            </g>
          </g>
          <g
             id="text_15">
            <!-- 20 -->
            <g
               transform="translate(213.463455 188.638438)scale(0.1 -0.1)"
               id="g1041">
              <use
                 xlink:href="#DejaVuSans-50"
                 id="use1037" />
              <use
                 x="63.623047"
                 xlink:href="#DejaVuSans-48"
                 id="use1039" />
            </g>
          </g>
        </g>
        <g
           id="xtick_4">
          <g
             id="line2d_18">
            <g
               id="g1047">
              <use
                 style="stroke:#000000;stroke-width:0.8;"
                 x="270.797773"
                 xlink:href="#m3037b6ffc7"
                 y="174.04"
                 id="use1045" />
            </g>
          </g>
          <g
             id="text_16">
            <!-- 40 -->
            <g
               transform="translate(264.435273 188.638438)scale(0.1 -0.1)"
               id="g1054">
              <use
                 xlink:href="#DejaVuSans-52"
                 id="use1050" />
              <use
                 x="63.623047"
                 xlink:href="#DejaVuSans-48"
                 id="use1052" />
            </g>
          </g>
        </g>
        <g
           id="text_17">
          <!-- Trials after switch -->
          <g
             transform="translate(178.587827 202.316563)scale(0.1 -0.1)"
             id="g1096">
            <use
               xlink:href="#DejaVuSans-84"
               id="use1058" />
            <use
               x="46.333984"
               xlink:href="#DejaVuSans-114"
               id="use1060" />
            <use
               x="87.447266"
               xlink:href="#DejaVuSans-105"
               id="use1062" />
            <use
               x="115.230469"
               xlink:href="#DejaVuSans-97"
               id="use1064" />
            <use
               x="176.509766"
               xlink:href="#DejaVuSans-108"
               id="use1066" />
            <use
               x="204.292969"
               xlink:href="#DejaVuSans-115"
               id="use1068" />
            <use
               x="256.392578"
               xlink:href="#DejaVuSans-32"
               id="use1070" />
            <use
               x="288.179688"
               xlink:href="#DejaVuSans-97"
               id="use1072" />
            <use
               x="349.458984"
               xlink:href="#DejaVuSans-102"
               id="use1074" />
            <use
               x="382.914062"
               xlink:href="#DejaVuSans-116"
               id="use1076" />
            <use
               x="422.123047"
               xlink:href="#DejaVuSans-101"
               id="use1078" />
            <use
               x="483.646484"
               xlink:href="#DejaVuSans-114"
               id="use1080" />
            <use
               x="524.759766"
               xlink:href="#DejaVuSans-32"
               id="use1082" />
            <use
               x="556.546875"
               xlink:href="#DejaVuSans-115"
               id="use1084" />
            <use
               x="608.646484"
               xlink:href="#DejaVuSans-119"
               id="use1086" />
            <use
               x="690.433594"
               xlink:href="#DejaVuSans-105"
               id="use1088" />
            <use
               x="718.216797"
               xlink:href="#DejaVuSans-116"
               id="use1090" />
            <use
               x="757.425781"
               xlink:href="#DejaVuSans-99"
               id="use1092" />
            <use
               x="812.40625"
               xlink:href="#DejaVuSans-104"
               id="use1094" />
          </g>
        </g>
      </g>
      <g
         id="matplotlib.axis_4">
        <g
           id="ytick_7">
          <g
             id="line2d_19">
            <g
               id="g1102">
              <use
                 style="stroke:#000000;stroke-width:0.8;"
                 x="171.402727"
                 xlink:href="#m1d9cb4037a"
                 y="164.284844"
                 id="use1100" />
            </g>
          </g>
        </g>
        <g
           id="ytick_8">
          <g
             id="line2d_20">
            <g
               id="g1108">
              <use
                 style="stroke:#000000;stroke-width:0.8;"
                 x="171.402727"
                 xlink:href="#m1d9cb4037a"
                 y="137.529246"
                 id="use1106" />
            </g>
          </g>
        </g>
        <g
           id="ytick_9">
          <g
             id="line2d_21">
            <g
               id="g1114">
              <use
                 style="stroke:#000000;stroke-width:0.8;"
                 x="171.402727"
                 xlink:href="#m1d9cb4037a"
                 y="110.773648"
                 id="use1112" />
            </g>
          </g>
        </g>
        <g
           id="ytick_10">
          <g
             id="line2d_22">
            <g
               id="g1120">
              <use
                 style="stroke:#000000;stroke-width:0.8;"
                 x="171.402727"
                 xlink:href="#m1d9cb4037a"
                 y="84.01805"
                 id="use1118" />
            </g>
          </g>
        </g>
        <g
           id="ytick_11">
          <g
             id="line2d_23">
            <g
               id="g1126">
              <use
                 style="stroke:#000000;stroke-width:0.8;"
                 x="171.402727"
                 xlink:href="#m1d9cb4037a"
                 y="57.262452"
                 id="use1124" />
            </g>
          </g>
        </g>
        <g
           id="ytick_12">
          <g
             id="line2d_24">
            <g
               id="g1132">
              <use
                 style="stroke:#000000;stroke-width:0.8;"
                 x="171.402727"
                 xlink:href="#m1d9cb4037a"
                 y="30.506853"
                 id="use1130" />
            </g>
          </g>
        </g>
      </g>
      <g
         id="patch_9">
        <path
           d="M 171.402727 174.04  L 171.402727 29.916  "
           style="fill:none;stroke:#000000;stroke-linecap:square;stroke-linejoin:miter;stroke-width:0.8;"
           id="path1137" />
      </g>
      <g
         id="patch_10">
        <path
           d="M 273.346364 174.04  L 273.346364 29.916  "
           style="fill:none;stroke:#000000;stroke-linecap:square;stroke-linejoin:miter;stroke-width:0.8;"
           id="path1140" />
      </g>
      <g
         id="patch_11">
        <path
           d="M 171.402727 174.04  L 273.346364 174.04  "
           style="fill:none;stroke:#000000;stroke-linecap:square;stroke-linejoin:miter;stroke-width:0.8;"
           id="path1143" />
      </g>
      <g
         id="patch_12">
        <path
           d="M 171.402727 29.916  L 273.346364 29.916  "
           style="fill:none;stroke:#000000;stroke-linecap:square;stroke-linejoin:miter;stroke-width:0.8;"
           id="path1146" />
      </g>
      <g
         id="text_18">
        <!-- B -->
        <g
           transform="translate(161.208364 22.7098)scale(0.14 -0.14)"
           id="g1154">
          <defs
             id="defs1150">
            <path
               d="M 19.671875 34.8125  L 19.671875 8.109375  L 35.5 8.109375  Q 43.453125 8.109375 47.28125 11.40625  Q 51.125 14.703125 51.125 21.484375  Q 51.125 28.328125 47.28125 31.5625  Q 43.453125 34.8125 35.5 34.8125  z M 19.671875 64.796875  L 19.671875 42.828125  L 34.28125 42.828125  Q 41.5 42.828125 45.03125 45.53125  Q 48.578125 48.25 48.578125 53.8125  Q 48.578125 59.328125 45.03125 62.0625  Q 41.5 64.796875 34.28125 64.796875  z M 9.8125 72.90625  L 35.015625 72.90625  Q 46.296875 72.90625 52.390625 68.21875  Q 58.5 63.53125 58.5 54.890625  Q 58.5 48.1875 55.375 44.234375  Q 52.25 40.28125 46.1875 39.3125  Q 53.46875 37.75 57.5 32.78125  Q 61.53125 27.828125 61.53125 20.40625  Q 61.53125 10.640625 54.890625 5.3125  Q 48.25 0 35.984375 0  L 9.8125 0  z "
               id="DejaVuSans-66" />
          </defs>
          <use
             xlink:href="#DejaVuSans-66"
             id="use1152" />
        </g>
      </g>
    </g>
  </g>
  <defs
     id="defs1162">
    <clipPath
       id="p0d52d133bf">
      <rect
         height="144.124"
         width="101.943636"
         x="44.66"
         y="29.916"
         id="rect1159" />
    </clipPath>
  </defs>
  <g
     id="g1251"
     transform="matrix(0.5551324,0,0,0.74124394,69.31862,42.571253)"
     style="stroke-linecap:butt;stroke-linejoin:round">
    <path
       style="fill:#999999;fill-opacity:0.341485;fill-rule:evenodd;stroke:#d3c55f;stroke-width:1.08595px;stroke-linecap:butt;stroke-linejoin:miter;stroke-opacity:1"
       d="m 185.65586,2.582811 4.35195,116.412319 4.35192,4.0912 5.00472,8.92613 5.00474,-7.06656 4.35193,-13.76116 4.13434,27.15047 5.00472,-16.7366 4.35193,34.96084 5.00474,-10.04192 4.13433,-36.82052 4.78713,14.50506 4.35193,24.54699 4.78712,-26.03465 4.56953,29.38196 5.00474,1.48772 4.56952,-17.85236 3.91675,15.24889 4.78712,-18.96816 9.35665,15.99278 5.8751,-0.7439 3.91675,-17.10844 4.13435,35.33277 9.79181,-50.2098 4.352,-0.37185 8.92144,31.61353 5.22234,-15.9927 4.13433,-28.26619 4.56954,33.84504 4.35193,-26.77855 4.56956,49.094 4.5695,-32.35739 4.56953,35.33283 4.78712,-62.111378 5.22233,47.606268 4.13433,-2.60346 1.52318,4.09118 3.04635,-2.97538 v 26.40658 l -9.79186,-9.66997 -4.13433,-17.10858 -4.35193,33.47321 -4.56952,-17.85234 -4.78712,9.2981 -4.56953,-25.29087 -4.56954,16.73664 -5.22234,-14.87704 -3.91671,10.78587 -4.35195,2.23153 -5.22232,-11.90164 -4.35193,2.60352 -8.2687,12.64542 -6.09272,16.36468 -4.13435,-22.31548 -3.91673,15.99278 -5.22231,-4.83504 -4.56953,5.95081 -5.00472,-18.96821 -4.56952,10.04202 -4.13435,-6.32274 -5.00474,8.55429 -4.35192,0.37186 -4.78713,-24.17509 -4.35193,25.66275 -5.00473,-9.66997 -4.35193,-26.40663 -4.35192,26.77855 -4.13435,14.87696 -5.43992,-22.31552 -4.56952,4.46311 -4.35194,-10.78578 -4.78712,15.99276 -4.78713,-7.81044 -4.35194,2.97545 -5.43991,-6.32275 -3.69916,-87.774143 z"
       id="path4151-7-3" />
    <path
       style="fill:#999999;fill-opacity:0.341485;fill-rule:evenodd;stroke:#5f6dd3;stroke-width:1.08595px;stroke-linecap:butt;stroke-linejoin:miter;stroke-opacity:1"
       d="m 185.08708,5.7816735 1.53864,23.1431465 8.61639,-8.678649 4.15432,63.906616 4.92365,-26.825001 4.3082,-0.26294 4.61592,9.99365 4.46206,50.494094 5.07751,-11.57157 4.61592,8.41572 4.30824,-22.354205 4.1543,9.204655 5.38527,1.31501 4.00047,44.18234 2.76955,-17.35738 2.00024,-19.19825 4.46206,17.09435 4.76978,-29.45494 4.30817,14.46449 4.76978,27.61396 5.84685,-15.51641 4.00049,-14.99045 3.69272,13.41252 5.23139,7.10076 4.76979,-4.73388 4.46206,10.78257 4.76978,-18.40929 4.15434,18.93533 5.07751,-17.35735 4.46205,32.87377 4.76981,-51.80907 4.00046,64.95857 5.23137,-48.3902 h 4.46207 l 4.15434,24.72106 5.23137,2.62994 4.15434,-0.78897 4.61588,-15.77941 4.76981,30.50682 5.23139,-10.25659 1.07707,4.73382 2.7695,-3.1559 -0.30765,19.72429 -4.00046,-7.88972 c 0,0 -4.92366,14.20149 -4.92366,12.36055 0,-1.84092 -4.46203,-24.72108 -4.46203,-24.72108 l -4.61593,22.88016 -4.76978,-2.10394 -9.07798,-24.72109 -4.30821,9.20464 -5.07751,26.03605 -4.61591,-34.18874 -4.46207,19.72427 -4.46206,-13.14949 -4.61592,8.67867 -4.46207,-9.46769 -4.76978,11.57165 -5.53913,-2.89293 -3.69273,-5.78581 -4.15432,7.36374 -4.92365,-21.82816 -4.46206,15.25343 -5.38524,6.31173 -8.77026,-22.88017 -4.61593,24.19517 -4.76977,-16.83142 -4.76978,21.30218 -8.61641,-47.60116 -4.46207,34.45168 -8.77025,-4.73383 -5.53914,1.57798 -4.1543,-52.598036 -5.693,3.681816 -4.15432,7.62672 -4.00048,3.9449 -4.92364,-36.555692 -5.07751,2.892916 -4.00047,-16.042414 z"
       id="path4266-5-6" />
  </g>
</svg>
