<?xml version="1.0" encoding="utf-8" standalone="no"?>
<!DOCTYPE svg PUBLIC "-//W3C//DTD SVG 1.1//EN"
  "http://www.w3.org/Graphics/SVG/1.1/DTD/svg11.dtd">
<!-- Created with matplotlib (https://matplotlib.org/) -->
<svg height="432pt" version="1.1" viewBox="0 0 360 432" width="360pt" xmlns="http://www.w3.org/2000/svg" xmlns:xlink="http://www.w3.org/1999/xlink">
 <metadata>
  <rdf:RDF xmlns:cc="http://creativecommons.org/ns#" xmlns:dc="http://purl.org/dc/elements/1.1/" xmlns:rdf="http://www.w3.org/1999/02/22-rdf-syntax-ns#">
   <cc:Work>
    <dc:type rdf:resource="http://purl.org/dc/dcmitype/StillImage"/>
    <dc:date>2021-08-20T15:42:07.201373</dc:date>
    <dc:format>image/svg+xml</dc:format>
    <dc:creator>
     <cc:Agent>
      <dc:title>Matplotlib v3.3.4, https://matplotlib.org/</dc:title>
     </cc:Agent>
    </dc:creator>
   </cc:Work>
  </rdf:RDF>
 </metadata>
 <defs>
  <style type="text/css">*{stroke-linecap:butt;stroke-linejoin:round;}</style>
 </defs>
 <g id="figure_1">
  <g id="patch_1">
   <path d="M 0 432 
L 360 432 
L 360 0 
L 0 0 
z
" style="fill:#ffffff;"/>
  </g>
  <g id="axes_1">
   <g id="patch_2">
    <path d="M 53.03 121.186667 
L 173.342176 121.186667 
L 173.342176 25.44 
L 53.03 25.44 
z
" style="fill:#ffffff;"/>
   </g>
   <g id="matplotlib.axis_1">
    <g id="xtick_1">
     <g id="line2d_1">
      <defs>
       <path d="M 0 0 
L 0 3.5 
" id="m9ce3ed53ba" style="stroke:#000000;stroke-width:0.8;"/>
      </defs>
      <g>
       <use style="stroke:#000000;stroke-width:0.8;" x="58.498735" xlink:href="#m9ce3ed53ba" y="121.186667"/>
      </g>
     </g>
     <g id="text_1">
      <!-- 0 -->
      <g transform="translate(55.317485 135.785104)scale(0.1 -0.1)">
       <defs>
        <path d="M 31.78125 66.40625 
Q 24.171875 66.40625 20.328125 58.90625 
Q 16.5 51.421875 16.5 36.375 
Q 16.5 21.390625 20.328125 13.890625 
Q 24.171875 6.390625 31.78125 6.390625 
Q 39.453125 6.390625 43.28125 13.890625 
Q 47.125 21.390625 47.125 36.375 
Q 47.125 51.421875 43.28125 58.90625 
Q 39.453125 66.40625 31.78125 66.40625 
z
M 31.78125 74.21875 
Q 44.046875 74.21875 50.515625 64.515625 
Q 56.984375 54.828125 56.984375 36.375 
Q 56.984375 17.96875 50.515625 8.265625 
Q 44.046875 -1.421875 31.78125 -1.421875 
Q 19.53125 -1.421875 13.0625 8.265625 
Q 6.59375 17.96875 6.59375 36.375 
Q 6.59375 54.828125 13.0625 64.515625 
Q 19.53125 74.21875 31.78125 74.21875 
z
" id="DejaVuSans-48"/>
       </defs>
       <use xlink:href="#DejaVuSans-48"/>
      </g>
     </g>
    </g>
    <g id="xtick_2">
     <g id="line2d_2">
      <g>
       <use style="stroke:#000000;stroke-width:0.8;" x="113.79434" xlink:href="#m9ce3ed53ba" y="121.186667"/>
      </g>
     </g>
     <g id="text_2">
      <!-- 500 -->
      <g transform="translate(104.25059 135.785104)scale(0.1 -0.1)">
       <defs>
        <path d="M 10.796875 72.90625 
L 49.515625 72.90625 
L 49.515625 64.59375 
L 19.828125 64.59375 
L 19.828125 46.734375 
Q 21.96875 47.46875 24.109375 47.828125 
Q 26.265625 48.1875 28.421875 48.1875 
Q 40.625 48.1875 47.75 41.5 
Q 54.890625 34.8125 54.890625 23.390625 
Q 54.890625 11.625 47.5625 5.09375 
Q 40.234375 -1.421875 26.90625 -1.421875 
Q 22.3125 -1.421875 17.546875 -0.640625 
Q 12.796875 0.140625 7.71875 1.703125 
L 7.71875 11.625 
Q 12.109375 9.234375 16.796875 8.0625 
Q 21.484375 6.890625 26.703125 6.890625 
Q 35.15625 6.890625 40.078125 11.328125 
Q 45.015625 15.765625 45.015625 23.390625 
Q 45.015625 31 40.078125 35.4375 
Q 35.15625 39.890625 26.703125 39.890625 
Q 22.75 39.890625 18.8125 39.015625 
Q 14.890625 38.140625 10.796875 36.28125 
z
" id="DejaVuSans-53"/>
       </defs>
       <use xlink:href="#DejaVuSans-53"/>
       <use x="63.623047" xlink:href="#DejaVuSans-48"/>
       <use x="127.246094" xlink:href="#DejaVuSans-48"/>
      </g>
     </g>
    </g>
    <g id="xtick_3">
     <g id="line2d_3">
      <g>
       <use style="stroke:#000000;stroke-width:0.8;" x="169.089944" xlink:href="#m9ce3ed53ba" y="121.186667"/>
      </g>
     </g>
     <g id="text_3">
      <!-- 1000 -->
      <g transform="translate(156.364944 135.785104)scale(0.1 -0.1)">
       <defs>
        <path d="M 12.40625 8.296875 
L 28.515625 8.296875 
L 28.515625 63.921875 
L 10.984375 60.40625 
L 10.984375 69.390625 
L 28.421875 72.90625 
L 38.28125 72.90625 
L 38.28125 8.296875 
L 54.390625 8.296875 
L 54.390625 0 
L 12.40625 0 
z
" id="DejaVuSans-49"/>
       </defs>
       <use xlink:href="#DejaVuSans-49"/>
       <use x="63.623047" xlink:href="#DejaVuSans-48"/>
       <use x="127.246094" xlink:href="#DejaVuSans-48"/>
       <use x="190.869141" xlink:href="#DejaVuSans-48"/>
      </g>
     </g>
    </g>
   </g>
   <g id="matplotlib.axis_2">
    <g id="ytick_1">
     <g id="line2d_4">
      <defs>
       <path d="M 0 0 
L -3.5 0 
" id="mfa01fa56ac" style="stroke:#000000;stroke-width:0.8;"/>
      </defs>
      <g>
       <use style="stroke:#000000;stroke-width:0.8;" x="53.03" xlink:href="#mfa01fa56ac" y="114.372752"/>
      </g>
     </g>
     <g id="text_4">
      <!-- −40 -->
      <g transform="translate(24.925313 118.171971)scale(0.1 -0.1)">
       <defs>
        <path d="M 10.59375 35.5 
L 73.1875 35.5 
L 73.1875 27.203125 
L 10.59375 27.203125 
z
" id="DejaVuSans-8722"/>
        <path d="M 37.796875 64.3125 
L 12.890625 25.390625 
L 37.796875 25.390625 
z
M 35.203125 72.90625 
L 47.609375 72.90625 
L 47.609375 25.390625 
L 58.015625 25.390625 
L 58.015625 17.1875 
L 47.609375 17.1875 
L 47.609375 0 
L 37.796875 0 
L 37.796875 17.1875 
L 4.890625 17.1875 
L 4.890625 26.703125 
z
" id="DejaVuSans-52"/>
       </defs>
       <use xlink:href="#DejaVuSans-8722"/>
       <use x="83.789062" xlink:href="#DejaVuSans-52"/>
       <use x="147.412109" xlink:href="#DejaVuSans-48"/>
      </g>
     </g>
    </g>
    <g id="ytick_2">
     <g id="line2d_5">
      <g>
       <use style="stroke:#000000;stroke-width:0.8;" x="53.03" xlink:href="#mfa01fa56ac" y="73.299336"/>
      </g>
     </g>
     <g id="text_5">
      <!-- 0 -->
      <g transform="translate(39.6675 77.098555)scale(0.1 -0.1)">
       <use xlink:href="#DejaVuSans-48"/>
      </g>
     </g>
    </g>
    <g id="ytick_3">
     <g id="line2d_6">
      <g>
       <use style="stroke:#000000;stroke-width:0.8;" x="53.03" xlink:href="#mfa01fa56ac" y="32.225921"/>
      </g>
     </g>
     <g id="text_6">
      <!-- 40 -->
      <g transform="translate(33.305 36.02514)scale(0.1 -0.1)">
       <use xlink:href="#DejaVuSans-52"/>
       <use x="63.623047" xlink:href="#DejaVuSans-48"/>
      </g>
     </g>
    </g>
    <g id="text_7">
     <!-- Adaptation -->
     <g transform="translate(18.845625 100.660208)rotate(-90)scale(0.1 -0.1)">
      <defs>
       <path d="M 34.1875 63.1875 
L 20.796875 26.90625 
L 47.609375 26.90625 
z
M 28.609375 72.90625 
L 39.796875 72.90625 
L 67.578125 0 
L 57.328125 0 
L 50.6875 18.703125 
L 17.828125 18.703125 
L 11.1875 0 
L 0.78125 0 
z
" id="DejaVuSans-65"/>
       <path d="M 45.40625 46.390625 
L 45.40625 75.984375 
L 54.390625 75.984375 
L 54.390625 0 
L 45.40625 0 
L 45.40625 8.203125 
Q 42.578125 3.328125 38.25 0.953125 
Q 33.9375 -1.421875 27.875 -1.421875 
Q 17.96875 -1.421875 11.734375 6.484375 
Q 5.515625 14.40625 5.515625 27.296875 
Q 5.515625 40.1875 11.734375 48.09375 
Q 17.96875 56 27.875 56 
Q 33.9375 56 38.25 53.625 
Q 42.578125 51.265625 45.40625 46.390625 
z
M 14.796875 27.296875 
Q 14.796875 17.390625 18.875 11.75 
Q 22.953125 6.109375 30.078125 6.109375 
Q 37.203125 6.109375 41.296875 11.75 
Q 45.40625 17.390625 45.40625 27.296875 
Q 45.40625 37.203125 41.296875 42.84375 
Q 37.203125 48.484375 30.078125 48.484375 
Q 22.953125 48.484375 18.875 42.84375 
Q 14.796875 37.203125 14.796875 27.296875 
z
" id="DejaVuSans-100"/>
       <path d="M 34.28125 27.484375 
Q 23.390625 27.484375 19.1875 25 
Q 14.984375 22.515625 14.984375 16.5 
Q 14.984375 11.71875 18.140625 8.90625 
Q 21.296875 6.109375 26.703125 6.109375 
Q 34.1875 6.109375 38.703125 11.40625 
Q 43.21875 16.703125 43.21875 25.484375 
L 43.21875 27.484375 
z
M 52.203125 31.203125 
L 52.203125 0 
L 43.21875 0 
L 43.21875 8.296875 
Q 40.140625 3.328125 35.546875 0.953125 
Q 30.953125 -1.421875 24.3125 -1.421875 
Q 15.921875 -1.421875 10.953125 3.296875 
Q 6 8.015625 6 15.921875 
Q 6 25.140625 12.171875 29.828125 
Q 18.359375 34.515625 30.609375 34.515625 
L 43.21875 34.515625 
L 43.21875 35.40625 
Q 43.21875 41.609375 39.140625 45 
Q 35.0625 48.390625 27.6875 48.390625 
Q 23 48.390625 18.546875 47.265625 
Q 14.109375 46.140625 10.015625 43.890625 
L 10.015625 52.203125 
Q 14.9375 54.109375 19.578125 55.046875 
Q 24.21875 56 28.609375 56 
Q 40.484375 56 46.34375 49.84375 
Q 52.203125 43.703125 52.203125 31.203125 
z
" id="DejaVuSans-97"/>
       <path d="M 18.109375 8.203125 
L 18.109375 -20.796875 
L 9.078125 -20.796875 
L 9.078125 54.6875 
L 18.109375 54.6875 
L 18.109375 46.390625 
Q 20.953125 51.265625 25.265625 53.625 
Q 29.59375 56 35.59375 56 
Q 45.5625 56 51.78125 48.09375 
Q 58.015625 40.1875 58.015625 27.296875 
Q 58.015625 14.40625 51.78125 6.484375 
Q 45.5625 -1.421875 35.59375 -1.421875 
Q 29.59375 -1.421875 25.265625 0.953125 
Q 20.953125 3.328125 18.109375 8.203125 
z
M 48.6875 27.296875 
Q 48.6875 37.203125 44.609375 42.84375 
Q 40.53125 48.484375 33.40625 48.484375 
Q 26.265625 48.484375 22.1875 42.84375 
Q 18.109375 37.203125 18.109375 27.296875 
Q 18.109375 17.390625 22.1875 11.75 
Q 26.265625 6.109375 33.40625 6.109375 
Q 40.53125 6.109375 44.609375 11.75 
Q 48.6875 17.390625 48.6875 27.296875 
z
" id="DejaVuSans-112"/>
       <path d="M 18.3125 70.21875 
L 18.3125 54.6875 
L 36.8125 54.6875 
L 36.8125 47.703125 
L 18.3125 47.703125 
L 18.3125 18.015625 
Q 18.3125 11.328125 20.140625 9.421875 
Q 21.96875 7.515625 27.59375 7.515625 
L 36.8125 7.515625 
L 36.8125 0 
L 27.59375 0 
Q 17.1875 0 13.234375 3.875 
Q 9.28125 7.765625 9.28125 18.015625 
L 9.28125 47.703125 
L 2.6875 47.703125 
L 2.6875 54.6875 
L 9.28125 54.6875 
L 9.28125 70.21875 
z
" id="DejaVuSans-116"/>
       <path d="M 9.421875 54.6875 
L 18.40625 54.6875 
L 18.40625 0 
L 9.421875 0 
z
M 9.421875 75.984375 
L 18.40625 75.984375 
L 18.40625 64.59375 
L 9.421875 64.59375 
z
" id="DejaVuSans-105"/>
       <path d="M 30.609375 48.390625 
Q 23.390625 48.390625 19.1875 42.75 
Q 14.984375 37.109375 14.984375 27.296875 
Q 14.984375 17.484375 19.15625 11.84375 
Q 23.34375 6.203125 30.609375 6.203125 
Q 37.796875 6.203125 41.984375 11.859375 
Q 46.1875 17.53125 46.1875 27.296875 
Q 46.1875 37.015625 41.984375 42.703125 
Q 37.796875 48.390625 30.609375 48.390625 
z
M 30.609375 56 
Q 42.328125 56 49.015625 48.375 
Q 55.71875 40.765625 55.71875 27.296875 
Q 55.71875 13.875 49.015625 6.21875 
Q 42.328125 -1.421875 30.609375 -1.421875 
Q 18.84375 -1.421875 12.171875 6.21875 
Q 5.515625 13.875 5.515625 27.296875 
Q 5.515625 40.765625 12.171875 48.375 
Q 18.84375 56 30.609375 56 
z
" id="DejaVuSans-111"/>
       <path d="M 54.890625 33.015625 
L 54.890625 0 
L 45.90625 0 
L 45.90625 32.71875 
Q 45.90625 40.484375 42.875 44.328125 
Q 39.84375 48.1875 33.796875 48.1875 
Q 26.515625 48.1875 22.3125 43.546875 
Q 18.109375 38.921875 18.109375 30.90625 
L 18.109375 0 
L 9.078125 0 
L 9.078125 54.6875 
L 18.109375 54.6875 
L 18.109375 46.1875 
Q 21.34375 51.125 25.703125 53.5625 
Q 30.078125 56 35.796875 56 
Q 45.21875 56 50.046875 50.171875 
Q 54.890625 44.34375 54.890625 33.015625 
z
" id="DejaVuSans-110"/>
      </defs>
      <use xlink:href="#DejaVuSans-65"/>
      <use x="66.658203" xlink:href="#DejaVuSans-100"/>
      <use x="130.134766" xlink:href="#DejaVuSans-97"/>
      <use x="191.414062" xlink:href="#DejaVuSans-112"/>
      <use x="254.890625" xlink:href="#DejaVuSans-116"/>
      <use x="294.099609" xlink:href="#DejaVuSans-97"/>
      <use x="355.378906" xlink:href="#DejaVuSans-116"/>
      <use x="394.587891" xlink:href="#DejaVuSans-105"/>
      <use x="422.371094" xlink:href="#DejaVuSans-111"/>
      <use x="483.552734" xlink:href="#DejaVuSans-110"/>
     </g>
    </g>
   </g>
   <g id="line2d_7">
    <path clip-path="url(#pdbf08df180)" d="M 58.498735 73.299336 
L 61.70588 73.299336 
L 61.927063 114.372752 
L 65.023617 114.372752 
L 65.244799 32.225921 
L 68.341353 32.225921 
L 68.562535 114.372752 
L 71.659089 114.372752 
L 71.880272 32.225921 
L 74.976825 32.225921 
L 75.198008 73.299336 
L 78.294562 73.299336 
L 78.515744 32.225921 
L 81.612298 32.225921 
L 81.83348 114.372752 
L 84.930034 114.372752 
L 85.151217 32.225921 
L 88.24777 32.225921 
L 88.468953 114.372752 
L 91.565507 114.372752 
L 91.786689 73.299336 
L 98.200979 73.299336 
L 98.422162 32.225921 
L 101.518715 32.225921 
L 101.739898 114.372752 
L 104.836452 114.372752 
L 105.057634 32.225921 
L 108.154188 32.225921 
L 108.37537 114.372752 
L 111.471924 114.372752 
L 111.693107 73.299336 
L 114.78966 73.299336 
L 115.010843 114.372752 
L 118.107397 114.372752 
L 118.328579 32.225921 
L 121.425133 32.225921 
L 121.646315 114.372752 
L 124.742869 114.372752 
L 124.964052 32.225921 
L 128.060605 32.225921 
L 128.281788 73.299336 
L 134.696078 73.299336 
L 134.91726 114.372752 
L 138.013814 114.372752 
L 138.234997 32.225921 
L 141.331551 32.225921 
L 141.552733 114.372752 
L 144.649287 114.372752 
L 144.870469 32.225921 
L 147.967023 32.225921 
L 148.188205 73.299336 
L 151.284759 73.299336 
L 151.505942 32.225921 
L 154.602496 32.225921 
L 154.823678 114.372752 
L 157.920232 114.372752 
L 158.141414 32.225921 
L 161.237968 32.225921 
L 161.45915 114.372752 
L 164.555704 114.372752 
L 164.776887 73.299336 
L 167.873441 73.299336 
L 167.873441 73.299336 
" style="fill:none;stroke:#000000;stroke-linecap:square;stroke-width:1.5;"/>
   </g>
   <g id="line2d_8">
    <path clip-path="url(#pdbf08df180)" d="M 58.498735 73.344778 
L 58.609326 65.857378 
L 58.9411 82.027323 
L 59.051691 68.985121 
L 59.162283 73.263087 
L 59.272874 72.115293 
L 59.383465 69.672089 
L 59.604647 74.569539 
L 59.82583 71.917649 
L 59.936421 73.002572 
L 60.047012 72.586634 
L 60.157603 70.640229 
L 60.268195 73.067741 
L 60.378786 70.514609 
L 60.489377 74.840332 
L 60.599968 70.373479 
L 60.710559 71.902142 
L 60.821151 67.103229 
L 60.931742 70.602767 
L 61.042333 70.045475 
L 61.152924 74.752936 
L 61.374107 66.993885 
L 61.484698 71.737459 
L 61.70588 68.326847 
L 61.927063 82.288743 
L 62.037654 82.01493 
L 62.148245 82.960488 
L 62.258836 82.727297 
L 62.369428 91.101427 
L 62.480019 88.430582 
L 62.59061 92.545854 
L 62.701201 92.206997 
L 62.922384 98.673749 
L 63.032975 89.892865 
L 63.143566 92.74666 
L 63.254157 91.76131 
L 63.47534 99.211589 
L 63.585931 94.998492 
L 63.696522 98.274529 
L 63.807113 93.026887 
L 64.028296 102.066952 
L 64.138887 102.138936 
L 64.249478 98.457876 
L 64.360069 100.0894 
L 64.470661 108.672214 
L 64.581252 100.063218 
L 64.691843 103.575992 
L 64.802434 112.508501 
L 64.913025 102.540806 
L 65.023617 103.712818 
L 65.244799 73.270131 
L 65.35539 64.337349 
L 65.465981 68.811105 
L 65.576573 63.326292 
L 65.687164 66.45595 
L 66.129529 53.646583 
L 66.24012 57.440754 
L 66.350711 49.62 
L 66.461302 50.526163 
L 66.571893 47.064396 
L 66.682485 47.856288 
L 66.793076 47.446926 
L 66.903667 52.337696 
L 67.014258 51.872543 
L 67.235441 46.641136 
L 67.346032 47.149484 
L 67.456623 49.382722 
L 67.567214 47.607484 
L 67.788397 40.38121 
L 67.898988 45.547263 
L 68.009579 39.779108 
L 68.12017 48.614212 
L 68.230762 42.495465 
L 68.341353 46.381866 
L 68.562535 109.72033 
L 68.673126 109.780176 
L 68.783718 101.127968 
L 68.894309 102.053768 
L 69.0049 105.102408 
L 69.115491 105.087143 
L 69.336674 106.823628 
L 69.447265 104.819825 
L 69.557856 99.337949 
L 69.88963 106.661676 
L 70.110812 100.820775 
L 70.221403 111.661027 
L 70.442586 102.78549 
L 70.553177 106.630969 
L 70.774359 103.011402 
L 70.884951 108.540659 
L 71.106133 107.288256 
L 71.216724 116.046826 
L 71.327315 106.129366 
L 71.437907 110.040573 
L 71.659089 104.479465 
L 71.880272 44.637083 
L 71.990863 51.758107 
L 72.212045 42.370477 
L 72.322636 46.723971 
L 72.433228 42.788062 
L 72.543819 49.263272 
L 72.875592 42.621863 
L 72.986184 44.816433 
L 73.096775 44.636095 
L 73.428548 37.084913 
L 73.53914 41.102471 
L 73.649731 40.816791 
L 73.760322 38.834649 
L 73.981504 44.668029 
L 74.092096 42.64342 
L 74.202687 35.35828 
L 74.423869 43.590426 
L 74.534461 37.994642 
L 74.645052 48.623834 
L 74.866234 36.529259 
L 74.976825 40.640036 
L 75.198008 74.068481 
L 75.308599 75.809388 
L 75.41919 73.815091 
L 75.640373 74.986839 
L 75.750964 71.799365 
L 76.082737 78.408849 
L 76.193329 70.892966 
L 76.525102 75.182767 
L 76.635693 72.639837 
L 76.856876 80.040622 
L 76.967467 71.324508 
L 77.078058 77.321255 
L 77.18865 74.34855 
L 77.299241 67.784194 
L 77.520423 77.58296 
L 77.631014 73.349358 
L 77.741606 76.151836 
L 77.852197 73.042802 
L 77.962788 75.646246 
L 78.073379 69.913659 
L 78.18397 75.873186 
L 78.294562 71.728297 
L 78.515744 44.348102 
L 78.626335 43.282581 
L 78.736926 35.078203 
L 78.847518 36.726727 
L 78.958109 44.853935 
L 79.179291 40.267814 
L 79.289882 41.080594 
L 79.400474 40.613064 
L 79.511065 36.229937 
L 79.732247 42.114168 
L 79.842839 36.481049 
L 79.95343 41.079663 
L 80.064021 37.680612 
L 80.174612 39.800033 
L 80.395795 34.624751 
L 80.616977 44.290145 
L 80.727568 33.422652 
L 80.838159 39.614743 
L 80.948751 38.514125 
L 81.169933 39.404658 
L 81.280524 35.105301 
L 81.391115 36.96191 
L 81.501707 30.748641 
L 81.612298 41.464702 
L 81.83348 109.649465 
L 82.054663 106.278954 
L 82.165254 109.605905 
L 82.275845 105.323671 
L 82.386436 109.393058 
L 82.497028 105.522528 
L 82.607619 106.394792 
L 82.71821 99.385023 
L 82.939392 109.328827 
L 83.049984 102.943808 
L 83.271166 109.398705 
L 83.60294 104.309267 
L 83.934713 112.124144 
L 84.266487 102.773745 
L 84.377078 108.024336 
L 84.487669 107.854866 
L 84.59826 104.903734 
L 84.819443 109.391825 
L 84.930034 106.018312 
L 85.151217 38.683484 
L 85.261808 42.42914 
L 85.372399 37.011121 
L 85.593581 38.937814 
L 85.704173 38.560665 
L 85.925355 43.025404 
L 86.035946 36.813658 
L 86.257129 41.492312 
L 86.36772 38.475811 
L 86.478311 40.300574 
L 86.588902 34.960215 
L 86.699493 40.969918 
L 86.810085 37.291058 
L 87.031267 42.87114 
L 87.141858 36.353629 
L 87.25245 39.941609 
L 87.473632 37.681995 
L 87.584223 32.918174 
L 87.805406 37.342369 
L 87.915997 33.943191 
L 88.026588 38.651835 
L 88.137179 36.126793 
L 88.24777 36.428485 
L 88.358362 113.330593 
L 88.579544 103.831278 
L 88.690135 110.229437 
L 88.800726 102.394141 
L 88.911318 112.683821 
L 89.021909 104.326882 
L 89.1325 115.195756 
L 89.353682 108.62426 
L 89.464274 113.022218 
L 89.796047 100.685551 
L 89.906639 113.817247 
L 90.127821 108.240996 
L 90.238412 111.863312 
L 90.349003 110.713897 
L 90.459595 105.764119 
L 90.570186 112.766973 
L 90.680777 105.104583 
L 90.791368 108.39845 
L 90.901959 108.372979 
L 91.012551 106.036386 
L 91.123142 106.873246 
L 91.233733 104.28557 
L 91.344324 111.193283 
L 91.454915 105.324916 
L 91.565507 109.007951 
L 91.786689 74.965973 
L 91.89728 77.565615 
L 92.118463 71.118533 
L 92.339645 74.46944 
L 92.450236 62.708167 
L 92.78201 76.687106 
L 92.892601 74.218848 
L 93.003192 74.256859 
L 93.334966 72.021218 
L 93.556148 68.02947 
L 93.66674 72.386461 
L 93.887922 70.065247 
L 93.998513 72.90936 
L 94.109104 71.482267 
L 94.219696 77.687227 
L 94.440878 72.908205 
L 94.551469 72.935281 
L 94.66206 70.648486 
L 94.772652 74.195839 
L 94.883243 73.319122 
L 94.993834 78.17225 
L 95.215017 69.245319 
L 95.325608 77.644384 
L 95.436199 74.217385 
L 95.657381 76.319628 
L 95.878564 73.062702 
L 95.989155 72.987681 
L 96.099746 74.719337 
L 96.320929 74.009974 
L 96.43152 73.775236 
L 96.652702 72.087174 
L 96.763293 73.815183 
L 96.984476 68.236612 
L 97.205658 77.671417 
L 97.316249 69.111446 
L 97.426841 76.767445 
L 97.537432 73.288921 
L 97.648023 75.483953 
L 97.758614 70.932519 
L 97.869206 81.08465 
L 98.090388 73.710787 
L 98.200979 74.76271 
L 98.31157 37.606259 
L 98.422162 38.219027 
L 98.532753 34.52555 
L 98.753935 40.371721 
L 98.864526 36.873826 
L 98.975118 40.013567 
L 99.085709 35.645394 
L 99.1963 39.630176 
L 99.306891 35.119838 
L 99.528074 41.959951 
L 99.638665 34.207417 
L 99.749256 34.67824 
L 99.970438 39.780901 
L 100.08103 40.276042 
L 100.191621 37.724396 
L 100.302212 32.249411 
L 100.412803 40.221147 
L 100.523395 39.347384 
L 100.633986 39.8801 
L 100.744577 33.325058 
L 100.855168 33.391912 
L 100.965759 35.027009 
L 101.076351 38.715884 
L 101.186942 33.95788 
L 101.408124 40.643402 
L 101.518715 32.501733 
L 101.739898 111.611947 
L 102.071671 105.818563 
L 102.292854 108.926929 
L 102.403445 104.176109 
L 102.514036 116.771513 
L 102.624627 102.643832 
L 102.735219 116.202901 
L 102.84581 107.245196 
L 102.956401 112.074188 
L 103.177584 108.783775 
L 103.288175 113.057434 
L 103.398766 109.668759 
L 103.509357 110.940427 
L 103.619948 108.804457 
L 103.73054 103.964973 
L 103.951722 109.449387 
L 104.062313 111.817134 
L 104.172904 109.162462 
L 104.283496 112.823845 
L 104.504678 108.662118 
L 104.615269 112.03532 
L 104.72586 107.235535 
L 104.836452 107.505981 
L 105.057634 33.524599 
L 105.168225 32.384146 
L 105.278817 36.031557 
L 105.389408 30.374267 
L 105.499999 41.176533 
L 105.61059 41.001068 
L 105.831773 38.077713 
L 105.942364 34.089109 
L 106.052955 39.415512 
L 106.163546 35.689513 
L 106.384729 39.788604 
L 106.49532 38.334941 
L 106.605911 34.13091 
L 106.716502 34.243386 
L 106.827093 38.311101 
L 106.937685 33.600345 
L 107.048276 45.62489 
L 107.269458 34.38748 
L 107.490641 38.95138 
L 107.601232 41.158207 
L 107.711823 30.090727 
L 107.822414 39.476365 
L 107.933006 37.070545 
L 108.043597 41.193205 
L 108.154188 39.76707 
L 108.37537 112.46457 
L 108.707144 106.58716 
L 108.817735 111.821079 
L 108.928326 105.69397 
L 109.038918 113.767309 
L 109.370691 103.067353 
L 109.591874 114.387593 
L 109.813056 101.840611 
L 109.923647 107.815099 
L 110.034238 102.9578 
L 110.14483 113.633184 
L 110.366012 110.164469 
L 110.476603 109.811726 
L 110.587195 113.034238 
L 110.697786 111.162778 
L 110.808377 106.831853 
L 111.140151 111.430434 
L 111.250742 111.148382 
L 111.471924 112.07191 
L 111.693107 75.367683 
L 111.803698 75.359966 
L 111.914289 80.375629 
L 112.02488 70.762873 
L 112.246063 72.686002 
L 112.356654 72.079317 
L 112.467245 73.935466 
L 112.577836 71.551681 
L 112.688427 78.065654 
L 112.90961 75.702798 
L 113.020201 76.972495 
L 113.130792 71.374194 
L 113.351975 74.169839 
L 113.462566 79.672032 
L 113.573157 73.402352 
L 113.79434 74.761348 
L 113.904931 73.857105 
L 114.015522 71.703437 
L 114.236704 77.587051 
L 114.457887 73.105427 
L 114.568478 77.05223 
L 114.679069 69.113819 
L 114.78966 71.04031 
L 115.010843 111.943184 
L 115.121434 107.723747 
L 115.232025 110.919431 
L 115.453208 107.8753 
L 115.67439 111.952884 
L 115.895573 102.540119 
L 116.006164 110.941795 
L 116.116755 106.879251 
L 116.337937 111.757326 
L 116.448529 110.737932 
L 116.55912 107.912566 
L 116.669711 113.358829 
L 116.780302 107.488896 
L 116.890893 112.894068 
L 117.112076 110.322639 
L 117.333258 112.088868 
L 117.443849 115.484102 
L 117.554441 106.540374 
L 117.665032 108.856575 
L 117.775623 107.511137 
L 117.886214 112.85359 
L 118.107397 110.104058 
L 118.217988 35.337303 
L 118.328579 37.576892 
L 118.43917 36.120607 
L 118.549762 37.229757 
L 118.660353 33.096195 
L 118.881535 38.157444 
L 118.992126 38.702344 
L 119.102718 41.818644 
L 119.213309 33.709018 
L 119.434491 38.574527 
L 119.545082 34.673509 
L 119.655674 38.129512 
L 119.766265 36.395973 
L 119.876856 32.486642 
L 119.987447 37.728622 
L 120.098038 35.881033 
L 120.20863 41.299267 
L 120.319221 37.784097 
L 120.429812 42.097537 
L 120.650994 37.721309 
L 120.761586 38.389034 
L 120.872177 31.761441 
L 120.982768 33.599081 
L 121.093359 38.919864 
L 121.314542 31.510519 
L 121.425133 38.849974 
L 121.535724 109.919944 
L 121.646315 107.804692 
L 121.756907 109.060136 
L 121.867498 107.595364 
L 121.978089 112.809449 
L 122.199271 111.450749 
L 122.309863 114.753125 
L 122.420454 114.589689 
L 122.641636 109.494365 
L 122.752227 110.121048 
L 122.862819 109.795724 
L 122.97341 109.05145 
L 123.084001 114.261351 
L 123.194592 106.320795 
L 123.305184 108.210261 
L 123.526366 113.182093 
L 123.636957 109.010643 
L 123.747548 110.619519 
L 123.85814 102.344635 
L 124.079322 110.273735 
L 124.300504 115.272993 
L 124.411096 109.305045 
L 124.521687 110.05963 
L 124.632278 111.76739 
L 124.742869 109.658386 
L 124.85346 38.590682 
L 124.964052 38.74809 
L 125.074643 35.262198 
L 125.185234 38.057115 
L 125.295825 36.842325 
L 125.406416 38.358288 
L 125.627599 31.609961 
L 125.848781 36.13208 
L 125.959373 36.656866 
L 126.069964 39.125571 
L 126.291146 36.035557 
L 126.401737 37.038048 
L 126.512329 30.272673 
L 126.62292 36.893258 
L 126.733511 35.349973 
L 126.844102 31.998203 
L 127.065285 41.811504 
L 127.175876 32.515006 
L 127.397058 41.135948 
L 127.618241 38.140645 
L 127.728832 40.846951 
L 127.839423 35.564046 
L 128.060605 38.788972 
L 128.281788 75.321853 
L 128.392379 77.890424 
L 128.613562 67.598639 
L 128.834744 76.643955 
L 128.945335 80.291256 
L 129.055926 70.610045 
L 129.277109 79.184215 
L 129.3877 72.937153 
L 129.498291 74.836768 
L 129.608882 80.845005 
L 129.719474 66.174377 
L 129.940656 76.564997 
L 130.051247 76.13679 
L 130.161838 73.645444 
L 130.27243 65.483917 
L 130.383021 78.155549 
L 130.714794 70.715633 
L 130.825386 69.347334 
L 130.935977 72.137996 
L 131.046568 70.856217 
L 131.157159 72.496844 
L 131.378342 76.468218 
L 131.488933 75.667151 
L 131.599524 73.091598 
L 131.820707 75.43945 
L 131.931298 68.657555 
L 132.15248 75.256916 
L 132.263071 68.125282 
L 132.484254 78.731939 
L 132.594845 71.142973 
L 132.816027 78.236002 
L 132.926619 71.108109 
L 133.03721 74.919172 
L 133.147801 71.749658 
L 133.258392 76.317718 
L 133.368983 74.073518 
L 133.479575 76.860538 
L 133.700757 71.909734 
L 133.811348 76.66055 
L 134.032531 71.585228 
L 134.253713 77.434257 
L 134.364304 70.705526 
L 134.474896 73.223967 
L 134.585487 71.788015 
L 134.696078 75.88394 
L 134.91726 114.037716 
L 135.027852 110.407122 
L 135.138443 114.178648 
L 135.249034 108.662599 
L 135.470216 112.320025 
L 135.80199 109.619811 
L 135.912581 112.622852 
L 136.023172 106.080268 
L 136.133764 106.35558 
L 136.354946 114.738698 
L 136.576129 105.51753 
L 136.797311 109.179103 
L 136.907902 106.945692 
L 137.018493 113.490941 
L 137.129085 108.209013 
L 137.350267 114.833858 
L 137.571449 108.670624 
L 137.682041 115.306846 
L 137.792632 114.781554 
L 138.013814 104.204292 
L 138.234997 30.422086 
L 138.345588 30.923699 
L 138.56677 40.711413 
L 138.677361 36.66146 
L 138.787953 38.059005 
L 139.009135 34.905217 
L 139.119726 39.761315 
L 139.230318 33.844615 
L 139.4515 37.46511 
L 139.562091 36.973375 
L 139.672682 31.210083 
L 139.893865 37.287137 
L 140.004456 38.834509 
L 140.115047 34.151188 
L 140.33623 35.86257 
L 140.446821 32.439392 
L 140.557412 35.425808 
L 140.668003 31.939495 
L 140.889186 39.327293 
L 140.999777 38.900223 
L 141.110368 35.838083 
L 141.220959 36.070374 
L 141.331551 29.792121 
L 141.552733 113.203709 
L 141.663324 105.316047 
L 141.773915 114.302668 
L 141.884507 113.811884 
L 142.105689 104.712673 
L 142.437463 111.208897 
L 142.548054 108.798764 
L 142.769236 111.758279 
L 142.879827 107.776516 
L 142.990419 112.382847 
L 143.10101 110.873272 
L 143.211601 111.896672 
L 143.322192 110.355298 
L 143.543375 113.895559 
L 143.653966 109.989576 
L 143.764557 114.729232 
L 143.98574 107.125964 
L 144.096331 108.486357 
L 144.206922 112.257082 
L 144.317513 105.880393 
L 144.428104 111.550588 
L 144.649287 110.952153 
L 144.870469 36.797667 
L 144.98106 35.29136 
L 145.091652 38.805974 
L 145.202243 34.5846 
L 145.312834 38.289138 
L 145.423425 35.288697 
L 145.644608 39.97767 
L 145.755199 33.760767 
L 145.976381 39.91669 
L 146.086972 34.637369 
L 146.197564 37.284476 
L 146.308155 32.56569 
L 146.529337 39.796145 
L 146.639929 33.71005 
L 146.861111 40.035384 
L 146.971702 39.559499 
L 147.082293 37.695862 
L 147.192885 41.54594 
L 147.414067 38.275589 
L 147.524658 38.089096 
L 147.635249 38.664982 
L 147.745841 34.856802 
L 147.856432 34.969769 
L 147.967023 33.992803 
L 148.188205 76.481939 
L 148.519979 67.840114 
L 148.741161 74.333976 
L 148.962344 69.465207 
L 149.072935 70.226832 
L 149.183526 72.113226 
L 149.294118 71.23676 
L 149.404709 79.706137 
L 149.625891 71.513841 
L 149.736482 71.700347 
L 149.847074 75.826301 
L 149.957665 74.329881 
L 150.068256 74.431221 
L 150.178847 80.616201 
L 150.40003 69.667383 
L 150.621212 73.617195 
L 150.842394 68.894239 
L 150.952986 74.768398 
L 151.174168 69.946311 
L 151.284759 75.183953 
L 151.39535 34.597896 
L 151.505942 36.550989 
L 151.616533 42.139375 
L 151.727124 38.840417 
L 151.837715 40.651025 
L 151.948307 30.919934 
L 152.169489 42.102403 
L 152.390671 30.007721 
L 152.501263 42.56261 
L 152.611854 40.166468 
L 152.722445 40.365658 
L 152.833036 42.550019 
L 152.943627 35.123476 
L 153.16481 39.541553 
L 153.275401 33.456238 
L 153.385992 39.858657 
L 153.607175 32.297569 
L 153.717766 33.416236 
L 153.828357 31.298726 
L 153.938948 32.771858 
L 154.049539 40.139036 
L 154.160131 35.007111 
L 154.270722 35.786645 
L 154.602496 31.687655 
L 154.713087 111.789788 
L 154.823678 106.027407 
L 154.934269 110.628178 
L 155.04486 105.149459 
L 155.155452 109.501412 
L 155.266043 109.372322 
L 155.376634 112.523531 
L 155.597816 110.622663 
L 155.708408 114.404659 
L 155.92959 106.805731 
L 156.040181 107.844648 
L 156.150772 104.054601 
L 156.261364 106.481371 
L 156.371955 105.796315 
L 156.482546 106.469211 
L 156.703729 110.850279 
L 156.81432 115.209141 
L 156.924911 108.643421 
L 157.035502 111.922063 
L 157.146093 108.063299 
L 157.256685 108.238293 
L 157.367276 112.127554 
L 157.588458 107.322367 
L 157.699049 108.605618 
L 157.920232 116.834545 
L 158.141414 34.858347 
L 158.362597 40.837417 
L 158.473188 33.33941 
L 158.583779 38.963033 
L 158.69437 38.875889 
L 158.915553 33.54672 
L 159.026144 42.756636 
L 159.136735 30.523545 
L 159.247326 33.316916 
L 159.468509 30.957615 
L 159.5791 37.066449 
L 159.689691 35.135185 
L 159.800282 37.663166 
L 159.910874 35.590424 
L 160.021465 31.074662 
L 160.132056 40.747099 
L 160.353238 33.819186 
L 160.46383 37.369318 
L 160.574421 33.727081 
L 160.685012 36.263472 
L 160.795603 34.734675 
L 160.906194 35.905947 
L 161.127377 33.112836 
L 161.237968 37.116448 
L 161.45915 109.476699 
L 161.569742 107.728164 
L 161.680333 113.13143 
L 161.901515 106.84437 
L 162.122698 113.212836 
L 162.233289 109.29635 
L 162.34388 110.841006 
L 162.454471 109.368615 
L 162.565063 115.015793 
L 162.675654 106.435032 
L 162.896836 114.543622 
L 163.007427 113.087587 
L 163.118019 105.946215 
L 163.22861 113.345566 
L 163.339201 106.522543 
L 163.560383 112.308993 
L 163.670975 107.139347 
L 163.781566 111.542113 
L 164.002748 107.06237 
L 164.113339 106.502886 
L 164.223931 113.247525 
L 164.445113 106.430991 
L 164.555704 105.824659 
L 164.666296 70.305665 
L 164.776887 74.522299 
L 164.887478 74.421053 
L 164.998069 80.017404 
L 165.219252 73.305936 
L 165.329843 74.895086 
L 165.440434 80.501905 
L 165.551025 71.494987 
L 165.661616 77.544975 
L 165.772208 74.44713 
L 165.99339 77.95358 
L 166.214572 70.562188 
L 166.325164 74.648658 
L 166.435755 70.560655 
L 166.656937 76.271938 
L 166.87812 67.066267 
L 167.099302 76.334144 
L 167.209893 77.242528 
L 167.320485 75.217313 
L 167.431076 79.782469 
L 167.541667 75.34225 
L 167.652258 77.011832 
L 167.762849 76.926986 
L 167.873441 75.575649 
L 167.873441 75.575649 
" style="fill:none;stroke:#1f77b4;stroke-linecap:square;stroke-width:1.5;"/>
   </g>
   <g id="patch_3">
    <path d="M 53.03 121.186667 
L 53.03 25.44 
" style="fill:none;stroke:#000000;stroke-linecap:square;stroke-linejoin:miter;stroke-width:0.8;"/>
   </g>
   <g id="patch_4">
    <path d="M 173.342176 121.186667 
L 173.342176 25.44 
" style="fill:none;stroke:#000000;stroke-linecap:square;stroke-linejoin:miter;stroke-width:0.8;"/>
   </g>
   <g id="patch_5">
    <path d="M 53.03 121.186667 
L 173.342176 121.186667 
" style="fill:none;stroke:#000000;stroke-linecap:square;stroke-linejoin:miter;stroke-width:0.8;"/>
   </g>
   <g id="patch_6">
    <path d="M 53.03 25.44 
L 173.342176 25.44 
" style="fill:none;stroke:#000000;stroke-linecap:square;stroke-linejoin:miter;stroke-width:0.8;"/>
   </g>
   <g id="text_8">
    <!-- A -->
    <g transform="translate(40.998782 25.44)scale(0.14 -0.14)">
     <use xlink:href="#DejaVuSans-65"/>
    </g>
   </g>
   <g id="text_9">
    <!-- Simulations -->
    <g transform="translate(78.101088 19.44)scale(0.12 -0.12)">
     <defs>
      <path d="M 53.515625 70.515625 
L 53.515625 60.890625 
Q 47.90625 63.578125 42.921875 64.890625 
Q 37.9375 66.21875 33.296875 66.21875 
Q 25.25 66.21875 20.875 63.09375 
Q 16.5 59.96875 16.5 54.203125 
Q 16.5 49.359375 19.40625 46.890625 
Q 22.3125 44.4375 30.421875 42.921875 
L 36.375 41.703125 
Q 47.40625 39.59375 52.65625 34.296875 
Q 57.90625 29 57.90625 20.125 
Q 57.90625 9.515625 50.796875 4.046875 
Q 43.703125 -1.421875 29.984375 -1.421875 
Q 24.8125 -1.421875 18.96875 -0.25 
Q 13.140625 0.921875 6.890625 3.21875 
L 6.890625 13.375 
Q 12.890625 10.015625 18.65625 8.296875 
Q 24.421875 6.59375 29.984375 6.59375 
Q 38.421875 6.59375 43.015625 9.90625 
Q 47.609375 13.234375 47.609375 19.390625 
Q 47.609375 24.75 44.3125 27.78125 
Q 41.015625 30.8125 33.5 32.328125 
L 27.484375 33.5 
Q 16.453125 35.6875 11.515625 40.375 
Q 6.59375 45.0625 6.59375 53.421875 
Q 6.59375 63.09375 13.40625 68.65625 
Q 20.21875 74.21875 32.171875 74.21875 
Q 37.3125 74.21875 42.625 73.28125 
Q 47.953125 72.359375 53.515625 70.515625 
z
" id="DejaVuSans-83"/>
      <path d="M 52 44.1875 
Q 55.375 50.25 60.0625 53.125 
Q 64.75 56 71.09375 56 
Q 79.640625 56 84.28125 50.015625 
Q 88.921875 44.046875 88.921875 33.015625 
L 88.921875 0 
L 79.890625 0 
L 79.890625 32.71875 
Q 79.890625 40.578125 77.09375 44.375 
Q 74.3125 48.1875 68.609375 48.1875 
Q 61.625 48.1875 57.5625 43.546875 
Q 53.515625 38.921875 53.515625 30.90625 
L 53.515625 0 
L 44.484375 0 
L 44.484375 32.71875 
Q 44.484375 40.625 41.703125 44.40625 
Q 38.921875 48.1875 33.109375 48.1875 
Q 26.21875 48.1875 22.15625 43.53125 
Q 18.109375 38.875 18.109375 30.90625 
L 18.109375 0 
L 9.078125 0 
L 9.078125 54.6875 
L 18.109375 54.6875 
L 18.109375 46.1875 
Q 21.1875 51.21875 25.484375 53.609375 
Q 29.78125 56 35.6875 56 
Q 41.65625 56 45.828125 52.96875 
Q 50 49.953125 52 44.1875 
z
" id="DejaVuSans-109"/>
      <path d="M 8.5 21.578125 
L 8.5 54.6875 
L 17.484375 54.6875 
L 17.484375 21.921875 
Q 17.484375 14.15625 20.5 10.265625 
Q 23.53125 6.390625 29.59375 6.390625 
Q 36.859375 6.390625 41.078125 11.03125 
Q 45.3125 15.671875 45.3125 23.6875 
L 45.3125 54.6875 
L 54.296875 54.6875 
L 54.296875 0 
L 45.3125 0 
L 45.3125 8.40625 
Q 42.046875 3.421875 37.71875 1 
Q 33.40625 -1.421875 27.6875 -1.421875 
Q 18.265625 -1.421875 13.375 4.4375 
Q 8.5 10.296875 8.5 21.578125 
z
M 31.109375 56 
z
" id="DejaVuSans-117"/>
      <path d="M 9.421875 75.984375 
L 18.40625 75.984375 
L 18.40625 0 
L 9.421875 0 
z
" id="DejaVuSans-108"/>
      <path d="M 44.28125 53.078125 
L 44.28125 44.578125 
Q 40.484375 46.53125 36.375 47.5 
Q 32.28125 48.484375 27.875 48.484375 
Q 21.1875 48.484375 17.84375 46.4375 
Q 14.5 44.390625 14.5 40.28125 
Q 14.5 37.15625 16.890625 35.375 
Q 19.28125 33.59375 26.515625 31.984375 
L 29.59375 31.296875 
Q 39.15625 29.25 43.1875 25.515625 
Q 47.21875 21.78125 47.21875 15.09375 
Q 47.21875 7.46875 41.1875 3.015625 
Q 35.15625 -1.421875 24.609375 -1.421875 
Q 20.21875 -1.421875 15.453125 -0.5625 
Q 10.6875 0.296875 5.421875 2 
L 5.421875 11.28125 
Q 10.40625 8.6875 15.234375 7.390625 
Q 20.0625 6.109375 24.8125 6.109375 
Q 31.15625 6.109375 34.5625 8.28125 
Q 37.984375 10.453125 37.984375 14.40625 
Q 37.984375 18.0625 35.515625 20.015625 
Q 33.0625 21.96875 24.703125 23.78125 
L 21.578125 24.515625 
Q 13.234375 26.265625 9.515625 29.90625 
Q 5.8125 33.546875 5.8125 39.890625 
Q 5.8125 47.609375 11.28125 51.796875 
Q 16.75 56 26.8125 56 
Q 31.78125 56 36.171875 55.265625 
Q 40.578125 54.546875 44.28125 53.078125 
z
" id="DejaVuSans-115"/>
     </defs>
     <use xlink:href="#DejaVuSans-83"/>
     <use x="63.476562" xlink:href="#DejaVuSans-105"/>
     <use x="91.259766" xlink:href="#DejaVuSans-109"/>
     <use x="188.671875" xlink:href="#DejaVuSans-117"/>
     <use x="252.050781" xlink:href="#DejaVuSans-108"/>
     <use x="279.833984" xlink:href="#DejaVuSans-97"/>
     <use x="341.113281" xlink:href="#DejaVuSans-116"/>
     <use x="380.322266" xlink:href="#DejaVuSans-105"/>
     <use x="408.105469" xlink:href="#DejaVuSans-111"/>
     <use x="469.287109" xlink:href="#DejaVuSans-110"/>
     <use x="532.666016" xlink:href="#DejaVuSans-115"/>
    </g>
   </g>
  </g>
  <g id="axes_2">
   <g id="patch_7">
    <path d="M 220.59 121.186667 
L 340.902176 121.186667 
L 340.902176 25.44 
L 220.59 25.44 
z
" style="fill:#ffffff;"/>
   </g>
   <g id="matplotlib.axis_3">
    <g id="xtick_4">
     <g id="line2d_9">
      <g>
       <use style="stroke:#000000;stroke-width:0.8;" x="226.058735" xlink:href="#m9ce3ed53ba" y="121.186667"/>
      </g>
     </g>
     <g id="text_10">
      <!-- 0 -->
      <g transform="translate(222.877485 135.785104)scale(0.1 -0.1)">
       <use xlink:href="#DejaVuSans-48"/>
      </g>
     </g>
    </g>
    <g id="xtick_5">
     <g id="line2d_10">
      <g>
       <use style="stroke:#000000;stroke-width:0.8;" x="281.35434" xlink:href="#m9ce3ed53ba" y="121.186667"/>
      </g>
     </g>
     <g id="text_11">
      <!-- 500 -->
      <g transform="translate(271.81059 135.785104)scale(0.1 -0.1)">
       <use xlink:href="#DejaVuSans-53"/>
       <use x="63.623047" xlink:href="#DejaVuSans-48"/>
       <use x="127.246094" xlink:href="#DejaVuSans-48"/>
      </g>
     </g>
    </g>
    <g id="xtick_6">
     <g id="line2d_11">
      <g>
       <use style="stroke:#000000;stroke-width:0.8;" x="336.649944" xlink:href="#m9ce3ed53ba" y="121.186667"/>
      </g>
     </g>
     <g id="text_12">
      <!-- 1000 -->
      <g transform="translate(323.924944 135.785104)scale(0.1 -0.1)">
       <use xlink:href="#DejaVuSans-49"/>
       <use x="63.623047" xlink:href="#DejaVuSans-48"/>
       <use x="127.246094" xlink:href="#DejaVuSans-48"/>
       <use x="190.869141" xlink:href="#DejaVuSans-48"/>
      </g>
     </g>
    </g>
   </g>
   <g id="matplotlib.axis_4">
    <g id="ytick_4">
     <g id="line2d_12">
      <g>
       <use style="stroke:#000000;stroke-width:0.8;" x="220.59" xlink:href="#mfa01fa56ac" y="98.970221"/>
      </g>
     </g>
     <g id="text_13">
      <!-- −25 -->
      <g transform="translate(192.485312 102.76944)scale(0.1 -0.1)">
       <defs>
        <path d="M 19.1875 8.296875 
L 53.609375 8.296875 
L 53.609375 0 
L 7.328125 0 
L 7.328125 8.296875 
Q 12.9375 14.109375 22.625 23.890625 
Q 32.328125 33.6875 34.8125 36.53125 
Q 39.546875 41.84375 41.421875 45.53125 
Q 43.3125 49.21875 43.3125 52.78125 
Q 43.3125 58.59375 39.234375 62.25 
Q 35.15625 65.921875 28.609375 65.921875 
Q 23.96875 65.921875 18.8125 64.3125 
Q 13.671875 62.703125 7.8125 59.421875 
L 7.8125 69.390625 
Q 13.765625 71.78125 18.9375 73 
Q 24.125 74.21875 28.421875 74.21875 
Q 39.75 74.21875 46.484375 68.546875 
Q 53.21875 62.890625 53.21875 53.421875 
Q 53.21875 48.921875 51.53125 44.890625 
Q 49.859375 40.875 45.40625 35.40625 
Q 44.1875 33.984375 37.640625 27.21875 
Q 31.109375 20.453125 19.1875 8.296875 
z
" id="DejaVuSans-50"/>
       </defs>
       <use xlink:href="#DejaVuSans-8722"/>
       <use x="83.789062" xlink:href="#DejaVuSans-50"/>
       <use x="147.412109" xlink:href="#DejaVuSans-53"/>
      </g>
     </g>
    </g>
    <g id="ytick_5">
     <g id="line2d_13">
      <g>
       <use style="stroke:#000000;stroke-width:0.8;" x="220.59" xlink:href="#mfa01fa56ac" y="73.299336"/>
      </g>
     </g>
     <g id="text_14">
      <!-- 0 -->
      <g transform="translate(207.2275 77.098555)scale(0.1 -0.1)">
       <use xlink:href="#DejaVuSans-48"/>
      </g>
     </g>
    </g>
    <g id="ytick_6">
     <g id="line2d_14">
      <g>
       <use style="stroke:#000000;stroke-width:0.8;" x="220.59" xlink:href="#mfa01fa56ac" y="47.628452"/>
      </g>
     </g>
     <g id="text_15">
      <!-- 25 -->
      <g transform="translate(200.865 51.42767)scale(0.1 -0.1)">
       <use xlink:href="#DejaVuSans-50"/>
       <use x="63.623047" xlink:href="#DejaVuSans-53"/>
      </g>
     </g>
    </g>
   </g>
   <g id="line2d_15">
    <path clip-path="url(#p704e9a0788)" d="M 226.058735 73.299336 
L 229.26588 73.299336 
L 229.487063 114.372752 
L 232.583617 114.372752 
L 232.804799 32.225921 
L 235.901353 32.225921 
L 236.122535 114.372752 
L 239.219089 114.372752 
L 239.440272 32.225921 
L 242.536825 32.225921 
L 242.758008 73.299336 
L 245.854562 73.299336 
L 246.075744 32.225921 
L 249.172298 32.225921 
L 249.39348 114.372752 
L 252.490034 114.372752 
L 252.711217 32.225921 
L 255.80777 32.225921 
L 256.028953 114.372752 
L 259.125507 114.372752 
L 259.346689 73.299336 
L 265.760979 73.299336 
L 265.982162 32.225921 
L 269.078715 32.225921 
L 269.299898 114.372752 
L 272.396452 114.372752 
L 272.617634 32.225921 
L 275.714188 32.225921 
L 275.93537 114.372752 
L 279.031924 114.372752 
L 279.253107 73.299336 
L 282.34966 73.299336 
L 282.570843 114.372752 
L 285.667397 114.372752 
L 285.888579 32.225921 
L 288.985133 32.225921 
L 289.206315 114.372752 
L 292.302869 114.372752 
L 292.524052 32.225921 
L 295.620605 32.225921 
L 295.841788 73.299336 
L 302.256078 73.299336 
L 302.47726 114.372752 
L 305.573814 114.372752 
L 305.794997 32.225921 
L 308.891551 32.225921 
L 309.112733 114.372752 
L 312.209287 114.372752 
L 312.430469 32.225921 
L 315.527023 32.225921 
L 315.748205 73.299336 
L 318.844759 73.299336 
L 319.065942 32.225921 
L 322.162496 32.225921 
L 322.383678 114.372752 
L 325.480232 114.372752 
L 325.701414 32.225921 
L 328.797968 32.225921 
L 329.01915 114.372752 
L 332.115704 114.372752 
L 332.336887 73.299336 
L 335.433441 73.299336 
L 335.433441 73.299336 
" style="fill:none;stroke:#000000;stroke-linecap:square;stroke-width:1.5;"/>
   </g>
   <g id="patch_8">
    <path d="M 220.59 121.186667 
L 220.59 25.44 
" style="fill:none;stroke:#000000;stroke-linecap:square;stroke-linejoin:miter;stroke-width:0.8;"/>
   </g>
   <g id="patch_9">
    <path d="M 340.902176 121.186667 
L 340.902176 25.44 
" style="fill:none;stroke:#000000;stroke-linecap:square;stroke-linejoin:miter;stroke-width:0.8;"/>
   </g>
   <g id="patch_10">
    <path d="M 220.59 121.186667 
L 340.902176 121.186667 
" style="fill:none;stroke:#000000;stroke-linecap:square;stroke-linejoin:miter;stroke-width:0.8;"/>
   </g>
   <g id="patch_11">
    <path d="M 220.59 25.44 
L 340.902176 25.44 
" style="fill:none;stroke:#000000;stroke-linecap:square;stroke-linejoin:miter;stroke-width:0.8;"/>
   </g>
   <g id="text_16">
    <!-- Experimental data -->
    <g transform="translate(225.31265 19.44)scale(0.12 -0.12)">
     <defs>
      <path d="M 9.8125 72.90625 
L 55.90625 72.90625 
L 55.90625 64.59375 
L 19.671875 64.59375 
L 19.671875 43.015625 
L 54.390625 43.015625 
L 54.390625 34.71875 
L 19.671875 34.71875 
L 19.671875 8.296875 
L 56.78125 8.296875 
L 56.78125 0 
L 9.8125 0 
z
" id="DejaVuSans-69"/>
      <path d="M 54.890625 54.6875 
L 35.109375 28.078125 
L 55.90625 0 
L 45.3125 0 
L 29.390625 21.484375 
L 13.484375 0 
L 2.875 0 
L 24.125 28.609375 
L 4.6875 54.6875 
L 15.28125 54.6875 
L 29.78125 35.203125 
L 44.28125 54.6875 
z
" id="DejaVuSans-120"/>
      <path d="M 56.203125 29.59375 
L 56.203125 25.203125 
L 14.890625 25.203125 
Q 15.484375 15.921875 20.484375 11.0625 
Q 25.484375 6.203125 34.421875 6.203125 
Q 39.59375 6.203125 44.453125 7.46875 
Q 49.3125 8.734375 54.109375 11.28125 
L 54.109375 2.78125 
Q 49.265625 0.734375 44.1875 -0.34375 
Q 39.109375 -1.421875 33.890625 -1.421875 
Q 20.796875 -1.421875 13.15625 6.1875 
Q 5.515625 13.8125 5.515625 26.8125 
Q 5.515625 40.234375 12.765625 48.109375 
Q 20.015625 56 32.328125 56 
Q 43.359375 56 49.78125 48.890625 
Q 56.203125 41.796875 56.203125 29.59375 
z
M 47.21875 32.234375 
Q 47.125 39.59375 43.09375 43.984375 
Q 39.0625 48.390625 32.421875 48.390625 
Q 24.90625 48.390625 20.390625 44.140625 
Q 15.875 39.890625 15.1875 32.171875 
z
" id="DejaVuSans-101"/>
      <path d="M 41.109375 46.296875 
Q 39.59375 47.171875 37.8125 47.578125 
Q 36.03125 48 33.890625 48 
Q 26.265625 48 22.1875 43.046875 
Q 18.109375 38.09375 18.109375 28.8125 
L 18.109375 0 
L 9.078125 0 
L 9.078125 54.6875 
L 18.109375 54.6875 
L 18.109375 46.1875 
Q 20.953125 51.171875 25.484375 53.578125 
Q 30.03125 56 36.53125 56 
Q 37.453125 56 38.578125 55.875 
Q 39.703125 55.765625 41.0625 55.515625 
z
" id="DejaVuSans-114"/>
      <path id="DejaVuSans-32"/>
     </defs>
     <use xlink:href="#DejaVuSans-69"/>
     <use x="63.183594" xlink:href="#DejaVuSans-120"/>
     <use x="122.363281" xlink:href="#DejaVuSans-112"/>
     <use x="185.839844" xlink:href="#DejaVuSans-101"/>
     <use x="247.363281" xlink:href="#DejaVuSans-114"/>
     <use x="288.476562" xlink:href="#DejaVuSans-105"/>
     <use x="316.259766" xlink:href="#DejaVuSans-109"/>
     <use x="413.671875" xlink:href="#DejaVuSans-101"/>
     <use x="475.195312" xlink:href="#DejaVuSans-110"/>
     <use x="538.574219" xlink:href="#DejaVuSans-116"/>
     <use x="577.783203" xlink:href="#DejaVuSans-97"/>
     <use x="639.0625" xlink:href="#DejaVuSans-108"/>
     <use x="666.845703" xlink:href="#DejaVuSans-32"/>
     <use x="698.632812" xlink:href="#DejaVuSans-100"/>
     <use x="762.109375" xlink:href="#DejaVuSans-97"/>
     <use x="823.388672" xlink:href="#DejaVuSans-116"/>
     <use x="862.597656" xlink:href="#DejaVuSans-97"/>
    </g>
   </g>
  </g>
  <g id="axes_3">
   <g id="patch_12">
    <path d="M 53.03 255.613333 
L 173.342176 255.613333 
L 173.342176 159.866667 
L 53.03 159.866667 
z
" style="fill:#ffffff;"/>
   </g>
   <g id="matplotlib.axis_5">
    <g id="xtick_7">
     <g id="line2d_16">
      <g>
       <use style="stroke:#000000;stroke-width:0.8;" x="58.498735" xlink:href="#m9ce3ed53ba" y="255.613333"/>
      </g>
     </g>
     <g id="text_17">
      <!-- 0 -->
      <g transform="translate(55.317485 270.211771)scale(0.1 -0.1)">
       <use xlink:href="#DejaVuSans-48"/>
      </g>
     </g>
    </g>
    <g id="xtick_8">
     <g id="line2d_17">
      <g>
       <use style="stroke:#000000;stroke-width:0.8;" x="93.89508" xlink:href="#m9ce3ed53ba" y="255.613333"/>
      </g>
     </g>
     <g id="text_18">
      <!-- 100 -->
      <g transform="translate(84.35133 270.211771)scale(0.1 -0.1)">
       <use xlink:href="#DejaVuSans-49"/>
       <use x="63.623047" xlink:href="#DejaVuSans-48"/>
       <use x="127.246094" xlink:href="#DejaVuSans-48"/>
      </g>
     </g>
    </g>
    <g id="xtick_9">
     <g id="line2d_18">
      <g>
       <use style="stroke:#000000;stroke-width:0.8;" x="129.291425" xlink:href="#m9ce3ed53ba" y="255.613333"/>
      </g>
     </g>
     <g id="text_19">
      <!-- 200 -->
      <g transform="translate(119.747675 270.211771)scale(0.1 -0.1)">
       <use xlink:href="#DejaVuSans-50"/>
       <use x="63.623047" xlink:href="#DejaVuSans-48"/>
       <use x="127.246094" xlink:href="#DejaVuSans-48"/>
      </g>
     </g>
    </g>
    <g id="xtick_10">
     <g id="line2d_19">
      <g>
       <use style="stroke:#000000;stroke-width:0.8;" x="164.68777" xlink:href="#m9ce3ed53ba" y="255.613333"/>
      </g>
     </g>
     <g id="text_20">
      <!-- 300 -->
      <g transform="translate(155.14402 270.211771)scale(0.1 -0.1)">
       <defs>
        <path d="M 40.578125 39.3125 
Q 47.65625 37.796875 51.625 33 
Q 55.609375 28.21875 55.609375 21.1875 
Q 55.609375 10.40625 48.1875 4.484375 
Q 40.765625 -1.421875 27.09375 -1.421875 
Q 22.515625 -1.421875 17.65625 -0.515625 
Q 12.796875 0.390625 7.625 2.203125 
L 7.625 11.71875 
Q 11.71875 9.328125 16.59375 8.109375 
Q 21.484375 6.890625 26.8125 6.890625 
Q 36.078125 6.890625 40.9375 10.546875 
Q 45.796875 14.203125 45.796875 21.1875 
Q 45.796875 27.640625 41.28125 31.265625 
Q 36.765625 34.90625 28.71875 34.90625 
L 20.21875 34.90625 
L 20.21875 43.015625 
L 29.109375 43.015625 
Q 36.375 43.015625 40.234375 45.921875 
Q 44.09375 48.828125 44.09375 54.296875 
Q 44.09375 59.90625 40.109375 62.90625 
Q 36.140625 65.921875 28.71875 65.921875 
Q 24.65625 65.921875 20.015625 65.03125 
Q 15.375 64.15625 9.8125 62.3125 
L 9.8125 71.09375 
Q 15.4375 72.65625 20.34375 73.4375 
Q 25.25 74.21875 29.59375 74.21875 
Q 40.828125 74.21875 47.359375 69.109375 
Q 53.90625 64.015625 53.90625 55.328125 
Q 53.90625 49.265625 50.4375 45.09375 
Q 46.96875 40.921875 40.578125 39.3125 
z
" id="DejaVuSans-51"/>
       </defs>
       <use xlink:href="#DejaVuSans-51"/>
       <use x="63.623047" xlink:href="#DejaVuSans-48"/>
       <use x="127.246094" xlink:href="#DejaVuSans-48"/>
      </g>
     </g>
    </g>
   </g>
   <g id="matplotlib.axis_6">
    <g id="ytick_7">
     <g id="line2d_20">
      <g>
       <use style="stroke:#000000;stroke-width:0.8;" x="53.03" xlink:href="#mfa01fa56ac" y="233.296929"/>
      </g>
     </g>
     <g id="text_21">
      <!-- 0 -->
      <g transform="translate(39.6675 237.096148)scale(0.1 -0.1)">
       <use xlink:href="#DejaVuSans-48"/>
      </g>
     </g>
    </g>
    <g id="ytick_8">
     <g id="line2d_21">
      <g>
       <use style="stroke:#000000;stroke-width:0.8;" x="53.03" xlink:href="#mfa01fa56ac" y="205.704273"/>
      </g>
     </g>
     <g id="text_22">
      <!-- 10 -->
      <g transform="translate(33.305 209.503491)scale(0.1 -0.1)">
       <use xlink:href="#DejaVuSans-49"/>
       <use x="63.623047" xlink:href="#DejaVuSans-48"/>
      </g>
     </g>
    </g>
    <g id="ytick_9">
     <g id="line2d_22">
      <g>
       <use style="stroke:#000000;stroke-width:0.8;" x="53.03" xlink:href="#mfa01fa56ac" y="178.111617"/>
      </g>
     </g>
     <g id="text_23">
      <!-- 20 -->
      <g transform="translate(33.305 181.910835)scale(0.1 -0.1)">
       <use xlink:href="#DejaVuSans-50"/>
       <use x="63.623047" xlink:href="#DejaVuSans-48"/>
      </g>
     </g>
    </g>
    <g id="text_24">
     <!-- Adaptation -->
     <g transform="translate(27.225313 235.086875)rotate(-90)scale(0.1 -0.1)">
      <use xlink:href="#DejaVuSans-65"/>
      <use x="66.658203" xlink:href="#DejaVuSans-100"/>
      <use x="130.134766" xlink:href="#DejaVuSans-97"/>
      <use x="191.414062" xlink:href="#DejaVuSans-112"/>
      <use x="254.890625" xlink:href="#DejaVuSans-116"/>
      <use x="294.099609" xlink:href="#DejaVuSans-97"/>
      <use x="355.378906" xlink:href="#DejaVuSans-116"/>
      <use x="394.587891" xlink:href="#DejaVuSans-105"/>
      <use x="422.371094" xlink:href="#DejaVuSans-111"/>
      <use x="483.552734" xlink:href="#DejaVuSans-110"/>
     </g>
    </g>
   </g>
   <g id="line2d_23">
    <path clip-path="url(#p885361fe93)" d="M 58.498735 231.005373 
L 58.852699 240.602495 
L 59.206662 239.627371 
L 59.914589 228.549935 
L 60.268553 228.959292 
L 60.622516 228.923923 
L 60.976479 241.516198 
L 61.330443 236.587521 
L 61.684406 242.759346 
L 62.392333 231.010202 
L 62.746297 245.551904 
L 63.10026 223.230767 
L 63.454224 223.617382 
L 63.808187 234.084248 
L 64.16215 235.719153 
L 64.516114 232.659906 
L 64.870077 232.282732 
L 65.224041 230.930923 
L 65.578004 246.033113 
L 65.931968 235.411268 
L 66.285931 217.134548 
L 66.639895 181.348684 
L 66.993858 200.320593 
L 67.347821 209.854696 
L 67.701785 196.959882 
L 68.055748 177.781633 
L 68.409712 187.931323 
L 68.763675 184.941108 
L 69.117639 186.786389 
L 69.471602 185.618153 
L 69.825566 183.155461 
L 70.179529 178.462415 
L 70.533492 178.043546 
L 71.241419 180.071584 
L 71.595383 179.337603 
L 71.949346 191.486088 
L 72.30331 185.969724 
L 72.657273 172.33522 
L 73.011237 181.967864 
L 73.3652 175.928353 
L 73.719164 181.576027 
L 74.073127 172.182528 
L 74.42709 177.416976 
L 74.781054 191.676421 
L 75.135017 177.105373 
L 75.488981 186.647443 
L 75.842944 176.642992 
L 76.196908 180.178786 
L 76.550871 177.999119 
L 76.904835 180.057308 
L 77.258798 189.445367 
L 77.612761 180.486505 
L 77.966725 185.617012 
L 78.320688 179.700995 
L 78.674652 178.374581 
L 79.028615 167.858326 
L 79.382579 181.159768 
L 79.736542 171.334943 
L 80.090506 180.115625 
L 80.444469 185.762294 
L 80.798432 184.687387 
L 81.152396 180.608148 
L 81.506359 174.990517 
L 81.860323 175.037708 
L 82.214286 187.676005 
L 82.56825 173.317987 
L 82.922213 189.686621 
L 83.276177 185.52865 
L 83.63014 174.173297 
L 83.984103 191.351218 
L 84.338067 191.223981 
L 84.69203 164.30839 
L 85.045994 188.682656 
L 85.753921 176.905283 
L 86.107884 164.218788 
L 86.461848 178.784799 
L 86.815811 171.236532 
L 87.169775 188.372707 
L 87.523738 189.000888 
L 87.877701 199.671821 
L 88.231665 226.536479 
L 88.585628 227.134357 
L 88.939592 230.826082 
L 89.293555 232.373152 
L 89.647519 236.124302 
L 90.001482 233.194763 
L 90.355446 245.374052 
L 90.709409 242.842371 
L 91.417336 227.039793 
L 91.771299 237.182255 
L 92.125263 240.876644 
L 92.479226 242.471271 
L 92.83319 229.001498 
L 93.187153 236.763175 
L 93.89508 228.121542 
L 94.249043 239.266246 
L 94.603007 226.965317 
L 94.95697 230.690428 
L 95.310934 231.907458 
L 95.664897 245.374224 
L 96.018861 235.063156 
L 96.372824 233.573263 
L 96.726788 235.145607 
L 97.080751 237.384803 
L 97.434714 232.565414 
L 97.788678 233.944572 
L 98.142641 226.273183 
L 98.496605 240.33534 
L 98.850568 231.919898 
L 99.204532 228.152915 
L 99.558495 237.2076 
L 99.912459 224.705743 
L 100.266422 231.861769 
L 100.620386 244.605253 
L 100.974349 242.877815 
L 102.036239 186.550332 
L 102.390203 182.013849 
L 102.744166 185.225234 
L 103.09813 169.085902 
L 103.452093 186.102902 
L 103.806057 177.644087 
L 104.16002 180.930619 
L 104.513983 179.779258 
L 104.867947 184.544499 
L 105.22191 177.62743 
L 105.929837 181.274313 
L 106.283801 184.830477 
L 106.637764 175.158414 
L 106.991728 182.03829 
L 107.345691 180.393701 
L 107.699654 178.196954 
L 108.053618 193.903098 
L 108.407581 185.687424 
L 108.761545 180.079624 
L 109.115508 179.439075 
L 109.469472 180.324334 
L 109.823435 178.690379 
L 110.177399 172.027266 
L 110.531362 175.164919 
L 110.885326 189.106634 
L 111.239289 181.929159 
L 111.593252 183.710819 
L 111.947216 176.262846 
L 112.301179 184.686524 
L 112.655143 184.150322 
L 113.009106 187.113506 
L 113.717033 170.585862 
L 114.070997 173.4717 
L 114.42496 178.229979 
L 114.778923 179.374843 
L 115.132887 189.012069 
L 115.48685 174.397617 
L 115.840814 182.593595 
L 116.194777 183.943285 
L 116.548741 181.314488 
L 116.902704 176.003502 
L 117.256668 183.388397 
L 117.610631 187.484099 
L 117.964594 171.755892 
L 118.318558 182.279537 
L 118.672521 180.926667 
L 119.026485 183.294694 
L 119.380448 182.41509 
L 119.734412 190.355134 
L 120.088375 219.452901 
L 120.442339 225.327233 
L 120.796302 239.820425 
L 121.150265 242.526165 
L 121.504229 232.089359 
L 122.212156 238.456931 
L 122.566119 234.679733 
L 122.920083 239.813646 
L 123.274046 227.971162 
L 123.62801 238.471618 
L 123.981973 239.835096 
L 124.335937 233.926755 
L 124.6899 239.184063 
L 125.043863 228.951992 
L 125.397827 227.205046 
L 125.75179 226.338814 
L 126.105754 218.133304 
L 126.813681 181.590755 
L 127.167644 180.858599 
L 127.521608 177.486233 
L 127.875571 181.875796 
L 128.229534 172.29544 
L 128.583498 184.42881 
L 128.937461 173.824512 
L 129.291425 177.597321 
L 129.645388 183.36371 
L 130.353315 169.09281 
L 130.707279 175.494177 
L 131.061242 189.310663 
L 131.415205 187.94957 
L 131.769169 178.571128 
L 132.123132 192.290701 
L 132.477096 174.193226 
L 132.831059 173.389382 
L 133.538986 186.408552 
L 133.89295 184.529712 
L 134.246913 179.81327 
L 134.600876 179.689694 
L 134.95484 182.684538 
L 135.308803 189.527115 
L 135.662767 172.795659 
L 136.01673 183.759205 
L 136.370694 174.050432 
L 137.078621 201.559341 
L 137.432584 196.905842 
L 137.786548 216.668244 
L 138.140511 227.091253 
L 138.494474 244.39964 
L 139.202401 233.259874 
L 139.556365 242.489968 
L 139.910328 238.736256 
L 140.264292 227.701789 
L 140.618255 227.559248 
L 140.972219 232.707548 
L 141.326182 235.436222 
L 141.680145 234.724043 
L 142.034109 235.276481 
L 142.388072 235.223739 
L 142.742036 234.799866 
L 143.095999 251.261212 
L 143.449963 227.435549 
L 143.803926 239.83427 
L 144.15789 229.851311 
L 144.511853 234.551431 
L 144.865816 241.984333 
L 145.21978 237.362577 
L 145.573743 238.037911 
L 145.927707 233.509457 
L 146.28167 241.064528 
L 146.635634 243.323378 
L 146.989597 239.4763 
L 147.343561 228.262425 
L 147.697524 229.749786 
L 148.051488 227.864216 
L 148.405451 248.084792 
L 148.759414 226.229572 
L 149.113378 230.50011 
L 149.467341 228.913844 
L 149.821305 237.257131 
L 150.175268 228.461688 
L 150.529232 232.681975 
L 150.883195 227.366718 
L 151.237159 200.036449 
L 151.591122 198.262103 
L 152.299049 179.899358 
L 152.653012 181.731611 
L 153.006976 175.467795 
L 153.360939 177.414959 
L 153.714903 181.433251 
L 154.068866 174.377414 
L 154.42283 198.206596 
L 154.776793 181.640885 
L 155.130756 178.182632 
L 155.838683 202.29053 
L 156.192647 185.71278 
L 156.54661 195.006291 
L 156.900574 182.309094 
L 157.254537 191.096672 
L 157.608501 182.259862 
L 157.962464 180.364473 
L 158.316427 184.887432 
L 158.670391 187.494369 
L 159.024354 176.652482 
L 159.378318 175.003367 
L 159.732281 171.112215 
L 160.440208 174.239154 
L 160.794172 180.158657 
L 161.148135 182.294013 
L 161.502099 180.20263 
L 161.856062 191.647001 
L 162.210025 183.361284 
L 162.563989 178.354319 
L 162.917952 182.832154 
L 163.271916 190.691457 
L 163.625879 176.858901 
L 163.979843 185.906574 
L 164.333806 178.204075 
L 164.68777 195.305128 
L 165.041733 182.161184 
L 165.395696 175.735832 
L 165.74966 176.420491 
L 166.103623 184.970336 
L 166.81155 176.033178 
L 167.165514 184.599427 
L 167.519477 188.040814 
L 167.873441 175.45208 
L 167.873441 175.45208 
" style="fill:none;stroke:#1f77b4;stroke-linecap:square;stroke-width:1.5;"/>
   </g>
   <g id="line2d_24">
    <path clip-path="url(#p885361fe93)" d="M 58.498735 233.296929 
L 65.224041 233.296929 
L 65.578004 178.111617 
L 86.461848 178.111617 
L 86.815811 233.296929 
L 100.620386 233.296929 
L 100.974349 178.111617 
L 118.318558 178.111617 
L 118.672521 233.296929 
L 125.397827 233.296929 
L 125.75179 178.111617 
L 136.01673 178.111617 
L 136.370694 233.296929 
L 150.175268 233.296929 
L 150.529232 178.111617 
L 167.873441 178.111617 
L 167.873441 178.111617 
" style="fill:none;stroke:#000000;stroke-linecap:square;stroke-width:1.5;"/>
   </g>
   <g id="patch_13">
    <path d="M 53.03 255.613333 
L 53.03 159.866667 
" style="fill:none;stroke:#000000;stroke-linecap:square;stroke-linejoin:miter;stroke-width:0.8;"/>
   </g>
   <g id="patch_14">
    <path d="M 173.342176 255.613333 
L 173.342176 159.866667 
" style="fill:none;stroke:#000000;stroke-linecap:square;stroke-linejoin:miter;stroke-width:0.8;"/>
   </g>
   <g id="patch_15">
    <path d="M 53.03 255.613333 
L 173.342176 255.613333 
" style="fill:none;stroke:#000000;stroke-linecap:square;stroke-linejoin:miter;stroke-width:0.8;"/>
   </g>
   <g id="patch_16">
    <path d="M 53.03 159.866667 
L 173.342176 159.866667 
" style="fill:none;stroke:#000000;stroke-linecap:square;stroke-linejoin:miter;stroke-width:0.8;"/>
   </g>
   <g id="text_25">
    <!-- B -->
    <g transform="translate(40.998782 159.866667)scale(0.14 -0.14)">
     <defs>
      <path d="M 19.671875 34.8125 
L 19.671875 8.109375 
L 35.5 8.109375 
Q 43.453125 8.109375 47.28125 11.40625 
Q 51.125 14.703125 51.125 21.484375 
Q 51.125 28.328125 47.28125 31.5625 
Q 43.453125 34.8125 35.5 34.8125 
z
M 19.671875 64.796875 
L 19.671875 42.828125 
L 34.28125 42.828125 
Q 41.5 42.828125 45.03125 45.53125 
Q 48.578125 48.25 48.578125 53.8125 
Q 48.578125 59.328125 45.03125 62.0625 
Q 41.5 64.796875 34.28125 64.796875 
z
M 9.8125 72.90625 
L 35.015625 72.90625 
Q 46.296875 72.90625 52.390625 68.21875 
Q 58.5 63.53125 58.5 54.890625 
Q 58.5 48.1875 55.375 44.234375 
Q 52.25 40.28125 46.1875 39.3125 
Q 53.46875 37.75 57.5 32.78125 
Q 61.53125 27.828125 61.53125 20.40625 
Q 61.53125 10.640625 54.890625 5.3125 
Q 48.25 0 35.984375 0 
L 9.8125 0 
z
" id="DejaVuSans-66"/>
     </defs>
     <use xlink:href="#DejaVuSans-66"/>
    </g>
   </g>
  </g>
  <g id="axes_4">
   <g id="patch_17">
    <path d="M 220.59 255.613333 
L 340.902176 255.613333 
L 340.902176 159.866667 
L 220.59 159.866667 
z
" style="fill:#ffffff;"/>
   </g>
   <g id="matplotlib.axis_7">
    <g id="xtick_11">
     <g id="line2d_25">
      <g>
       <use style="stroke:#000000;stroke-width:0.8;" x="226.058735" xlink:href="#m9ce3ed53ba" y="255.613333"/>
      </g>
     </g>
     <g id="text_26">
      <!-- 0 -->
      <g transform="translate(222.877485 270.211771)scale(0.1 -0.1)">
       <use xlink:href="#DejaVuSans-48"/>
      </g>
     </g>
    </g>
    <g id="xtick_12">
     <g id="line2d_26">
      <g>
       <use style="stroke:#000000;stroke-width:0.8;" x="261.45508" xlink:href="#m9ce3ed53ba" y="255.613333"/>
      </g>
     </g>
     <g id="text_27">
      <!-- 100 -->
      <g transform="translate(251.91133 270.211771)scale(0.1 -0.1)">
       <use xlink:href="#DejaVuSans-49"/>
       <use x="63.623047" xlink:href="#DejaVuSans-48"/>
       <use x="127.246094" xlink:href="#DejaVuSans-48"/>
      </g>
     </g>
    </g>
    <g id="xtick_13">
     <g id="line2d_27">
      <g>
       <use style="stroke:#000000;stroke-width:0.8;" x="296.851425" xlink:href="#m9ce3ed53ba" y="255.613333"/>
      </g>
     </g>
     <g id="text_28">
      <!-- 200 -->
      <g transform="translate(287.307675 270.211771)scale(0.1 -0.1)">
       <use xlink:href="#DejaVuSans-50"/>
       <use x="63.623047" xlink:href="#DejaVuSans-48"/>
       <use x="127.246094" xlink:href="#DejaVuSans-48"/>
      </g>
     </g>
    </g>
    <g id="xtick_14">
     <g id="line2d_28">
      <g>
       <use style="stroke:#000000;stroke-width:0.8;" x="332.24777" xlink:href="#m9ce3ed53ba" y="255.613333"/>
      </g>
     </g>
     <g id="text_29">
      <!-- 300 -->
      <g transform="translate(322.70402 270.211771)scale(0.1 -0.1)">
       <use xlink:href="#DejaVuSans-51"/>
       <use x="63.623047" xlink:href="#DejaVuSans-48"/>
       <use x="127.246094" xlink:href="#DejaVuSans-48"/>
      </g>
     </g>
    </g>
   </g>
   <g id="matplotlib.axis_8">
    <g id="ytick_10">
     <g id="line2d_29">
      <g>
       <use style="stroke:#000000;stroke-width:0.8;" x="220.59" xlink:href="#mfa01fa56ac" y="233.296929"/>
      </g>
     </g>
     <g id="text_30">
      <!-- 0 -->
      <g transform="translate(207.2275 237.096148)scale(0.1 -0.1)">
       <use xlink:href="#DejaVuSans-48"/>
      </g>
     </g>
    </g>
    <g id="ytick_11">
     <g id="line2d_30">
      <g>
       <use style="stroke:#000000;stroke-width:0.8;" x="220.59" xlink:href="#mfa01fa56ac" y="205.704273"/>
      </g>
     </g>
     <g id="text_31">
      <!-- 10 -->
      <g transform="translate(200.865 209.503491)scale(0.1 -0.1)">
       <use xlink:href="#DejaVuSans-49"/>
       <use x="63.623047" xlink:href="#DejaVuSans-48"/>
      </g>
     </g>
    </g>
    <g id="ytick_12">
     <g id="line2d_31">
      <g>
       <use style="stroke:#000000;stroke-width:0.8;" x="220.59" xlink:href="#mfa01fa56ac" y="178.111617"/>
      </g>
     </g>
     <g id="text_32">
      <!-- 20 -->
      <g transform="translate(200.865 181.910835)scale(0.1 -0.1)">
       <use xlink:href="#DejaVuSans-50"/>
       <use x="63.623047" xlink:href="#DejaVuSans-48"/>
      </g>
     </g>
    </g>
   </g>
   <g id="line2d_32">
    <path clip-path="url(#pb4dea35b1d)" d="M 226.058735 233.296929 
L 232.784041 233.296929 
L 233.138004 178.111617 
L 254.021848 178.111617 
L 254.375811 233.296929 
L 268.180386 233.296929 
L 268.534349 178.111617 
L 285.878558 178.111617 
L 286.232521 233.296929 
L 292.957827 233.296929 
L 293.31179 178.111617 
L 303.57673 178.111617 
L 303.930694 233.296929 
L 317.735268 233.296929 
L 318.089232 178.111617 
L 335.433441 178.111617 
L 335.433441 178.111617 
" style="fill:none;stroke:#000000;stroke-linecap:square;stroke-width:1.5;"/>
   </g>
   <g id="patch_18">
    <path d="M 220.59 255.613333 
L 220.59 159.866667 
" style="fill:none;stroke:#000000;stroke-linecap:square;stroke-linejoin:miter;stroke-width:0.8;"/>
   </g>
   <g id="patch_19">
    <path d="M 340.902176 255.613333 
L 340.902176 159.866667 
" style="fill:none;stroke:#000000;stroke-linecap:square;stroke-linejoin:miter;stroke-width:0.8;"/>
   </g>
   <g id="patch_20">
    <path d="M 220.59 255.613333 
L 340.902176 255.613333 
" style="fill:none;stroke:#000000;stroke-linecap:square;stroke-linejoin:miter;stroke-width:0.8;"/>
   </g>
   <g id="patch_21">
    <path d="M 220.59 159.866667 
L 340.902176 159.866667 
" style="fill:none;stroke:#000000;stroke-linecap:square;stroke-linejoin:miter;stroke-width:0.8;"/>
   </g>
  </g>
  <g id="axes_5">
   <g id="patch_22">
    <path d="M 53.03 390.04 
L 173.342176 390.04 
L 173.342176 294.293333 
L 53.03 294.293333 
z
" style="fill:#ffffff;"/>
   </g>
   <g id="matplotlib.axis_9">
    <g id="xtick_15">
     <g id="line2d_33">
      <g>
       <use style="stroke:#000000;stroke-width:0.8;" x="58.498735" xlink:href="#m9ce3ed53ba" y="390.04"/>
      </g>
     </g>
     <g id="text_33">
      <!-- 0 -->
      <g transform="translate(55.317485 404.638438)scale(0.1 -0.1)">
       <use xlink:href="#DejaVuSans-48"/>
      </g>
     </g>
    </g>
    <g id="xtick_16">
     <g id="line2d_34">
      <g>
       <use style="stroke:#000000;stroke-width:0.8;" x="93.89508" xlink:href="#m9ce3ed53ba" y="390.04"/>
      </g>
     </g>
     <g id="text_34">
      <!-- 100 -->
      <g transform="translate(84.35133 404.638438)scale(0.1 -0.1)">
       <use xlink:href="#DejaVuSans-49"/>
       <use x="63.623047" xlink:href="#DejaVuSans-48"/>
       <use x="127.246094" xlink:href="#DejaVuSans-48"/>
      </g>
     </g>
    </g>
    <g id="xtick_17">
     <g id="line2d_35">
      <g>
       <use style="stroke:#000000;stroke-width:0.8;" x="129.291425" xlink:href="#m9ce3ed53ba" y="390.04"/>
      </g>
     </g>
     <g id="text_35">
      <!-- 200 -->
      <g transform="translate(119.747675 404.638438)scale(0.1 -0.1)">
       <use xlink:href="#DejaVuSans-50"/>
       <use x="63.623047" xlink:href="#DejaVuSans-48"/>
       <use x="127.246094" xlink:href="#DejaVuSans-48"/>
      </g>
     </g>
    </g>
    <g id="xtick_18">
     <g id="line2d_36">
      <g>
       <use style="stroke:#000000;stroke-width:0.8;" x="164.68777" xlink:href="#m9ce3ed53ba" y="390.04"/>
      </g>
     </g>
     <g id="text_36">
      <!-- 300 -->
      <g transform="translate(155.14402 404.638438)scale(0.1 -0.1)">
       <use xlink:href="#DejaVuSans-51"/>
       <use x="63.623047" xlink:href="#DejaVuSans-48"/>
       <use x="127.246094" xlink:href="#DejaVuSans-48"/>
      </g>
     </g>
    </g>
    <g id="text_37">
     <!-- Trials -->
     <g transform="translate(100.367338 418.316562)scale(0.1 -0.1)">
      <defs>
       <path d="M -0.296875 72.90625 
L 61.375 72.90625 
L 61.375 64.59375 
L 35.5 64.59375 
L 35.5 0 
L 25.59375 0 
L 25.59375 64.59375 
L -0.296875 64.59375 
z
" id="DejaVuSans-84"/>
      </defs>
      <use xlink:href="#DejaVuSans-84"/>
      <use x="46.333984" xlink:href="#DejaVuSans-114"/>
      <use x="87.447266" xlink:href="#DejaVuSans-105"/>
      <use x="115.230469" xlink:href="#DejaVuSans-97"/>
      <use x="176.509766" xlink:href="#DejaVuSans-108"/>
      <use x="204.292969" xlink:href="#DejaVuSans-115"/>
     </g>
    </g>
   </g>
   <g id="matplotlib.axis_10">
    <g id="ytick_13">
     <g id="line2d_37">
      <g>
       <use style="stroke:#000000;stroke-width:0.8;" x="53.03" xlink:href="#mfa01fa56ac" y="389.704458"/>
      </g>
     </g>
     <g id="text_38">
      <!-- −10 -->
      <g transform="translate(24.925313 393.503677)scale(0.1 -0.1)">
       <use xlink:href="#DejaVuSans-8722"/>
       <use x="83.789062" xlink:href="#DejaVuSans-49"/>
       <use x="147.412109" xlink:href="#DejaVuSans-48"/>
      </g>
     </g>
    </g>
    <g id="ytick_14">
     <g id="line2d_38">
      <g>
       <use style="stroke:#000000;stroke-width:0.8;" x="53.03" xlink:href="#mfa01fa56ac" y="354.071177"/>
      </g>
     </g>
     <g id="text_39">
      <!-- 0 -->
      <g transform="translate(39.6675 357.870396)scale(0.1 -0.1)">
       <use xlink:href="#DejaVuSans-48"/>
      </g>
     </g>
    </g>
    <g id="ytick_15">
     <g id="line2d_39">
      <g>
       <use style="stroke:#000000;stroke-width:0.8;" x="53.03" xlink:href="#mfa01fa56ac" y="318.437896"/>
      </g>
     </g>
     <g id="text_40">
      <!-- 10 -->
      <g transform="translate(33.305 322.237115)scale(0.1 -0.1)">
       <use xlink:href="#DejaVuSans-49"/>
       <use x="63.623047" xlink:href="#DejaVuSans-48"/>
      </g>
     </g>
    </g>
    <g id="text_41">
     <!-- Adaptation -->
     <g transform="translate(18.845625 369.513542)rotate(-90)scale(0.1 -0.1)">
      <use xlink:href="#DejaVuSans-65"/>
      <use x="66.658203" xlink:href="#DejaVuSans-100"/>
      <use x="130.134766" xlink:href="#DejaVuSans-97"/>
      <use x="191.414062" xlink:href="#DejaVuSans-112"/>
      <use x="254.890625" xlink:href="#DejaVuSans-116"/>
      <use x="294.099609" xlink:href="#DejaVuSans-97"/>
      <use x="355.378906" xlink:href="#DejaVuSans-116"/>
      <use x="394.587891" xlink:href="#DejaVuSans-105"/>
      <use x="422.371094" xlink:href="#DejaVuSans-111"/>
      <use x="483.552734" xlink:href="#DejaVuSans-110"/>
     </g>
    </g>
   </g>
   <g id="line2d_40">
    <path clip-path="url(#p1d23b4ee23)" d="M 58.498735 354.071177 
L 65.224041 354.071177 
L 65.578004 318.437896 
L 86.461848 318.437896 
L 86.815811 354.071177 
L 100.620386 354.071177 
L 100.974349 318.437896 
L 118.318558 318.437896 
L 118.672521 354.071177 
L 125.397827 354.071177 
L 125.75179 318.437896 
L 136.01673 318.437896 
L 136.370694 354.071177 
L 150.175268 354.071177 
L 150.529232 318.437896 
L 167.873441 318.437896 
L 167.873441 318.437896 
" style="fill:none;stroke:#000000;stroke-linecap:square;stroke-width:1.5;"/>
   </g>
   <g id="line2d_41">
    <path clip-path="url(#p1d23b4ee23)" d="M 58.498735 346.974913 
L 58.852699 363.378659 
L 59.206662 360.781436 
L 59.560626 353.668367 
L 59.914589 356.154315 
L 60.268553 344.47041 
L 60.622516 347.539417 
L 60.976479 337.93048 
L 61.330443 358.819044 
L 61.684406 356.75052 
L 62.03837 357.622711 
L 62.392333 360.625406 
L 62.746297 349.541484 
L 63.10026 363.359775 
L 63.454224 362.935461 
L 63.808187 371.069063 
L 64.16215 357.955357 
L 64.870077 349.972971 
L 65.578004 361.920423 
L 65.931968 354.086063 
L 66.285931 355.401279 
L 66.639895 366.138869 
L 66.993858 360.96258 
L 67.347821 336.950571 
L 67.701785 353.974793 
L 68.055748 358.066467 
L 68.409712 345.484476 
L 68.763675 346.871042 
L 69.117639 355.404227 
L 69.471602 347.975262 
L 69.825566 343.940381 
L 70.179529 330.28315 
L 70.533492 335.005119 
L 70.887456 355.821159 
L 71.241419 343.215373 
L 71.595383 345.878215 
L 71.949346 329.489308 
L 73.011237 315.341151 
L 73.3652 330.247345 
L 74.073127 309.149055 
L 74.42709 315.220695 
L 74.781054 328.692512 
L 75.135017 316.615546 
L 75.488981 330.725981 
L 75.842944 305.865579 
L 76.196908 325.984272 
L 76.550871 327.714282 
L 76.904835 320.038642 
L 77.258798 317.424274 
L 77.612761 329.030982 
L 77.966725 321.709736 
L 78.320688 324.306929 
L 78.674652 321.635918 
L 79.028615 320.419715 
L 79.382579 331.856423 
L 79.736542 311.525059 
L 80.090506 325.256922 
L 80.444469 334.589544 
L 80.798432 302.866394 
L 81.152396 318.001008 
L 81.506359 322.822764 
L 81.860323 315.746386 
L 82.214286 329.659207 
L 82.56825 310.334653 
L 82.922213 322.325532 
L 83.276177 310.047842 
L 83.63014 310.413329 
L 83.984103 309.234357 
L 84.69203 320.724283 
L 85.045994 319.552141 
L 85.399957 321.116857 
L 85.753921 307.910269 
L 86.107884 327.338909 
L 86.461848 318.296635 
L 86.815811 328.868539 
L 87.169775 344.236883 
L 87.877701 322.261491 
L 88.231665 332.690946 
L 88.585628 332.663156 
L 89.293555 360.85909 
L 89.647519 356.306725 
L 90.001482 338.5061 
L 90.355446 353.391339 
L 90.709409 340.111748 
L 91.063372 342.924942 
L 91.417336 350.04089 
L 91.771299 365.643495 
L 92.125263 354.984016 
L 92.479226 358.282711 
L 92.83319 364.501959 
L 93.187153 348.856613 
L 93.541117 347.978256 
L 93.89508 363.46134 
L 94.249043 346.832193 
L 94.603007 347.151934 
L 94.95697 363.772496 
L 95.310934 336.870201 
L 95.664897 351.623455 
L 96.018861 355.508444 
L 96.372824 351.111783 
L 96.726788 352.193836 
L 97.080751 351.330985 
L 97.434714 355.483425 
L 97.788678 346.577747 
L 98.142641 354.127007 
L 98.496605 354.335347 
L 98.850568 361.197867 
L 99.204532 353.669401 
L 99.558495 353.687203 
L 99.912459 346.492497 
L 100.266422 364.160856 
L 100.620386 353.667134 
L 100.974349 357.852241 
L 101.328312 357.874681 
L 101.682276 344.915254 
L 102.036239 342.343729 
L 102.390203 340.895139 
L 102.744166 335.215094 
L 103.09813 318.012206 
L 103.452093 336.509248 
L 103.806057 320.515626 
L 104.513983 324.257008 
L 104.867947 337.231747 
L 105.575874 326.020092 
L 106.283801 312.436884 
L 106.637764 325.025562 
L 107.345691 316.664921 
L 107.699654 326.658942 
L 108.407581 311.915128 
L 108.761545 325.550132 
L 109.469472 314.11137 
L 109.823435 324.832787 
L 110.177399 321.427748 
L 110.531362 331.471886 
L 110.885326 314.304717 
L 111.239289 337.658961 
L 111.593252 333.363068 
L 111.947216 321.241761 
L 112.301179 314.468608 
L 112.655143 314.677522 
L 113.009106 337.366275 
L 113.36307 319.006088 
L 113.717033 327.128347 
L 114.070997 323.46559 
L 114.42496 316.710598 
L 114.778923 330.154994 
L 115.132887 332.733957 
L 115.840814 302.398738 
L 116.194777 322.970817 
L 116.548741 319.64577 
L 116.902704 327.73823 
L 117.256668 319.49108 
L 117.610631 308.507431 
L 117.964594 317.296027 
L 118.318558 336.464011 
L 118.672521 322.518606 
L 119.026485 318.811513 
L 119.380448 333.602239 
L 119.734412 326.414583 
L 120.796302 338.192815 
L 121.150265 344.6446 
L 121.504229 372.63954 
L 121.858192 351.207837 
L 122.212156 350.275127 
L 122.566119 348.112213 
L 122.920083 343.388058 
L 123.274046 345.142147 
L 123.62801 347.554112 
L 123.981973 350.818054 
L 124.335937 348.935143 
L 124.6899 385.687879 
L 125.043863 359.562663 
L 125.397827 366.17542 
L 125.75179 351.692797 
L 126.105754 344.54461 
L 126.459717 334.590236 
L 126.813681 352.289892 
L 127.167644 349.911633 
L 127.521608 344.137948 
L 127.875571 330.406004 
L 128.229534 342.714118 
L 128.583498 344.739803 
L 128.937461 336.544514 
L 129.291425 345.562834 
L 129.645388 342.730348 
L 129.999352 332.425141 
L 130.353315 328.763232 
L 130.707279 330.245746 
L 131.415205 318.742239 
L 131.769169 329.549418 
L 132.123132 330.824712 
L 132.477096 319.838651 
L 132.831059 319.534896 
L 133.185023 319.977988 
L 133.538986 333.610839 
L 133.89295 300.147681 
L 134.246913 333.776865 
L 134.600876 342.303032 
L 134.95484 314.5752 
L 135.308803 330.49996 
L 135.662767 315.339198 
L 136.01673 315.738144 
L 136.370694 312.433702 
L 136.724657 327.545025 
L 137.078621 322.021066 
L 137.432584 320.391332 
L 137.786548 333.796524 
L 138.140511 334.340106 
L 138.494474 351.382171 
L 138.848438 345.63149 
L 139.202401 352.833505 
L 139.556365 342.239522 
L 139.910328 350.267702 
L 140.264292 350.498241 
L 140.618255 363.92291 
L 140.972219 359.73116 
L 141.326182 364.639867 
L 141.680145 349.368446 
L 142.034109 356.27625 
L 142.388072 343.696852 
L 142.742036 350.78392 
L 143.095999 371.645041 
L 143.803926 336.950734 
L 144.15789 361.907301 
L 144.511853 357.166599 
L 144.865816 344.411807 
L 145.21978 347.065401 
L 145.573743 358.01621 
L 145.927707 340.573532 
L 146.28167 359.870306 
L 146.635634 340.594663 
L 146.989597 368.428612 
L 147.697524 349.151533 
L 148.405451 359.109608 
L 148.759414 347.874053 
L 149.113378 357.38371 
L 149.467341 344.421003 
L 149.821305 356.217186 
L 150.175268 347.717833 
L 150.529232 360.424074 
L 150.883195 351.94845 
L 151.237159 347.272112 
L 151.591122 367.324133 
L 151.945085 369.253285 
L 152.653012 335.70421 
L 153.006976 335.076057 
L 153.360939 323.042962 
L 153.714903 342.354508 
L 154.068866 307.208267 
L 154.42283 322.571244 
L 154.776793 326.535736 
L 155.130756 306.008615 
L 155.48472 317.197135 
L 155.838683 314.669878 
L 156.192647 298.645455 
L 156.54661 326.46798 
L 156.900574 317.821104 
L 157.254537 322.213843 
L 157.608501 331.888375 
L 157.962464 320.022885 
L 158.670391 329.39441 
L 159.024354 330.531846 
L 159.378318 323.021686 
L 159.732281 321.960496 
L 160.086245 324.489699 
L 160.794172 321.111085 
L 161.148135 323.945982 
L 161.502099 321.991864 
L 161.856062 307.456689 
L 162.210025 320.569969 
L 162.563989 323.924458 
L 163.271916 322.471741 
L 163.625879 313.931429 
L 163.979843 326.561285 
L 164.333806 323.555967 
L 165.041733 325.24359 
L 165.395696 320.722656 
L 165.74966 330.532848 
L 166.457587 313.221558 
L 166.81155 319.168073 
L 167.165514 322.256451 
L 167.519477 333.56758 
L 167.873441 314.697436 
L 167.873441 314.697436 
" style="fill:none;stroke:#1f77b4;stroke-linecap:square;stroke-width:1.5;"/>
   </g>
   <g id="patch_23">
    <path d="M 53.03 390.04 
L 53.03 294.293333 
" style="fill:none;stroke:#000000;stroke-linecap:square;stroke-linejoin:miter;stroke-width:0.8;"/>
   </g>
   <g id="patch_24">
    <path d="M 173.342176 390.04 
L 173.342176 294.293333 
" style="fill:none;stroke:#000000;stroke-linecap:square;stroke-linejoin:miter;stroke-width:0.8;"/>
   </g>
   <g id="patch_25">
    <path d="M 53.03 390.04 
L 173.342176 390.04 
" style="fill:none;stroke:#000000;stroke-linecap:square;stroke-linejoin:miter;stroke-width:0.8;"/>
   </g>
   <g id="patch_26">
    <path d="M 53.03 294.293333 
L 173.342176 294.293333 
" style="fill:none;stroke:#000000;stroke-linecap:square;stroke-linejoin:miter;stroke-width:0.8;"/>
   </g>
   <g id="text_42">
    <!-- C -->
    <g transform="translate(40.998782 294.293333)scale(0.14 -0.14)">
     <defs>
      <path d="M 64.40625 67.28125 
L 64.40625 56.890625 
Q 59.421875 61.53125 53.78125 63.8125 
Q 48.140625 66.109375 41.796875 66.109375 
Q 29.296875 66.109375 22.65625 58.46875 
Q 16.015625 50.828125 16.015625 36.375 
Q 16.015625 21.96875 22.65625 14.328125 
Q 29.296875 6.6875 41.796875 6.6875 
Q 48.140625 6.6875 53.78125 8.984375 
Q 59.421875 11.28125 64.40625 15.921875 
L 64.40625 5.609375 
Q 59.234375 2.09375 53.4375 0.328125 
Q 47.65625 -1.421875 41.21875 -1.421875 
Q 24.65625 -1.421875 15.125 8.703125 
Q 5.609375 18.84375 5.609375 36.375 
Q 5.609375 53.953125 15.125 64.078125 
Q 24.65625 74.21875 41.21875 74.21875 
Q 47.75 74.21875 53.53125 72.484375 
Q 59.328125 70.75 64.40625 67.28125 
z
" id="DejaVuSans-67"/>
     </defs>
     <use xlink:href="#DejaVuSans-67"/>
    </g>
   </g>
  </g>
  <g id="axes_6">
   <g id="patch_27">
    <path d="M 220.59 390.04 
L 340.902176 390.04 
L 340.902176 294.293333 
L 220.59 294.293333 
z
" style="fill:#ffffff;"/>
   </g>
   <g id="matplotlib.axis_11">
    <g id="xtick_19">
     <g id="line2d_42">
      <g>
       <use style="stroke:#000000;stroke-width:0.8;" x="226.058735" xlink:href="#m9ce3ed53ba" y="390.04"/>
      </g>
     </g>
     <g id="text_43">
      <!-- 0 -->
      <g transform="translate(222.877485 404.638438)scale(0.1 -0.1)">
       <use xlink:href="#DejaVuSans-48"/>
      </g>
     </g>
    </g>
    <g id="xtick_20">
     <g id="line2d_43">
      <g>
       <use style="stroke:#000000;stroke-width:0.8;" x="261.45508" xlink:href="#m9ce3ed53ba" y="390.04"/>
      </g>
     </g>
     <g id="text_44">
      <!-- 100 -->
      <g transform="translate(251.91133 404.638438)scale(0.1 -0.1)">
       <use xlink:href="#DejaVuSans-49"/>
       <use x="63.623047" xlink:href="#DejaVuSans-48"/>
       <use x="127.246094" xlink:href="#DejaVuSans-48"/>
      </g>
     </g>
    </g>
    <g id="xtick_21">
     <g id="line2d_44">
      <g>
       <use style="stroke:#000000;stroke-width:0.8;" x="296.851425" xlink:href="#m9ce3ed53ba" y="390.04"/>
      </g>
     </g>
     <g id="text_45">
      <!-- 200 -->
      <g transform="translate(287.307675 404.638438)scale(0.1 -0.1)">
       <use xlink:href="#DejaVuSans-50"/>
       <use x="63.623047" xlink:href="#DejaVuSans-48"/>
       <use x="127.246094" xlink:href="#DejaVuSans-48"/>
      </g>
     </g>
    </g>
    <g id="xtick_22">
     <g id="line2d_45">
      <g>
       <use style="stroke:#000000;stroke-width:0.8;" x="332.24777" xlink:href="#m9ce3ed53ba" y="390.04"/>
      </g>
     </g>
     <g id="text_46">
      <!-- 300 -->
      <g transform="translate(322.70402 404.638438)scale(0.1 -0.1)">
       <use xlink:href="#DejaVuSans-51"/>
       <use x="63.623047" xlink:href="#DejaVuSans-48"/>
       <use x="127.246094" xlink:href="#DejaVuSans-48"/>
      </g>
     </g>
    </g>
    <g id="text_47">
     <!-- Trials -->
     <g transform="translate(267.927338 418.316562)scale(0.1 -0.1)">
      <use xlink:href="#DejaVuSans-84"/>
      <use x="46.333984" xlink:href="#DejaVuSans-114"/>
      <use x="87.447266" xlink:href="#DejaVuSans-105"/>
      <use x="115.230469" xlink:href="#DejaVuSans-97"/>
      <use x="176.509766" xlink:href="#DejaVuSans-108"/>
      <use x="204.292969" xlink:href="#DejaVuSans-115"/>
     </g>
    </g>
   </g>
   <g id="matplotlib.axis_12">
    <g id="ytick_16">
     <g id="line2d_46">
      <g>
       <use style="stroke:#000000;stroke-width:0.8;" x="220.59" xlink:href="#mfa01fa56ac" y="389.704458"/>
      </g>
     </g>
     <g id="text_48">
      <!-- −10 -->
      <g transform="translate(192.485312 393.503677)scale(0.1 -0.1)">
       <use xlink:href="#DejaVuSans-8722"/>
       <use x="83.789062" xlink:href="#DejaVuSans-49"/>
       <use x="147.412109" xlink:href="#DejaVuSans-48"/>
      </g>
     </g>
    </g>
    <g id="ytick_17">
     <g id="line2d_47">
      <g>
       <use style="stroke:#000000;stroke-width:0.8;" x="220.59" xlink:href="#mfa01fa56ac" y="354.071177"/>
      </g>
     </g>
     <g id="text_49">
      <!-- 0 -->
      <g transform="translate(207.2275 357.870396)scale(0.1 -0.1)">
       <use xlink:href="#DejaVuSans-48"/>
      </g>
     </g>
    </g>
    <g id="ytick_18">
     <g id="line2d_48">
      <g>
       <use style="stroke:#000000;stroke-width:0.8;" x="220.59" xlink:href="#mfa01fa56ac" y="318.437896"/>
      </g>
     </g>
     <g id="text_50">
      <!-- 10 -->
      <g transform="translate(200.865 322.237115)scale(0.1 -0.1)">
       <use xlink:href="#DejaVuSans-49"/>
       <use x="63.623047" xlink:href="#DejaVuSans-48"/>
      </g>
     </g>
    </g>
   </g>
   <g id="line2d_49">
    <path clip-path="url(#p757f40c770)" d="M 226.058735 354.071177 
L 232.784041 354.071177 
L 233.138004 318.437896 
L 254.021848 318.437896 
L 254.375811 354.071177 
L 268.180386 354.071177 
L 268.534349 318.437896 
L 285.878558 318.437896 
L 286.232521 354.071177 
L 292.957827 354.071177 
L 293.31179 318.437896 
L 303.57673 318.437896 
L 303.930694 354.071177 
L 317.735268 354.071177 
L 318.089232 318.437896 
L 335.433441 318.437896 
L 335.433441 318.437896 
" style="fill:none;stroke:#000000;stroke-linecap:square;stroke-width:1.5;"/>
   </g>
   <g id="patch_28">
    <path d="M 220.59 390.04 
L 220.59 294.293333 
" style="fill:none;stroke:#000000;stroke-linecap:square;stroke-linejoin:miter;stroke-width:0.8;"/>
   </g>
   <g id="patch_29">
    <path d="M 340.902176 390.04 
L 340.902176 294.293333 
" style="fill:none;stroke:#000000;stroke-linecap:square;stroke-linejoin:miter;stroke-width:0.8;"/>
   </g>
   <g id="patch_30">
    <path d="M 220.59 390.04 
L 340.902176 390.04 
" style="fill:none;stroke:#000000;stroke-linecap:square;stroke-linejoin:miter;stroke-width:0.8;"/>
   </g>
   <g id="patch_31">
    <path d="M 220.59 294.293333 
L 340.902176 294.293333 
" style="fill:none;stroke:#000000;stroke-linecap:square;stroke-linejoin:miter;stroke-width:0.8;"/>
   </g>
  </g>
 </g>
 <defs>
  <clipPath id="pdbf08df180">
   <rect height="95.746667" width="120.312176" x="53.03" y="25.44"/>
  </clipPath>
  <clipPath id="p704e9a0788">
   <rect height="95.746667" width="120.312176" x="220.59" y="25.44"/>
  </clipPath>
  <clipPath id="p885361fe93">
   <rect height="95.746667" width="120.312176" x="53.03" y="159.866667"/>
  </clipPath>
  <clipPath id="pb4dea35b1d">
   <rect height="95.746667" width="120.312176" x="220.59" y="159.866667"/>
  </clipPath>
  <clipPath id="p1d23b4ee23">
   <rect height="95.746667" width="120.312176" x="53.03" y="294.293333"/>
  </clipPath>
  <clipPath id="p757f40c770">
   <rect height="95.746667" width="120.312176" x="220.59" y="294.293333"/>
  </clipPath>
 </defs>
</svg>
