<?xml version="1.0" encoding="UTF-8" standalone="no"?>
<!-- Created with matplotlib (https://matplotlib.org/) -->

<svg
   height="216pt"
   version="1.1"
   viewBox="0 0 288 216"
   width="288pt"
   id="svg497"
   sodipodi:docname="figure_3.svg"
   inkscape:version="1.1.1 (3bf5ae0d25, 2021-09-20)"
   inkscape:export-filename="/home/dario/Work/proj_glove/adaptation/article/figures/figure_3.png"
   inkscape:export-xdpi="600"
   inkscape:export-ydpi="600"
   xmlns:inkscape="http://www.inkscape.org/namespaces/inkscape"
   xmlns:sodipodi="http://sodipodi.sourceforge.net/DTD/sodipodi-0.dtd"
   xmlns:xlink="http://www.w3.org/1999/xlink"
   xmlns="http://www.w3.org/2000/svg"
   xmlns:svg="http://www.w3.org/2000/svg"
   xmlns:rdf="http://www.w3.org/1999/02/22-rdf-syntax-ns#"
   xmlns:cc="http://creativecommons.org/ns#"
   xmlns:dc="http://purl.org/dc/elements/1.1/">
  <sodipodi:namedview
     id="namedview499"
     pagecolor="#ffffff"
     bordercolor="#666666"
     borderopacity="1.0"
     inkscape:pageshadow="2"
     inkscape:pageopacity="0.0"
     inkscape:pagecheckerboard="0"
     inkscape:document-units="pt"
     showgrid="false"
     inkscape:snap-global="false"
     inkscape:zoom="1.0902778"
     inkscape:cx="82.547771"
     inkscape:cy="-27.515924"
     inkscape:window-width="1920"
     inkscape:window-height="1023"
     inkscape:window-x="0"
     inkscape:window-y="0"
     inkscape:window-maximized="1"
     inkscape:current-layer="svg497" />
  <metadata
     id="metadata2">
    <rdf:RDF>
      <cc:Work>
        <dc:type
           rdf:resource="http://purl.org/dc/dcmitype/StillImage" />
        <dc:date>2021-10-01T15:05:55.379561</dc:date>
        <dc:format>image/svg+xml</dc:format>
        <dc:creator>
          <cc:Agent>
            <dc:title>Matplotlib v3.3.4, https://matplotlib.org/</dc:title>
          </cc:Agent>
        </dc:creator>
      </cc:Work>
    </rdf:RDF>
  </metadata>
  <defs
     id="defs6">
    <style
       type="text/css"
       id="style4">*{stroke-linecap:butt;stroke-linejoin:round;}</style>
  </defs>
  <g
     id="figure_1">
    <g
       id="patch_1">
      <path
         d="M 0 216  L 288 216  L 288 0  L 0 0  z "
         style="fill:#ffffff;"
         id="path8" />
    </g>
    <g
       id="axes_1">
      <g
         id="patch_2">
        <path
           d="M 44.66 174.04  L 146.588726 174.04  L 146.588726 28.859048  L 44.66 28.859048  z "
           style="fill:#ffffff;"
           id="path11" />
      </g>
      <g
         id="PolyCollection_1">
        <path
           clip-path="url(#p1c8187a290)"
           d="M -365.603122 159.238844  L -365.603122 159.238844  L -363.054904 106.037442  L -360.506686 103.399822  L -357.958468 93.113703  L -355.41025 89.95943  L -352.862032 135.566997  L -350.313814 142.020372  L -347.765595 137.024271  L -345.217377 125.827915  L -342.669159 152.838251  L -340.120941 148.853055  L -337.572723 158.411035  L -335.024505 152.465681  L -332.476286 151.957219  L -329.928068 150.490232  L -327.37985 153.802042  L -324.831632 156.301959  L -322.283414 158.672122  L -319.735196 147.477463  L -317.186978 155.249756  L -314.638759 146.362974  L -312.090541 152.136359  L -309.542323 152.119313  L -306.994105 151.418621  L -304.445887 152.041109  L -301.897669 146.366351  L -299.34945 154.481445  L -296.801232 157.558395  L -294.253014 157.904957  L -291.704796 157.584072  L -289.156578 152.293379  L -286.60836 147.039137  L -284.060142 148.260715  L -281.511923 157.124376  L -278.963705 147.314478  L -276.415487 137.878824  L -273.867269 144.811735  L -271.319051 153.909009  L -268.770833 157.859972  L -266.222615 153.168465  L -263.674396 163.362509  L -261.126178 163.110758  L -258.57796 149.419766  L -256.029742 157.491544  L -253.481524 159.83526  L -250.933306 157.959869  L -248.385087 150.464908  L -245.836869 156.322608  L -243.288651 148.680047  L -240.740433 157.32504  L -238.192215 150.943027  L -235.643997 152.470799  L -233.095779 152.593256  L -230.54756 151.781876  L -227.999342 158.492149  L -225.451124 157.923593  L -222.902906 153.584712  L -220.354688 150.84476  L -217.80647 152.756265  L -215.258251 153.180899  L -212.710033 158.569936  L -210.161815 156.535912  L -207.613597 149.048479  L -205.065379 150.00661  L -202.517161 153.997143  L -199.968943 153.21727  L -197.420724 152.342279  L -194.872506 153.399548  L -192.324288 152.314529  L -189.77607 160.678799  L -187.227852 154.916861  L -184.679634 154.166586  L -182.131415 156.645555  L -179.583197 160.618799  L -177.034979 155.116524  L -174.486761 155.770325  L -171.938543 153.522235  L -169.390325 157.343914  L -166.842107 153.240917  L -164.293888 148.264654  L -161.74567 155.380403  L -159.197452 154.107619  L -156.649234 155.6632  L -154.101016 162.617648  L -151.552798 156.784283  L -149.00458 156.901784  L -146.456361 154.773796  L -143.908143 157.361932  L -141.359925 152.041162  L -138.811707 145.52976  L -136.263489 154.545846  L -133.715271 153.334315  L -131.167052 161.452642  L -128.618834 148.682461  L -126.070616 154.669132  L -123.522398 157.627767  L -120.97418 158.642702  L -118.425962 155.851961  L -115.877744 156.258848  L -113.329525 156.884455  L -110.781307 155.436857  L -108.233089 156.747682  L -105.684871 159.150118  L -103.136653 151.464189  L -100.588435 154.288105  L -98.040216 148.242294  L -95.491998 156.917572  L -92.94378 148.040971  L -90.395562 157.674821  L -87.847344 158.75042  L -85.299126 157.36621  L -82.750908 150.903864  L -80.202689 156.174631  L -77.654471 154.373034  L -75.106253 152.526946  L -72.558035 153.122246  L -70.009817 156.408425  L -67.461599 160.963934  L -64.913381 158.439579  L -62.365162 162.638357  L -59.816944 155.420908  L -57.268726 153.7085  L -54.720508 149.208878  L -52.17229 157.325247  L -49.624072 159.647255  L -47.075853 155.236604  L -44.527635 151.149639  L -41.979417 153.923535  L -39.431199 152.019167  L -36.882981 150.446556  L -34.334763 155.941475  L -31.786545 153.427376  L -29.238326 154.354333  L -26.690108 158.450305  L -24.14189 152.698602  L -21.593672 152.384285  L -19.045454 155.797306  L -16.497236 152.985949  L -13.949017 154.352207  L -11.400799 153.962002  L -8.852581 156.507369  L -6.304363 152.476062  L -3.756145 156.038504  L -1.207927 141.752499  L 1.340291 154.43608  L 3.88851 160.70245  L 6.436728 154.653363  L 8.984946 157.562729  L 11.533164 156.516796  L 14.081382 153.185898  L 16.6296 155.758665  L 19.177818 147.131786  L 21.726037 160.6851  L 24.274255 159.140019  L 26.822473 155.817767  L 29.370691 160.165916  L 31.918909 154.727279  L 34.467127 150.120644  L 37.015346 159.347315  L 39.563564 146.177632  L 42.111782 157.404951  L 44.66 91.336362  L 47.208218 109.060828  L 49.756436 102.837808  L 52.304654 90.9641  L 54.852873 106.800138  L 57.401091 125.596614  L 59.949309 123.332391  L 62.497527 140.368726  L 65.045745 150.910248  L 67.593963 154.371054  L 70.142182 147.74652  L 72.6904 152.510375  L 75.238618 159.471318  L 77.786836 151.844942  L 80.335054 155.315023  L 82.883272 160.782072  L 85.43149 150.567725  L 87.979709 150.704356  L 90.527927 156.092762  L 93.076145 151.911712  L 95.624363 153.684215  L 98.172581 153.226701  L 100.720799 152.957358  L 103.269017 155.325157  L 105.817236 150.530998  L 108.365454 151.12277  L 110.913672 152.728381  L 113.46189 158.247266  L 116.010108 145.94735  L 118.558326 156.716865  L 121.106545 152.952224  L 123.654763 153.452515  L 126.202981 152.883078  L 128.751199 153.923092  L 131.299417 145.950942  L 133.847635 148.513695  L 136.395853 151.571686  L 138.944072 153.873395  L 141.49229 156.707582  L 144.040508 147.96516  L 146.588726 155.583238  L 149.136944 154.786088  L 151.685162 152.332819  L 154.233381 157.284412  L 156.781599 149.047071  L 159.329817 154.323694  L 161.878035 155.171466  L 164.426253 154.985665  L 166.974471 154.457903  L 169.522689 147.516791  L 172.070908 151.970449  L 174.619126 156.461578  L 177.167344 151.228726  L 179.715562 154.899975  L 182.26378 159.611633  L 184.811998 157.049178  L 187.360216 152.852782  L 189.908435 151.161084  L 192.456653 156.050887  L 195.004871 156.117575  L 197.553089 159.951665  L 200.101307 155.811844  L 202.649525 148.426465  L 205.197744 156.250212  L 207.745962 149.067762  L 210.29418 151.737454  L 212.842398 146.102987  L 215.390616 153.77386  L 217.938834 152.317639  L 220.487052 150.463704  L 223.035271 153.081454  L 225.583489 154.220646  L 228.131707 158.145555  L 230.679925 158.077369  L 233.228143 157.198939  L 235.776361 150.034758  L 238.32458 158.675798  L 240.872798 151.159138  L 243.421016 153.207708  L 245.969234 156.951868  L 248.517452 154.267352  L 251.06567 155.004624  L 253.613888 149.068142  L 256.162107 147.410901  L 258.710325 150.085552  L 261.258543 153.134812  L 263.806761 155.089615  L 266.354979 155.378433  L 268.903197 153.12107  L 271.451415 153.904531  L 273.999634 150.588013  L 276.547852 158.634477  L 279.09607 154.761616  L 281.644288 152.811593  L 284.192506 156.442287  L 286.740724 152.082908  L 289.288943 156.192572  L 291.837161 149.633192  L 294.385379 157.575011  L 296.933597 152.980675  L 299.481815 150.04285  L 302.030033 152.014334  L 304.578251 150.730912  L 307.12647 150.203936  L 309.674688 152.928788  L 312.222906 149.256268  L 314.771124 152.798844  L 317.319342 146.271047  L 319.86756 156.952965  L 322.415779 151.917993  L 324.963997 150.51466  L 327.512215 152.416757  L 330.060433 159.284459  L 332.608651 153.020334  L 335.156869 144.450113  L 337.705087 151.029024  L 340.253306 156.036117  L 342.801524 152.431548  L 345.349742 154.263573  L 347.89796 157.630049  L 350.446178 153.528953  L 352.994396 149.783981  L 355.542615 167.440866  L 358.090833 155.540669  L 360.639051 150.951541  L 363.187269 161.394416  L 365.735487 150.622751  L 368.283705 151.940204  L 370.831923 149.387402  L 373.380142 152.033728  L 375.92836 159.833424  L 378.476578 152.203651  L 381.024796 148.07967  L 383.573014 157.038279  L 386.121232 151.137642  L 388.66945 155.958304  L 391.217669 156.185809  L 393.765887 158.881639  L 396.314105 156.688005  L 398.862323 158.631699  L 401.410541 153.370385  L 403.958759 152.871697  L 406.506978 153.975072  L 409.055196 155.348401  L 411.603414 151.680761  L 414.151632 156.192638  L 416.69985 150.816398  L 419.248068 159.216771  L 421.796286 155.431266  L 424.344505 159.037303  L 426.892723 155.449534  L 429.440941 155.006925  L 431.989159 157.014262  L 434.537377 154.470946  L 437.085595 157.542671  L 439.633814 162.298044  L 442.182032 155.25791  L 444.73025 150.199619  L 447.278468 152.648644  L 447.278468 116.787439  L 447.278468 116.787439  L 444.73025 123.1261  L 442.182032 116.756426  L 439.633814 129.011536  L 437.085595 133.44292  L 434.537377 143.795764  L 431.989159 127.555286  L 429.440941 134.234329  L 426.892723 126.798566  L 424.344505 125.105566  L 421.796286 135.236882  L 419.248068 128.582598  L 416.69985 134.238012  L 414.151632 136.946624  L 411.603414 119.691194  L 409.055196 121.066651  L 406.506978 112.426052  L 403.958759 136.18141  L 401.410541 128.726662  L 398.862323 117.741069  L 396.314105 116.510865  L 393.765887 118.219317  L 391.217669 125.44513  L 388.66945 118.282657  L 386.121232 126.381804  L 383.573014 127.328632  L 381.024796 119.260494  L 378.476578 137.721344  L 375.92836 136.680586  L 373.380142 119.000833  L 370.831923 115.732165  L 368.283705 126.075417  L 365.735487 132.098864  L 363.187269 129.794735  L 360.639051 129.90971  L 358.090833 132.416159  L 355.542615 123.230803  L 352.994396 131.708642  L 350.446178 125.947634  L 347.89796 132.352154  L 345.349742 137.721232  L 342.801524 123.498341  L 340.253306 138.195248  L 337.705087 131.210336  L 335.156869 121.496454  L 332.608651 120.640867  L 330.060433 139.516479  L 327.512215 129.908156  L 324.963997 127.175455  L 322.415779 126.638493  L 319.86756 135.708451  L 317.319342 112.841824  L 314.771124 129.223383  L 312.222906 128.003157  L 309.674688 138.56718  L 307.12647 111.190084  L 304.578251 126.896404  L 302.030033 133.557818  L 299.481815 120.027631  L 296.933597 126.04397  L 294.385379 118.715544  L 291.837161 117.586521  L 289.288943 124.161998  L 286.740724 126.239527  L 284.192506 139.073554  L 281.644288 128.639321  L 279.09607 122.835623  L 276.547852 111.347497  L 273.999634 130.188042  L 271.451415 124.64202  L 268.903197 130.162623  L 266.354979 131.980652  L 263.806761 137.046338  L 261.258543 121.732146  L 258.710325 121.492925  L 256.162107 115.191202  L 253.613888 130.099856  L 251.06567 130.751271  L 248.517452 131.604829  L 245.969234 121.259775  L 243.421016 124.673178  L 240.872798 123.989936  L 238.32458 128.839628  L 235.776361 131.046878  L 233.228143 124.994511  L 230.679925 128.291699  L 228.131707 127.306635  L 225.583489 128.938095  L 223.035271 137.832222  L 220.487052 122.573012  L 217.938834 119.366106  L 215.390616 122.365255  L 212.842398 119.40952  L 210.29418 132.275556  L 207.745962 122.723605  L 205.197744 122.60578  L 202.649525 128.810295  L 200.101307 122.570467  L 197.553089 134.557126  L 195.004871 120.523629  L 192.456653 110.457365  L 189.908435 136.623376  L 187.360216 129.151824  L 184.811998 129.539741  L 182.26378 119.185939  L 179.715562 117.558904  L 177.167344 120.2481  L 174.619126 119.704856  L 172.070908 134.176908  L 169.522689 115.225242  L 166.974471 138.589508  L 164.426253 128.979287  L 161.878035 108.583747  L 159.329817 138.168077  L 156.781599 124.767735  L 154.233381 129.833606  L 151.685162 125.752227  L 149.136944 128.955785  L 146.588726 137.042058  L 144.040508 125.874714  L 141.49229 119.700399  L 138.944072 121.201165  L 136.395853 132.390085  L 133.847635 129.852431  L 131.299417 118.654348  L 128.751199 135.490901  L 126.202981 130.396725  L 123.654763 131.189647  L 121.106545 127.847523  L 118.558326 132.920535  L 116.010108 126.623843  L 113.46189 126.497597  L 110.913672 120.139104  L 108.365454 112.526787  L 105.817236 122.631202  L 103.269017 128.977318  L 100.720799 132.023821  L 98.172581 118.473401  L 95.624363 126.56667  L 93.076145 136.930825  L 90.527927 115.939997  L 87.979709 129.776369  L 85.43149 130.92128  L 82.883272 102.874655  L 80.335054 123.390115  L 77.786836 129.780052  L 75.238618 117.646765  L 72.6904 113.963393  L 70.142182 131.231226  L 67.593963 103.206111  L 65.045745 96.477943  L 62.497527 88.087033  L 59.949309 73.845221  L 57.401091 82.589919  L 54.852873 60.320087  L 52.304654 70.589986  L 49.756436 49.56841  L 47.208218 60.724093  L 44.66 62.865951  L 42.111782 135.539103  L 39.563564 123.796764  L 37.015346 130.089585  L 34.467127 117.409742  L 31.918909 111.974142  L 29.370691 120.220514  L 26.822473 139.209407  L 24.274255 138.659184  L 21.726037 139.720628  L 19.177818 128.036982  L 16.6296 129.262207  L 14.081382 124.71337  L 11.533164 135.296209  L 8.984946 133.410924  L 6.436728 131.619919  L 3.88851 133.910179  L 1.340291 131.906305  L -1.207927 115.95016  L -3.756145 106.997486  L -6.304363 123.259104  L -8.852581 129.104867  L -11.400799 135.371911  L -13.949017 131.523185  L -16.497236 111.203652  L -19.045454 130.661249  L -21.593672 129.883847  L -24.14189 130.953313  L -26.690108 136.077518  L -29.238326 127.697184  L -31.786545 112.331533  L -34.334763 141.236152  L -36.882981 128.581652  L -39.431199 137.113834  L -41.979417 102.460978  L -44.527635 117.426621  L -47.075853 124.766308  L -49.624072 119.518886  L -52.17229 126.027489  L -54.720508 116.069345  L -57.268726 117.483994  L -59.816944 138.726612  L -62.365162 123.602357  L -64.913381 122.811348  L -67.461599 137.873096  L -70.009817 129.110353  L -72.558035 127.598853  L -75.106253 110.990299  L -77.654471 123.729727  L -80.202689 121.309249  L -82.750908 128.249494  L -85.299126 129.752041  L -87.847344 103.653572  L -90.395562 137.441058  L -92.94378 131.356252  L -95.491998 134.524147  L -98.040216 127.110939  L -100.588435 137.138296  L -103.136653 117.482474  L -105.684871 130.268807  L -108.233089 136.963943  L -110.781307 111.932473  L -113.329525 105.46446  L -115.877744 130.701245  L -118.425962 139.389088  L -120.97418 137.659438  L -123.522398 123.322766  L -126.070616 122.386367  L -128.618834 133.59562  L -131.167052 118.914165  L -133.715271 113.433065  L -136.263489 139.04271  L -138.811707 122.771641  L -141.359925 121.128196  L -143.908143 132.800957  L -146.456361 123.597652  L -149.00458 123.594734  L -151.552798 130.790667  L -154.101016 129.471678  L -156.649234 133.760519  L -159.197452 135.08651  L -161.74567 134.25923  L -164.293888 124.517797  L -166.842107 129.600524  L -169.390325 138.990455  L -171.938543 126.973708  L -174.486761 129.463751  L -177.034979 120.566848  L -179.583197 119.151653  L -182.131415 137.910556  L -184.679634 128.029334  L -187.227852 129.995153  L -189.77607 115.661662  L -192.324288 130.594006  L -194.872506 114.712171  L -197.420724 128.162042  L -199.968943 133.000455  L -202.517161 133.802318  L -205.065379 123.087404  L -207.613597 126.159385  L -210.161815 117.952817  L -212.710033 145.574674  L -215.258251 139.219016  L -217.80647 130.576398  L -220.354688 119.213171  L -222.902906 120.374238  L -225.451124 138.793777  L -227.999342 135.21201  L -230.54756 125.646189  L -233.095779 116.733699  L -235.643997 139.297524  L -238.192215 138.058834  L -240.740433 118.668577  L -243.288651 128.573613  L -245.836869 118.462105  L -248.385087 124.897804  L -250.933306 129.058391  L -253.481524 116.995451  L -256.029742 128.550558  L -258.57796 114.629987  L -261.126178 105.287203  L -263.674396 115.885513  L -266.222615 109.707669  L -268.770833 147.205283  L -271.319051 127.169086  L -273.867269 114.80241  L -276.415487 119.261349  L -278.963705 135.025181  L -281.511923 118.540419  L -284.060142 129.229154  L -286.60836 116.158867  L -289.156578 111.821163  L -291.704796 130.069811  L -294.253014 119.379945  L -296.801232 117.190065  L -299.34945 134.26546  L -301.897669 113.748646  L -304.445887 110.368365  L -306.994105 122.967785  L -309.542323 108.440869  L -312.090541 129.65992  L -314.638759 96.97753  L -317.186978 130.851686  L -319.735196 101.99282  L -322.283414 119.99057  L -324.831632 135.952823  L -327.37985 126.161062  L -329.928068 125.812231  L -332.476286 115.727575  L -335.024505 118.408339  L -337.572723 120.087473  L -340.120941 111.526544  L -342.669159 123.58514  L -345.217377 88.143579  L -347.765595 77.344387  L -350.313814 92.42657  L -352.862032 70.775876  L -355.41025 42.991657  L -357.958468 45.621771  L -360.506686 51.193542  L -363.054904 62.039057  L -365.603122 159.238844  z "
           style="fill:#5f6dd3;fill-opacity:0.2;stroke:#5f6dd3;stroke-opacity:0.2;"
           id="path14" />
      </g>
      <g
         id="PolyCollection_2">
        <path
           clip-path="url(#p1c8187a290)"
           d="M -365.603122 159.238844  L -365.603122 159.238844  L -363.054904 105.432069  L -360.506686 102.749265  L -357.958468 124.517649  L -355.41025 91.485758  L -352.862032 123.826956  L -350.313814 119.346993  L -347.765595 140.141243  L -345.217377 159.065774  L -342.669159 151.792378  L -340.120941 160.051719  L -337.572723 157.374625  L -335.024505 149.926841  L -332.476286 150.749692  L -329.928068 151.620022  L -327.37985 155.513173  L -324.831632 153.076835  L -322.283414 157.093826  L -319.735196 149.963503  L -317.186978 155.545131  L -314.638759 154.695335  L -312.090541 159.902613  L -309.542323 157.382329  L -306.994105 151.809801  L -304.445887 161.879302  L -301.897669 152.306649  L -299.34945 153.453491  L -296.801232 157.454073  L -294.253014 150.36095  L -291.704796 157.287158  L -289.156578 157.722707  L -286.60836 147.428072  L -284.060142 156.868371  L -281.511923 151.006871  L -278.963705 154.690452  L -276.415487 158.259628  L -273.867269 157.823447  L -271.319051 150.482584  L -268.770833 145.364373  L -266.222615 156.465844  L -263.674396 147.33262  L -261.126178 155.135425  L -258.57796 153.601665  L -256.029742 153.336393  L -253.481524 148.304034  L -250.933306 159.332253  L -248.385087 148.814904  L -245.836869 145.126904  L -243.288651 147.891388  L -240.740433 150.460532  L -238.192215 148.224216  L -235.643997 154.651844  L -233.095779 150.724311  L -230.54756 155.573213  L -227.999342 154.019347  L -225.451124 146.450421  L -222.902906 150.752729  L -220.354688 151.765851  L -217.80647 154.325462  L -215.258251 156.946366  L -212.710033 149.62051  L -210.161815 151.974707  L -207.613597 154.4249  L -205.065379 165.353351  L -202.517161 153.790558  L -199.968943 153.268524  L -197.420724 149.728802  L -194.872506 153.106092  L -192.324288 162.841467  L -189.77607 156.680527  L -187.227852 157.091579  L -184.679634 152.866512  L -182.131415 154.408479  L -179.583197 159.772064  L -177.034979 156.419015  L -174.486761 162.959448  L -171.938543 147.096617  L -169.390325 155.241441  L -166.842107 157.996752  L -164.293888 151.475949  L -161.74567 156.694466  L -159.197452 146.028968  L -156.649234 154.558693  L -154.101016 158.49713  L -151.552798 166.875339  L -149.00458 157.09809  L -146.456361 159.118461  L -143.908143 154.607475  L -141.359925 154.439262  L -138.811707 151.74202  L -136.263489 151.259778  L -133.715271 160.232244  L -131.167052 154.558825  L -128.618834 155.479005  L -126.070616 157.253829  L -123.522398 157.798719  L -120.97418 152.662026  L -118.425962 162.771939  L -115.877744 150.870308  L -113.329525 153.999352  L -110.781307 154.83112  L -108.233089 159.337302  L -105.684871 152.540431  L -103.136653 154.596649  L -100.588435 152.901328  L -98.040216 153.019036  L -95.491998 156.643104  L -92.94378 156.024152  L -90.395562 145.649642  L -87.847344 153.430565  L -85.299126 149.048041  L -82.750908 152.265225  L -80.202689 147.218349  L -77.654471 152.973214  L -75.106253 154.207618  L -72.558035 148.936606  L -70.009817 151.719175  L -67.461599 144.166998  L -64.913381 153.919041  L -62.365162 153.761368  L -59.816944 155.897664  L -57.268726 150.383726  L -54.720508 152.911526  L -52.17229 153.57331  L -49.624072 159.168319  L -47.075853 156.451115  L -44.527635 158.285769  L -41.979417 147.805745  L -39.431199 157.16508  L -36.882981 148.184591  L -34.334763 159.510483  L -31.786545 148.665381  L -29.238326 155.877924  L -26.690108 150.57894  L -24.14189 151.131582  L -21.593672 157.345811  L -19.045454 154.784943  L -16.497236 147.53504  L -13.949017 151.692012  L -11.400799 152.937774  L -8.852581 150.921245  L -6.304363 154.808668  L -3.756145 154.591682  L -1.207927 157.508232  L 1.340291 150.824542  L 3.88851 144.055227  L 6.436728 158.474225  L 8.984946 155.716998  L 11.533164 149.260213  L 14.081382 147.615417  L 16.6296 156.764868  L 19.177818 159.958964  L 21.726037 153.518364  L 24.274255 147.379687  L 26.822473 160.933852  L 29.370691 149.123526  L 31.918909 153.005277  L 34.467127 152.553934  L 37.015346 152.269935  L 39.563564 150.221201  L 42.111782 153.581041  L 44.66 83.863464  L 47.208218 93.077652  L 49.756436 136.371221  L 52.304654 112.080225  L 54.852873 137.594756  L 57.401091 123.562928  L 59.949309 147.742618  L 62.497527 151.519854  L 65.045745 160.271706  L 67.593963 152.354591  L 70.142182 154.709031  L 72.6904 152.503887  L 75.238618 155.34173  L 77.786836 156.421837  L 80.335054 149.396229  L 82.883272 153.79828  L 85.43149 152.425175  L 87.979709 160.02959  L 90.527927 143.853698  L 93.076145 156.511464  L 95.624363 156.653187  L 98.172581 159.724722  L 100.720799 152.517503  L 103.269017 152.571158  L 105.817236 155.626019  L 108.365454 155.513075  L 110.913672 156.955055  L 113.46189 154.782038  L 116.010108 151.463586  L 118.558326 145.014594  L 121.106545 153.11167  L 123.654763 156.536428  L 126.202981 155.840587  L 128.751199 166.058529  L 131.299417 153.755472  L 133.847635 154.16982  L 136.395853 159.062063  L 138.944072 153.885937  L 141.49229 158.810469  L 144.040508 148.297311  L 146.588726 152.024791  L 149.136944 160.882476  L 151.685162 149.439787  L 154.233381 154.601088  L 156.781599 148.591187  L 159.329817 160.845928  L 161.878035 159.084844  L 164.426253 158.223261  L 166.974471 154.928803  L 169.522689 158.354354  L 172.070908 152.30091  L 174.619126 154.367963  L 177.167344 155.742158  L 179.715562 155.494622  L 182.26378 154.709981  L 184.811998 152.689102  L 187.360216 157.044529  L 189.908435 156.602193  L 192.456653 153.953097  L 195.004871 155.927027  L 197.553089 154.479019  L 200.101307 147.447167  L 202.649525 155.664403  L 205.197744 152.424822  L 207.745962 155.242435  L 210.29418 150.562795  L 212.842398 151.665683  L 215.390616 154.509187  L 217.938834 153.308466  L 220.487052 150.920855  L 223.035271 157.382951  L 225.583489 155.47699  L 228.131707 150.239186  L 230.679925 160.631383  L 233.228143 153.171258  L 235.776361 152.265816  L 238.32458 150.597399  L 240.872798 156.138733  L 243.421016 157.419911  L 245.969234 152.762263  L 248.517452 149.218158  L 251.06567 149.324355  L 253.613888 143.284667  L 256.162107 162.217586  L 258.710325 149.019348  L 261.258543 155.828978  L 263.806761 157.108828  L 266.354979 154.290787  L 268.903197 159.779725  L 271.451415 160.187353  L 273.999634 154.337016  L 276.547852 155.955172  L 279.09607 155.07238  L 281.644288 153.775852  L 284.192506 152.795231  L 286.740724 152.895275  L 289.288943 153.56589  L 291.837161 154.014509  L 294.385379 157.631774  L 296.933597 155.928079  L 299.481815 153.755502  L 302.030033 151.818266  L 304.578251 156.638193  L 307.12647 155.116361  L 309.674688 152.744821  L 312.222906 154.634776  L 314.771124 159.6285  L 317.319342 154.836881  L 319.86756 153.716118  L 322.415779 155.12149  L 324.963997 155.084996  L 327.512215 159.185443  L 330.060433 154.453317  L 332.608651 156.228775  L 335.156869 158.736846  L 337.705087 156.301676  L 340.253306 149.090116  L 342.801524 154.945758  L 345.349742 154.917243  L 347.89796 151.458334  L 350.446178 158.952744  L 352.994396 147.707398  L 355.542615 158.325528  L 358.090833 156.102446  L 360.639051 156.404384  L 363.187269 148.961224  L 365.735487 145.109593  L 368.283705 152.935717  L 370.831923 149.558708  L 373.380142 146.54699  L 375.92836 147.631352  L 378.476578 153.496729  L 381.024796 153.306768  L 383.573014 160.99422  L 386.121232 156.528422  L 388.66945 152.343737  L 391.217669 154.104283  L 393.765887 154.262402  L 396.314105 151.542203  L 398.862323 155.188055  L 401.410541 162.104657  L 403.958759 159.705462  L 406.506978 156.863819  L 409.055196 152.102954  L 411.603414 151.921945  L 414.151632 160.084371  L 416.69985 153.406208  L 419.248068 153.70106  L 421.796286 153.003597  L 424.344505 155.901964  L 426.892723 154.707411  L 429.440941 138.700053  L 431.989159 154.351022  L 434.537377 155.832728  L 437.085595 140.654371  L 439.633814 152.27011  L 442.182032 147.770707  L 444.73025 154.429013  L 447.278468 156.67283  L 447.278468 133.571987  L 447.278468 133.571987  L 444.73025 131.343863  L 442.182032 123.863251  L 439.633814 116.762311  L 437.085595 116.195328  L 434.537377 136.97961  L 431.989159 120.224534  L 429.440941 112.193493  L 426.892723 139.129368  L 424.344505 129.478105  L 421.796286 133.84265  L 419.248068 112.002301  L 416.69985 130.024347  L 414.151632 125.46391  L 411.603414 136.980341  L 409.055196 142.922566  L 406.506978 132.320223  L 403.958759 136.221335  L 401.410541 130.463762  L 398.862323 129.644925  L 396.314105 122.139592  L 393.765887 140.185767  L 391.217669 145.278962  L 388.66945 124.582341  L 386.121232 122.088235  L 383.573014 109.825301  L 381.024796 116.5623  L 378.476578 132.054894  L 375.92836 126.238815  L 373.380142 128.975673  L 370.831923 119.487671  L 368.283705 129.566216  L 365.735487 119.59737  L 363.187269 126.707038  L 360.639051 136.12657  L 358.090833 137.96911  L 355.542615 138.363863  L 352.994396 134.105221  L 350.446178 137.1555  L 347.89796 136.428784  L 345.349742 129.996677  L 342.801524 128.616507  L 340.253306 131.568974  L 337.705087 140.768417  L 335.156869 132.566747  L 332.608651 116.142047  L 330.060433 115.986907  L 327.512215 123.902646  L 324.963997 126.162162  L 322.415779 135.211653  L 319.86756 138.039083  L 317.319342 131.55328  L 314.771124 131.916345  L 312.222906 128.870622  L 309.674688 135.893423  L 307.12647 142.292791  L 304.578251 135.535038  L 302.030033 133.373071  L 299.481815 129.109331  L 296.933597 130.473589  L 294.385379 127.984373  L 291.837161 129.228081  L 289.288943 129.334364  L 286.740724 122.350138  L 284.192506 118.061312  L 281.644288 124.465748  L 279.09607 141.936688  L 276.547852 139.921688  L 273.999634 124.979059  L 271.451415 125.309324  L 268.903197 124.429327  L 266.354979 139.029681  L 263.806761 123.665082  L 261.258543 136.180196  L 258.710325 114.891245  L 256.162107 123.323368  L 253.613888 128.72024  L 251.06567 117.448054  L 248.517452 130.289696  L 245.969234 141.712563  L 243.421016 133.292808  L 240.872798 140.57668  L 238.32458 131.896554  L 235.776361 126.367654  L 233.228143 130.118893  L 230.679925 132.701013  L 228.131707 125.259586  L 225.583489 131.400473  L 223.035271 133.946771  L 220.487052 118.840435  L 217.938834 128.389445  L 215.390616 129.738523  L 212.842398 119.133113  L 210.29418 132.692451  L 207.745962 132.982288  L 205.197744 114.701464  L 202.649525 104.143524  L 200.101307 124.007329  L 197.553089 128.68632  L 195.004871 133.552733  L 192.456653 122.42895  L 189.908435 129.786694  L 187.360216 123.92306  L 184.811998 122.720731  L 182.26378 122.978587  L 179.715562 133.737715  L 177.167344 135.594897  L 174.619126 117.847713  L 172.070908 126.454262  L 169.522689 119.858268  L 166.974471 115.328404  L 164.426253 139.587924  L 161.878035 139.811904  L 159.329817 110.634454  L 156.781599 116.717589  L 154.233381 144.412246  L 151.685162 124.7284  L 149.136944 121.878741  L 146.588726 121.361542  L 144.040508 142.861068  L 141.49229 121.592618  L 138.944072 128.140912  L 136.395853 144.854286  L 133.847635 132.990862  L 131.299417 135.469432  L 128.751199 106.839283  L 126.202981 122.410651  L 123.654763 136.404781  L 121.106545 124.033429  L 118.558326 123.251366  L 116.010108 122.063503  L 113.46189 137.412153  L 110.913672 129.659061  L 108.365454 139.716136  L 105.817236 120.497758  L 103.269017 135.486157  L 100.720799 129.078794  L 98.172581 134.77912  L 95.624363 125.936786  L 93.076145 126.985373  L 90.527927 111.50813  L 87.979709 126.336328  L 85.43149 119.109213  L 82.883272 126.84666  L 80.335054 120.494093  L 77.786836 133.076444  L 75.238618 121.736131  L 72.6904 128.825796  L 70.142182 137.912574  L 67.593963 126.624018  L 65.045745 116.359615  L 62.497527 108.585331  L 59.949309 104.42427  L 57.401091 77.093923  L 54.852873 95.21893  L 52.304654 66.030442  L 49.756436 79.359433  L 47.208218 35.458182  L 44.66 42.962438  L 42.111782 141.084028  L 39.563564 132.188313  L 37.015346 121.270467  L 34.467127 128.282844  L 31.918909 125.634799  L 29.370691 126.434281  L 26.822473 134.279122  L 24.274255 116.810505  L 21.726037 135.394688  L 19.177818 124.405695  L 16.6296 142.531234  L 14.081382 116.262116  L 11.533164 125.33529  L 8.984946 131.392407  L 6.436728 124.202113  L 3.88851 121.888001  L 1.340291 127.105663  L -1.207927 127.914671  L -3.756145 121.271053  L -6.304363 126.950583  L -8.852581 118.115023  L -11.400799 133.904027  L -13.949017 118.415535  L -16.497236 120.702371  L -19.045454 125.86007  L -21.593672 133.688553  L -24.14189 105.587125  L -26.690108 130.690738  L -29.238326 126.253834  L -31.786545 126.228738  L -34.334763 135.15081  L -36.882981 119.536096  L -39.431199 141.71119  L -41.979417 126.424469  L -44.527635 108.324409  L -47.075853 120.612157  L -49.624072 120.45981  L -52.17229 128.594911  L -54.720508 125.82844  L -57.268726 117.95639  L -59.816944 140.453399  L -62.365162 137.783766  L -64.913381 122.905366  L -67.461599 127.888163  L -70.009817 143.101362  L -72.558035 113.393432  L -75.106253 136.117712  L -77.654471 122.404646  L -80.202689 110.293285  L -82.750908 110.123938  L -85.299126 132.753419  L -87.847344 129.32617  L -90.395562 109.696472  L -92.94378 138.594295  L -95.491998 131.712325  L -98.040216 138.953176  L -100.588435 137.616421  L -103.136653 123.711297  L -105.684871 110.080374  L -108.233089 131.293  L -110.781307 134.165285  L -113.329525 115.70599  L -115.877744 123.277955  L -118.425962 133.330225  L -120.97418 115.393746  L -123.522398 137.539828  L -126.070616 144.547119  L -128.618834 135.492513  L -131.167052 127.404453  L -133.715271 129.693208  L -136.263489 135.07971  L -138.811707 126.9815  L -141.359925 130.489818  L -143.908143 129.757684  L -146.456361 142.552202  L -149.00458 131.586145  L -151.552798 103.713936  L -154.101016 124.684487  L -156.649234 130.460508  L -159.197452 112.310749  L -161.74567 121.119948  L -164.293888 122.580182  L -166.842107 115.840038  L -169.390325 133.37097  L -171.938543 135.188662  L -174.486761 119.19139  L -177.034979 133.269833  L -179.583197 133.818677  L -182.131415 136.638976  L -184.679634 117.397571  L -187.227852 122.989437  L -189.77607 135.586221  L -192.324288 115.368125  L -194.872506 133.329683  L -197.420724 129.850818  L -199.968943 133.473938  L -202.517161 133.399972  L -205.065379 124.416987  L -207.613597 125.489319  L -210.161815 133.841355  L -212.710033 113.349757  L -215.258251 130.59765  L -217.80647 124.810617  L -220.354688 137.089315  L -222.902906 109.426564  L -225.451124 112.990415  L -227.999342 125.208162  L -230.54756 140.374442  L -233.095779 135.313783  L -235.643997 136.413031  L -238.192215 118.249424  L -240.740433 130.406923  L -243.288651 132.153472  L -245.836869 119.048737  L -248.385087 113.784453  L -250.933306 127.043279  L -253.481524 124.299606  L -256.029742 131.66533  L -258.57796 125.482166  L -261.126178 132.241938  L -263.674396 118.746126  L -266.222615 127.761649  L -268.770833 119.438837  L -271.319051 132.709264  L -273.867269 119.20676  L -276.415487 124.128157  L -278.963705 128.53494  L -281.511923 123.590662  L -284.060142 148.461516  L -286.60836 122.743481  L -289.156578 135.731088  L -291.704796 127.669111  L -294.253014 132.118782  L -296.801232 121.143655  L -299.34945 120.342001  L -301.897669 116.533081  L -304.445887 134.942747  L -306.994105 122.192183  L -309.542323 144.738471  L -312.090541 129.887224  L -314.638759 131.848684  L -317.186978 121.94414  L -319.735196 129.339229  L -322.283414 126.668209  L -324.831632 130.415812  L -327.37985 109.285279  L -329.928068 126.207278  L -332.476286 123.608397  L -335.024505 118.770435  L -337.572723 113.655326  L -340.120941 111.060279  L -342.669159 124.242935  L -345.217377 135.009972  L -347.765595 76.682129  L -350.313814 93.677837  L -352.862032 82.586256  L -355.41025 52.184026  L -357.958468 58.269211  L -360.506686 42.897776  L -363.054904 49.585657  L -365.603122 159.238844  z "
           style="fill:#d3c55f;fill-opacity:0.2;stroke:#d3c55f;stroke-opacity:0.2;"
           id="path17" />
      </g>
      <g
         id="matplotlib.axis_1">
        <g
           id="xtick_1">
          <g
             id="line2d_1">
            <defs
               id="defs21">
              <path
                 d="M 0 0  L 0 3.5  "
                 id="m4fcf7d286f"
                 style="stroke:#000000;stroke-width:0.8;" />
            </defs>
            <g
               id="g25">
              <use
                 style="stroke:#000000;stroke-width:0.8;"
                 x="93.076145"
                 xlink:href="#m4fcf7d286f"
                 y="174.04"
                 id="use23" />
            </g>
          </g>
          <g
             id="text_1">
            <!-- 20 -->
            <g
               transform="translate(86.713645 188.638438)scale(0.1 -0.1)"
               id="g36">
              <defs
                 id="defs30">
                <path
                   d="M 19.1875 8.296875  L 53.609375 8.296875  L 53.609375 0  L 7.328125 0  L 7.328125 8.296875  Q 12.9375 14.109375 22.625 23.890625  Q 32.328125 33.6875 34.8125 36.53125  Q 39.546875 41.84375 41.421875 45.53125  Q 43.3125 49.21875 43.3125 52.78125  Q 43.3125 58.59375 39.234375 62.25  Q 35.15625 65.921875 28.609375 65.921875  Q 23.96875 65.921875 18.8125 64.3125  Q 13.671875 62.703125 7.8125 59.421875  L 7.8125 69.390625  Q 13.765625 71.78125 18.9375 73  Q 24.125 74.21875 28.421875 74.21875  Q 39.75 74.21875 46.484375 68.546875  Q 53.21875 62.890625 53.21875 53.421875  Q 53.21875 48.921875 51.53125 44.890625  Q 49.859375 40.875 45.40625 35.40625  Q 44.1875 33.984375 37.640625 27.21875  Q 31.109375 20.453125 19.1875 8.296875  z "
                   id="DejaVuSans-50" />
                <path
                   d="M 31.78125 66.40625  Q 24.171875 66.40625 20.328125 58.90625  Q 16.5 51.421875 16.5 36.375  Q 16.5 21.390625 20.328125 13.890625  Q 24.171875 6.390625 31.78125 6.390625  Q 39.453125 6.390625 43.28125 13.890625  Q 47.125 21.390625 47.125 36.375  Q 47.125 51.421875 43.28125 58.90625  Q 39.453125 66.40625 31.78125 66.40625  z M 31.78125 74.21875  Q 44.046875 74.21875 50.515625 64.515625  Q 56.984375 54.828125 56.984375 36.375  Q 56.984375 17.96875 50.515625 8.265625  Q 44.046875 -1.421875 31.78125 -1.421875  Q 19.53125 -1.421875 13.0625 8.265625  Q 6.59375 17.96875 6.59375 36.375  Q 6.59375 54.828125 13.0625 64.515625  Q 19.53125 74.21875 31.78125 74.21875  z "
                   id="DejaVuSans-48" />
              </defs>
              <use
                 xlink:href="#DejaVuSans-50"
                 id="use32" />
              <use
                 x="63.623047"
                 xlink:href="#DejaVuSans-48"
                 id="use34" />
            </g>
          </g>
        </g>
        <g
           id="xtick_2">
          <g
             id="line2d_2">
            <g
               id="g42">
              <use
                 style="stroke:#000000;stroke-width:0.8;"
                 x="144.040508"
                 xlink:href="#m4fcf7d286f"
                 y="174.04"
                 id="use40" />
            </g>
          </g>
          <g
             id="text_2">
            <!-- 40 -->
            <g
               transform="translate(137.678008 188.638438)scale(0.1 -0.1)"
               id="g52">
              <defs
                 id="defs46">
                <path
                   d="M 37.796875 64.3125  L 12.890625 25.390625  L 37.796875 25.390625  z M 35.203125 72.90625  L 47.609375 72.90625  L 47.609375 25.390625  L 58.015625 25.390625  L 58.015625 17.1875  L 47.609375 17.1875  L 47.609375 0  L 37.796875 0  L 37.796875 17.1875  L 4.890625 17.1875  L 4.890625 26.703125  z "
                   id="DejaVuSans-52" />
              </defs>
              <use
                 xlink:href="#DejaVuSans-52"
                 id="use48" />
              <use
                 x="63.623047"
                 xlink:href="#DejaVuSans-48"
                 id="use50" />
            </g>
          </g>
        </g>
        <g
           id="text_3">
          <!-- Trials after switch -->
          <g
             transform="translate(51.837644 202.316563)scale(0.1 -0.1)"
             id="g109">
            <defs
               id="defs69">
              <path
                 d="M -0.296875 72.90625  L 61.375 72.90625  L 61.375 64.59375  L 35.5 64.59375  L 35.5 0  L 25.59375 0  L 25.59375 64.59375  L -0.296875 64.59375  z "
                 id="DejaVuSans-84" />
              <path
                 d="M 41.109375 46.296875  Q 39.59375 47.171875 37.8125 47.578125  Q 36.03125 48 33.890625 48  Q 26.265625 48 22.1875 43.046875  Q 18.109375 38.09375 18.109375 28.8125  L 18.109375 0  L 9.078125 0  L 9.078125 54.6875  L 18.109375 54.6875  L 18.109375 46.1875  Q 20.953125 51.171875 25.484375 53.578125  Q 30.03125 56 36.53125 56  Q 37.453125 56 38.578125 55.875  Q 39.703125 55.765625 41.0625 55.515625  z "
                 id="DejaVuSans-114" />
              <path
                 d="M 9.421875 54.6875  L 18.40625 54.6875  L 18.40625 0  L 9.421875 0  z M 9.421875 75.984375  L 18.40625 75.984375  L 18.40625 64.59375  L 9.421875 64.59375  z "
                 id="DejaVuSans-105" />
              <path
                 d="M 34.28125 27.484375  Q 23.390625 27.484375 19.1875 25  Q 14.984375 22.515625 14.984375 16.5  Q 14.984375 11.71875 18.140625 8.90625  Q 21.296875 6.109375 26.703125 6.109375  Q 34.1875 6.109375 38.703125 11.40625  Q 43.21875 16.703125 43.21875 25.484375  L 43.21875 27.484375  z M 52.203125 31.203125  L 52.203125 0  L 43.21875 0  L 43.21875 8.296875  Q 40.140625 3.328125 35.546875 0.953125  Q 30.953125 -1.421875 24.3125 -1.421875  Q 15.921875 -1.421875 10.953125 3.296875  Q 6 8.015625 6 15.921875  Q 6 25.140625 12.171875 29.828125  Q 18.359375 34.515625 30.609375 34.515625  L 43.21875 34.515625  L 43.21875 35.40625  Q 43.21875 41.609375 39.140625 45  Q 35.0625 48.390625 27.6875 48.390625  Q 23 48.390625 18.546875 47.265625  Q 14.109375 46.140625 10.015625 43.890625  L 10.015625 52.203125  Q 14.9375 54.109375 19.578125 55.046875  Q 24.21875 56 28.609375 56  Q 40.484375 56 46.34375 49.84375  Q 52.203125 43.703125 52.203125 31.203125  z "
                 id="DejaVuSans-97" />
              <path
                 d="M 9.421875 75.984375  L 18.40625 75.984375  L 18.40625 0  L 9.421875 0  z "
                 id="DejaVuSans-108" />
              <path
                 d="M 44.28125 53.078125  L 44.28125 44.578125  Q 40.484375 46.53125 36.375 47.5  Q 32.28125 48.484375 27.875 48.484375  Q 21.1875 48.484375 17.84375 46.4375  Q 14.5 44.390625 14.5 40.28125  Q 14.5 37.15625 16.890625 35.375  Q 19.28125 33.59375 26.515625 31.984375  L 29.59375 31.296875  Q 39.15625 29.25 43.1875 25.515625  Q 47.21875 21.78125 47.21875 15.09375  Q 47.21875 7.46875 41.1875 3.015625  Q 35.15625 -1.421875 24.609375 -1.421875  Q 20.21875 -1.421875 15.453125 -0.5625  Q 10.6875 0.296875 5.421875 2  L 5.421875 11.28125  Q 10.40625 8.6875 15.234375 7.390625  Q 20.0625 6.109375 24.8125 6.109375  Q 31.15625 6.109375 34.5625 8.28125  Q 37.984375 10.453125 37.984375 14.40625  Q 37.984375 18.0625 35.515625 20.015625  Q 33.0625 21.96875 24.703125 23.78125  L 21.578125 24.515625  Q 13.234375 26.265625 9.515625 29.90625  Q 5.8125 33.546875 5.8125 39.890625  Q 5.8125 47.609375 11.28125 51.796875  Q 16.75 56 26.8125 56  Q 31.78125 56 36.171875 55.265625  Q 40.578125 54.546875 44.28125 53.078125  z "
                 id="DejaVuSans-115" />
              <path
                 id="DejaVuSans-32" />
              <path
                 d="M 37.109375 75.984375  L 37.109375 68.5  L 28.515625 68.5  Q 23.6875 68.5 21.796875 66.546875  Q 19.921875 64.59375 19.921875 59.515625  L 19.921875 54.6875  L 34.71875 54.6875  L 34.71875 47.703125  L 19.921875 47.703125  L 19.921875 0  L 10.890625 0  L 10.890625 47.703125  L 2.296875 47.703125  L 2.296875 54.6875  L 10.890625 54.6875  L 10.890625 58.5  Q 10.890625 67.625 15.140625 71.796875  Q 19.390625 75.984375 28.609375 75.984375  z "
                 id="DejaVuSans-102" />
              <path
                 d="M 18.3125 70.21875  L 18.3125 54.6875  L 36.8125 54.6875  L 36.8125 47.703125  L 18.3125 47.703125  L 18.3125 18.015625  Q 18.3125 11.328125 20.140625 9.421875  Q 21.96875 7.515625 27.59375 7.515625  L 36.8125 7.515625  L 36.8125 0  L 27.59375 0  Q 17.1875 0 13.234375 3.875  Q 9.28125 7.765625 9.28125 18.015625  L 9.28125 47.703125  L 2.6875 47.703125  L 2.6875 54.6875  L 9.28125 54.6875  L 9.28125 70.21875  z "
                 id="DejaVuSans-116" />
              <path
                 d="M 56.203125 29.59375  L 56.203125 25.203125  L 14.890625 25.203125  Q 15.484375 15.921875 20.484375 11.0625  Q 25.484375 6.203125 34.421875 6.203125  Q 39.59375 6.203125 44.453125 7.46875  Q 49.3125 8.734375 54.109375 11.28125  L 54.109375 2.78125  Q 49.265625 0.734375 44.1875 -0.34375  Q 39.109375 -1.421875 33.890625 -1.421875  Q 20.796875 -1.421875 13.15625 6.1875  Q 5.515625 13.8125 5.515625 26.8125  Q 5.515625 40.234375 12.765625 48.109375  Q 20.015625 56 32.328125 56  Q 43.359375 56 49.78125 48.890625  Q 56.203125 41.796875 56.203125 29.59375  z M 47.21875 32.234375  Q 47.125 39.59375 43.09375 43.984375  Q 39.0625 48.390625 32.421875 48.390625  Q 24.90625 48.390625 20.390625 44.140625  Q 15.875 39.890625 15.1875 32.171875  z "
                 id="DejaVuSans-101" />
              <path
                 d="M 4.203125 54.6875  L 13.1875 54.6875  L 24.421875 12.015625  L 35.59375 54.6875  L 46.1875 54.6875  L 57.421875 12.015625  L 68.609375 54.6875  L 77.59375 54.6875  L 63.28125 0  L 52.6875 0  L 40.921875 44.828125  L 29.109375 0  L 18.5 0  z "
                 id="DejaVuSans-119" />
              <path
                 d="M 48.78125 52.59375  L 48.78125 44.1875  Q 44.96875 46.296875 41.140625 47.34375  Q 37.3125 48.390625 33.40625 48.390625  Q 24.65625 48.390625 19.8125 42.84375  Q 14.984375 37.3125 14.984375 27.296875  Q 14.984375 17.28125 19.8125 11.734375  Q 24.65625 6.203125 33.40625 6.203125  Q 37.3125 6.203125 41.140625 7.25  Q 44.96875 8.296875 48.78125 10.40625  L 48.78125 2.09375  Q 45.015625 0.34375 40.984375 -0.53125  Q 36.96875 -1.421875 32.421875 -1.421875  Q 20.0625 -1.421875 12.78125 6.34375  Q 5.515625 14.109375 5.515625 27.296875  Q 5.515625 40.671875 12.859375 48.328125  Q 20.21875 56 33.015625 56  Q 37.15625 56 41.109375 55.140625  Q 45.0625 54.296875 48.78125 52.59375  z "
                 id="DejaVuSans-99" />
              <path
                 d="M 54.890625 33.015625  L 54.890625 0  L 45.90625 0  L 45.90625 32.71875  Q 45.90625 40.484375 42.875 44.328125  Q 39.84375 48.1875 33.796875 48.1875  Q 26.515625 48.1875 22.3125 43.546875  Q 18.109375 38.921875 18.109375 30.90625  L 18.109375 0  L 9.078125 0  L 9.078125 75.984375  L 18.109375 75.984375  L 18.109375 46.1875  Q 21.34375 51.125 25.703125 53.5625  Q 30.078125 56 35.796875 56  Q 45.21875 56 50.046875 50.171875  Q 54.890625 44.34375 54.890625 33.015625  z "
                 id="DejaVuSans-104" />
            </defs>
            <use
               xlink:href="#DejaVuSans-84"
               id="use71" />
            <use
               x="46.333984"
               xlink:href="#DejaVuSans-114"
               id="use73" />
            <use
               x="87.447266"
               xlink:href="#DejaVuSans-105"
               id="use75" />
            <use
               x="115.230469"
               xlink:href="#DejaVuSans-97"
               id="use77" />
            <use
               x="176.509766"
               xlink:href="#DejaVuSans-108"
               id="use79" />
            <use
               x="204.292969"
               xlink:href="#DejaVuSans-115"
               id="use81" />
            <use
               x="256.392578"
               xlink:href="#DejaVuSans-32"
               id="use83" />
            <use
               x="288.179688"
               xlink:href="#DejaVuSans-97"
               id="use85" />
            <use
               x="349.458984"
               xlink:href="#DejaVuSans-102"
               id="use87" />
            <use
               x="382.914062"
               xlink:href="#DejaVuSans-116"
               id="use89" />
            <use
               x="422.123047"
               xlink:href="#DejaVuSans-101"
               id="use91" />
            <use
               x="483.646484"
               xlink:href="#DejaVuSans-114"
               id="use93" />
            <use
               x="524.759766"
               xlink:href="#DejaVuSans-32"
               id="use95" />
            <use
               x="556.546875"
               xlink:href="#DejaVuSans-115"
               id="use97" />
            <use
               x="608.646484"
               xlink:href="#DejaVuSans-119"
               id="use99" />
            <use
               x="690.433594"
               xlink:href="#DejaVuSans-105"
               id="use101" />
            <use
               x="718.216797"
               xlink:href="#DejaVuSans-116"
               id="use103" />
            <use
               x="757.425781"
               xlink:href="#DejaVuSans-99"
               id="use105" />
            <use
               x="812.40625"
               xlink:href="#DejaVuSans-104"
               id="use107" />
          </g>
        </g>
      </g>
      <g
         id="matplotlib.axis_2">
        <g
           id="ytick_1">
          <g
             id="line2d_3">
            <defs
               id="defs114">
              <path
                 d="M 0 0  L -3.5 0  "
                 id="mf6f7f840e7"
                 style="stroke:#000000;stroke-width:0.8;" />
            </defs>
            <g
               id="g118">
              <use
                 style="stroke:#000000;stroke-width:0.8;"
                 x="44.66"
                 xlink:href="#mf6f7f840e7"
                 y="159.238844"
                 id="use116" />
            </g>
          </g>
          <g
             id="text_4">
            <!-- 0 -->
            <g
               transform="translate(31.2975 163.038063)scale(0.1 -0.1)"
               id="g123">
              <use
                 xlink:href="#DejaVuSans-48"
                 id="use121" />
            </g>
          </g>
        </g>
        <g
           id="ytick_2">
          <g
             id="line2d_4">
            <g
               id="g129">
              <use
                 style="stroke:#000000;stroke-width:0.8;"
                 x="44.66"
                 xlink:href="#mf6f7f840e7"
                 y="137.035483"
                 id="use127" />
            </g>
          </g>
          <g
             id="text_5">
            <!-- 2 -->
            <g
               transform="translate(31.2975 140.834701)scale(0.1 -0.1)"
               id="g134">
              <use
                 xlink:href="#DejaVuSans-50"
                 id="use132" />
            </g>
          </g>
        </g>
        <g
           id="ytick_3">
          <g
             id="line2d_5">
            <g
               id="g140">
              <use
                 style="stroke:#000000;stroke-width:0.8;"
                 x="44.66"
                 xlink:href="#mf6f7f840e7"
                 y="114.832121"
                 id="use138" />
            </g>
          </g>
          <g
             id="text_6">
            <!-- 4 -->
            <g
               transform="translate(31.2975 118.63134)scale(0.1 -0.1)"
               id="g145">
              <use
                 xlink:href="#DejaVuSans-52"
                 id="use143" />
            </g>
          </g>
        </g>
        <g
           id="ytick_4">
          <g
             id="line2d_6">
            <g
               id="g151">
              <use
                 style="stroke:#000000;stroke-width:0.8;"
                 x="44.66"
                 xlink:href="#mf6f7f840e7"
                 y="92.62876"
                 id="use149" />
            </g>
          </g>
          <g
             id="text_7">
            <!-- 6 -->
            <g
               transform="translate(31.2975 96.427978)scale(0.1 -0.1)"
               id="g159">
              <defs
                 id="defs155">
                <path
                   d="M 33.015625 40.375  Q 26.375 40.375 22.484375 35.828125  Q 18.609375 31.296875 18.609375 23.390625  Q 18.609375 15.53125 22.484375 10.953125  Q 26.375 6.390625 33.015625 6.390625  Q 39.65625 6.390625 43.53125 10.953125  Q 47.40625 15.53125 47.40625 23.390625  Q 47.40625 31.296875 43.53125 35.828125  Q 39.65625 40.375 33.015625 40.375  z M 52.59375 71.296875  L 52.59375 62.3125  Q 48.875 64.0625 45.09375 64.984375  Q 41.3125 65.921875 37.59375 65.921875  Q 27.828125 65.921875 22.671875 59.328125  Q 17.53125 52.734375 16.796875 39.40625  Q 19.671875 43.65625 24.015625 45.921875  Q 28.375 48.1875 33.59375 48.1875  Q 44.578125 48.1875 50.953125 41.515625  Q 57.328125 34.859375 57.328125 23.390625  Q 57.328125 12.15625 50.6875 5.359375  Q 44.046875 -1.421875 33.015625 -1.421875  Q 20.359375 -1.421875 13.671875 8.265625  Q 6.984375 17.96875 6.984375 36.375  Q 6.984375 53.65625 15.1875 63.9375  Q 23.390625 74.21875 37.203125 74.21875  Q 40.921875 74.21875 44.703125 73.484375  Q 48.484375 72.75 52.59375 71.296875  z "
                   id="DejaVuSans-54" />
              </defs>
              <use
                 xlink:href="#DejaVuSans-54"
                 id="use157" />
            </g>
          </g>
        </g>
        <g
           id="ytick_5">
          <g
             id="line2d_7">
            <g
               id="g165">
              <use
                 style="stroke:#000000;stroke-width:0.8;"
                 x="44.66"
                 xlink:href="#mf6f7f840e7"
                 y="70.425398"
                 id="use163" />
            </g>
          </g>
          <g
             id="text_8">
            <!-- 8 -->
            <g
               transform="translate(31.2975 74.224617)scale(0.1 -0.1)"
               id="g173">
              <defs
                 id="defs169">
                <path
                   d="M 31.78125 34.625  Q 24.75 34.625 20.71875 30.859375  Q 16.703125 27.09375 16.703125 20.515625  Q 16.703125 13.921875 20.71875 10.15625  Q 24.75 6.390625 31.78125 6.390625  Q 38.8125 6.390625 42.859375 10.171875  Q 46.921875 13.96875 46.921875 20.515625  Q 46.921875 27.09375 42.890625 30.859375  Q 38.875 34.625 31.78125 34.625  z M 21.921875 38.8125  Q 15.578125 40.375 12.03125 44.71875  Q 8.5 49.078125 8.5 55.328125  Q 8.5 64.0625 14.71875 69.140625  Q 20.953125 74.21875 31.78125 74.21875  Q 42.671875 74.21875 48.875 69.140625  Q 55.078125 64.0625 55.078125 55.328125  Q 55.078125 49.078125 51.53125 44.71875  Q 48 40.375 41.703125 38.8125  Q 48.828125 37.15625 52.796875 32.3125  Q 56.78125 27.484375 56.78125 20.515625  Q 56.78125 9.90625 50.3125 4.234375  Q 43.84375 -1.421875 31.78125 -1.421875  Q 19.734375 -1.421875 13.25 4.234375  Q 6.78125 9.90625 6.78125 20.515625  Q 6.78125 27.484375 10.78125 32.3125  Q 14.796875 37.15625 21.921875 38.8125  z M 18.3125 54.390625  Q 18.3125 48.734375 21.84375 45.5625  Q 25.390625 42.390625 31.78125 42.390625  Q 38.140625 42.390625 41.71875 45.5625  Q 45.3125 48.734375 45.3125 54.390625  Q 45.3125 60.0625 41.71875 63.234375  Q 38.140625 66.40625 31.78125 66.40625  Q 25.390625 66.40625 21.84375 63.234375  Q 18.3125 60.0625 18.3125 54.390625  z "
                   id="DejaVuSans-56" />
              </defs>
              <use
                 xlink:href="#DejaVuSans-56"
                 id="use171" />
            </g>
          </g>
        </g>
        <g
           id="ytick_6">
          <g
             id="line2d_8">
            <g
               id="g179">
              <use
                 style="stroke:#000000;stroke-width:0.8;"
                 x="44.66"
                 xlink:href="#mf6f7f840e7"
                 y="48.222037"
                 id="use177" />
            </g>
          </g>
          <g
             id="text_9">
            <!-- 10 -->
            <g
               transform="translate(24.935 52.021255)scale(0.1 -0.1)"
               id="g189">
              <defs
                 id="defs183">
                <path
                   d="M 12.40625 8.296875  L 28.515625 8.296875  L 28.515625 63.921875  L 10.984375 60.40625  L 10.984375 69.390625  L 28.421875 72.90625  L 38.28125 72.90625  L 38.28125 8.296875  L 54.390625 8.296875  L 54.390625 0  L 12.40625 0  z "
                   id="DejaVuSans-49" />
              </defs>
              <use
                 xlink:href="#DejaVuSans-49"
                 id="use185" />
              <use
                 x="63.623047"
                 xlink:href="#DejaVuSans-48"
                 id="use187" />
            </g>
          </g>
        </g>
        <g
           id="text_10">
          <!-- Error (a.u.) -->
          <g
             transform="translate(18.855313 128.536243)rotate(-90)scale(0.1 -0.1)"
             id="g225">
            <defs
               id="defs199">
              <path
                 d="M 9.8125 72.90625  L 55.90625 72.90625  L 55.90625 64.59375  L 19.671875 64.59375  L 19.671875 43.015625  L 54.390625 43.015625  L 54.390625 34.71875  L 19.671875 34.71875  L 19.671875 8.296875  L 56.78125 8.296875  L 56.78125 0  L 9.8125 0  z "
                 id="DejaVuSans-69" />
              <path
                 d="M 30.609375 48.390625  Q 23.390625 48.390625 19.1875 42.75  Q 14.984375 37.109375 14.984375 27.296875  Q 14.984375 17.484375 19.15625 11.84375  Q 23.34375 6.203125 30.609375 6.203125  Q 37.796875 6.203125 41.984375 11.859375  Q 46.1875 17.53125 46.1875 27.296875  Q 46.1875 37.015625 41.984375 42.703125  Q 37.796875 48.390625 30.609375 48.390625  z M 30.609375 56  Q 42.328125 56 49.015625 48.375  Q 55.71875 40.765625 55.71875 27.296875  Q 55.71875 13.875 49.015625 6.21875  Q 42.328125 -1.421875 30.609375 -1.421875  Q 18.84375 -1.421875 12.171875 6.21875  Q 5.515625 13.875 5.515625 27.296875  Q 5.515625 40.765625 12.171875 48.375  Q 18.84375 56 30.609375 56  z "
                 id="DejaVuSans-111" />
              <path
                 d="M 31 75.875  Q 24.46875 64.65625 21.28125 53.65625  Q 18.109375 42.671875 18.109375 31.390625  Q 18.109375 20.125 21.3125 9.0625  Q 24.515625 -2 31 -13.1875  L 23.1875 -13.1875  Q 15.875 -1.703125 12.234375 9.375  Q 8.59375 20.453125 8.59375 31.390625  Q 8.59375 42.28125 12.203125 53.3125  Q 15.828125 64.359375 23.1875 75.875  z "
                 id="DejaVuSans-40" />
              <path
                 d="M 10.6875 12.40625  L 21 12.40625  L 21 0  L 10.6875 0  z "
                 id="DejaVuSans-46" />
              <path
                 d="M 8.5 21.578125  L 8.5 54.6875  L 17.484375 54.6875  L 17.484375 21.921875  Q 17.484375 14.15625 20.5 10.265625  Q 23.53125 6.390625 29.59375 6.390625  Q 36.859375 6.390625 41.078125 11.03125  Q 45.3125 15.671875 45.3125 23.6875  L 45.3125 54.6875  L 54.296875 54.6875  L 54.296875 0  L 45.3125 0  L 45.3125 8.40625  Q 42.046875 3.421875 37.71875 1  Q 33.40625 -1.421875 27.6875 -1.421875  Q 18.265625 -1.421875 13.375 4.4375  Q 8.5 10.296875 8.5 21.578125  z M 31.109375 56  z "
                 id="DejaVuSans-117" />
              <path
                 d="M 8.015625 75.875  L 15.828125 75.875  Q 23.140625 64.359375 26.78125 53.3125  Q 30.421875 42.28125 30.421875 31.390625  Q 30.421875 20.453125 26.78125 9.375  Q 23.140625 -1.703125 15.828125 -13.1875  L 8.015625 -13.1875  Q 14.5 -2 17.703125 9.0625  Q 20.90625 20.125 20.90625 31.390625  Q 20.90625 42.671875 17.703125 53.65625  Q 14.5 64.65625 8.015625 75.875  z "
                 id="DejaVuSans-41" />
            </defs>
            <use
               xlink:href="#DejaVuSans-69"
               id="use201" />
            <use
               x="63.183594"
               xlink:href="#DejaVuSans-114"
               id="use203" />
            <use
               x="102.546875"
               xlink:href="#DejaVuSans-114"
               id="use205" />
            <use
               x="141.410156"
               xlink:href="#DejaVuSans-111"
               id="use207" />
            <use
               x="202.591797"
               xlink:href="#DejaVuSans-114"
               id="use209" />
            <use
               x="243.705078"
               xlink:href="#DejaVuSans-32"
               id="use211" />
            <use
               x="275.492188"
               xlink:href="#DejaVuSans-40"
               id="use213" />
            <use
               x="314.505859"
               xlink:href="#DejaVuSans-97"
               id="use215" />
            <use
               x="375.785156"
               xlink:href="#DejaVuSans-46"
               id="use217" />
            <use
               x="407.572266"
               xlink:href="#DejaVuSans-117"
               id="use219" />
            <use
               x="470.951172"
               xlink:href="#DejaVuSans-46"
               id="use221" />
            <use
               x="502.738281"
               xlink:href="#DejaVuSans-41"
               id="use223" />
          </g>
        </g>
      </g>
      <g
         id="line2d_9">
        <path
           clip-path="url(#p1c8187a290)"
           d="M -1 130.019786  L 1.340291 143.171192  L 3.88851 147.306315  L 6.436728 143.136641  L 8.984946 145.486827  L 11.533164 145.906502  L 14.081382 138.949634  L 16.6296 142.510436  L 19.177818 137.584384  L 21.726037 150.202864  L 26.822473 147.513587  L 29.370691 140.193215  L 31.918909 133.35071  L 34.467127 133.765193  L 37.015346 144.71845  L 39.563564 134.987198  L 42.111782 146.472027  L 44.66 77.101157  L 47.208218 84.89246  L 49.756436 76.203109  L 52.304654 80.777043  L 54.852873 83.560113  L 57.401091 104.093267  L 59.949309 98.588806  L 62.497527 114.227879  L 65.045745 123.694096  L 67.593963 128.788582  L 70.142182 139.488873  L 72.6904 133.236884  L 75.238618 138.559042  L 77.786836 140.812497  L 80.335054 139.352569  L 82.883272 131.828363  L 85.43149 140.744502  L 87.979709 140.240363  L 90.527927 136.016379  L 93.076145 144.421269  L 98.172581 135.850051  L 100.720799 142.490589  L 103.269017 142.151238  L 105.817236 136.5811  L 108.365454 131.824778  L 110.913672 136.433743  L 113.46189 142.372431  L 116.010108 136.285597  L 118.558326 144.8187  L 121.106545 140.399874  L 123.654763 142.321081  L 126.202981 141.639901  L 128.751199 144.706996  L 131.299417 132.302645  L 133.847635 139.183063  L 136.395853 141.980885  L 138.944072 137.53728  L 141.49229 138.20399  L 144.040508 136.919937  L 146.588726 146.312648  L 149.136944 141.870937  L 151.685162 139.042523  L 154.233381 143.559009  L 156.781599 136.907403  L 159.329817 146.245885  L 161.878035 131.877606  L 164.426253 141.982476  L 166.974471 146.523706  L 169.522689 131.371017  L 172.070908 143.073678  L 174.619126 138.083217  L 177.167344 135.738413  L 179.715562 136.229439  L 182.26378 139.398786  L 184.811998 143.294459  L 187.360216 141.002303  L 189.908435 143.89223  L 192.456653 133.254126  L 195.004871 138.320602  L 197.553089 147.254395  L 200.101307 139.191155  L 202.649525 138.61838  L 205.197744 139.427996  L 207.745962 135.895684  L 210.29418 142.006505  L 212.842398 132.756254  L 215.390616 138.069558  L 217.938834 135.841872  L 220.487052 136.518358  L 223.035271 145.456838  L 225.583489 141.57937  L 228.131707 142.726095  L 230.679925 143.184534  L 233.228143 141.096725  L 235.776361 140.540818  L 238.32458 143.757713  L 240.872798 137.574537  L 243.421016 138.940443  L 245.969234 139.105822  L 248.517452 142.93609  L 251.06567 142.877948  L 253.613888 139.583999  L 256.162107 131.301052  L 258.710325 135.789239  L 261.258543 137.433479  L 263.806761 146.067977  L 266.354979 143.679542  L 268.903197 141.641847  L 271.451415 139.273276  L 273.999634 140.388028  L 276.547852 134.990987  L 279.09607 138.798619  L 281.644288 140.725457  L 284.192506 147.757921  L 286.740724 139.161217  L 289 140.062073  L 289 140.062073  "
           style="fill:none;stroke:#5f6dd3;stroke-linecap:square;stroke-width:1.5;"
           id="path229" />
      </g>
      <g
         id="line2d_10">
        <path
           clip-path="url(#p1c8187a290)"
           d="M -1 142.405761  L 1.340291 138.965103  L 3.88851 132.971614  L 6.436728 141.338169  L 8.984946 143.554702  L 11.533164 137.297752  L 14.081382 131.938766  L 16.6296 149.648051  L 19.177818 142.18233  L 21.726037 144.456526  L 24.274255 132.095096  L 26.822473 147.606487  L 29.370691 137.778904  L 31.918909 139.320038  L 34.467127 140.418389  L 37.015346 136.770201  L 39.563564 141.204757  L 42.111782 147.332535  L 44.66 63.412951  L 47.208218 64.267917  L 49.756436 107.865327  L 52.304654 89.055334  L 54.852873 116.406843  L 57.401091 100.328426  L 59.949309 126.083444  L 62.497527 130.052593  L 65.045745 138.31566  L 67.593963 139.489304  L 70.142182 146.310803  L 72.6904 140.664842  L 75.238618 138.538931  L 77.786836 144.749141  L 80.335054 134.945161  L 82.883272 140.32247  L 85.43149 135.767194  L 87.979709 143.182959  L 90.527927 127.680914  L 93.076145 141.748419  L 95.624363 141.294987  L 98.172581 147.251921  L 100.720799 140.798149  L 103.269017 144.028658  L 105.817236 138.061888  L 108.365454 147.614606  L 110.913672 143.307058  L 113.46189 146.097095  L 116.010108 136.763545  L 118.558326 134.13298  L 121.106545 138.572549  L 123.654763 146.470604  L 126.202981 139.125619  L 128.751199 136.448906  L 131.299417 144.612452  L 133.847635 143.580341  L 136.395853 151.958175  L 138.944072 141.013424  L 141.49229 140.201543  L 144.040508 145.57919  L 146.588726 136.693166  L 149.136944 141.380608  L 151.685162 137.084094  L 154.233381 149.506667  L 156.781599 132.654388  L 159.329817 135.740191  L 161.878035 149.448374  L 164.426253 148.905593  L 166.974471 135.128603  L 169.522689 139.106311  L 172.070908 139.377586  L 174.619126 136.107838  L 177.167344 145.668528  L 179.715562 144.616169  L 182.26378 138.844284  L 184.811998 137.704917  L 189.908435 143.194443  L 192.456653 138.191024  L 195.004871 144.73988  L 197.553089 141.582669  L 202.649525 129.903963  L 205.197744 133.563143  L 207.745962 144.112361  L 210.29418 141.627623  L 212.842398 135.399398  L 215.390616 142.123855  L 217.938834 140.848955  L 220.487052 134.880645  L 223.035271 145.664861  L 225.583489 143.438731  L 228.131707 137.749386  L 230.679925 146.666198  L 233.228143 141.645076  L 235.776361 139.316735  L 238.32458 141.246976  L 240.872798 148.357706  L 243.421016 145.356359  L 245.969234 147.237413  L 248.517452 139.753927  L 251.06567 133.386205  L 253.613888 136.002453  L 256.162107 142.770477  L 258.710325 131.955297  L 261.258543 146.004587  L 263.806761 140.386955  L 266.354979 146.660234  L 268.903197 142.104526  L 271.451415 142.748339  L 273.999634 139.658038  L 276.547852 147.93843  L 279.09607 148.504534  L 281.644288 139.1208  L 284.192506 135.428271  L 286.740724 137.622707  L 289 141.016136  L 289 141.016136  "
           style="fill:none;stroke:#d3c55f;stroke-linecap:square;stroke-width:1.5;"
           id="path232" />
      </g>
      <g
         id="line2d_11" />
      <g
         id="line2d_12" />
      <g
         id="patch_3">
        <path
           d="M 44.66 174.04  L 44.66 28.859048  "
           style="fill:none;stroke:#000000;stroke-linecap:square;stroke-linejoin:miter;stroke-width:0.8;"
           id="path237" />
      </g>
      <g
         id="patch_4">
        <path
           d="M 146.588726 174.04  L 146.588726 28.859048  "
           style="fill:none;stroke:#000000;stroke-linecap:square;stroke-linejoin:miter;stroke-width:0.8;"
           id="path240" />
      </g>
      <g
         id="patch_5">
        <path
           d="M 44.66 174.04  L 146.588726 174.04  "
           style="fill:none;stroke:#000000;stroke-linecap:square;stroke-linejoin:miter;stroke-width:0.8;"
           id="path243" />
      </g>
      <g
         id="patch_6">
        <path
           d="M 44.66 28.859048  L 146.588726 28.859048  "
           style="fill:none;stroke:#000000;stroke-linecap:square;stroke-linejoin:miter;stroke-width:0.8;"
           id="path246" />
      </g>
      <g
         id="text_11">
        <!-- A -->
        <g
           transform="translate(34.467127 21.6)scale(0.14 -0.14)"
           id="g254">
          <defs
             id="defs250">
            <path
               d="M 34.1875 63.1875  L 20.796875 26.90625  L 47.609375 26.90625  z M 28.609375 72.90625  L 39.796875 72.90625  L 67.578125 0  L 57.328125 0  L 50.6875 18.703125  L 17.828125 18.703125  L 11.1875 0  L 0.78125 0  z "
               id="DejaVuSans-65" />
          </defs>
          <use
             xlink:href="#DejaVuSans-65"
             id="use252" />
        </g>
      </g>
      <g
         id="text_12">
        <!-- Simulations -->
        <g
           transform="translate(60.539363 22.859048)scale(0.12 -0.12)"
           id="g284">
          <defs
             id="defs260">
            <path
               d="M 53.515625 70.515625  L 53.515625 60.890625  Q 47.90625 63.578125 42.921875 64.890625  Q 37.9375 66.21875 33.296875 66.21875  Q 25.25 66.21875 20.875 63.09375  Q 16.5 59.96875 16.5 54.203125  Q 16.5 49.359375 19.40625 46.890625  Q 22.3125 44.4375 30.421875 42.921875  L 36.375 41.703125  Q 47.40625 39.59375 52.65625 34.296875  Q 57.90625 29 57.90625 20.125  Q 57.90625 9.515625 50.796875 4.046875  Q 43.703125 -1.421875 29.984375 -1.421875  Q 24.8125 -1.421875 18.96875 -0.25  Q 13.140625 0.921875 6.890625 3.21875  L 6.890625 13.375  Q 12.890625 10.015625 18.65625 8.296875  Q 24.421875 6.59375 29.984375 6.59375  Q 38.421875 6.59375 43.015625 9.90625  Q 47.609375 13.234375 47.609375 19.390625  Q 47.609375 24.75 44.3125 27.78125  Q 41.015625 30.8125 33.5 32.328125  L 27.484375 33.5  Q 16.453125 35.6875 11.515625 40.375  Q 6.59375 45.0625 6.59375 53.421875  Q 6.59375 63.09375 13.40625 68.65625  Q 20.21875 74.21875 32.171875 74.21875  Q 37.3125 74.21875 42.625 73.28125  Q 47.953125 72.359375 53.515625 70.515625  z "
               id="DejaVuSans-83" />
            <path
               d="M 52 44.1875  Q 55.375 50.25 60.0625 53.125  Q 64.75 56 71.09375 56  Q 79.640625 56 84.28125 50.015625  Q 88.921875 44.046875 88.921875 33.015625  L 88.921875 0  L 79.890625 0  L 79.890625 32.71875  Q 79.890625 40.578125 77.09375 44.375  Q 74.3125 48.1875 68.609375 48.1875  Q 61.625 48.1875 57.5625 43.546875  Q 53.515625 38.921875 53.515625 30.90625  L 53.515625 0  L 44.484375 0  L 44.484375 32.71875  Q 44.484375 40.625 41.703125 44.40625  Q 38.921875 48.1875 33.109375 48.1875  Q 26.21875 48.1875 22.15625 43.53125  Q 18.109375 38.875 18.109375 30.90625  L 18.109375 0  L 9.078125 0  L 9.078125 54.6875  L 18.109375 54.6875  L 18.109375 46.1875  Q 21.1875 51.21875 25.484375 53.609375  Q 29.78125 56 35.6875 56  Q 41.65625 56 45.828125 52.96875  Q 50 49.953125 52 44.1875  z "
               id="DejaVuSans-109" />
            <path
               d="M 54.890625 33.015625  L 54.890625 0  L 45.90625 0  L 45.90625 32.71875  Q 45.90625 40.484375 42.875 44.328125  Q 39.84375 48.1875 33.796875 48.1875  Q 26.515625 48.1875 22.3125 43.546875  Q 18.109375 38.921875 18.109375 30.90625  L 18.109375 0  L 9.078125 0  L 9.078125 54.6875  L 18.109375 54.6875  L 18.109375 46.1875  Q 21.34375 51.125 25.703125 53.5625  Q 30.078125 56 35.796875 56  Q 45.21875 56 50.046875 50.171875  Q 54.890625 44.34375 54.890625 33.015625  z "
               id="DejaVuSans-110" />
          </defs>
          <use
             xlink:href="#DejaVuSans-83"
             id="use262" />
          <use
             x="63.476562"
             xlink:href="#DejaVuSans-105"
             id="use264" />
          <use
             x="91.259766"
             xlink:href="#DejaVuSans-109"
             id="use266" />
          <use
             x="188.671875"
             xlink:href="#DejaVuSans-117"
             id="use268" />
          <use
             x="252.050781"
             xlink:href="#DejaVuSans-108"
             id="use270" />
          <use
             x="279.833984"
             xlink:href="#DejaVuSans-97"
             id="use272" />
          <use
             x="341.113281"
             xlink:href="#DejaVuSans-116"
             id="use274" />
          <use
             x="380.322266"
             xlink:href="#DejaVuSans-105"
             id="use276" />
          <use
             x="408.105469"
             xlink:href="#DejaVuSans-111"
             id="use278" />
          <use
             x="469.287109"
             xlink:href="#DejaVuSans-110"
             id="use280" />
          <use
             x="532.666016"
             xlink:href="#DejaVuSans-115"
             id="use282" />
        </g>
      </g>
      <g
         id="legend_1">
        <g
           id="patch_7">
          <path
             d="M 94.385601 80.893423  L 139.588726 80.893423  Q 141.588726 80.893423 141.588726 78.893423  L 141.588726 35.859048  Q 141.588726 33.859048 139.588726 33.859048  L 94.385601 33.859048  Q 92.385601 33.859048 92.385601 35.859048  L 92.385601 78.893423  Q 92.385601 80.893423 94.385601 80.893423  z "
             style="fill:#ffffff;opacity:0.8;stroke:#cccccc;stroke-linejoin:miter;"
             id="path287" />
        </g>
        <g
           id="text_13">
          <!-- Group -->
          <g
             transform="translate(101.767632 45.457485)scale(0.1 -0.1)"
             id="g304">
            <defs
               id="defs292">
              <path
                 d="M 59.515625 10.40625  L 59.515625 29.984375  L 43.40625 29.984375  L 43.40625 38.09375  L 69.28125 38.09375  L 69.28125 6.78125  Q 63.578125 2.734375 56.6875 0.65625  Q 49.8125 -1.421875 42 -1.421875  Q 24.90625 -1.421875 15.25 8.5625  Q 5.609375 18.5625 5.609375 36.375  Q 5.609375 54.25 15.25 64.234375  Q 24.90625 74.21875 42 74.21875  Q 49.125 74.21875 55.546875 72.453125  Q 61.96875 70.703125 67.390625 67.28125  L 67.390625 56.78125  Q 61.921875 61.421875 55.765625 63.765625  Q 49.609375 66.109375 42.828125 66.109375  Q 29.4375 66.109375 22.71875 58.640625  Q 16.015625 51.171875 16.015625 36.375  Q 16.015625 21.625 22.71875 14.15625  Q 29.4375 6.6875 42.828125 6.6875  Q 48.046875 6.6875 52.140625 7.59375  Q 56.25 8.5 59.515625 10.40625  z "
                 id="DejaVuSans-71" />
              <path
                 d="M 18.109375 8.203125  L 18.109375 -20.796875  L 9.078125 -20.796875  L 9.078125 54.6875  L 18.109375 54.6875  L 18.109375 46.390625  Q 20.953125 51.265625 25.265625 53.625  Q 29.59375 56 35.59375 56  Q 45.5625 56 51.78125 48.09375  Q 58.015625 40.1875 58.015625 27.296875  Q 58.015625 14.40625 51.78125 6.484375  Q 45.5625 -1.421875 35.59375 -1.421875  Q 29.59375 -1.421875 25.265625 0.953125  Q 20.953125 3.328125 18.109375 8.203125  z M 48.6875 27.296875  Q 48.6875 37.203125 44.609375 42.84375  Q 40.53125 48.484375 33.40625 48.484375  Q 26.265625 48.484375 22.1875 42.84375  Q 18.109375 37.203125 18.109375 27.296875  Q 18.109375 17.390625 22.1875 11.75  Q 26.265625 6.109375 33.40625 6.109375  Q 40.53125 6.109375 44.609375 11.75  Q 48.6875 17.390625 48.6875 27.296875  z "
                 id="DejaVuSans-112" />
            </defs>
            <use
               xlink:href="#DejaVuSans-71"
               id="use294" />
            <use
               x="77.490234"
               xlink:href="#DejaVuSans-114"
               id="use296" />
            <use
               x="116.353516"
               xlink:href="#DejaVuSans-111"
               id="use298" />
            <use
               x="177.535156"
               xlink:href="#DejaVuSans-117"
               id="use300" />
            <use
               x="240.914062"
               xlink:href="#DejaVuSans-112"
               id="use302" />
          </g>
        </g>
        <g
           id="line2d_13">
          <path
             d="M 96.385601 56.63561  L 116.385601 56.63561  "
             style="fill:none;stroke:#5f6dd3;stroke-linecap:square;stroke-width:1.5;"
             id="path307" />
        </g>
        <g
           id="line2d_14" />
        <g
           id="text_14">
          <!-- -A -->
          <g
             transform="translate(124.385601 60.13561)scale(0.1 -0.1)"
             id="g318">
            <defs
               id="defs312">
              <path
                 d="M 4.890625 31.390625  L 31.203125 31.390625  L 31.203125 23.390625  L 4.890625 23.390625  z "
                 id="DejaVuSans-45" />
            </defs>
            <use
               xlink:href="#DejaVuSans-45"
               id="use314" />
            <use
               x="33.833984"
               xlink:href="#DejaVuSans-65"
               id="use316" />
          </g>
        </g>
        <g
           id="line2d_15">
          <path
             d="M 96.385601 71.313735  L 116.385601 71.313735  "
             style="fill:none;stroke:#d3c55f;stroke-linecap:square;stroke-width:1.5;"
             id="path321" />
        </g>
        <g
           id="line2d_16" />
        <g
           id="text_15">
          <!-- 3A -->
          <g
             transform="translate(124.385601 74.813735)scale(0.1 -0.1)"
             id="g332">
            <defs
               id="defs326">
              <path
                 d="M 40.578125 39.3125  Q 47.65625 37.796875 51.625 33  Q 55.609375 28.21875 55.609375 21.1875  Q 55.609375 10.40625 48.1875 4.484375  Q 40.765625 -1.421875 27.09375 -1.421875  Q 22.515625 -1.421875 17.65625 -0.515625  Q 12.796875 0.390625 7.625 2.203125  L 7.625 11.71875  Q 11.71875 9.328125 16.59375 8.109375  Q 21.484375 6.890625 26.8125 6.890625  Q 36.078125 6.890625 40.9375 10.546875  Q 45.796875 14.203125 45.796875 21.1875  Q 45.796875 27.640625 41.28125 31.265625  Q 36.765625 34.90625 28.71875 34.90625  L 20.21875 34.90625  L 20.21875 43.015625  L 29.109375 43.015625  Q 36.375 43.015625 40.234375 45.921875  Q 44.09375 48.828125 44.09375 54.296875  Q 44.09375 59.90625 40.109375 62.90625  Q 36.140625 65.921875 28.71875 65.921875  Q 24.65625 65.921875 20.015625 65.03125  Q 15.375 64.15625 9.8125 62.3125  L 9.8125 71.09375  Q 15.4375 72.65625 20.34375 73.4375  Q 25.25 74.21875 29.59375 74.21875  Q 40.828125 74.21875 47.359375 69.109375  Q 53.90625 64.015625 53.90625 55.328125  Q 53.90625 49.265625 50.4375 45.09375  Q 46.96875 40.921875 40.578125 39.3125  z "
                 id="DejaVuSans-51" />
            </defs>
            <use
               xlink:href="#DejaVuSans-51"
               id="use328" />
            <use
               x="63.623047"
               xlink:href="#DejaVuSans-65"
               id="use330" />
          </g>
        </g>
      </g>
    </g>
    <g
       id="axes_2">
      <g
         id="patch_8">
        <path
           d="M 171.432548 174.04  L 273.361274 174.04  L 273.361274 28.859048  L 171.432548 28.859048  z "
           style="fill:#ffffff;"
           id="path337" />
      </g>
      <g
         id="matplotlib.axis_3">
        <g
           id="xtick_3">
          <g
             id="line2d_17">
            <g
               id="g342">
              <use
                 style="stroke:#000000;stroke-width:0.8;"
                 x="219.848693"
                 xlink:href="#m4fcf7d286f"
                 y="174.04"
                 id="use340" />
            </g>
          </g>
          <g
             id="text_16">
            <!-- 20 -->
            <g
               transform="translate(213.486193 188.638438)scale(0.1 -0.1)"
               id="g349">
              <use
                 xlink:href="#DejaVuSans-50"
                 id="use345" />
              <use
                 x="63.623047"
                 xlink:href="#DejaVuSans-48"
                 id="use347" />
            </g>
          </g>
        </g>
        <g
           id="xtick_4">
          <g
             id="line2d_18">
            <g
               id="g355">
              <use
                 style="stroke:#000000;stroke-width:0.8;"
                 x="270.813056"
                 xlink:href="#m4fcf7d286f"
                 y="174.04"
                 id="use353" />
            </g>
          </g>
          <g
             id="text_17">
            <!-- 40 -->
            <g
               transform="translate(264.450556 188.638438)scale(0.1 -0.1)"
               id="g362">
              <use
                 xlink:href="#DejaVuSans-52"
                 id="use358" />
              <use
                 x="63.623047"
                 xlink:href="#DejaVuSans-48"
                 id="use360" />
            </g>
          </g>
        </g>
        <g
           id="text_18">
          <!-- Trials after switch -->
          <g
             transform="translate(178.610192 202.316563)scale(0.1 -0.1)"
             id="g404">
            <use
               xlink:href="#DejaVuSans-84"
               id="use366" />
            <use
               x="46.333984"
               xlink:href="#DejaVuSans-114"
               id="use368" />
            <use
               x="87.447266"
               xlink:href="#DejaVuSans-105"
               id="use370" />
            <use
               x="115.230469"
               xlink:href="#DejaVuSans-97"
               id="use372" />
            <use
               x="176.509766"
               xlink:href="#DejaVuSans-108"
               id="use374" />
            <use
               x="204.292969"
               xlink:href="#DejaVuSans-115"
               id="use376" />
            <use
               x="256.392578"
               xlink:href="#DejaVuSans-32"
               id="use378" />
            <use
               x="288.179688"
               xlink:href="#DejaVuSans-97"
               id="use380" />
            <use
               x="349.458984"
               xlink:href="#DejaVuSans-102"
               id="use382" />
            <use
               x="382.914062"
               xlink:href="#DejaVuSans-116"
               id="use384" />
            <use
               x="422.123047"
               xlink:href="#DejaVuSans-101"
               id="use386" />
            <use
               x="483.646484"
               xlink:href="#DejaVuSans-114"
               id="use388" />
            <use
               x="524.759766"
               xlink:href="#DejaVuSans-32"
               id="use390" />
            <use
               x="556.546875"
               xlink:href="#DejaVuSans-115"
               id="use392" />
            <use
               x="608.646484"
               xlink:href="#DejaVuSans-119"
               id="use394" />
            <use
               x="690.433594"
               xlink:href="#DejaVuSans-105"
               id="use396" />
            <use
               x="718.216797"
               xlink:href="#DejaVuSans-116"
               id="use398" />
            <use
               x="757.425781"
               xlink:href="#DejaVuSans-99"
               id="use400" />
            <use
               x="812.40625"
               xlink:href="#DejaVuSans-104"
               id="use402" />
          </g>
        </g>
      </g>
      <g
         id="matplotlib.axis_4">
        <g
           id="ytick_7">
          <g
             id="line2d_19">
            <g
               id="g410">
              <use
                 style="stroke:#000000;stroke-width:0.8;"
                 x="171.432548"
                 xlink:href="#mf6f7f840e7"
                 y="159.238844"
                 id="use408" />
            </g>
          </g>
        </g>
        <g
           id="ytick_8">
          <g
             id="line2d_20">
            <g
               id="g416">
              <use
                 style="stroke:#000000;stroke-width:0.8;"
                 x="171.432548"
                 xlink:href="#mf6f7f840e7"
                 y="137.035483"
                 id="use414" />
            </g>
          </g>
        </g>
        <g
           id="ytick_9">
          <g
             id="line2d_21">
            <g
               id="g422">
              <use
                 style="stroke:#000000;stroke-width:0.8;"
                 x="171.432548"
                 xlink:href="#mf6f7f840e7"
                 y="114.832121"
                 id="use420" />
            </g>
          </g>
        </g>
        <g
           id="ytick_10">
          <g
             id="line2d_22">
            <g
               id="g428">
              <use
                 style="stroke:#000000;stroke-width:0.8;"
                 x="171.432548"
                 xlink:href="#mf6f7f840e7"
                 y="92.62876"
                 id="use426" />
            </g>
          </g>
        </g>
        <g
           id="ytick_11">
          <g
             id="line2d_23">
            <g
               id="g434">
              <use
                 style="stroke:#000000;stroke-width:0.8;"
                 x="171.432548"
                 xlink:href="#mf6f7f840e7"
                 y="70.425398"
                 id="use432" />
            </g>
          </g>
        </g>
        <g
           id="ytick_12">
          <g
             id="line2d_24">
            <g
               id="g440">
              <use
                 style="stroke:#000000;stroke-width:0.8;"
                 x="171.432548"
                 xlink:href="#mf6f7f840e7"
                 y="48.222037"
                 id="use438" />
            </g>
          </g>
        </g>
      </g>
      <g
         id="patch_9">
        <path
           d="M 171.432548 174.04  L 171.432548 28.859048  "
           style="fill:none;stroke:#000000;stroke-linecap:square;stroke-linejoin:miter;stroke-width:0.8;"
           id="path445" />
      </g>
      <g
         id="patch_10">
        <path
           d="M 273.361274 174.04  L 273.361274 28.859048  "
           style="fill:none;stroke:#000000;stroke-linecap:square;stroke-linejoin:miter;stroke-width:0.8;"
           id="path448" />
      </g>
      <g
         id="patch_11">
        <path
           d="M 171.432548 174.04  L 273.361274 174.04  "
           style="fill:none;stroke:#000000;stroke-linecap:square;stroke-linejoin:miter;stroke-width:0.8;"
           id="path451" />
      </g>
      <g
         id="patch_12">
        <path
           d="M 171.432548 28.859048  L 273.361274 28.859048  "
           style="fill:none;stroke:#000000;stroke-linecap:square;stroke-linejoin:miter;stroke-width:0.8;"
           id="path454" />
      </g>
      <g
         id="text_19">
        <!-- B -->
        <g
           transform="translate(161.239675 21.6)scale(0.14 -0.14)"
           id="g462">
          <defs
             id="defs458">
            <path
               d="M 19.671875 34.8125  L 19.671875 8.109375  L 35.5 8.109375  Q 43.453125 8.109375 47.28125 11.40625  Q 51.125 14.703125 51.125 21.484375  Q 51.125 28.328125 47.28125 31.5625  Q 43.453125 34.8125 35.5 34.8125  z M 19.671875 64.796875  L 19.671875 42.828125  L 34.28125 42.828125  Q 41.5 42.828125 45.03125 45.53125  Q 48.578125 48.25 48.578125 53.8125  Q 48.578125 59.328125 45.03125 62.0625  Q 41.5 64.796875 34.28125 64.796875  z M 9.8125 72.90625  L 35.015625 72.90625  Q 46.296875 72.90625 52.390625 68.21875  Q 58.5 63.53125 58.5 54.890625  Q 58.5 48.1875 55.375 44.234375  Q 52.25 40.28125 46.1875 39.3125  Q 53.46875 37.75 57.5 32.78125  Q 61.53125 27.828125 61.53125 20.40625  Q 61.53125 10.640625 54.890625 5.3125  Q 48.25 0 35.984375 0  L 9.8125 0  z "
               id="DejaVuSans-66" />
          </defs>
          <use
             xlink:href="#DejaVuSans-66"
             id="use460" />
        </g>
      </g>
      <g
         id="text_20">
        <!-- Exp. data -->
        <g
           transform="translate(193.916598 22.859048)scale(0.12 -0.12)"
           id="g487">
          <defs
             id="defs467">
            <path
               d="M 54.890625 54.6875  L 35.109375 28.078125  L 55.90625 0  L 45.3125 0  L 29.390625 21.484375  L 13.484375 0  L 2.875 0  L 24.125 28.609375  L 4.6875 54.6875  L 15.28125 54.6875  L 29.78125 35.203125  L 44.28125 54.6875  z "
               id="DejaVuSans-120" />
            <path
               d="M 45.40625 46.390625  L 45.40625 75.984375  L 54.390625 75.984375  L 54.390625 0  L 45.40625 0  L 45.40625 8.203125  Q 42.578125 3.328125 38.25 0.953125  Q 33.9375 -1.421875 27.875 -1.421875  Q 17.96875 -1.421875 11.734375 6.484375  Q 5.515625 14.40625 5.515625 27.296875  Q 5.515625 40.1875 11.734375 48.09375  Q 17.96875 56 27.875 56  Q 33.9375 56 38.25 53.625  Q 42.578125 51.265625 45.40625 46.390625  z M 14.796875 27.296875  Q 14.796875 17.390625 18.875 11.75  Q 22.953125 6.109375 30.078125 6.109375  Q 37.203125 6.109375 41.296875 11.75  Q 45.40625 17.390625 45.40625 27.296875  Q 45.40625 37.203125 41.296875 42.84375  Q 37.203125 48.484375 30.078125 48.484375  Q 22.953125 48.484375 18.875 42.84375  Q 14.796875 37.203125 14.796875 27.296875  z "
               id="DejaVuSans-100" />
          </defs>
          <use
             xlink:href="#DejaVuSans-69"
             id="use469" />
          <use
             x="63.183594"
             xlink:href="#DejaVuSans-120"
             id="use471" />
          <use
             x="122.363281"
             xlink:href="#DejaVuSans-112"
             id="use473" />
          <use
             x="185.839844"
             xlink:href="#DejaVuSans-46"
             id="use475" />
          <use
             x="217.626953"
             xlink:href="#DejaVuSans-32"
             id="use477" />
          <use
             x="249.414062"
             xlink:href="#DejaVuSans-100"
             id="use479" />
          <use
             x="312.890625"
             xlink:href="#DejaVuSans-97"
             id="use481" />
          <use
             x="374.169922"
             xlink:href="#DejaVuSans-116"
             id="use483" />
          <use
             x="413.378906"
             xlink:href="#DejaVuSans-97"
             id="use485" />
        </g>
      </g>
    </g>
  </g>
  <defs
     id="defs495">
    <clipPath
       id="p1c8187a290">
      <rect
         height="145.180952"
         width="101.928726"
         x="44.66"
         y="28.859048"
         id="rect492" />
    </clipPath>
  </defs>
  <g
     id="g1251"
     transform="matrix(0.56071622,0,0,0.69720965,67.743056,46.33874)"
     style="stroke-linecap:butt;stroke-linejoin:round">
    <path
       style="fill:#999999;fill-opacity:0.341485;fill-rule:evenodd;stroke:#d3c55f;stroke-width:1.08595px;stroke-linecap:butt;stroke-linejoin:miter;stroke-opacity:1"
       d="m 185.65586,2.582811 4.35195,116.412319 4.35192,4.0912 5.00472,8.92613 5.00474,-7.06656 4.35193,-13.76116 4.13434,27.15047 5.00472,-16.7366 4.35193,34.96084 5.00474,-10.04192 4.13433,-36.82052 4.78713,14.50506 4.35193,24.54699 4.78712,-26.03465 4.56953,29.38196 5.00474,1.48772 4.56952,-17.85236 3.91675,15.24889 4.78712,-18.96816 9.35665,15.99278 5.8751,-0.7439 3.91675,-17.10844 4.13435,35.33277 9.79181,-50.2098 4.352,-0.37185 8.92144,31.61353 5.22234,-15.9927 4.13433,-28.26619 4.56954,33.84504 4.35193,-26.77855 4.56956,49.094 4.5695,-32.35739 4.56953,35.33283 4.78712,-62.111378 5.22233,47.606268 4.13433,-2.60346 1.52318,4.09118 3.04635,-2.97538 v 26.40658 l -9.79186,-9.66997 -4.13433,-17.10858 -4.35193,33.47321 -4.56952,-17.85234 -4.78712,9.2981 -4.56953,-25.29087 -4.56954,16.73664 -5.22234,-14.87704 -3.91671,10.78587 -4.35195,2.23153 -5.22232,-11.90164 -4.35193,2.60352 -8.2687,12.64542 -6.09272,16.36468 -4.13435,-22.31548 -3.91673,15.99278 -5.22231,-4.83504 -4.56953,5.95081 -5.00472,-18.96821 -4.56952,10.04202 -4.13435,-6.32274 -5.00474,8.55429 -4.35192,0.37186 -4.78713,-24.17509 -4.35193,25.66275 -5.00473,-9.66997 -4.35193,-26.40663 -4.35192,26.77855 -4.13435,14.87696 -5.43992,-22.31552 -4.56952,4.46311 -4.35194,-10.78578 -4.78712,15.99276 -4.78713,-7.81044 -4.35194,2.97545 -5.43991,-6.32275 -3.69916,-87.774143 z"
       id="path4151-7-3" />
    <path
       style="fill:#999999;fill-opacity:0.341485;fill-rule:evenodd;stroke:#5f6dd3;stroke-width:1.08595px;stroke-linecap:butt;stroke-linejoin:miter;stroke-opacity:1"
       d="m 185.08708,5.7816735 1.53864,23.1431465 8.61639,-8.678649 4.15432,63.906616 4.92365,-26.825001 4.3082,-0.26294 4.61592,9.99365 4.46206,50.494094 5.07751,-11.57157 4.61592,8.41572 4.30824,-22.354205 4.1543,9.204655 5.38527,1.31501 4.00047,44.18234 2.76955,-17.35738 2.00024,-19.19825 4.46206,17.09435 4.76978,-29.45494 4.30817,14.46449 4.76978,27.61396 5.84685,-15.51641 4.00049,-14.99045 3.69272,13.41252 5.23139,7.10076 4.76979,-4.73388 4.46206,10.78257 4.76978,-18.40929 4.15434,18.93533 5.07751,-17.35735 4.46205,32.87377 4.76981,-51.80907 4.00046,64.95857 5.23137,-48.3902 h 4.46207 l 4.15434,24.72106 5.23137,2.62994 4.15434,-0.78897 4.61588,-15.77941 4.76981,30.50682 5.23139,-10.25659 1.07707,4.73382 2.7695,-3.1559 -0.30765,19.72429 -4.00046,-7.88972 c 0,0 -4.92366,14.20149 -4.92366,12.36055 0,-1.84092 -4.46203,-24.72108 -4.46203,-24.72108 l -4.61593,22.88016 -4.76978,-2.10394 -9.07798,-24.72109 -4.30821,9.20464 -5.07751,26.03605 -4.61591,-34.18874 -4.46207,19.72427 -4.46206,-13.14949 -4.61592,8.67867 -4.46207,-9.46769 -4.76978,11.57165 -5.53913,-2.89293 -3.69273,-5.78581 -4.15432,7.36374 -4.92365,-21.82816 -4.46206,15.25343 -5.38524,6.31173 -8.77026,-22.88017 -4.61593,24.19517 -4.76977,-16.83142 -4.76978,21.30218 -8.61641,-47.60116 -4.46207,34.45168 -8.77025,-4.73383 -5.53914,1.57798 -4.1543,-52.598036 -5.693,3.681816 -4.15432,7.62672 -4.00048,3.9449 -4.92364,-36.555692 -5.07751,2.892916 -4.00047,-16.042414 z"
       id="path4266-5-6" />
  </g>
</svg>
