<?xml version="1.0" encoding="utf-8" standalone="no"?>
<!DOCTYPE svg PUBLIC "-//W3C//DTD SVG 1.1//EN"
  "http://www.w3.org/Graphics/SVG/1.1/DTD/svg11.dtd">
<svg xmlns:xlink="http://www.w3.org/1999/xlink" width="432pt" height="288pt" viewBox="0 0 432 288" xmlns="http://www.w3.org/2000/svg" version="1.1">
 <metadata>
  <rdf:RDF xmlns:dc="http://purl.org/dc/elements/1.1/" xmlns:cc="http://creativecommons.org/ns#" xmlns:rdf="http://www.w3.org/1999/02/22-rdf-syntax-ns#">
   <cc:Work>
    <dc:type rdf:resource="http://purl.org/dc/dcmitype/StillImage"/>
    <dc:date>2022-04-12T14:06:25.913836</dc:date>
    <dc:format>image/svg+xml</dc:format>
    <dc:creator>
     <cc:Agent>
      <dc:title>Matplotlib v3.5.0, https://matplotlib.org/</dc:title>
     </cc:Agent>
    </dc:creator>
   </cc:Work>
  </rdf:RDF>
 </metadata>
 <defs>
  <style type="text/css">*{stroke-linejoin: round; stroke-linecap: butt}</style>
 </defs>
 <g id="figure_1">
  <g id="patch_1">
   <path d="M 0 288 
L 432 288 
L 432 0 
L 0 0 
z
" style="fill: #ffffff"/>
  </g>
  <g id="axes_1">
   <g id="patch_2">
    <path d="M 54 97.92 
L 156.444062 97.92 
L 156.444062 34.56 
L 54 34.56 
z
" style="fill: #ffffff"/>
   </g>
   <g id="matplotlib.axis_1">
    <g id="xtick_1">
     <g id="line2d_1">
      <defs>
       <path id="m0ea74933aa" d="M 0 0 
L 0 3.5 
" style="stroke: #000000; stroke-width: 0.8"/>
      </defs>
      <g>
       <use xlink:href="#m0ea74933aa" x="58.656548" y="97.92" style="stroke: #000000; stroke-width: 0.8"/>
      </g>
     </g>
    </g>
    <g id="xtick_2">
     <g id="line2d_2">
      <g>
       <use xlink:href="#m0ea74933aa" x="89.804028" y="97.92" style="stroke: #000000; stroke-width: 0.8"/>
      </g>
     </g>
    </g>
    <g id="xtick_3">
     <g id="line2d_3">
      <g>
       <use xlink:href="#m0ea74933aa" x="120.951508" y="97.92" style="stroke: #000000; stroke-width: 0.8"/>
      </g>
     </g>
    </g>
    <g id="xtick_4">
     <g id="line2d_4">
      <g>
       <use xlink:href="#m0ea74933aa" x="152.098988" y="97.92" style="stroke: #000000; stroke-width: 0.8"/>
      </g>
     </g>
    </g>
   </g>
   <g id="matplotlib.axis_2">
    <g id="ytick_1">
     <g id="line2d_5">
      <defs>
       <path id="mc088d6dae6" d="M 0 0 
L -3.5 0 
" style="stroke: #000000; stroke-width: 0.8"/>
      </defs>
      <g>
       <use xlink:href="#mc088d6dae6" x="54" y="95.04" style="stroke: #000000; stroke-width: 0.8"/>
      </g>
     </g>
     <g id="text_1">
      <!-- 0 -->
      <g transform="translate(41.91 98.079375)scale(0.08 -0.08)">
       <defs>
        <path id="DejaVuSans-30" d="M 2034 4250 
Q 1547 4250 1301 3770 
Q 1056 3291 1056 2328 
Q 1056 1369 1301 889 
Q 1547 409 2034 409 
Q 2525 409 2770 889 
Q 3016 1369 3016 2328 
Q 3016 3291 2770 3770 
Q 2525 4250 2034 4250 
z
M 2034 4750 
Q 2819 4750 3233 4129 
Q 3647 3509 3647 2328 
Q 3647 1150 3233 529 
Q 2819 -91 2034 -91 
Q 1250 -91 836 529 
Q 422 1150 422 2328 
Q 422 3509 836 4129 
Q 1250 4750 2034 4750 
z
" transform="scale(0.015625)"/>
       </defs>
       <use xlink:href="#DejaVuSans-30"/>
      </g>
     </g>
    </g>
    <g id="ytick_2">
     <g id="line2d_6">
      <g>
       <use xlink:href="#mc088d6dae6" x="54" y="37.44" style="stroke: #000000; stroke-width: 0.8"/>
      </g>
     </g>
     <g id="text_2">
      <!-- 1 -->
      <g transform="translate(41.91 40.479375)scale(0.08 -0.08)">
       <defs>
        <path id="DejaVuSans-31" d="M 794 531 
L 1825 531 
L 1825 4091 
L 703 3866 
L 703 4441 
L 1819 4666 
L 2450 4666 
L 2450 531 
L 3481 531 
L 3481 0 
L 794 0 
L 794 531 
z
" transform="scale(0.015625)"/>
       </defs>
       <use xlink:href="#DejaVuSans-31"/>
      </g>
     </g>
    </g>
   </g>
   <g id="line2d_7">
    <path d="M 58.656548 37.44192 
L 67.689317 37.440629 
L 68.000792 94.953315 
L 68.623742 95.04 
L 105.377768 95.039312 
L 105.689243 37.442232 
L 114.410538 37.440014 
L 114.722012 93.383796 
L 115.033487 95.04 
L 151.787514 95.04 
L 151.787514 95.04 
" clip-path="url(#p2c16723052)" style="fill: none; stroke: #000000; stroke-width: 1.5; stroke-linecap: square"/>
   </g>
   <g id="line2d_8">
    <path d="M 58.656548 95.03904 
L 67.689317 95.039692 
L 68.000792 37.531886 
L 68.623742 37.44 
L 77.033562 37.440003 
L 77.345036 39.327859 
L 77.656511 46.372994 
L 77.967986 86.989935 
L 78.279461 95.037783 
L 86.377806 95.039584 
L 86.68928 37.522372 
L 87.31223 37.44082 
L 95.72205 37.440525 
L 96.033524 94.975579 
L 96.656474 95.039261 
L 105.066294 95.039547 
L 105.377768 90.888818 
L 105.689243 95.03973 
L 123.754782 95.039675 
L 124.066256 37.543301 
L 124.689206 37.440962 
L 133.099026 37.440723 
L 133.4105 94.994098 
L 134.344925 95.039581 
L 142.44327 95.03966 
L 142.754744 37.538776 
L 143.377694 37.440885 
L 151.787514 37.440732 
L 151.787514 37.440732 
" clip-path="url(#p2c16723052)" style="fill: none; stroke: #ff7f0e; stroke-width: 1.5; stroke-linecap: square"/>
   </g>
   <g id="line2d_9">
    <path d="M 58.656548 95.03904 
L 77.033562 95.039997 
L 77.345036 93.152141 
L 77.656511 86.107006 
L 77.967986 45.490065 
L 78.279461 37.442217 
L 86.377806 37.440416 
L 86.68928 94.957628 
L 87.31223 95.03918 
L 95.72205 95.039475 
L 96.033524 37.504421 
L 96.656474 37.440739 
L 105.066294 37.440453 
L 105.377768 41.591871 
L 105.689243 95.038037 
L 114.410538 95.039993 
L 114.722012 39.10096 
L 115.033487 37.440447 
L 123.754782 37.440325 
L 124.066256 94.936699 
L 124.689206 95.039038 
L 133.099026 95.039277 
L 133.4105 37.485902 
L 134.344925 37.440419 
L 142.44327 37.44034 
L 142.754744 94.941224 
L 143.377694 95.039115 
L 151.787514 95.039268 
L 151.787514 95.039268 
" clip-path="url(#p2c16723052)" style="fill: none; stroke: #1f77b4; stroke-width: 1.5; stroke-linecap: square"/>
   </g>
   <g id="patch_3">
    <path d="M 54 97.92 
L 54 34.56 
" style="fill: none; stroke: #000000; stroke-width: 0.8; stroke-linejoin: miter; stroke-linecap: square"/>
   </g>
   <g id="patch_4">
    <path d="M 54 97.92 
L 156.444062 97.92 
" style="fill: none; stroke: #000000; stroke-width: 0.8; stroke-linejoin: miter; stroke-linecap: square"/>
   </g>
   <g id="text_3">
    <!-- A -->
    <g transform="translate(43.755594 31.392)scale(0.12 -0.12)">
     <defs>
      <path id="DejaVuSans-41" d="M 2188 4044 
L 1331 1722 
L 3047 1722 
L 2188 4044 
z
M 1831 4666 
L 2547 4666 
L 4325 0 
L 3669 0 
L 3244 1197 
L 1141 1197 
L 716 0 
L 50 0 
L 1831 4666 
z
" transform="scale(0.015625)"/>
     </defs>
     <use xlink:href="#DejaVuSans-41"/>
    </g>
   </g>
   <g id="text_4">
    <!-- p(context) -->
    <g transform="translate(80.337031 28.56)scale(0.096 -0.096)">
     <defs>
      <path id="DejaVuSans-70" d="M 1159 525 
L 1159 -1331 
L 581 -1331 
L 581 3500 
L 1159 3500 
L 1159 2969 
Q 1341 3281 1617 3432 
Q 1894 3584 2278 3584 
Q 2916 3584 3314 3078 
Q 3713 2572 3713 1747 
Q 3713 922 3314 415 
Q 2916 -91 2278 -91 
Q 1894 -91 1617 61 
Q 1341 213 1159 525 
z
M 3116 1747 
Q 3116 2381 2855 2742 
Q 2594 3103 2138 3103 
Q 1681 3103 1420 2742 
Q 1159 2381 1159 1747 
Q 1159 1113 1420 752 
Q 1681 391 2138 391 
Q 2594 391 2855 752 
Q 3116 1113 3116 1747 
z
" transform="scale(0.015625)"/>
      <path id="DejaVuSans-28" d="M 1984 4856 
Q 1566 4138 1362 3434 
Q 1159 2731 1159 2009 
Q 1159 1288 1364 580 
Q 1569 -128 1984 -844 
L 1484 -844 
Q 1016 -109 783 600 
Q 550 1309 550 2009 
Q 550 2706 781 3412 
Q 1013 4119 1484 4856 
L 1984 4856 
z
" transform="scale(0.015625)"/>
      <path id="DejaVuSans-63" d="M 3122 3366 
L 3122 2828 
Q 2878 2963 2633 3030 
Q 2388 3097 2138 3097 
Q 1578 3097 1268 2742 
Q 959 2388 959 1747 
Q 959 1106 1268 751 
Q 1578 397 2138 397 
Q 2388 397 2633 464 
Q 2878 531 3122 666 
L 3122 134 
Q 2881 22 2623 -34 
Q 2366 -91 2075 -91 
Q 1284 -91 818 406 
Q 353 903 353 1747 
Q 353 2603 823 3093 
Q 1294 3584 2113 3584 
Q 2378 3584 2631 3529 
Q 2884 3475 3122 3366 
z
" transform="scale(0.015625)"/>
      <path id="DejaVuSans-6f" d="M 1959 3097 
Q 1497 3097 1228 2736 
Q 959 2375 959 1747 
Q 959 1119 1226 758 
Q 1494 397 1959 397 
Q 2419 397 2687 759 
Q 2956 1122 2956 1747 
Q 2956 2369 2687 2733 
Q 2419 3097 1959 3097 
z
M 1959 3584 
Q 2709 3584 3137 3096 
Q 3566 2609 3566 1747 
Q 3566 888 3137 398 
Q 2709 -91 1959 -91 
Q 1206 -91 779 398 
Q 353 888 353 1747 
Q 353 2609 779 3096 
Q 1206 3584 1959 3584 
z
" transform="scale(0.015625)"/>
      <path id="DejaVuSans-6e" d="M 3513 2113 
L 3513 0 
L 2938 0 
L 2938 2094 
Q 2938 2591 2744 2837 
Q 2550 3084 2163 3084 
Q 1697 3084 1428 2787 
Q 1159 2491 1159 1978 
L 1159 0 
L 581 0 
L 581 3500 
L 1159 3500 
L 1159 2956 
Q 1366 3272 1645 3428 
Q 1925 3584 2291 3584 
Q 2894 3584 3203 3211 
Q 3513 2838 3513 2113 
z
" transform="scale(0.015625)"/>
      <path id="DejaVuSans-74" d="M 1172 4494 
L 1172 3500 
L 2356 3500 
L 2356 3053 
L 1172 3053 
L 1172 1153 
Q 1172 725 1289 603 
Q 1406 481 1766 481 
L 2356 481 
L 2356 0 
L 1766 0 
Q 1100 0 847 248 
Q 594 497 594 1153 
L 594 3053 
L 172 3053 
L 172 3500 
L 594 3500 
L 594 4494 
L 1172 4494 
z
" transform="scale(0.015625)"/>
      <path id="DejaVuSans-65" d="M 3597 1894 
L 3597 1613 
L 953 1613 
Q 991 1019 1311 708 
Q 1631 397 2203 397 
Q 2534 397 2845 478 
Q 3156 559 3463 722 
L 3463 178 
Q 3153 47 2828 -22 
Q 2503 -91 2169 -91 
Q 1331 -91 842 396 
Q 353 884 353 1716 
Q 353 2575 817 3079 
Q 1281 3584 2069 3584 
Q 2775 3584 3186 3129 
Q 3597 2675 3597 1894 
z
M 3022 2063 
Q 3016 2534 2758 2815 
Q 2500 3097 2075 3097 
Q 1594 3097 1305 2825 
Q 1016 2553 972 2059 
L 3022 2063 
z
" transform="scale(0.015625)"/>
      <path id="DejaVuSans-78" d="M 3513 3500 
L 2247 1797 
L 3578 0 
L 2900 0 
L 1881 1375 
L 863 0 
L 184 0 
L 1544 1831 
L 300 3500 
L 978 3500 
L 1906 2253 
L 2834 3500 
L 3513 3500 
z
" transform="scale(0.015625)"/>
      <path id="DejaVuSans-29" d="M 513 4856 
L 1013 4856 
Q 1481 4119 1714 3412 
Q 1947 2706 1947 2009 
Q 1947 1309 1714 600 
Q 1481 -109 1013 -844 
L 513 -844 
Q 928 -128 1133 580 
Q 1338 1288 1338 2009 
Q 1338 2731 1133 3434 
Q 928 4138 513 4856 
z
" transform="scale(0.015625)"/>
     </defs>
     <use xlink:href="#DejaVuSans-70"/>
     <use xlink:href="#DejaVuSans-28" x="63.476562"/>
     <use xlink:href="#DejaVuSans-63" x="102.490234"/>
     <use xlink:href="#DejaVuSans-6f" x="157.470703"/>
     <use xlink:href="#DejaVuSans-6e" x="218.652344"/>
     <use xlink:href="#DejaVuSans-74" x="282.03125"/>
     <use xlink:href="#DejaVuSans-65" x="321.240234"/>
     <use xlink:href="#DejaVuSans-78" x="381.013672"/>
     <use xlink:href="#DejaVuSans-74" x="440.193359"/>
     <use xlink:href="#DejaVuSans-29" x="479.402344"/>
    </g>
   </g>
  </g>
  <g id="axes_2">
   <g id="patch_5">
    <path d="M 54 177.12 
L 156.444062 177.12 
L 156.444062 113.76 
L 54 113.76 
z
" style="fill: #ffffff"/>
   </g>
   <g id="matplotlib.axis_3">
    <g id="xtick_5">
     <g id="line2d_10">
      <g>
       <use xlink:href="#m0ea74933aa" x="58.656548" y="177.12" style="stroke: #000000; stroke-width: 0.8"/>
      </g>
     </g>
    </g>
    <g id="xtick_6">
     <g id="line2d_11">
      <g>
       <use xlink:href="#m0ea74933aa" x="88.698795" y="177.12" style="stroke: #000000; stroke-width: 0.8"/>
      </g>
     </g>
    </g>
    <g id="xtick_7">
     <g id="line2d_12">
      <g>
       <use xlink:href="#m0ea74933aa" x="118.741042" y="177.12" style="stroke: #000000; stroke-width: 0.8"/>
      </g>
     </g>
    </g>
    <g id="xtick_8">
     <g id="line2d_13">
      <g>
       <use xlink:href="#m0ea74933aa" x="148.783289" y="177.12" style="stroke: #000000; stroke-width: 0.8"/>
      </g>
     </g>
    </g>
   </g>
   <g id="matplotlib.axis_4">
    <g id="ytick_3">
     <g id="line2d_14">
      <g>
       <use xlink:href="#mc088d6dae6" x="54" y="177.12" style="stroke: #000000; stroke-width: 0.8"/>
      </g>
     </g>
     <g id="text_5">
      <!-- 0 -->
      <g transform="translate(41.91 180.159375)scale(0.08 -0.08)">
       <use xlink:href="#DejaVuSans-30"/>
      </g>
     </g>
    </g>
    <g id="ytick_4">
     <g id="line2d_15">
      <g>
       <use xlink:href="#mc088d6dae6" x="54" y="124.32" style="stroke: #000000; stroke-width: 0.8"/>
      </g>
     </g>
     <g id="text_6">
      <!-- 1 -->
      <g transform="translate(41.91 127.359375)scale(0.08 -0.08)">
       <use xlink:href="#DejaVuSans-31"/>
      </g>
     </g>
    </g>
   </g>
   <g id="line2d_16">
    <path d="M 58.656548 130.545328 
L 59.257393 127.945427 
L 59.557816 128.604404 
L 60.158661 127.185417 
L 60.459083 126.93679 
L 61.059928 126.050253 
L 61.660773 125.778704 
L 62.56204 125.500533 
L 64.664998 125.439096 
L 64.96542 131.035714 
L 65.566265 172.356728 
L 65.866688 176.432351 
L 66.16711 176.992295 
L 70.97387 177.063395 
L 71.875137 177.056843 
L 82.690346 177.064183 
L 82.990768 174.817799 
L 83.291191 168.047045 
L 84.192458 128.833312 
L 84.492881 125.730727 
L 84.793303 124.83514 
L 85.093726 124.590929 
L 85.994993 124.508752 
L 94.707245 124.528169 
L 95.007667 129.840881 
L 95.30809 145.607973 
L 95.608512 169.485761 
L 95.908934 176.263943 
L 96.209357 176.967027 
L 97.110624 177.055256 
L 98.913159 177.055729 
L 99.213582 176.977094 
L 99.814427 177.065195 
L 100.715694 177.039248 
L 102.818651 177.065656 
L 104.020341 177.061655 
L 109.728368 177.045307 
L 110.02879 174.960327 
L 110.329213 168.564346 
L 110.629635 156.737562 
L 110.930058 139.887449 
L 111.23048 130.401739 
L 111.530903 126.385596 
L 111.831325 125.134751 
L 112.131748 124.669811 
L 112.732593 124.516294 
L 115.736817 124.508667 
L 116.03724 130.479466 
L 116.638085 173.756177 
L 116.938507 175.998459 
L 117.23893 176.966921 
L 117.839775 177.059354 
L 118.741042 177.044649 
L 119.041465 176.899513 
L 119.341887 177.050618 
L 123.247379 177.064537 
L 124.148647 177.062329 
L 124.749491 177.048489 
L 125.049914 175.149892 
L 125.350336 169.198456 
L 126.251604 128.890969 
L 126.552026 125.680286 
L 126.852449 124.826392 
L 127.152871 124.581908 
L 128.054139 124.504401 
L 129.556251 124.508724 
L 132.860898 124.515577 
L 133.161321 124.590282 
L 133.762166 124.50715 
L 134.36301 124.513199 
L 136.76639 124.510756 
L 137.066813 126.565354 
L 137.96808 175.617237 
L 138.268503 176.871244 
L 138.568925 177.045445 
L 139.770615 177.057811 
L 140.071037 177.059679 
L 140.37146 176.947423 
L 140.972305 177.063461 
L 143.976529 177.058184 
L 144.276952 176.958741 
L 144.877797 177.058895 
L 146.379909 176.965785 
L 146.680332 177.057825 
L 147.281177 177.058742 
L 148.182444 177.064968 
L 148.482867 176.939007 
L 149.083711 177.065446 
L 151.487091 177.057899 
L 151.487091 177.057899 
" clip-path="url(#pbbe1fccfbf)" style="fill: none; stroke: #000000; stroke-width: 1.5; stroke-linecap: square"/>
   </g>
   <g id="line2d_17">
    <path d="M 58.656548 170.894672 
L 59.257393 173.494573 
L 59.557816 172.835596 
L 60.158661 174.254583 
L 60.459083 174.50321 
L 61.059928 175.389747 
L 61.660773 175.661296 
L 62.56204 175.939467 
L 64.664998 176.000904 
L 64.96542 170.404286 
L 65.566265 129.083272 
L 65.866688 125.007649 
L 66.16711 124.447705 
L 70.97387 124.376605 
L 71.875137 124.383157 
L 82.690346 124.375817 
L 82.990768 126.622201 
L 83.291191 133.392955 
L 84.192458 172.606688 
L 84.492881 175.709273 
L 84.793303 176.60486 
L 85.093726 176.849071 
L 85.994993 176.931248 
L 94.707245 176.911831 
L 95.007667 171.599119 
L 95.30809 155.832027 
L 95.608512 131.954239 
L 95.908934 125.176057 
L 96.209357 124.472973 
L 97.110624 124.384744 
L 98.913159 124.384271 
L 99.213582 124.462906 
L 99.814427 124.374805 
L 100.715694 124.400752 
L 102.818651 124.374344 
L 104.020341 124.378345 
L 109.728368 124.394693 
L 110.02879 126.479673 
L 110.329213 132.875654 
L 110.629635 144.702438 
L 110.930058 161.552551 
L 111.23048 171.038261 
L 111.530903 175.054404 
L 111.831325 176.305249 
L 112.131748 176.770189 
L 112.732593 176.923706 
L 115.736817 176.931333 
L 116.03724 170.960534 
L 116.638085 127.683823 
L 116.938507 125.441541 
L 117.23893 124.473079 
L 117.839775 124.380646 
L 118.741042 124.395351 
L 119.041465 124.540487 
L 119.341887 124.389382 
L 123.247379 124.375463 
L 124.148647 124.377671 
L 124.749491 124.391511 
L 125.049914 126.290108 
L 125.350336 132.241544 
L 126.251604 172.549031 
L 126.552026 175.759714 
L 126.852449 176.613608 
L 127.152871 176.858092 
L 128.054139 176.935599 
L 129.556251 176.931276 
L 132.860898 176.924423 
L 133.161321 176.849718 
L 133.762166 176.93285 
L 134.36301 176.926801 
L 136.76639 176.929244 
L 137.066813 174.874646 
L 137.96808 125.822763 
L 138.268503 124.568756 
L 138.568925 124.394555 
L 139.770615 124.382189 
L 140.071037 124.380321 
L 140.37146 124.492577 
L 140.972305 124.376539 
L 143.976529 124.381816 
L 144.276952 124.481259 
L 144.877797 124.381105 
L 146.379909 124.474215 
L 146.680332 124.382175 
L 147.281177 124.381258 
L 148.182444 124.375032 
L 148.482867 124.500993 
L 149.083711 124.374554 
L 151.487091 124.382101 
L 151.487091 124.382101 
" clip-path="url(#pbbe1fccfbf)" style="fill: none; stroke: #ff7f0e; stroke-width: 1.5; stroke-linecap: square"/>
   </g>
   <g id="LineCollection_1">
    <path d="M 58.656548 177.12 
L 58.656548 113.76 
" clip-path="url(#pbbe1fccfbf)" style="fill: none; stroke-dasharray: 1.85,0.8; stroke-dashoffset: 0; stroke: #000000; stroke-width: 0.5"/>
    <path d="M 64.364575 177.12 
L 64.364575 113.76 
" clip-path="url(#pbbe1fccfbf)" style="fill: none; stroke-dasharray: 1.85,0.8; stroke-dashoffset: 0; stroke: #000000; stroke-width: 0.5"/>
    <path d="M 82.389923 177.12 
L 82.389923 113.76 
" clip-path="url(#pbbe1fccfbf)" style="fill: none; stroke-dasharray: 1.85,0.8; stroke-dashoffset: 0; stroke: #000000; stroke-width: 0.5"/>
    <path d="M 94.406822 177.12 
L 94.406822 113.76 
" clip-path="url(#pbbe1fccfbf)" style="fill: none; stroke-dasharray: 1.85,0.8; stroke-dashoffset: 0; stroke: #000000; stroke-width: 0.5"/>
    <path d="M 109.427946 177.12 
L 109.427946 113.76 
" clip-path="url(#pbbe1fccfbf)" style="fill: none; stroke-dasharray: 1.85,0.8; stroke-dashoffset: 0; stroke: #000000; stroke-width: 0.5"/>
    <path d="M 115.436395 177.12 
L 115.436395 113.76 
" clip-path="url(#pbbe1fccfbf)" style="fill: none; stroke-dasharray: 1.85,0.8; stroke-dashoffset: 0; stroke: #000000; stroke-width: 0.5"/>
    <path d="M 124.449069 177.12 
L 124.449069 113.76 
" clip-path="url(#pbbe1fccfbf)" style="fill: none; stroke-dasharray: 1.85,0.8; stroke-dashoffset: 0; stroke: #000000; stroke-width: 0.5"/>
    <path d="M 136.465968 177.12 
L 136.465968 113.76 
" clip-path="url(#pbbe1fccfbf)" style="fill: none; stroke-dasharray: 1.85,0.8; stroke-dashoffset: 0; stroke: #000000; stroke-width: 0.5"/>
    <path d="M 151.787514 177.12 
L 151.787514 113.76 
" clip-path="url(#pbbe1fccfbf)" style="fill: none; stroke-dasharray: 1.85,0.8; stroke-dashoffset: 0; stroke: #000000; stroke-width: 0.5"/>
   </g>
   <g id="patch_6">
    <path d="M 54 177.12 
L 54 113.76 
" style="fill: none; stroke: #000000; stroke-width: 0.8; stroke-linejoin: miter; stroke-linecap: square"/>
   </g>
   <g id="patch_7">
    <path d="M 54 177.12 
L 156.444062 177.12 
" style="fill: none; stroke: #000000; stroke-width: 0.8; stroke-linejoin: miter; stroke-linecap: square"/>
   </g>
   <g id="text_7">
    <!-- B -->
    <g transform="translate(43.755594 110.592)scale(0.12 -0.12)">
     <defs>
      <path id="DejaVuSans-42" d="M 1259 2228 
L 1259 519 
L 2272 519 
Q 2781 519 3026 730 
Q 3272 941 3272 1375 
Q 3272 1813 3026 2020 
Q 2781 2228 2272 2228 
L 1259 2228 
z
M 1259 4147 
L 1259 2741 
L 2194 2741 
Q 2656 2741 2882 2914 
Q 3109 3088 3109 3444 
Q 3109 3797 2882 3972 
Q 2656 4147 2194 4147 
L 1259 4147 
z
M 628 4666 
L 2241 4666 
Q 2963 4666 3353 4366 
Q 3744 4066 3744 3513 
Q 3744 3084 3544 2831 
Q 3344 2578 2956 2516 
Q 3422 2416 3680 2098 
Q 3938 1781 3938 1306 
Q 3938 681 3513 340 
Q 3088 0 2303 0 
L 628 0 
L 628 4666 
z
" transform="scale(0.015625)"/>
     </defs>
     <use xlink:href="#DejaVuSans-42"/>
    </g>
   </g>
  </g>
  <g id="axes_3">
   <g id="patch_8">
    <path d="M 54 256.32 
L 156.444062 256.32 
L 156.444062 192.96 
L 54 192.96 
z
" style="fill: #ffffff"/>
   </g>
   <g id="matplotlib.axis_5">
    <g id="xtick_9">
     <g id="line2d_18">
      <g>
       <use xlink:href="#m0ea74933aa" x="58.656548" y="256.32" style="stroke: #000000; stroke-width: 0.8"/>
      </g>
     </g>
     <g id="text_8">
      <!-- 0 -->
      <g transform="translate(56.111548 269.39875)scale(0.08 -0.08)">
       <use xlink:href="#DejaVuSans-30"/>
      </g>
     </g>
    </g>
    <g id="xtick_10">
     <g id="line2d_19">
      <g>
       <use xlink:href="#m0ea74933aa" x="88.698795" y="256.32" style="stroke: #000000; stroke-width: 0.8"/>
      </g>
     </g>
     <g id="text_9">
      <!-- 100 -->
      <g transform="translate(81.063795 269.39875)scale(0.08 -0.08)">
       <use xlink:href="#DejaVuSans-31"/>
       <use xlink:href="#DejaVuSans-30" x="63.623047"/>
       <use xlink:href="#DejaVuSans-30" x="127.246094"/>
      </g>
     </g>
    </g>
    <g id="xtick_11">
     <g id="line2d_20">
      <g>
       <use xlink:href="#m0ea74933aa" x="118.741042" y="256.32" style="stroke: #000000; stroke-width: 0.8"/>
      </g>
     </g>
     <g id="text_10">
      <!-- 200 -->
      <g transform="translate(111.106042 269.39875)scale(0.08 -0.08)">
       <defs>
        <path id="DejaVuSans-32" d="M 1228 531 
L 3431 531 
L 3431 0 
L 469 0 
L 469 531 
Q 828 903 1448 1529 
Q 2069 2156 2228 2338 
Q 2531 2678 2651 2914 
Q 2772 3150 2772 3378 
Q 2772 3750 2511 3984 
Q 2250 4219 1831 4219 
Q 1534 4219 1204 4116 
Q 875 4013 500 3803 
L 500 4441 
Q 881 4594 1212 4672 
Q 1544 4750 1819 4750 
Q 2544 4750 2975 4387 
Q 3406 4025 3406 3419 
Q 3406 3131 3298 2873 
Q 3191 2616 2906 2266 
Q 2828 2175 2409 1742 
Q 1991 1309 1228 531 
z
" transform="scale(0.015625)"/>
       </defs>
       <use xlink:href="#DejaVuSans-32"/>
       <use xlink:href="#DejaVuSans-30" x="63.623047"/>
       <use xlink:href="#DejaVuSans-30" x="127.246094"/>
      </g>
     </g>
    </g>
    <g id="xtick_12">
     <g id="line2d_21">
      <g>
       <use xlink:href="#m0ea74933aa" x="148.783289" y="256.32" style="stroke: #000000; stroke-width: 0.8"/>
      </g>
     </g>
     <g id="text_11">
      <!-- 300 -->
      <g transform="translate(141.148289 269.39875)scale(0.08 -0.08)">
       <defs>
        <path id="DejaVuSans-33" d="M 2597 2516 
Q 3050 2419 3304 2112 
Q 3559 1806 3559 1356 
Q 3559 666 3084 287 
Q 2609 -91 1734 -91 
Q 1441 -91 1130 -33 
Q 819 25 488 141 
L 488 750 
Q 750 597 1062 519 
Q 1375 441 1716 441 
Q 2309 441 2620 675 
Q 2931 909 2931 1356 
Q 2931 1769 2642 2001 
Q 2353 2234 1838 2234 
L 1294 2234 
L 1294 2753 
L 1863 2753 
Q 2328 2753 2575 2939 
Q 2822 3125 2822 3475 
Q 2822 3834 2567 4026 
Q 2313 4219 1838 4219 
Q 1578 4219 1281 4162 
Q 984 4106 628 3988 
L 628 4550 
Q 988 4650 1302 4700 
Q 1616 4750 1894 4750 
Q 2613 4750 3031 4423 
Q 3450 4097 3450 3541 
Q 3450 3153 3228 2886 
Q 3006 2619 2597 2516 
z
" transform="scale(0.015625)"/>
       </defs>
       <use xlink:href="#DejaVuSans-33"/>
       <use xlink:href="#DejaVuSans-30" x="63.623047"/>
       <use xlink:href="#DejaVuSans-30" x="127.246094"/>
      </g>
     </g>
    </g>
    <g id="text_12">
     <!-- Trial -->
     <g transform="translate(97.050781 281.14125)scale(0.08 -0.08)">
      <defs>
       <path id="DejaVuSans-54" d="M -19 4666 
L 3928 4666 
L 3928 4134 
L 2272 4134 
L 2272 0 
L 1638 0 
L 1638 4134 
L -19 4134 
L -19 4666 
z
" transform="scale(0.015625)"/>
       <path id="DejaVuSans-72" d="M 2631 2963 
Q 2534 3019 2420 3045 
Q 2306 3072 2169 3072 
Q 1681 3072 1420 2755 
Q 1159 2438 1159 1844 
L 1159 0 
L 581 0 
L 581 3500 
L 1159 3500 
L 1159 2956 
Q 1341 3275 1631 3429 
Q 1922 3584 2338 3584 
Q 2397 3584 2469 3576 
Q 2541 3569 2628 3553 
L 2631 2963 
z
" transform="scale(0.015625)"/>
       <path id="DejaVuSans-69" d="M 603 3500 
L 1178 3500 
L 1178 0 
L 603 0 
L 603 3500 
z
M 603 4863 
L 1178 4863 
L 1178 4134 
L 603 4134 
L 603 4863 
z
" transform="scale(0.015625)"/>
       <path id="DejaVuSans-61" d="M 2194 1759 
Q 1497 1759 1228 1600 
Q 959 1441 959 1056 
Q 959 750 1161 570 
Q 1363 391 1709 391 
Q 2188 391 2477 730 
Q 2766 1069 2766 1631 
L 2766 1759 
L 2194 1759 
z
M 3341 1997 
L 3341 0 
L 2766 0 
L 2766 531 
Q 2569 213 2275 61 
Q 1981 -91 1556 -91 
Q 1019 -91 701 211 
Q 384 513 384 1019 
Q 384 1609 779 1909 
Q 1175 2209 1959 2209 
L 2766 2209 
L 2766 2266 
Q 2766 2663 2505 2880 
Q 2244 3097 1772 3097 
Q 1472 3097 1187 3025 
Q 903 2953 641 2809 
L 641 3341 
Q 956 3463 1253 3523 
Q 1550 3584 1831 3584 
Q 2591 3584 2966 3190 
Q 3341 2797 3341 1997 
z
" transform="scale(0.015625)"/>
       <path id="DejaVuSans-6c" d="M 603 4863 
L 1178 4863 
L 1178 0 
L 603 0 
L 603 4863 
z
" transform="scale(0.015625)"/>
      </defs>
      <use xlink:href="#DejaVuSans-54"/>
      <use xlink:href="#DejaVuSans-72" x="46.333984"/>
      <use xlink:href="#DejaVuSans-69" x="87.447266"/>
      <use xlink:href="#DejaVuSans-61" x="115.230469"/>
      <use xlink:href="#DejaVuSans-6c" x="176.509766"/>
     </g>
    </g>
   </g>
   <g id="matplotlib.axis_6">
    <g id="ytick_5">
     <g id="line2d_22">
      <g>
       <use xlink:href="#mc088d6dae6" x="54" y="256.32" style="stroke: #000000; stroke-width: 0.8"/>
      </g>
     </g>
     <g id="text_13">
      <!-- 0 -->
      <g transform="translate(41.91 259.359375)scale(0.08 -0.08)">
       <use xlink:href="#DejaVuSans-30"/>
      </g>
     </g>
    </g>
    <g id="ytick_6">
     <g id="line2d_23">
      <g>
       <use xlink:href="#mc088d6dae6" x="54" y="203.52" style="stroke: #000000; stroke-width: 0.8"/>
      </g>
     </g>
     <g id="text_14">
      <!-- 1 -->
      <g transform="translate(41.91 206.559375)scale(0.08 -0.08)">
       <use xlink:href="#DejaVuSans-31"/>
      </g>
     </g>
    </g>
   </g>
   <g id="line2d_24">
    <path d="M 58.656548 209.745328 
L 59.257393 206.989996 
L 59.557816 206.184933 
L 60.158661 205.346118 
L 61.059928 204.92495 
L 61.660773 204.713913 
L 62.56204 204.811631 
L 63.76373 204.593408 
L 64.664998 204.546384 
L 64.96542 205.12728 
L 65.566265 209.230495 
L 65.866688 213.168907 
L 66.16711 215.229163 
L 66.467532 218.329163 
L 66.767955 235.390652 
L 67.068377 225.593863 
L 67.3688 230.561223 
L 67.669222 229.333856 
L 68.270067 241.92409 
L 68.57049 236.242559 
L 69.171335 250.948222 
L 69.471757 247.177094 
L 69.77218 247.489698 
L 70.673447 254.7035 
L 70.97387 254.330445 
L 71.274292 254.273445 
L 71.574714 255.561384 
L 71.875137 254.810167 
L 72.175559 255.264691 
L 72.475982 255.502966 
L 72.776404 255.467011 
L 73.076827 255.290595 
L 73.677672 255.56573 
L 73.978094 255.084785 
L 74.278517 255.762372 
L 74.578939 255.592819 
L 74.879362 255.968208 
L 75.179784 255.830499 
L 75.480207 255.890739 
L 75.780629 256.087163 
L 76.381474 255.574668 
L 76.681896 256.11967 
L 76.982319 256.059173 
L 77.282741 255.685264 
L 77.583164 256.027873 
L 77.883586 255.620587 
L 78.784854 256.009472 
L 79.385699 255.868457 
L 79.686121 256.088606 
L 79.986544 255.759067 
L 80.587389 256.057183 
L 81.188233 255.859367 
L 81.488656 256.021809 
L 82.089501 255.981101 
L 82.389923 255.563369 
L 82.690346 255.505794 
L 82.990768 254.063084 
L 83.591613 243.843929 
L 84.793303 209.804329 
L 85.093726 206.598392 
L 85.394148 205.153531 
L 85.69457 204.522262 
L 85.994993 204.16935 
L 86.89626 203.953731 
L 88.09795 203.927365 
L 89.29964 203.925833 
L 89.900485 203.931971 
L 90.801752 203.988354 
L 91.402597 203.967824 
L 93.505555 203.933449 
L 94.707245 204.044059 
L 95.007667 205.292816 
L 95.30809 207.584001 
L 95.608512 212.891966 
L 95.908934 212.33707 
L 96.209357 228.271722 
L 96.509779 230.466936 
L 96.810202 237.064372 
L 97.110624 249.111801 
L 97.711469 252.074449 
L 98.312314 255.777533 
L 98.612737 255.279616 
L 98.913159 255.060368 
L 99.213582 255.036473 
L 99.514004 255.569655 
L 99.814427 255.733601 
L 100.114849 255.527644 
L 101.016116 255.748462 
L 101.316539 254.601855 
L 101.616961 255.828384 
L 102.217806 255.475007 
L 102.518229 255.926281 
L 102.818651 255.156804 
L 103.119074 255.90708 
L 103.419496 255.370775 
L 103.719919 255.76033 
L 104.020341 255.859991 
L 104.320764 255.299775 
L 104.621186 255.933639 
L 104.921609 255.589768 
L 105.222031 256.043534 
L 105.522453 255.77408 
L 105.822876 256.009248 
L 106.123298 255.340041 
L 106.423721 255.426891 
L 106.724143 255.896599 
L 107.024566 255.71579 
L 107.324988 255.859518 
L 107.625411 256.133911 
L 107.925833 255.536528 
L 108.226256 255.713698 
L 108.526678 256.038691 
L 108.827101 255.154814 
L 109.127523 255.53033 
L 109.427946 255.42248 
L 109.728368 255.52547 
L 110.02879 253.354136 
L 110.329213 252.403557 
L 110.629635 248.103925 
L 111.23048 233.907289 
L 111.831325 213.136083 
L 112.131748 207.970201 
L 112.43217 205.717362 
L 112.732593 204.657985 
L 113.033015 204.181441 
L 113.333438 204.000737 
L 113.934283 203.947412 
L 114.234705 204.113172 
L 114.83555 203.955896 
L 115.736817 203.902455 
L 116.337662 205.607332 
L 116.638085 209.938037 
L 116.938507 220.989255 
L 117.23893 216.224993 
L 117.839775 224.076694 
L 118.140197 226.313824 
L 118.44062 226.133637 
L 118.741042 227.784788 
L 119.041465 239.050426 
L 119.341887 239.762499 
L 119.642309 250.553972 
L 119.942732 252.834485 
L 120.243154 251.397999 
L 120.543577 253.143971 
L 120.843999 252.933414 
L 121.144422 252.981642 
L 121.444844 254.884622 
L 121.745267 254.806658 
L 122.045689 255.126494 
L 122.346112 255.176346 
L 122.646534 255.67192 
L 122.946957 255.293426 
L 123.247379 254.160851 
L 123.547802 255.36885 
L 123.848224 255.397783 
L 124.148647 255.753744 
L 124.449069 255.700666 
L 124.749491 254.754403 
L 125.049914 251.987372 
L 125.350336 246.133538 
L 126.552026 209.761309 
L 126.852449 206.390941 
L 127.152871 204.902904 
L 127.753716 204.118656 
L 128.054139 203.964651 
L 128.654984 203.925648 
L 130.157096 203.913472 
L 130.457518 204.00121 
L 131.058363 203.895321 
L 132.560476 203.893453 
L 133.461743 203.885998 
L 134.062588 203.924331 
L 135.264278 203.886321 
L 135.865123 203.890673 
L 136.76639 203.87741 
L 137.367235 206.601265 
L 137.667658 208.819978 
L 137.96808 218.540303 
L 138.268503 220.237317 
L 138.568925 219.652396 
L 138.869348 233.376082 
L 139.16977 233.678927 
L 139.470192 235.913517 
L 140.671882 253.522129 
L 141.272727 254.16879 
L 141.57315 253.269138 
L 141.873572 252.788182 
L 142.173995 253.522031 
L 142.474417 255.365832 
L 142.77484 254.993581 
L 143.075262 255.296622 
L 143.375685 254.940307 
L 143.676107 255.868742 
L 143.976529 255.066755 
L 144.276952 255.102396 
L 144.577374 255.683575 
L 145.178219 255.09035 
L 145.478642 254.039548 
L 145.779064 255.715741 
L 146.079487 255.861261 
L 146.379909 254.597833 
L 146.680332 254.623481 
L 147.281177 255.573099 
L 147.882022 255.33329 
L 148.182444 255.678798 
L 148.783289 254.815464 
L 149.083711 255.146491 
L 149.384134 254.337068 
L 149.684556 254.278813 
L 149.984979 254.907228 
L 150.285401 254.959138 
L 150.585824 254.49214 
L 150.886246 255.166938 
L 151.186669 255.566383 
L 151.487091 255.510961 
L 151.487091 255.510961 
" clip-path="url(#p40c916d18b)" style="fill: none; stroke: #000000; stroke-width: 1.5; stroke-linecap: square"/>
   </g>
   <g id="line2d_25">
    <path d="M 58.656548 250.094672 
L 59.257393 252.850004 
L 59.557816 253.655067 
L 60.158661 254.493882 
L 61.059928 254.91505 
L 61.660773 255.126087 
L 62.56204 255.028369 
L 63.76373 255.246592 
L 64.664998 255.293616 
L 64.96542 254.71272 
L 65.566265 250.609505 
L 65.866688 246.671093 
L 66.16711 244.610837 
L 66.467532 241.510837 
L 66.767955 224.449348 
L 67.068377 234.246137 
L 67.3688 229.278777 
L 67.669222 230.506144 
L 68.270067 217.91591 
L 68.57049 223.597441 
L 69.171335 208.891778 
L 69.471757 212.662906 
L 69.77218 212.350302 
L 70.673447 205.1365 
L 70.97387 205.509555 
L 71.274292 205.566555 
L 71.574714 204.278616 
L 71.875137 205.029833 
L 72.175559 204.575309 
L 72.475982 204.337034 
L 72.776404 204.372989 
L 73.076827 204.549405 
L 73.677672 204.27427 
L 73.978094 204.755215 
L 74.278517 204.077628 
L 74.578939 204.247181 
L 74.879362 203.871792 
L 75.179784 204.009501 
L 75.480207 203.949261 
L 75.780629 203.752837 
L 76.381474 204.265332 
L 76.681896 203.72033 
L 76.982319 203.780827 
L 77.282741 204.154736 
L 77.583164 203.812127 
L 77.883586 204.219413 
L 78.784854 203.830528 
L 79.385699 203.971543 
L 79.686121 203.751394 
L 79.986544 204.080933 
L 80.587389 203.782817 
L 81.188233 203.980633 
L 81.488656 203.818191 
L 82.089501 203.858899 
L 82.389923 204.276631 
L 82.690346 204.334206 
L 82.990768 205.776916 
L 83.591613 215.996071 
L 84.793303 250.035671 
L 85.093726 253.241608 
L 85.394148 254.686469 
L 85.69457 255.317738 
L 85.994993 255.67065 
L 86.89626 255.886269 
L 88.09795 255.912635 
L 89.29964 255.914167 
L 89.900485 255.908029 
L 90.801752 255.851646 
L 91.402597 255.872176 
L 93.505555 255.906551 
L 94.707245 255.795941 
L 95.007667 254.547184 
L 95.30809 252.255999 
L 95.608512 246.948034 
L 95.908934 247.50293 
L 96.209357 231.568278 
L 96.509779 229.373064 
L 96.810202 222.775628 
L 97.110624 210.728199 
L 97.711469 207.765551 
L 98.312314 204.062467 
L 98.612737 204.560384 
L 98.913159 204.779632 
L 99.213582 204.803527 
L 99.514004 204.270345 
L 99.814427 204.106399 
L 100.114849 204.312356 
L 101.016116 204.091538 
L 101.316539 205.238145 
L 101.616961 204.011616 
L 102.217806 204.364993 
L 102.518229 203.913719 
L 102.818651 204.683196 
L 103.119074 203.93292 
L 103.419496 204.469225 
L 103.719919 204.07967 
L 104.020341 203.980009 
L 104.320764 204.540225 
L 104.621186 203.906361 
L 104.921609 204.250232 
L 105.222031 203.796466 
L 105.522453 204.06592 
L 105.822876 203.830752 
L 106.123298 204.499959 
L 106.423721 204.413109 
L 106.724143 203.943401 
L 107.024566 204.12421 
L 107.324988 203.980482 
L 107.625411 203.706089 
L 107.925833 204.303472 
L 108.226256 204.126302 
L 108.526678 203.801309 
L 108.827101 204.685186 
L 109.127523 204.30967 
L 109.427946 204.41752 
L 109.728368 204.31453 
L 110.02879 206.485864 
L 110.329213 207.436443 
L 110.629635 211.736075 
L 111.23048 225.932711 
L 111.831325 246.703917 
L 112.131748 251.869799 
L 112.43217 254.122638 
L 112.732593 255.182015 
L 113.033015 255.658559 
L 113.333438 255.839263 
L 113.934283 255.892588 
L 114.234705 255.726828 
L 114.83555 255.884104 
L 115.736817 255.937545 
L 116.337662 254.232668 
L 116.638085 249.901963 
L 116.938507 238.850745 
L 117.23893 243.615007 
L 117.839775 235.763306 
L 118.140197 233.526176 
L 118.44062 233.706363 
L 118.741042 232.055212 
L 119.041465 220.789574 
L 119.341887 220.077501 
L 119.642309 209.286028 
L 119.942732 207.005515 
L 120.243154 208.442001 
L 120.543577 206.696029 
L 120.843999 206.906586 
L 121.144422 206.858358 
L 121.444844 204.955378 
L 121.745267 205.033342 
L 122.045689 204.713506 
L 122.346112 204.663654 
L 122.646534 204.16808 
L 122.946957 204.546574 
L 123.247379 205.679149 
L 123.547802 204.47115 
L 123.848224 204.442217 
L 124.148647 204.086256 
L 124.449069 204.139334 
L 124.749491 205.085597 
L 125.049914 207.852628 
L 125.350336 213.706462 
L 126.552026 250.078691 
L 126.852449 253.449059 
L 127.152871 254.937096 
L 127.753716 255.721344 
L 128.054139 255.875349 
L 128.654984 255.914352 
L 130.157096 255.926528 
L 130.457518 255.83879 
L 131.058363 255.944679 
L 132.560476 255.946547 
L 133.461743 255.954002 
L 134.062588 255.915669 
L 135.264278 255.953679 
L 135.865123 255.949327 
L 136.76639 255.96259 
L 137.367235 253.238735 
L 137.667658 251.020022 
L 137.96808 241.299697 
L 138.268503 239.602683 
L 138.568925 240.187604 
L 138.869348 226.463918 
L 139.16977 226.161073 
L 139.470192 223.926483 
L 140.671882 206.317871 
L 141.272727 205.67121 
L 141.57315 206.570862 
L 141.873572 207.051818 
L 142.173995 206.317969 
L 142.474417 204.474168 
L 142.77484 204.846419 
L 143.075262 204.543378 
L 143.375685 204.899693 
L 143.676107 203.971258 
L 143.976529 204.773245 
L 144.276952 204.737604 
L 144.577374 204.156425 
L 145.178219 204.74965 
L 145.478642 205.800452 
L 145.779064 204.124259 
L 146.079487 203.978739 
L 146.379909 205.242167 
L 146.680332 205.216519 
L 147.281177 204.266901 
L 147.882022 204.50671 
L 148.182444 204.161202 
L 148.783289 205.024536 
L 149.083711 204.693509 
L 149.384134 205.502932 
L 149.684556 205.561187 
L 149.984979 204.932772 
L 150.285401 204.880862 
L 150.585824 205.34786 
L 150.886246 204.673062 
L 151.186669 204.273617 
L 151.487091 204.329039 
L 151.487091 204.329039 
" clip-path="url(#p40c916d18b)" style="fill: none; stroke: #ff7f0e; stroke-width: 1.5; stroke-linecap: square"/>
   </g>
   <g id="LineCollection_2">
    <path d="M 58.656548 289 
L 58.656548 -1 
" clip-path="url(#p40c916d18b)" style="fill: none; stroke-dasharray: 1.85,0.8; stroke-dashoffset: 0; stroke: #000000; stroke-width: 0.5"/>
    <path d="M 64.364575 289 
L 64.364575 -1 
" clip-path="url(#p40c916d18b)" style="fill: none; stroke-dasharray: 1.85,0.8; stroke-dashoffset: 0; stroke: #000000; stroke-width: 0.5"/>
    <path d="M 82.389923 289 
L 82.389923 -1 
" clip-path="url(#p40c916d18b)" style="fill: none; stroke-dasharray: 1.85,0.8; stroke-dashoffset: 0; stroke: #000000; stroke-width: 0.5"/>
    <path d="M 94.406822 289 
L 94.406822 -1 
" clip-path="url(#p40c916d18b)" style="fill: none; stroke-dasharray: 1.85,0.8; stroke-dashoffset: 0; stroke: #000000; stroke-width: 0.5"/>
    <path d="M 109.427946 289 
L 109.427946 -1 
" clip-path="url(#p40c916d18b)" style="fill: none; stroke-dasharray: 1.85,0.8; stroke-dashoffset: 0; stroke: #000000; stroke-width: 0.5"/>
    <path d="M 115.436395 289 
L 115.436395 -1 
" clip-path="url(#p40c916d18b)" style="fill: none; stroke-dasharray: 1.85,0.8; stroke-dashoffset: 0; stroke: #000000; stroke-width: 0.5"/>
    <path d="M 124.449069 289 
L 124.449069 -1 
" clip-path="url(#p40c916d18b)" style="fill: none; stroke-dasharray: 1.85,0.8; stroke-dashoffset: 0; stroke: #000000; stroke-width: 0.5"/>
    <path d="M 136.465968 289 
L 136.465968 -1 
" clip-path="url(#p40c916d18b)" style="fill: none; stroke-dasharray: 1.85,0.8; stroke-dashoffset: 0; stroke: #000000; stroke-width: 0.5"/>
    <path d="M 151.787514 289 
L 151.787514 -1 
" clip-path="url(#p40c916d18b)" style="fill: none; stroke-dasharray: 1.85,0.8; stroke-dashoffset: 0; stroke: #000000; stroke-width: 0.5"/>
   </g>
   <g id="patch_9">
    <path d="M 54 256.32 
L 54 192.96 
" style="fill: none; stroke: #000000; stroke-width: 0.8; stroke-linejoin: miter; stroke-linecap: square"/>
   </g>
   <g id="patch_10">
    <path d="M 54 256.32 
L 156.444062 256.32 
" style="fill: none; stroke: #000000; stroke-width: 0.8; stroke-linejoin: miter; stroke-linecap: square"/>
   </g>
   <g id="text_15">
    <!-- C -->
    <g transform="translate(43.755594 189.792)scale(0.12 -0.12)">
     <defs>
      <path id="DejaVuSans-43" d="M 4122 4306 
L 4122 3641 
Q 3803 3938 3442 4084 
Q 3081 4231 2675 4231 
Q 1875 4231 1450 3742 
Q 1025 3253 1025 2328 
Q 1025 1406 1450 917 
Q 1875 428 2675 428 
Q 3081 428 3442 575 
Q 3803 722 4122 1019 
L 4122 359 
Q 3791 134 3420 21 
Q 3050 -91 2638 -91 
Q 1578 -91 968 557 
Q 359 1206 359 2328 
Q 359 3453 968 4101 
Q 1578 4750 2638 4750 
Q 3056 4750 3426 4639 
Q 3797 4528 4122 4306 
z
" transform="scale(0.015625)"/>
     </defs>
     <use xlink:href="#DejaVuSans-43"/>
    </g>
   </g>
  </g>
  <g id="axes_4">
   <g id="patch_11">
    <path d="M 179.878141 97.92 
L 282.322203 97.92 
L 282.322203 34.56 
L 179.878141 34.56 
z
" style="fill: #ffffff"/>
   </g>
   <g id="matplotlib.axis_7">
    <g id="xtick_13">
     <g id="line2d_26">
      <g>
       <use xlink:href="#m0ea74933aa" x="184.534689" y="97.92" style="stroke: #000000; stroke-width: 0.8"/>
      </g>
     </g>
    </g>
    <g id="xtick_14">
     <g id="line2d_27">
      <g>
       <use xlink:href="#m0ea74933aa" x="215.682169" y="97.92" style="stroke: #000000; stroke-width: 0.8"/>
      </g>
     </g>
    </g>
    <g id="xtick_15">
     <g id="line2d_28">
      <g>
       <use xlink:href="#m0ea74933aa" x="246.82965" y="97.92" style="stroke: #000000; stroke-width: 0.8"/>
      </g>
     </g>
    </g>
    <g id="xtick_16">
     <g id="line2d_29">
      <g>
       <use xlink:href="#m0ea74933aa" x="277.97713" y="97.92" style="stroke: #000000; stroke-width: 0.8"/>
      </g>
     </g>
    </g>
   </g>
   <g id="matplotlib.axis_8">
    <g id="ytick_7">
     <g id="line2d_30">
      <g>
       <use xlink:href="#mc088d6dae6" x="179.878141" y="94.371289" style="stroke: #000000; stroke-width: 0.8"/>
      </g>
     </g>
     <g id="text_16">
      <!-- -40 -->
      <g transform="translate(159.811891 97.410664)scale(0.08 -0.08)">
       <defs>
        <path id="DejaVuSans-2d" d="M 313 2009 
L 1997 2009 
L 1997 1497 
L 313 1497 
L 313 2009 
z
" transform="scale(0.015625)"/>
        <path id="DejaVuSans-34" d="M 2419 4116 
L 825 1625 
L 2419 1625 
L 2419 4116 
z
M 2253 4666 
L 3047 4666 
L 3047 1625 
L 3713 1625 
L 3713 1100 
L 3047 1100 
L 3047 0 
L 2419 0 
L 2419 1100 
L 313 1100 
L 313 1709 
L 2253 4666 
z
" transform="scale(0.015625)"/>
       </defs>
       <use xlink:href="#DejaVuSans-2d"/>
       <use xlink:href="#DejaVuSans-34" x="36.083984"/>
       <use xlink:href="#DejaVuSans-30" x="99.707031"/>
      </g>
     </g>
    </g>
    <g id="ytick_8">
     <g id="line2d_31">
      <g>
       <use xlink:href="#mc088d6dae6" x="179.878141" y="66.622856" style="stroke: #000000; stroke-width: 0.8"/>
      </g>
     </g>
     <g id="text_17">
      <!-- 0 -->
      <g transform="translate(167.788141 69.662231)scale(0.08 -0.08)">
       <use xlink:href="#DejaVuSans-30"/>
      </g>
     </g>
    </g>
    <g id="ytick_9">
     <g id="line2d_32">
      <g>
       <use xlink:href="#mc088d6dae6" x="179.878141" y="38.874422" style="stroke: #000000; stroke-width: 0.8"/>
      </g>
     </g>
     <g id="text_18">
      <!-- 40 -->
      <g transform="translate(162.698141 41.913797)scale(0.08 -0.08)">
       <use xlink:href="#DejaVuSans-34"/>
       <use xlink:href="#DejaVuSans-30" x="63.623047"/>
      </g>
     </g>
    </g>
   </g>
   <g id="line2d_33">
    <path d="M 184.534689 66.622856 
L 193.567459 66.622856 
L 193.878933 94.371289 
L 202.911703 94.371289 
L 203.223177 38.874422 
L 212.255947 38.874422 
L 212.567421 94.371289 
L 221.600191 94.371289 
L 221.911665 38.874422 
L 230.944435 38.874422 
L 231.25591 66.622856 
L 240.288679 66.622856 
L 240.600154 38.874422 
L 249.632923 38.874422 
L 249.944398 94.371289 
L 258.977167 94.371289 
L 259.288642 38.874422 
L 268.321411 38.874422 
L 268.632886 94.371289 
L 277.665655 94.371289 
L 277.665655 94.371289 
" clip-path="url(#p24ed25b0d5)" style="fill: none; stroke: #808080; stroke-width: 1.5; stroke-linecap: square"/>
   </g>
   <g id="line2d_34">
    <path d="M 184.534689 66.969482 
L 185.157639 64.688371 
L 185.469114 67.04886 
L 185.780589 68.191029 
L 186.092063 66.512741 
L 186.403538 69.971094 
L 186.715013 63.590224 
L 187.026488 67.908177 
L 187.337963 65.048839 
L 187.649437 67.969994 
L 187.960912 67.721761 
L 188.272387 68.212615 
L 188.583862 65.974668 
L 188.895337 66.926297 
L 189.206811 66.494917 
L 189.518286 63.98989 
L 189.829761 62.876812 
L 190.141236 67.506866 
L 190.452711 64.19629 
L 190.764185 68.410044 
L 191.07566 66.307388 
L 191.387135 65.193824 
L 191.69861 66.632616 
L 192.010085 67.510781 
L 192.633034 66.188444 
L 192.944509 68.766456 
L 193.255984 69.25519 
L 193.567459 68.182031 
L 193.878933 71.602234 
L 194.190408 67.993685 
L 194.501883 75.873479 
L 194.813358 68.959248 
L 195.124833 76.34647 
L 195.436307 75.136474 
L 195.747782 77.67031 
L 196.059257 74.369572 
L 196.370732 77.545777 
L 196.682207 78.036581 
L 196.993681 81.429444 
L 197.305156 76.490515 
L 197.616631 81.976809 
L 197.928106 78.025146 
L 198.239581 85.432436 
L 198.551055 81.605723 
L 198.86253 81.734735 
L 199.48548 85.414007 
L 199.796955 82.036034 
L 200.108429 86.276278 
L 200.419904 87.377915 
L 200.731379 86.61638 
L 201.042854 87.602559 
L 201.665803 84.958188 
L 201.977278 86.803575 
L 202.288753 86.858342 
L 202.600228 88.016992 
L 202.911703 85.100075 
L 203.223177 87.654432 
L 203.534652 81.411751 
L 203.846127 67.527294 
L 204.157602 60.178035 
L 204.469077 61.729372 
L 204.780551 55.68945 
L 205.092026 57.471606 
L 205.403501 56.784494 
L 205.714976 57.395799 
L 206.026451 50.888167 
L 206.337925 57.364273 
L 206.960875 51.00071 
L 207.27235 55.733473 
L 207.583825 51.803441 
L 207.895299 51.095323 
L 208.518249 48.011689 
L 208.829724 51.381171 
L 209.141199 52.60024 
L 209.452673 44.574142 
L 209.764148 42.48762 
L 210.075623 47.980611 
L 210.387098 47.912516 
L 210.698573 50.239302 
L 211.010047 46.243573 
L 211.321522 47.214644 
L 211.632997 45.340988 
L 211.944472 44.509938 
L 212.255947 47.294341 
L 212.567421 83.852754 
L 212.878896 86.98268 
L 213.190371 83.76036 
L 213.501846 85.50579 
L 213.813321 82.941666 
L 214.124795 88.415222 
L 214.43627 90.347548 
L 214.747745 84.540341 
L 215.05922 83.196287 
L 215.370695 87.653516 
L 215.682169 87.827188 
L 215.993644 87.518433 
L 216.305119 85.933748 
L 216.616594 87.415581 
L 216.928069 83.899242 
L 217.239543 85.748676 
L 217.551018 88.787662 
L 217.862493 84.506073 
L 218.485443 88.193666 
L 219.108392 88.098457 
L 219.419867 89.411513 
L 219.731342 88.903666 
L 220.042817 87.400868 
L 220.354291 88.223426 
L 220.665766 87.025073 
L 220.977241 88.743656 
L 221.288716 89.371266 
L 221.600191 86.047255 
L 221.911665 50.640009 
L 222.22314 46.462145 
L 222.534615 48.403738 
L 222.84609 44.801507 
L 223.157565 49.027756 
L 223.469039 45.619604 
L 223.780514 46.975648 
L 224.091989 47.266718 
L 224.403464 46.791208 
L 224.714939 45.629557 
L 225.026414 43.93674 
L 225.337888 44.149729 
L 225.649363 49.528245 
L 225.960838 44.355375 
L 226.895262 47.115115 
L 227.206737 46.674367 
L 227.518212 45.050584 
L 227.829687 49.851352 
L 228.141162 42.823167 
L 228.452636 43.107123 
L 228.764111 46.292343 
L 229.075586 41.293769 
L 229.387061 46.161999 
L 229.698536 46.691885 
L 230.01001 41.668157 
L 230.321485 40.509391 
L 230.63296 43.172388 
L 230.944435 42.452394 
L 231.25591 50.236619 
L 231.567384 65.536647 
L 231.878859 67.859187 
L 232.501809 66.992932 
L 232.813284 67.063545 
L 233.124758 64.073139 
L 233.436233 67.217853 
L 233.747708 63.656073 
L 234.059183 63.202831 
L 234.370658 65.840115 
L 234.682132 64.882707 
L 234.993607 67.708992 
L 235.305082 66.848106 
L 235.616557 67.262017 
L 235.928032 68.145195 
L 236.239506 66.019248 
L 236.550981 62.597595 
L 236.862456 64.565288 
L 237.173931 67.945365 
L 237.485406 65.742821 
L 237.79688 66.365485 
L 238.41983 65.427668 
L 238.731305 63.428936 
L 239.04278 65.754922 
L 239.354254 66.508261 
L 239.665729 64.305299 
L 239.977204 68.32753 
L 240.288679 68.617239 
L 240.600154 41.799531 
L 240.911628 44.550363 
L 241.223103 45.009162 
L 241.534578 42.774303 
L 241.846053 46.878075 
L 242.157528 46.695641 
L 242.469002 43.274861 
L 242.780477 44.8957 
L 243.091952 42.469412 
L 243.403427 43.790755 
L 243.714902 42.441261 
L 244.026376 45.521114 
L 244.649326 41.937924 
L 244.960801 44.592742 
L 245.272276 42.874541 
L 245.58375 40.07142 
L 245.895225 43.251539 
L 246.2067 41.375838 
L 246.518175 46.889871 
L 246.82965 44.076515 
L 247.141124 43.758676 
L 247.452599 41.405397 
L 247.764074 43.566666 
L 248.075549 42.708681 
L 248.387024 40.975486 
L 249.009973 44.523292 
L 249.321448 41.088122 
L 249.632923 43.009902 
L 249.944398 87.484261 
L 250.255872 92.591113 
L 250.567347 84.647142 
L 250.878822 92.687342 
L 251.190297 85.916847 
L 251.501772 88.591062 
L 251.813246 85.693544 
L 252.124721 88.047431 
L 252.436196 91.992902 
L 252.747671 91.316465 
L 253.059146 83.42377 
L 253.37062 91.751833 
L 253.682095 88.683895 
L 253.99357 88.080133 
L 254.305045 90.438993 
L 254.61652 84.178674 
L 255.239469 88.255171 
L 255.550944 92.356233 
L 255.862419 90.474522 
L 256.173894 85.29407 
L 256.485368 89.262546 
L 256.796843 89.196604 
L 257.108318 89.634398 
L 257.419793 90.74632 
L 258.042742 84.663546 
L 258.354217 90.585646 
L 258.665692 89.906861 
L 258.977167 91.180672 
L 259.288642 40.234607 
L 259.600116 44.819368 
L 260.223066 41.402394 
L 260.534541 43.023612 
L 260.846016 39.73324 
L 261.15749 41.729107 
L 261.468965 41.184883 
L 261.78044 43.668688 
L 262.091915 40.729089 
L 262.40339 41.471959 
L 262.714864 38.743297 
L 263.026339 40.769824 
L 263.337814 43.992006 
L 263.649289 43.913119 
L 263.960764 43.399442 
L 264.272238 41.131024 
L 264.583713 40.149277 
L 264.895188 46.599546 
L 265.518138 42.28391 
L 265.829612 43.370672 
L 266.141087 41.181096 
L 266.764037 38.968689 
L 267.075512 41.132798 
L 267.386986 37.44 
L 267.698461 39.46244 
L 268.321411 45.810581 
L 268.632886 87.717174 
L 268.94436 89.76473 
L 269.255835 92.713315 
L 269.878785 87.647505 
L 270.19026 89.055281 
L 270.501734 88.075993 
L 270.813209 87.963635 
L 271.124684 89.47886 
L 271.436159 94.802914 
L 271.747634 87.612958 
L 272.059108 91.104392 
L 272.370583 90.187685 
L 272.682058 85.103672 
L 272.993533 89.805348 
L 273.305008 85.57076 
L 273.616482 90.322797 
L 273.927957 90.112973 
L 274.239432 90.976469 
L 274.550907 88.304314 
L 274.862382 90.30736 
L 275.173856 86.892652 
L 275.485331 92.097235 
L 275.796806 91.39642 
L 276.108281 95.04 
L 276.419756 90.488904 
L 277.042705 87.971571 
L 277.35418 94.469616 
L 277.665655 87.615952 
L 277.665655 87.615952 
" clip-path="url(#p24ed25b0d5)" style="fill: none; stroke: #4c4c4c; stroke-width: 1.5; stroke-linecap: square"/>
   </g>
   <g id="patch_12">
    <path d="M 179.878141 97.92 
L 179.878141 34.56 
" style="fill: none; stroke: #000000; stroke-width: 0.8; stroke-linejoin: miter; stroke-linecap: square"/>
   </g>
   <g id="patch_13">
    <path d="M 179.878141 97.92 
L 282.322203 97.92 
" style="fill: none; stroke: #000000; stroke-width: 0.8; stroke-linejoin: miter; stroke-linecap: square"/>
   </g>
   <g id="text_19">
    <!-- Angle -->
    <g transform="translate(161.596829 77.623125)rotate(-90)scale(0.08 -0.08)">
     <defs>
      <path id="DejaVuSans-67" d="M 2906 1791 
Q 2906 2416 2648 2759 
Q 2391 3103 1925 3103 
Q 1463 3103 1205 2759 
Q 947 2416 947 1791 
Q 947 1169 1205 825 
Q 1463 481 1925 481 
Q 2391 481 2648 825 
Q 2906 1169 2906 1791 
z
M 3481 434 
Q 3481 -459 3084 -895 
Q 2688 -1331 1869 -1331 
Q 1566 -1331 1297 -1286 
Q 1028 -1241 775 -1147 
L 775 -588 
Q 1028 -725 1275 -790 
Q 1522 -856 1778 -856 
Q 2344 -856 2625 -561 
Q 2906 -266 2906 331 
L 2906 616 
Q 2728 306 2450 153 
Q 2172 0 1784 0 
Q 1141 0 747 490 
Q 353 981 353 1791 
Q 353 2603 747 3093 
Q 1141 3584 1784 3584 
Q 2172 3584 2450 3431 
Q 2728 3278 2906 2969 
L 2906 3500 
L 3481 3500 
L 3481 434 
z
" transform="scale(0.015625)"/>
     </defs>
     <use xlink:href="#DejaVuSans-41"/>
     <use xlink:href="#DejaVuSans-6e" x="68.408203"/>
     <use xlink:href="#DejaVuSans-67" x="131.787109"/>
     <use xlink:href="#DejaVuSans-6c" x="195.263672"/>
     <use xlink:href="#DejaVuSans-65" x="223.046875"/>
    </g>
   </g>
   <g id="text_20">
    <!-- Adaptation -->
    <g transform="translate(204.847172 28.56)scale(0.096 -0.096)">
     <defs>
      <path id="DejaVuSans-64" d="M 2906 2969 
L 2906 4863 
L 3481 4863 
L 3481 0 
L 2906 0 
L 2906 525 
Q 2725 213 2448 61 
Q 2172 -91 1784 -91 
Q 1150 -91 751 415 
Q 353 922 353 1747 
Q 353 2572 751 3078 
Q 1150 3584 1784 3584 
Q 2172 3584 2448 3432 
Q 2725 3281 2906 2969 
z
M 947 1747 
Q 947 1113 1208 752 
Q 1469 391 1925 391 
Q 2381 391 2643 752 
Q 2906 1113 2906 1747 
Q 2906 2381 2643 2742 
Q 2381 3103 1925 3103 
Q 1469 3103 1208 2742 
Q 947 2381 947 1747 
z
" transform="scale(0.015625)"/>
     </defs>
     <use xlink:href="#DejaVuSans-41"/>
     <use xlink:href="#DejaVuSans-64" x="66.658203"/>
     <use xlink:href="#DejaVuSans-61" x="130.134766"/>
     <use xlink:href="#DejaVuSans-70" x="191.414062"/>
     <use xlink:href="#DejaVuSans-74" x="254.890625"/>
     <use xlink:href="#DejaVuSans-61" x="294.099609"/>
     <use xlink:href="#DejaVuSans-74" x="355.378906"/>
     <use xlink:href="#DejaVuSans-69" x="394.587891"/>
     <use xlink:href="#DejaVuSans-6f" x="422.371094"/>
     <use xlink:href="#DejaVuSans-6e" x="483.552734"/>
    </g>
   </g>
  </g>
  <g id="axes_5">
   <g id="patch_14">
    <path d="M 179.878141 177.12 
L 282.322203 177.12 
L 282.322203 113.76 
L 179.878141 113.76 
z
" style="fill: #ffffff"/>
   </g>
   <g id="matplotlib.axis_9">
    <g id="xtick_17">
     <g id="line2d_35">
      <g>
       <use xlink:href="#m0ea74933aa" x="184.534689" y="177.12" style="stroke: #000000; stroke-width: 0.8"/>
      </g>
     </g>
    </g>
    <g id="xtick_18">
     <g id="line2d_36">
      <g>
       <use xlink:href="#m0ea74933aa" x="214.67416" y="177.12" style="stroke: #000000; stroke-width: 0.8"/>
      </g>
     </g>
    </g>
    <g id="xtick_19">
     <g id="line2d_37">
      <g>
       <use xlink:href="#m0ea74933aa" x="244.813631" y="177.12" style="stroke: #000000; stroke-width: 0.8"/>
      </g>
     </g>
    </g>
    <g id="xtick_20">
     <g id="line2d_38">
      <g>
       <use xlink:href="#m0ea74933aa" x="274.953102" y="177.12" style="stroke: #000000; stroke-width: 0.8"/>
      </g>
     </g>
    </g>
   </g>
   <g id="matplotlib.axis_10">
    <g id="ytick_10">
     <g id="line2d_39">
      <g>
       <use xlink:href="#mc088d6dae6" x="179.878141" y="161.994575" style="stroke: #000000; stroke-width: 0.8"/>
      </g>
     </g>
     <g id="text_21">
      <!-- 0 -->
      <g transform="translate(167.788141 165.03395)scale(0.08 -0.08)">
       <use xlink:href="#DejaVuSans-30"/>
      </g>
     </g>
    </g>
    <g id="ytick_11">
     <g id="line2d_40">
      <g>
       <use xlink:href="#mc088d6dae6" x="179.878141" y="127.391388" style="stroke: #000000; stroke-width: 0.8"/>
      </g>
     </g>
     <g id="text_22">
      <!-- 20 -->
      <g transform="translate(162.698141 130.430763)scale(0.08 -0.08)">
       <use xlink:href="#DejaVuSans-32"/>
       <use xlink:href="#DejaVuSans-30" x="63.623047"/>
      </g>
     </g>
    </g>
   </g>
   <g id="line2d_41">
    <path d="M 184.534689 161.994575 
L 190.261189 161.994575 
L 190.562584 127.391388 
L 208.344872 127.391388 
L 208.646266 161.994575 
L 220.40066 161.994575 
L 220.702055 127.391388 
L 235.470395 127.391388 
L 235.77179 161.994575 
L 241.49829 161.994575 
L 241.799684 127.391388 
L 250.540131 127.391388 
L 250.841526 161.994575 
L 262.595919 161.994575 
L 262.897314 127.391388 
L 277.665655 127.391388 
L 277.665655 127.391388 
" clip-path="url(#pb8dd62b2d9)" style="fill: none; stroke: #808080; stroke-width: 1.5; stroke-linecap: square"/>
   </g>
   <g id="line2d_42">
    <path d="M 184.534689 154.287037 
L 184.836084 162.650819 
L 185.137479 154.891881 
L 185.438874 174.24 
L 185.740268 161.769208 
L 186.041663 167.675751 
L 186.343058 161.033255 
L 186.644452 162.729641 
L 186.945847 158.235977 
L 187.247242 167.506282 
L 187.548637 166.447269 
L 187.850031 164.858554 
L 188.151426 156.197658 
L 188.452821 161.744667 
L 188.754215 160.781427 
L 189.05561 158.08853 
L 189.357005 164.090769 
L 189.658399 155.017669 
L 189.959794 167.848237 
L 190.261189 163.926194 
L 190.562584 166.538229 
L 190.863978 170.6041 
L 191.165373 163.496861 
L 191.466768 142.364328 
L 191.768162 137.946668 
L 192.069557 131.505791 
L 192.370952 138.063907 
L 192.672347 131.153066 
L 192.973741 135.733083 
L 193.275136 135.824078 
L 193.576531 126.865823 
L 193.877925 132.651928 
L 194.17932 130.080493 
L 194.480715 131.533134 
L 194.78211 130.467532 
L 195.083504 132.252808 
L 195.384899 124.765191 
L 195.686294 135.388972 
L 195.987688 129.580779 
L 196.289083 130.56911 
L 196.590478 136.791483 
L 196.891873 124.849371 
L 197.193267 130.081358 
L 197.494662 141.252196 
L 197.796057 124.455467 
L 198.097451 127.414616 
L 198.398846 124.829291 
L 198.700241 131.018038 
L 199.001635 122.333414 
L 199.30303 134.734671 
L 199.604425 142.527746 
L 199.90582 124.504443 
L 200.508609 127.443879 
L 200.810004 130.441927 
L 201.111398 125.411 
L 201.412793 128.120343 
L 201.714188 123.396584 
L 202.316977 130.050855 
L 202.618372 133.268948 
L 202.919767 130.254655 
L 203.221161 121.920797 
L 203.522556 125.128365 
L 203.823951 125.371187 
L 204.42674 132.314177 
L 204.728135 122.544691 
L 205.02953 128.569776 
L 205.330924 127.82067 
L 205.632319 132.385949 
L 205.933714 133.134534 
L 206.235109 127.752733 
L 206.536503 129.888783 
L 206.837898 123.343045 
L 207.139293 128.857104 
L 207.440687 128.09008 
L 207.742082 129.727943 
L 208.043477 122.352767 
L 208.344872 126.774004 
L 208.646266 127.318627 
L 208.947661 124.92176 
L 209.55045 136.946872 
L 209.851845 154.517314 
L 210.15324 153.918298 
L 210.454634 162.692467 
L 210.756029 166.190241 
L 211.057424 159.993401 
L 211.358819 163.168783 
L 211.961608 164.100091 
L 212.263003 156.309603 
L 212.564397 168.706606 
L 212.865792 157.319016 
L 213.167187 161.738188 
L 213.468582 158.355353 
L 214.071371 168.623705 
L 214.372766 157.449399 
L 214.67416 154.001345 
L 214.975555 160.791741 
L 215.27695 164.784456 
L 215.578345 156.469509 
L 215.879739 167.224297 
L 216.181134 170.904319 
L 216.482529 168.645862 
L 216.783923 160.005659 
L 217.085318 161.029527 
L 217.386713 166.476927 
L 217.688108 162.843124 
L 217.989502 162.291994 
L 218.290897 164.715845 
L 218.592292 162.835449 
L 218.893686 164.927216 
L 219.195081 163.338189 
L 219.496476 164.739738 
L 219.79787 160.187258 
L 220.099265 161.643495 
L 220.40066 166.47104 
L 220.702055 152.32134 
L 221.003449 150.784225 
L 221.304844 152.287507 
L 221.606239 136.465838 
L 221.907633 132.253055 
L 222.209028 125.395145 
L 222.510423 124.35676 
L 222.811818 138.090283 
L 223.113212 133.979859 
L 223.414607 122.846052 
L 223.716002 137.714785 
L 224.017396 122.264205 
L 224.318791 121.387546 
L 224.620186 129.64305 
L 224.921581 122.511647 
L 225.825765 135.575425 
L 226.127159 126.486766 
L 226.428554 121.510477 
L 226.729949 129.456015 
L 227.031344 129.399649 
L 227.634133 124.638209 
L 227.935528 135.799348 
L 228.538317 124.878932 
L 228.839712 127.509252 
L 229.141107 132.469264 
L 229.442501 124.255187 
L 230.045291 129.201804 
L 230.346685 126.728679 
L 230.64808 129.74964 
L 230.949475 120.753045 
L 231.250869 136.83062 
L 231.552264 124.89048 
L 231.853659 134.959354 
L 232.155054 128.729086 
L 232.456448 125.269245 
L 232.757843 126.620652 
L 233.059238 123.550733 
L 233.360632 133.24421 
L 233.662027 130.16466 
L 233.963422 128.836345 
L 234.264817 134.44718 
L 234.566211 126.980662 
L 234.867606 127.817373 
L 235.169001 123.144773 
L 235.470395 127.321106 
L 235.77179 127.504076 
L 236.073185 132.770883 
L 236.37458 134.079876 
L 236.675974 141.001842 
L 236.977369 152.508722 
L 237.278764 153.899224 
L 237.580158 158.570126 
L 237.881553 158.575822 
L 238.182948 159.777093 
L 238.484343 162.628651 
L 238.785737 158.867453 
L 239.087132 157.317885 
L 239.388527 161.532863 
L 239.689921 162.539374 
L 239.991316 164.238163 
L 240.292711 156.279248 
L 240.594105 164.867848 
L 240.8955 163.912281 
L 241.196895 160.563407 
L 241.49829 162.060273 
L 241.799684 159.123537 
L 242.101079 162.06327 
L 242.402474 151.636466 
L 242.703868 129.20365 
L 243.005263 137.227336 
L 243.306658 130.741079 
L 243.608053 121.172577 
L 243.909447 127.075448 
L 244.210842 128.762125 
L 244.512237 126.210097 
L 244.813631 128.14156 
L 245.115026 131.732859 
L 245.416421 131.631411 
L 245.717816 121.953032 
L 246.01921 123.224831 
L 246.320605 127.171993 
L 246.622 122.262914 
L 246.923394 136.292968 
L 247.224789 129.84938 
L 247.526184 129.281321 
L 247.827579 131.258476 
L 248.128973 123.597554 
L 248.430368 126.343134 
L 248.731763 119.218263 
L 249.033157 133.47391 
L 249.334552 124.127258 
L 249.635947 123.299135 
L 249.937341 134.275702 
L 250.238736 131.960163 
L 250.540131 124.542392 
L 250.841526 122.662683 
L 251.14292 126.479865 
L 251.74571 145.173209 
L 252.348499 157.25045 
L 252.649894 166.442308 
L 252.951289 157.812568 
L 253.554078 164.23411 
L 253.855473 163.361578 
L 254.156867 151.879072 
L 254.458262 160.890472 
L 254.759657 156.609958 
L 255.061052 158.114171 
L 255.362446 157.576479 
L 255.663841 164.525794 
L 255.965236 165.966393 
L 256.26663 158.614322 
L 256.568025 158.659563 
L 256.86942 151.827528 
L 257.170815 164.471221 
L 257.472209 158.269382 
L 257.773604 158.771181 
L 258.074999 163.30853 
L 258.376393 158.341767 
L 258.677788 159.648834 
L 258.979183 159.776458 
L 259.280578 153.013075 
L 259.581972 167.561654 
L 259.883367 168.063953 
L 260.184762 163.637363 
L 260.486156 169.242364 
L 260.787551 169.362704 
L 261.088946 159.828537 
L 261.39034 159.08067 
L 261.691735 164.190742 
L 261.99313 149.408128 
L 262.294525 160.883057 
L 262.595919 156.309645 
L 262.897314 160.671198 
L 263.198709 167.059666 
L 263.801498 141.980737 
L 264.404288 122.15792 
L 264.705682 128.135233 
L 265.007077 131.468636 
L 265.308472 139.572715 
L 265.609866 127.42059 
L 265.911261 127.36676 
L 266.514051 121.472742 
L 266.815445 125.760233 
L 267.11684 124.998072 
L 267.418235 125.96438 
L 267.719629 130.526312 
L 268.021024 126.74202 
L 268.322419 132.802679 
L 268.623814 125.221802 
L 268.925208 132.278067 
L 269.226603 128.312299 
L 269.527998 129.050866 
L 269.829392 127.349706 
L 270.130787 127.494318 
L 270.432182 134.062273 
L 270.733576 130.183272 
L 271.034971 128.049309 
L 271.637761 137.662994 
L 271.939155 130.574467 
L 272.24055 130.536359 
L 272.541945 136.65526 
L 272.843339 135.335057 
L 273.144734 132.086549 
L 273.446129 135.629732 
L 273.747524 129.918237 
L 274.350313 125.599815 
L 274.651708 132.136418 
L 275.555892 116.64 
L 276.158681 128.544884 
L 276.460076 124.722821 
L 276.761471 130.864699 
L 277.062865 126.331543 
L 277.665655 131.909418 
L 277.665655 131.909418 
" clip-path="url(#pb8dd62b2d9)" style="fill: none; stroke: #4c4c4c; stroke-width: 1.5; stroke-linecap: square"/>
   </g>
   <g id="patch_15">
    <path d="M 179.878141 177.12 
L 179.878141 113.76 
" style="fill: none; stroke: #000000; stroke-width: 0.8; stroke-linejoin: miter; stroke-linecap: square"/>
   </g>
   <g id="patch_16">
    <path d="M 179.878141 177.12 
L 282.322203 177.12 
" style="fill: none; stroke: #000000; stroke-width: 0.8; stroke-linejoin: miter; stroke-linecap: square"/>
   </g>
   <g id="text_23">
    <!-- Angle -->
    <g transform="translate(161.596829 156.823125)rotate(-90)scale(0.08 -0.08)">
     <use xlink:href="#DejaVuSans-41"/>
     <use xlink:href="#DejaVuSans-6e" x="68.408203"/>
     <use xlink:href="#DejaVuSans-67" x="131.787109"/>
     <use xlink:href="#DejaVuSans-6c" x="195.263672"/>
     <use xlink:href="#DejaVuSans-65" x="223.046875"/>
    </g>
   </g>
  </g>
  <g id="axes_6">
   <g id="patch_17">
    <path d="M 179.878141 256.32 
L 282.322203 256.32 
L 282.322203 192.96 
L 179.878141 192.96 
z
" style="fill: #ffffff"/>
   </g>
   <g id="matplotlib.axis_11">
    <g id="xtick_21">
     <g id="line2d_43">
      <g>
       <use xlink:href="#m0ea74933aa" x="184.534689" y="256.32" style="stroke: #000000; stroke-width: 0.8"/>
      </g>
     </g>
     <g id="text_24">
      <!-- 0 -->
      <g transform="translate(181.989689 269.39875)scale(0.08 -0.08)">
       <use xlink:href="#DejaVuSans-30"/>
      </g>
     </g>
    </g>
    <g id="xtick_22">
     <g id="line2d_44">
      <g>
       <use xlink:href="#m0ea74933aa" x="214.67416" y="256.32" style="stroke: #000000; stroke-width: 0.8"/>
      </g>
     </g>
     <g id="text_25">
      <!-- 100 -->
      <g transform="translate(207.03916 269.39875)scale(0.08 -0.08)">
       <use xlink:href="#DejaVuSans-31"/>
       <use xlink:href="#DejaVuSans-30" x="63.623047"/>
       <use xlink:href="#DejaVuSans-30" x="127.246094"/>
      </g>
     </g>
    </g>
    <g id="xtick_23">
     <g id="line2d_45">
      <g>
       <use xlink:href="#m0ea74933aa" x="244.813631" y="256.32" style="stroke: #000000; stroke-width: 0.8"/>
      </g>
     </g>
     <g id="text_26">
      <!-- 200 -->
      <g transform="translate(237.178631 269.39875)scale(0.08 -0.08)">
       <use xlink:href="#DejaVuSans-32"/>
       <use xlink:href="#DejaVuSans-30" x="63.623047"/>
       <use xlink:href="#DejaVuSans-30" x="127.246094"/>
      </g>
     </g>
    </g>
    <g id="xtick_24">
     <g id="line2d_46">
      <g>
       <use xlink:href="#m0ea74933aa" x="274.953102" y="256.32" style="stroke: #000000; stroke-width: 0.8"/>
      </g>
     </g>
     <g id="text_27">
      <!-- 300 -->
      <g transform="translate(267.318102 269.39875)scale(0.08 -0.08)">
       <use xlink:href="#DejaVuSans-33"/>
       <use xlink:href="#DejaVuSans-30" x="63.623047"/>
       <use xlink:href="#DejaVuSans-30" x="127.246094"/>
      </g>
     </g>
    </g>
    <g id="text_28">
     <!-- Trials -->
     <g transform="translate(220.845172 281.14125)scale(0.08 -0.08)">
      <defs>
       <path id="DejaVuSans-73" d="M 2834 3397 
L 2834 2853 
Q 2591 2978 2328 3040 
Q 2066 3103 1784 3103 
Q 1356 3103 1142 2972 
Q 928 2841 928 2578 
Q 928 2378 1081 2264 
Q 1234 2150 1697 2047 
L 1894 2003 
Q 2506 1872 2764 1633 
Q 3022 1394 3022 966 
Q 3022 478 2636 193 
Q 2250 -91 1575 -91 
Q 1294 -91 989 -36 
Q 684 19 347 128 
L 347 722 
Q 666 556 975 473 
Q 1284 391 1588 391 
Q 1994 391 2212 530 
Q 2431 669 2431 922 
Q 2431 1156 2273 1281 
Q 2116 1406 1581 1522 
L 1381 1569 
Q 847 1681 609 1914 
Q 372 2147 372 2553 
Q 372 3047 722 3315 
Q 1072 3584 1716 3584 
Q 2034 3584 2315 3537 
Q 2597 3491 2834 3397 
z
" transform="scale(0.015625)"/>
      </defs>
      <use xlink:href="#DejaVuSans-54"/>
      <use xlink:href="#DejaVuSans-72" x="46.333984"/>
      <use xlink:href="#DejaVuSans-69" x="87.447266"/>
      <use xlink:href="#DejaVuSans-61" x="115.230469"/>
      <use xlink:href="#DejaVuSans-6c" x="176.509766"/>
      <use xlink:href="#DejaVuSans-73" x="204.292969"/>
     </g>
    </g>
   </g>
   <g id="matplotlib.axis_12">
    <g id="ytick_12">
     <g id="line2d_47">
      <g>
       <use xlink:href="#mc088d6dae6" x="179.878141" y="238.082384" style="stroke: #000000; stroke-width: 0.8"/>
      </g>
     </g>
     <g id="text_29">
      <!-- 0 -->
      <g transform="translate(167.788141 241.121759)scale(0.08 -0.08)">
       <use xlink:href="#DejaVuSans-30"/>
      </g>
     </g>
    </g>
    <g id="ytick_13">
     <g id="line2d_48">
      <g>
       <use xlink:href="#mc088d6dae6" x="179.878141" y="210.927389" style="stroke: #000000; stroke-width: 0.8"/>
      </g>
     </g>
     <g id="text_30">
      <!-- 10 -->
      <g transform="translate(162.698141 213.966764)scale(0.08 -0.08)">
       <use xlink:href="#DejaVuSans-31"/>
       <use xlink:href="#DejaVuSans-30" x="63.623047"/>
      </g>
     </g>
    </g>
   </g>
   <g id="line2d_49">
    <path d="M 184.534689 238.082384 
L 190.261189 238.082384 
L 190.562584 210.927389 
L 208.344872 210.927389 
L 208.646266 238.082384 
L 220.40066 238.082384 
L 220.702055 210.927389 
L 235.470395 210.927389 
L 235.77179 238.082384 
L 241.49829 238.082384 
L 241.799684 210.927389 
L 250.540131 210.927389 
L 250.841526 238.082384 
L 262.595919 238.082384 
L 262.897314 210.927389 
L 277.665655 210.927389 
L 277.665655 210.927389 
" clip-path="url(#pacd0c75b7d)" style="fill: none; stroke: #808080; stroke-width: 1.5; stroke-linecap: square"/>
   </g>
   <g id="line2d_50">
    <path d="M 184.534689 235.092977 
L 184.836084 242.54588 
L 185.137479 238.265633 
L 185.438874 237.54431 
L 185.740268 244.791933 
L 186.041663 234.021419 
L 186.343058 236.6356 
L 186.644452 242.395986 
L 187.247242 236.84404 
L 187.548637 244.84595 
L 187.850031 235.898677 
L 188.151426 248.838676 
L 188.452821 237.656109 
L 188.754215 240.02718 
L 189.05561 243.364903 
L 189.357005 240.833184 
L 189.658399 223.849706 
L 189.959794 239.623545 
L 190.261189 228.827542 
L 190.562584 240.005497 
L 190.863978 238.432384 
L 191.165373 247.110502 
L 191.466768 238.555501 
L 191.768162 240.103099 
L 192.069557 248.518126 
L 192.672347 222.27035 
L 192.973741 235.591914 
L 193.275136 235.452909 
L 193.576531 231.99148 
L 193.877925 239.52103 
L 194.17932 225.443013 
L 194.480715 234.564189 
L 194.78211 215.533829 
L 195.083504 205.172278 
L 195.384899 222.265696 
L 195.686294 214.450996 
L 195.987688 220.547243 
L 196.289083 209.166161 
L 196.590478 204.014109 
L 196.891873 219.073298 
L 197.193267 219.94095 
L 197.494662 215.048229 
L 197.796057 215.642706 
L 198.097451 204.251706 
L 198.398846 205.534783 
L 198.700241 214.843706 
L 199.001635 212.73301 
L 199.30303 218.511295 
L 199.604425 216.263808 
L 199.90582 215.399196 
L 200.207214 212.035452 
L 200.508609 220.582672 
L 200.810004 211.682985 
L 201.111398 215.958369 
L 201.412793 202.661719 
L 201.714188 195.84 
L 202.015583 202.32021 
L 202.316977 218.428351 
L 202.618372 209.111597 
L 202.919767 217.595237 
L 203.221161 212.285645 
L 203.522556 216.140427 
L 203.823951 210.668998 
L 204.125346 214.662968 
L 204.42674 208.595818 
L 204.728135 218.065569 
L 205.02953 221.249453 
L 205.330924 220.411179 
L 205.632319 206.909665 
L 205.933714 217.893347 
L 206.235109 216.898063 
L 206.536503 204.157666 
L 206.837898 216.745681 
L 207.139293 215.170156 
L 207.440687 211.950843 
L 207.742082 206.085291 
L 208.043477 208.044836 
L 208.646266 222.962384 
L 208.947661 220.995453 
L 209.249056 224.756002 
L 209.55045 217.203636 
L 209.851845 232.431179 
L 210.15324 226.416258 
L 210.454634 228.401759 
L 210.756029 240.218893 
L 211.057424 246.131717 
L 211.358819 241.255023 
L 211.660213 240.191454 
L 211.961608 243.469456 
L 212.263003 236.388259 
L 212.564397 237.701559 
L 212.865792 241.320457 
L 213.167187 232.705215 
L 213.468582 234.89919 
L 213.769976 230.680788 
L 214.071371 241.750041 
L 214.372766 236.050421 
L 214.67416 225.107433 
L 214.975555 239.991857 
L 215.27695 247.067203 
L 215.578345 237.989049 
L 215.879739 239.476903 
L 216.181134 229.677326 
L 216.783923 239.110209 
L 217.085318 236.706475 
L 217.386713 229.579785 
L 217.688108 236.695532 
L 218.290897 240.135862 
L 218.592292 229.220832 
L 218.893686 236.006245 
L 219.195081 238.596639 
L 219.496476 235.442938 
L 219.79787 243.839898 
L 220.099265 227.401222 
L 220.702055 251.008335 
L 221.003449 229.590503 
L 221.304844 233.273429 
L 221.606239 234.849101 
L 221.907633 232.690151 
L 222.209028 218.849465 
L 222.510423 227.912306 
L 222.811818 227.047414 
L 223.113212 214.364257 
L 223.414607 212.609266 
L 223.716002 221.223897 
L 224.017396 213.965555 
L 224.318791 203.562913 
L 224.620186 203.47551 
L 224.921581 212.41576 
L 225.222975 209.182632 
L 225.52437 208.835851 
L 225.825765 217.587987 
L 226.127159 214.800847 
L 226.428554 220.483832 
L 226.729949 212.07466 
L 227.031344 209.929768 
L 227.332738 221.995853 
L 227.634133 208.610022 
L 227.935528 215.928133 
L 228.236922 214.899743 
L 228.538317 204.202474 
L 228.839712 214.255991 
L 229.141107 206.812221 
L 229.442501 215.642208 
L 229.743896 210.453547 
L 230.045291 219.32416 
L 230.346685 223.852399 
L 230.64808 208.950699 
L 230.949475 218.764025 
L 231.250869 212.916564 
L 231.552264 204.748764 
L 231.853659 214.737223 
L 232.155054 215.321437 
L 232.456448 220.866827 
L 232.757843 203.843294 
L 233.360632 212.260585 
L 233.662027 204.813159 
L 233.963422 215.403572 
L 234.264817 211.022915 
L 234.566211 201.3281 
L 234.867606 209.588197 
L 235.169001 222.359562 
L 235.77179 203.678651 
L 236.073185 217.795612 
L 236.37458 201.216401 
L 236.675974 215.954474 
L 236.977369 224.461614 
L 237.278764 220.886855 
L 237.580158 221.161599 
L 237.881553 223.075043 
L 238.484343 233.194658 
L 239.087132 236.674931 
L 239.388527 242.896363 
L 239.689921 226.585148 
L 239.991316 253.44 
L 240.292711 230.690723 
L 240.594105 236.475312 
L 240.8955 229.731213 
L 241.196895 242.643624 
L 241.49829 230.856949 
L 241.799684 242.056261 
L 242.101079 241.92148 
L 242.703868 224.676968 
L 243.005263 224.01936 
L 243.306658 241.851323 
L 243.608053 234.336531 
L 243.909447 238.985192 
L 244.210842 224.120109 
L 244.512237 231.017193 
L 244.813631 227.334434 
L 245.115026 220.364183 
L 245.416421 218.17696 
L 245.717816 204.840986 
L 246.01921 200.017586 
L 246.320605 213.278149 
L 246.622 212.110437 
L 246.923394 229.754902 
L 247.526184 202.628235 
L 247.827579 208.509312 
L 248.128973 217.808707 
L 248.430368 201.315003 
L 248.731763 205.990268 
L 249.033157 204.468752 
L 249.334552 214.043401 
L 249.635947 217.10133 
L 249.937341 207.225985 
L 250.238736 220.07958 
L 250.540131 207.491356 
L 250.841526 222.61945 
L 251.14292 215.744331 
L 251.444315 211.947655 
L 251.74571 228.394812 
L 252.047104 215.5881 
L 252.348499 231.20493 
L 252.951289 234.800329 
L 253.252683 243.998195 
L 253.554078 230.206331 
L 254.156867 246.423849 
L 254.458262 231.472003 
L 254.759657 232.159336 
L 255.061052 235.946979 
L 255.362446 245.360079 
L 255.663841 243.045116 
L 255.965236 238.958473 
L 256.26663 248.317897 
L 256.568025 224.943233 
L 256.86942 239.053872 
L 257.170815 231.620041 
L 257.472209 238.556386 
L 257.773604 239.456816 
L 258.074999 241.943372 
L 258.376393 241.136015 
L 258.677788 242.856921 
L 258.979183 231.427947 
L 259.581972 243.457716 
L 259.883367 236.668008 
L 260.184762 241.552332 
L 260.486156 232.740285 
L 260.787551 234.397689 
L 261.088946 232.708359 
L 261.39034 242.268768 
L 261.691735 232.194237 
L 262.294525 249.121274 
L 262.897314 240.22962 
L 263.198709 228.485388 
L 263.500103 236.692818 
L 263.801498 231.930507 
L 264.102893 215.344278 
L 264.404288 224.798072 
L 264.705682 230.11384 
L 265.007077 228.863877 
L 265.308472 215.968882 
L 265.609866 226.509411 
L 265.911261 217.419435 
L 266.212656 225.511739 
L 266.514051 219.989974 
L 266.815445 207.389281 
L 267.11684 218.87256 
L 267.418235 216.674229 
L 267.719629 220.469753 
L 268.021024 218.784321 
L 268.322419 208.362812 
L 268.623814 204.519274 
L 268.925208 215.775829 
L 269.226603 203.307876 
L 269.527998 216.894018 
L 269.829392 210.163521 
L 270.432182 215.941857 
L 270.733576 217.102414 
L 271.034971 210.167679 
L 271.336366 218.791541 
L 271.637761 223.832402 
L 271.939155 207.34267 
L 272.24055 201.187705 
L 272.541945 224.54438 
L 272.843339 214.53644 
L 273.144734 215.829167 
L 273.446129 208.539772 
L 273.747524 207.441494 
L 274.048918 215.572219 
L 274.350313 204.636991 
L 274.651708 210.72365 
L 275.254497 208.32575 
L 275.555892 207.72981 
L 275.857287 220.697062 
L 276.158681 208.959337 
L 276.460076 208.449635 
L 276.761471 225.027801 
L 277.062865 226.672439 
L 277.36426 208.437402 
L 277.665655 203.519989 
L 277.665655 203.519989 
" clip-path="url(#pacd0c75b7d)" style="fill: none; stroke: #4c4c4c; stroke-width: 1.5; stroke-linecap: square"/>
   </g>
   <g id="patch_18">
    <path d="M 179.878141 256.32 
L 179.878141 192.96 
" style="fill: none; stroke: #000000; stroke-width: 0.8; stroke-linejoin: miter; stroke-linecap: square"/>
   </g>
   <g id="patch_19">
    <path d="M 179.878141 256.32 
L 282.322203 256.32 
" style="fill: none; stroke: #000000; stroke-width: 0.8; stroke-linejoin: miter; stroke-linecap: square"/>
   </g>
   <g id="text_31">
    <!-- Angle -->
    <g transform="translate(161.596829 236.023125)rotate(-90)scale(0.08 -0.08)">
     <use xlink:href="#DejaVuSans-41"/>
     <use xlink:href="#DejaVuSans-6e" x="68.408203"/>
     <use xlink:href="#DejaVuSans-67" x="131.787109"/>
     <use xlink:href="#DejaVuSans-6c" x="195.263672"/>
     <use xlink:href="#DejaVuSans-65" x="223.046875"/>
    </g>
   </g>
  </g>
  <g id="axes_7">
   <g id="patch_20">
    <path d="M 286.355938 97.92 
L 388.8 97.92 
L 388.8 34.56 
L 286.355938 34.56 
z
" style="fill: #ffffff"/>
   </g>
   <g id="matplotlib.axis_13">
    <g id="xtick_25">
     <g id="line2d_51">
      <g>
       <use xlink:href="#m0ea74933aa" x="291.012486" y="97.92" style="stroke: #000000; stroke-width: 0.8"/>
      </g>
     </g>
    </g>
    <g id="xtick_26">
     <g id="line2d_52">
      <g>
       <use xlink:href="#m0ea74933aa" x="322.159966" y="97.92" style="stroke: #000000; stroke-width: 0.8"/>
      </g>
     </g>
    </g>
    <g id="xtick_27">
     <g id="line2d_53">
      <g>
       <use xlink:href="#m0ea74933aa" x="353.307446" y="97.92" style="stroke: #000000; stroke-width: 0.8"/>
      </g>
     </g>
    </g>
    <g id="xtick_28">
     <g id="line2d_54">
      <g>
       <use xlink:href="#m0ea74933aa" x="384.454927" y="97.92" style="stroke: #000000; stroke-width: 0.8"/>
      </g>
     </g>
    </g>
   </g>
   <g id="matplotlib.axis_14">
    <g id="ytick_14">
     <g id="line2d_55">
      <g>
       <use xlink:href="#mc088d6dae6" x="286.355938" y="94.371289" style="stroke: #000000; stroke-width: 0.8"/>
      </g>
     </g>
    </g>
    <g id="ytick_15">
     <g id="line2d_56">
      <g>
       <use xlink:href="#mc088d6dae6" x="286.355938" y="66.622856" style="stroke: #000000; stroke-width: 0.8"/>
      </g>
     </g>
    </g>
    <g id="ytick_16">
     <g id="line2d_57">
      <g>
       <use xlink:href="#mc088d6dae6" x="286.355938" y="38.874422" style="stroke: #000000; stroke-width: 0.8"/>
      </g>
     </g>
    </g>
   </g>
   <g id="line2d_58">
    <path d="M 291.012486 66.622856 
L 300.045256 66.622856 
L 300.35673 94.371289 
L 309.3895 94.371289 
L 309.700974 38.874422 
L 318.733744 38.874422 
L 319.045218 94.371289 
L 328.077988 94.371289 
L 328.389462 38.874422 
L 337.422232 38.874422 
L 337.733706 66.622856 
L 346.766476 66.622856 
L 347.07795 38.874422 
L 356.11072 38.874422 
L 356.422194 94.371289 
L 365.454964 94.371289 
L 365.766438 38.874422 
L 374.799208 38.874422 
L 375.110683 94.371289 
L 384.143452 94.371289 
L 384.143452 94.371289 
" clip-path="url(#pa6ebee4631)" style="fill: none; stroke: #808080; stroke-width: 1.5; stroke-linecap: square"/>
   </g>
   <g id="patch_21">
    <path d="M 286.355938 97.92 
L 286.355938 34.56 
" style="fill: none; stroke: #000000; stroke-width: 0.8; stroke-linejoin: miter; stroke-linecap: square"/>
   </g>
   <g id="patch_22">
    <path d="M 286.355938 97.92 
L 388.8 97.92 
" style="fill: none; stroke: #000000; stroke-width: 0.8; stroke-linejoin: miter; stroke-linecap: square"/>
   </g>
   <g id="text_32">
    <!-- Exp. data -->
    <g transform="translate(314.793719 28.56)scale(0.096 -0.096)">
     <defs>
      <path id="DejaVuSans-45" d="M 628 4666 
L 3578 4666 
L 3578 4134 
L 1259 4134 
L 1259 2753 
L 3481 2753 
L 3481 2222 
L 1259 2222 
L 1259 531 
L 3634 531 
L 3634 0 
L 628 0 
L 628 4666 
z
" transform="scale(0.015625)"/>
      <path id="DejaVuSans-2e" d="M 684 794 
L 1344 794 
L 1344 0 
L 684 0 
L 684 794 
z
" transform="scale(0.015625)"/>
      <path id="DejaVuSans-20" transform="scale(0.015625)"/>
     </defs>
     <use xlink:href="#DejaVuSans-45"/>
     <use xlink:href="#DejaVuSans-78" x="63.183594"/>
     <use xlink:href="#DejaVuSans-70" x="122.363281"/>
     <use xlink:href="#DejaVuSans-2e" x="185.839844"/>
     <use xlink:href="#DejaVuSans-20" x="217.626953"/>
     <use xlink:href="#DejaVuSans-64" x="249.414062"/>
     <use xlink:href="#DejaVuSans-61" x="312.890625"/>
     <use xlink:href="#DejaVuSans-74" x="374.169922"/>
     <use xlink:href="#DejaVuSans-61" x="413.378906"/>
    </g>
   </g>
  </g>
  <g id="axes_8">
   <g id="patch_23">
    <path d="M 286.355938 177.12 
L 388.8 177.12 
L 388.8 113.76 
L 286.355938 113.76 
z
" style="fill: #ffffff"/>
   </g>
   <g id="matplotlib.axis_15">
    <g id="xtick_29">
     <g id="line2d_59">
      <g>
       <use xlink:href="#m0ea74933aa" x="291.012486" y="177.12" style="stroke: #000000; stroke-width: 0.8"/>
      </g>
     </g>
    </g>
    <g id="xtick_30">
     <g id="line2d_60">
      <g>
       <use xlink:href="#m0ea74933aa" x="321.151957" y="177.12" style="stroke: #000000; stroke-width: 0.8"/>
      </g>
     </g>
    </g>
    <g id="xtick_31">
     <g id="line2d_61">
      <g>
       <use xlink:href="#m0ea74933aa" x="351.291428" y="177.12" style="stroke: #000000; stroke-width: 0.8"/>
      </g>
     </g>
    </g>
    <g id="xtick_32">
     <g id="line2d_62">
      <g>
       <use xlink:href="#m0ea74933aa" x="381.430899" y="177.12" style="stroke: #000000; stroke-width: 0.8"/>
      </g>
     </g>
    </g>
   </g>
   <g id="matplotlib.axis_16">
    <g id="ytick_17">
     <g id="line2d_63">
      <g>
       <use xlink:href="#mc088d6dae6" x="286.355938" y="161.994575" style="stroke: #000000; stroke-width: 0.8"/>
      </g>
     </g>
    </g>
    <g id="ytick_18">
     <g id="line2d_64">
      <g>
       <use xlink:href="#mc088d6dae6" x="286.355938" y="127.391388" style="stroke: #000000; stroke-width: 0.8"/>
      </g>
     </g>
    </g>
   </g>
   <g id="line2d_65">
    <path d="M 291.012486 161.994575 
L 296.738986 161.994575 
L 297.040381 127.391388 
L 314.822668 127.391388 
L 315.124063 161.994575 
L 326.878457 161.994575 
L 327.179852 127.391388 
L 341.948192 127.391388 
L 342.249587 161.994575 
L 347.976087 161.994575 
L 348.277481 127.391388 
L 357.017928 127.391388 
L 357.319323 161.994575 
L 369.073716 161.994575 
L 369.375111 127.391388 
L 384.143452 127.391388 
L 384.143452 127.391388 
" clip-path="url(#p1e7ec6164a)" style="fill: none; stroke: #808080; stroke-width: 1.5; stroke-linecap: square"/>
   </g>
   <g id="patch_24">
    <path d="M 286.355938 177.12 
L 286.355938 113.76 
" style="fill: none; stroke: #000000; stroke-width: 0.8; stroke-linejoin: miter; stroke-linecap: square"/>
   </g>
   <g id="patch_25">
    <path d="M 286.355938 177.12 
L 388.8 177.12 
" style="fill: none; stroke: #000000; stroke-width: 0.8; stroke-linejoin: miter; stroke-linecap: square"/>
   </g>
  </g>
  <g id="axes_9">
   <g id="patch_26">
    <path d="M 286.355938 256.32 
L 388.8 256.32 
L 388.8 192.96 
L 286.355938 192.96 
z
" style="fill: #ffffff"/>
   </g>
   <g id="matplotlib.axis_17">
    <g id="xtick_33">
     <g id="line2d_66">
      <g>
       <use xlink:href="#m0ea74933aa" x="291.012486" y="256.32" style="stroke: #000000; stroke-width: 0.8"/>
      </g>
     </g>
     <g id="text_33">
      <!-- 0 -->
      <g transform="translate(288.467486 269.39875)scale(0.08 -0.08)">
       <use xlink:href="#DejaVuSans-30"/>
      </g>
     </g>
    </g>
    <g id="xtick_34">
     <g id="line2d_67">
      <g>
       <use xlink:href="#m0ea74933aa" x="321.151957" y="256.32" style="stroke: #000000; stroke-width: 0.8"/>
      </g>
     </g>
     <g id="text_34">
      <!-- 100 -->
      <g transform="translate(313.516957 269.39875)scale(0.08 -0.08)">
       <use xlink:href="#DejaVuSans-31"/>
       <use xlink:href="#DejaVuSans-30" x="63.623047"/>
       <use xlink:href="#DejaVuSans-30" x="127.246094"/>
      </g>
     </g>
    </g>
    <g id="xtick_35">
     <g id="line2d_68">
      <g>
       <use xlink:href="#m0ea74933aa" x="351.291428" y="256.32" style="stroke: #000000; stroke-width: 0.8"/>
      </g>
     </g>
     <g id="text_35">
      <!-- 200 -->
      <g transform="translate(343.656428 269.39875)scale(0.08 -0.08)">
       <use xlink:href="#DejaVuSans-32"/>
       <use xlink:href="#DejaVuSans-30" x="63.623047"/>
       <use xlink:href="#DejaVuSans-30" x="127.246094"/>
      </g>
     </g>
    </g>
    <g id="xtick_36">
     <g id="line2d_69">
      <g>
       <use xlink:href="#m0ea74933aa" x="381.430899" y="256.32" style="stroke: #000000; stroke-width: 0.8"/>
      </g>
     </g>
     <g id="text_36">
      <!-- 300 -->
      <g transform="translate(373.795899 269.39875)scale(0.08 -0.08)">
       <use xlink:href="#DejaVuSans-33"/>
       <use xlink:href="#DejaVuSans-30" x="63.623047"/>
       <use xlink:href="#DejaVuSans-30" x="127.246094"/>
      </g>
     </g>
    </g>
    <g id="text_37">
     <!-- Trial -->
     <g transform="translate(329.406719 281.14125)scale(0.08 -0.08)">
      <use xlink:href="#DejaVuSans-54"/>
      <use xlink:href="#DejaVuSans-72" x="46.333984"/>
      <use xlink:href="#DejaVuSans-69" x="87.447266"/>
      <use xlink:href="#DejaVuSans-61" x="115.230469"/>
      <use xlink:href="#DejaVuSans-6c" x="176.509766"/>
     </g>
    </g>
   </g>
   <g id="matplotlib.axis_18">
    <g id="ytick_19">
     <g id="line2d_70">
      <g>
       <use xlink:href="#mc088d6dae6" x="286.355938" y="238.082384" style="stroke: #000000; stroke-width: 0.8"/>
      </g>
     </g>
    </g>
    <g id="ytick_20">
     <g id="line2d_71">
      <g>
       <use xlink:href="#mc088d6dae6" x="286.355938" y="210.927389" style="stroke: #000000; stroke-width: 0.8"/>
      </g>
     </g>
    </g>
   </g>
   <g id="line2d_72">
    <path d="M 291.012486 238.082384 
L 296.738986 238.082384 
L 297.040381 210.927389 
L 314.822668 210.927389 
L 315.124063 238.082384 
L 326.878457 238.082384 
L 327.179852 210.927389 
L 341.948192 210.927389 
L 342.249587 238.082384 
L 347.976087 238.082384 
L 348.277481 210.927389 
L 357.017928 210.927389 
L 357.319323 238.082384 
L 369.073716 238.082384 
L 369.375111 210.927389 
L 384.143452 210.927389 
L 384.143452 210.927389 
" clip-path="url(#p8b6ce0bfe5)" style="fill: none; stroke: #808080; stroke-width: 1.5; stroke-linecap: square"/>
   </g>
   <g id="patch_27">
    <path d="M 286.355938 256.32 
L 286.355938 192.96 
" style="fill: none; stroke: #000000; stroke-width: 0.8; stroke-linejoin: miter; stroke-linecap: square"/>
   </g>
   <g id="patch_28">
    <path d="M 286.355938 256.32 
L 388.8 256.32 
" style="fill: none; stroke: #000000; stroke-width: 0.8; stroke-linejoin: miter; stroke-linecap: square"/>
   </g>
  </g>
 </g>
 <defs>
  <clipPath id="p2c16723052">
   <rect x="54" y="34.56" width="102.444062" height="63.36"/>
  </clipPath>
  <clipPath id="pbbe1fccfbf">
   <rect x="54" y="113.76" width="102.444062" height="63.36"/>
  </clipPath>
  <clipPath id="p40c916d18b">
   <rect x="54" y="192.96" width="102.444062" height="63.36"/>
  </clipPath>
  <clipPath id="p24ed25b0d5">
   <rect x="179.878141" y="34.56" width="102.444062" height="63.36"/>
  </clipPath>
  <clipPath id="pb8dd62b2d9">
   <rect x="179.878141" y="113.76" width="102.444062" height="63.36"/>
  </clipPath>
  <clipPath id="pacd0c75b7d">
   <rect x="179.878141" y="192.96" width="102.444062" height="63.36"/>
  </clipPath>
  <clipPath id="pa6ebee4631">
   <rect x="286.355938" y="34.56" width="102.444062" height="63.36"/>
  </clipPath>
  <clipPath id="p1e7ec6164a">
   <rect x="286.355938" y="113.76" width="102.444062" height="63.36"/>
  </clipPath>
  <clipPath id="p8b6ce0bfe5">
   <rect x="286.355938" y="192.96" width="102.444062" height="63.36"/>
  </clipPath>
 </defs>
</svg>
